<svg xmlns="http://www.w3.org/2000/svg" viewBox="0 0 1200 200" role="img" aria-label="Großer Schirm schützt kleine Häuser vor dem Regen">
<rect width="1200" height="200" fill="#EEEDFE"/>
<g stroke="#AFA9EC" stroke-width="4" stroke-linecap="round">
<line x1="130" y1="18" x2="112" y2="52"/><line x1="230" y1="30" x2="212" y2="64"/>
<line x1="330" y1="12" x2="312" y2="46"/><line x1="905" y1="16" x2="887" y2="50"/>
<line x1="1005" y1="34" x2="987" y2="68"/><line x1="1105" y1="14" x2="1087" y2="48"/>
<line x1="960" y1="76" x2="946" y2="102"/><line x1="1160" y1="60" x2="1146" y2="86"/>
<line x1="180" y1="72" x2="166" y2="98"/><line x1="60" y1="46" x2="46" y2="72"/>
</g>
<path d="M375,98 A230,160 0 0 1 825,98 L750,98 A38,16 0 0 0 674,98 L638,98 A38,16 0 0 0 562,98 L526,98 A38,16 0 0 0 450,98 L414,98 A20,10 0 0 0 375,98 Z" fill="#534AB7"/>
<path d="M597,98 L597,30" stroke="#26215C" stroke-width="7" stroke-linecap="round"/>
<path d="M597,98 L597,112 q0,10 -12,10" stroke="#26215C" stroke-width="6" fill="none" stroke-linecap="round"/>
<circle cx="600" cy="24" r="7" fill="#f3c46a"/>
<g fill="#3C3489">
<path d="M470,160 L470,124 L502,104 L534,124 L534,160 Z"/>
<path d="M560,160 L560,120 L598,96 L636,120 L636,160 Z"/>
<path d="M662,160 L662,126 L690,108 L718,126 L718,160 Z"/>
</g>
<g fill="#f3c46a"><rect x="490" y="130" width="11" height="12" rx="1"/><rect x="586" y="124" width="12" height="13" rx="1"/><rect x="680" y="130" width="10" height="11" rx="1"/></g>
<path d="M0,150 C190,132 380,164 600,150 C820,136 1010,166 1200,150 V200 H0 Z" fill="#3C3489"/>
<path d="M0,180 C220,166 460,192 700,178 C920,166 1080,188 1200,178 V200 H0 Z" fill="#26215C"/>
</svg>
