<svg xmlns="http://www.w3.org/2000/svg" viewBox="0 0 1200 200" role="img" aria-label="Panorama mit Vulkan und Wellen in Lilatönen">
<rect width="1200" height="200" fill="#EEEDFE"/>
<circle cx="330" cy="52" r="30" fill="#f3c46a"/>
<circle cx="330" cy="52" r="42" fill="none" stroke="#f3c46a" stroke-width="2" opacity="0.45"/>
<path d="M0,120 L120,74 L230,120 Z" fill="#CECBF6"/>
<path d="M560,120 L700,40 L840,120 Z" fill="#CECBF6"/>
<path d="M660,120 L780,30 L910,120 Z" fill="#7F77DD"/>
<path d="M780,30 L757,48 L772,52 L748,74 L800,74 L784,54 L801,47 Z" fill="#EEEDFE" opacity="0.85"/>
<path d="M790,26 C806,12 826,20 820,34 C838,26 856,40 844,52" fill="none" stroke="#AFA9EC" stroke-width="5" stroke-linecap="round"/>
<path d="M470,70 q10,-8 20,0 M500,58 q10,-8 20,0" fill="none" stroke="#534AB7" stroke-width="3" stroke-linecap="round"/>
<path d="M0,124 C150,96 290,140 450,118 C610,96 760,138 920,116 C1040,101 1130,118 1200,108 V200 H0 Z" fill="#534AB7"/>
<path d="M0,150 C170,128 330,166 520,146 C700,128 880,168 1050,148 C1110,141 1170,148 1200,144 V200 H0 Z" fill="#3C3489"/>
<path d="M0,178 C200,162 420,190 640,176 C860,163 1040,188 1200,176 V200 H0 Z" fill="#26215C"/>
<circle cx="245" cy="132" r="4" fill="#EEEDFE" opacity="0.5"/>
<circle cx="1010" cy="128" r="3" fill="#EEEDFE" opacity="0.5"/>
</svg>
