<svg xmlns="http://www.w3.org/2000/svg" viewBox="0 0 1200 200" role="img" aria-label="Eine Signalwelle läuft über die Landschaft — mitten drin fehlt ein Stück, der goldene Impuls schwebt an die leere Stelle"><rect width="1200" height="200" fill="#EEEDFE"/><path d="M0,124 C150,96 290,140 450,118 C610,96 760,138 920,116 C1040,101 1130,118 1200,108 V200 H0 Z" fill="#534AB7"/><path d="M180,116 L220,96 L260,132 L300,100 L340,124 L380,104 L420,120" fill="none" stroke="#26215C" stroke-width="4" stroke-linecap="round" stroke-linejoin="round"/><path d="M640,120 L680,102 L720,128 L760,98 L800,126 L840,104 L880,120 L920,110" fill="none" stroke="#26215C" stroke-width="4" stroke-linecap="round" stroke-linejoin="round"/><line x1="430" y1="118" x2="632" y2="118" stroke="#3C3489" stroke-width="2" stroke-dasharray="4 5" opacity="0.6"/><path d="M500,80 L530,58 L560,92 L590,60 L620,82" fill="none" stroke="#f3c46a" stroke-width="4" stroke-linecap="round" stroke-linejoin="round"/><path d="M0,150 C170,128 330,166 520,146 C700,128 880,168 1050,148 C1110,141 1170,148 1200,144 V200 H0 Z" fill="#3C3489"/><path d="M0,178 C200,162 420,190 640,176 C860,163 1040,188 1200,176 V200 H0 Z" fill="#26215C"/></svg>