<svg xmlns="http://www.w3.org/2000/svg" viewBox="0 0 1200 200" role="img" aria-label="Eine Kette aus ineinandergreifenden Gliedern spannt sich über die Wellen — ein Glied leuchtet golden, das verbindende Band"><rect width="1200" height="200" fill="#EEEDFE"/><path d="M0,132 C200,120 400,136 600,126 C800,116 1000,134 1200,124 V200 H0 Z" fill="#7F77DD"/><g fill="none" stroke="#26215C" stroke-width="6"><ellipse cx="250" cy="112" rx="26" ry="15"/><ellipse cx="314" cy="112" rx="15" ry="26"/><ellipse cx="378" cy="112" rx="26" ry="15"/><ellipse cx="442" cy="112" rx="15" ry="26"/><ellipse cx="506" cy="112" rx="26" ry="15"/><ellipse cx="570" cy="112" rx="15" ry="26"/><ellipse cx="698" cy="112" rx="15" ry="26"/><ellipse cx="762" cy="112" rx="26" ry="15"/><ellipse cx="826" cy="112" rx="15" ry="26"/><ellipse cx="890" cy="112" rx="26" ry="15"/><ellipse cx="954" cy="112" rx="15" ry="26"/></g><ellipse cx="634" cy="112" rx="15" ry="26" fill="none" stroke="#f3c46a" stroke-width="7"/><path d="M0,158 C170,144 340,170 540,158 C720,146 900,170 1050,158 C1110,152 1170,158 1200,154 V200 H0 Z" fill="#3C3489"/><path d="M0,182 C200,168 420,194 640,180 C860,168 1040,192 1200,180 V200 H0 Z" fill="#26215C"/></svg>