<svg xmlns="http://www.w3.org/2000/svg" viewBox="0 0 1200 200" role="img" aria-label="Ein Kescher fängt einen goldenen Schmetterling über der Welle">
<rect width="1200" height="200" fill="#EEEDFE"/>
<circle cx="300" cy="50" r="18" fill="#CECBF6" opacity="0.9"/><circle cx="308" cy="46" r="18" fill="#EEEDFE"/>
<path d="M840,122 L940,62 L1040,122 Z" fill="#AFA9EC"/>
<path d="M0,128 C150,104 320,144 480,120 C640,100 800,142 960,118 C1080,104 1150,122 1200,114 V200 H0 Z" fill="#534AB7"/>
<path d="M0,154 C180,134 360,172 540,148 C720,130 900,170 1080,146 C1140,140 1180,150 1200,144 V200 H0 Z" fill="#3C3489"/>
<path d="M0,182 C200,168 420,196 640,176 C860,166 1040,194 1200,174 V200 H0 Z" fill="#26215C"/>
<line x1="560" y1="150" x2="640" y2="70" stroke="#26215C" stroke-width="5" stroke-linecap="round"/>
<circle cx="660" cy="56" r="34" fill="none" stroke="#3C3489" stroke-width="4"/><path d="M632,44 q28,26 56,0 l-6,26 q-22,12 -44,0 Z" fill="#534AB7" opacity="0.5"/>
<g transform="translate(660,52) scale(1.45)" fill="#f3c46a"><path d="M0,0 C-16,-14 -22,2 -8,8 C-14,14 -2,18 0,6 Z"/><path d="M0,0 C16,-14 22,2 8,8 C14,14 2,18 0,6 Z"/></g><line x1="660" y1="40" x2="660" y2="66" stroke="#26215C" stroke-width="2"/>
<path d="M870,66 q5.0,-7.0 10,0 q5.0,-7.0 10,0" fill="none" stroke="#26215C" stroke-width="2.4" stroke-linecap="round"/>
<path d="M905,58 q5.0,-7.0 10,0 q5.0,-7.0 10,0" fill="none" stroke="#26215C" stroke-width="2.4" stroke-linecap="round"/>
</svg>
