<svg xmlns="http://www.w3.org/2000/svg" viewBox="0 0 1200 200" role="img" aria-label="Traumlandschaft: über den Hügeln steht der goldene Wunschstern, sein Licht spiegelt sich in der Welle">
<rect width="1200" height="200" fill="#EEEDFE"/>
<polygon points="770.0,31.0 775.3,46.7 791.9,46.9 778.6,56.8 783.5,72.6 770.0,63.0 756.5,72.6 761.4,56.8 748.1,46.9 764.7,46.7" fill="#f3c46a"/>
<path d="M0,116 L160,88 L330,116 Z" fill="#CECBF6"/>
<path d="M470,116 L650,80 L840,116 Z" fill="#AFA9EC"/>
<path d="M760,116 L950,92 L1140,116 Z" fill="#CECBF6"/>
<ellipse cx="770" cy="150" rx="10" ry="26" fill="#EEEDFE" opacity="0.35"/>
<line x1="770" y1="134" x2="770" y2="176" stroke="#EEEDFE" stroke-width="3" opacity="0.5" stroke-linecap="round"/>
<path d="M0,122 C150,104 320,138 480,122 C640,106 800,138 960,122 C1060,112 1140,122 1200,116 V200 H0 Z" fill="#534AB7"/>
<path d="M0,150 C170,130 330,166 520,148 C700,130 880,166 1050,150 C1110,144 1170,150 1200,146 V200 H0 Z" fill="#3C3489"/>
<path d="M0,178 C200,164 420,190 640,176 C860,164 1040,188 1200,176 V200 H0 Z" fill="#26215C"/>
</svg>
