<svg xmlns="http://www.w3.org/2000/svg" viewBox="0 0 1200 200" role="img" aria-label="Eine Reihe Trittsteine über der Welle — einer fehlt, der goldene Stein schwebt heran und schließt die Lücke">
<rect width="1200" height="200" fill="#EEEDFE"/>
<path d="M0,116 L170,94 L340,116 Z" fill="#CECBF6"/>
<ellipse cx="200" cy="128" rx="26" ry="12" fill="#3C3489"/>
<ellipse cx="200" cy="124" rx="26" ry="12" fill="#534AB7"/>
<ellipse cx="300" cy="128" rx="26" ry="12" fill="#3C3489"/>
<ellipse cx="300" cy="124" rx="26" ry="12" fill="#534AB7"/>
<ellipse cx="400" cy="128" rx="26" ry="12" fill="#3C3489"/>
<ellipse cx="400" cy="124" rx="26" ry="12" fill="#534AB7"/>
<ellipse cx="620" cy="128" rx="26" ry="12" fill="#3C3489"/>
<ellipse cx="620" cy="124" rx="26" ry="12" fill="#534AB7"/>
<ellipse cx="720" cy="128" rx="26" ry="12" fill="#3C3489"/>
<ellipse cx="720" cy="124" rx="26" ry="12" fill="#534AB7"/>
<ellipse cx="820" cy="128" rx="26" ry="12" fill="#3C3489"/>
<ellipse cx="820" cy="124" rx="26" ry="12" fill="#534AB7"/>
<ellipse cx="500" cy="92" rx="26" ry="12" fill="#f3c46a"/>
<circle cx="500" cy="116" r="2.5" fill="#26215C" opacity="0.5"/>
<path d="M0,134 C150,124 320,140 480,132 C640,124 800,140 960,132 C1060,126 1140,134 1200,130 V200 H0 Z" fill="#7F77DD"/>
<path d="M0,150 C170,130 330,166 520,148 C700,130 880,166 1050,150 C1110,144 1170,150 1200,146 V200 H0 Z" fill="#3C3489"/>
<path d="M0,178 C200,164 420,190 640,176 C860,164 1040,188 1200,176 V200 H0 Z" fill="#26215C"/>
</svg>
