<svg xmlns="http://www.w3.org/2000/svg" viewBox="0 0 1200 200" role="img" aria-label="Ein Formular über der Welle — ein Feld ist noch leer, der goldene Stempel schwebt heran">
<rect width="1200" height="200" fill="#EEEDFE"/>
<circle cx="250" cy="50" r="24" fill="#CECBF6"/>
<path d="M0,128 C160,108 320,140 480,124 C640,108 800,138 960,122 C1060,112 1150,126 1200,120 V200 H0 Z" fill="#7F77DD"/>
<rect x="500" y="60" width="150" height="80" rx="5" fill="#EEEDFE"/>
<rect x="500" y="60" width="150" height="80" rx="5" fill="none" stroke="#534AB7" stroke-width="3"/>
<g stroke="#AFA9EC" stroke-width="4" stroke-linecap="round"><line x1="516" y1="78" x2="600" y2="78"/><line x1="516" y1="94" x2="634" y2="94"/><line x1="516" y1="110" x2="580" y2="110"/></g>
<rect x="516" y="120" width="70" height="12" rx="2" fill="none" stroke="#534AB7" stroke-width="2.5" stroke-dasharray="4 4"/>
<g transform="translate(690,60) rotate(20)"><rect x="-16" y="0" width="32" height="20" rx="3" fill="#f3c46a"/><rect x="-6" y="-18" width="12" height="20" rx="3" fill="#3C3489"/><rect x="-18" y="20" width="36" height="6" rx="2" fill="#26215C"/></g>
<path d="M0,150 C180,130 380,162 580,146 C780,132 970,162 1140,148 C1170,145 1188,150 1200,148 V200 H0 Z" fill="#3C3489"/><path d="M0,178 C200,164 420,190 640,176 C860,164 1040,188 1200,176 V200 H0 Z" fill="#26215C"/>
</svg>
