<svg xmlns="http://www.w3.org/2000/svg" viewBox="0 0 1200 200" role="img" aria-label="Hotel-Skyline am Abend mit einem hell erleuchteten Fenster">
<rect width="1200" height="200" fill="#EEEDFE"/>
<circle cx="1035" cy="46" r="21" fill="#CECBF6"/>
<circle cx="1035" cy="46" r="30" fill="none" stroke="#CECBF6" stroke-width="2" opacity="0.5"/>
<g fill="#AFA9EC">
  <rect x="205" y="98" width="84" height="72"/>
  <rect x="908" y="90" width="96" height="80"/>
</g>
<rect x="330" y="72" width="104" height="98" fill="#7F77DD"/>
<rect x="772" y="84" width="120" height="86" fill="#7F77DD"/>
<rect x="470" y="52" width="118" height="120" fill="#534AB7"/>
<rect x="612" y="106" width="150" height="64" fill="#3C3489"/>
<g fill="#CECBF6">
  <rect x="486" y="70" width="12" height="15"/><rect x="510" y="70" width="12" height="15"/><rect x="534" y="70" width="12" height="15"/><rect x="558" y="70" width="12" height="15"/>
  <rect x="486" y="98" width="12" height="15"/><rect x="510" y="98" width="12" height="15"/><rect x="558" y="98" width="12" height="15"/>
  <rect x="486" y="126" width="12" height="15"/><rect x="510" y="126" width="12" height="15"/><rect x="534" y="126" width="12" height="15"/><rect x="558" y="126" width="12" height="15"/>
</g>
<rect x="534" y="98" width="12" height="15" fill="#f3c46a"/>
<g fill="#AFA9EC">
  <rect x="350" y="90" width="11" height="14"/><rect x="374" y="90" width="11" height="14"/><rect x="398" y="90" width="11" height="14"/>
  <rect x="350" y="116" width="11" height="14"/><rect x="398" y="116" width="11" height="14"/>
  <rect x="350" y="142" width="11" height="14"/><rect x="374" y="142" width="11" height="14"/>
</g>
<g fill="#7F77DD">
  <rect x="790" y="102" width="11" height="14"/><rect x="814" y="102" width="11" height="14"/><rect x="838" y="102" width="11" height="14"/><rect x="862" y="102" width="11" height="14"/>
  <rect x="790" y="128" width="11" height="14"/><rect x="838" y="128" width="11" height="14"/><rect x="862" y="128" width="11" height="14"/>
  <rect x="630" y="122" width="11" height="14"/><rect x="654" y="122" width="11" height="14"/><rect x="678" y="122" width="11" height="14"/><rect x="702" y="122" width="11" height="14"/><rect x="726" y="122" width="11" height="14"/>
  <rect x="630" y="146" width="11" height="14"/><rect x="678" y="146" width="11" height="14"/><rect x="726" y="146" width="11" height="14"/>
</g>
<path d="M0,150 C190,132 400,164 620,150 C840,136 1020,166 1200,150 V200 H0 Z" fill="#3C3489"/>
<path d="M0,176 C240,164 480,190 720,176 C940,164 1090,186 1200,176 V200 H0 Z" fill="#26215C"/>
</svg>
