<svg xmlns="http://www.w3.org/2000/svg" viewBox="0 0 1200 200" role="img" aria-label="Eine Reisestraße führt zum Horizont und wird zur Welle — die gestrichelte Mittellinie hat Lücken">
<rect width="1200" height="200" fill="#EEEDFE"/>
<circle cx="912" cy="50" r="26" fill="#f3c46a"/>
<circle cx="912" cy="50" r="37" fill="none" stroke="#f3c46a" stroke-width="2" opacity="0.4"/>
<path d="M100,116 L230,58 L360,116 Z" fill="#CECBF6"/>
<path d="M290,116 L470,44 L650,116 Z" fill="#AFA9EC"/>
<path d="M555,116 L700,64 L845,116 Z" fill="#CECBF6"/>
<path d="M0,120 C170,104 380,120 574,115 L626,115 C830,120 1040,108 1200,118 V200 H0 Z" fill="#7F77DD"/>
<path d="M0,120 C170,104 380,120 574,115 L626,115 C830,120 1040,108 1200,118" fill="none" stroke="#AFA9EC" stroke-width="3" stroke-linecap="round" opacity="0.7"/>
<path d="M0,148 C210,132 430,160 640,146 C850,133 1030,160 1200,148 V200 H0 Z" fill="#534AB7"/>
<path d="M0,172 C230,158 470,186 710,172 C930,160 1090,182 1200,172 V200 H0 Z" fill="#3C3489"/>
<path d="M0,190 C260,180 520,198 780,189 C1000,182 1110,193 1200,188 V200 H0 Z" fill="#26215C"/>
<path d="M524,200 L590,116 L610,116 L676,200 Z" fill="#CECBF6"/>
<path d="M524,200 L590,116 L610,116 L676,200 Z" fill="none" stroke="#AFA9EC" stroke-width="1.5" opacity="0.8"/>
<polygon points="596,122 604,122 604.8,132 595.2,132" fill="#3C3489"/>
<polygon points="593,148 607,148 608.4,161 591.6,161" fill="#3C3489"/>
<polygon points="588,178 612,178 614,194 586,194" fill="#3C3489"/>
</svg>
