<svg xmlns="http://www.w3.org/2000/svg" viewBox="0 0 1200 200" role="img" aria-label="Trittsteine führen über den Fluss — an einer Stelle fehlt der Stein, der goldene wartet oben">
<rect width="1200" height="200" fill="#EEEDFE"/>
<circle cx="1050" cy="48" r="18" fill="#CECBF6" opacity="0.9"/><circle cx="1058" cy="44" r="18" fill="#EEEDFE"/>
<path d="M190,122 L300,56 L410,122 Z" fill="#AFA9EC"/>
<path d="M425,122 L520,68 L615,122 Z" fill="#CECBF6"/>
<path d="M0,120 C150,96 320,136 480,112 C640,92 800,134 960,110 C1080,96 1150,114 1200,106 V200 H0 Z" fill="#534AB7"/>
<path d="M0,150 C180,130 360,168 540,144 C720,126 900,166 1080,142 C1140,136 1180,146 1200,140 V200 H0 Z" fill="#3C3489"/>
<path d="M0,180 C200,166 420,194 640,174 C860,164 1040,192 1200,172 V200 H0 Z" fill="#26215C"/>
<path d="M0,150 C220,138 460,164 700,150 C900,138 1060,162 1200,150 V176 C1040,164 900,182 700,170 C460,182 220,158 0,168 Z" fill="#7F77DD" opacity="0.55"/>
<ellipse cx="340" cy="160" rx="26" ry="12" fill="#26215C"/>
<ellipse cx="470" cy="160" rx="26" ry="12" fill="#26215C"/>
<ellipse cx="600" cy="160" rx="26" ry="11" fill="none" stroke="#26215C" stroke-width="2.2" stroke-dasharray="3 7" opacity="0.8"/>
<ellipse cx="730" cy="160" rx="26" ry="12" fill="#26215C"/>
<ellipse cx="860" cy="160" rx="26" ry="12" fill="#26215C"/>
<ellipse cx="600" cy="120" rx="26" ry="12" fill="#f3c46a"/>
</svg>
