<svg xmlns="http://www.w3.org/2000/svg" viewBox="0 0 1200 200" role="img" aria-label="Ein Hirsch und Vögel im Bergpanorama unter der goldenen Sonne — Natur und Tiere">
<rect width="1200" height="200" fill="#EEEDFE"/>
<circle cx="300" cy="56" r="30" fill="#f3c46a"/>
<circle cx="300" cy="56" r="42" fill="none" stroke="#f3c46a" stroke-width="2" opacity="0.45"/>
<path d="M300,122 L430,42 L560,122 Z" fill="#CECBF6"/>
<path d="M500,122 L660,22 L820,122 Z" fill="#AFA9EC"/>
<path d="M0,126 C150,102 320,142 480,118 C640,98 800,140 960,116 C1080,102 1150,120 1200,112 V200 H0 Z" fill="#534AB7"/>
<path d="M0,152 C180,132 360,170 540,146 C720,128 900,168 1080,144 C1140,138 1180,148 1200,142 V200 H0 Z" fill="#3C3489"/>
<path d="M0,180 C200,166 420,194 640,174 C860,164 1040,192 1200,172 V200 H0 Z" fill="#26215C"/>
<g transform="translate(540,150) scale(1.7)" fill="#26215C" stroke="#26215C"><path d="M-16,0 L-16,-16 C-16,-24 -8,-26 0,-26 C8,-26 14,-22 20,-24 L24,-30 C22,-22 20,-18 12,-16 L12,0 L8,0 L8,-14 L-8,-14 L-8,0 Z" stroke="none"/><path d="M22,-28 C24,-38 22,-46 26,-54 M26,-42 L18,-48 M26,-40 L34,-48 M26,-50 L20,-56 M26,-50 L32,-56" stroke-width="2" fill="none"/><circle cx="24" cy="-30" r="1.6" stroke="none"/></g>
<path d="M848,62 q6.0,-8.399999999999999 12,0 q6.0,-8.399999999999999 12,0" fill="none" stroke="#26215C" stroke-width="2.4" stroke-linecap="round"/>
<path d="M890,54 q5.0,-7.0 10,0 q5.0,-7.0 10,0" fill="none" stroke="#26215C" stroke-width="2.4" stroke-linecap="round"/>
<circle cx="1010" cy="132" r="3" fill="#EEEDFE" opacity="0.5"/><circle cx="250" cy="128" r="3" fill="#EEEDFE" opacity="0.5"/>
</svg>
