<svg xmlns="http://www.w3.org/2000/svg" viewBox="0 0 1200 200" role="img" aria-label="Reisekoffer werden zu einem Turm gestapelt — mit einem Wimpel oben">
<rect width="1200" height="200" fill="#EEEDFE"/>
<path d="M250,150 q10,-8 20,0 M280,138 q10,-8 20,0" fill="none" stroke="#AFA9EC" stroke-width="3" stroke-linecap="round"/>
<path d="M920,150 q10,-8 20,0 M950,138 q10,-8 20,0" fill="none" stroke="#AFA9EC" stroke-width="3" stroke-linecap="round"/>
<!-- pennant accent on top -->
<line x1="600" y1="20" x2="600" y2="52" stroke="#26215C" stroke-width="3" stroke-linecap="round"/>
<path d="M600,22 L640,32 L600,42 Z" fill="#f3c46a"/>
<!-- suitcase tower, staggered -->
<g stroke="#26215C">
<rect x="548" y="52" width="104" height="40" rx="6" fill="#AFA9EC" stroke-width="2"/>
<rect x="560" y="46" width="80" height="8" rx="3" fill="#7F77DD" stroke="none"/>
<path d="M584,46 q0,-12 32,0" fill="none" stroke-width="3"/>
<rect x="524" y="92" width="152" height="46" rx="6" fill="#7F77DD" stroke-width="2"/>
<rect x="500" y="138" width="200" height="52" rx="7" fill="#534AB7" stroke-width="2"/>
</g>
<line x1="524" y1="108" x2="676" y2="108" stroke="#26215C" stroke-width="2" opacity="0.5"/>
<line x1="500" y1="156" x2="700" y2="156" stroke="#26215C" stroke-width="2" opacity="0.5"/>
<rect x="590" y="98" width="20" height="8" rx="2" fill="#3C3489"/>
<rect x="588" y="146" width="24" height="9" rx="2" fill="#3C3489"/>
<rect x="600" y="66" width="14" height="6" rx="2" fill="#3C3489"/>
<path d="M0,150 C200,134 420,162 640,148 C860,134 1040,164 1200,150 V200 H0 Z" fill="#3C3489"/>
<path d="M0,180 C240,166 480,192 720,178 C940,166 1090,188 1200,178 V200 H0 Z" fill="#26215C"/>
</svg>
