<svg xmlns="http://www.w3.org/2000/svg" viewBox="0 0 1200 200" role="img" aria-label="Ein Blatt mit fehlendem Stück — das goldene Teil schwebt heran und schließt die Lücke">
<rect width="1200" height="200" fill="#EEEDFE"/>
<circle cx="1045" cy="50" r="19" fill="#CECBF6" opacity="0.9"/><circle cx="1053" cy="46" r="19" fill="#EEEDFE"/>
<path d="M158,122 L250,64 L342,122 Z" fill="#AFA9EC"/>
<path d="M892,122 L980,70 L1068,122 Z" fill="#AFA9EC"/>
<path d="M0,126 C150,102 320,142 480,118 C640,98 800,140 960,116 C1080,102 1150,120 1200,112 V200 H0 Z" fill="#534AB7"/>
<path d="M0,152 C180,132 360,170 540,146 C720,128 900,168 1080,144 C1140,138 1180,148 1200,142 V200 H0 Z" fill="#3C3489"/>
<path d="M0,180 C200,166 420,194 640,174 C860,164 1040,192 1200,172 V200 H0 Z" fill="#26215C"/>
<g transform="translate(600,92) rotate(-18)"><path d="M0,58 C-34,26 -30,-42 0,-64 C30,-42 34,26 0,58 Z" fill="#3C3489"/><line x1="0" y1="58" x2="0" y2="74" stroke="#26215C" stroke-width="3" stroke-linecap="round"/><path d="M0,54 L0,-58 M0,20 L20,4 M0,20 L-20,4 M0,-6 L18,-22 M0,-6 L-18,-22 M0,-30 L14,-42 M0,-30 L-14,-42" stroke="#EEEDFE" stroke-width="1.6" opacity="0.6" fill="none"/><path d="M28,-6 C40,-14 40,10 26,16 C22,6 22,2 28,-6 Z" fill="#EEEDFE"/><path d="M28,-6 C40,-14 40,10 26,16" fill="none" stroke="#26215C" stroke-width="1.8" stroke-dasharray="3 5" opacity="0.85"/></g>
<g transform="translate(690,70) rotate(-18)"><path d="M0,-8 C12,-16 12,8 -2,14 C-6,4 -6,0 0,-8 Z" fill="#f3c46a"/></g>
</svg>
