<svg xmlns="http://www.w3.org/2000/svg" viewBox="0 0 1200 200" role="img" aria-label="Ein Beerenstrauch — eine goldene Beere wird in den Korb gesammelt">
<rect width="1200" height="200" fill="#EEEDFE"/>
<circle cx="950" cy="50" r="18" fill="#CECBF6" opacity="0.9"/><circle cx="958" cy="46" r="18" fill="#EEEDFE"/>
<path d="M155,122 L260,58 L365,122 Z" fill="#AFA9EC"/>
<path d="M0,126 C150,102 320,142 480,118 C640,98 800,140 960,116 C1080,102 1150,120 1200,112 V200 H0 Z" fill="#534AB7"/>
<path d="M0,152 C180,132 360,170 540,146 C720,128 900,168 1080,144 C1140,138 1180,148 1200,142 V200 H0 Z" fill="#3C3489"/>
<path d="M0,180 C200,166 420,194 640,174 C860,164 1040,192 1200,172 V200 H0 Z" fill="#26215C"/>
<circle cx="600" cy="120" r="44" fill="#534AB7"/><circle cx="560" cy="132" r="30" fill="#3C3489"/><circle cx="640" cy="130" r="30" fill="#3C3489"/>
<circle cx="584" cy="112" r="5" fill="#26215C"/>
<circle cx="620" cy="104" r="5" fill="#26215C"/>
<circle cx="554" cy="128" r="5" fill="#26215C"/>
<circle cx="644" cy="126" r="5" fill="#26215C"/>
<circle cx="602" cy="96" r="5" fill="#26215C"/>
<circle cx="618" cy="120" r="7" fill="#f3c46a"/>
<path d="M560,150 L640,150 L632,180 L568,180 Z" fill="#3C3489"/><line x1="570" y1="150" x2="576" y2="180" stroke="#26215C" stroke-width="2"/><line x1="600" y1="150" x2="600" y2="180" stroke="#26215C" stroke-width="2"/><line x1="630" y1="150" x2="624" y2="180" stroke="#26215C" stroke-width="2"/>
</svg>
