<svg xmlns="http://www.w3.org/2000/svg" viewBox="0 0 1200 200" role="img" aria-label="Ein Nachrichten-Ticker läuft über die Welle — ein Feld ist leer, die goldene Meldung schiebt sich heran"><rect width="1200" height="200" fill="#EEEDFE"/><path d="M0,124 C150,96 290,140 450,118 C610,96 760,138 920,116 C1040,101 1130,118 1200,108 V200 H0 Z" fill="#534AB7"/><g fill="#26215C"><rect x="220" y="106" width="66" height="20" rx="4"/><rect x="300" y="106" width="66" height="20" rx="4"/><rect x="380" y="106" width="66" height="20" rx="4"/><rect x="540" y="106" width="66" height="20" rx="4"/><rect x="620" y="106" width="66" height="20" rx="4"/><rect x="780" y="106" width="66" height="20" rx="4"/><rect x="860" y="106" width="66" height="20" rx="4"/></g><g stroke="#AFA9EC" stroke-width="2" opacity="0.7"><line x1="228" y1="116" x2="278" y2="116"/><line x1="308" y1="116" x2="358" y2="116"/><line x1="388" y1="116" x2="438" y2="116"/><line x1="548" y1="116" x2="598" y2="116"/><line x1="628" y1="116" x2="678" y2="116"/><line x1="788" y1="116" x2="838" y2="116"/><line x1="868" y1="116" x2="918" y2="116"/></g><rect x="460" y="70" width="66" height="20" rx="4" fill="#f3c46a"/><rect x="460" y="106" width="66" height="20" rx="4" fill="none" stroke="#3C3489" stroke-width="2" stroke-dasharray="4 4" opacity="0.6"/><path d="M493,90 l0,12" stroke="#f3c46a" stroke-width="2" opacity="0.5"/><path d="M0,150 C170,128 330,166 520,146 C700,128 880,168 1050,148 C1110,141 1170,148 1200,144 V200 H0 Z" fill="#3C3489"/><path d="M0,178 C200,162 420,190 640,176 C860,163 1040,188 1200,176 V200 H0 Z" fill="#26215C"/></svg>