<svg xmlns="http://www.w3.org/2000/svg" viewBox="0 0 1200 200" role="img" aria-label="Der Wanderweg gabelt sich in zwei Richtungen — ein Wegweiser und die goldene Sonne fragen: wohin?">
<rect width="1200" height="200" fill="#EEEDFE"/>
<circle cx="610" cy="52" r="26" fill="#f3c46a"/>
<circle cx="610" cy="52" r="38" fill="none" stroke="#f3c46a" stroke-width="2" opacity="0.45"/>
<path d="M180,122 L280,60 L380,122 Z" fill="#CECBF6"/>
<path d="M785,122 L900,52 L1015,122 Z" fill="#AFA9EC"/>
<path d="M0,126 C150,102 320,142 480,118 C640,98 800,140 960,116 C1080,102 1150,120 1200,112 V200 H0 Z" fill="#534AB7"/>
<path d="M0,152 C180,132 360,170 540,146 C720,128 900,168 1080,144 C1140,138 1180,148 1200,142 V200 H0 Z" fill="#3C3489"/>
<path d="M0,180 C200,166 420,194 640,174 C860,164 1040,192 1200,172 V200 H0 Z" fill="#26215C"/>
<path d="M600,178 L560,150 C500,142 460,150 380,150" fill="none" stroke="#EEEDFE" stroke-width="3.5" stroke-dasharray="2 11" stroke-linecap="round" opacity="0.85"/>
<path d="M600,178 L648,150 C720,142 780,150 880,150" fill="none" stroke="#EEEDFE" stroke-width="3.5" stroke-dasharray="2 11" stroke-linecap="round" opacity="0.85"/>
<rect x="596" y="120" width="8" height="52" fill="#26215C"/>
<path d="M600,124 L556,124 L548,132 L556,140 L600,140 Z" fill="#3C3489"/>
<path d="M600,146 L644,146 L652,154 L644,162 L600,162 Z" fill="#534AB7"/>
</svg>
