<svg xmlns="http://www.w3.org/2000/svg" viewBox="0 0 1200 200" role="img" aria-label="Ein Wegweiser mit zwei Schildern in verschiedene Richtungen über sanften Hügeln — richtig oder falsch">
<rect width="1200" height="200" fill="#EEEDFE"/>
<circle cx="962" cy="50" r="26" fill="#f3c46a"/>
<circle cx="962" cy="50" r="37" fill="none" stroke="#f3c46a" stroke-width="2" opacity="0.4"/>
<path d="M0,128 C180,96 360,120 540,110 C720,100 900,124 1080,108 C1140,103 1180,110 1200,106 V200 H0 Z" fill="#CECBF6"/>
<path d="M0,142 C200,122 400,148 600,138 C800,128 1000,150 1200,140 V200 H0 Z" fill="#AFA9EC"/>
<rect x="594" y="58" width="12" height="94" rx="3" fill="#26215C"/>
<path d="M600,72 L600,96 L474,96 L456,84 Z" fill="#534AB7"/>
<path d="M600,104 L600,128 L726,128 L744,116 Z" fill="#7F77DD"/>
<path d="M500,78 l-8,6 l8,6" fill="none" stroke="#EEEDFE" stroke-width="3" stroke-linecap="round" stroke-linejoin="round"/>
<path d="M700,110 l8,6 l-8,6" fill="none" stroke="#EEEDFE" stroke-width="3" stroke-linecap="round" stroke-linejoin="round"/>
<path d="M0,152 C190,136 400,162 620,150 C840,138 1020,166 1200,150 V200 H0 Z" fill="#3C3489"/>
<path d="M0,182 C240,170 500,192 760,180 C980,170 1110,188 1200,180 V200 H0 Z" fill="#26215C"/>
</svg>
