<svg xmlns="http://www.w3.org/2000/svg" viewBox="0 0 1200 200" role="img" aria-label="Ein Holzsteg wird Planke für Planke aufgebaut — die oberste Planke leuchtet golden">
<rect width="1200" height="200" fill="#EEEDFE"/>
<circle cx="320" cy="52" r="20" fill="#CECBF6" opacity="0.9"/><circle cx="328" cy="48" r="20" fill="#EEEDFE"/>
<path d="M370,122 L500,40 L630,122 Z" fill="#CECBF6"/>
<path d="M0,126 C150,102 320,142 480,118 C640,98 800,140 960,116 C1080,102 1150,120 1200,112 V200 H0 Z" fill="#534AB7"/>
<path d="M0,152 C180,132 360,170 540,146 C720,128 900,168 1080,144 C1140,138 1180,148 1200,142 V200 H0 Z" fill="#3C3489"/>
<path d="M0,180 C200,166 420,194 640,174 C860,164 1040,192 1200,172 V200 H0 Z" fill="#26215C"/>
<rect x="380" y="158" width="58" height="13" rx="2" transform="rotate(-8 409 164)" fill="#534AB7"/>
<rect x="450" y="142" width="58" height="13" rx="2" transform="rotate(-8 479 148)" fill="#3C3489"/>
<rect x="520" y="126" width="58" height="13" rx="2" transform="rotate(-8 549 132)" fill="#534AB7"/>
<rect x="590" y="110" width="58" height="13" rx="2" transform="rotate(-8 619 116)" fill="#3C3489"/>
<rect x="660" y="94" width="58" height="13" rx="2" transform="rotate(-8 689 100)" fill="#534AB7"/>
<rect x="730" y="78" width="58" height="13" rx="2" transform="rotate(-8 759 84)" fill="#f3c46a"/>
<path d="M290,70 q5.0,-7.0 10,0 q5.0,-7.0 10,0" fill="none" stroke="#26215C" stroke-width="2.4" stroke-linecap="round"/>
<path d="M325,62 q5.0,-7.0 10,0 q5.0,-7.0 10,0" fill="none" stroke="#26215C" stroke-width="2.4" stroke-linecap="round"/>
</svg>
