<svg xmlns="http://www.w3.org/2000/svg" viewBox="0 0 1200 200" role="img" aria-label="Blätter in Paaren, durch feine Linien verbunden — ein Paar leuchtet golden">
<rect width="1200" height="200" fill="#EEEDFE"/>
<circle cx="1040" cy="50" r="19" fill="#CECBF6" opacity="0.9"/><circle cx="1048" cy="46" r="19" fill="#EEEDFE"/>
<path d="M158,122 L250,66 L342,122 Z" fill="#AFA9EC"/>
<path d="M0,128 C150,104 320,144 480,120 C640,100 800,142 960,118 C1080,104 1150,122 1200,114 V200 H0 Z" fill="#534AB7"/>
<path d="M0,154 C180,134 360,172 540,148 C720,130 900,170 1080,146 C1140,140 1180,150 1200,144 V200 H0 Z" fill="#3C3489"/>
<path d="M0,182 C200,168 420,196 640,176 C860,166 1040,194 1200,174 V200 H0 Z" fill="#26215C"/>
<line x1="430" y1="110" x2="470" y2="150" stroke="#534AB7" stroke-width="1.6" stroke-dasharray="3 5" opacity="0.7"/><g transform="translate(430,110) rotate(-18)"><path d="M0,20 C-20,10 -22,-12 0,-22 C22,-12 20,10 0,20 Z" fill="#534AB7"/><line x1="0" y1="16" x2="0" y2="-18" stroke="#EEEDFE" stroke-width="1.5" opacity="0.6"/></g><g transform="translate(470,150) rotate(16)"><path d="M0,20 C-20,10 -22,-12 0,-22 C22,-12 20,10 0,20 Z" fill="#534AB7"/><line x1="0" y1="16" x2="0" y2="-18" stroke="#EEEDFE" stroke-width="1.5" opacity="0.6"/></g>
<line x1="620" y1="150" x2="660" y2="108" stroke="#3C3489" stroke-width="1.6" stroke-dasharray="3 5" opacity="0.7"/><g transform="translate(620,150) rotate(14)"><path d="M0,20 C-20,10 -22,-12 0,-22 C22,-12 20,10 0,20 Z" fill="#3C3489"/><line x1="0" y1="16" x2="0" y2="-18" stroke="#EEEDFE" stroke-width="1.5" opacity="0.6"/></g><g transform="translate(660,108) rotate(-20)"><path d="M0,20 C-20,10 -22,-12 0,-22 C22,-12 20,10 0,20 Z" fill="#3C3489"/><line x1="0" y1="16" x2="0" y2="-18" stroke="#EEEDFE" stroke-width="1.5" opacity="0.6"/></g>
<line x1="820" y1="112" x2="860" y2="150" stroke="#f3c46a" stroke-width="1.6" stroke-dasharray="3 5" opacity="0.7"/><g transform="translate(820,112) rotate(-16)"><path d="M0,20 C-20,10 -22,-12 0,-22 C22,-12 20,10 0,20 Z" fill="#f3c46a"/><line x1="0" y1="16" x2="0" y2="-18" stroke="#EEEDFE" stroke-width="1.5" opacity="0.6"/></g><g transform="translate(860,150) rotate(18)"><path d="M0,20 C-20,10 -22,-12 0,-22 C22,-12 20,10 0,20 Z" fill="#f3c46a"/><line x1="0" y1="16" x2="0" y2="-18" stroke="#EEEDFE" stroke-width="1.5" opacity="0.6"/></g>
</svg>
