<svg xmlns="http://www.w3.org/2000/svg" viewBox="0 0 1200 200" role="img" aria-label="Eine Schreibfeder zeichnet die vordere Welle mit ihren Bäumen — die Natur entsteht aus der Feder">
<rect width="1200" height="200" fill="#EEEDFE"/>
<circle cx="1070" cy="46" r="26" fill="#f3c46a"/>
<circle cx="1070" cy="46" r="38" fill="none" stroke="#f3c46a" stroke-width="2" opacity="0.45"/>
<path d="M0,132 C130,114 280,140 430,128 C540,120 620,128 696,126 L700,126 L700,200 L0,200 Z" fill="#7F77DD"/>
<path d="M0,132 C130,114 280,140 430,128 C540,120 620,128 698,126" fill="none" stroke="#534AB7" stroke-width="4" stroke-linecap="round"/>
<path d="M135.0,128 L150,98 L165.0,128 Z" fill="#534AB7"/><rect x="147" y="128" width="6" height="5.3999999999999995" fill="#534AB7"/>
<path d="M287.0,134 L300,108 L313.0,134 Z" fill="#3C3489"/><rect x="297" y="134" width="6" height="4.68" fill="#3C3489"/>
<path d="M454.0,128 L470,96 L486.0,128 Z" fill="#534AB7"/><rect x="467" y="128" width="6" height="5.76" fill="#534AB7"/>
<path d="M588.0,128 L600,104 L612.0,128 Z" fill="#3C3489"/><rect x="597" y="128" width="6" height="4.32" fill="#3C3489"/>
<g transform="translate(700,126) rotate(-34)"><path d="M0,0 C-10,-14 -16,-34 -14,-58 L14,-58 C16,-34 10,-14 0,0 Z" fill="#26215C"/><circle cx="0" cy="-40" r="5.5" fill="#EEEDFE"/><line x1="0" y1="-34" x2="0" y2="-8" stroke="#EEEDFE" stroke-width="3" stroke-linecap="round"/><rect x="-15" y="-70" width="30" height="12" rx="4" fill="#534AB7"/><path d="M-6,-70 C-10,-102 2,-128 34,-148 C22,-118 26,-92 12,-70 Z" fill="#7F77DD"/><path d="M-2,-72 C-6,-100 4,-124 30,-142" fill="none" stroke="#534AB7" stroke-width="2.5"/></g>
<circle cx="676" cy="140" r="4.5" fill="#26215C" opacity="1"/><circle cx="650" cy="152" r="3" fill="#26215C" opacity="1"/><circle cx="716" cy="148" r="3" fill="#26215C" opacity="1"/>
<path d="M0,156 C150,132 320,172 480,148 C640,128 800,170 960,146 C1080,132 1150,150 1200,142 V200 H0 Z" fill="#3C3489"/>
<path d="M0,182 C180,162 360,200 540,176 C720,158 900,198 1080,174 C1140,168 1180,178 1200,172 V200 H0 Z" fill="#26215C"/>
<path d="M0,194 C200,180 420,208 640,188 C860,178 1040,206 1200,186 V200 H0 Z" fill="#26215C"/>
</svg>
