<svg xmlns="http://www.w3.org/2000/svg" viewBox="0 0 1200 200" role="img" aria-label="Ein Sparschwein über der Welle — durch den Schlitz fällt die goldene Münze, Münzstapel bilden die Wellenkämme">
<rect width="1200" height="200" fill="#EEEDFE"/>
<circle cx="250" cy="50" r="24" fill="#CECBF6"/>
<path d="M0,132 C160,112 320,144 480,128 C640,112 800,142 960,126 C1060,116 1150,130 1200,124 V200 H0 Z" fill="#7F77DD"/>
<circle cx="600" cy="60" r="5" fill="#f3c46a"/>
<rect x="596" y="70" width="8" height="16" rx="2" fill="#f3c46a"/>
<g fill="#3C3489"><ellipse cx="600" cy="120" rx="70" ry="46"/></g>
<rect x="586" y="80" width="28" height="7" rx="3" fill="#26215C"/>
<circle cx="632" cy="112" r="4" fill="#EEEDFE"/>
<path d="M660,108 q18,-6 30,6" fill="none" stroke="#26215C" stroke-width="5" stroke-linecap="round"/>
<rect x="556" y="158" width="16" height="8" fill="#26215C"/><rect x="628" y="158" width="16" height="8" fill="#26215C"/>
<g fill="#534AB7"><rect x="360" y="128" width="34" height="8"/><rect x="362" y="120" width="30" height="8"/><rect x="364" y="112" width="26" height="8"/></g>
<g fill="#534AB7"><rect x="810" y="132" width="34" height="8"/><rect x="812" y="124" width="30" height="8"/></g>
<path d="M0,150 C180,130 380,162 580,146 C780,132 970,162 1140,148 C1170,145 1188,150 1200,148 V200 H0 Z" fill="#3C3489"/><path d="M0,178 C200,164 420,190 640,176 C860,164 1040,188 1200,176 V200 H0 Z" fill="#26215C"/>
</svg>
