<svg xmlns="http://www.w3.org/2000/svg" viewBox="0 0 1200 200" role="img" aria-label="Ein dichter Wald aus Tannen unter der goldenen Sonne — Panorama der Natur">
<rect width="1200" height="200" fill="#EEEDFE"/>
<circle cx="890" cy="52" r="26" fill="#f3c46a"/>
<circle cx="890" cy="52" r="38" fill="none" stroke="#f3c46a" stroke-width="2" opacity="0.45"/>
<path d="M180,124 L300,54 L420,124 Z" fill="#CECBF6"/>
<path d="M410,124 L560,32 L710,124 Z" fill="#AFA9EC"/>
<path d="M0,128 C150,104 320,144 480,120 C640,100 800,142 960,118 C1080,104 1150,122 1200,114 V200 H0 Z" fill="#534AB7"/>
<path d="M0,154 C180,134 360,172 540,148 C720,130 900,170 1080,146 C1140,140 1180,150 1200,144 V200 H0 Z" fill="#3C3489"/>
<path d="M0,182 C200,168 420,196 640,176 C860,166 1040,194 1200,174 V200 H0 Z" fill="#26215C"/>
<path d="M163.0,150 L180,116 L197.0,150 Z" fill="#7F77DD"/><rect x="177" y="150" width="6" height="6.12" fill="#7F77DD"/>
<path d="M218.0,150 L240,106 L262.0,150 Z" fill="#534AB7"/><rect x="237" y="150" width="6" height="7.92" fill="#534AB7"/>
<path d="M273.0,150 L300,96 L327.0,150 Z" fill="#7F77DD"/><rect x="297" y="150" width="6" height="9.719999999999999" fill="#7F77DD"/>
<path d="M343.0,150 L360,116 L377.0,150 Z" fill="#534AB7"/><rect x="357" y="150" width="6" height="6.12" fill="#534AB7"/>
<path d="M408.0,150 L430,106 L452.0,150 Z" fill="#7F77DD"/><rect x="427" y="150" width="6" height="7.92" fill="#7F77DD"/>
<path d="M473.0,150 L500,96 L527.0,150 Z" fill="#534AB7"/><rect x="497" y="150" width="6" height="9.719999999999999" fill="#534AB7"/>
<path d="M553.0,150 L570,116 L587.0,150 Z" fill="#7F77DD"/><rect x="567" y="150" width="6" height="6.12" fill="#7F77DD"/>
<path d="M628.0,150 L650,106 L672.0,150 Z" fill="#534AB7"/><rect x="647" y="150" width="6" height="7.92" fill="#534AB7"/>
<path d="M703.0,150 L730,96 L757.0,150 Z" fill="#7F77DD"/><rect x="727" y="150" width="6" height="9.719999999999999" fill="#7F77DD"/>
<path d="M793.0,150 L810,116 L827.0,150 Z" fill="#534AB7"/><rect x="807" y="150" width="6" height="6.12" fill="#534AB7"/>
<path d="M878.0,150 L900,106 L922.0,150 Z" fill="#7F77DD"/><rect x="897" y="150" width="6" height="7.92" fill="#7F77DD"/>
<path d="M953.0,150 L980,96 L1007.0,150 Z" fill="#534AB7"/><rect x="977" y="150" width="6" height="9.719999999999999" fill="#534AB7"/>
<path d="M1033.0,150 L1050,116 L1067.0,150 Z" fill="#7F77DD"/><rect x="1047" y="150" width="6" height="6.12" fill="#7F77DD"/>
<path d="M750,60 q5.0,-7.0 10,0 q5.0,-7.0 10,0" fill="none" stroke="#26215C" stroke-width="2.4" stroke-linecap="round"/>
<path d="M790,52 q5.0,-7.0 10,0 q5.0,-7.0 10,0" fill="none" stroke="#26215C" stroke-width="2.4" stroke-linecap="round"/>
</svg>
