<svg xmlns="http://www.w3.org/2000/svg" viewBox="0 0 1200 200" role="img" aria-label="Reisekoffer stapeln sich zu einem Turm über den Wellen — Sätze bauen">
<rect width="1200" height="200" fill="#EEEDFE"/>
<circle cx="820" cy="48" r="20" fill="#CECBF6"/>
<circle cx="820" cy="48" r="28" fill="none" stroke="#CECBF6" stroke-width="2" opacity="0.5"/>
<path d="M470,44 q30,-16 60,0" fill="none" stroke="#26215C" stroke-width="6" stroke-linecap="round"/>
<rect x="474" y="44" width="112" height="34" rx="6" fill="#534AB7"/>
<line x1="474" y1="61" x2="586" y2="61" stroke="#26215C" stroke-width="2" opacity="0.5"/>
<path d="M446,78 q34,-14 68,0" fill="none" stroke="#26215C" stroke-width="6" stroke-linecap="round"/>
<rect x="450" y="78" width="150" height="40" rx="7" fill="#f3c46a"/>
<rect x="500" y="78" width="8" height="40" fill="#26215C" opacity="0.35"/>
<path d="M418,118 q40,-16 80,0" fill="none" stroke="#26215C" stroke-width="7" stroke-linecap="round"/>
<rect x="424" y="118" width="184" height="46" rx="8" fill="#3C3489"/>
<line x1="424" y1="141" x2="608" y2="141" stroke="#26215C" stroke-width="2" opacity="0.4"/>
<rect x="700" y="130" width="72" height="34" rx="6" fill="#7F77DD"/>
<path d="M712,130 q24,-12 48,0" fill="none" stroke="#26215C" stroke-width="5" stroke-linecap="round"/>
<path d="M0,150 C210,134 430,166 650,152 C850,140 1030,166 1200,150 V200 H0 Z" fill="#534AB7"/>
<path d="M0,168 C240,156 480,186 720,172 C940,160 1090,182 1200,172 V200 H0 Z" fill="#3C3489"/>
<path d="M0,188 C260,178 520,196 780,188 C980,182 1100,192 1200,188 V200 H0 Z" fill="#26215C"/>
</svg>
