<svg xmlns="http://www.w3.org/2000/svg" viewBox="0 0 1200 200" role="img" aria-label="Die vordere Welle teilt sich in zwei Bögen — ein goldener Faden verbindet das eine mit dem anderen"><rect width="1200" height="200" fill="#EEEDFE"/><path d="M0,140 C120,112 300,118 420,150 L420,200 L0,200 Z" fill="#7F77DD"/><path d="M780,150 C900,118 1080,112 1200,140 L1200,200 L780,200 Z" fill="#7F77DD"/><circle cx="420" cy="150" r="7" fill="#26215C"/><circle cx="780" cy="150" r="7" fill="#26215C"/><path d="M420,150 C520,96 680,96 780,150" fill="none" stroke="#f3c46a" stroke-width="4" stroke-linecap="round"/><circle cx="600" cy="112" r="5" fill="#f3c46a"/><path d="M0,160 C200,146 420,172 640,160 C860,148 1040,172 1200,160 V200 H0 Z" fill="#3C3489"/><path d="M0,184 C240,172 500,196 760,183 C980,172 1110,190 1200,182 V200 H0 Z" fill="#26215C"/></svg>