<svg xmlns="http://www.w3.org/2000/svg" viewBox="0 0 1200 200" role="img" aria-label="Ein Lebensweg windet sich über die Hügel zur aufgehenden Sonne — auf dem Weg stehen die Meilenstein-Fahnen der Geschichte">
<rect width="1200" height="200" fill="#EEEDFE"/>
<circle cx="980" cy="56" r="26" fill="#f3c46a"/>
<circle cx="980" cy="56" r="37" fill="none" stroke="#f3c46a" stroke-width="2" opacity="0.4"/>
<path d="M0,120 L180,90 L360,120 Z" fill="#CECBF6"/>
<path d="M640,120 L820,84 L1010,120 Z" fill="#CECBF6"/>
<path d="M0,150 C160,150 240,138 360,140 C500,142 560,120 700,118 C840,116 900,102 1040,100 C1120,99 1170,100 1200,100 V200 H0 Z" fill="#7F77DD"/>
<path d="M0,150 C160,150 240,138 360,140 C500,142 560,120 700,118 C840,116 900,102 1040,100 C1120,99 1170,100 1200,100" fill="none" stroke="#EEEDFE" stroke-width="2.5" stroke-dasharray="10 9" opacity="0.8"/>
<line x1="300" y1="140" x2="300" y2="116" stroke="#3C3489" stroke-width="3"/>
<path d="M300,116 L316,121 L300,126 Z" fill="#534AB7"/>
<line x1="560" y1="120" x2="560" y2="96" stroke="#3C3489" stroke-width="3"/>
<path d="M560,96 L576,101 L560,106 Z" fill="#534AB7"/>
<line x1="840" y1="104" x2="840" y2="80" stroke="#3C3489" stroke-width="3"/>
<path d="M840,80 L856,85 L840,90 Z" fill="#534AB7"/>
<path d="M0,150 C170,130 330,166 520,148 C700,130 880,166 1050,150 C1110,144 1170,150 1200,146 V200 H0 Z" fill="#3C3489"/>
<path d="M0,178 C200,164 420,190 640,176 C860,164 1040,188 1200,176 V200 H0 Z" fill="#26215C"/>
</svg>
