<svg xmlns="http://www.w3.org/2000/svg" viewBox="0 0 1200 200" role="img" aria-label="Die Wellenkante ist die Zeile des Lebenslaufs — an einer Stelle fehlt ein Stück, der goldene Baustein füllt die Lücke">
<rect width="1200" height="200" fill="#EEEDFE"/>
<rect x="150" y="70" width="88" height="70" rx="5" fill="#EEEDFE" stroke="#534AB7" stroke-width="3"/>
<rect x="164" y="82" width="40" height="8" fill="#AFA9EC"/>
<rect x="164" y="98" width="60" height="6" fill="#CECBF6"/>
<rect x="164" y="110" width="60" height="6" fill="#CECBF6"/>
<rect x="164" y="122" width="44" height="6" fill="#CECBF6"/>
<rect x="628" y="84" width="48" height="20" rx="3" fill="#f3c46a"/>
<circle cx="652" cy="116" r="2.5" fill="#26215C" opacity="0.5"/>
<path d="M0,126 C120,110 260,132 430,124 C520,120 580,122 626,122 L626,140 L676,140 L676,122 C760,120 860,134 1000,122 C1080,116 1150,124 1200,120 V200 H0 Z" fill="#7F77DD"/>
<path d="M0,126 C120,110 260,132 430,124 C520,120 580,122 626,122" fill="none" stroke="#534AB7" stroke-width="3" stroke-linecap="round"/>
<path d="M676,122 C760,120 860,134 1000,122 C1080,116 1150,124 1200,120" fill="none" stroke="#534AB7" stroke-width="3" stroke-linecap="round"/>
<path d="M0,150 C170,130 330,166 520,148 C700,130 880,166 1050,150 C1110,144 1170,150 1200,146 V200 H0 Z" fill="#3C3489"/>
<path d="M0,178 C200,164 420,190 640,176 C860,164 1040,188 1200,176 V200 H0 Z" fill="#26215C"/>
</svg>
