<svg xmlns="http://www.w3.org/2000/svg" viewBox="0 0 1200 200" role="img" aria-label="Auf der Wellenkante steht ein Serviertablett — die goldene Servierglocke leuchtet">
<rect width="1200" height="200" fill="#EEEDFE"/>
<circle cx="250" cy="52" r="26" fill="#CECBF6"/>
<path d="M470,66 q10,-8 20,0 M500,56 q10,-8 20,0" fill="none" stroke="#AFA9EC" stroke-width="3" stroke-linecap="round"/>
<path d="M0,124 C160,104 320,136 480,120 C640,104 800,134 960,118 C1060,108 1150,122 1200,116 V200 H0 Z" fill="#7F77DD"/>
<path d="M556,120 A44,44 0 0 1 644,120 Z" fill="#f3c46a"/>
<circle cx="600" cy="72" r="6" fill="#f3c46a"/>
<ellipse cx="600" cy="122" rx="76" ry="9" fill="#26215C"/>
<rect x="596" y="128" width="8" height="14" fill="#3C3489"/>
<path d="M0,150 C180,130 380,162 580,146 C780,132 970,162 1140,148 C1170,145 1188,150 1200,148 V200 H0 Z" fill="#3C3489"/><path d="M0,178 C200,164 420,190 640,176 C860,164 1040,188 1200,176 V200 H0 Z" fill="#26215C"/>
</svg>
