<svg xmlns="http://www.w3.org/2000/svg" viewBox="0 0 1200 200" role="img" aria-label="Eine Reihe Strandschirme mit einer freien Lücke, ihre Schirmkanten bilden die Welle — Lückentext">
<rect width="1200" height="200" fill="#EEEDFE"/>
<path d="M0,118 C180,102 380,124 560,114 C740,104 920,124 1100,114 C1150,111 1180,116 1200,114 V200 H0 Z" fill="#CECBF6"/>
<line x1="605" y1="140" x2="605" y2="110" stroke="#26215C" stroke-width="3" stroke-linecap="round"/>
<path d="M605,112 L633,120 L605,128 Z" fill="#f3c46a"/>
<line x1="240" y1="82" x2="240" y2="152" stroke="#26215C" stroke-width="3" stroke-linecap="round"/><path d="M152,128 Q196,78 240,82 Q284,78 328,128 q-22,10 -44,0 q-22,-10 -44,0 q-22,10 -44,0 q-22,-10 -44,0 Z" fill="#7F77DD"/><line x1="240" y1="82" x2="240" y2="73" stroke="#26215C" stroke-width="3" stroke-linecap="round"/><circle cx="240" cy="70" r="3.5" fill="#3C3489"/><g stroke="#EEEDFE" stroke-width="2" opacity="0.7"><line x1="240" y1="82" x2="196" y2="128"/><line x1="240" y1="82" x2="284" y2="128"/></g><line x1="430" y1="82" x2="430" y2="152" stroke="#26215C" stroke-width="3" stroke-linecap="round"/><path d="M342,128 Q386,78 430,82 Q474,78 518,128 q-22,10 -44,0 q-22,-10 -44,0 q-22,10 -44,0 q-22,-10 -44,0 Z" fill="#AFA9EC"/><line x1="430" y1="82" x2="430" y2="73" stroke="#26215C" stroke-width="3" stroke-linecap="round"/><circle cx="430" cy="70" r="3.5" fill="#3C3489"/><g stroke="#EEEDFE" stroke-width="2" opacity="0.7"><line x1="430" y1="82" x2="386" y2="128"/><line x1="430" y1="82" x2="474" y2="128"/></g><line x1="780" y1="82" x2="780" y2="152" stroke="#26215C" stroke-width="3" stroke-linecap="round"/><path d="M692,128 Q736,78 780,82 Q824,78 868,128 q-22,10 -44,0 q-22,-10 -44,0 q-22,10 -44,0 q-22,-10 -44,0 Z" fill="#7F77DD"/><line x1="780" y1="82" x2="780" y2="73" stroke="#26215C" stroke-width="3" stroke-linecap="round"/><circle cx="780" cy="70" r="3.5" fill="#3C3489"/><g stroke="#EEEDFE" stroke-width="2" opacity="0.7"><line x1="780" y1="82" x2="736" y2="128"/><line x1="780" y1="82" x2="824" y2="128"/></g><line x1="970" y1="82" x2="970" y2="152" stroke="#26215C" stroke-width="3" stroke-linecap="round"/><path d="M882,128 Q926,78 970,82 Q1014,78 1058,128 q-22,10 -44,0 q-22,-10 -44,0 q-22,10 -44,0 q-22,-10 -44,0 Z" fill="#AFA9EC"/><line x1="970" y1="82" x2="970" y2="73" stroke="#26215C" stroke-width="3" stroke-linecap="round"/><circle cx="970" cy="70" r="3.5" fill="#3C3489"/><g stroke="#EEEDFE" stroke-width="2" opacity="0.7"><line x1="970" y1="82" x2="926" y2="128"/><line x1="970" y1="82" x2="1014" y2="128"/></g>
<path d="M0,140 L152,128 q22,10 44,0 q22,-10 44,0 q22,10 44,0 q22,-10 44,0 L328,140 L342,128 q22,10 44,0 q22,-10 44,0 q22,10 44,0 q22,-10 44,0 L518,140 L692,128 q22,10 44,0 q22,-10 44,0 q22,10 44,0 q22,-10 44,0 L868,140 L882,128 q22,10 44,0 q22,-10 44,0 q22,10 44,0 q22,-10 44,0 L1058,140 L1200,140 V200 H0 Z" fill="#534AB7"/>
<path d="M0,162 C200,148 420,174 640,160 C860,147 1040,172 1200,160 V200 H0 Z" fill="#3C3489"/>
<path d="M0,183 C240,171 500,193 760,181 C980,171 1110,188 1200,181 V200 H0 Z" fill="#26215C"/>
</svg>