<svg xmlns="http://www.w3.org/2000/svg" viewBox="0 0 1200 200" role="img" aria-label="Ein Papierflieger zieht die vordere Welle als Flugbahn — dort wo er fliegt endet die Landschaft; oben leuchtet die goldene Sonne"><rect width="1200" height="200" fill="#EEEDFE"/><circle cx="1080" cy="48" r="24" fill="#f3c46a"/><circle cx="1080" cy="48" r="35" fill="none" stroke="#f3c46a" stroke-width="2" opacity="0.4"/><path d="M0,132 C130,112 280,140 430,126 C540,116 640,128 716,124 L720,124 L720,200 L0,200 Z" fill="#7F77DD"/><path d="M0,132 C130,112 280,140 430,126 C540,116 640,128 718,124" fill="none" stroke="#534AB7" stroke-width="3" stroke-linecap="round"/><path d="M470,118 C560,110 640,120 712,122" fill="none" stroke="#AFA9EC" stroke-width="2.5" stroke-dasharray="4 6" opacity="0.8"/><g transform="translate(720,124) rotate(-18)"><path d="M0,0 L-64,-22 L-14,-18 Z" fill="#26215C"/><path d="M-64,-22 L-14,-18 L-30,6 Z" fill="#3C3489"/><path d="M-14,-18 L0,0 L-30,6 Z" fill="#534AB7"/></g><path d="M0,158 C200,142 420,170 640,156 C860,144 1040,168 1200,156 V200 H0 Z" fill="#3C3489"/><path d="M0,182 C240,170 500,194 760,181 C980,170 1110,188 1200,180 V200 H0 Z" fill="#26215C"/></svg>