<svg xmlns="http://www.w3.org/2000/svg" viewBox="0 0 1200 200" role="img" aria-label="Eine Brücke über den Fluss — eine Planke fehlt, die goldene schwebt bereit darüber">
<rect width="1200" height="200" fill="#EEEDFE"/>
<circle cx="1050" cy="48" r="18" fill="#CECBF6" opacity="0.9"/><circle cx="1058" cy="44" r="18" fill="#EEEDFE"/>
<path d="M180,122 L280,62 L380,122 Z" fill="#AFA9EC"/>
<path d="M0,122 C150,98 320,138 480,114 C640,94 800,136 960,112 C1080,98 1150,116 1200,108 V200 H0 Z" fill="#534AB7"/>
<path d="M0,150 C180,130 360,168 540,144 C720,126 900,166 1080,142 C1140,136 1180,146 1200,140 V200 H0 Z" fill="#3C3489"/>
<path d="M0,180 C200,166 420,194 640,174 C860,164 1040,192 1200,172 V200 H0 Z" fill="#26215C"/>
<path d="M330,122 C520,114 720,114 900,122" fill="none" stroke="#3C3489" stroke-width="3"/>
<rect x="360" y="138" width="34" height="12" rx="2" fill="#3C3489"/>
<rect x="406" y="138" width="34" height="12" rx="2" fill="#3C3489"/>
<rect x="452" y="138" width="34" height="12" rx="2" fill="#3C3489"/>
<rect x="498" y="138" width="34" height="12" rx="2" fill="#3C3489"/>
<rect x="544" y="138" width="34" height="12" rx="2" fill="#3C3489"/>
<rect x="590" y="138" width="34" height="12" rx="2" fill="#3C3489"/>
<rect x="636" y="138" width="34" height="12" rx="2" fill="none" stroke="#26215C" stroke-width="2" stroke-dasharray="3 6" opacity="0.8"/>
<rect x="682" y="138" width="34" height="12" rx="2" fill="#3C3489"/>
<rect x="728" y="138" width="34" height="12" rx="2" fill="#3C3489"/>
<rect x="774" y="138" width="34" height="12" rx="2" fill="#3C3489"/>
<rect x="820" y="138" width="34" height="12" rx="2" fill="#3C3489"/>
<rect x="866" y="138" width="34" height="12" rx="2" fill="#3C3489"/>
<rect x="636" y="98" width="34" height="12" rx="2" fill="#f3c46a"/>
</svg>
