<svg xmlns="http://www.w3.org/2000/svg" viewBox="0 0 1200 200" role="img" aria-label="Eine lange Reihe gleicher Wellenkämme — genau einer leuchtet golden, der eine unter vielen"><rect width="1200" height="200" fill="#EEEDFE"/><path d="M0,130 C200,118 400,134 600,124 C800,114 1000,132 1200,122 V200 H0 Z" fill="#7F77DD"/><g fill="none" stroke="#26215C" stroke-width="4" stroke-linecap="round"><path d="M210,118 q22,-24 44,0"/><path d="M290,118 q22,-24 44,0"/><path d="M370,118 q22,-24 44,0"/><path d="M450,118 q22,-24 44,0"/><path d="M530,118 q22,-24 44,0"/><path d="M690,118 q22,-24 44,0"/><path d="M770,118 q22,-24 44,0"/><path d="M850,118 q22,-24 44,0"/><path d="M930,118 q22,-24 44,0"/></g><path d="M610,118 q22,-30 44,0" fill="none" stroke="#f3c46a" stroke-width="5" stroke-linecap="round"/><circle cx="632" cy="92" r="4" fill="#f3c46a"/><path d="M0,152 C170,138 340,166 540,152 C720,140 900,166 1050,152 C1110,146 1170,152 1200,148 V200 H0 Z" fill="#3C3489"/><path d="M0,180 C200,166 420,192 640,178 C860,166 1040,190 1200,178 V200 H0 Z" fill="#26215C"/></svg>