<svg xmlns="http://www.w3.org/2000/svg" viewBox="0 0 1200 200" role="img" aria-label="Ein Baum voller Früchte — eine goldene wird in den Korb gesammelt">
<rect width="1200" height="200" fill="#EEEDFE"/>
<circle cx="300" cy="52" r="18" fill="#CECBF6" opacity="0.9"/><circle cx="308" cy="48" r="18" fill="#EEEDFE"/>
<path d="M850,122 L950,62 L1050,122 Z" fill="#AFA9EC"/>
<path d="M0,132 C150,108 320,148 480,124 C640,104 800,146 960,122 C1080,108 1150,126 1200,118 V200 H0 Z" fill="#534AB7"/>
<path d="M0,156 C180,136 360,174 540,150 C720,132 900,172 1080,148 C1140,142 1180,152 1200,146 V200 H0 Z" fill="#3C3489"/>
<path d="M0,182 C200,168 420,196 640,176 C860,166 1040,194 1200,174 V200 H0 Z" fill="#26215C"/>
<rect x="593" y="92" width="14" height="52" rx="3" fill="#26215C"/>
<circle cx="600" cy="72" r="50" fill="#7F77DD"/>
<circle cx="566" cy="86" r="26" fill="#7F77DD"/>
<circle cx="634" cy="84" r="24" fill="#7F77DD"/>
<circle cx="584" cy="58" r="20" fill="#AFA9EC"/>
<path d="M570,96 a30,30 0 0 0 60,0 Z" fill="#534AB7" opacity="0.6"/>
<circle cx="576" cy="74" r="6" fill="#3C3489"/>
<circle cx="620" cy="64" r="6" fill="#3C3489"/>
<circle cx="608" cy="96" r="6" fill="#3C3489"/>
<circle cx="594" cy="52" r="6" fill="#3C3489"/>
<circle cx="626" cy="90" r="8" fill="#f3c46a"/>
<path d="M564,150 L636,150 L627,176 L573,176 Z" fill="#AFA9EC"/><rect x="560" y="144" width="80" height="8" rx="4" fill="#CECBF6"/><line x1="576" y1="150" x2="581" y2="176" stroke="#534AB7" stroke-width="2"/><line x1="600" y1="150" x2="600" y2="176" stroke="#534AB7" stroke-width="2"/><line x1="624" y1="150" x2="619" y2="176" stroke="#534AB7" stroke-width="2"/>
</svg>
