<svg xmlns="http://www.w3.org/2000/svg" viewBox="0 0 1200 200" role="img" aria-label="Ein Steinturm wächst Stein für Stein empor — der oberste Stein leuchtet golden">
<rect width="1200" height="200" fill="#EEEDFE"/>
<circle cx="300" cy="52" r="20" fill="#CECBF6" opacity="0.9"/><circle cx="308" cy="48" r="20" fill="#EEEDFE"/>
<path d="M310,122 L430,46 L550,122 Z" fill="#CECBF6"/>
<path d="M550,122 L700,26 L850,122 Z" fill="#AFA9EC"/>
<path d="M0,128 C150,104 320,144 480,120 C640,100 800,142 960,118 C1080,104 1150,122 1200,114 V200 H0 Z" fill="#534AB7"/>
<path d="M0,154 C180,134 360,172 540,148 C720,130 900,170 1080,146 C1140,140 1180,150 1200,144 V200 H0 Z" fill="#3C3489"/>
<path d="M0,182 C200,168 420,196 640,176 C860,166 1040,194 1200,174 V200 H0 Z" fill="#26215C"/>
<ellipse cx="620" cy="148" rx="46" ry="20" fill="#3C3489"/>
<ellipse cx="616" cy="122" rx="40" ry="18" fill="#534AB7"/>
<ellipse cx="623" cy="100" rx="33" ry="15" fill="#3C3489"/>
<ellipse cx="618" cy="82" rx="26" ry="12" fill="#534AB7"/>
<ellipse cx="622" cy="67" rx="19" ry="9" fill="#26215C"/>
<ellipse cx="620" cy="54" rx="13" ry="8" fill="#f3c46a"/>
<path d="M850,60 q5.0,-7.0 10,0 q5.0,-7.0 10,0" fill="none" stroke="#26215C" stroke-width="2.4" stroke-linecap="round"/>
<path d="M885,52 q5.0,-7.0 10,0 q5.0,-7.0 10,0" fill="none" stroke="#26215C" stroke-width="2.4" stroke-linecap="round"/>
</svg>
