<svg xmlns="http://www.w3.org/2000/svg" viewBox="0 0 1200 200" role="img" aria-label="Sprechblasen steigen über der Welle auf, ein goldener Faden fädelt sie zusammen — eine Blase leuchtet golden"><rect width="1200" height="200" fill="#EEEDFE"/><path d="M0,150 C150,132 300,150 450,128 C600,108 760,142 920,120 C1050,104 1140,124 1200,116 V200 H0 Z" fill="#7F77DD"/><path d="M0,150 C150,132 300,150 450,128 C600,108 760,142 920,120 C1050,104 1140,124 1200,116" fill="none" stroke="#f3c46a" stroke-width="3" stroke-linecap="round" opacity="0.9"/><g transform="translate(280,60)"><rect width="66" height="40" rx="9" fill="#3C3489"/><path d="M19,40 l10,14 l-20,0 Z" fill="#3C3489"/></g><g transform="translate(560,50)"><rect width="58" height="36" rx="9" fill="#534AB7"/><path d="M17,36 l10,14 l-20,0 Z" fill="#534AB7"/></g><g transform="translate(880,66)"><rect width="62" height="38" rx="9" fill="#3C3489"/><path d="M18,38 l10,14 l-20,0 Z" fill="#3C3489"/></g><g transform="translate(430,40)"><rect width="60" height="38" rx="9" fill="#f3c46a"/><path d="M18,38 l10,14 l-20,0 Z" fill="#f3c46a"/></g><g stroke="#EEEDFE" stroke-width="3" opacity="0.6" stroke-linecap="round"><line x1="296" y1="74" x2="330" y2="74"/><line x1="296" y1="84" x2="322" y2="84"/><line x1="576" y1="62" x2="606" y2="62"/></g><path d="M0,170 C220,158 460,182 700,170 C920,160 1080,180 1200,172 V200 H0 Z" fill="#3C3489"/><path d="M0,188 C260,178 540,198 800,188 C1000,180 1120,192 1200,187 V200 H0 Z" fill="#26215C"/></svg>