<svg xmlns="http://www.w3.org/2000/svg" viewBox="0 0 1200 200" role="img" aria-label="Ein Netzwerk aus verbundenen Knoten spannt sich über die Wellen — ein Knoten leuchtet golden, der Beitrag der die Runde macht"><rect width="1200" height="200" fill="#EEEDFE"/><g stroke="#AFA9EC" stroke-width="2" opacity="0.85" fill="none"><path d="M250,60 L360,96 L500,52 L640,90 L780,58 L910,96"/><path d="M360,96 L500,110 L640,90"/><path d="M500,52 L500,110"/><path d="M780,58 L780,104 L910,96"/></g><g fill="#3C3489"><circle cx="250" cy="60" r="9"/><circle cx="360" cy="96" r="9"/><circle cx="500" cy="110" r="9"/><circle cx="640" cy="90" r="9"/><circle cx="780" cy="58" r="9"/><circle cx="910" cy="96" r="9"/><circle cx="780" cy="104" r="9"/></g><circle cx="500" cy="52" r="12" fill="#f3c46a"/><circle cx="500" cy="52" r="20" fill="none" stroke="#f3c46a" stroke-width="2" opacity="0.4"/><path d="M0,124 C150,96 290,140 450,118 C610,96 760,138 920,116 C1040,101 1130,118 1200,108 V200 H0 Z" fill="#534AB7"/><path d="M0,150 C170,128 330,166 520,146 C700,128 880,168 1050,148 C1110,141 1170,148 1200,144 V200 H0 Z" fill="#3C3489"/><path d="M0,178 C200,162 420,190 640,176 C860,163 1040,188 1200,176 V200 H0 Z" fill="#26215C"/></svg>