<svg xmlns="http://www.w3.org/2000/svg" viewBox="0 0 1200 200" role="img" aria-label="Panorama der Berufsstationen: eine Skyline steigt zum höchsten Turm, dessen oberstes Fenster golden leuchtet">
<rect width="1200" height="200" fill="#EEEDFE"/>
<path d="M0,120 L140,92 L280,120 Z" fill="#CECBF6"/>
<rect x="430" y="98" width="40" height="24" fill="#7F77DD"/>
<rect x="474" y="86" width="40" height="36" fill="#534AB7"/>
<rect x="518" y="70" width="42" height="52" fill="#3C3489"/>
<rect x="564" y="50" width="46" height="72" fill="#26215C"/>
<rect x="580" y="58" width="14" height="14" fill="#f3c46a"/>
<rect x="442" y="104" width="7" height="7" fill="#EEEDFE" opacity="0.55"/>
<rect x="442" y="112" width="7" height="7" fill="#EEEDFE" opacity="0.55"/>
<rect x="486" y="96" width="7" height="7" fill="#EEEDFE" opacity="0.55"/>
<rect x="486" y="108" width="7" height="7" fill="#EEEDFE" opacity="0.55"/>
<rect x="530" y="80" width="7" height="7" fill="#EEEDFE" opacity="0.55"/>
<rect x="530" y="96" width="7" height="7" fill="#EEEDFE" opacity="0.55"/>
<rect x="530" y="110" width="7" height="7" fill="#EEEDFE" opacity="0.55"/>
<rect x="574" y="72" width="7" height="7" fill="#EEEDFE" opacity="0.55"/>
<rect x="574" y="90" width="7" height="7" fill="#EEEDFE" opacity="0.55"/>
<rect x="574" y="104" width="7" height="7" fill="#EEEDFE" opacity="0.55"/>
<path d="M700,60 q9,-7 18,0 M726,68 q9,-7 18,0" fill="none" stroke="#534AB7" stroke-width="3" stroke-linecap="round"/>
<path d="M0,122 C150,100 320,138 480,120 C640,104 800,138 960,120 C1060,110 1140,120 1200,114 V200 H0 Z" fill="#534AB7"/>
<path d="M0,150 C170,130 330,166 520,148 C700,130 880,166 1050,150 C1110,144 1170,150 1200,146 V200 H0 Z" fill="#3C3489"/>
<path d="M0,178 C200,164 420,190 640,176 C860,164 1040,188 1200,176 V200 H0 Z" fill="#26215C"/>
</svg>
