<svg xmlns="http://www.w3.org/2000/svg" viewBox="0 0 1200 200" role="img" aria-label="Ein Abreißkalender auf der Welle — das oberste Blatt segelt davon, das goldene Datum bleibt zurück">
<rect width="1200" height="200" fill="#EEEDFE"/>
<circle cx="250" cy="52" r="26" fill="#CECBF6"/>
<path d="M0,126 C160,106 320,138 480,122 C640,106 800,136 960,120 C1060,110 1150,124 1200,118 V200 H0 Z" fill="#7F77DD"/>
<rect x="520" y="70" width="150" height="60" rx="6" fill="#3C3489"/>
<rect x="520" y="70" width="150" height="16" rx="6" fill="#534AB7"/>
<rect x="588" y="94" width="14" height="30" rx="2" fill="#f3c46a"/>
<rect x="558" y="94" width="14" height="30" rx="2" fill="#AFA9EC"/>
<rect x="618" y="94" width="14" height="30" rx="2" fill="#AFA9EC"/>
<path d="M690,58 C740,50 800,64 858,44 C812,74 762,70 712,88 L700,74 Z" fill="#CECBF6"/>
<path d="M690,58 L712,88" fill="none" stroke="#AFA9EC" stroke-width="2"/>
<path d="M0,150 C180,130 380,162 580,146 C780,132 970,162 1140,148 C1170,145 1188,150 1200,148 V200 H0 Z" fill="#3C3489"/><path d="M0,178 C200,164 420,190 640,176 C860,164 1040,188 1200,176 V200 H0 Z" fill="#26215C"/>
</svg>
