<svg xmlns="http://www.w3.org/2000/svg" viewBox="0 0 1200 200" role="img" aria-label="Reise-Panorama mit Bergen, einer Stadt und einem Segelboot zum Entdecken">
<rect width="1200" height="200" fill="#EEEDFE"/>
<circle cx="1010" cy="46" r="26" fill="#f3c46a"/>
<circle cx="1010" cy="46" r="37" fill="none" stroke="#f3c46a" stroke-width="2" opacity="0.4"/>
<path d="M150,128 L250,58 L352,128 Z" fill="#CECBF6"/>
<path d="M300,128 L410,44 L528,128 Z" fill="#AFA9EC"/>
<path d="M410,44 L388,66 L404,70 L382,92 L438,92 L420,70 L436,64 Z" fill="#EEEDFE" opacity="0.85"/>
<path d="M0,126 C160,104 320,140 500,124 C680,108 860,138 1030,120 C1110,112 1160,122 1200,116 V200 H0 Z" fill="#7F77DD"/>
<g fill="#3C3489">
<rect x="560" y="86" width="30" height="40"/>
<rect x="596" y="70" width="22" height="56"/>
<path d="M628,126 L628,64 L640,50 L652,64 L652,126 Z"/>
<rect x="636" y="42" width="8" height="14"/>
<rect x="662" y="96" width="34" height="30"/>
<rect x="702" y="80" width="24" height="46"/>
</g>
<g fill="#EEEDFE" opacity="0.95"><rect x="604" y="82" width="6" height="8"/><rect x="672" y="104" width="6" height="7"/></g>
<path d="M872,112 L872,70 L916,112 Z" fill="#AFA9EC"/>
<path d="M866,112 L866,74 L832,112 Z" fill="#534AB7"/>
<line x1="872" y1="66" x2="872" y2="112" stroke="#26215C" stroke-width="3"/>
<path d="M846,116 L906,116 L896,128 L856,128 Z" fill="#26215C"/>
<path d="M0,150 C170,128 340,164 540,146 C740,128 920,166 1090,146 C1140,140 1170,148 1200,144 V200 H0 Z" fill="#534AB7"/>
<path d="M0,172 C210,158 430,186 650,172 C860,159 1040,184 1200,172 V200 H0 Z" fill="#3C3489"/>
<path d="M0,188 C240,180 500,196 760,187 C980,180 1110,192 1200,186 V200 H0 Z" fill="#26215C"/>
<circle cx="300" cy="150" r="4" fill="#EEEDFE" opacity="0.5"/>
<circle cx="980" cy="158" r="3" fill="#EEEDFE" opacity="0.5"/>
</svg>
