<svg xmlns="http://www.w3.org/2000/svg" viewBox="0 0 1200 200" role="img" aria-label="Ein Wegweiser mit Schildern in verschiedene Richtungen an einem Weg — die Regel der Richtungsadverbien">
<rect width="1200" height="200" fill="#EEEDFE"/>
<circle cx="1024" cy="46" r="24" fill="#f3c46a"/>
<circle cx="1024" cy="46" r="35" fill="none" stroke="#f3c46a" stroke-width="2" opacity="0.4"/>
<path d="M0,132 C180,108 360,128 520,120 C720,110 920,130 1200,116 V200 H0 Z" fill="#CECBF6"/>
<path d="M150,94 l11,-11 l11,11 M150,110 l11,-11 l11,11" fill="none" stroke="#7F77DD" stroke-width="3.5" stroke-linecap="round" stroke-linejoin="round"/>
<g>
<rect x="298" y="46" width="9" height="102" rx="3" fill="#26215C"/>
<path d="M307,54 H358 L376,64 L358,74 H307 Z" fill="#AFA9EC"/>
<path d="M307,82 H380 L400,94 L380,106 H307 Z" fill="#7F77DD"/>
<path d="M298,114 H227 L207,126 L227,138 H298 Z" fill="#534AB7"/>
</g>
<path d="M0,140 C150,122 320,150 480,138 C600,130 680,134 724,132 L724,132 L724,200 L0,200 Z" fill="#7F77DD"/>
<path d="M0,140 C150,122 320,150 480,138 C600,130 680,134 722,132" fill="none" stroke="#534AB7" stroke-width="4" stroke-linecap="round"/>
<g transform="translate(724,132) rotate(-30)">
<path d="M0,-96 L-17,-58 L-6,-58 L-6,0 L6,0 L6,-58 L17,-58 Z" fill="#26215C"/>
</g>
<path d="M0,162 C200,146 420,174 640,160 C860,148 1040,172 1200,160 V200 H0 Z" fill="#3C3489"/>
<path d="M0,184 C240,172 500,196 760,183 C980,172 1110,190 1200,182 V200 H0 Z" fill="#26215C"/>
</svg>
