<svg xmlns="http://www.w3.org/2000/svg" viewBox="0 0 1200 200" role="img" aria-label="Zwei Wellen greifen ineinander — an der Nahtstelle fehlt das goldene Bindeglied, das beide zusammenhält"><rect width="1200" height="200" fill="#EEEDFE"/><path d="M0,120 C150,104 320,120 470,150 C520,160 560,168 600,172 L600,200 L0,200 Z" fill="#7F77DD"/><path d="M600,172 C640,168 680,160 730,150 C880,120 1050,104 1200,120 V200 H600 Z" fill="#534AB7"/><circle cx="600" cy="172" r="9" fill="#26215C"/><path d="M582,150 a18,18 0 0 1 36,0" fill="none" stroke="#3C3489" stroke-width="2" stroke-dasharray="4 4" opacity="0.6"/><g transform="translate(600,108)"><rect x="-16" y="-14" width="32" height="28" rx="6" fill="#f3c46a"/><circle cx="0" cy="-14" r="7" fill="#f3c46a"/></g><path d="M600,124 l0,16" stroke="#f3c46a" stroke-width="2" opacity="0.5"/><path d="M0,182 C240,170 500,196 760,183 C980,172 1110,190 1200,182 V200 H0 Z" fill="#26215C"/></svg>