<svg xmlns="http://www.w3.org/2000/svg" viewBox="0 0 1200 200" role="img" aria-label="Küstenpanorama mit Palmeninsel, Segelboot und Sonne über dem Meer — Urlaub">
<rect width="1200" height="200" fill="#EEEDFE"/>
<circle cx="285" cy="50" r="28" fill="#f3c46a"/>
<circle cx="285" cy="50" r="40" fill="none" stroke="#f3c46a" stroke-width="2" opacity="0.4"/>
<path d="M580,122 C660,90 748,84 828,96 C896,105 956,114 1016,122 Z" fill="#CECBF6"/>
<path d="M694,106 Q693,86 700,66" fill="none" stroke="#534AB7" stroke-width="6" stroke-linecap="round"/><g fill="none" stroke="#3C3489" stroke-width="6" stroke-linecap="round"><path d="M700,66 Q670,60 644,70"/><path d="M700,66 Q676,48 658,40"/><path d="M700,66 Q698,44 702,36"/><path d="M700,66 Q726,48 746,42"/><path d="M700,66 Q730,60 758,70"/></g><circle cx="706" cy="72" r="3.5" fill="#3C3489"/>
<path d="M786,102 Q785,81 792,60" fill="none" stroke="#534AB7" stroke-width="6" stroke-linecap="round"/><g fill="none" stroke="#3C3489" stroke-width="6" stroke-linecap="round"><path d="M792,60 Q762,54 736,64"/><path d="M792,60 Q768,42 750,34"/><path d="M792,60 Q790,38 794,30"/><path d="M792,60 Q818,42 838,36"/><path d="M792,60 Q822,54 850,64"/></g><circle cx="798" cy="66" r="3.5" fill="#3C3489"/>
<path d="M862,110 Q856,91 858,72" fill="none" stroke="#534AB7" stroke-width="6" stroke-linecap="round"/><g fill="none" stroke="#3C3489" stroke-width="6" stroke-linecap="round"><path d="M858,72 Q828,66 802,76"/><path d="M858,72 Q834,54 816,46"/><path d="M858,72 Q856,50 860,42"/><path d="M858,72 Q884,54 904,48"/><path d="M858,72 Q888,66 916,76"/></g><circle cx="864" cy="78" r="3.5" fill="#3C3489"/>
<path d="M0,120 C160,104 340,128 500,118 C680,107 860,126 1030,116 C1100,111 1160,118 1200,114 V200 H0 Z" fill="#AFA9EC"/>
<path d="M300,116 L420,116 L406,130 Q360,140 314,130 Z" fill="#3C3489"/>
<line x1="360" y1="116" x2="360" y2="62" stroke="#26215C" stroke-width="4" stroke-linecap="round"/>
<path d="M364,66 L364,112 L410,112 Z" fill="#7F77DD"/>
<path d="M356,70 L356,112 L322,112 Z" fill="#AFA9EC"/>
<path d="M0,142 C170,126 350,150 520,140 C700,129 880,150 1050,140 C1110,135 1170,142 1200,138 V200 H0 Z" fill="#534AB7"/>
<path d="M0,162 C200,148 420,174 640,160 C860,147 1040,172 1200,160 V200 H0 Z" fill="#3C3489"/>
<path d="M0,183 C240,171 500,193 760,181 C980,171 1110,188 1200,181 V200 H0 Z" fill="#26215C"/>
</svg>