<svg xmlns="http://www.w3.org/2000/svg" viewBox="0 0 1200 200" role="img" aria-label="Postfach-Panorama aus Umschlägen über den Wellen — als Sonne leuchtet das goldene @-Zeichen"><rect width="1200" height="200" fill="#EEEDFE"/><g transform="translate(958,52)"><circle r="24" fill="none" stroke="#f3c46a" stroke-width="6"/><circle r="9" fill="none" stroke="#f3c46a" stroke-width="5"/><path d="M9,0 a9,9 0 1 0 4,7" fill="none" stroke="#f3c46a" stroke-width="5"/></g><g fill="#3C3489"><g transform="translate(250,78)"><rect width="70" height="46" rx="4"/><path d="M0,4 L35,26 L70,4" fill="none" stroke="#AFA9EC" stroke-width="3"/></g><g transform="translate(430,86)"><rect width="70" height="46" rx="4"/><path d="M0,4 L35,26 L70,4" fill="none" stroke="#AFA9EC" stroke-width="3"/></g><g transform="translate(600,72)"><rect width="70" height="46" rx="4"/><path d="M0,4 L35,26 L70,4" fill="none" stroke="#AFA9EC" stroke-width="3"/></g><g transform="translate(770,84)"><rect width="70" height="46" rx="4"/><path d="M0,4 L35,26 L70,4" fill="none" stroke="#AFA9EC" stroke-width="3"/></g></g><g fill="#7F77DD"><g transform="translate(340,96)"><rect width="54" height="36" rx="4"/><path d="M0,4 L27,20 L54,4" fill="none" stroke="#CECBF6" stroke-width="2.5"/></g><g transform="translate(520,100)"><rect width="54" height="36" rx="4"/><path d="M0,4 L27,20 L54,4" fill="none" stroke="#CECBF6" stroke-width="2.5"/></g><g transform="translate(690,98)"><rect width="54" height="36" rx="4"/><path d="M0,4 L27,20 L54,4" fill="none" stroke="#CECBF6" stroke-width="2.5"/></g></g><path d="M0,124 C150,96 290,140 450,118 C610,96 760,138 920,116 C1040,101 1130,118 1200,108 V200 H0 Z" fill="#534AB7"/><path d="M0,150 C170,128 330,166 520,146 C700,128 880,168 1050,148 C1110,141 1170,148 1200,144 V200 H0 Z" fill="#3C3489"/><path d="M0,178 C200,162 420,190 640,176 C860,163 1040,188 1200,176 V200 H0 Z" fill="#26215C"/></svg>