<svg xmlns="http://www.w3.org/2000/svg" viewBox="0 0 1200 200" role="img" aria-label="Eine Flaschenpost treibt auf dem Meer, im Inneren eine beschriebene Notiz — Schreiben">
<rect width="1200" height="200" fill="#EEEDFE"/>
<path d="M0,110 C180,94 380,116 560,106 C740,96 920,116 1100,106 C1150,103 1180,108 1200,106 V200 H0 Z" fill="#7F77DD"/>
<rect x="470" y="80" width="252" height="54" rx="26" fill="#CECBF6" stroke="#534AB7" stroke-width="3"/>
<rect x="716" y="94" width="46" height="26" rx="7" fill="#CECBF6" stroke="#534AB7" stroke-width="3"/>
<rect x="760" y="92" width="18" height="30" rx="4" fill="#f3c46a"/>
<rect x="500" y="90" width="150" height="34" rx="6" fill="#EEEDFE"/>
<g stroke="#7F77DD" stroke-width="3" stroke-linecap="round">
<line x1="514" y1="100" x2="632" y2="100"/>
<line x1="514" y1="108" x2="614" y2="108"/>
<line x1="514" y1="116" x2="628" y2="116"/>
</g>
<path d="M0,122 C160,108 360,130 540,122 C610,118 675,127 720,123 C860,113 1040,132 1200,122 V200 H0 Z" fill="#534AB7"/>
<path d="M0,152 C200,138 420,164 640,150 C860,138 1040,162 1200,150 V200 H0 Z" fill="#3C3489"/>
<path d="M0,182 C240,170 500,192 760,180 C980,170 1110,188 1200,180 V200 H0 Z" fill="#26215C"/>
</svg>
