<svg xmlns="http://www.w3.org/2000/svg" viewBox="0 0 1200 200" role="img" aria-label="Ein Wanderpfad zieht sich als gepunktete Linie durch das Bergpanorama unter der goldenen Sonne">
<rect width="1200" height="200" fill="#EEEDFE"/>
<circle cx="320" cy="54" r="30" fill="#f3c46a"/>
<circle cx="320" cy="54" r="42" fill="none" stroke="#f3c46a" stroke-width="2" opacity="0.45"/>
<path d="M155,122 L250,62 L345,122 Z" fill="#CECBF6"/>
<path d="M310,122 L430,38 L550,122 Z" fill="#AFA9EC"/>
<path d="M490,122 L640,14 L790,122 Z" fill="#7F77DD"/>
<path d="M640,14 L618,44 L632,48 L610,70 L670,70 L648,50 L662,44 Z" fill="#EEEDFE" opacity="0.9"/>
<path d="M735,122 L850,50 L965,122 Z" fill="#AFA9EC"/>
<path d="M460,60 q5.0,-7.0 10,0 q5.0,-7.0 10,0" fill="none" stroke="#26215C" stroke-width="2.4" stroke-linecap="round"/>
<path d="M495,50 q5.0,-7.0 10,0 q5.0,-7.0 10,0" fill="none" stroke="#26215C" stroke-width="2.4" stroke-linecap="round"/>
<path d="M0,126 C150,102 320,142 480,118 C640,98 800,140 960,116 C1080,102 1150,120 1200,112 V200 H0 Z" fill="#534AB7"/>
<path d="M0,152 C180,132 360,170 540,146 C720,128 900,168 1080,144 C1140,138 1180,148 1200,142 V200 H0 Z" fill="#3C3489"/>
<path d="M0,180 C200,166 420,194 640,174 C860,164 1040,192 1200,172 V200 H0 Z" fill="#26215C"/>
<path d="M120,150 C300,138 360,168 520,150 C680,133 760,166 940,150 C1030,143 1110,150 1180,146" fill="none" stroke="#EEEDFE" stroke-width="3.5" stroke-dasharray="2 12" stroke-linecap="round" opacity="0.8"/>
<circle cx="1010" cy="132" r="3" fill="#EEEDFE" opacity="0.5"/><circle cx="230" cy="128" r="3" fill="#EEEDFE" opacity="0.5"/>
</svg>
