<svg xmlns="http://www.w3.org/2000/svg" viewBox="0 0 1200 200" role="img" aria-label="Zwei Vögel rufen sich über dem Bergtal zu — die goldenen Bögen sind ihr Gesang">
<rect width="1200" height="200" fill="#EEEDFE"/>
<circle cx="300" cy="52" r="20" fill="#CECBF6" opacity="0.9"/><circle cx="308" cy="48" r="20" fill="#EEEDFE"/>
<path d="M315,122 L430,52 L545,122 Z" fill="#CECBF6"/>
<path d="M575,122 L720,30 L865,122 Z" fill="#AFA9EC"/>
<path d="M0,128 C150,104 320,144 480,120 C640,100 800,142 960,118 C1080,104 1150,122 1200,114 V200 H0 Z" fill="#534AB7"/>
<path d="M0,154 C180,134 360,172 540,148 C720,130 900,170 1080,146 C1140,140 1180,150 1200,144 V200 H0 Z" fill="#3C3489"/>
<path d="M0,182 C200,168 420,196 640,176 C860,166 1040,194 1200,174 V200 H0 Z" fill="#26215C"/>
<line x1="500" y1="138" x2="500" y2="156" stroke="#26215C" stroke-width="3"/>
<line x1="720" y1="138" x2="720" y2="156" stroke="#26215C" stroke-width="3"/>
<g transform="translate(500,132) scale(1,1)" fill="#26215C"><path d="M-20,4 C-22,-8 -8,-14 4,-12 C10,-11 15,-8 18,-3 C22,-2 26,-4 30,-8 C28,-2 26,2 20,4 C22,10 18,16 10,16 C0,16 -8,12 -14,14 L-30,20 L-18,8 Z"/><circle cx="8" cy="-8" r="2.4" fill="#EEEDFE"/><path d="M18,-3 L34,-4 L20,3 Z" fill="#534AB7"/></g>
<g transform="translate(720,132) scale(-1,1)" fill="#26215C"><path d="M-20,4 C-22,-8 -8,-14 4,-12 C10,-11 15,-8 18,-3 C22,-2 26,-4 30,-8 C28,-2 26,2 20,4 C22,10 18,16 10,16 C0,16 -8,12 -14,14 L-30,20 L-18,8 Z"/><circle cx="8" cy="-8" r="2.4" fill="#EEEDFE"/><path d="M18,-3 L34,-4 L20,3 Z" fill="#534AB7"/></g>
<path d="M538,126 q28,-16 52,0 q28,16 52,0 q28,-16 40,-2" fill="none" stroke="#f3c46a" stroke-width="2.4" stroke-linecap="round" opacity="0.9"/>
<circle cx="542" cy="124" r="2.4" fill="#f3c46a"/><circle cx="678" cy="124" r="2.4" fill="#f3c46a"/>
</svg>
