<svg xmlns="http://www.w3.org/2000/svg" viewBox="0 0 1200 200" role="img" aria-label="Reise-Panorama: ein Koffer steht am Weg, der sich über die Hügel zur aufgehenden Sonne windet">
<rect width="1200" height="200" fill="#EEEDFE"/>
<circle cx="960" cy="58" r="26" fill="#f3c46a"/>
<circle cx="960" cy="58" r="37" fill="none" stroke="#f3c46a" stroke-width="2" opacity="0.4"/>
<path d="M0,120 L190,90 L380,120 Z" fill="#CECBF6"/>
<path d="M640,120 L820,86 L1010,120 Z" fill="#CECBF6"/>
<path d="M0,150 C150,150 230,140 360,140 C520,140 580,122 720,118 C860,114 920,104 1050,102 C1120,101 1170,102 1200,102 V200 H0 Z" fill="#7F77DD"/>
<path d="M0,150 C150,150 230,140 360,140 C520,140 580,122 720,118 C860,114 920,104 1050,102 C1120,101 1170,102 1200,102" fill="none" stroke="#EEEDFE" stroke-width="2.5" stroke-dasharray="12 10" opacity="0.75"/>
<rect x="250" y="122" width="66" height="44" rx="6" fill="#3C3489"/>
<rect x="274" y="112" width="18" height="12" rx="4" fill="none" stroke="#3C3489" stroke-width="4"/>
<line x1="250" y1="140" x2="316" y2="140" stroke="#534AB7" stroke-width="4"/>
<path d="M0,150 C170,130 330,166 520,148 C700,130 880,166 1050,150 C1110,144 1170,150 1200,146 V200 H0 Z" fill="#3C3489"/>
<path d="M0,178 C200,164 420,190 640,176 C860,164 1040,188 1200,176 V200 H0 Z" fill="#26215C"/>
</svg>
