<svg xmlns="http://www.w3.org/2000/svg" viewBox="0 0 1200 200" role="img" aria-label="Panorama der Ausbildung: Schule, Uhrturm und Werkstatt vor Hügeln, die Sonne geht auf">
<rect width="1200" height="200" fill="#EEEDFE"/>
<circle cx="300" cy="58" r="27" fill="#f3c46a"/>
<circle cx="300" cy="58" r="38" fill="none" stroke="#f3c46a" stroke-width="2" opacity="0.4"/>
<path d="M0,118 L150,86 L300,118 Z" fill="#CECBF6"/>
<path d="M820,118 L980,74 L1140,118 Z" fill="#CECBF6"/>
<rect x="470" y="80" width="78" height="42" fill="#534AB7"/>
<path d="M462,80 L509,56 L556,80 Z" fill="#3C3489"/>
<rect x="503" y="98" width="12" height="24" fill="#EEEDFE" opacity="0.85"/>
<rect x="480" y="88" width="10" height="10" fill="#EEEDFE" opacity="0.7"/>
<rect x="528" y="88" width="10" height="10" fill="#EEEDFE" opacity="0.7"/>
<rect x="560" y="66" width="34" height="56" fill="#3C3489"/>
<circle cx="577" cy="82" r="7" fill="#EEEDFE" opacity="0.85"/>
<rect x="606" y="92" width="86" height="30" fill="#534AB7"/>
<path d="M606,92 L628,80 L650,92 L672,80 L692,92 Z" fill="#3C3489"/>
<rect x="668" y="60" width="10" height="22" fill="#3C3489"/>
<path d="M360,64 q9,-7 18,0 M386,72 q9,-7 18,0" fill="none" stroke="#534AB7" stroke-width="3" stroke-linecap="round"/>
<path d="M0,122 C150,100 320,138 480,120 C640,104 800,138 960,120 C1060,110 1140,120 1200,114 V200 H0 Z" fill="#534AB7"/>
<path d="M0,150 C170,130 330,166 520,148 C700,130 880,166 1050,150 C1110,144 1170,150 1200,146 V200 H0 Z" fill="#3C3489"/>
<path d="M0,178 C200,164 420,190 640,176 C860,164 1040,188 1200,176 V200 H0 Z" fill="#26215C"/>
</svg>
