<svg xmlns="http://www.w3.org/2000/svg" viewBox="0 0 1200 200" role="img" aria-label="Ein Wegweiser mit Richtungsschildern zeigt die Ordnung der Wege — Regel">
<rect width="1200" height="200" fill="#EEEDFE"/>
<path d="M150,132 C260,108 360,118 470,132 Z" fill="#CECBF6"/>
<path d="M700,130 C800,104 900,110 1010,130 Z" fill="#CECBF6"/>
<path d="M300,132 C420,96 560,104 700,132 Z" fill="#AFA9EC"/>
<!-- kleiner ferner Wegweiser -->
<g opacity="0.55"><line x1="250" y1="128" x2="250" y2="86" stroke="#534AB7" stroke-width="4"/><path d="M250,92 L288,92 L298,100 L288,108 L250,108 Z" fill="#534AB7"/></g>
<!-- Hauptpfosten -->
<line x1="600" y1="128" x2="600" y2="42" stroke="#26215C" stroke-width="8" stroke-linecap="round"/>
<circle cx="600" cy="40" r="6" fill="#26215C"/>
<!-- Richtungsschilder -->
<path d="M600,52 L676,52 L696,61 L676,70 L600,70 Z" fill="#534AB7"/>
<path d="M600,80 L524,80 L504,89 L524,98 L600,98 Z" fill="#f3c46a"/>
<path d="M600,108 L672,108 L690,117 L672,126 L600,126 Z" fill="#3C3489"/>
<circle cx="524" cy="89" r="2.5" fill="#26215C"/>
<circle cx="676" cy="61" r="2.5" fill="#EEEDFE"/>
<circle cx="672" cy="117" r="2.5" fill="#EEEDFE"/>
<!-- Vogel-Chevrons -->
<path d="M910,60 q10,-8 20,0 M940,50 q10,-8 20,0" fill="none" stroke="#534AB7" stroke-width="3" stroke-linecap="round"/>
<!-- Wellen -->
<path d="M0,134 C180,116 380,142 600,132 C820,122 1010,144 1200,132 V200 H0 Z" fill="#7F77DD"/>
<path d="M0,158 C200,140 420,170 640,154 C860,140 1040,172 1200,156 V200 H0 Z" fill="#534AB7"/>
<path d="M0,176 C210,164 430,190 650,176 C860,164 1040,188 1200,176 V200 H0 Z" fill="#3C3489"/>
<path d="M0,190 C240,183 500,197 760,189 C980,183 1110,194 1200,188 V200 H0 Z" fill="#26215C"/>
<circle cx="360" cy="156" r="3.5" fill="#EEEDFE" opacity="0.5"/>
<circle cx="1000" cy="160" r="3" fill="#EEEDFE" opacity="0.5"/>
</svg>
