<svg xmlns="http://www.w3.org/2000/svg" viewBox="0 0 1200 200" role="img" aria-label="Ein Bergpfad führt in Serpentinen zum Gipfel hinauf — Satz für Satz aufbauen">
<rect width="1200" height="200" fill="#EEEDFE"/>
<circle cx="250" cy="50" r="26" fill="#f3c46a"/>
<circle cx="250" cy="50" r="37" fill="none" stroke="#f3c46a" stroke-width="2" opacity="0.4"/>
<path d="M120,150 L300,72 L470,150 Z" fill="#CECBF6"/>
<path d="M820,150 L980,84 L1120,150 Z" fill="#CECBF6"/>
<path d="M470,152 L700,36 L930,152 Z" fill="#7F77DD"/>
<path d="M700,152 L616,124 L792,124 L648,98 L760,98 L700,66" fill="none" stroke="#EEEDFE" stroke-width="9" stroke-linecap="round" stroke-linejoin="round"/>
<path d="M470,70 q10,-8 20,0 M500,58 q10,-8 20,0" fill="none" stroke="#534AB7" stroke-width="3" stroke-linecap="round"/>
<path d="M0,150 C160,126 320,164 500,146 C690,126 880,166 1050,148 C1110,141 1170,150 1200,146 V200 H0 Z" fill="#534AB7"/>
<path d="M0,168 C180,150 360,182 560,166 C760,150 940,182 1120,166 C1160,162 1185,166 1200,164 V200 H0 Z" fill="#3C3489"/>
<path d="M0,186 C220,174 460,196 700,184 C900,174 1060,192 1200,184 V200 H0 Z" fill="#26215C"/>
</svg>
