<svg xmlns="http://www.w3.org/2000/svg" viewBox="0 0 1200 200" role="img" aria-label="Eine Lebens-Zeitleiste bildet die Wellenkante — auf ihr sitzen die Meilensteine, der jüngste leuchtet golden">
<rect width="1200" height="200" fill="#EEEDFE"/>
<path d="M0,118 L170,92 L350,118 Z" fill="#CECBF6"/>
<path d="M760,118 L940,90 L1130,118 Z" fill="#CECBF6"/>
<path d="M0,140 C150,138 260,130 420,128 C560,126 640,120 780,118 C900,116 1000,110 1200,108 V200 H0 Z" fill="#7F77DD"/>
<path d="M0,140 C150,138 260,130 420,128 C560,126 640,120 780,118 C900,116 1000,110 1200,108" fill="none" stroke="#534AB7" stroke-width="3" stroke-linecap="round"/>
<circle cx="230" cy="131" r="7" fill="#EEEDFE" stroke="#534AB7" stroke-width="3"/>
<circle cx="430" cy="127" r="7" fill="#EEEDFE" stroke="#534AB7" stroke-width="3"/>
<circle cx="640" cy="121" r="7" fill="#EEEDFE" stroke="#534AB7" stroke-width="3"/>
<circle cx="840" cy="115" r="9" fill="#f3c46a"/>
<path d="M0,150 C170,130 330,166 520,148 C700,130 880,166 1050,150 C1110,144 1170,150 1200,146 V200 H0 Z" fill="#3C3489"/>
<path d="M0,178 C200,164 420,190 640,176 C860,164 1040,188 1200,176 V200 H0 Z" fill="#26215C"/>
</svg>
