<svg xmlns="http://www.w3.org/2000/svg" viewBox="0 0 1200 200" role="img" aria-label="Bausteine steigen als Treppe aus der Welle — der goldene Schlussstein wird oben angesetzt">
<rect width="1200" height="200" fill="#EEEDFE"/>
<rect x="470" y="104" width="36" height="36" fill="#7F77DD"/>
<rect x="506" y="86" width="36" height="54" fill="#534AB7"/>
<rect x="542" y="68" width="36" height="72" fill="#3C3489"/>
<rect x="578" y="40" width="36" height="36" fill="#f3c46a"/>
<path d="M0,132 C150,116 320,146 480,132 C640,118 800,146 960,132 C1060,124 1140,132 1200,128 V200 H0 Z" fill="#534AB7"/>
<path d="M0,150 C170,130 330,166 520,148 C700,130 880,166 1050,150 C1110,144 1170,150 1200,146 V200 H0 Z" fill="#3C3489"/>
<path d="M0,178 C200,164 420,190 640,176 C860,164 1040,188 1200,176 V200 H0 Z" fill="#26215C"/>
</svg>
