<svg xmlns="http://www.w3.org/2000/svg" viewBox="0 0 1200 200" role="img" aria-label="Die goldene Sonne geht hinter der Stadt-Silhouette auf — jeden Morgen frisch auf dem Laufenden"><rect width="1200" height="200" fill="#EEEDFE"/><circle cx="600" cy="118" r="52" fill="#f3c46a"/><g stroke="#f3c46a" stroke-width="3" opacity="0.5" stroke-linecap="round"><line x1="600" y1="44" x2="600" y2="58"/><line x1="540" y1="60" x2="548" y2="72"/><line x1="660" y1="60" x2="652" y2="72"/><line x1="498" y1="94" x2="512" y2="100"/><line x1="702" y1="94" x2="688" y2="100"/></g><g fill="#3C3489"><rect x="360" y="96" width="40" height="28"/><rect x="410" y="80" width="28" height="44"/><rect x="500" y="88" width="34" height="36"/><rect x="560" y="72" width="26" height="52"/><rect x="620" y="86" width="36" height="38"/><rect x="690" y="98" width="40" height="26"/><rect x="760" y="82" width="26" height="42"/><rect x="810" y="100" width="44" height="24"/></g><g fill="#EEEDFE" opacity="0.55"><rect x="567" y="82" width="5" height="6"/><rect x="576" y="82" width="5" height="6"/><rect x="567" y="96" width="5" height="6"/></g><path d="M0,124 C150,96 290,140 450,118 C610,96 760,138 920,116 C1040,101 1130,118 1200,108 V200 H0 Z" fill="#534AB7"/><path d="M0,150 C170,128 330,166 520,146 C700,128 880,168 1050,148 C1110,141 1170,148 1200,144 V200 H0 Z" fill="#3C3489"/><path d="M0,178 C200,162 420,190 640,176 C860,163 1040,188 1200,176 V200 H0 Z" fill="#26215C"/></svg>