<svg xmlns="http://www.w3.org/2000/svg" viewBox="0 0 1200 200" role="img" aria-label="Eine Obstgarten-Reihe ueber die Breite, eine Frucht golden, ein Korb"><rect width="1200" height="200" fill="#EEEDFE"/><circle cx="190" cy="60" r="24" fill="#f3c46a"/><path d="M0,132 C130,104 270,100 400,120 C470,131 560,128 680,128 L680,200 H0 Z" fill="#CECBF6"/><path d="M1200,132 C1070,104 930,100 800,120 C730,131 620,128 520,128 L520,200 H1200 Z" fill="#CECBF6"/><path d="M0,158 C300,144 600,166 900,156 C1050,151 1150,160 1200,156 L1200,200 H0 Z" fill="#7F77DD"/><path d="M150,48 q7,-7 14,0" stroke="#534AB7" stroke-width="2.6" fill="none"/><path d="M166,51 q7,-7 14,0" stroke="#534AB7" stroke-width="2.6" fill="none"/><rect x="256" y="121" width="8" height="29" rx="2" fill="#26215C"/><circle cx="260" cy="102" r="27" fill="#534AB7"/><circle cx="241" cy="113" r="16" fill="#534AB7"/><circle cx="279" cy="113" r="16" fill="#534AB7"/><rect x="465" y="116" width="10" height="34" rx="2" fill="#26215C"/><circle cx="470" cy="94" r="32" fill="#7F77DD"/><circle cx="448" cy="106" r="19" fill="#7F77DD"/><circle cx="492" cy="106" r="19" fill="#7F77DD"/><rect x="675" y="114" width="10" height="36" rx="2" fill="#26215C"/><circle cx="680" cy="91" r="34" fill="#534AB7"/><circle cx="656" cy="104" r="20" fill="#534AB7"/><circle cx="704" cy="104" r="20" fill="#534AB7"/><rect x="886" y="119" width="9" height="31" rx="2" fill="#26215C"/><circle cx="890" cy="99" r="29" fill="#7F77DD"/><circle cx="870" cy="111" r="17" fill="#7F77DD"/><circle cx="910" cy="111" r="17" fill="#7F77DD"/><circle cx="248" cy="106" r="3" fill="#26215C"/><circle cx="270" cy="101" r="3" fill="#26215C"/><circle cx="260" cy="119" r="3" fill="#26215C"/><circle cx="274" cy="118" r="3" fill="#26215C"/><circle cx="252" cy="124" r="3" fill="#26215C"/><circle cx="456" cy="98" r="4" fill="#26215C"/><circle cx="482" cy="92" r="4" fill="#26215C"/><circle cx="470" cy="114" r="4" fill="#26215C"/><circle cx="486" cy="112" r="4" fill="#26215C"/><circle cx="460" cy="120" r="4" fill="#26215C"/><circle cx="665" cy="95" r="4" fill="#26215C"/><circle cx="693" cy="89" r="4" fill="#26215C"/><circle cx="680" cy="112" r="4" fill="#26215C"/><circle cx="697" cy="110" r="4" fill="#26215C"/><circle cx="670" cy="118" r="4" fill="#26215C"/><circle cx="877" cy="103" r="4" fill="#26215C"/><circle cx="901" cy="98" r="4" fill="#26215C"/><circle cx="890" cy="118" r="4" fill="#26215C"/><circle cx="904" cy="116" r="4" fill="#26215C"/><circle cx="881" cy="123" r="4" fill="#26215C"/><circle cx="695" cy="120" r="6" fill="#f3c46a"/><path d="M986,150 L1034,150 L1028,168 L992,168 Z" fill="#3C3489"/><rect x="982" y="146" width="56" height="7" rx="3" fill="#534AB7"/><path d="M0,180 C300,170 600,188 900,178 C1050,173 1150,182 1200,178 L1200,200 H0 Z" fill="#26215C"/></svg>