<svg xmlns="http://www.w3.org/2000/svg" viewBox="0 0 1200 200" role="img" aria-label="Panorama mit einem Gipfel: ein Pfad führt hinauf zur goldenen Fahne — das Ziel, auf das alles hinausläuft">
<rect width="1200" height="200" fill="#EEEDFE"/>
<path d="M0,116 L150,92 L300,116 Z" fill="#CECBF6"/>
<path d="M470,150 L720,52 L980,150 Z" fill="#7F77DD"/>
<path d="M600,150 L740,70 L900,150 Z" fill="#534AB7"/>
<line x1="720" y1="54" x2="720" y2="24" stroke="#3C3489" stroke-width="3"/>
<path d="M720,24 L748,31 L720,38 Z" fill="#f3c46a"/>
<path d="M300,150 C430,146 560,140 720,56" fill="none" stroke="#EEEDFE" stroke-width="2.5" stroke-dasharray="9 8" opacity="0.75"/>
<path d="M0,150 C200,138 420,166 640,150 C860,136 1040,166 1200,150 V200 H0 Z" fill="#3C3489"/>
<path d="M0,178 C200,164 420,190 640,176 C860,164 1040,188 1200,176 V200 H0 Z" fill="#26215C"/>
</svg>
