<svg xmlns="http://www.w3.org/2000/svg" viewBox="0 0 1200 200" role="img" aria-label="Platinen-Skyline aus Chip-Türmen über den Wellen — an der höchsten Antenne pulst der goldene Signalpunkt"><rect width="1200" height="200" fill="#EEEDFE"/><path d="M0,128 C200,116 400,132 600,122 C800,112 1000,130 1200,120 V150 H0 Z" fill="#CECBF6" opacity="0.7"/><g fill="#3C3489"><rect x="250" y="86" width="46" height="38"/><rect x="308" y="70" width="34" height="54"/><rect x="470" y="94" width="40" height="30"/><rect x="600" y="60" width="30" height="64"/><rect x="760" y="88" width="44" height="36"/><rect x="900" y="100" width="36" height="24"/></g><g fill="#7F77DD"><rect x="200" y="100" width="40" height="24"/><rect x="360" y="96" width="30" height="28"/><rect x="530" y="82" width="30" height="42"/><rect x="672" y="92" width="36" height="32"/><rect x="840" y="94" width="30" height="30"/></g><g fill="#EEEDFE" opacity="0.6"><rect x="316" y="80" width="5" height="6"/><rect x="326" y="80" width="5" height="6"/><rect x="316" y="94" width="5" height="6"/><rect x="326" y="94" width="5" height="6"/><rect x="607" y="72" width="5" height="6"/><rect x="617" y="72" width="5" height="6"/><rect x="607" y="88" width="5" height="6"/></g><line x1="615" y1="60" x2="615" y2="34" stroke="#534AB7" stroke-width="3"/><circle cx="615" cy="30" r="9" fill="#f3c46a"/><circle cx="615" cy="30" r="16" fill="none" stroke="#f3c46a" stroke-width="2" opacity="0.4"/><path d="M325,70 L325,52 L470,52 L470,94" fill="none" stroke="#AFA9EC" stroke-width="2" opacity="0.7"/><path d="M0,124 C150,96 290,140 450,118 C610,96 760,138 920,116 C1040,101 1130,118 1200,108 V200 H0 Z" fill="#534AB7"/><path d="M0,150 C170,128 330,166 520,146 C700,128 880,168 1050,148 C1110,141 1170,148 1200,144 V200 H0 Z" fill="#3C3489"/><path d="M0,178 C200,162 420,190 640,176 C860,163 1040,188 1200,176 V200 H0 Z" fill="#26215C"/></svg>