<svg xmlns="http://www.w3.org/2000/svg" viewBox="0 0 1200 200" role="img" aria-label="Ein offener Koffer sammelt Gepaeckanhaenger wie neue Woerter — Wortschatz">
<rect width="1200" height="200" fill="#EEEDFE"/>
<path d="M0,100 C200,82 390,106 590,94 C790,82 980,104 1200,92 L1200,200 L0,200 Z" fill="#CECBF6"/>
<!-- Gepaeckanhaenger (Woerter) sammeln sich ueber dem offenen Koffer -->
<g stroke="#26215C" stroke-width="2">
  <g transform="translate(430,56) rotate(-16)">
    <path d="M-24,-14 L14,-14 L24,0 L14,14 L-24,14 Z" fill="#AFA9EC"/>
    <circle cx="16" cy="0" r="3.2" fill="#EEEDFE"/>
  </g>
  <g transform="translate(512,40) rotate(-7)">
    <path d="M-24,-14 L14,-14 L24,0 L14,14 L-24,14 Z" fill="#7F77DD"/>
    <circle cx="16" cy="0" r="3.2" fill="#EEEDFE"/>
  </g>
  <g transform="translate(600,34) rotate(3)">
    <path d="M-24,-14 L14,-14 L24,0 L14,14 L-24,14 Z" fill="#f3c46a"/>
    <circle cx="16" cy="0" r="3.2" fill="#EEEDFE"/>
  </g>
  <g transform="translate(688,40) rotate(9)">
    <path d="M-24,-14 L14,-14 L24,0 L14,14 L-24,14 Z" fill="#CECBF6"/>
    <circle cx="16" cy="0" r="3.2" fill="#EEEDFE"/>
  </g>
  <g transform="translate(770,56) rotate(16)">
    <path d="M-24,-14 L14,-14 L24,0 L14,14 L-24,14 Z" fill="#534AB7"/>
    <circle cx="16" cy="0" r="3.2" fill="#EEEDFE"/>
  </g>
</g>
<!-- kurze Fallspuren der Anhaenger in den Koffer -->
<g stroke="#AFA9EC" stroke-width="2.5" stroke-linecap="round" fill="none" opacity="0.7">
  <path d="M512,58 q-4,18 -6,30"/>
  <path d="M600,52 q0,20 0,32"/>
  <path d="M688,58 q4,18 6,30"/>
</g>
<!-- offener Koffer: aufgeklappter Deckel + Wanne -->
<g stroke="#26215C" stroke-width="2">
  <path d="M470,120 L470,96 L620,88 L620,116 Z" fill="#7F77DD"/>
  <rect x="472" y="118" width="256" height="52" rx="8" fill="#534AB7"/>
  <rect x="472" y="132" width="256" height="9" fill="#3C3489"/>
  <rect x="586" y="106" width="28" height="16" rx="6" fill="none" stroke="#26215C" stroke-width="4"/>
</g>
<!-- vordere Wellen -->
<path d="M0,160 C230,146 480,172 740,158 C960,146 1090,166 1200,158 L1200,200 L0,200 Z" fill="#3C3489"/>
<path d="M0,183 C250,172 510,192 770,181 C990,172 1110,188 1200,181 L1200,200 L0,200 Z" fill="#26215C"/>
</svg>
