<svg xmlns="http://www.w3.org/2000/svg" viewBox="0 0 1200 200" role="img" aria-label="Ein Sendemast über den Wellen strahlt Signalbögen aus — an seiner Spitze glüht das goldene Leuchtfeuer"><rect width="1200" height="200" fill="#EEEDFE"/><g fill="none" stroke="#AFA9EC" stroke-width="3" opacity="0.75"><path d="M556,40 A70,70 0 0 1 684,40"/><path d="M536,44 A96,96 0 0 1 704,44"/><path d="M516,50 A122,122 0 0 1 724,50"/></g><path d="M600,124 L612,124 L622,44 L590,44 Z" fill="#3C3489"/><g stroke="#534AB7" stroke-width="2"><line x1="596" y1="104" x2="616" y2="104"/><line x1="600" y1="84" x2="612" y2="84"/><line x1="602" y1="64" x2="610" y2="64"/></g><circle cx="606" cy="38" r="9" fill="#f3c46a"/><circle cx="606" cy="38" r="16" fill="none" stroke="#f3c46a" stroke-width="2" opacity="0.4"/><g fill="#3C3489"><rect x="300" y="104" width="120" height="20"/><rect x="330" y="94" width="20" height="30"/><rect x="820" y="100" width="130" height="24"/><rect x="880" y="90" width="22" height="34"/></g><path d="M0,124 C150,96 290,140 450,118 C610,96 760,138 920,116 C1040,101 1130,118 1200,108 V200 H0 Z" fill="#534AB7"/><path d="M0,150 C170,128 330,166 520,146 C700,128 880,168 1050,148 C1110,141 1170,148 1200,144 V200 H0 Z" fill="#3C3489"/><path d="M0,178 C200,162 420,190 640,176 C860,163 1040,188 1200,176 V200 H0 Z" fill="#26215C"/></svg>