<svg xmlns="http://www.w3.org/2000/svg" viewBox="0 0 1200 200" role="img" aria-label="In der Bergkette fehlt ein Gipfel — die goldene Spitze schwebt heran und füllt die Lücke">
<rect width="1200" height="200" fill="#EEEDFE"/>
<circle cx="1040" cy="50" r="20" fill="#CECBF6" opacity="0.9"/><circle cx="1048" cy="46" r="20" fill="#EEEDFE"/>
<path d="M155,122 L250,62 L345,122 Z" fill="#AFA9EC"/>
<path d="M290,122 L410,36 L530,122 Z" fill="#7F77DD"/>
<path d="M522,122 L640,34 L758,122" fill="none" stroke="#534AB7" stroke-width="2.6" stroke-dasharray="4 9" stroke-linecap="round" opacity="0.75"/>
<path d="M600,70 L640,22 L680,70 Z" fill="#f3c46a"/>
<path d="M742,122 L860,44 L978,122 Z" fill="#7F77DD"/>
<path d="M920,122 L1010,66 L1100,122 Z" fill="#AFA9EC"/>
<path d="M0,126 C150,102 320,142 480,118 C640,98 800,140 960,116 C1080,102 1150,120 1200,112 V200 H0 Z" fill="#534AB7"/>
<path d="M0,152 C180,132 360,170 540,146 C720,128 900,168 1080,144 C1140,138 1180,148 1200,142 V200 H0 Z" fill="#3C3489"/>
<path d="M0,180 C200,166 420,194 640,174 C860,164 1040,192 1200,172 V200 H0 Z" fill="#26215C"/>
</svg>
