<svg xmlns="http://www.w3.org/2000/svg" viewBox="0 0 1200 200" role="img" aria-label="Eine Tastenreihe sitzt auf der Welle — eine Taste fehlt, die goldene Taste schwebt darüber heran"><rect width="1200" height="200" fill="#EEEDFE"/><path d="M0,124 C150,96 290,140 450,118 C610,96 760,138 920,116 C1040,101 1130,118 1200,108 V200 H0 Z" fill="#534AB7"/><g fill="#26215C"><rect x="300" y="112" width="34" height="22" rx="5"/><rect x="342" y="109" width="34" height="22" rx="5"/><rect x="384" y="110" width="34" height="22" rx="5"/><rect x="468" y="112" width="34" height="22" rx="5"/><rect x="510" y="113" width="34" height="22" rx="5"/><rect x="636" y="110" width="34" height="22" rx="5"/><rect x="678" y="109" width="34" height="22" rx="5"/><rect x="720" y="112" width="34" height="22" rx="5"/><rect x="804" y="114" width="34" height="22" rx="5"/></g><rect x="410" y="74" width="34" height="22" rx="5" fill="#f3c46a"/><path d="M427,98 l0,10" stroke="#f3c46a" stroke-width="2" opacity="0.5"/><rect x="410" y="112" width="34" height="22" rx="5" fill="none" stroke="#3C3489" stroke-width="2" stroke-dasharray="3 3" opacity="0.6"/><path d="M0,150 C170,128 330,166 520,146 C700,128 880,168 1050,148 C1110,141 1170,148 1200,144 V200 H0 Z" fill="#3C3489"/><path d="M0,178 C200,162 420,190 640,176 C860,163 1040,188 1200,176 V200 H0 Z" fill="#26215C"/></svg>