<svg xmlns="http://www.w3.org/2000/svg" viewBox="0 0 1200 200" role="img" aria-label="Trittsteine über dem Wasser mit einer Lücke — ein Stein sinkt herab und füllt sie">
<rect width="1200" height="200" fill="#EEEDFE"/>
<path d="M0,128 C200,108 420,132 640,122 C860,112 1040,130 1200,120 V200 H0 Z" fill="#CECBF6"/>
<g fill="#3C3489">
<ellipse cx="230" cy="128" rx="44" ry="15"/>
<ellipse cx="450" cy="130" rx="44" ry="15"/>
<ellipse cx="890" cy="128" rx="44" ry="15"/>
</g>
<g fill="#534AB7">
<ellipse cx="340" cy="129" rx="44" ry="15"/>
<ellipse cx="780" cy="129" rx="44" ry="15"/>
</g>
<ellipse cx="670" cy="130" rx="44" ry="15" fill="none" stroke="#AFA9EC" stroke-width="3" stroke-dasharray="7 7"/>
<path d="M670,86 l8,-9 M670,86 l-8,-9 M670,86 l0,-13" fill="none" stroke="#7F77DD" stroke-width="3.5" stroke-linecap="round"/>
<ellipse cx="670" cy="66" rx="40" ry="14" fill="#f3c46a"/>
<path d="M0,150 C200,132 420,164 640,150 C860,136 1040,166 1200,150 V200 H0 Z" fill="#534AB7"/>
<path d="M0,172 C220,158 460,190 700,176 C920,164 1080,188 1200,178 V200 H0 Z" fill="#3C3489"/>
<path d="M0,190 C240,180 520,198 760,190 C980,182 1100,194 1200,188 V200 H0 Z" fill="#26215C"/>
</svg>
