<svg xmlns="http://www.w3.org/2000/svg" viewBox="0 0 1200 200" role="img" aria-label="Ein umgekippter Eimer an der Wellenkante — die goldene Pfütze läuft in die Welle, der Wischer lehnt daneben">
<rect width="1200" height="200" fill="#EEEDFE"/>
<circle cx="930" cy="50" r="24" fill="#CECBF6"/>
<path d="M470,66 q10,-8 20,0 M500,56 q10,-8 20,0" fill="none" stroke="#AFA9EC" stroke-width="3" stroke-linecap="round"/>
<path d="M0,128 C160,108 320,140 480,124 C640,108 800,138 960,122 C1060,112 1150,126 1200,120 V200 H0 Z" fill="#7F77DD"/>
<g transform="translate(548,116) rotate(46)"><path d="M0,0 L58,0 L50,50 L8,50 Z" fill="#534AB7"/><ellipse cx="29" cy="0" rx="29" ry="8" fill="#3C3489"/><path d="M2,2 A32,28 0 0 0 56,2" fill="none" stroke="#26215C" stroke-width="3"/></g>
<path d="M596,134 C648,118 712,140 772,122 C736,146 686,146 640,158 C622,152 606,144 596,134 Z" fill="#f3c46a"/>
<line x1="792" y1="58" x2="716" y2="128" stroke="#26215C" stroke-width="5" stroke-linecap="round"/>
<path d="M704,124 q18,12 40,4 q-10,18 -34,12 Z" fill="#AFA9EC"/>
<path d="M0,150 C180,130 380,162 580,146 C780,132 970,162 1140,148 C1170,145 1188,150 1200,148 V200 H0 Z" fill="#3C3489"/><path d="M0,178 C200,164 420,190 640,176 C860,164 1040,188 1200,176 V200 H0 Z" fill="#26215C"/>
</svg>
