<svg xmlns="http://www.w3.org/2000/svg" viewBox="0 0 1200 200" role="img" aria-label="Zwei Sprechblasen über der Welle — in einer fehlt das goldene Wörtchen, es schwebt schon heran">
<rect width="1200" height="200" fill="#EEEDFE"/>
<circle cx="250" cy="50" r="24" fill="#CECBF6"/>
<path d="M0,130 C160,110 320,142 480,126 C640,110 800,140 960,124 C1060,114 1150,128 1200,122 V200 H0 Z" fill="#7F77DD"/>
<g fill="#534AB7"><path d="M430,50 h120 a14,14 0 0 1 14,14 v40 a14,14 0 0 1 -14,14 h-70 l-20,20 l2,-20 h-32 a14,14 0 0 1 -14,-14 v-40 a14,14 0 0 1 14,-14 Z"/></g>
<g stroke="#EEEDFE" stroke-width="4" stroke-linecap="round"><line x1="452" y1="72" x2="544" y2="72"/><line x1="452" y1="90" x2="520" y2="90"/></g>
<g fill="#3C3489"><path d="M640,60 h130 a14,14 0 0 1 14,14 v42 a14,14 0 0 1 -14,14 h-40 l-18,20 l2,-20 h-74 a14,14 0 0 1 -14,-14 v-42 a14,14 0 0 1 14,-14 Z"/></g>
<g stroke="#AFA9EC" stroke-width="4" stroke-linecap="round"><line x1="662" y1="82" x2="700" y2="82"/><line x1="742" y1="82" x2="768" y2="82"/><line x1="662" y1="100" x2="758" y2="100"/></g>
<rect x="708" y="74" width="26" height="16" rx="3" fill="none" stroke="#f3c46a" stroke-width="2.5" stroke-dasharray="4 3"/>
<rect x="820" y="112" width="26" height="16" rx="3" fill="#f3c46a"/>
<path d="M0,150 C180,130 380,162 580,146 C780,132 970,162 1140,148 C1170,145 1188,150 1200,148 V200 H0 Z" fill="#3C3489"/><path d="M0,178 C200,164 420,190 640,176 C860,164 1040,188 1200,176 V200 H0 Z" fill="#26215C"/>
</svg>
