<svg xmlns="http://www.w3.org/2000/svg" viewBox="0 0 1200 200" role="img" aria-label="Ein Schlüsselbrett mit vielen Zimmerschlüsseln über den Wellen — Wörter sammeln">
<rect width="1200" height="200" fill="#EEEDFE"/>
<rect x="322" y="52" width="556" height="60" rx="10" fill="#534AB7"/>
<rect x="322" y="52" width="556" height="60" rx="10" fill="none" stroke="#3C3489" stroke-width="3"/>
<g fill="#26215C">
  <circle cx="372" cy="108" r="4"/><circle cx="447" cy="108" r="4"/><circle cx="522" cy="108" r="4"/><circle cx="597" cy="108" r="4"/><circle cx="672" cy="108" r="4"/><circle cx="747" cy="108" r="4"/><circle cx="822" cy="108" r="4"/>
</g>
<g stroke="#26215C" stroke-width="4" stroke-linecap="round">
  <line x1="372" y1="108" x2="372" y2="140"/><line x1="447" y1="108" x2="447" y2="132"/><line x1="522" y1="108" x2="522" y2="142"/><line x1="597" y1="108" x2="597" y2="130"/><line x1="672" y1="108" x2="672" y2="141"/><line x1="747" y1="108" x2="747" y2="134"/><line x1="822" y1="108" x2="822" y2="140"/>
</g>
<g fill="#AFA9EC"><circle cx="372" cy="150" r="9"/><circle cx="522" cy="152" r="9"/><circle cx="672" cy="151" r="9"/><circle cx="822" cy="150" r="9"/></g>
<g fill="#7F77DD"><circle cx="447" cy="142" r="9"/><circle cx="747" cy="144" r="9"/></g>
<circle cx="597" cy="140" r="10" fill="#f3c46a"/>
<g fill="#3C3489"><rect x="368" y="158" width="9" height="12"/><rect x="518" y="160" width="9" height="12"/><rect x="668" y="159" width="9" height="12"/><rect x="818" y="158" width="9" height="12"/></g>
<rect x="443" y="150" width="9" height="10" fill="#3C3489"/><rect x="743" y="152" width="9" height="10" fill="#3C3489"/>
<rect x="593" y="148" width="9" height="10" fill="#26215C"/>
<path d="M0,158 C210,144 430,172 650,160 C850,150 1030,172 1200,158 V200 H0 Z" fill="#3C3489"/>
<path d="M0,182 C240,172 480,194 720,182 C940,172 1090,190 1200,182 V200 H0 Z" fill="#26215C"/>
</svg>
