<svg xmlns="http://www.w3.org/2000/svg" viewBox="0 0 1200 200" role="img" aria-label="Ein großer Hotelschlüssel bildet mit seinem Bart die vordere Welle — das fehlende Wort einsetzen">
<rect width="1200" height="200" fill="#EEEDFE"/>
<path d="M0,124 C120,116 240,112 360,112 L800,112 C910,112 1040,120 1200,114 V200 H0 Z" fill="#7F77DD"/>
<path d="M0,124 C120,116 240,112 360,112 L800,112 C910,112 1040,120 1200,114" fill="none" stroke="#534AB7" stroke-width="4" stroke-linecap="round"/>
<rect x="404" y="94" width="396" height="19" rx="9" fill="#26215C"/>
<rect x="726" y="113" width="16" height="18" rx="2" fill="#26215C"/>
<rect x="754" y="113" width="16" height="26" rx="2" fill="#26215C"/>
<rect x="782" y="113" width="16" height="20" rx="2" fill="#26215C"/>
<circle cx="372" cy="104" r="32" fill="#f3c46a"/>
<circle cx="372" cy="104" r="12" fill="none" stroke="#26215C" stroke-width="7"/>
<path d="M0,152 C200,138 430,166 660,152 C860,140 1030,166 1200,152 V200 H0 Z" fill="#3C3489"/>
<path d="M0,178 C240,166 480,192 720,178 C940,166 1090,188 1200,178 V200 H0 Z" fill="#26215C"/>
</svg>
