<svg xmlns="http://www.w3.org/2000/svg" viewBox="0 0 1200 200" role="img" aria-label="Eine Kleiderstange auf der Welle — die Kleider hängen der Reihe nach, das goldene Kleid kommt hinzu">
<rect width="1200" height="200" fill="#EEEDFE"/>
<circle cx="960" cy="50" r="24" fill="#CECBF6"/>
<path d="M0,140 C170,120 360,150 560,138 C760,126 960,152 1140,140 C1170,138 1188,142 1200,140 V200 H0 Z" fill="#AFA9EC"/>
<line x1="270" y1="70" x2="900" y2="70" stroke="#26215C" stroke-width="5" stroke-linecap="round"/>
<line x1="282" y1="70" x2="282" y2="150" stroke="#534AB7" stroke-width="5"/>
<line x1="888" y1="70" x2="888" y2="150" stroke="#534AB7" stroke-width="5"/>
<g fill="#7F77DD"><line x1="340" y1="72" x2="340" y2="86" stroke="#26215C" stroke-width="2"/><path d="M326,86 L340,76 L354,86 Z"/><path d="M329,88 L351,88 L362,126 L318,126 Z"/></g>
<g fill="#534AB7"><line x1="450" y1="72" x2="450" y2="86" stroke="#26215C" stroke-width="2"/><path d="M436,86 L450,76 L464,86 Z"/><path d="M439,88 L461,88 L472,126 L428,126 Z"/></g>
<g fill="#7F77DD"><line x1="560" y1="72" x2="560" y2="86" stroke="#26215C" stroke-width="2"/><path d="M546,86 L560,76 L574,86 Z"/><path d="M549,88 L571,88 L582,126 L538,126 Z"/></g>
<g fill="#534AB7"><line x1="670" y1="72" x2="670" y2="86" stroke="#26215C" stroke-width="2"/><path d="M656,86 L670,76 L684,86 Z"/><path d="M659,88 L681,88 L692,126 L648,126 Z"/></g>
<g fill="#f3c46a"><line x1="800" y1="66" x2="800" y2="82" stroke="#26215C" stroke-width="2"/><path d="M786,82 L800,72 L814,82 Z"/><path d="M789,84 L811,84 L822,124 L778,124 Z"/></g>
<path d="M0,150 C180,130 380,162 580,146 C780,132 970,162 1140,148 C1170,145 1188,150 1200,148 V200 H0 Z" fill="#3C3489"/><path d="M0,178 C200,164 420,190 640,176 C860,164 1040,188 1200,176 V200 H0 Z" fill="#26215C"/>
</svg>
