<svg xmlns="http://www.w3.org/2000/svg" viewBox="0 0 1200 200" role="img" aria-label="Eine Sandburg mit Türmen, Fahne und Eimer am Strand — Sätze bauen">
<rect width="1200" height="200" fill="#EEEDFE"/>
<path d="M0,126 C200,104 420,128 640,116 C860,104 1040,126 1200,116 V200 H0 Z" fill="#CECBF6"/>
<path d="M0,142 C220,124 460,148 700,138 C920,129 1080,148 1200,140 V200 H0 Z" fill="#AFA9EC"/>
<rect x="428" y="138" width="30" height="14" fill="#534AB7"/>
<rect x="440" y="124" width="30" height="14" fill="#7F77DD"/>
<path d="M496,152 L704,152 L688,120 L512,120 Z" fill="#7F77DD"/>
<rect x="500" y="102" width="26" height="30" fill="#AFA9EC"/>
<rect x="674" y="102" width="26" height="30" fill="#AFA9EC"/>
<g fill="#AFA9EC"><rect x="500" y="96" width="8" height="8"/><rect x="518" y="96" width="8" height="8"/><rect x="674" y="96" width="8" height="8"/><rect x="692" y="96" width="8" height="8"/></g>
<path d="M534,120 L666,120 L654,96 L546,96 Z" fill="#534AB7"/>
<path d="M584,120 L584,106 A16,16 0 0 1 616,106 L616,120 Z" fill="#26215C"/>
<rect x="566" y="64" width="68" height="34" fill="#3C3489"/>
<g fill="#3C3489"><rect x="566" y="56" width="14" height="10"/><rect x="593" y="56" width="14" height="10"/><rect x="620" y="56" width="14" height="10"/></g>
<line x1="600" y1="64" x2="600" y2="38" stroke="#26215C" stroke-width="3" stroke-linecap="round"/>
<path d="M600,40 L630,48 L600,56 Z" fill="#f3c46a"/>
<path d="M720,132 L756,132 L751,152 L725,152 Z" fill="#534AB7"/>
<path d="M722,132 Q738,118 754,132" fill="none" stroke="#3C3489" stroke-width="3"/>
<path d="M0,160 C200,146 420,172 640,158 C860,146 1040,170 1200,158 V200 H0 Z" fill="#3C3489"/>
<path d="M0,183 C240,171 500,193 760,181 C980,171 1110,188 1200,181 V200 H0 Z" fill="#26215C"/>
</svg>
