<svg xmlns="http://www.w3.org/2000/svg" viewBox="0 0 1200 200" role="img" aria-label="Ein Fernrohr auf der Welle zielt auf den goldenen Stern">
<rect width="1200" height="200" fill="#EEEDFE"/>
<path d="M150,150 L290,104 L440,150 Z" fill="#CECBF6"/>
<path d="M300,84 q10,-8 20,0 M334,72 q10,-8 20,0" fill="none" stroke="#534AB7" stroke-width="3" stroke-linecap="round"/>
<g transform="rotate(-24 560 96)">
<rect x="490" y="84" width="110" height="22" rx="6" fill="#26215C"/>
<rect x="596" y="80" width="34" height="30" rx="6" fill="#3C3489"/>
</g>
<g stroke="#26215C" stroke-width="6" stroke-linecap="round">
<line x1="552" y1="106" x2="522" y2="150"/>
<line x1="552" y1="106" x2="582" y2="150"/>
</g>
<path d="M760,30 l7,16 17,2 -12,12 3,17 -15,-8 -15,8 3,-17 -12,-12 17,-2 Z" fill="#f3c46a"/>
<path d="M672,64 L716,48" stroke="#AFA9EC" stroke-width="3" stroke-dasharray="2 10" stroke-linecap="round"/>
<path d="M0,152 C190,142 400,160 620,151 C840,142 1030,158 1200,150 V200 H0 Z" fill="#534AB7"/>
<circle cx="880" cy="162" r="3" fill="#AFA9EC"/>
<path d="M0,172 C220,164 450,182 670,172 C890,164 1060,178 1200,171 V200 H0 Z" fill="#3C3489"/>
<path d="M0,191 C240,186 500,198 760,192 C980,188 1120,196 1200,192 V200 H0 Z" fill="#26215C"/>
</svg>
