<svg xmlns="http://www.w3.org/2000/svg" viewBox="0 0 1200 200" role="img" aria-label="Eine antike Rednerbühne zwischen Säulen unter der goldenen Sonne">
<rect width="1200" height="200" fill="#EEEDFE"/>
<circle cx="600" cy="46" r="24" fill="#f3c46a"/>
<circle cx="600" cy="46" r="34" fill="none" stroke="#f3c46a" stroke-width="2" opacity="0.4"/>
<circle cx="370" cy="42" r="2.5" fill="#AFA9EC"/><circle cx="830" cy="40" r="2.5" fill="#AFA9EC"/>
<path d="M0,150 L150,110 L300,150 Z" fill="#CECBF6"/>
<path d="M980,150 L1110,112 L1200,148 Z" fill="#CECBF6"/>
<g fill="#3C3489">
<rect x="452" y="86" width="20" height="62"/><rect x="446" y="80" width="32" height="8"/><rect x="446" y="146" width="32" height="6"/>
<rect x="728" y="86" width="20" height="62"/><rect x="722" y="80" width="32" height="8"/><rect x="722" y="146" width="32" height="6"/>
</g>
<g fill="#534AB7">
<rect x="548" y="112" width="104" height="34"/>
<rect x="536" y="104" width="128" height="10"/>
<rect x="560" y="146" width="80" height="6"/>
</g>
<path d="M0,150 C190,132 400,162 620,150 C840,134 1030,162 1200,150 V200 H0 Z" fill="#3C3489"/>
<path d="M0,182 C220,168 460,194 700,180 C920,168 1090,190 1200,180 V200 H0 Z" fill="#26215C"/>
</svg>
