<svg xmlns="http://www.w3.org/2000/svg" viewBox="0 0 1200 200" role="img" aria-label="Offenes Buch mit aufgehender goldener Glühbirne — Verständnis"><rect width="1200" height="200" fill="#EEEDFE"/><path d="M470,120 L600,104 L600,124 L470,134 Z" fill="#534AB7"/><path d="M730,120 L600,104 L600,124 L730,134 Z" fill="#3C3489"/><line x1="600" y1="104" x2="600" y2="124" stroke="#26215C" stroke-width="3"/><circle cx="600" cy="60" r="24" fill="#f3c46a"/><rect x="590" y="82" width="20" height="10" rx="2" fill="#3C3489"/><g stroke="#f3c46a" stroke-width="3" stroke-linecap="round" opacity="0.6"><line x1="600" y1="22" x2="600" y2="30"/><line x1="556" y1="40" x2="562" y2="46"/><line x1="644" y1="40" x2="638" y2="46"/></g><path d="M320,90 q10,-8 20,0 M350,78 q10,-8 20,0" fill="none" stroke="#534AB7" stroke-width="3" stroke-linecap="round"/><path d="M0,124 C160,106 320,140 480,124 C640,108 820,142 1000,124 C1090,115 1150,122 1200,118 V200 H0 Z" fill="#534AB7"/><path d="M0,152 C180,134 380,166 600,152 C820,138 1010,168 1200,152 V200 H0 Z" fill="#3C3489"/><path d="M0,178 C220,164 460,190 700,176 C920,164 1080,188 1200,178 V200 H0 Z" fill="#26215C"/></svg>