<svg xmlns="http://www.w3.org/2000/svg" viewBox="0 0 1200 200" role="img" aria-label="Dem großen Zahnrad fehlt ein Zahn — und genau durch diese Lücke bricht das goldene Licht">
<rect width="1200" height="200" fill="#EEEDFE"/>
<path d="M576,38 L500,-8 L700,-8 L624,38 Z" fill="#f3c46a" opacity="0.95"/>
<path d="M150,124 L250,68 L350,124 Z" fill="#CECBF6"/>
<path d="M900,128 L1010,60 L1130,128 Z" fill="#CECBF6"/>
<path d="M262,56 q10,-8 20,0 M292,44 q10,-8 20,0" fill="none" stroke="#AFA9EC" stroke-width="3" stroke-linecap="round"/>
<path d="M484.8,143.4 L495.5,146.4 L491.6,159.3 L481.0,155.7 L474.9,163.7 L481.2,172.9 L469.9,180.2 L464.2,170.7 L454.3,172.9 L453.2,184.0 L439.9,182.3 L441.6,171.3 L432.6,166.7 L424.7,174.5 L415.5,164.6 L423.9,157.3 L420.0,148.0 L408.9,148.9 L408.2,135.4 L419.4,135.2 L422.3,125.5 L413.3,119.1 L421.4,108.4 L430.1,115.3 L438.6,109.9 L435.8,99.1 L448.9,96.1 L451.1,107.0 L461.1,108.3 L465.9,98.2 L477.9,104.4 L472.5,114.1 L479.4,121.5 L489.5,116.9 L494.7,129.3 L484.3,133.4 Z" fill="#7F77DD"/><circle cx="452" cy="140" r="12" fill="#EEEDFE"/>
<path d="M770.0,141.4 L780.0,143.0 L777.4,155.8 L767.6,153.4 L762.2,161.4 L768.1,169.6 L757.2,176.8 L752.0,168.2 L742.6,170.0 L741.0,180.0 L728.2,177.4 L730.6,167.6 L722.6,162.2 L714.4,168.1 L707.2,157.2 L715.8,152.0 L714.0,142.6 L704.0,141.0 L706.6,128.2 L716.4,130.6 L721.8,122.6 L715.9,114.4 L726.8,107.2 L732.0,115.8 L741.4,114.0 L743.0,104.0 L755.8,106.6 L753.4,116.4 L761.4,121.8 L769.6,115.9 L776.8,126.8 L768.2,132.0 Z" fill="#3C3489"/><circle cx="742" cy="142" r="10" fill="#EEEDFE"/>
<path d="M659.4,87.2 L677.5,87.0 L677.5,105.0 L659.4,104.8 L655.8,118.1 L671.6,127.0 L662.6,142.5 L647.0,133.3 L637.3,143.0 L646.5,158.6 L631.0,167.6 L622.1,151.8 L608.8,155.4 L609.0,173.5 L591.0,173.5 L591.2,155.4 L577.9,151.8 L569.0,167.6 L553.5,158.6 L562.7,143.0 L553.0,133.3 L537.4,142.5 L528.4,127.0 L544.2,118.1 L540.6,104.8 L522.5,105.0 L522.5,87.0 L540.6,87.2 L544.2,73.9 L528.4,65.0 L537.4,49.5 L553.0,58.7 L562.7,49.0 L553.5,33.4 L569.0,24.4 L577.9,40.2 L591.2,36.6 L593.1,36.4 L606.9,36.4 L608.8,36.6 L622.1,40.2 L631.0,24.4 L646.5,33.4 L637.3,49.0 L647.0,58.7 L662.6,49.5 L671.6,65.0 L655.8,73.9 Z" fill="#534AB7"/><circle cx="600" cy="96" r="22" fill="#EEEDFE"/>
<path d="M0,154 C200,144 420,170 640,158 C860,146 1040,170 1200,156 V200 H0 Z" fill="#3C3489"/>
<path d="M0,184 C240,174 500,198 760,185 C980,174 1110,192 1200,184 V200 H0 Z" fill="#26215C"/>
</svg>