<svg xmlns="http://www.w3.org/2000/svg" viewBox="0 0 1200 200" role="img" aria-label="Eine Waage über der Welle — die Schale mit dem goldenen Faktum senkt sich">
<rect width="1200" height="200" fill="#EEEDFE"/>
<circle cx="600" cy="34" r="4" fill="#AFA9EC"/>
<line x1="600" y1="150" x2="600" y2="70" stroke="#3C3489" stroke-width="7" stroke-linecap="round"/>
<path d="M588,150 L612,150 L600,138 Z" fill="#3C3489"/>
<line x1="472" y1="86" x2="728" y2="74" stroke="#3C3489" stroke-width="7" stroke-linecap="round"/>
<circle cx="600" cy="70" r="6" fill="#3C3489"/>
<g stroke="#534AB7" stroke-width="2.5">
<line x1="472" y1="86" x2="454" y2="118"/><line x1="472" y1="86" x2="492" y2="118"/>
<line x1="728" y1="74" x2="712" y2="100"/><line x1="728" y1="74" x2="746" y2="100"/>
</g>
<path d="M446,118 Q473,140 500,118 Z" fill="#f3c46a"/>
<circle cx="473" cy="120" r="7" fill="#26215C"/>
<path d="M706,100 Q729,120 752,100 Z" fill="#3C3489"/>
<path d="M0,150 C190,132 400,162 620,150 C840,134 1030,162 1200,150 V200 H0 Z" fill="#534AB7"/>
<path d="M0,180 C220,166 460,192 700,178 C920,166 1090,188 1200,178 V200 H0 Z" fill="#26215C"/>
</svg>
