<svg xmlns="http://www.w3.org/2000/svg" viewBox="0 0 1200 200" role="img" aria-label="Trittsteine führen von einem Ufer zum anderen über das Wasser — ein Wort-Stein fehlt und schwebt golden über seiner Lücke"><rect width="1200" height="200" fill="#EEEDFE"/><path d="M0,110 C160,90 340,120 520,104 C700,88 900,120 1080,104 C1140,99 1180,106 1200,102 V200 H0 Z" fill="#CECBF6"/>
<path d="M0,120 C90,108 170,124 210,150 L0,200 Z" fill="#7F77DD"/><path d="M1200,120 C1110,108 1030,124 990,150 L1200,200 Z" fill="#7F77DD"/><g fill="#534AB7"><rect x="250" y="120" width="70" height="20" rx="6"/><rect x="360" y="112" width="80" height="20" rx="6"/><rect x="600" y="112" width="80" height="20" rx="6"/><rect x="710" y="120" width="70" height="20" rx="6"/><rect x="820" y="126" width="70" height="20" rx="6"/></g><rect x="480" y="112" width="80" height="20" rx="6" fill="none" stroke="#AFA9EC" stroke-width="2" stroke-dasharray="5 5"/><rect x="482" y="80" width="76" height="20" rx="6" fill="#f3c46a"/><circle cx="520" cy="106" r="2.5" fill="#26215C"/><path d="M0,150 C190,132 400,164 620,150 C840,136 1020,166 1200,150 V200 H0 Z" fill="#3C3489"/>
<path d="M0,180 C240,166 480,192 720,178 C940,166 1090,188 1200,178 V200 H0 Z" fill="#26215C"/>
</svg>