<svg xmlns="http://www.w3.org/2000/svg" viewBox="0 0 1200 200" role="img" aria-label="Ein Papierboot aus einem beschriebenen Blatt zieht seine Spur zur goldenen Laterne des Leuchtturms — die Beschwerde wird gehoert">
<rect width="1200" height="200" fill="#EEEDFE"/>
<path d="M1030,124 L1042,60 L1058,60 L1070,124 Z" fill="#3C3489"/>
<rect x="1038" y="86" width="24" height="8" fill="#7F77DD"/>
<circle cx="1050" cy="54" r="9" fill="#f3c46a"/>
<path d="M1059,54 L1120,40 M1059,54 L1120,68" stroke="#f3c46a" stroke-width="2" opacity="0.55" stroke-linecap="round"/>
<path d="M360,116 L480,116 L466,132 L374,132 Z" fill="#7F77DD"/>
<path d="M420,116 L420,90 L462,116 Z" fill="#534AB7"/>
<path d="M420,116 L420,92 L382,116 Z" fill="#AFA9EC"/>
<path d="M0,150 C120,146 240,150 360,140 C420,135 470,132 480,132" fill="none" stroke="#3C3489" stroke-width="2" opacity="0.6"/>
<path d="M0,132 C170,120 360,140 540,130 C740,119 940,136 1200,128 V200 H0 Z" fill="#534AB7"/>
<path d="M0,158 C210,146 470,176 720,162 C940,150 1090,172 1200,162 V200 H0 Z" fill="#3C3489"/>
<path d="M0,150 C190,132 400,164 620,150 C840,136 1020,164 1200,150 V200 H0 Z" fill="#3C3489"/>
<path d="M0,180 C240,166 480,192 720,178 C940,166 1090,188 1200,178 V200 H0 Z" fill="#26215C"/>
</svg>
