<svg xmlns="http://www.w3.org/2000/svg" viewBox="0 0 1200 200" role="img" aria-label="Ein Spielfeldpfad windet sich über die Welle — auf der Kuppe liegt ein goldener Würfel, davor eine Spielfigur">
<rect width="1200" height="200" fill="#EEEDFE"/>
<g fill="#AFA9EC">
<rect x="300" y="120" width="22" height="22" rx="4"/><rect x="336" y="110" width="22" height="22" rx="4"/><rect x="372" y="98" width="22" height="22" rx="4"/>
<rect x="408" y="86" width="22" height="22" rx="4"/><rect x="452" y="78" width="22" height="22" rx="4"/><rect x="496" y="74" width="22" height="22" rx="4"/>
<rect x="700" y="74" width="22" height="22" rx="4" fill="#7F77DD"/><rect x="744" y="80" width="22" height="22" rx="4" fill="#7F77DD"/>
<rect x="786" y="92" width="22" height="22" rx="4" fill="#7F77DD"/><rect x="822" y="104" width="22" height="22" rx="4" fill="#7F77DD"/><rect x="858" y="116" width="22" height="22" rx="4" fill="#7F77DD"/>
</g>
<g fill="#534AB7"><rect x="540" y="72" width="22" height="22" rx="4"/><rect x="636" y="72" width="22" height="22" rx="4"/></g>
<g transform="translate(586,44)">
<path d="M0,10 L18,0 L36,10 L36,34 L18,44 L0,34 Z" fill="#f3c46a"/>
<path d="M0,10 L18,20 L36,10 L18,0 Z" fill="#f7d488"/>
<path d="M18,20 L36,10 L36,34 L18,44 Z" fill="#e0a94a"/>
<circle cx="12" cy="15" r="2.2" fill="#26215C"/><circle cx="24" cy="15" r="2.2" fill="#26215C"/>
<circle cx="27" cy="24" r="2" fill="#3C3489"/><circle cx="31" cy="30" r="2" fill="#3C3489"/>
<circle cx="7" cy="24" r="2" fill="#26215C"/><circle cx="11" cy="30" r="2" fill="#26215C"/><circle cx="9" cy="27" r="2" fill="#26215C"/>
</g>
<path d="M500,96 q6,-10 18,-10 q-2,10 -6,14 q-8,4 -12,-4 z" fill="#3C3489"/><circle cx="512" cy="80" r="5" fill="#3C3489"/>
<path d="M0,150 C200,134 420,166 640,152 C860,138 1040,166 1200,152 V200 H0 Z" fill="#3C3489"/>
<path d="M0,180 C240,166 500,192 760,180 C980,168 1110,188 1200,180 V200 H0 Z" fill="#26215C"/>
</svg>