<svg xmlns="http://www.w3.org/2000/svg" viewBox="0 0 1200 200" role="img" aria-label="Zwei Küsten stehen einander gegenüber — ihre Wellen prallen in der Mitte zusammen und werfen eine Gischtkrone mit goldenem Tropfen empor">
<rect width="1200" height="200" fill="#EEEDFE"/>
<path d="M110,130 L260,58 L410,130 Z" fill="#CECBF6"/>
<path d="M790,130 L940,50 L1090,130 Z" fill="#CECBF6"/>
<path d="M182,32 h120 a13,13 0 0 1 13,13 v26 a13,13 0 0 1 -13,13 h-14 l6,22 -30,-22 h-82 a13,13 0 0 1 -13,-13 v-26 a13,13 0 0 1 13,-13 Z" fill="#7F77DD"/>
<path d="M900,24 h120 a13,13 0 0 1 13,13 v26 a13,13 0 0 1 -13,13 h-82 l-30,22 6,-22 h-14 a13,13 0 0 1 -13,-13 v-26 a13,13 0 0 1 13,-13 Z" fill="#534AB7"/>
<path d="M498,52 q10,-8 20,0 M528,40 q10,-8 20,0" fill="none" stroke="#AFA9EC" stroke-width="3" stroke-linecap="round"/>
<path d="M0,132 C160,116 320,144 470,136 C530,132 570,124 600,112 C630,124 670,132 730,136 C880,144 1040,116 1200,132 V200 H0 Z" fill="#AFA9EC"/>
<path d="M0,152 C130,142 290,166 420,154 C500,146 560,128 600,108 C640,128 700,146 780,154 C910,166 1070,142 1200,152 V200 H0 Z" fill="#7F77DD"/>
<path d="M0,172 C120,164 250,184 380,174 C470,167 545,146 600,104 C655,146 730,167 820,174 C950,184 1080,164 1200,172 V200 H0 Z" fill="#534AB7"/>
<path d="M0,188 C150,182 320,196 480,190 C540,188 570,178 600,158 C630,178 660,188 720,190 C880,196 1050,182 1200,188 V200 H0 Z" fill="#3C3489"/>
<path d="M0,196 C300,190 500,200 700,196 C900,192 1050,198 1200,194 V200 H0 Z" fill="#26215C"/>
<circle cx="600" cy="62" r="9" fill="#f3c46a"/>
<circle cx="566" cy="82" r="5" fill="#CECBF6"/>
<circle cx="634" cy="78" r="4.5" fill="#CECBF6"/>
<circle cx="586" cy="94" r="3.5" fill="#AFA9EC"/>
<circle cx="618" cy="98" r="3" fill="#AFA9EC"/>
</svg>
