<svg xmlns="http://www.w3.org/2000/svg" viewBox="0 0 1200 200" role="img" aria-label="Ein Filmstreifen schwingt als Welle durchs Bild — eine Folge leuchtet golden und wartet aufs Abspielen">
<rect width="1200" height="200" fill="#EEEDFE"/>
<path d="M930,42 q10,-8 20,0 M962,32 q10,-8 20,0 M210,54 q9,-7 18,0" fill="none" stroke="#534AB7" stroke-width="3" stroke-linecap="round"/>
<path d="M0,112 C220,100 480,122 720,110 C920,101 1080,116 1200,108 V200 H0 Z" fill="#CECBF6"/>
<path d="M0,136 C260,124 520,146 780,134 C980,126 1110,140 1200,132 V200 H0 Z" fill="#AFA9EC"/>
<path d="M0,158 C240,146 500,168 760,156 C980,147 1110,162 1200,154 V200 H0 Z" fill="#534AB7"/>
<path d="M0,120 C300,86 600,138 900,104 C1020,92 1120,102 1200,98 L1200,172 C1120,176 1020,166 900,178 C600,212 300,160 0,194 Z" fill="#3C3489"/>
<path d="M0,131 C300,97 600,149 900,115 C1020,103 1120,113 1200,109" fill="none" stroke="#EEEDFE" stroke-width="8" stroke-dasharray="11 26" stroke-linecap="butt"/>
<path d="M0,183 C300,149 600,201 900,167 C1020,155 1120,165 1200,161" fill="none" stroke="#EEEDFE" stroke-width="8" stroke-dasharray="11 26" stroke-linecap="butt"/>
<line x1="180" y1="118" x2="180" y2="164" stroke="#26215C" stroke-width="7"/>
<line x1="330" y1="112" x2="330" y2="158" stroke="#26215C" stroke-width="7"/>
<line x1="480" y1="122" x2="480" y2="168" stroke="#26215C" stroke-width="7"/>
<line x1="630" y1="128" x2="630" y2="174" stroke="#26215C" stroke-width="7"/>
<line x1="900" y1="122" x2="900" y2="168" stroke="#26215C" stroke-width="7"/>
<line x1="1050" y1="114" x2="1050" y2="160" stroke="#26215C" stroke-width="7"/>
<g transform="translate(765,143) rotate(-4)">
<rect x="-58" y="-19" width="116" height="38" rx="4" fill="#f3c46a"/>
<path d="M-9,-11 L14,0 L-9,11 Z" fill="#26215C"/>
</g>
<path d="M0,192 C280,182 560,200 820,192 C1030,186 1150,196 1200,192 V200 H0 Z" fill="#26215C"/>
</svg>
