<svg xmlns="http://www.w3.org/2000/svg" viewBox="0 0 1200 200" role="img" aria-label="Der Weg steigt über die Hügel zum goldenen Stern des Höhepunkts und fällt wieder ab — der Bogen einer Geschichte">
<rect width="1200" height="200" fill="#EEEDFE"/>
<path d="M652,26 L658,44 L676,44 L662,55 L668,73 L652,62 L636,73 L642,55 L628,44 L646,44 Z" fill="#f3c46a"/>
<path d="M0,150 L180,140 C260,134 330,118 396,110 C470,100 540,80 600,62 C630,54 646,50 652,48 C670,56 700,74 740,92 C800,118 880,134 960,142 L1200,152 V200 H0 Z" fill="#7F77DD"/>
<g fill="none" stroke="#CECBF6" stroke-width="7" stroke-linecap="round" stroke-dasharray="1 18">
<path d="M210,142 C300,132 380,116 450,102 C520,88 580,70 646,52"/>
<path d="M660,52 C700,66 740,84 790,102 C840,118 900,132 950,140"/>
</g>
<circle cx="330" cy="124" r="6" fill="#26215C"/>
<circle cx="500,88" r="0" fill="none"/>
<circle cx="500" cy="90" r="6" fill="#26215C"/>
<circle cx="820" cy="110" r="6" fill="#26215C"/>
<path d="M900,56 q10,-8 20,0 M932,44 q10,-8 20,0" fill="none" stroke="#534AB7" stroke-width="3" stroke-linecap="round"/>
<path d="M0,162 C220,150 470,172 700,162 C920,152 1080,170 1200,162 V200 H0 Z" fill="#534AB7"/>
<path d="M0,177 C240,167 500,187 760,177 C980,167 1110,185 1200,176 V200 H0 Z" fill="#3C3489"/>
<path d="M0,191 C240,185 500,199 760,191 C980,185 1110,197 1200,190 V200 H0 Z" fill="#26215C"/>
</svg>
