<svg xmlns="http://www.w3.org/2000/svg" viewBox="0 0 1200 200" role="img" aria-label="Ein großes offenes Buch auf dem Hügel, aus dem kleine Schildchen aufsteigen, unter der goldenen Sonne">
<rect width="1200" height="200" fill="#EEEDFE"/>
<circle cx="880" cy="50" r="25" fill="#f3c46a"/>
<circle cx="880" cy="50" r="36" fill="none" stroke="#f3c46a" stroke-width="2" opacity="0.42"/>
<path d="M150,124 L300,84 L450,124 Z" fill="#CECBF6"/>
<path d="M760,124 L900,88 L1040,124 Z" fill="#CECBF6"/>
<path d="M0,130 C180,110 360,140 540,124 C720,108 900,138 1080,124 C1130,120 1170,126 1200,122 V200 H0 Z" fill="#AFA9EC"/>
<g fill="#7F77DD">
<rect x="470" y="88" width="26" height="19" rx="3" transform="rotate(-12 483 97)"/>
<rect x="560" y="72" width="26" height="19" rx="3" transform="rotate(-3 573 81)"/>
<rect x="650" y="80" width="26" height="19" rx="3" transform="rotate(8 663 89)"/>
</g>
<g transform="translate(600,132)">
<path d="M-90,0 C-60,-16 -20,-16 0,-6 C20,-16 60,-16 90,0 L90,8 C60,-8 20,-8 0,2 C-20,-8 -60,-8 -90,8 Z" fill="#534AB7"/>
<path d="M0,-6 L0,2" stroke="#26215C" stroke-width="3"/>
<path d="M-84,4 L-84,44 C-56,30 -22,30 0,40 C22,30 56,30 84,44 L84,4" fill="#3C3489"/>
<path d="M0,2 L0,40" stroke="#26215C" stroke-width="2.5"/>
</g>
<path d="M0,158 C220,140 460,172 700,158 C920,145 1090,172 1200,158 V200 H0 Z" fill="#3C3489"/>
<path d="M0,182 C240,170 500,194 760,183 C980,172 1110,190 1200,182 V200 H0 Z" fill="#26215C"/>
</svg>
