<svg xmlns="http://www.w3.org/2000/svg" viewBox="0 0 1200 200" role="img" aria-label="Ein Datenkabel über den Wellen ist durchtrennt — der goldene Stecker schwebt über der Lücke">
<rect width="1200" height="200" fill="#EEEDFE"/>
<path d="M0,52 C210,26 400,72 580,58 C760,44 920,74 1200,46" fill="none" stroke="#CECBF6" stroke-width="6" stroke-linecap="round"/>
<path d="M0,80 C210,54 400,100 580,86 C760,72 920,102 1200,74" fill="none" stroke="#AFA9EC" stroke-width="7" stroke-linecap="round"/>
<path d="M0,110 C150,86 330,122 500,116" fill="none" stroke="#26215C" stroke-width="11" stroke-linecap="round"/>
<path d="M700,116 C840,110 960,128 1200,104" fill="none" stroke="#26215C" stroke-width="11" stroke-linecap="round"/>
<rect x="486" y="106" width="16" height="20" rx="3" fill="#26215C"/>
<rect x="698" y="106" width="16" height="20" rx="3" fill="#26215C"/>
<g transform="translate(600,64) rotate(-5)">
  <rect x="-40" y="-13" width="80" height="26" rx="5" fill="#f3c46a"/>
  <rect x="-52" y="-6" width="14" height="12" rx="2" fill="#f3c46a"/>
  <rect x="38" y="-6" width="14" height="12" rx="2" fill="#f3c46a"/>
</g>
<line x1="600" y1="82" x2="600" y2="106" stroke="#AFA9EC" stroke-width="2" stroke-dasharray="4 6"/>
<path d="M300,42 q10,-8 20,0 M330,32 q10,-8 20,0" fill="none" stroke="#AFA9EC" stroke-width="3" stroke-linecap="round"/>
<path d="M0,138 C200,116 380,154 560,142 C740,130 900,158 1200,132 V200 H0 Z" fill="#7F77DD"/>
<path d="M0,164 C220,148 460,178 700,164 C900,152 1060,176 1200,162 V200 H0 Z" fill="#3C3489"/>
<path d="M0,188 C240,176 500,199 760,186 C980,175 1110,193 1200,186 V200 H0 Z" fill="#26215C"/>
<circle cx="250" cy="152" r="3.5" fill="#EEEDFE" opacity="0.55"/>
<circle cx="1000" cy="148" r="3" fill="#EEEDFE" opacity="0.5"/>
</svg>
