<svg xmlns="http://www.w3.org/2000/svg" viewBox="0 0 1200 200" role="img" aria-label="Ein Weg gabelt sich zu drei Schulen auf den Hügeln — ein Fenster leuchtet golden">
<rect width="1200" height="200" fill="#EEEDFE"/>
<path d="M0,118 C220,98 460,126 700,110 C920,98 1080,122 1200,110 V200 H0 Z" fill="#AFA9EC"/>
<g fill="#3C3489">
<path d="M226,110 L226,66 L306,66 L306,110 Z M216,68 L266,40 L316,68 Z"/>
</g>
<g fill="#26215C">
<path d="M552,108 L552,50 L656,50 L656,108 Z M542,52 L604,20 L666,52 Z"/>
<rect x="596" y="8" width="16" height="16"/>
<path d="M591,10 L604,-2 L617,10 Z"/>
</g>
<rect x="572" y="66" width="16" height="22" fill="#f3c46a"/>
<g fill="#3C3489">
<path d="M896,110 L896,64 L980,64 L980,110 Z M886,66 L938,38 L990,66 Z"/>
</g>
<path d="M0,142 C200,130 430,152 660,142 C880,132 1060,152 1200,142 V200 H0 Z" fill="#534AB7"/>
<g fill="none" stroke="#CECBF6" stroke-width="10" stroke-linecap="round">
<path d="M604,196 C602,178 602,166 602,156"/>
<path d="M602,156 C560,138 420,124 266,112"/>
<path d="M602,156 C604,136 604,124 604,110"/>
<path d="M602,156 C650,138 790,124 938,112"/>
</g>
<path d="M380,40 q10,-8 20,0 M410,28 q10,-8 20,0" fill="none" stroke="#534AB7" stroke-width="3" stroke-linecap="round"/>
<path d="M0,170 C240,160 500,182 760,170 C980,160 1110,178 1200,169 V200 H0 Z" fill="#3C3489"/>
<path d="M0,190 C240,182 500,199 760,190 C980,182 1110,196 1200,189 V200 H0 Z" fill="#26215C"/>
</svg>
