<svg xmlns="http://www.w3.org/2000/svg" viewBox="0 0 1200 200" role="img" aria-label="Eine Schranke über der Welle hebt sich — das goldene Licht gibt die Erlaubnis frei">
<rect width="1200" height="200" fill="#EEEDFE"/>
<rect x="556" y="60" width="14" height="84" rx="3" fill="#3C3489"/>
<rect x="540" y="140" width="46" height="10" rx="2" fill="#26215C"/>
<g transform="translate(570,70) rotate(-38)">
<rect x="0" y="-9" width="150" height="18" rx="6" fill="#534AB7"/>
<rect x="12" y="-9" width="26" height="18" fill="#EEEDFE" opacity="0.85"/>
<rect x="62" y="-9" width="26" height="18" fill="#EEEDFE" opacity="0.85"/>
<rect x="112" y="-9" width="26" height="18" fill="#EEEDFE" opacity="0.85"/>
</g>
<circle cx="563" cy="52" r="10" fill="#f3c46a"/>
<circle cx="563" cy="52" r="17" fill="none" stroke="#f3c46a" stroke-width="2" opacity="0.4"/>
<path d="M300,92 q10,-8 20,0 M330,80 q10,-8 20,0" fill="none" stroke="#534AB7" stroke-width="3" stroke-linecap="round"/>
<path d="M0,120 C160,104 320,132 480,120 C560,114 620,120 700,118 C860,114 1030,134 1200,120 V200 H0 Z" fill="#7F77DD"/>
<path d="M0,150 C190,134 400,164 620,150 C840,136 1020,166 1200,150 V200 H0 Z" fill="#3C3489"/>
<path d="M0,180 C240,166 500,192 760,180 C980,168 1110,188 1200,180 V200 H0 Z" fill="#26215C"/>
</svg>