<svg xmlns="http://www.w3.org/2000/svg" viewBox="0 0 1200 200" role="img" aria-label="E-Sport-Arena: die Ränge staffeln sich wie Wellen um die Bühne, die große Leinwand leuchtet golden">
<rect width="1200" height="200" fill="#EEEDFE"/>
<path d="M180,0 L340,0 L566,116 L480,116 Z" fill="#CECBF6" opacity="0.6"/>
<path d="M1020,0 L860,0 L634,116 L720,116 Z" fill="#CECBF6" opacity="0.6"/>
<path d="M120,64 q10,-8 20,0 M150,52 q10,-8 20,0" fill="none" stroke="#AFA9EC" stroke-width="3" stroke-linecap="round"/>
<rect x="512" y="26" width="176" height="92" rx="6" fill="#26215C"/>
<rect x="524" y="38" width="152" height="68" rx="3" fill="#f3c46a"/>
<rect x="590" y="118" width="20" height="16" fill="#26215C"/>
<rect x="556" y="132" width="88" height="9" rx="3" fill="#26215C"/>
<path d="M150,178 L150,160 L230,160 L230,144 L310,144 L310,128 L390,128 L390,114 L470,114 L470,178 Z" fill="#7F77DD"/>
<path d="M1050,178 L1050,160 L970,160 L970,144 L890,144 L890,128 L810,128 L810,114 L730,114 L730,178 Z" fill="#7F77DD"/>
<g fill="#534AB7">
<rect x="164" y="166" width="54" height="7" rx="3"/><rect x="244" y="150" width="54" height="7" rx="3"/>
<rect x="324" y="134" width="54" height="7" rx="3"/><rect x="404" y="120" width="54" height="7" rx="3"/>
<rect x="982" y="166" width="54" height="7" rx="3"/><rect x="902" y="150" width="54" height="7" rx="3"/>
<rect x="822" y="134" width="54" height="7" rx="3"/><rect x="742" y="120" width="54" height="7" rx="3"/>
</g>
<rect x="470" y="141" width="260" height="37" fill="#3C3489"/>
<path d="M0,168 C60,158 100,156 150,158 L150,200 L0,200 Z" fill="#534AB7"/>
<path d="M1200,168 C1140,158 1100,156 1050,158 L1050,200 L1200,200 Z" fill="#534AB7"/>
<path d="M0,180 C200,168 420,190 640,180 C860,170 1040,190 1200,180 V200 H0 Z" fill="#3C3489"/>
<path d="M0,194 C260,186 520,200 780,192 C980,186 1100,196 1200,192 V200 H0 Z" fill="#26215C"/>
</svg>
