<svg xmlns="http://www.w3.org/2000/svg" viewBox="0 0 1200 200" role="img" aria-label="Die Straße teilt sich vor dem Felsen und führt beidseitig um ihn herum weiter — obwohl das Hindernis im Weg steht, geht der Pfad unter der goldenen Sonne voran">
<rect width="1200" height="200" fill="#EEEDFE"/>
<circle cx="300" cy="52" r="26" fill="#f3c46a"/>
<circle cx="300" cy="52" r="37" fill="none" stroke="#f3c46a" stroke-width="2" opacity="0.45"/>
<path d="M0,132 C220,96 460,132 700,116 C900,103 1050,124 1200,116 V200 H0 Z" fill="#CECBF6"/>
<path d="M150,178 C330,150 470,140 590,124" fill="none" stroke="#3C3489" stroke-width="8" stroke-linecap="round"/>
<path d="M590,124 C620,116 636,104 662,104 C700,104 712,118 748,120" fill="none" stroke="#3C3489" stroke-width="8" stroke-linecap="round"/>
<path d="M590,124 C620,132 636,142 668,142 C704,142 720,126 748,120" fill="none" stroke="#3C3489" stroke-width="8" stroke-linecap="round"/>
<path d="M748,120 C840,112 960,126 1080,116" fill="none" stroke="#3C3489" stroke-width="8" stroke-linecap="round"/>
<path d="M636,128 a30,24 0 1 0 60,0 a30,24 0 0 0 -60,0 Z" fill="#534AB7"/>
<path d="M648,120 a10,8 0 0 0 16,0" fill="none" stroke="#7F77DD" stroke-width="3"/>
<path d="M470,70 q10,-8 20,0 M500,60 q10,-8 20,0" fill="none" stroke="#534AB7" stroke-width="3" stroke-linecap="round"/>
<path d="M0,134 C170,112 340,142 520,130 C700,118 900,144 1200,128 V200 H0 Z" fill="#7F77DD"/>
<path d="M0,158 C190,140 400,170 620,156 C840,142 1020,172 1200,156 V200 H0 Z" fill="#3C3489"/>
<path d="M0,184 C240,170 480,196 720,182 C940,170 1090,192 1200,182 V200 H0 Z" fill="#26215C"/>
</svg>
