<svg xmlns="http://www.w3.org/2000/svg" viewBox="0 0 1200 200" role="img" aria-label="Sprechblasen wechseln sich ab wie die Zeilen eines Skripts — die goldene gibt die Antwort">
<rect width="1200" height="200" fill="#EEEDFE"/>
<path d="M960,42 q10,-8 20,0 M994,30 q10,-8 20,0" fill="none" stroke="#534AB7" stroke-width="3" stroke-linecap="round"/>
<g fill="#3C3489">
<rect x="330" y="26" width="96" height="40" rx="13"/>
<path d="M352,62 l-7,17 l21,-13 Z"/>
</g>
<g fill="#26215C">
<rect x="470" y="62" width="96" height="40" rx="13"/>
<path d="M544,98 l7,17 l-21,-13 Z"/>
</g>
<g fill="#3C3489">
<rect x="610" y="26" width="96" height="40" rx="13"/>
<path d="M632,62 l-7,17 l21,-13 Z"/>
</g>
<g fill="#f3c46a">
<rect x="750" y="62" width="100" height="42" rx="14"/>
<path d="M826,100 l7,18 l-22,-14 Z"/>
</g>
<g stroke="#EEEDFE" stroke-width="3.5" stroke-linecap="round">
<path d="M352,40 h52 M352,52 h34"/>
<path d="M492,76 h52 M492,88 h34"/>
<path d="M632,40 h52 M632,52 h34"/>
</g>
<g stroke="#26215C" stroke-width="3.5" stroke-linecap="round">
<path d="M772,78 h56 M772,90 h36"/>
</g>
<path d="M0,140 C220,130 480,150 740,141 C960,133 1110,145 1200,139 V200 H0 Z" fill="#7F77DD"/>
<path d="M0,164 C240,154 500,174 760,165 C980,158 1120,168 1200,163 V200 H0 Z" fill="#3C3489"/>
<path d="M0,186 C260,180 520,194 780,188 C1000,183 1120,192 1200,189 V200 H0 Z" fill="#26215C"/>
</svg>
