<svg xmlns="http://www.w3.org/2000/svg" viewBox="0 0 1200 200" role="img" aria-label="Eine Sprühdose sprüht die vorderste Welle — Straßenkunst">
<rect width="1200" height="200" fill="#EEEDFE"/>
<path d="M710,150 L860,98 L1020,150 Z" fill="#CECBF6"/>
<path d="M880,54 q10,-8 20,0 M912,42 q10,-8 20,0" fill="none" stroke="#534AB7" stroke-width="3" stroke-linecap="round"/>
<g transform="rotate(24 640 74)">
<rect x="612" y="46" width="56" height="82" rx="7" fill="#26215C"/>
<rect x="612" y="62" width="56" height="12" fill="#3C3489"/>
<rect x="626" y="30" width="28" height="16" rx="3" fill="#3C3489"/>
<rect x="632" y="22" width="10" height="10" rx="2" fill="#f3c46a"/>
</g>
<g fill="#7F77DD">
<circle cx="588" cy="86" r="3"/><circle cx="566" cy="98" r="4"/><circle cx="544" cy="112" r="5"/>
<circle cx="562" cy="120" r="3"/><circle cx="520" cy="126" r="6"/><circle cx="540" cy="132" r="4"/>
</g>
<path d="M0,146 C160,138 320,150 470,140 Q500,136 520,140 C700,156 1000,138 1200,146 V200 H0 Z" fill="#534AB7"/>
<path d="M60,146 C180,140 320,148 460,141" fill="none" stroke="#AFA9EC" stroke-width="4" stroke-linecap="round" stroke-dasharray="2 14"/>
<path d="M0,170 C220,162 450,180 670,170 C890,162 1060,176 1200,169 V200 H0 Z" fill="#3C3489"/>
<path d="M0,191 C240,186 500,198 760,192 C980,188 1120,196 1200,192 V200 H0 Z" fill="#26215C"/>
</svg>
