<svg xmlns="http://www.w3.org/2000/svg" viewBox="0 0 1200 200" role="img" aria-label="Zwei Sprechblasen wölben sich zur Brücke zwischen zwei Ufern — der goldene Bogen in der Mitte verbindet">
<rect width="1200" height="200" fill="#EEEDFE"/>
<path d="M0,120 C80,116 150,120 210,128 L210,200 L0,200 Z" fill="#7F77DD"/>
<path d="M990,128 C1050,120 1120,116 1200,120 L1200,200 L990,200 Z" fill="#7F77DD"/>
<path d="M210,124 Q600,20 990,124" fill="none" stroke="#534AB7" stroke-width="6"/>
<g fill="#AFA9EC"><path d="M330,86 a26,20 0 1 0 0.1,0 Z M340,104 l-10,14 l22,-8 Z"/><path d="M840,86 a26,20 0 1 0 0.1,0 Z M850,104 l-10,14 l22,-8 Z"/></g>
<path d="M600,58 a28,22 0 1 0 0.1,0 Z" fill="#f3c46a"/>
<path d="M600,80 l-10,16 l22,-10 Z" fill="#f3c46a"/>
<path d="M0,148 C190,130 400,162 620,148 C840,134 1020,164 1200,148 V200 H0 Z" fill="#3C3489"/>
<path d="M0,180 C240,166 480,192 720,178 C940,166 1090,188 1200,178 V200 H0 Z" fill="#26215C"/>
</svg>
