<svg xmlns="http://www.w3.org/2000/svg" viewBox="0 0 1200 200" role="img" aria-label="Eine Plakatwand über der Welle — das goldene Plakat ist frisch geklebt">
<rect width="1200" height="200" fill="#EEEDFE"/>
<path d="M160,150 L300,104 L450,150 Z" fill="#CECBF6"/>
<path d="M240,80 q10,-8 20,0 M274,68 q10,-8 20,0" fill="none" stroke="#534AB7" stroke-width="3" stroke-linecap="round"/>
<g>
<rect x="530" y="118" width="9" height="34" fill="#26215C"/>
<rect x="682" y="118" width="9" height="34" fill="#26215C"/>
<rect x="500" y="34" width="220" height="90" rx="6" fill="#3C3489"/>
<rect x="514" y="46" width="120" height="66" rx="3" fill="#f3c46a"/>
<path d="M514,112 L534,112 L514,92 Z" fill="#CECBF6"/>
<rect x="646" y="46" width="60" height="66" rx="3" fill="#CECBF6"/>
<line x1="646" y1="76" x2="706" y2="76" stroke="#AFA9EC" stroke-width="5"/>
</g>
<path d="M0,152 C190,142 400,160 620,151 C840,142 1030,158 1200,150 V200 H0 Z" fill="#534AB7"/>
<circle cx="900" cy="162" r="3" fill="#AFA9EC"/>
<path d="M0,172 C220,164 450,182 670,172 C890,164 1060,178 1200,171 V200 H0 Z" fill="#3C3489"/>
<path d="M0,191 C240,186 500,198 760,192 C980,188 1120,196 1200,192 V200 H0 Z" fill="#26215C"/>
</svg>
