<svg xmlns="http://www.w3.org/2000/svg" viewBox="0 0 1200 200" role="img" aria-label="Zwei goldene Anführungszeichen steigen aus der Welle — die vorbildliche Stellungnahme">
<rect width="1200" height="200" fill="#EEEDFE"/>
<path d="M700,124 L860,54 L1010,124 Z" fill="#AFA9EC"/>
<path d="M300,124 L440,74 L580,124 Z" fill="#CECBF6"/>
<g fill="#f3c46a">
<path d="M560,72 q-22,10 -22,34 q0,20 18,20 q14,0 14,-14 q0,-12 -12,-13 q0,-14 14,-22 Z"/>
<path d="M612,72 q-22,10 -22,34 q0,20 18,20 q14,0 14,-14 q0,-12 -12,-13 q0,-14 14,-22 Z"/></g>
<path d="M470,60 q10,-8 20,0 M900,44 q10,-8 20,0" fill="none" stroke="#534AB7" stroke-width="3" stroke-linecap="round"/>
<path d="M0,126 C150,104 320,140 500,124 C640,112 760,138 900,124 C1030,111 1120,128 1200,120 V200 H0 Z" fill="#534AB7"/>
<path d="M0,154 C220,138 440,170 700,156 C920,144 1080,168 1200,158 V200 H0 Z" fill="#3C3489"/>
<path d="M0,182 C240,170 500,192 760,180 C980,170 1110,188 1200,180 V200 H0 Z" fill="#26215C"/>
</svg>
