<svg xmlns="http://www.w3.org/2000/svg" viewBox="0 0 1200 200" role="img" aria-label="Eine Vogelfamilie sitzt auf dem Ast neben dem Nest mit dem goldenen Ei">
<rect width="1200" height="200" fill="#EEEDFE"/>
<path d="M0,124 C160,110 340,132 520,120 C740,106 980,134 1200,118 V200 H0 Z" fill="#CECBF6"/>
<path d="M950,50 q10,-9 20,0 M974,50 q10,-9 20,0" stroke="#7F77DD" stroke-width="4" fill="none" stroke-linecap="round"/>
<path d="M1010,78 q8,-7 16,0 M1030,78 q8,-7 16,0" stroke="#AFA9EC" stroke-width="3.5" fill="none" stroke-linecap="round"/>
<g fill="#3C3489">
<rect x="408" y="80" width="22" height="82" rx="7"/>
<path d="M419,96 q-16,10 -34,6" stroke="#3C3489" stroke-width="10" fill="none" stroke-linecap="round"/>
<circle cx="419" cy="52" r="34"/>
<circle cx="378" cy="66" r="26"/>
<circle cx="462" cy="64" r="27"/>
<circle cx="400" cy="30" r="22"/>
<circle cx="446" cy="34" r="20"/>
<path d="M424,102 q90,26 200,22 q100,-4 176,-22 l4,10 q-80,20 -180,22 q-116,2 -204,-22 Z"/>
</g>
<path d="M566,110 q4,16 24,16 q20,0 24,-16 q-12,4 -24,4 q-12,0 -24,-4 Z" fill="#534AB7"/>
<ellipse cx="590" cy="104" rx="11" ry="13" fill="#f3c46a"/>
<g fill="#26215C">
<ellipse cx="668" cy="112" rx="15" ry="11"/><circle cx="681" cy="99" r="8"/><path d="M688,96 l11,3 -11,4 Z"/><path d="M654,108 l-12,-6 4,10 Z"/>
<ellipse cx="722" cy="116" rx="11" ry="8.5"/><circle cx="732" cy="106" r="6.5"/><path d="M738,104 l9,2.5 -9,3 Z"/><path d="M712,113 l-10,-5 3,8 Z"/>
<ellipse cx="762" cy="119" rx="8.5" ry="7"/><circle cx="770" cy="111" r="5.5"/><path d="M775,109.5 l7.5,2 -7.5,2.5 Z"/><path d="M754,117 l-8,-4 2.5,6.5 Z"/>
</g>
<path d="M0,156 C200,142 420,168 640,156 C860,144 1040,170 1200,156 V200 H0 Z" fill="#534AB7"/>
<path d="M0,182 C240,170 480,194 720,182 C940,172 1090,192 1200,184 V200 H0 Z" fill="#26215C"/>
</svg>
