<svg xmlns="http://www.w3.org/2000/svg" viewBox="0 0 1200 200" role="img" aria-label="Zwei Blocktürme auf der Welle — dem kleineren fehlt genau ein Stein; der goldene macht ihn so hoch wie den anderen">
<rect width="1200" height="200" fill="#EEEDFE"/>
<path d="M190,60 q10,-8 20,0 M220,48 q10,-8 20,0" fill="none" stroke="#AFA9EC" stroke-width="3" stroke-linecap="round"/>
<line x1="400" y1="44" x2="1020" y2="44" stroke="#AFA9EC" stroke-width="3" stroke-dasharray="10 9"/>
<g>
<rect x="418" y="122" width="122" height="28" rx="3" fill="#26215C"/>
<rect x="428" y="88" width="102" height="28" rx="3" fill="#3C3489"/>
<rect x="438" y="54" width="82" height="28" rx="3" fill="#534AB7"/>
<rect x="448" y="20" width="62" height="28" rx="3" fill="#7F77DD"/>
</g>
<g>
<rect x="700" y="122" width="122" height="28" rx="3" fill="#26215C"/>
<rect x="710" y="88" width="102" height="28" rx="3" fill="#3C3489"/>
<rect x="720" y="54" width="82" height="28" rx="3" fill="#534AB7"/>
</g>
<rect x="856" y="24" width="66" height="28" rx="3" fill="#f3c46a" transform="rotate(-7 889 38)"/>
<path d="M846,44 L742,44" fill="none" stroke="#AFA9EC" stroke-width="3" stroke-dasharray="10 9"/>
<path d="M0,150 C200,140 420,166 640,154 C860,142 1040,166 1200,152 V200 H0 Z" fill="#534AB7"/>
<path d="M0,172 C220,164 460,188 700,175 C920,164 1080,182 1200,172 V200 H0 Z" fill="#3C3489"/>
<path d="M0,192 C260,187 540,198 800,192 C1000,188 1120,195 1200,192 V200 H0 Z" fill="#26215C"/>
</svg>
