<svg xmlns="http://www.w3.org/2000/svg" viewBox="0 0 1200 200" role="img" aria-label="Panorama der Musikkulturen: Trommel, Gitarre und Lautsprecherturm ragen wie Berge, die goldene Sonne verbindet sie">
<rect width="1200" height="200" fill="#EEEDFE"/>
<circle cx="600" cy="48" r="28" fill="#f3c46a"/>
<circle cx="600" cy="48" r="39" fill="none" stroke="#f3c46a" stroke-width="2" opacity="0.4"/>
<g><rect x="230" y="86" width="70" height="34" rx="4" fill="#7F77DD"/><ellipse cx="265" cy="86" rx="35" ry="10" fill="#AFA9EC"/><path d="M232,90 l66,26 M298,90 l-66,26" stroke="#534AB7" stroke-width="1.5"/></g>
<g fill="#534AB7"><path d="M560,120 a26,30 0 1 1 40,-20 a18,22 0 1 1 -28,14 Z"/><rect x="592" y="40" width="8" height="60" rx="3"/></g>
<g fill="#7F77DD"><rect x="820" y="56" width="60" height="64" rx="4"/><circle cx="850" cy="76" r="10" fill="#3C3489"/><circle cx="850" cy="102" r="14" fill="#3C3489"/></g>
<path d="M430,74 q10,-8 20,0 M460,62 q10,-8 20,0" fill="none" stroke="#534AB7" stroke-width="3" stroke-linecap="round"/>
<path d="M0,124 C150,96 290,140 450,118 C610,96 760,138 920,116 C1040,101 1130,118 1200,108 V200 H0 Z" fill="#534AB7"/>
<path d="M0,150 C170,128 330,166 520,146 C700,128 880,168 1050,148 C1110,141 1170,148 1200,144 V200 H0 Z" fill="#3C3489"/>
<path d="M0,178 C200,162 420,190 640,176 C860,163 1040,188 1200,176 V200 H0 Z" fill="#26215C"/>
</svg>
