<svg xmlns="http://www.w3.org/2000/svg" viewBox="0 0 1200 200" role="img" aria-label="Ein Faecher von Eigenschafts-Kaertchen steigt aus der Welle und zeichnet die Huegellinie nach; das oberste Kaertchen leuchtet golden">
<rect width="1200" height="200" fill="#EEEDFE"/>
<g transform="translate(600,150)">
<g fill="#CECBF6" stroke="#AFA9EC" stroke-width="2">
<rect x="-150" y="-70" width="46" height="64" rx="4" transform="rotate(-34 -127 -38)"/>
<rect x="-92" y="-92" width="46" height="64" rx="4" transform="rotate(-20 -69 -60)"/>
<rect x="-30" y="-104" width="46" height="64" rx="4" transform="rotate(-7 -7 -72)"/>
</g>
<rect x="34" y="-108" width="46" height="64" rx="4" transform="rotate(7 57 -76)" fill="#f3c46a"/>
<g fill="#7F77DD" stroke="#534AB7" stroke-width="2">
<rect x="96" y="-92" width="46" height="64" rx="4" transform="rotate(20 119 -60)"/>
<rect x="150" y="-70" width="46" height="64" rx="4" transform="rotate(34 173 -38)"/>
</g>
</g>
<path d="M0,150 C190,134 400,164 600,150 C800,136 1000,164 1200,150 V200 H0 Z" fill="#534AB7"/>
<path d="M0,178 C230,166 480,190 740,178 C960,168 1090,186 1200,178 V200 H0 Z" fill="#26215C"/>
</svg>