<svg xmlns="http://www.w3.org/2000/svg" viewBox="0 0 1200 200" role="img" aria-label="Eine Zeitleiste vom Pixel zum modernen Bildschirm: die Geräte wachsen wie eine Bergkette, das goldene neueste leuchtet">
<rect width="1200" height="200" fill="#EEEDFE"/>
<circle cx="320" cy="50" r="24" fill="#AFA9EC"/>
<circle cx="320" cy="50" r="34" fill="none" stroke="#AFA9EC" stroke-width="2" opacity="0.4"/>
<g fill="#7F77DD"><rect x="250" y="104" width="20" height="16" rx="1"/><rect x="320" y="94" width="30" height="26" rx="2"/><rect x="400" y="82" width="42" height="38" rx="2"/><rect x="490" y="66" width="58" height="54" rx="3"/><rect x="600" y="48" width="76" height="72" rx="3"/></g>
<rect x="740" y="36" width="96" height="84" rx="4" fill="#534AB7"/><rect x="754" y="50" width="68" height="56" rx="2" fill="#f3c46a"/>
<rect x="256" y="108" width="4" height="4" fill="#CECBF6"/><rect x="262" y="112" width="4" height="4" fill="#CECBF6"/>
<path d="M0,124 C150,96 290,140 450,118 C610,96 760,138 920,116 C1040,101 1130,118 1200,108 V200 H0 Z" fill="#534AB7"/>
<path d="M0,150 C170,128 330,166 520,146 C700,128 880,168 1050,148 C1110,141 1170,148 1200,144 V200 H0 Z" fill="#3C3489"/>
<path d="M0,178 C200,162 420,190 640,176 C860,163 1040,188 1200,176 V200 H0 Z" fill="#26215C"/>
</svg>
