<svg xmlns="http://www.w3.org/2000/svg" viewBox="0 0 1200 200" role="img" aria-label="Zwei gespiegelte Berge werden von einem goldenen Bogen verbunden — Zuordnung">
<rect width="1200" height="200" fill="#EEEDFE"/>
<path d="M250,150 L430,66 L610,150 Z" fill="#AFA9EC"/>
<path d="M560,150 L740,66 L920,150 Z" fill="#7F77DD"/>
<path d="M430,66 Q585,8 740,66" fill="none" stroke="#f3c46a" stroke-width="7" stroke-linecap="round"/>
<path d="M470,52 q10,-8 20,0 M690,52 q10,-8 20,0" fill="none" stroke="#534AB7" stroke-width="3" stroke-linecap="round"/>
<path d="M0,138 C170,120 360,152 590,140 C820,128 1010,154 1200,140 V200 H0 Z" fill="#534AB7"/>
<path d="M0,150 C190,132 400,164 620,150 C840,136 1020,164 1200,150 V200 H0 Z" fill="#3C3489"/>
<path d="M0,180 C240,166 480,192 720,178 C940,166 1090,188 1200,178 V200 H0 Z" fill="#26215C"/>
</svg>
