<svg xmlns="http://www.w3.org/2000/svg" viewBox="0 0 1200 200" role="img" aria-label="Panorama der Wuensche: eine Pusteblume streut ihre Schirmchen ueber die Huegel, eine goldene Sternschnuppe faellt">
<rect width="1200" height="200" fill="#EEEDFE"/>
<circle cx="900" cy="52" r="7" fill="#f3c46a"/>
<path d="M900,52 L818,28" stroke="#f3c46a" stroke-width="3" stroke-linecap="round" opacity="0.7"/>
<path d="M0,124 L160,86 L320,124 Z" fill="#CECBF6"/>
<path d="M980,124 L1110,80 L1200,124 Z" fill="#CECBF6"/>
<line x1="300" y1="150" x2="300" y2="76" stroke="#3C3489" stroke-width="4" stroke-linecap="round"/>
<g stroke="#7F77DD" stroke-width="2" stroke-linecap="round">
<line x1="300" y1="70" x2="300" y2="44"/><line x1="300" y1="70" x2="282" y2="50"/><line x1="300" y1="70" x2="318" y2="50"/><line x1="300" y1="70" x2="274" y2="62"/><line x1="300" y1="70" x2="326" y2="62"/><line x1="300" y1="70" x2="272" y2="76"/><line x1="300" y1="70" x2="328" y2="76"/><line x1="300" y1="70" x2="288" y2="46"/><line x1="300" y1="70" x2="312" y2="46"/>
</g>
<g fill="#AFA9EC"><circle cx="300" cy="44" r="2.5"/><circle cx="282" cy="50" r="2.5"/><circle cx="318" cy="50" r="2.5"/><circle cx="274" cy="62" r="2.5"/><circle cx="326" cy="62" r="2.5"/><circle cx="272" cy="76" r="2.5"/><circle cx="328" cy="76" r="2.5"/><circle cx="288" cy="46" r="2.5"/><circle cx="312" cy="46" r="2.5"/></g>
<g stroke="#AFA9EC" stroke-width="1.5" fill="none"><circle cx="400" cy="58" r="4"/><line x1="400" y1="62" x2="400" y2="68"/><circle cx="470" cy="44" r="4"/><line x1="470" y1="48" x2="470" y2="54"/><circle cx="560" cy="64" r="4"/><line x1="560" y1="68" x2="560" y2="74"/></g>
<path d="M0,130 C170,108 340,144 520,126 C700,108 880,144 1050,126 C1120,119 1170,126 1200,122 V200 H0 Z" fill="#534AB7"/>
<path d="M0,150 C190,132 400,164 620,150 C840,136 1020,164 1200,150 V200 H0 Z" fill="#3C3489"/>
<path d="M0,180 C240,166 480,192 720,178 C940,166 1090,188 1200,178 V200 H0 Z" fill="#26215C"/>
</svg>
