<svg xmlns="http://www.w3.org/2000/svg" viewBox="0 0 1200 200" role="img" aria-label="Eine Schreibfeder zeichnet die vordere Welle, ein goldener Tintentropfen fällt — Schreibwerkstatt">
<rect width="1200" height="200" fill="#EEEDFE"/>
<circle cx="1050" cy="48" r="24" fill="#f3c46a"/>
<path d="M0,128 C140,112 300,138 470,126 C560,119 640,128 700,124 L704,124 L704,200 L0,200 Z" fill="#7F77DD"/>
<path d="M0,128 C140,112 300,138 470,126 C560,119 640,128 702,124" fill="none" stroke="#534AB7" stroke-width="4" stroke-linecap="round"/>
<g transform="translate(704,124) rotate(-36)">
<path d="M0,0 C-10,-14 -16,-34 -14,-58 L14,-58 C16,-34 10,-14 0,0 Z" fill="#26215C"/>
<line x1="0" y1="-34" x2="0" y2="-8" stroke="#EEEDFE" stroke-width="3" stroke-linecap="round"/>
<rect x="-15" y="-70" width="30" height="12" rx="4" fill="#534AB7"/>
<path d="M-6,-70 C-10,-102 2,-128 34,-148 C22,-118 26,-92 12,-70 Z" fill="#3C3489"/>
<path d="M-2,-72 C-6,-100 4,-124 30,-142" fill="none" stroke="#26215C" stroke-width="2.5"/></g>
<circle cx="680" cy="146" r="4.5" fill="#26215C"/>
<circle cx="654" cy="158" r="3" fill="#3C3489"/>
<path d="M0,156 C200,140 420,168 640,154 C860,142 1040,166 1200,154 V200 H0 Z" fill="#3C3489"/>
<path d="M0,182 C240,170 500,194 760,181 C980,170 1110,188 1200,180 V200 H0 Z" fill="#26215C"/>
</svg>
