<svg xmlns="http://www.w3.org/2000/svg" viewBox="0 0 1200 200" role="img" aria-label="Auf dem höchsten Gipfel steht eine goldene Fahne — Vollendung">
<rect width="1200" height="200" fill="#EEEDFE"/>
<path d="M300,150 L470,120 L560,150 Z" fill="#AFA9EC"/>
<path d="M520,150 L720,44 L920,150 Z" fill="#7F77DD"/>
<path d="M690,150 L840,90 L980,150 Z" fill="#534AB7"/>
<line x1="720" y1="44" x2="720" y2="96" stroke="#26215C" stroke-width="5" stroke-linecap="round"/>
<path d="M720,46 L784,58 L720,72 Z" fill="#f3c46a"/>
<path d="M760,40 q9,-7 18,0 M792,30 q9,-7 18,0" fill="none" stroke="#AFA9EC" stroke-width="3" stroke-linecap="round"/>
<path d="M0,138 C180,122 380,150 600,140 C820,130 1020,152 1200,140 V200 H0 Z" fill="#3C3489"/>
<path d="M0,172 C240,160 480,186 720,174 C940,163 1090,184 1200,176 V200 H0 Z" fill="#26215C"/>
</svg>
