<svg xmlns="http://www.w3.org/2000/svg" viewBox="0 0 1200 200" role="img" aria-label="Organigramm mit goldenem Wurzelknoten — Wortschatz"><rect width="1200" height="200" fill="#EEEDFE"/><g stroke="#534AB7" stroke-width="4"><line x1="600" y1="52" x2="520" y2="90"/><line x1="600" y1="52" x2="600" y2="90"/><line x1="600" y1="52" x2="680" y2="90"/><line x1="520" y1="104" x2="480" y2="118"/><line x1="520" y1="104" x2="560" y2="118"/></g><circle cx="600" cy="44" r="16" fill="#f3c46a"/><g fill="#3C3489"><circle cx="520" cy="98" r="12"/><circle cx="600" cy="98" r="12"/><circle cx="680" cy="98" r="12"/></g><g fill="#534AB7"><circle cx="480" cy="122" r="9"/><circle cx="560" cy="122" r="9"/></g><path d="M760,70 q10,-8 20,0 M790,58 q10,-8 20,0" fill="none" stroke="#534AB7" stroke-width="3" stroke-linecap="round"/><path d="M0,124 C160,106 320,140 480,124 C640,108 820,142 1000,124 C1090,115 1150,122 1200,118 V200 H0 Z" fill="#534AB7"/><path d="M0,152 C180,134 380,166 600,152 C820,138 1010,168 1200,152 V200 H0 Z" fill="#3C3489"/><path d="M0,178 C220,164 460,190 700,176 C920,164 1080,188 1200,178 V200 H0 Z" fill="#26215C"/></svg>