<svg xmlns="http://www.w3.org/2000/svg" viewBox="0 0 1200 200" role="img" aria-label="Zwei hoefliche Sprechblasen woelben sich zu einer Bruecke zwischen zwei Ufern; der goldene Bogen in der Mitte verbindet">
<rect width="1200" height="200" fill="#EEEDFE"/>
<path d="M150,150 L330,150 L330,120 A70,46 0 0 1 470,120 C500,86 560,86 600,120" fill="none" stroke="#534AB7" stroke-width="12" stroke-linecap="round"/>
<path d="M1050,150 L870,150 L870,120 A70,46 0 0 0 730,120 C700,86 640,86 600,120" fill="none" stroke="#3C3489" stroke-width="12" stroke-linecap="round"/>
<path d="M600,104 a12,12 0 0 1 0,32 a12,12 0 0 1 0,-32 Z" fill="#f3c46a"/>
<g fill="#7F77DD" opacity="0.7"><rect x="360" y="112" width="44" height="6" rx="3"/><rect x="796" y="112" width="44" height="6" rx="3"/></g>
<path d="M0,152 C150,144 250,150 340,150 L340,150 C420,150 480,150 600,150 C720,150 800,150 860,150 C960,150 1080,146 1200,150 V200 H0 Z" fill="#7F77DD"/>
<path d="M0,176 C220,164 460,188 700,176 C920,166 1080,186 1200,176 V200 H0 Z" fill="#3C3489"/>
<path d="M0,190 C240,182 520,198 780,190 C1000,183 1120,194 1200,190 V200 H0 Z" fill="#26215C"/>
</svg>