<svg xmlns="http://www.w3.org/2000/svg" viewBox="0 0 1200 200" role="img" aria-label="Die Rillen der Schallplatte laufen aus und werden zur Wellenkante — in einer Rille klafft eine Lücke, das goldene Stück schwebt darüber">
<rect width="1200" height="200" fill="#EEEDFE"/>
<path d="M0,150 C160,138 300,146 440,142 C620,137 800,150 980,140 C1080,134 1150,140 1200,136 V200 H0 Z" fill="#AFA9EC"/>
<g transform="translate(266,104)">
<circle cx="0" cy="0" r="82" fill="#26215C"/>
<g fill="none" stroke="#534AB7" stroke-width="2" opacity="0.85">
<circle cx="0" cy="0" r="72"/><circle cx="0" cy="0" r="62"/><circle cx="0" cy="0" r="52"/><circle cx="0" cy="0" r="42"/>
</g>
<circle cx="0" cy="0" r="26" fill="#7F77DD"/>
<circle cx="0" cy="0" r="5" fill="#EEEDFE"/>
</g>
<path d="M340,64 C480,44 640,50 800,60 C940,69 1080,58 1200,44" fill="none" stroke="#7F77DD" stroke-width="3.5"/>
<path d="M344,86 C500,72 620,86 776,92 M886,96 C1000,98 1110,88 1200,76" fill="none" stroke="#534AB7" stroke-width="4" stroke-linecap="round"/>
<path d="M340,110 C500,102 660,118 820,120 C960,122 1090,112 1200,104" fill="none" stroke="#3C3489" stroke-width="3.5"/>
<path d="M786,58 C826,52 862,54 896,60" fill="none" stroke="#f3c46a" stroke-width="6" stroke-linecap="round"/>
<circle cx="1010" cy="120" r="3.5" fill="#EEEDFE" opacity="0.6"/>
<path d="M560,42 q10,-8 20,0 M592,30 q10,-8 20,0" fill="none" stroke="#AFA9EC" stroke-width="3" stroke-linecap="round"/>
<path d="M0,164 C200,152 420,178 640,166 C860,154 1040,178 1200,164 V200 H0 Z" fill="#3C3489"/>
<path d="M0,187 C240,177 500,197 760,185 C980,175 1110,191 1200,183 V200 H0 Z" fill="#26215C"/>
</svg>
