<svg xmlns="http://www.w3.org/2000/svg" viewBox="0 0 1200 200" role="img" aria-label="Ein Sortierkasten lauter gleicher Schrauben über der Welle — nur die eine krumme leuchtet golden">
<rect width="1200" height="200" fill="#EEEDFE"/>
<path d="M180,72 q10,-8 20,0 M210,60 q10,-8 20,0" fill="none" stroke="#AFA9EC" stroke-width="3" stroke-linecap="round"/>
<path d="M950,130 L1050,68 L1150,130 Z" fill="#CECBF6"/>
<rect x="380" y="40" width="452" height="112" rx="8" fill="#CECBF6"/>
<rect x="380" y="40" width="452" height="112" rx="8" fill="none" stroke="#534AB7" stroke-width="5"/>
<g stroke="#534AB7" stroke-width="3">
<line x1="493" y1="40" x2="493" y2="152"/><line x1="606" y1="40" x2="606" y2="152"/><line x1="719" y1="40" x2="719" y2="152"/>
<line x1="380" y1="96" x2="832" y2="96"/>
</g>
<g fill="#26215C"><rect x="422" y="60" width="28" height="12" rx="3"/><rect x="431" y="72" width="10" height="34" rx="2"/></g><line x1="428" y1="66" x2="444" y2="66" stroke="#EEEDFE" stroke-width="3"/>
<g fill="#26215C"><rect x="535" y="60" width="28" height="12" rx="3"/><rect x="544" y="72" width="10" height="34" rx="2"/></g><line x1="541" y1="66" x2="557" y2="66" stroke="#EEEDFE" stroke-width="3"/>
<g fill="#26215C"><rect x="648" y="60" width="28" height="12" rx="3"/><rect x="657" y="72" width="10" height="34" rx="2"/></g><line x1="654" y1="66" x2="670" y2="66" stroke="#EEEDFE" stroke-width="3"/>
<g fill="#f3c46a" transform="rotate(-27 775 68)"><rect x="761" y="60" width="28" height="12" rx="3"/><rect x="770" y="72" width="10" height="34" rx="2"/></g><line x1="767" y1="66" x2="783" y2="66" stroke="#EEEDFE" stroke-width="3" transform="rotate(-27 775 68)"/>
<g fill="#26215C"><rect x="422" y="114" width="28" height="12" rx="3"/><rect x="431" y="126" width="10" height="34" rx="2"/></g><line x1="428" y1="120" x2="444" y2="120" stroke="#EEEDFE" stroke-width="3"/>
<g fill="#26215C"><rect x="535" y="114" width="28" height="12" rx="3"/><rect x="544" y="126" width="10" height="34" rx="2"/></g><line x1="541" y1="120" x2="557" y2="120" stroke="#EEEDFE" stroke-width="3"/>
<g fill="#26215C"><rect x="648" y="114" width="28" height="12" rx="3"/><rect x="657" y="126" width="10" height="34" rx="2"/></g><line x1="654" y1="120" x2="670" y2="120" stroke="#EEEDFE" stroke-width="3"/>
<g fill="#26215C"><rect x="761" y="114" width="28" height="12" rx="3"/><rect x="770" y="126" width="10" height="34" rx="2"/></g><line x1="767" y1="120" x2="783" y2="120" stroke="#EEEDFE" stroke-width="3"/>
<path d="M0,152 C200,142 420,168 640,156 C860,144 1040,168 1200,154 V200 H0 Z" fill="#7F77DD"/>
<path d="M0,174 C220,166 460,188 700,176 C920,166 1080,184 1200,174 V200 H0 Z" fill="#3C3489"/>
<path d="M0,192 C260,187 540,198 800,192 C1000,188 1120,195 1200,192 V200 H0 Z" fill="#26215C"/>
</svg>