<svg xmlns="http://www.w3.org/2000/svg" viewBox="0 0 1200 200" role="img" aria-label="Ein Weg aus Trittsteinen führt zur aufgehenden Sonne — der Blick nach vorn">
<rect width="1200" height="200" fill="#EEEDFE"/>
<path d="M150,150 L290,106 L440,150 Z" fill="#CECBF6"/>
<circle cx="790" cy="118" r="34" fill="#f3c46a"/>
<circle cx="790" cy="118" r="46" fill="none" stroke="#f3c46a" stroke-width="2" opacity="0.45"/>
<path d="M330,88 q10,-8 20,0 M364,76 q10,-8 20,0" fill="none" stroke="#534AB7" stroke-width="3" stroke-linecap="round"/>
<path d="M0,150 C200,140 420,158 640,150 C860,142 1040,156 1200,148 V200 H0 Z" fill="#534AB7"/>
<g fill="#26215C">
<ellipse cx="480" cy="168" rx="26" ry="7"/>
<ellipse cx="560" cy="160" rx="22" ry="6"/>
<ellipse cx="636" cy="153" rx="18" ry="5"/>
<ellipse cx="702" cy="148" rx="14" ry="4"/>
<ellipse cx="752" cy="144" rx="10" ry="3.5"/>
</g>
<path d="M0,176 C230,168 470,186 690,177 C900,169 1070,182 1200,176 V200 H0 Z" fill="#3C3489"/>
<path d="M0,192 C250,187 520,198 770,193 C990,189 1130,196 1200,193 V200 H0 Z" fill="#26215C"/>
</svg>
