<svg xmlns="http://www.w3.org/2000/svg" viewBox="0 0 1200 200" role="img" aria-label="Ruhige Nachtlandschaft: sanfte Hügel, ein Mond und ein einzelnes golden erleuchtetes Fenster — stilles Spielen">
<rect width="1200" height="200" fill="#EEEDFE"/>
<path d="M960,44 a24,24 0 1 0 0,40 a28,28 0 0 1 0,-40 Z" fill="#CECBF6"/>
<path d="M0,120 C200,96 420,110 640,100 C860,90 1040,110 1200,102 V200 H0 Z" fill="#7F77DD"/>
<path d="M300,116 v-30 l26,-20 l26,20 v30 Z" fill="#3C3489"/>
<rect x="316" y="94" width="12" height="14" rx="1" fill="#f3c46a"/>
<circle cx="520" cy="46" r="2.5" fill="#AFA9EC"/><circle cx="640" cy="34" r="2" fill="#AFA9EC"/><circle cx="760" cy="52" r="2.5" fill="#AFA9EC"/>
<path d="M0,148 C190,130 400,162 620,148 C840,134 1020,164 1200,148 V200 H0 Z" fill="#3C3489"/>
<path d="M0,180 C240,166 480,192 720,178 C940,166 1090,188 1200,178 V200 H0 Z" fill="#26215C"/>
</svg>
