<svg xmlns="http://www.w3.org/2000/svg" viewBox="0 0 1200 200" role="img" aria-label="Ein Baum wächst aus der Welle und verzweigt sich Ast um Ast — der Stammbaum der Sprachfamilien; über der Krone leuchtet die goldene Sonne"><rect width="1200" height="200" fill="#EEEDFE"/><circle cx="1040" cy="50" r="24" fill="#f3c46a"/><circle cx="1040" cy="50" r="34" fill="none" stroke="#f3c46a" stroke-width="2" opacity="0.4"/><path d="M0,110 C160,90 340,120 520,104 C700,88 900,120 1080,104 C1140,99 1180,106 1200,102 V200 H0 Z" fill="#CECBF6"/><path d="M592,150 L592,104 L608,104 L608,150 Z" fill="#3C3489"/><g stroke="#3C3489" fill="none" stroke-linecap="round"><path d="M600,108 C560,96 520,92 484,74" stroke-width="7"/><path d="M600,108 C640,96 680,92 716,74" stroke-width="7"/><path d="M600,118 C566,112 540,110 508,102" stroke-width="5"/><path d="M600,118 C634,112 660,110 692,102" stroke-width="5"/><path d="M484,74 C476,64 470,58 458,54" stroke-width="4"/><path d="M484,74 C492,62 500,56 512,52" stroke-width="4"/><path d="M716,74 C724,64 730,58 742,54" stroke-width="4"/><path d="M716,74 C708,62 700,56 688,52" stroke-width="4"/></g><g fill="#7F77DD" opacity="0.9"><circle cx="600" cy="70" r="20"/><circle cx="500" cy="66" r="16"/><circle cx="700" cy="66" r="16"/><circle cx="452" cy="56" r="9"/><circle cx="516" cy="50" r="9"/><circle cx="686" cy="52" r="9"/><circle cx="746" cy="56" r="9"/></g><g fill="#534AB7"><circle cx="600" cy="66" r="9"/><circle cx="500" cy="64" r="6"/><circle cx="700" cy="64" r="6"/></g><path d="M0,150 C190,132 400,164 620,150 C840,136 1020,166 1200,150 V200 H0 Z" fill="#3C3489"/><path d="M0,180 C240,166 480,192 720,178 C940,166 1090,188 1200,178 V200 H0 Z" fill="#26215C"/></svg>