<svg xmlns="http://www.w3.org/2000/svg" viewBox="0 0 1200 200" role="img" aria-label="Die Gratlinie des Weges ist unterbrochen — das goldene Stück schwebt über der Lücke">
<rect width="1200" height="200" fill="#EEEDFE"/>
<path d="M120,40 a20,20 0 0 0 -14,20 a22,22 0 0 1 14,-8 Z" fill="#CECBF6"/><path d="M0,150 C120,132 240,120 360,124 C450,127 520,118 560,112 L560,200 L0,200 Z" fill="#7F77DD"/><path d="M690,110 C760,116 850,126 960,120 C1060,115 1140,124 1200,120 L1200,200 L690,200 Z" fill="#7F77DD"/><path d="M598,74 L648,66 L660,84 L610,92 Z" fill="#f3c46a"/><line x1="600" y1="100" x2="648" y2="94" stroke="#534AB7" stroke-width="2" stroke-dasharray="4 5"/><path d="M300,60 q9,-7 18,0 M326,52 q9,-7 18,0" fill="none" stroke="#534AB7" stroke-width="3" stroke-linecap="round"/><path d="M0,152 C200,136 440,166 680,152 C900,139 1050,166 1200,154 V200 H0 Z" fill="#3C3489"/>
<path d="M0,180 C240,168 500,192 760,180 C980,168 1100,188 1200,180 V200 H0 Z" fill="#26215C"/>
</svg>
