<svg xmlns="http://www.w3.org/2000/svg" viewBox="0 0 1200 200" role="img" aria-label="Die Landschaft spiegelt sich im Wasser — doch nur die Spiegelung traegt die goldene Sonne: der irreale Konjunktiv">
<rect width="1200" height="200" fill="#EEEDFE"/>
<path d="M0,108 L150,72 L300,108 L470,78 L640,108 Z" fill="#AFA9EC"/>
<path d="M640,108 L820,76 L1000,108 L1140,84 L1200,108 Z" fill="#CECBF6"/>
<rect x="0" y="108" width="1200" height="3" fill="#7F77DD" opacity="0.5"/>
<path d="M0,114 L150,150 L300,114 L470,144 L640,114 Z" fill="#534AB7" opacity="0.85"/>
<path d="M640,114 L820,146 L1000,114 L1140,138 L1200,114 Z" fill="#3C3489" opacity="0.85"/>
<circle cx="470" cy="150" r="21" fill="#f3c46a"/>
<g stroke="#f3c46a" stroke-width="2" opacity="0.4" stroke-linecap="round"><line x1="420" y1="162" x2="520" y2="162"/><line x1="435" y1="172" x2="505" y2="172"/></g>
<path d="M0,168 C240,158 500,184 760,172 C980,160 1090,180 1200,172 V200 H0 Z" fill="#26215C"/>
<path d="M0,150 C190,132 400,164 620,150 C840,136 1020,164 1200,150 V200 H0 Z" fill="#3C3489"/>
<path d="M0,180 C240,166 480,192 720,178 C940,166 1090,188 1200,178 V200 H0 Z" fill="#26215C"/>
</svg>
