<svg xmlns="http://www.w3.org/2000/svg" viewBox="0 0 1200 200" role="img" aria-label="Aus einem aufgeschlagenen Buch steigen kleine Bilder auf — eine Katze, ein Vogel, ein Schlüssel; aus Wörtern werden Bilder, darüber die goldene Sonne"><rect width="1200" height="200" fill="#EEEDFE"/><circle cx="1040" cy="46" r="24" fill="#f3c46a"/><circle cx="1040" cy="46" r="34" fill="none" stroke="#f3c46a" stroke-width="2" opacity="0.4"/><path d="M0,110 C160,90 340,120 520,104 C700,88 900,120 1080,104 C1140,99 1180,106 1200,102 V200 H0 Z" fill="#CECBF6"/>
<path d="M470,132 L590,116 L590,150 L470,150 Z" fill="#534AB7"/><path d="M710,132 L590,116 L590,150 L710,150 Z" fill="#3C3489"/><path d="M470,132 C520,124 560,124 590,116 C620,124 660,124 710,132" fill="none" stroke="#AFA9EC" stroke-width="2"/><path d="M520,80 q10,-8 20,0 M540,80 q10,-8 20,0" fill="none" stroke="#7F77DD" stroke-width="3" stroke-linecap="round"/><path d="M628,92 q-2,-14 6,-18 q2,8 6,8 q4,0 6,-8 q8,4 6,18 q6,4 4,12 l-38,0 q-2,-8 4,-12 Z" fill="#7F77DD"/><g fill="#AFA9EC"><circle cx="700" cy="78" r="8"/><rect x="697" y="84" width="6" height="24" rx="2"/><rect x="703" y="98" width="8" height="4"/><rect x="703" y="104" width="6" height="4"/></g><path d="M0,150 C190,132 400,164 620,150 C840,136 1020,166 1200,150 V200 H0 Z" fill="#3C3489"/>
<path d="M0,180 C240,166 480,192 720,178 C940,166 1090,188 1200,178 V200 H0 Z" fill="#26215C"/>
</svg>