<svg xmlns="http://www.w3.org/2000/svg" viewBox="0 0 1200 200" role="img" aria-label="Telefon mit aufsteigenden Sprechblasen, eine golden — Wortschatz"><rect width="1200" height="200" fill="#EEEDFE"/><rect x="470" y="70" width="54" height="94" rx="10" fill="#3C3489"/><rect x="478" y="80" width="38" height="64" rx="3" fill="#534AB7"/><circle cx="560" cy="86" r="26" fill="#AFA9EC"/><path d="M554,110 l-8,10 l14,-6 Z" fill="#AFA9EC"/><circle cx="620" cy="60" r="22" fill="#7F77DD"/><path d="M614,80 l-8,10 l14,-6 Z" fill="#7F77DD"/><circle cx="682" cy="84" r="20" fill="#534AB7"/><path d="M676,102 l-8,10 l14,-6 Z" fill="#534AB7"/><circle cx="700" cy="44" r="18" fill="#f3c46a"/><path d="M694,60 l-8,10 l14,-6 Z" fill="#f3c46a"/><path d="M320,110 q10,-8 20,0 M350,98 q10,-8 20,0" fill="none" stroke="#534AB7" stroke-width="3" stroke-linecap="round"/><path d="M0,124 C160,106 320,140 480,124 C640,108 820,142 1000,124 C1090,115 1150,122 1200,118 V200 H0 Z" fill="#534AB7"/><path d="M0,152 C180,134 380,166 600,152 C820,138 1010,168 1200,152 V200 H0 Z" fill="#3C3489"/><path d="M0,178 C220,164 460,190 700,176 C920,164 1080,188 1200,178 V200 H0 Z" fill="#26215C"/></svg>