<svg xmlns="http://www.w3.org/2000/svg" viewBox="0 0 1200 200" role="img" aria-label="Aus Pixelblöcken wächst ein Turm über der Welle — der goldene oberste Block vervollständigt das Bild">
<rect width="1200" height="200" fill="#EEEDFE"/>
<circle cx="1050" cy="48" r="22" fill="#AFA9EC"/>
<circle cx="1050" cy="48" r="32" fill="none" stroke="#AFA9EC" stroke-width="2" opacity="0.4"/>
<g fill="#7F77DD"><rect x="560" y="100" width="26" height="26"/><rect x="586" y="100" width="26" height="26"/><rect x="612" y="100" width="26" height="26"/><rect x="574" y="74" width="26" height="26"/><rect x="600" y="74" width="26" height="26"/><rect x="588" y="48" width="26" height="26"/></g>
<g fill="#534AB7"><rect x="560" y="100" width="26" height="26" fill="none" stroke="#3C3489" stroke-width="1"/></g>
<rect x="588" y="20" width="26" height="24" fill="#f3c46a"/>
<path d="M601,44 v4" stroke="#f3c46a" stroke-width="2" stroke-dasharray="2 2"/>
<path d="M0,148 C190,130 400,162 620,148 C840,134 1020,164 1200,148 V200 H0 Z" fill="#3C3489"/>
<path d="M0,180 C240,166 480,192 720,178 C940,166 1090,188 1200,178 V200 H0 Z" fill="#26215C"/>
</svg>
