<svg xmlns="http://www.w3.org/2000/svg" viewBox="0 0 1200 200" role="img" aria-label="Ein Setzkasten voller Buttons und Aufnäher über der Welle — ein Fach ist leer, der goldene Button schwebt darüber">
<rect width="1200" height="200" fill="#EEEDFE"/>
<path d="M0,148 C170,128 340,142 510,134 C690,126 870,144 1050,132 C1120,127 1170,130 1200,128 V200 H0 Z" fill="#AFA9EC"/>
<g transform="translate(650,42)">
<circle cx="0" cy="0" r="26" fill="#f3c46a"/>
<circle cx="0" cy="0" r="17" fill="none" stroke="#26215C" stroke-width="2.5" opacity="0.4"/>
<circle cx="0" cy="0" r="5" fill="#26215C" opacity="0.4"/>
</g>
<rect x="390" y="84" width="420" height="82" rx="7" fill="#3C3489"/>
<rect x="398" y="92" width="404" height="66" rx="4" fill="#534AB7"/>
<g stroke="#3C3489" stroke-width="4">
<line x1="499" y1="92" x2="499" y2="158"/><line x1="600" y1="92" x2="600" y2="158"/><line x1="701" y1="92" x2="701" y2="158"/>
<line x1="398" y1="125" x2="802" y2="125"/>
</g>
<circle cx="448" cy="108" r="12" fill="#CECBF6"/>
<path d="M549,97 l12,21 -24,0 Z" fill="#AFA9EC"/>
<path d="M751,96 l6,12 13,2 -9,10 2,13 -12,-6 -12,6 2,-13 -9,-10 13,-2 Z" fill="#AFA9EC"/>
<circle cx="448" cy="142" r="11" fill="#AFA9EC"/>
<circle cx="549" cy="142" r="12" fill="#CECBF6"/>
<rect x="639" y="132" width="22" height="20" rx="2" fill="#7F77DD"/>
<path d="M740,134 l22,0 -11,19 Z" fill="#7F77DD"/>
<path d="M300,72 q10,-8 20,0 M332,60 q10,-8 20,0" fill="none" stroke="#534AB7" stroke-width="3" stroke-linecap="round"/>
<path d="M0,164 C200,152 420,178 640,166 C860,154 1040,178 1200,164 V200 H0 Z" fill="#3C3489"/>
<path d="M0,187 C240,177 500,197 760,185 C980,175 1110,191 1200,183 V200 H0 Z" fill="#26215C"/>
</svg>
