<svg xmlns="http://www.w3.org/2000/svg" viewBox="0 0 1200 200" role="img" aria-label="Die Wellenkämme der Landschaft sind zugleich die Leiterbahnen einer Platine — im Zentrum sitzt der goldene Chip">
<rect width="1200" height="200" fill="#EEEDFE"/>
<g fill="none" stroke="#AFA9EC" stroke-width="4" stroke-linecap="round" stroke-linejoin="round">
<path d="M180,146 L180,90 L260,90 L260,52"/>
<path d="M320,148 L320,112 L390,112 L390,68"/>
<path d="M1010,148 L1010,96 L940,96 L940,58"/>
<path d="M1120,146 L1120,80 L1050,80"/>
</g>
<g fill="#AFA9EC"><circle cx="260" cy="46" r="7"/><circle cx="390" cy="62" r="7"/><circle cx="940" cy="52" r="7"/><circle cx="1050" cy="80" r="7"/></g>
<g fill="none" stroke="#534AB7" stroke-width="6" stroke-linecap="round" stroke-linejoin="round">
<path d="M540,60 L470,60 L470,120 L404,120"/>
<path d="M540,86 L440,86 L440,153"/>
<path d="M700,60 L780,60 L780,118 L846,118"/>
<path d="M700,86 L810,86 L810,156"/>
<path d="M580,144 L580,158"/><path d="M660,144 L660,157"/>
</g>
<g fill="#534AB7"><circle cx="400" cy="120" r="9"/><circle cx="850" cy="118" r="9"/></g>
<rect x="540" y="42" width="160" height="102" rx="6" fill="#26215C"/>
<g fill="#3C3489">
<rect x="512" y="56" width="28" height="9" rx="2"/><rect x="512" y="82" width="28" height="9" rx="2"/><rect x="512" y="108" width="28" height="9" rx="2"/>
<rect x="700" y="56" width="28" height="9" rx="2"/><rect x="700" y="82" width="28" height="9" rx="2"/><rect x="700" y="108" width="28" height="9" rx="2"/>
</g>
<rect x="574" y="70" width="92" height="46" rx="4" fill="#f3c46a"/>
<path d="M0,152 C200,142 420,168 640,156 C860,144 1040,168 1200,154 V200 H0 Z" fill="#534AB7"/>
<path d="M0,174 C220,166 460,190 700,177 C920,166 1080,184 1200,174 V200 H0 Z" fill="#3C3489"/>
<path d="M0,192 C260,187 540,198 800,192 C1000,188 1120,195 1200,192 V200 H0 Z" fill="#26215C"/>
</svg>