<svg xmlns="http://www.w3.org/2000/svg" viewBox="0 0 1200 200" role="img" aria-label="Aus dem Lautsprecher laeuft eine Schallwelle heraus und wird zur geschriebenen Wellenlinie — in ihr fehlt ein Wort, der goldene Punkt schwebt darueber">
<rect width="1200" height="200" fill="#EEEDFE"/>
<path d="M150,96 L180,96 L210,74 L210,146 L180,124 L150,124 Z" fill="#3C3489"/>
<path d="M224,88 q14,22 0,44 M240,78 q26,32 0,64" fill="none" stroke="#7F77DD" stroke-width="3" stroke-linecap="round"/>
<path d="M260,120 C360,104 460,132 560,118 C620,110 660,116 700,116 L700,116" fill="none" stroke="#26215C" stroke-width="4" stroke-linecap="round"/>
<path d="M800,116 C900,104 1020,128 1200,116" fill="none" stroke="#26215C" stroke-width="4" stroke-linecap="round"/>
<line x1="700" y1="116" x2="800" y2="116" stroke="#AFA9EC" stroke-width="2" stroke-dasharray="5 6"/>
<circle cx="750" cy="80" r="9" fill="#f3c46a"/>
<path d="M260,124 C360,108 460,136 560,122 C700,104 900,132 1200,120 V200 H0 L150,124 L260,124 Z" fill="#534AB7"/>
<path d="M0,156 C210,144 470,176 720,162 C940,150 1090,172 1200,162 V200 H0 Z" fill="#3C3489"/>
<path d="M0,150 C190,132 400,164 620,150 C840,136 1020,164 1200,150 V200 H0 Z" fill="#3C3489"/>
<path d="M0,180 C240,166 480,192 720,178 C940,166 1090,188 1200,178 V200 H0 Z" fill="#26215C"/>
</svg>
