<svg xmlns="http://www.w3.org/2000/svg" viewBox="0 0 1200 200" role="img" aria-label="Im Einkaufswagen wächst ein junger Baum — eine goldene Frucht leuchtet">
<rect width="1200" height="200" fill="#EEEDFE"/>
<path d="M300,44 q11,-9 22,0 M344,56 q9,-8 18,0" fill="none" stroke="#534AB7" stroke-width="3" stroke-linecap="round"/>
<path d="M0,138 C170,124 360,148 560,136 C780,124 990,150 1200,136 V200 H0 Z" fill="#AFA9EC"/>
<path d="M0,162 C210,150 440,174 660,162 C880,150 1060,172 1200,160 V200 H0 Z" fill="#3C3489"/>
<g>
<circle cx="612" cy="52" r="26" fill="#534AB7"/>
<circle cx="648" cy="64" r="22" fill="#534AB7"/>
<circle cx="580" cy="68" r="20" fill="#534AB7"/>
<circle cx="618" cy="76" r="24" fill="#534AB7"/>
<circle cx="654" cy="46" r="9" fill="#f3c46a"/>
<path d="M614,96 L612,116" stroke="#26215C" stroke-width="7" stroke-linecap="round"/>
<path d="M568,112 L700,112 L684,158 L586,158 Z" fill="#26215C"/>
<path d="M592,120 L596,150 M618,120 L620,150 M648,120 L648,150 M674,120 L672,150" stroke="#534AB7" stroke-width="3" stroke-linecap="round"/>
<path d="M568,112 L544,84 L522,82" fill="none" stroke="#26215C" stroke-width="6" stroke-linecap="round" stroke-linejoin="round"/>
<circle cx="604" cy="172" r="10" fill="#26215C"/>
<circle cx="668" cy="172" r="10" fill="#26215C"/>
<circle cx="604" cy="172" r="4" fill="#AFA9EC"/>
<circle cx="668" cy="172" r="4" fill="#AFA9EC"/>
</g>
<path d="M0,186 C250,178 520,198 780,188 C1000,180 1120,192 1200,186 V200 H0 Z" fill="#26215C"/>
</svg>
