<svg xmlns="http://www.w3.org/2000/svg" viewBox="0 0 1200 200" role="img" aria-label="Aus der Radioschüssel läuft ein Signal als vorderste Welle über das All — an einer Stelle fehlt ein Puls, der goldene Punkt schwebt über der Lücke">
<rect width="1200" height="200" fill="#EEEDFE"/>
<circle cx="240" cy="54" r="2" fill="#EEEDFE" opacity="0.45"/><circle cx="360" cy="94" r="1.5" fill="#EEEDFE" opacity="0.4"/><circle cx="950" cy="56" r="2" fill="#EEEDFE" opacity="0.45"/><circle cx="1040" cy="96" r="1.6" fill="#EEEDFE" opacity="0.4"/>
<g transform="translate(150,120) rotate(-18)"><ellipse cx="0" cy="0" rx="34" ry="15" fill="#534AB7"/><line x1="0" y1="0" x2="0" y2="34" stroke="#26215C" stroke-width="5"/><circle cx="0" cy="-3" r="4" fill="#26215C"/></g>
<path d="M180,132 C300,110 380,150 470,132 C540,120 600,150 660,138 L720,138 C820,138 1020,122 1200,134 V200 H180 Z" fill="#534AB7"/>
<path d="M180,132 C300,110 380,150 470,132 C540,120 600,150 660,138" fill="none" stroke="#3C3489" stroke-width="3" stroke-linecap="round"/>
<path d="M720,138 C820,138 1020,122 1200,134" fill="none" stroke="#3C3489" stroke-width="3" stroke-linecap="round"/>
<circle cx="690" cy="112" r="9" fill="#f3c46a"/>
<circle cx="690" cy="112" r="15" fill="none" stroke="#f3c46a" stroke-width="2" opacity="0.4"/>
<path d="M0,150 C190,132 380,164 600,150 C820,136 1010,166 1200,150 V200 H0 Z" fill="#3C3489"/><path d="M0,180 C220,166 460,192 700,178 C920,166 1080,188 1200,178 V200 H0 Z" fill="#26215C"/>
</svg>