<svg xmlns="http://www.w3.org/2000/svg" viewBox="0 0 1200 200" role="img" aria-label="Ein hoeflich gedeckter Tisch fuer zwei mit zwei Tassen und einer golden brennenden Kerze zwischen zwei Stuehlen">
<rect width="1200" height="200" fill="#EEEDFE"/>
<circle cx="600" cy="72" r="8" fill="#f3c46a"/>
<path d="M600,80 q-6,10 0,20 q6,-10 0,-20" fill="#f3c46a" opacity="0.6"/>
<rect x="596" y="100" width="8" height="34" fill="#7F77DD"/>
<g fill="#534AB7"><path d="M470,120 h40 a6,6 0 0 1 6,6 h-52 a6,6 0 0 1 6,-6 Z"/><path d="M472,126 a18,10 0 0 0 36,0 Z"/></g>
<g fill="#3C3489"><path d="M690,120 h40 a6,6 0 0 1 6,6 h-52 a6,6 0 0 1 6,-6 Z"/><path d="M692,126 a18,10 0 0 0 36,0 Z"/></g>
<rect x="440" y="134" width="320" height="10" rx="3" fill="#26215C"/>
<g fill="#3C3489"><rect x="400" y="120" width="10" height="40"/><path d="M392,120 h26 v-20 a13,10 0 0 0 -26,0 Z"/></g>
<g fill="#534AB7"><rect x="790" y="120" width="10" height="40"/><path d="M782,120 h26 v-20 a13,10 0 0 0 -26,0 Z"/></g>
<path d="M0,158 C210,146 440,172 680,160 C880,150 1030,170 1200,160 V200 H0 Z" fill="#3C3489"/>
<path d="M0,184 C240,174 500,196 760,184 C980,174 1100,190 1200,184 V200 H0 Z" fill="#26215C"/>
</svg>