<svg xmlns="http://www.w3.org/2000/svg" viewBox="0 0 1200 200" role="img" aria-label="Zwei Zahnräder, von der Welle selbst gedreht, heben über eine Schnur einen Block empor — es geschieht von selbst; der gehobene Block leuchtet golden"><rect width="1200" height="200" fill="#EEEDFE"/><path d="M0,110 C160,90 340,120 520,104 C700,88 900,120 1080,104 C1140,99 1180,106 1200,102 V200 H0 Z" fill="#CECBF6"/><circle cx="470" cy="104" r="30" fill="#534AB7"/><line x1="500.0" y1="104.0" x2="508.0" y2="104.0" stroke="#534AB7" stroke-width="6" stroke-linecap="round"/><line x1="494.3" y1="121.6" x2="500.7" y2="126.3" stroke="#534AB7" stroke-width="6" stroke-linecap="round"/><line x1="479.3" y1="132.5" x2="481.7" y2="140.1" stroke="#534AB7" stroke-width="6" stroke-linecap="round"/><line x1="460.7" y1="132.5" x2="458.3" y2="140.1" stroke="#534AB7" stroke-width="6" stroke-linecap="round"/><line x1="445.7" y1="121.6" x2="439.3" y2="126.3" stroke="#534AB7" stroke-width="6" stroke-linecap="round"/><line x1="440.0" y1="104.0" x2="432.0" y2="104.0" stroke="#534AB7" stroke-width="6" stroke-linecap="round"/><line x1="445.7" y1="86.4" x2="439.3" y2="81.7" stroke="#534AB7" stroke-width="6" stroke-linecap="round"/><line x1="460.7" y1="75.5" x2="458.3" y2="67.9" stroke="#534AB7" stroke-width="6" stroke-linecap="round"/><line x1="479.3" y1="75.5" x2="481.7" y2="67.9" stroke="#534AB7" stroke-width="6" stroke-linecap="round"/><line x1="494.3" y1="86.4" x2="500.7" y2="81.7" stroke="#534AB7" stroke-width="6" stroke-linecap="round"/><circle cx="470" cy="104" r="10" fill="#EEEDFE" opacity="0.6"/><circle cx="548" cy="118" r="22" fill="#3C3489"/><line x1="570.0" y1="118.0" x2="577.0" y2="118.0" stroke="#3C3489" stroke-width="6" stroke-linecap="round"/><line x1="564.9" y1="132.1" x2="570.2" y2="136.6" stroke="#3C3489" stroke-width="6" stroke-linecap="round"/><line x1="551.8" y1="139.7" x2="553.0" y2="146.6" stroke="#3C3489" stroke-width="6" stroke-linecap="round"/><line x1="537.0" y1="137.1" x2="533.5" y2="143.1" stroke="#3C3489" stroke-width="6" stroke-linecap="round"/><line x1="527.3" y1="125.5" x2="520.7" y2="127.9" stroke="#3C3489" stroke-width="6" stroke-linecap="round"/><line x1="527.3" y1="110.5" x2="520.7" y2="108.1" stroke="#3C3489" stroke-width="6" stroke-linecap="round"/><line x1="537.0" y1="98.9" x2="533.5" y2="92.9" stroke="#3C3489" stroke-width="6" stroke-linecap="round"/><line x1="551.8" y1="96.3" x2="553.0" y2="89.4" stroke="#3C3489" stroke-width="6" stroke-linecap="round"/><line x1="564.9" y1="103.9" x2="570.2" y2="99.4" stroke="#3C3489" stroke-width="6" stroke-linecap="round"/><circle cx="548" cy="118" r="8" fill="#EEEDFE" opacity="0.6"/><line x1="548" y1="118" x2="700" y2="118" stroke="#3C3489" stroke-width="4"/><line x1="700" y1="118" x2="700" y2="90" stroke="#26215C" stroke-width="3"/><line x1="700" y1="90" x2="740" y2="90" stroke="#26215C" stroke-width="3"/><line x1="740" y1="90" x2="740" y2="104" stroke="#26215C" stroke-width="2.5"/><rect x="726" y="104" width="30" height="24" rx="3" fill="#f3c46a"/><path d="M0,150 C190,132 400,164 620,150 C840,136 1020,166 1200,150 V200 H0 Z" fill="#3C3489"/><path d="M0,180 C240,166 480,192 720,178 C940,166 1090,188 1200,178 V200 H0 Z" fill="#26215C"/></svg>