<svg xmlns="http://www.w3.org/2000/svg" viewBox="0 0 1200 200" role="img" aria-label="Gestapelte Aktenordner mit goldenem Deckordner — Satzbau"><rect width="1200" height="200" fill="#EEEDFE"/><path d="M460,100 h77 l14,-10 h132 v24 h-220 Z" fill="#3C3489"/><path d="M478,80 h64 l14,-10 h110 v20 h-184 Z" fill="#534AB7"/><path d="M496,60 h52 l14,-10 h89 v20 h-148 Z" fill="#7F77DD"/><path d="M520,40 h40 l12,-9 h44 v20 h-96 Z" fill="#f3c46a"/><path d="M320,70 q10,-8 20,0 M350,58 q10,-8 20,0" fill="none" stroke="#534AB7" stroke-width="3" stroke-linecap="round"/><path d="M0,124 C160,106 320,140 480,124 C640,108 820,142 1000,124 C1090,115 1150,122 1200,118 V200 H0 Z" fill="#534AB7"/><path d="M0,152 C180,134 380,166 600,152 C820,138 1010,168 1200,152 V200 H0 Z" fill="#3C3489"/><path d="M0,178 C220,164 460,190 700,176 C920,164 1080,188 1200,178 V200 H0 Z" fill="#26215C"/></svg>