<svg xmlns="http://www.w3.org/2000/svg" viewBox="0 0 1200 200" role="img" aria-label="Eine Reihe von Herzen über der Welle — eines fehlt, und das goldene Herz schwebt schon über der Lücke">
<rect width="1200" height="200" fill="#EEEDFE"/>
<g fill="#534AB7">
<path d="M280,74 c-12,-16 -34,-6 -34,12 c0,18 22,28 34,40 c12,-12 34,-22 34,-40 c0,-18 -22,-28 -34,-12 Z"/>
<path d="M420,74 c-12,-16 -34,-6 -34,12 c0,18 22,28 34,40 c12,-12 34,-22 34,-40 c0,-18 -22,-28 -34,-12 Z"/>
<path d="M560,74 c-12,-16 -34,-6 -34,12 c0,18 22,28 34,40 c12,-12 34,-22 34,-40 c0,-18 -22,-28 -34,-12 Z"/>
<path d="M840,74 c-12,-16 -34,-6 -34,12 c0,18 22,28 34,40 c12,-12 34,-22 34,-40 c0,-18 -22,-28 -34,-12 Z"/>
<path d="M980,74 c-12,-16 -34,-6 -34,12 c0,18 22,28 34,40 c12,-12 34,-22 34,-40 c0,-18 -22,-28 -34,-12 Z"/>
</g>
<path d="M700,74 c-12,-16 -34,-6 -34,12 c0,18 22,28 34,40 c12,-12 34,-22 34,-40 c0,-18 -22,-28 -34,-12 Z" fill="none" stroke="#AFA9EC" stroke-width="4" stroke-dasharray="9 7"/>
<path d="M700,14 c-10,-13 -28,-5 -28,10 c0,15 18,23 28,33 c10,-10 28,-18 28,-33 c0,-15 -18,-23 -28,-10 Z" fill="#f3c46a"/>
<line x1="700" y1="60" x2="700" y2="70" stroke="#AFA9EC" stroke-width="3" stroke-linecap="round" stroke-dasharray="3 5"/>
<path d="M0,150 C170,132 360,160 560,150 C760,140 960,162 1160,148 C1175,147 1190,147 1200,146 V200 H0 Z" fill="#534AB7"/>
<path d="M0,168 C200,152 420,180 640,168 C860,156 1040,178 1200,166 V200 H0 Z" fill="#3C3489"/>
<path d="M0,190 C240,180 500,199 760,190 C980,182 1100,196 1200,190 V200 H0 Z" fill="#26215C"/>
</svg>
