<svg xmlns="http://www.w3.org/2000/svg" viewBox="0 0 1200 200" role="img" aria-label="Aus dem aufgeschlagenen Buch steigen Wortkarten auf und werden zu den Sternen der Bewertung — der fünfte, goldene, findet gerade seinen Platz">
<rect width="1200" height="200" fill="#EEEDFE"/>
<path d="M180,54 q10,-8 20,0 M210,42 q10,-8 20,0" fill="none" stroke="#AFA9EC" stroke-width="3" stroke-linecap="round"/>
<path d="M442,126 L288,96 L288,132 L442,156 Z" fill="#534AB7"/>
<path d="M442,126 L596,96 L596,132 L442,156 Z" fill="#7F77DD"/>
<path d="M442,126 L288,96 L294,90 L442,118 L590,90 L596,96 Z" fill="#AFA9EC"/>
<line x1="442" y1="118" x2="442" y2="156" stroke="#26215C" stroke-width="4"/>
<line x1="312" y1="108" x2="428" y2="130" stroke="#EEEDFE" stroke-width="2" opacity="0.6"/>
<line x1="456" y1="130" x2="572" y2="108" stroke="#EEEDFE" stroke-width="2" opacity="0.6"/>
<line x1="316" y1="117" x2="428" y2="137" stroke="#EEEDFE" stroke-width="2" opacity="0.6"/>
<line x1="456" y1="137" x2="568" y2="117" stroke="#EEEDFE" stroke-width="2" opacity="0.6"/>
<line x1="320" y1="126" x2="428" y2="144" stroke="#EEEDFE" stroke-width="2" opacity="0.6"/>
<line x1="456" y1="144" x2="564" y2="126" stroke="#EEEDFE" stroke-width="2" opacity="0.6"/>
<rect x="603" y="84" width="46" height="32" rx="3" fill="#3C3489" transform="rotate(-24 626 100)"/>
<rect x="663" y="60" width="46" height="32" rx="3" fill="#534AB7" transform="rotate(-16 686 76)"/>
<rect x="717" y="40" width="46" height="32" rx="3" fill="#7F77DD" transform="rotate(-10 740 56)"/>
<path d="M802.0,32.0 L807.4,46.5 L822.9,47.2 L810.8,56.9 L814.9,71.8 L802.0,63.2 L789.1,71.8 L793.2,56.9 L781.1,47.2 L796.6,46.5 Z" fill="#3C3489"/>
<path d="M856.0,32.0 L861.4,46.5 L876.9,47.2 L864.8,56.9 L868.9,71.8 L856.0,63.2 L843.1,71.8 L847.2,56.9 L835.1,47.2 L850.6,46.5 Z" fill="#534AB7"/>
<path d="M910.0,32.0 L915.4,46.5 L930.9,47.2 L918.8,56.9 L922.9,71.8 L910.0,63.2 L897.1,71.8 L901.2,56.9 L889.1,47.2 L904.6,46.5 Z" fill="#3C3489"/>
<path d="M964.0,32.0 L969.4,46.5 L984.9,47.2 L972.8,56.9 L976.9,71.8 L964.0,63.2 L951.1,71.8 L955.2,56.9 L943.1,47.2 L958.6,46.5 Z" fill="#534AB7"/>
<path d="M1021.8,0.7 L1023.7,17.5 L1039.9,22.3 L1024.5,29.3 L1025.0,46.3 L1013.6,33.8 L997.6,39.4 L1005.9,24.7 L995.6,11.3 L1012.2,14.7 Z" fill="#f3c46a"/>
<line x1="996" y1="54" x2="1038" y2="54" stroke="#AFA9EC" stroke-width="3" stroke-dasharray="6 8"/>
<path d="M0,158 C190,148 400,172 620,160 C840,148 1030,170 1200,158 V200 H0 Z" fill="#534AB7"/>
<path d="M0,178 C220,170 460,192 700,180 C920,170 1080,186 1200,178 V200 H0 Z" fill="#3C3489"/>
<path d="M0,194 C260,190 540,199 800,194 C1000,190 1120,197 1200,194 V200 H0 Z" fill="#26215C"/>
</svg>
