<svg xmlns="http://www.w3.org/2000/svg" viewBox="0 0 1200 200" role="img" aria-label="Eine Trauminsel mit Palme schwebt im Himmel über dem Meer — nur der Traum hat eine Sonne">
<rect width="1200" height="200" fill="#EEEDFE"/>
<circle cx="822" cy="30" r="16" fill="#f3c46a"/>
<circle cx="822" cy="30" r="24" fill="none" stroke="#f3c46a" stroke-width="1.8" opacity="0.45"/>
<g transform="translate(0,8)">
<path d="M600,84 C630,62 740,62 772,84 C750,96 622,96 600,84 Z" fill="#7F77DD"/>
<path d="M620,84 C660,74 716,74 754,84 C716,78 658,78 620,84 Z" fill="#534AB7"/>
<path d="M676,76 C673,58 678,40 692,26 C695,42 690,60 686,76 Z" fill="#26215C"/>
<path d="M690,29 C678,16 658,12 645,19 C659,24 674,29 687,37 Z" fill="#3C3489"/>
<path d="M692,28 C705,14 726,12 738,19 C724,24 708,31 694,37 Z" fill="#3C3489"/>
<path d="M691,27 C690,14 697,4 709,0 C704,11 698,20 695,30 Z" fill="#3C3489"/>
<path d="M689,28 C676,24 662,27 654,36 C666,36 678,33 689,32 Z" fill="#26215C"/>
</g>
<circle cx="640" cy="112" r="5.5" fill="#AFA9EC"/>
<circle cx="618" cy="128" r="4" fill="#AFA9EC"/>
<path d="M290,58 q10,-8 20,0 M322,46 q10,-8 20,0" fill="none" stroke="#534AB7" stroke-width="3" stroke-linecap="round"/>
<path d="M0,142 C180,128 380,152 600,141 C820,130 1020,152 1200,140 V200 H0 Z" fill="#534AB7"/>
<path d="M0,164 C210,152 440,176 660,164 C880,152 1050,174 1200,163 V200 H0 Z" fill="#3C3489"/>
<path d="M0,188 C240,180 500,196 760,188 C980,181 1110,192 1200,187 V200 H0 Z" fill="#26215C"/>
</svg>
