<svg xmlns="http://www.w3.org/2000/svg" viewBox="0 0 1200 200" role="img" aria-label="Ein griechischer Tempel auf dem Wellenberg unter der goldenen Sonne und den Sternen">
<rect width="1200" height="200" fill="#EEEDFE"/>
<circle cx="905" cy="52" r="27" fill="#f3c46a"/>
<circle cx="905" cy="52" r="38" fill="none" stroke="#f3c46a" stroke-width="2" opacity="0.4"/>
<path d="M0,150 L150,102 L300,150 Z" fill="#CECBF6"/>
<path d="M980,150 L1110,108 L1200,146 L1200,150 Z" fill="#CECBF6"/>
<circle cx="360" cy="44" r="3" fill="#AFA9EC"/>
<circle cx="470" cy="70" r="2.5" fill="#AFA9EC"/>
<circle cx="720" cy="40" r="2.5" fill="#AFA9EC"/>
<circle cx="1055" cy="66" r="2.5" fill="#AFA9EC"/>
<g fill="#3C3489">
<path d="M468,96 L600,56 L732,96 Z"/>
<rect x="472" y="96" width="256" height="12"/>
<rect x="484" y="108" width="14" height="40"/>
<rect x="520" y="108" width="14" height="40"/>
<rect x="556" y="108" width="14" height="40"/>
<rect x="592" y="108" width="14" height="40"/>
<rect x="628" y="108" width="14" height="40"/>
<rect x="664" y="108" width="14" height="40"/>
<rect x="700" y="108" width="14" height="40"/>
<rect x="464" y="148" width="272" height="6"/>
</g>
<path d="M0,150 C190,132 400,162 620,150 C840,134 1030,162 1200,150 V200 H0 Z" fill="#534AB7"/>
<circle cx="250" cy="164" r="3" fill="#AFA9EC" opacity="0.6"/>
<circle cx="980" cy="162" r="3" fill="#AFA9EC" opacity="0.6"/>
<path d="M0,172 C220,158 460,184 700,170 C920,158 1080,180 1200,171 V200 H0 Z" fill="#3C3489"/>
<path d="M0,190 C240,182 500,198 760,191 C980,186 1120,196 1200,191 V200 H0 Z" fill="#26215C"/>
</svg>
