<svg xmlns="http://www.w3.org/2000/svg" viewBox="0 0 1200 200" role="img" aria-label="Das Raster der Teilchen ist fast vollständig — genau ein Feld ist leer, und das goldene Teilchen schwebt schon auf seine Lücke zu">
<rect width="1200" height="200" fill="#EEEDFE"/>
<rect x="460" y="30" width="34" height="34" rx="5" fill="#AFA9EC"/>
<rect x="502" y="30" width="34" height="34" rx="5" fill="#AFA9EC"/>
<rect x="544" y="30" width="34" height="34" rx="5" fill="#AFA9EC"/>
<rect x="586" y="30" width="34" height="34" rx="5" fill="#AFA9EC"/>
<rect x="628" y="30" width="34" height="34" rx="5" fill="#AFA9EC"/>
<rect x="670" y="30" width="34" height="34" rx="5" fill="#AFA9EC"/>
<rect x="460" y="72" width="34" height="34" rx="5" fill="#7F77DD"/>
<rect x="502" y="72" width="34" height="34" rx="5" fill="#7F77DD"/>
<rect x="544" y="72" width="34" height="34" rx="5" fill="#7F77DD"/>
<rect x="586" y="72" width="34" height="34" rx="5" fill="#7F77DD"/>
<rect x="628" y="72" width="34" height="34" rx="5" fill="#7F77DD"/>
<rect x="670" y="72" width="34" height="34" rx="5" fill="#7F77DD"/>
<rect x="460" y="114" width="34" height="34" rx="5" fill="#534AB7"/>
<rect x="502" y="114" width="34" height="34" rx="5" fill="#534AB7"/>
<rect x="544" y="114" width="34" height="34" rx="5" fill="#534AB7"/>
<rect x="586" y="114" width="34" height="34" rx="5" fill="#534AB7"/>
<rect x="628" y="114" width="34" height="34" rx="5" fill="#534AB7"/>
<rect x="670" y="114" width="34" height="34" rx="5" fill="none" stroke="#AFA9EC" stroke-width="3" stroke-dasharray="6 6"/>
<path d="M796,88 C766,96 730,104 712,120" fill="none" stroke="#CECBF6" stroke-width="3" stroke-linecap="round" stroke-dasharray="2 10"/>
<rect x="792" y="52" width="34" height="34" rx="5" fill="#f3c46a"/>
<path d="M300,52 q10,-8 20,0 M330,40 q10,-8 20,0" fill="none" stroke="#534AB7" stroke-width="3" stroke-linecap="round"/>
<circle cx="900" cy="120" r="3.5" fill="#CECBF6"/>
<path d="M0,152 C190,136 400,166 620,152 C840,138 1020,168 1200,152 V200 H0 Z" fill="#3C3489"/>
<path d="M0,180 C240,170 500,196 760,182 C960,173 1100,190 1200,180 V200 H0 Z" fill="#26215C"/>
</svg>