<svg xmlns="http://www.w3.org/2000/svg" viewBox="0 0 1200 200" role="img" aria-label="Eine Schreibfeder zieht die Umlaufbahn des goldenen Planeten — die gezogene Linie ist zugleich die vorderste Welle">
<rect width="1200" height="200" fill="#EEEDFE"/>
<circle cx="220" cy="50" r="2" fill="#EEEDFE" opacity="0.45"/><circle cx="340" cy="90" r="1.5" fill="#EEEDFE" opacity="0.4"/><circle cx="960" cy="52" r="2" fill="#EEEDFE" opacity="0.45"/><circle cx="1030" cy="96" r="1.6" fill="#EEEDFE" opacity="0.4"/><circle cx="160" cy="110" r="1.5" fill="#EEEDFE" opacity="0.35"/>
<circle cx="250" cy="70" r="22" fill="#f3c46a"/>
<ellipse cx="250" cy="70" rx="36" ry="11" fill="none" stroke="#f3c46a" stroke-width="2" opacity="0.4"/>
<path d="M0,150 C150,132 320,120 470,132 C620,144 720,150 792,150 L792,200 L0,200 Z" fill="#534AB7"/>
<path d="M0,150 C150,132 320,120 470,132 C620,144 720,150 794,150" fill="none" stroke="#3C3489" stroke-width="4" stroke-linecap="round"/>
<g transform="translate(794,150) rotate(-34)"><path d="M0,0 C-10,-14 -16,-34 -14,-58 L14,-58 C16,-34 10,-14 0,0 Z" fill="#26215C"/><circle cx="0" cy="-40" r="5" fill="#EEEDFE"/><line x1="0" y1="-34" x2="0" y2="-8" stroke="#EEEDFE" stroke-width="3" stroke-linecap="round"/><rect x="-15" y="-70" width="30" height="12" rx="4" fill="#534AB7"/><path d="M-6,-70 C-10,-102 2,-128 34,-148 C22,-118 26,-92 12,-70 Z" fill="#7F77DD"/><path d="M-2,-72 C-6,-100 4,-124 30,-142" fill="none" stroke="#534AB7" stroke-width="2.5"/></g>
<path d="M0,150 C190,132 380,164 600,150 C820,136 1010,166 1200,150 V200 H0 Z" fill="#3C3489"/><path d="M0,180 C220,166 460,192 700,178 C920,166 1080,188 1200,178 V200 H0 Z" fill="#26215C"/>
</svg>