<svg xmlns="http://www.w3.org/2000/svg" viewBox="0 0 1200 200" role="img" aria-label="Der Zeiger einer Sonnenuhr wirft seinen Schatten — und der Schatten wird zum Weg, der in die Ferne führt; rechts steht die goldene Sonne">
<rect width="1200" height="200" fill="#EEEDFE"/>
<circle cx="930" cy="44" r="26" fill="#f3c46a"/>
<circle cx="930" cy="44" r="37" fill="none" stroke="#f3c46a" stroke-width="2" opacity="0.4"/>
<path d="M120,116 L250,64 L380,116 Z" fill="#CECBF6"/>
<path d="M300,116 L430,46 L560,116 Z" fill="#AFA9EC"/>
<path d="M0,118 C180,104 380,130 600,120 C820,110 1000,128 1200,116 V200 H0 Z" fill="#7F77DD"/>
<path d="M0,152 C140,142 300,164 470,158 L400,200 H0 Z" fill="#534AB7"/>
<path d="M700,200 L860,166 C980,154 1090,172 1200,160 V200 Z" fill="#534AB7"/>
<path d="M0,182 C110,176 220,188 320,196 L324,200 H0 Z" fill="#26215C"/>
<path d="M840,200 L960,184 C1060,176 1130,188 1200,182 V200 Z" fill="#26215C"/>
<path d="M756,128 L716,128 L400,200 L700,200 Z" fill="#3C3489"/>
<g fill="#EEEDFE" opacity="0.5">
<rect x="616" y="146" width="26" height="6" rx="3" transform="rotate(-11 629 149)"/>
<rect x="578" y="168" width="34" height="7" rx="3" transform="rotate(-11 595 171)"/>
<rect x="528" y="190" width="44" height="8" rx="4" transform="rotate(-11 550 194)"/>
</g>
<ellipse cx="736" cy="128" rx="72" ry="16" fill="#534AB7"/>
<g stroke="#EEEDFE" stroke-width="2" opacity="0.5" stroke-linecap="round">
<line x1="672" y1="126" x2="682" y2="126"/><line x1="700" y1="116" x2="704" y2="120"/>
<line x1="736" y1="113" x2="736" y2="118"/><line x1="772" y1="116" x2="768" y2="120"/>
<line x1="800" y1="126" x2="790" y2="126"/>
</g>
<path d="M718,128 L748,54 L756,128 Z" fill="#26215C"/>
<path d="M726,72 L744,68" stroke="#EEEDFE" stroke-width="2" opacity="0.35"/>
<path d="M190,74 q10,-8 20,0 M220,62 q10,-8 20,0" fill="none" stroke="#534AB7" stroke-width="3" stroke-linecap="round"/>
<circle cx="1080" cy="140" r="4" fill="#EEEDFE" opacity="0.5"/>
</svg>
