<svg xmlns="http://www.w3.org/2000/svg" viewBox="0 0 1200 200" role="img" aria-label="Ein goldener Herz-Luftballon ist an die leere Bank am Ufer gebunden">
<rect width="1200" height="200" fill="#EEEDFE"/>
<path d="M330,40 q9,-8 18,0 M352,40 q9,-8 18,0" stroke="#7F77DD" stroke-width="4" fill="none" stroke-linecap="round"/>
<path d="M290,66 q7,-6 14,0 M308,66 q7,-6 14,0" stroke="#AFA9EC" stroke-width="3.5" fill="none" stroke-linecap="round"/>
<path d="M0,120 C180,106 360,130 560,118 C780,104 1000,132 1200,116 V200 H0 Z" fill="#CECBF6"/>
<path d="M736,46 C736,26 714,15 700,28 C686,15 664,26 664,46 C664,64 688,77 700,88 C712,77 736,64 736,46 Z" fill="#f3c46a"/>
<path d="M700,88 l-5,9 10,0 Z" fill="#f3c46a"/>
<path d="M700,97 C688,118 706,132 668,148" stroke="#26215C" stroke-width="3" fill="none" stroke-linecap="round"/>
<g fill="#26215C">
<rect x="560" y="146" width="150" height="10" rx="5"/>
<rect x="566" y="128" width="138" height="9" rx="4.5"/>
<rect x="572" y="112" width="126" height="8" rx="4"/>
<rect x="570" y="146" width="10" height="34" rx="3"/>
<rect x="690" y="146" width="10" height="34" rx="3"/>
<rect x="566" y="122" width="9" height="28" rx="3"/>
<rect x="695" y="122" width="9" height="28" rx="3"/>
</g>
<path d="M0,160 C220,146 440,172 660,160 C880,148 1060,174 1200,160 V200 H0 Z" fill="#534AB7"/>
<path d="M0,184 C260,172 520,196 760,184 C960,176 1100,194 1200,186 V200 H0 Z" fill="#26215C"/>
</svg>
