<svg xmlns="http://www.w3.org/2000/svg" viewBox="0 0 1200 200" role="img" aria-label="Eine Kette aus Wortkarten zwischen zwei Säulen — eine goldene Karte fehlt und schwebt heran">
<rect width="1200" height="200" fill="#EEEDFE"/>
<g fill="#3C3489">
<rect x="316" y="70" width="24" height="80"/><rect x="308" y="62" width="40" height="10"/><rect x="308" y="144" width="40" height="7"/>
<rect x="860" y="70" width="24" height="80"/><rect x="852" y="62" width="40" height="10"/><rect x="852" y="144" width="40" height="7"/>
</g>
<path d="M340,80 Q600,142 860,80" fill="none" stroke="#534AB7" stroke-width="2.5"/>
<g fill="#7F77DD">
<rect x="392" y="92" width="30" height="20" rx="3"/>
<rect x="470" y="106" width="30" height="20" rx="3"/>
<rect x="700" y="106" width="30" height="20" rx="3"/>
<rect x="778" y="92" width="30" height="20" rx="3"/>
</g>
<rect x="585" y="120" width="30" height="20" rx="3" fill="none" stroke="#AFA9EC" stroke-width="2" stroke-dasharray="4 4"/>
<rect x="584" y="52" width="32" height="22" rx="3" fill="#f3c46a"/>
<path d="M600,74 L600,116" stroke="#f3c46a" stroke-width="2" stroke-dasharray="2 7" stroke-linecap="round"/>
<path d="M0,158 C220,150 500,172 760,162 C980,154 1100,168 1200,162 V200 H0 Z" fill="#3C3489"/>
<path d="M0,184 C240,176 500,196 760,186 C980,178 1120,192 1200,186 V200 H0 Z" fill="#26215C"/>
</svg>
