<svg xmlns="http://www.w3.org/2000/svg" viewBox="0 0 1200 200" role="img" aria-label="Von zwei gegenüberliegenden Sprechblasen wächst je eine Wellenlinie zur Mitte — sie treffen sich und werden zu einem gemeinsamen Ufer; wo sie sich begegnen, leuchtet es golden"><rect width="1200" height="200" fill="#EEEDFE"/><path d="M0,110 C160,90 340,120 520,104 C700,88 900,120 1080,104 C1140,99 1180,106 1200,102 V200 H0 Z" fill="#DAD8F6"/><path d="M250,66 h56 a11,11 0 0 1 11,11 v18 a11,11 0 0 1 -11,11 h-8 l-12,12 v-12 h-36 a11,11 0 0 1 -11,-11 v-18 a11,11 0 0 1 11,-11 Z" fill="#7F77DD"/><path d="M894,66 h56 a11,11 0 0 1 11,11 v18 a11,11 0 0 1 -11,11 h-36 l-12,12 v-12 h-8 a11,11 0 0 1 -11,-11 v-18 a11,11 0 0 1 11,-11 Z" fill="#7F77DD"/><path d="M296,118 C420,132 520,120 600,116" fill="none" stroke="#534AB7" stroke-width="6" stroke-linecap="round"/><path d="M904,118 C780,132 680,120 600,116" fill="none" stroke="#534AB7" stroke-width="6" stroke-linecap="round"/><circle cx="600" cy="114" r="9" fill="#f3c46a"/><path d="M0,150 C190,132 400,164 620,150 C840,136 1020,166 1200,150 V200 H0 Z" fill="#3C3489"/><path d="M0,180 C240,166 480,192 720,178 C940,166 1090,188 1200,178 V200 H0 Z" fill="#26215C"/></svg>