<svg xmlns="http://www.w3.org/2000/svg" viewBox="0 0 1200 200" role="img" aria-label="Die Unterkante der Wolke hat genau die Form der Wellenlinie darunter — Himmel und Gemüt zeichnen dieselbe Kurve; im Kanal dazwischen steht die goldene Sonne">
<rect width="1200" height="200" fill="#EEEDFE"/>
<g fill="#AFA9EC">
<g transform="translate(0,-72)"><path d="M0,172 C160,166 320,178 480,168 C640,158 780,140 920,128 C1030,119 1120,118 1200,116 L1200,116 L0,116 Z"/></g>
<ellipse cx="140" cy="44" rx="170" ry="42"/><ellipse cx="430" cy="38" rx="180" ry="46"/><ellipse cx="720" cy="44" rx="170" ry="40"/><ellipse cx="980" cy="52" rx="140" ry="32"/><ellipse cx="1170" cy="58" rx="110" ry="26"/>
</g>
<circle cx="1010" cy="90" r="22" fill="#f3c46a"/>
<circle cx="1010" cy="90" r="33" fill="none" stroke="#f3c46a" stroke-width="2" opacity="0.42"/>
<path d="M300,118 q10,-8 20,0 M330,106 q10,-8 20,0" fill="none" stroke="#7F77DD" stroke-width="3" stroke-linecap="round"/>
<path d="M0,172 C160,166 320,178 480,168 C640,158 780,140 920,128 C1030,119 1120,118 1200,116 L1200,200 L0,200 Z" fill="#7F77DD"/>
<path d="M0,172 C160,166 320,178 480,168 C640,158 780,140 920,128 C1030,119 1120,118 1200,116" fill="none" stroke="#534AB7" stroke-width="4" stroke-linecap="round"/>
<path d="M0,184 C220,176 460,196 700,185 C920,176 1080,190 1200,183 V200 H0 Z" fill="#3C3489"/>
<path d="M0,195 C260,191 540,199 800,195 C1000,192 1120,197 1200,195 V200 H0 Z" fill="#26215C"/>
</svg>