<svg xmlns="http://www.w3.org/2000/svg" viewBox="0 0 1200 200" role="img" aria-label="Stufe um Stufe fuegen sich Teilchen zum Molekuel zusammen — der goldene Baustein schliesst die Kette ueber der Welle">
<rect width="1200" height="200" fill="#EEEDFE"/>
<g stroke="#534AB7" stroke-width="4">
<line x1="360" y1="120" x2="440" y2="96"/><line x1="440" y1="96" x2="520" y2="120"/><line x1="520" y1="120" x2="600" y2="96"/><line x1="600" y1="96" x2="680" y2="120"/><line x1="680" y1="120" x2="760" y2="96"/>
</g>
<g fill="#7F77DD"><circle cx="360" cy="120" r="13"/><circle cx="440" cy="96" r="13"/><circle cx="520" cy="120" r="13"/><circle cx="600" cy="96" r="13"/><circle cx="680" cy="120" r="13"/></g>
<line x1="760" y1="96" x2="820" y2="72" stroke="#f3c46a" stroke-width="4" stroke-dasharray="4 5"/>
<circle cx="836" cy="66" r="14" fill="#f3c46a"/>
<path d="M0,148 C200,130 430,162 690,148 C910,136 1080,158 1200,148 V200 H0 Z" fill="#3C3489"/>
<path d="M0,138 C220,122 470,150 720,140 C950,132 1090,150 1200,140 V200 H0 Z" fill="#534AB7"/>
<path d="M0,150 C190,132 400,164 620,150 C840,136 1020,164 1200,150 V200 H0 Z" fill="#3C3489"/>
<path d="M0,180 C240,166 480,192 720,178 C940,166 1090,188 1200,178 V200 H0 Z" fill="#26215C"/>
</svg>
