<svg xmlns="http://www.w3.org/2000/svg" viewBox="0 0 1200 200" role="img" aria-label="Wegweiser mit goldenem Richtungspfeil — Multiple Choice"><rect width="1200" height="200" fill="#EEEDFE"/><line x1="600" y1="30" x2="600" y2="124" stroke="#26215C" stroke-width="8" stroke-linecap="round"/><path d="M600,46 L520,46 L504,58 L520,70 L600,70 Z" fill="#534AB7"/><path d="M600,58 L688,58 L704,70 L688,82 L600,82 Z" fill="#f3c46a"/><path d="M600,86 L534,86 L518,98 L534,110 L600,110 Z" fill="#7F77DD"/><path d="M320,40 q10,-8 20,0 M350,28 q10,-8 20,0" fill="none" stroke="#534AB7" stroke-width="3" stroke-linecap="round"/><path d="M0,124 C160,106 320,140 480,124 C640,108 820,142 1000,124 C1090,115 1150,122 1200,118 V200 H0 Z" fill="#534AB7"/><path d="M0,152 C180,134 380,166 600,152 C820,138 1010,168 1200,152 V200 H0 Z" fill="#3C3489"/><path d="M0,178 C220,164 460,190 700,176 C920,164 1080,188 1200,178 V200 H0 Z" fill="#26215C"/></svg>