<svg xmlns="http://www.w3.org/2000/svg" viewBox="0 0 1200 200" role="img" aria-label="Ein Filmprojektor wirft sein goldenes Licht auf die Leinwand — dort läuft dieselbe Wellenlandschaft weiter">
<rect width="1200" height="200" fill="#EEEDFE"/>
<path d="M150,44 q10,-8 20,0 M182,34 q10,-8 20,0" fill="none" stroke="#534AB7" stroke-width="3" stroke-linecap="round"/>
<path d="M0,118 C180,104 420,126 660,114 C880,104 1060,122 1200,112 V200 H0 Z" fill="#CECBF6"/>
<rect x="700" y="146" width="10" height="28" fill="#26215C"/>
<rect x="850" y="146" width="10" height="28" fill="#26215C"/>
<path d="M344,104 L640,36 L640,132 L344,120 Z" fill="#f3c46a" opacity="0.5"/>
<rect x="640" y="30" width="280" height="108" rx="8" fill="#26215C"/>
<rect x="652" y="42" width="256" height="84" rx="3" fill="#EEEDFE"/>
<path d="M266,52 q8,-7 16,0" fill="none" stroke="#534AB7" stroke-width="2.5" stroke-linecap="round" transform="translate(560,6)"/>
<path d="M652,96 C700,88 760,102 820,94 C860,89 888,96 908,93 L908,126 L652,126 Z" fill="#AFA9EC"/>
<path d="M652,112 C710,106 780,118 850,111 C880,108 898,113 908,111 L908,126 L652,126 Z" fill="#534AB7"/>
<rect x="652" y="42" width="256" height="84" rx="3" fill="#f3c46a" opacity="0.16"/>
<circle cx="430" cy="98" r="2.5" fill="#EEEDFE"/>
<circle cx="500" cy="92" r="2" fill="#EEEDFE"/>
<circle cx="570" cy="82" r="2.5" fill="#EEEDFE"/>
<path d="M0,148 C200,134 420,158 640,146 C860,136 1040,158 1200,148 V200 H0 Z" fill="#7F77DD"/>
<circle cx="268" cy="82" r="17" fill="#26215C"/>
<circle cx="268" cy="82" r="5" fill="#EEEDFE"/>
<circle cx="306" cy="76" r="13" fill="#26215C"/>
<circle cx="306" cy="76" r="4" fill="#EEEDFE"/>
<rect x="246" y="94" width="88" height="34" rx="7" fill="#26215C"/>
<path d="M334,102 L348,106 L348,120 L334,124 Z" fill="#26215C"/>
<circle cx="348" cy="113" r="6" fill="#f3c46a"/>
<line x1="272" y1="128" x2="258" y2="152" stroke="#26215C" stroke-width="6" stroke-linecap="round"/>
<line x1="300" y1="128" x2="314" y2="152" stroke="#26215C" stroke-width="6" stroke-linecap="round"/>
<path d="M0,168 C240,156 500,180 760,167 C980,156 1110,176 1200,166 V200 H0 Z" fill="#3C3489"/>
<path d="M0,186 C260,177 540,198 800,186 C1010,178 1140,192 1200,186 V200 H0 Z" fill="#26215C"/>
</svg>
