<svg xmlns="http://www.w3.org/2000/svg" viewBox="0 0 1200 200" role="img" aria-label="Die Kurve eines Liniendiagramms ist zugleich die Wellenkante — in ihrem Zug fehlt ein Messpunkt, der goldene Punkt schwebt darueber">
<rect width="1200" height="200" fill="#EEEDFE"/>
<path d="M0,140 L180,120 L360,150 L520,96 L640,124 L760,80 L1000,120 L1200,104 V200 H0 Z" fill="#7F77DD"/>
<path d="M0,140 L180,120 L360,150 L520,96 L640,124" fill="none" stroke="#26215C" stroke-width="4" stroke-linecap="round"/>
<path d="M760,80 L1000,120 L1200,104" fill="none" stroke="#26215C" stroke-width="4" stroke-linecap="round"/>
<line x1="640" y1="124" x2="760" y2="80" stroke="#AFA9EC" stroke-width="2" stroke-dasharray="5 6"/>
<circle cx="700" cy="66" r="9" fill="#f3c46a"/>
<circle cx="360" cy="150" r="5" fill="#26215C"/><circle cx="520" cy="96" r="5" fill="#26215C"/>
<path d="M0,158 C210,144 470,176 720,162 C940,150 1090,172 1200,162 V200 H0 Z" fill="#3C3489"/>
<path d="M0,150 C190,132 400,164 620,150 C840,136 1020,164 1200,150 V200 H0 Z" fill="#3C3489"/>
<path d="M0,180 C240,166 480,192 720,178 C940,166 1090,188 1200,178 V200 H0 Z" fill="#26215C"/>
</svg>
