<svg xmlns="http://www.w3.org/2000/svg" viewBox="0 0 1200 200" role="img" aria-label="Die Feder füllt das letzte, goldene Feld des Formulars — und ihre geschriebene Linie ist zugleich die vordere Welle">
<rect width="1200" height="200" fill="#EEEDFE"/>
<rect x="820" y="60" width="150" height="104" rx="5" fill="#CECBF6"/>
<g stroke="#7F77DD" stroke-width="5" stroke-linecap="round"><line x1="836" y1="80" x2="954" y2="80"/><line x1="836" y1="100" x2="936" y2="100"/><line x1="836" y1="120" x2="948" y2="120"/></g>
<rect x="836" y="134" width="118" height="16" rx="3" fill="#f3c46a"/>
<path d="M0,120 C150,110 320,128 500,120 C640,114 740,122 836,142 L836,200 L0,200 Z" fill="#7F77DD"/>
<path d="M0,120 C150,110 320,128 500,120 C640,114 740,122 834,142" fill="none" stroke="#534AB7" stroke-width="4" stroke-linecap="round"/>
<g transform="translate(832,140) rotate(28)"><path d="M0,0 C-8,-12 -13,-28 -11,-48 L11,-48 C13,-28 8,-12 0,0 Z" fill="#26215C"/><line x1="0" y1="-30" x2="0" y2="-8" stroke="#EEEDFE" stroke-width="3" stroke-linecap="round"/><rect x="-12" y="-58" width="24" height="10" rx="3" fill="#534AB7"/><path d="M-5,-58 C-8,-86 2,-108 26,-124 C16,-98 20,-76 8,-58 Z" fill="#7F77DD"/></g>
<path d="M0,158 C190,140 400,170 620,156 C840,142 1020,172 1200,156 V200 H0 Z" fill="#3C3489"/>
<path d="M0,184 C240,170 480,196 720,182 C940,170 1090,192 1200,182 V200 H0 Z" fill="#26215C"/>
</svg>
