<svg xmlns="http://www.w3.org/2000/svg" viewBox="0 0 1200 200" role="img" aria-label="Über der wirklichen Berglandschaft schwebt eine gestrichelte, nur erdachte Bergkette — der irreale Wunsch, unter dem goldenen Mond">
<rect width="1200" height="200" fill="#EEEDFE"/>
<path d="M320,40 a24,24 0 1 0 0,44 a30,30 0 0 1 0,-44 Z" fill="#f3c46a"/>
<path d="M560,124 L720,44 L880,124 Z" fill="#7F77DD"/>
<path d="M700,96 L840,30 L980,96" fill="none" stroke="#AFA9EC" stroke-width="4" stroke-dasharray="10 8" stroke-linecap="round"/>
<path d="M760,120 L860,150" fill="none" stroke="#AFA9EC" stroke-width="2.5" stroke-dasharray="4 6"/>
<path d="M120,124 L250,72 L380,124 Z" fill="#CECBF6"/>
<path d="M470,70 q10,-8 20,0 M500,60 q10,-8 20,0" fill="none" stroke="#534AB7" stroke-width="3" stroke-linecap="round"/>
<path d="M0,134 C170,112 340,142 520,130 C700,118 900,144 1200,128 V200 H0 Z" fill="#7F77DD"/>
<path d="M0,158 C190,140 400,170 620,156 C840,142 1020,172 1200,156 V200 H0 Z" fill="#3C3489"/>
<path d="M0,184 C240,170 480,196 720,182 C940,170 1090,192 1200,182 V200 H0 Z" fill="#26215C"/>
</svg>
