<svg xmlns="http://www.w3.org/2000/svg" viewBox="0 0 1200 200" role="img" aria-label="Panorama europäischer Dächer und Türme über der Welle — darüber ein Kranz aus Sternen, einer leuchtet golden">
<rect width="1200" height="200" fill="#EEEDFE"/>
<g fill="none" stroke="#AFA9EC" stroke-width="3">
<path d="M470,58 l3,7 8,0 -6,5 2,8 -7,-4 -7,4 2,-8 -6,-5 8,0 z"/>
<path d="M540,42 l3,7 8,0 -6,5 2,8 -7,-4 -7,4 2,-8 -6,-5 8,0 z"/>
<path d="M660,42 l3,7 8,0 -6,5 2,8 -7,-4 -7,4 2,-8 -6,-5 8,0 z"/>
<path d="M730,58 l3,7 8,0 -6,5 2,8 -7,-4 -7,4 2,-8 -6,-5 8,0 z"/>
</g>
<path d="M600,30 l3.5,8 9,0 -7,6 2.5,9 -8,-5 -8,5 2.5,-9 -7,-6 9,0 z" fill="#f3c46a"/>
<g fill="#CECBF6"><rect x="300" y="104" width="34" height="36"/><rect x="340" y="92" width="26" height="48"/><rect x="864" y="98" width="30" height="42"/><rect x="900" y="108" width="26" height="32"/></g>
<g fill="#AFA9EC"><rect x="400" y="106" width="40" height="34"/><path d="M400,106 L420,88 L440,106 Z"/><rect x="770" y="104" width="40" height="36"/><path d="M770,104 L790,86 L810,104 Z"/></g>
<g fill="#534AB7"><rect x="470" y="110" width="34" height="30"/><rect x="700" y="108" width="34" height="32"/></g>
<path d="M560,110 A38,42 0 0 1 636,110 Z" fill="#3C3489"/><rect x="556" y="110" width="84" height="30" fill="#3C3489"/><rect x="595" y="72" width="6" height="18" fill="#3C3489"/>
<g fill="#7F77DD"><rect x="524" y="120" width="26" height="20"/><rect x="646" y="120" width="26" height="20"/></g>
<path d="M0,150 C200,134 420,166 640,152 C860,138 1040,166 1200,152 V200 H0 Z" fill="#3C3489"/>
<path d="M0,180 C240,166 500,192 760,180 C980,168 1110,188 1200,180 V200 H0 Z" fill="#26215C"/>
</svg>