<svg xmlns="http://www.w3.org/2000/svg" viewBox="0 0 1200 200" role="img" aria-label="Eine Skyline aus digitalen Server-Türmen mit leuchtenden Fenstern und aufsteigenden Datenpunkten — die goldene Sonne der Digitalisierung geht auf">
<rect width="1200" height="200" fill="#EEEDFE"/>
<circle cx="300" cy="50" r="26" fill="#f3c46a"/>
<circle cx="300" cy="50" r="37" fill="none" stroke="#f3c46a" stroke-width="2" opacity="0.45"/>
<g fill="#AFA9EC"><rect x="430" y="86" width="44" height="60" rx="2"/></g>
<g fill="#7F77DD"><rect x="486" y="66" width="40" height="80" rx="2"/></g>
<g fill="#CECBF6"><rect x="542" y="96" width="46" height="50" rx="2"/></g>
<g fill="#7F77DD"><rect x="600" y="74" width="42" height="72" rx="2"/></g>
<g fill="#AFA9EC"><rect x="654" y="90" width="40" height="56" rx="2"/></g>
<g fill="#3C3489"><rect x="438" y="94" width="6" height="6"/><rect x="460" y="94" width="6" height="6"/><rect x="438" y="108" width="6" height="6"/><rect x="460" y="108" width="6" height="6"/><rect x="438" y="122" width="6" height="6"/><rect x="460" y="122" width="6" height="6"/><rect x="438" y="136" width="6" height="6"/><rect x="460" y="136" width="6" height="6"/><rect x="494" y="74" width="6" height="6"/><rect x="512" y="74" width="6" height="6"/><rect x="494" y="88" width="6" height="6"/><rect x="512" y="88" width="6" height="6"/><rect x="494" y="102" width="6" height="6"/><rect x="512" y="102" width="6" height="6"/><rect x="494" y="116" width="6" height="6"/><rect x="512" y="116" width="6" height="6"/><rect x="494" y="130" width="6" height="6"/><rect x="512" y="130" width="6" height="6"/><rect x="550" y="104" width="6" height="6"/><rect x="574" y="104" width="6" height="6"/><rect x="550" y="118" width="6" height="6"/><rect x="574" y="118" width="6" height="6"/><rect x="550" y="132" width="6" height="6"/><rect x="574" y="132" width="6" height="6"/><rect x="608" y="82" width="6" height="6"/><rect x="628" y="82" width="6" height="6"/><rect x="608" y="96" width="6" height="6"/><rect x="628" y="96" width="6" height="6"/><rect x="608" y="110" width="6" height="6"/><rect x="628" y="110" width="6" height="6"/><rect x="608" y="124" width="6" height="6"/><rect x="628" y="124" width="6" height="6"/><rect x="608" y="138" width="6" height="6"/><rect x="628" y="138" width="6" height="6"/><rect x="662" y="98" width="6" height="6"/><rect x="680" y="98" width="6" height="6"/><rect x="662" y="112" width="6" height="6"/><rect x="680" y="112" width="6" height="6"/><rect x="662" y="126" width="6" height="6"/><rect x="680" y="126" width="6" height="6"/></g>
<g fill="#534AB7"><circle cx="760" cy="70" r="3"/><circle cx="760" cy="86" r="3"/><circle cx="760" cy="102" r="3"/><circle cx="800" cy="80" r="3"/><circle cx="800" cy="96" r="3"/></g>
<path d="M0,134 C170,112 340,142 520,130 C700,118 900,144 1200,128 V200 H0 Z" fill="#7F77DD"/>
<path d="M0,158 C190,140 400,170 620,156 C840,142 1020,172 1200,156 V200 H0 Z" fill="#3C3489"/>
<path d="M0,184 C240,170 480,196 720,182 C940,170 1090,192 1200,182 V200 H0 Z" fill="#26215C"/>
</svg>
