<svg xmlns="http://www.w3.org/2000/svg" viewBox="0 0 1200 200" role="img" aria-label="Sportpanorama: eine Laufbahn schwingt zum Tor, die Sonne geht auf"><rect width="1200" height="200" fill="#EEEDFE"/><circle cx="300" cy="54" r="30" fill="#f3c46a"/><circle cx="300" cy="54" r="42" fill="none" stroke="#f3c46a" stroke-width="2" opacity="0.45"/><path d="M0,118 L150,84 L300,118 Z" fill="#CECBF6"/><path d="M240,120 L430,70 L620,120 Z" fill="#AFA9EC"/><g stroke="#26215C" stroke-width="6" fill="none" stroke-linecap="round"><line x1="790" y1="60" x2="790" y2="132"/><line x1="980" y1="60" x2="980" y2="132"/><line x1="790" y1="60" x2="980" y2="60"/></g><g stroke="#7F77DD" stroke-width="1.4" opacity="0.8"><line x1="812" y1="64" x2="812" y2="130"/><line x1="852" y1="64" x2="852" y2="130"/><line x1="892" y1="64" x2="892" y2="130"/><line x1="932" y1="64" x2="932" y2="130"/><line x1="794" y1="82" x2="978" y2="82"/><line x1="794" y1="104" x2="978" y2="104"/></g><path d="M0,132 C200,112 420,146 640,130 C860,116 1040,146 1200,132 V200 H0 Z" fill="#7F77DD"/><path d="M0,132 C200,112 420,146 640,130 C860,116 1040,146 1200,132" fill="none" stroke="#EEEDFE" stroke-width="2" stroke-dasharray="14 12" opacity="0.55"/><circle cx="150" cy="126" r="4.5" fill="#EEEDFE" opacity="0.6"/><circle cx="1050" cy="126" r="3.5" fill="#EEEDFE" opacity="0.5"/><path d="M0,150 C200,134 420,166 640,150 C860,134 1040,166 1200,150 V200 H0 Z" fill="#3C3489"/><path d="M0,180 C240,166 480,192 720,178 C940,166 1090,188 1200,178 V200 H0 Z" fill="#26215C"/></svg>