<svg xmlns="http://www.w3.org/2000/svg" viewBox="0 0 1200 200" role="img" aria-label="Eine ruhige Wasserlandschaft mit aufgehender Sonne — mentale Ruhe"><rect width="1200" height="200" fill="#EEEDFE"/><circle cx="600" cy="120" r="34" fill="#f3c46a"/><circle cx="600" cy="120" r="48" fill="none" stroke="#f3c46a" stroke-width="2" opacity="0.35"/><g stroke="#3C3489" stroke-width="3" stroke-linecap="round" opacity="0.8"><line x1="430" y1="120" x2="430" y2="86"/><line x1="430" y1="86" x2="422" y2="78"/><line x1="430" y1="94" x2="440" y2="86"/></g><path d="M0,128 C150,106 320,142 500,124 C680,106 860,144 1040,124 C1110,116 1170,126 1200,120 V200 H0 Z" fill="#534AB7"/><path d="M0,150 C190,132 400,164 620,150 C840,136 1020,166 1200,150 V200 H0 Z" fill="#3C3489"/><g fill="#f3c46a" opacity="0.5"><circle cx="600" cy="160" r="3"/><circle cx="600" cy="172" r="2.4"/><circle cx="600" cy="182" r="2"/></g><path d="M0,182 C240,168 480,194 720,180 C940,168 1090,190 1200,180 V200 H0 Z" fill="#26215C"/></svg>