<svg xmlns="http://www.w3.org/2000/svg" viewBox="0 0 1200 200" role="img" aria-label="Eine Brücke spannt sich zwischen zwei Ufern — auf ihr reihen sich Sprechblasen, die mittlere leuchtet golden: Verständigung">
<rect width="1200" height="200" fill="#EEEDFE"/>
<path d="M330,120 Q600,40 870,120" fill="none" stroke="#534AB7" stroke-width="9"/>
<g stroke="#7F77DD" stroke-width="4">
<line x1="400" y1="97" x2="400" y2="120"/><line x1="470" y1="80" x2="470" y2="120"/><line x1="540" y1="70" x2="540" y2="120"/>
<line x1="660" y1="70" x2="660" y2="120"/><line x1="730" y1="80" x2="730" y2="120"/><line x1="800" y1="97" x2="800" y2="120"/>
</g>
<g fill="#3C3489"><path d="M452,56 h34 a7,7 0 0 1 7,7 v14 a7,7 0 0 1 -7,7 h-18 l-8,8 0,-8 h-8 a7,7 0 0 1 -7,-7 v-14 a7,7 0 0 1 7,-7 z"/>
<path d="M712,56 h34 a7,7 0 0 1 7,7 v14 a7,7 0 0 1 -7,7 h-18 l-8,8 0,-8 h-8 a7,7 0 0 1 -7,-7 v-14 a7,7 0 0 1 7,-7 z"/></g>
<path d="M580,36 h40 a8,8 0 0 1 8,8 v16 a8,8 0 0 1 -8,8 h-20 l-9,9 0,-9 h-11 a8,8 0 0 1 -8,-8 v-16 a8,8 0 0 1 8,-8 z" fill="#f3c46a"/>
<path d="M300,120 q10,-8 20,0 M270,110 q10,-8 20,0" fill="none" stroke="#534AB7" stroke-width="3" stroke-linecap="round"/>
<path d="M0,120 C120,116 240,126 340,120 L340,200 L0,200 Z" fill="#7F77DD"/>
<path d="M860,120 C960,126 1080,116 1200,120 L1200,200 L860,200 Z" fill="#7F77DD"/>
<path d="M0,152 C200,136 420,168 640,154 C860,140 1040,168 1200,154 V200 H0 Z" fill="#3C3489"/>
<path d="M0,182 C240,168 500,194 760,182 C980,170 1110,190 1200,182 V200 H0 Z" fill="#26215C"/>
</svg>