<svg xmlns="http://www.w3.org/2000/svg" viewBox="0 0 1200 200" role="img" aria-label="Über der Erde liegen die Hügel still — darunter läuft der Ring des Beschleunigers, und genau an der Oberfläche blitzt der goldene Zusammenstoß auf">
<rect width="1200" height="200" fill="#EEEDFE"/>
<path d="M120,126 C200,86 260,80 330,110 C380,131 420,126 470,126 Z" fill="#CECBF6"/>
<path d="M760,126 C830,74 900,72 970,110 C1010,131 1060,126 1110,126 Z" fill="#CECBF6"/>
<circle cx="262" cy="76" r="13" fill="#AFA9EC"/><rect x="259" y="84" width="6" height="14" fill="#AFA9EC"/>
<circle cx="912" cy="70" r="14" fill="#AFA9EC"/><rect x="909" y="78" width="6" height="16" fill="#AFA9EC"/>
<path d="M480,52 q10,-8 20,0 M510,40 q10,-8 20,0" fill="none" stroke="#534AB7" stroke-width="3" stroke-linecap="round"/>
<path d="M0,126 C160,116 340,132 520,126 C700,120 900,134 1200,124 V200 H0 Z" fill="#3C3489"/>
<ellipse cx="600" cy="162" rx="390" ry="36" fill="none" stroke="#7F77DD" stroke-width="7"/>
<path d="M233.5,149.7 A390,36 0 0 1 545.7,126.4" fill="none" stroke="#CECBF6" stroke-width="7" stroke-linecap="round"/>
<path d="M654.3,126.4 A390,36 0 0 1 966.5,149.7" fill="none" stroke="#CECBF6" stroke-width="7" stroke-linecap="round"/>
<g stroke="#f3c46a" stroke-width="3.5" stroke-linecap="round">
<line x1="600" y1="96" x2="600" y2="112"/><line x1="576" y1="106" x2="588" y2="117"/>
<line x1="626" y1="103" x2="612" y2="116"/><line x1="560" y1="130" x2="576" y2="128"/>
<line x1="642" y1="132" x2="626" y2="129"/><line x1="588" y1="140" x2="580" y2="150"/>
<line x1="614" y1="139" x2="624" y2="152"/>
</g>
<circle cx="600" cy="126" r="9" fill="#f3c46a"/>
<path d="M0,182 C260,172 520,196 780,184 C980,175 1110,192 1200,182 V200 H0 Z" fill="#26215C"/>
</svg>