<svg xmlns="http://www.w3.org/2000/svg" viewBox="0 0 1200 200" role="img" aria-label="Ein Streaming-Platz am Abend: Monitor, Mikrofon am Galgen und Kopfhörer stehen auf dem Tisch, dahinter leuchtet der goldene Ringscheinwerfer">
<rect width="1200" height="200" fill="#EEEDFE"/>
<circle cx="880" cy="70" r="38" fill="none" stroke="#f3c46a" stroke-width="9"/>
<line x1="880" y1="108" x2="880" y2="158" stroke="#26215C" stroke-width="5"/>
<rect x="404" y="40" width="228" height="106" rx="7" fill="#26215C"/>
<rect x="416" y="52" width="204" height="76" rx="3" fill="#7F77DD"/>
<path d="M424,110 C456,90 476,118 508,104 C540,90 572,114 612,96" fill="none" stroke="#CECBF6" stroke-width="4" stroke-linecap="round"/>
<circle cx="518" cy="72" r="9" fill="#AFA9EC"/>
<rect x="504" y="146" width="28" height="12" fill="#26215C"/>
<g stroke="#3C3489" stroke-width="6" fill="none" stroke-linecap="round">
<line x1="216" y1="158" x2="216" y2="92"/>
<line x1="216" y1="92" x2="300" y2="64"/>
<line x1="300" y1="64" x2="352" y2="92"/>
</g>
<rect x="340" y="90" width="26" height="48" rx="13" fill="#534AB7"/>
<rect x="346" y="96" width="14" height="36" rx="7" fill="#AFA9EC"/>
<path d="M700,158 C700,110 772,110 772,158" fill="none" stroke="#534AB7" stroke-width="8" stroke-linecap="round"/>
<rect x="688" y="128" width="22" height="32" rx="9" fill="#3C3489"/>
<rect x="762" y="128" width="22" height="32" rx="9" fill="#3C3489"/>
<path d="M980,86 q10,-8 20,0 M1010,74 q10,-8 20,0" fill="none" stroke="#AFA9EC" stroke-width="3" stroke-linecap="round"/>
<path d="M140,158 H1030 V172 H140 Z" fill="#534AB7"/>
<path d="M0,174 C180,164 380,182 600,174 C820,166 1000,184 1200,174 V200 H0 Z" fill="#3C3489"/>
<path d="M0,192 C240,183 500,200 760,192 C980,185 1100,196 1200,192 V200 H0 Z" fill="#26215C"/>
</svg>
