<svg xmlns="http://www.w3.org/2000/svg" viewBox="0 0 1200 200" role="img" aria-label="Telefon mit Sprechblase und goldenem Füllwort — Lückentext"><rect width="1200" height="200" fill="#EEEDFE"/><rect x="470" y="46" width="54" height="94" rx="10" fill="#3C3489"/><rect x="478" y="56" width="38" height="64" rx="3" fill="#534AB7"/><circle cx="497" cy="130" r="5" fill="#AFA9EC"/><path d="M560,40 h180 q16,0 16,16 v40 q0,16 -16,16 h-120 l-24,20 v-20 h-36 q-16,0 -16,-16 v-40 q0,-16 16,-16 Z" fill="#AFA9EC"/><g fill="#7F77DD"><rect x="584" y="60" width="60" height="12" rx="3"/><rect x="584" y="82" width="40" height="12" rx="3"/></g><rect x="634" y="82" width="48" height="12" rx="3" fill="#f3c46a"/><path d="M300,60 q10,-8 20,0 M330,48 q10,-8 20,0" fill="none" stroke="#534AB7" stroke-width="3" stroke-linecap="round"/><path d="M0,124 C160,106 320,140 480,124 C640,108 820,142 1000,124 C1090,115 1150,122 1200,118 V200 H0 Z" fill="#534AB7"/><path d="M0,152 C180,134 380,166 600,152 C820,138 1010,168 1200,152 V200 H0 Z" fill="#3C3489"/><path d="M0,178 C220,164 460,190 700,176 C920,164 1080,188 1200,178 V200 H0 Z" fill="#26215C"/></svg>