<svg xmlns="http://www.w3.org/2000/svg" viewBox="0 0 1200 200" role="img" aria-label="Ein Papierflieger hebt von der Welle ab und fliegt zur Sonne">
<rect width="1200" height="200" fill="#EEEDFE"/>
<circle cx="920" cy="40" r="24" fill="#f3c46a"/>
<circle cx="920" cy="40" r="34" fill="none" stroke="#f3c46a" stroke-width="2" opacity="0.4"/>
<path d="M330,132 C390,120 470,100 540,84 C610,68 680,56 760,50" fill="none" stroke="#534AB7" stroke-width="4" stroke-linecap="round" stroke-dasharray="2 18"/>
<g transform="translate(790,48) rotate(-12)">
<path d="M0,0 L74,-26 L26,10 Z" fill="#26215C"/>
<path d="M0,0 L26,10 L30,30 L14,12 Z" fill="#3C3489"/>
<path d="M0,0 L74,-26 L14,12 Z" fill="#534AB7"/>
</g>
<path d="M240,60 q10,-8 20,0 M272,48 q10,-8 20,0" fill="none" stroke="#534AB7" stroke-width="3" stroke-linecap="round"/>
<path d="M0,138 C180,124 380,148 600,136 C820,124 1020,146 1200,135 V200 H0 Z" fill="#534AB7"/>
<path d="M0,162 C210,152 440,174 660,162 C880,152 1050,172 1200,161 V200 H0 Z" fill="#3C3489"/>
<path d="M0,186 C240,178 500,196 760,188 C980,181 1110,192 1200,187 V200 H0 Z" fill="#26215C"/>
</svg>
