<svg xmlns="http://www.w3.org/2000/svg" viewBox="0 0 1200 200" role="img" aria-label="Ein Kreislauf aus drei Pfeilen um einen Trieb mit goldenem Blatt">
<rect width="1200" height="200" fill="#EEEDFE"/>
<g fill="none" stroke="#3C3489" stroke-width="9" stroke-linecap="round">
<path d="M600,50 A60,60 0 0 1 652,140"/>
<path d="M652,140 A60,60 0 0 1 548,140"/>
<path d="M548,140 A60,60 0 0 1 600,50"/>
</g>
<g fill="#3C3489">
<path d="M600,50 l-16,-6 l6,20 Z"/>
<path d="M652,140 l14,-10 l4,20 Z"/>
<path d="M548,140 l-18,10 l4,-20 Z"/>
</g>
<line x1="600" y1="112" x2="600" y2="88" stroke="#26215C" stroke-width="5" stroke-linecap="round"/>
<path d="M600,96 C582,92 574,78 578,66 C596,68 606,82 600,96 Z" fill="#534AB7"/>
<path d="M600,90 C618,84 634,88 640,76 C624,66 606,74 600,90 Z" fill="#f3c46a"/>
<path d="M0,152 C190,134 400,166 620,152 C840,138 1020,168 1200,152 V200 H0 Z" fill="#534AB7"/>
<path d="M0,172 C220,156 470,188 720,172 C940,160 1090,184 1200,172 V200 H0 Z" fill="#3C3489"/>
<path d="M0,189 C240,175 500,201 760,189 C980,177 1110,199 1200,189 V200 H0 Z" fill="#26215C"/>
</svg>