<svg xmlns="http://www.w3.org/2000/svg" viewBox="0 0 1200 200" role="img" aria-label="Ein Prisma auf der Welle spaltet den blassen Strahl in gefächerte Farbstrahlen, die sich zur Landschaft ausbreiten — im Kern der goldene Punkt"><rect width="1200" height="200" fill="#EEEDFE"/><path d="M0,110 C160,90 340,120 520,104 C700,88 900,120 1080,104 C1140,99 1180,106 1200,102 V200 H0 Z" fill="#DAD8F6"/>
<path d="M150,70 L470,104" stroke="#CECBF6" stroke-width="7" stroke-linecap="round"/><path d="M470,66 L520,120 L430,120 Z" fill="#AFA9EC"/><g stroke-linecap="round" fill="none"><path d="M500,100 C640,84 820,92 1050,72" stroke="#7F77DD" stroke-width="5"/><path d="M502,106 C650,100 840,110 1080,96" stroke="#534AB7" stroke-width="5"/><path d="M503,112 C660,116 850,126 1090,120" stroke="#3C3489" stroke-width="5"/></g><circle cx="474" cy="104" r="6" fill="#f3c46a"/><path d="M0,150 C190,132 400,164 620,150 C840,136 1020,166 1200,150 V200 H0 Z" fill="#3C3489"/>
<path d="M0,180 C240,166 480,192 720,178 C940,166 1090,188 1200,178 V200 H0 Z" fill="#26215C"/>
</svg>