<svg xmlns="http://www.w3.org/2000/svg" viewBox="0 0 1200 200" role="img" aria-label="Zwei Sprechblasen begegnen sich, die untere Kante wird zur Welle — das goldene Einvernehmen">
<rect width="1200" height="200" fill="#EEEDFE"/>
<path d="M470,60 q0,-30 60,-30 l120,0 q60,0 60,30 q0,30 -60,30 l-120,0 l-24,20 l6,-24 q-42,-8 -42,-26 Z" fill="#3C3489"/><path d="M760,110 q0,-26 52,-26 l90,0 q52,0 52,26 q0,26 -52,26 l-90,0 l-20,16 l5,-20 q-37,-6 -37,-22 Z" fill="#534AB7"/><circle cx="700" cy="120" r="9" fill="#f3c46a"/><path d="M300,60 q9,-7 18,0 M326,52 q9,-7 18,0" fill="none" stroke="#534AB7" stroke-width="3" stroke-linecap="round"/><path d="M0,150 C150,142 320,150 520,148 C640,147 700,150 760,146 C960,138 1050,158 1200,150 V200 H0 Z" fill="#534AB7"/><path d="M0,152 C200,136 440,166 680,152 C900,139 1050,166 1200,154 V200 H0 Z" fill="#3C3489"/>
<path d="M0,180 C240,168 500,192 760,180 C980,168 1100,188 1200,180 V200 H0 Z" fill="#26215C"/>
</svg>
