<svg xmlns="http://www.w3.org/2000/svg" viewBox="0 0 1200 200" role="img" aria-label="Eine Liedzeile, deren Notenlinie sich zur vorderen Welle biegt — der goldene Refrain-Notenkopf an der Kante">
<rect width="1200" height="200" fill="#EEEDFE"/>
<circle cx="1060" cy="46" r="22" fill="#AFA9EC"/>
<circle cx="1060" cy="46" r="32" fill="none" stroke="#AFA9EC" stroke-width="2" opacity="0.4"/>
<path d="M0,130 C160,116 320,150 470,132 C560,122 620,132 700,128 L700,200 L0,200 Z" fill="#7F77DD"/>
<path d="M0,130 C160,116 320,150 470,132 C560,122 620,132 700,128" fill="none" stroke="#534AB7" stroke-width="3"/>
<g fill="#26215C"><ellipse cx="120" cy="126" rx="7" ry="5" transform="rotate(-15 120 126)"/><ellipse cx="260" cy="132" rx="7" ry="5" transform="rotate(-15 260 132)"/><ellipse cx="540" cy="128" rx="7" ry="5" transform="rotate(-15 540 128)"/></g>
<line x1="127" y1="126" x2="127" y2="102" stroke="#26215C" stroke-width="2"/><line x1="267" y1="132" x2="267" y2="108" stroke="#26215C" stroke-width="2"/><line x1="547" y1="128" x2="547" y2="104" stroke="#26215C" stroke-width="2"/>
<ellipse cx="694" cy="126" rx="9" ry="7" fill="#f3c46a" transform="rotate(-15 694 126)"/><line x1="703" y1="126" x2="703" y2="96" stroke="#f3c46a" stroke-width="3"/>
<path d="M0,148 C190,130 400,162 620,148 C840,134 1020,164 1200,148 V200 H0 Z" fill="#3C3489"/>
<path d="M0,180 C240,166 480,192 720,178 C940,166 1090,188 1200,178 V200 H0 Z" fill="#26215C"/>
</svg>
