<svg xmlns="http://www.w3.org/2000/svg" viewBox="0 0 1200 200" role="img" aria-label="Zwei Theatermasken über der Welle — die goldene lächelt">
<rect width="1200" height="200" fill="#EEEDFE"/>
<path d="M700,150 L850,102 L1010,150 Z" fill="#CECBF6"/>
<path d="M250,60 q10,-8 20,0 M284,48 q10,-8 20,0" fill="none" stroke="#534AB7" stroke-width="3" stroke-linecap="round"/>
<g transform="rotate(-10 530 78)">
<path d="M488,42 Q530,30 572,42 Q574,86 530,110 Q486,86 488,42 Z" fill="#3C3489"/>
<ellipse cx="514" cy="58" rx="7" ry="5" fill="#EEEDFE"/>
<ellipse cx="546" cy="58" rx="7" ry="5" fill="#EEEDFE"/>
<path d="M512,84 Q530,74 548,84" fill="none" stroke="#EEEDFE" stroke-width="4" stroke-linecap="round"/>
</g>
<g transform="rotate(10 668 78)">
<path d="M626,42 Q668,30 710,42 Q712,86 668,110 Q624,86 626,42 Z" fill="#f3c46a"/>
<ellipse cx="652" cy="58" rx="7" ry="5" fill="#26215C"/>
<ellipse cx="684" cy="58" rx="7" ry="5" fill="#26215C"/>
<path d="M650,78 Q668,92 686,78" fill="none" stroke="#26215C" stroke-width="4" stroke-linecap="round"/>
</g>
<path d="M0,152 C190,142 400,160 620,151 C840,142 1030,158 1200,150 V200 H0 Z" fill="#534AB7"/>
<circle cx="300" cy="162" r="3" fill="#AFA9EC"/>
<path d="M0,172 C220,164 450,182 670,172 C890,164 1060,178 1200,171 V200 H0 Z" fill="#3C3489"/>
<path d="M0,191 C240,186 500,198 760,192 C980,188 1120,196 1200,192 V200 H0 Z" fill="#26215C"/>
</svg>
