<svg xmlns="http://www.w3.org/2000/svg" viewBox="0 0 1200 200" role="img" aria-label="Eine entrollte Schriftrolle auf dem Wellenberg unter der goldenen Sonne">
<rect width="1200" height="200" fill="#EEEDFE"/>
<circle cx="895" cy="50" r="26" fill="#f3c46a"/>
<circle cx="895" cy="50" r="37" fill="none" stroke="#f3c46a" stroke-width="2" opacity="0.4"/>
<path d="M0,150 L150,108 L300,150 Z" fill="#CECBF6"/>
<circle cx="360" cy="44" r="2.5" fill="#AFA9EC"/><circle cx="700" cy="40" r="2.5" fill="#AFA9EC"/>
<g>
<rect x="470" y="86" width="260" height="52" fill="#CECBF6"/>
<g stroke="#7F77DD" stroke-width="3" stroke-linecap="round">
<line x1="500" y1="100" x2="700" y2="100"/><line x1="500" y1="112" x2="690" y2="112"/><line x1="500" y1="124" x2="670" y2="124"/>
</g>
<rect x="452" y="78" width="24" height="68" rx="12" fill="#3C3489"/>
<rect x="724" y="78" width="24" height="68" rx="12" fill="#3C3489"/>
</g>
<path d="M0,150 C190,132 400,162 620,150 C840,134 1030,162 1200,150 V200 H0 Z" fill="#534AB7"/>
<path d="M0,172 C220,158 460,184 700,170 C920,158 1080,180 1200,171 V200 H0 Z" fill="#3C3489"/>
<path d="M0,190 C240,182 500,198 760,191 C980,186 1120,196 1200,191 V200 H0 Z" fill="#26215C"/>
</svg>
