<svg xmlns="http://www.w3.org/2000/svg" viewBox="0 0 1200 200" role="img" aria-label="Ein aufgeschlagenes Regelbuch liegt auf dem Wellenkamm — seine Seitenkanten setzen sich als Welle fort, ein goldenes Lesebändchen hängt heraus">
<rect width="1200" height="200" fill="#EEEDFE"/>
<path d="M340,86 q10,-8 20,0 M370,74 q10,-8 20,0" fill="none" stroke="#534AB7" stroke-width="3" stroke-linecap="round"/>
<path d="M0,158 C110,140 240,128 380,126 L600,60 L820,126 C960,128 1090,142 1200,132 V200 H0 Z" fill="#534AB7"/>
<path d="M380,126 L600,66 L600,126 L380,152 Z" fill="#CECBF6"/>
<path d="M820,126 L600,66 L600,126 L820,152 Z" fill="#EEEDFE"/>
<path d="M380,126 L600,66 L600,126 L380,152 Z" fill="none" stroke="#26215C" stroke-width="3" stroke-linejoin="round"/>
<path d="M820,126 L600,66 L600,126 L820,152 Z" fill="none" stroke="#26215C" stroke-width="3" stroke-linejoin="round"/>
<line x1="600" y1="66" x2="600" y2="126" stroke="#26215C" stroke-width="4"/>
<g stroke="#7F77DD" stroke-width="3" stroke-linecap="round">
<line x1="430" y1="128" x2="570" y2="90"/><line x1="430" y1="138" x2="570" y2="100"/>
<line x1="448" y1="145" x2="560" y2="114"/>
<line x1="630" y1="90" x2="770" y2="128"/><line x1="630" y1="100" x2="770" y2="138"/>
<line x1="640" y1="114" x2="752" y2="145"/>
</g>
<path d="M596,126 L596,176 L586,164 L576,176 L576,124 Z" fill="#f3c46a"/>
<path d="M0,168 C200,152 420,180 640,166 C860,154 1040,178 1200,166 V200 H0 Z" fill="#3C3489"/>
<path d="M0,188 C240,177 500,198 760,186 C980,177 1110,192 1200,186 V200 H0 Z" fill="#26215C"/>
</svg>
