<svg xmlns="http://www.w3.org/2000/svg" viewBox="0 0 1200 200" role="img" aria-label="Der goldene Vorsilben-Block koppelt vorn an den Wort-Zug — die Sonder-Lücke bleibt sichtbar">
<rect width="1200" height="200" fill="#EEEDFE"/>
<path d="M0,150 C220,140 460,150 720,148 C940,146 1060,152 1200,148 V200 H0 Z" fill="#534AB7"/><g fill="#26215C"><rect x="560" y="112" width="60" height="34" rx="3"/><rect x="628" y="112" width="60" height="34" rx="3"/><path d="M696,146 L696,104 L742,104 L760,120 L760,146 Z"/></g><g fill="#3C3489"><circle cx="580" cy="150" r="6"/><circle cx="605" cy="150" r="6"/><circle cx="648" cy="150" r="6"/><circle cx="672" cy="150" r="6"/><circle cx="720" cy="150" r="6"/><circle cx="745" cy="150" r="6"/></g><rect x="486" y="116" width="46" height="30" rx="3" fill="#f3c46a"/><line x1="534" y1="131" x2="558" y2="131" stroke="#26215C" stroke-width="2" stroke-dasharray="4 5"/><path d="M300,60 q9,-7 18,0 M326,52 q9,-7 18,0" fill="none" stroke="#534AB7" stroke-width="3" stroke-linecap="round"/><path d="M0,172 C240,162 500,180 760,170 C980,162 1100,178 1200,172 V200 H0 Z" fill="#3C3489"/><path d="M0,188 C240,182 520,196 780,189 C1000,184 1120,194 1200,188 V200 H0 Z" fill="#26215C"/>
</svg>
