<svg xmlns="http://www.w3.org/2000/svg" viewBox="0 0 1200 200" role="img" aria-label="Ein glatter Glasturm steht mitten in der Altbauzeile — sein Schatten legt sich über die kleinen Dächer, im letzten Haus brennt noch ein goldenes Fenster">
<rect width="1200" height="200" fill="#EEEDFE"/>
<g fill="#AFA9EC">
<path d="M160,158 V106 L196,80 L232,106 V158 Z"/>
<path d="M240,158 V98 L280,70 L320,98 V158 Z"/>
<path d="M328,158 V112 L362,88 L396,112 V158 Z"/>
<path d="M404,158 V102 L444,74 L484,102 V158 Z"/>
</g>
<g fill="#CECBF6">
<rect x="186" y="118" width="16" height="18"/><rect x="272" y="110" width="16" height="18"/>
<rect x="354" y="124" width="14" height="16"/><rect x="436" y="114" width="16" height="18"/>
</g>
<g fill="#7F77DD">
<rect x="188" y="66" width="8" height="14"/><rect x="272" y="56" width="8" height="14"/><rect x="436" y="60" width="8" height="14"/>
</g>
<rect x="510" y="14" width="118" height="144" fill="#534AB7"/>
<rect x="510" y="14" width="24" height="144" fill="#3C3489"/>
<g fill="#7F77DD">
<rect x="544" y="30" width="72" height="10"/><rect x="544" y="50" width="72" height="10"/><rect x="544" y="70" width="72" height="10"/>
<rect x="544" y="90" width="72" height="10"/><rect x="544" y="110" width="72" height="10"/><rect x="544" y="130" width="72" height="10"/>
</g>
<path d="M628,158 L1010,158 L1010,116 L628,60 Z" fill="#26215C" opacity="0.22"/>
<g fill="#534AB7">
<path d="M650,158 V112 L684,88 L718,112 V158 Z"/>
<path d="M726,158 V104 L764,76 L802,104 V158 Z"/>
<path d="M810,158 V116 L844,92 L878,116 V158 Z"/>
<path d="M886,158 V106 L924,78 L962,106 V158 Z"/>
</g>
<g fill="#3C3489">
<rect x="676" y="124" width="16" height="18"/><rect x="756" y="116" width="16" height="18"/>
<rect x="836" y="128" width="14" height="16"/>
</g>
<rect x="916" y="118" width="16" height="18" fill="#f3c46a"/>
<path d="M1050,50 q10,-8 20,0 M1080,40 q10,-8 20,0" fill="none" stroke="#534AB7" stroke-width="3" stroke-linecap="round"/>
<path d="M0,158 C200,148 420,172 640,160 C860,148 1020,172 1200,158 V200 H0 Z" fill="#3C3489"/>
<path d="M0,183 C240,173 500,195 760,183 C960,174 1100,191 1200,183 V200 H0 Z" fill="#26215C"/>
</svg>
