<svg xmlns="http://www.w3.org/2000/svg" viewBox="0 0 1200 200" role="img" aria-label="Panorama einer idealen Stadt mit begrünten Dächern, Park und Windrad unter der Sonne">
<rect width="1200" height="200" fill="#EEEDFE"/>
<circle cx="866" cy="48" r="28" fill="#f3c46a"/>
<circle cx="866" cy="48" r="40" fill="none" stroke="#f3c46a" stroke-width="2" opacity="0.45"/>
<g fill="#CECBF6">
<rect x="150" y="86" width="70" height="66"/><rect x="232" y="60" width="54" height="92"/>
<rect x="298" y="98" width="86" height="54"/><rect x="700" y="68" width="60" height="84"/>
<rect x="770" y="92" width="94" height="60"/><rect x="944" y="74" width="66" height="78"/>
<rect x="1022" y="102" width="58" height="50"/>
</g>
<g stroke="#CECBF6" stroke-width="4" stroke-linecap="round" fill="none">
<line x1="259" y1="60" x2="259" y2="42"/><line x1="730" y1="68" x2="730" y2="48"/>
</g>
<g fill="#AFA9EC">
<rect x="196" y="108" width="58" height="46"/><rect x="392" y="70" width="62" height="84"/>
<rect x="470" y="100" width="76" height="54"/><rect x="640" y="86" width="52" height="68"/>
<rect x="876" y="104" width="70" height="50"/>
</g>
<g fill="#7F77DD">
<rect x="264" y="118" width="70" height="38"/><rect x="352" y="98" width="46" height="58"/>
<rect x="556" y="80" width="64" height="76"/><rect x="822" y="112" width="80" height="44"/>
<rect x="920" y="124" width="52" height="32"/>
</g>
<g fill="#534AB7">
<rect x="418" y="60" width="8" height="12"/><ellipse cx="422" cy="52" rx="16" ry="13"/>
<rect x="504" y="90" width="7" height="11"/><ellipse cx="507" cy="82" rx="14" ry="12"/>
<rect x="584" y="70" width="7" height="11"/><ellipse cx="587" cy="62" rx="14" ry="12"/>
<rect x="906" y="102" width="7" height="11"/><ellipse cx="909" cy="94" rx="13" ry="11"/>
</g>
<g fill="#3C3489">
<rect x="470" y="140" width="7" height="16"/><ellipse cx="473" cy="134" rx="17" ry="14"/>
<rect x="620" y="142" width="7" height="14"/><ellipse cx="623" cy="136" rx="15" ry="13"/>
<rect x="754" y="141" width="7" height="15"/><ellipse cx="757" cy="135" rx="16" ry="13"/>
</g>
<g stroke="#26215C" stroke-width="5" stroke-linecap="round" fill="none">
<line x1="1000" y1="152" x2="1000" y2="62"/>
</g>
<g fill="#26215C">
<path d="M1000,56 L1046,30 L1004,64 Z"/><path d="M1000,56 L1032,102 L996,64 Z"/><path d="M1000,56 L952,80 L996,60 Z"/>
<circle cx="1000" cy="60" r="6"/>
</g>
<path d="M318,54 q10,-8 20,0 M348,44 q10,-8 20,0" fill="none" stroke="#534AB7" stroke-width="3" stroke-linecap="round"/>
<path d="M0,152 C180,140 380,166 600,154 C820,142 1010,166 1200,152 V200 H0 Z" fill="#534AB7"/>
<path d="M0,172 C220,160 460,188 700,174 C920,162 1080,184 1200,174 V200 H0 Z" fill="#3C3489"/>
<path d="M0,189 C260,180 520,197 780,187 C980,180 1100,193 1200,187 V200 H0 Z" fill="#26215C"/>
</svg>
