<svg xmlns="http://www.w3.org/2000/svg" viewBox="0 0 1200 200" role="img" aria-label="Die Katze aus dem Sack — aus dem offenen Sack auf der Welle springt die goldene Katze mit Ohren und Schwanz; die Sacköffnung ist die Lücke"><rect width="1200" height="200" fill="#EEEDFE"/><path d="M0,110 C160,90 340,120 520,104 C700,88 900,120 1080,104 C1140,99 1180,106 1200,102 V200 H0 Z" fill="#CECBF6"/>
<path d="M512,150 C498,120 508,96 556,92 C606,96 616,120 602,150 Z" fill="#534AB7"/><path d="M506,96 C536,84 578,84 610,96 C596,104 520,104 506,96 Z" fill="#3C3489"/><path d="M536,90 q20,-9 44,0" fill="none" stroke="#AFA9EC" stroke-width="3" stroke-linecap="round"/><g fill="#f3c46a"><path d="M620,74 C632,60 664,58 686,66 C700,71 706,78 700,86 C690,96 656,96 636,90 C624,86 614,82 620,74 Z"/><path d="M690,58 l6,12 l-12,-2 Z"/><path d="M702,60 l8,10 l-10,0 Z"/><circle cx="700" cy="72" r="10"/><path d="M636,88 l-4,14 M652,92 l-2,14" stroke="#f3c46a" stroke-width="5" stroke-linecap="round"/><path d="M622,78 C606,74 600,60 610,50" fill="none" stroke="#f3c46a" stroke-width="5" stroke-linecap="round"/></g><circle cx="703" cy="70" r="2.2" fill="#26215C"/><path d="M0,150 C190,132 400,164 620,150 C840,136 1020,166 1200,150 V200 H0 Z" fill="#3C3489"/>
<path d="M0,180 C240,166 480,192 720,178 C940,166 1090,188 1200,178 V200 H0 Z" fill="#26215C"/>
</svg>