<svg xmlns="http://www.w3.org/2000/svg" viewBox="0 0 1200 200" role="img" aria-label="Zwei Dialog-Sprechblasen mit goldenem Funken — Rollenspiel"><rect width="1200" height="200" fill="#EEEDFE"/><path d="M430,40 h150 q16,0 16,16 v34 q0,16 -16,16 h-90 l-26,20 v-20 h-34 q-16,0 -16,-16 v-34 q0,-16 16,-16 Z" fill="#534AB7"/><path d="M770,44 h-150 q-16,0 -16,16 v34 q0,16 16,16 h90 l26,20 v-20 h34 q16,0 16,-16 v-34 q0,-16 -16,-16 Z" fill="#7F77DD"/><g fill="#3C3489"><rect x="470" y="58" width="80" height="9" rx="3"/><rect x="470" y="74" width="54" height="9" rx="3"/></g><g fill="#26215C"><rect x="650" y="62" width="80" height="9" rx="3"/><rect x="676" y="78" width="54" height="9" rx="3"/></g><path d="M600,66 l6,14 l-10,0 Z" fill="#f3c46a"/><circle cx="601" cy="60" r="6" fill="#f3c46a"/><path d="M0,124 C160,106 320,140 480,124 C640,108 820,142 1000,124 C1090,115 1150,122 1200,118 V200 H0 Z" fill="#534AB7"/><path d="M0,152 C180,134 380,166 600,152 C820,138 1010,168 1200,152 V200 H0 Z" fill="#3C3489"/><path d="M0,178 C220,164 460,190 700,176 C920,164 1080,188 1200,178 V200 H0 Z" fill="#26215C"/></svg>