<svg xmlns="http://www.w3.org/2000/svg" viewBox="0 0 1200 200" role="img" aria-label="Zwei Eheringe, deren Rundungen die beiden vorderen Wellenboegen bilden; im Ueberschnitt leuchtet ein goldener Punkt">
<rect width="1200" height="200" fill="#EEEDFE"/>
<path d="M0,130 C120,120 300,120 470,150 A130,130 0 0 1 730,150 C900,120 1080,120 1200,130 V200 H0 Z" fill="#7F77DD"/>
<circle cx="500" cy="120" r="70" fill="none" stroke="#534AB7" stroke-width="12"/>
<circle cx="700" cy="120" r="70" fill="none" stroke="#3C3489" stroke-width="12"/>
<circle cx="600" cy="120" r="9" fill="#f3c46a"/>
<circle cx="600" cy="120" r="16" fill="none" stroke="#f3c46a" stroke-width="2" opacity="0.5"/>
<path d="M0,168 C220,154 460,182 700,170 C920,158 1080,182 1200,172 V200 H0 Z" fill="#3C3489"/>
<path d="M0,186 C240,176 520,196 780,186 C1000,178 1120,192 1200,186 V200 H0 Z" fill="#26215C"/>
</svg>