<svg xmlns="http://www.w3.org/2000/svg" viewBox="0 0 1200 200" role="img" aria-label="Server-Türme, durch Leitungen verbunden — ein goldener Knoten in der Pipeline leuchtet">
<rect width="1200" height="200" fill="#EEEDFE"/>
<g fill="#3C3489"><rect x="320" y="80" width="46" height="70" rx="3"/><rect x="420" y="96" width="46" height="54" rx="3"/><rect x="720" y="72" width="46" height="78" rx="3"/><rect x="820" y="100" width="46" height="50" rx="3"/></g><g fill="#534AB7"><rect x="540" y="88" width="46" height="62" rx="3"/><rect x="630" y="108" width="46" height="42" rx="3"/></g><g stroke="#26215C" stroke-width="2"><line x1="326" y1="94" x2="360" y2="94"/><line x1="326" y1="106" x2="360" y2="106"/><line x1="326" y1="118" x2="360" y2="118"/><line x1="726" y1="86" x2="760" y2="86"/><line x1="726" y1="98" x2="760" y2="98"/><line x1="726" y1="110" x2="760" y2="110"/></g><path d="M343,70 C460,52 620,52 743,62 C820,68 900,60 970,54" fill="none" stroke="#26215C" stroke-width="3"/><g fill="#3C3489"><circle cx="460" cy="55" r="6"/><circle cx="620" cy="52" r="6"/><circle cx="820" cy="63" r="6"/></g><circle cx="743" cy="62" r="9" fill="#f3c46a"/><path d="M250,50 q9,-7 18,0 M276,42 q9,-7 18,0" fill="none" stroke="#534AB7" stroke-width="3" stroke-linecap="round"/><path d="M0,150 C220,140 460,152 720,150 C940,148 1060,154 1200,150 V200 H0 Z" fill="#534AB7"/><path d="M0,152 C200,136 440,166 680,152 C900,139 1050,166 1200,154 V200 H0 Z" fill="#3C3489"/>
<path d="M0,180 C240,168 500,192 760,180 C980,168 1100,188 1200,180 V200 H0 Z" fill="#26215C"/>
</svg>
