<svg xmlns="http://www.w3.org/2000/svg" viewBox="0 0 1200 200" role="img" aria-label="Ein Panorama geschichteter Berge unter goldener Sonne — Wortschatz">
<rect width="1200" height="200" fill="#EEEDFE"/>
<circle cx="330" cy="54" r="28" fill="#f3c46a"/>
<circle cx="330" cy="54" r="39" fill="none" stroke="#f3c46a" stroke-width="2" opacity="0.45"/>
<path d="M0,124 L150,78 L300,124 Z" fill="#CECBF6"/>
<path d="M520,124 L690,46 L860,124 Z" fill="#AFA9EC"/>
<path d="M700,124 L860,60 L1010,124 Z" fill="#7F77DD"/>
<path d="M470,70 q10,-8 20,0 M500,58 q10,-8 20,0" fill="none" stroke="#534AB7" stroke-width="3" stroke-linecap="round"/>
<path d="M0,126 C150,100 300,142 460,122 C620,102 770,140 930,120 C1050,105 1140,120 1200,112 V200 H0 Z" fill="#534AB7"/>
<path d="M0,152 C170,130 330,168 520,148 C700,130 880,168 1050,150 C1110,143 1170,150 1200,146 V200 H0 Z" fill="#3C3489"/>
<path d="M0,180 C200,164 420,190 640,178 C860,165 1040,188 1200,178 V200 H0 Z" fill="#26215C"/>
</svg>
