<svg xmlns="http://www.w3.org/2000/svg" viewBox="0 0 1200 200" role="img" aria-label="Die Kurve eines Liniendiagramms ist zugleich die Kante der Welle — der goldene Punkt markiert den Höhepunkt">
<rect width="1200" height="200" fill="#EEEDFE"/>
<g stroke="#AFA9EC" stroke-width="4" stroke-linecap="round" fill="none">
<line x1="176" y1="26" x2="176" y2="170"/>
<line x1="176" y1="170" x2="1030" y2="170"/>
<line x1="176" y1="26" x2="170" y2="38"/><line x1="176" y1="26" x2="182" y2="38"/>
<line x1="1030" y1="170" x2="1018" y2="164"/><line x1="1030" y1="170" x2="1018" y2="176"/>
</g>
<g stroke="#CECBF6" stroke-width="2.5" fill="none">
<line x1="176" y1="60" x2="1010" y2="60"/><line x1="176" y1="100" x2="1010" y2="100"/><line x1="176" y1="140" x2="1010" y2="140"/>
</g>
<g stroke="#AFA9EC" stroke-width="3.5" stroke-linecap="round">
<line x1="170" y1="60" x2="182" y2="60"/><line x1="170" y1="100" x2="182" y2="100"/><line x1="170" y1="140" x2="182" y2="140"/>
<line x1="300" y1="164" x2="300" y2="176"/><line x1="440" y1="164" x2="440" y2="176"/><line x1="580" y1="164" x2="580" y2="176"/><line x1="720" y1="164" x2="720" y2="176"/><line x1="860" y1="164" x2="860" y2="176"/>
</g>
<path d="M176,140 L300,126 L440,132 L580,86 L720,52 L860,96 L1000,74 L1200,88 V200 H0 V170 H176 Z" fill="#7F77DD"/>
<path d="M176,140 L300,126 L440,132 L580,86 L720,52 L860,96 L1000,74 L1200,88" fill="none" stroke="#534AB7" stroke-width="4" stroke-linejoin="round" stroke-linecap="round"/>
<g fill="#26215C">
<circle cx="300" cy="126" r="6"/><circle cx="440" cy="132" r="6"/><circle cx="580" cy="86" r="6"/>
<circle cx="860" cy="96" r="6"/><circle cx="1000" cy="74" r="6"/>
</g>
<circle cx="720" cy="52" r="10" fill="#f3c46a"/>
<path d="M0,168 C200,158 420,182 640,172 C860,162 1020,182 1200,170 V200 H0 Z" fill="#3C3489"/>
<path d="M0,188 C260,182 520,197 780,189 C980,184 1100,194 1200,189 V200 H0 Z" fill="#26215C"/>
</svg>
