<svg xmlns="http://www.w3.org/2000/svg" viewBox="0 0 1200 200" role="img" aria-label="Wegweiser-Panorama: mehrere Wegweiser auf gestaffelten Hügeln zeigen zur aufgehenden Sonne">
<rect width="1200" height="200" fill="#EEEDFE"/>
<circle cx="600" cy="52" r="27" fill="#f3c46a"/>
<circle cx="600" cy="52" r="39" fill="none" stroke="#f3c46a" stroke-width="2" opacity="0.42"/>
<path d="M150,120 L300,78 L470,120 Z" fill="#CECBF6"/>
<path d="M760,120 L920,72 L1080,120 Z" fill="#CECBF6"/>
<path d="M0,128 C170,104 340,138 520,120 C700,102 860,138 1030,120 C1110,111 1160,122 1200,116 V200 H0 Z" fill="#AFA9EC"/>
<g stroke="#26215C" stroke-width="6" stroke-linecap="round" fill="#26215C">
<line x1="330" y1="128" x2="330" y2="86"/>
<path d="M330,92 L372,92 L360,104 L372,116 L330,116 Z"/>
<line x1="560" y1="120" x2="560" y2="70"/>
<path d="M560,76 L606,76 L594,88 L606,100 L560,100 Z"/>
<line x1="820" y1="126" x2="820" y2="88"/>
<path d="M820,94 L862,94 L850,106 L862,118 L820,118 Z"/>
</g>
<path d="M0,150 C210,130 430,164 640,150 C850,136 1030,166 1200,150 V200 H0 Z" fill="#534AB7"/>
<path d="M0,172 C230,158 470,190 710,176 C930,164 1090,186 1200,176 V200 H0 Z" fill="#3C3489"/>
<path d="M0,190 C250,182 520,198 780,190 C980,184 1110,194 1200,189 V200 H0 Z" fill="#26215C"/>
<circle cx="470" cy="52" r="4" fill="#EEEDFE" opacity="0.5"/>
<circle cx="720" cy="44" r="3" fill="#EEEDFE" opacity="0.5"/>
</svg>
