<svg xmlns="http://www.w3.org/2000/svg" viewBox="0 0 1200 200" role="img" aria-label="Zwei Geschenke, eine goldene Schleife füllt die Lücke — Dativ schenken"><rect width="1200" height="200" fill="#EEEDFE"/><rect x="470" y="74" width="90" height="52" rx="4" fill="#534AB7"/><rect x="508" y="74" width="14" height="52" fill="#3C3489"/><path d="M505,74 q-18,-22 -2,-24 q14,-2 12,24 M517,74 q18,-22 2,-24 q-14,-2 -12,24" fill="#7F77DD"/><rect x="640" y="70" width="96" height="56" rx="4" fill="#3C3489"/><rect x="682" y="70" width="14" height="56" fill="#26215C"/><path d="M689,52 q-18,-20 -2,-22 q14,-2 12,22 M689,52 q18,-20 2,-22 q-14,-2 -12,22" fill="#f3c46a"/><line x1="689" y1="62" x2="689" y2="70" stroke="#f3c46a" stroke-width="2" stroke-dasharray="3 4"/><path d="M300,60 q10,-8 20,0 M330,48 q10,-8 20,0" fill="none" stroke="#534AB7" stroke-width="3" stroke-linecap="round"/><path d="M0,124 C160,106 320,140 480,124 C640,108 820,142 1000,124 C1090,115 1150,122 1200,118 V200 H0 Z" fill="#534AB7"/><path d="M0,152 C180,134 380,166 600,152 C820,138 1010,168 1200,152 V200 H0 Z" fill="#3C3489"/><path d="M0,178 C220,164 460,190 700,176 C920,164 1080,188 1200,178 V200 H0 Z" fill="#26215C"/></svg>