<svg xmlns="http://www.w3.org/2000/svg" viewBox="0 0 1200 200" role="img" aria-label="Eine Plattenkiste voller Schallplatten steht auf der Welle — die goldene Platte wird gerade herausgezogen">
<rect width="1200" height="200" fill="#EEEDFE"/>
<path d="M0,146 C170,126 330,140 500,132 C680,124 860,142 1040,130 C1120,125 1170,128 1200,126 V200 H0 Z" fill="#AFA9EC"/>
<g transform="translate(760,52)">
<circle cx="0" cy="0" r="42" fill="#f3c46a"/>
<g fill="none" stroke="#26215C" stroke-width="1.6" opacity="0.35">
<circle cx="0" cy="0" r="36"/><circle cx="0" cy="0" r="31"/><circle cx="0" cy="0" r="26"/><circle cx="0" cy="0" r="21"/>
</g>
<circle cx="0" cy="0" r="14" fill="#26215C" opacity="0.45"/>
<circle cx="0" cy="0" r="4" fill="#EEEDFE"/>
</g>
<g>
<rect x="418" y="92" width="300" height="68" rx="6" fill="#3C3489"/>
<g fill="#7F77DD"><rect x="434" y="80" width="16" height="76" rx="2"/><rect x="470" y="76" width="16" height="80" rx="2"/><rect x="542" y="78" width="16" height="78" rx="2"/><rect x="614" y="76" width="16" height="80" rx="2"/></g>
<g fill="#CECBF6"><rect x="452" y="78" width="16" height="78" rx="2"/><rect x="506" y="74" width="16" height="82" rx="2"/><rect x="578" y="76" width="16" height="80" rx="2"/><rect x="650" y="78" width="16" height="78" rx="2"/></g>
<g fill="#AFA9EC"><rect x="488" y="80" width="16" height="76" rx="2"/><rect x="524" y="76" width="16" height="80" rx="2"/><rect x="560" y="80" width="16" height="76" rx="2"/><rect x="596" y="78" width="16" height="78" rx="2"/><rect x="632" y="80" width="16" height="76" rx="2"/></g>
<path d="M418,118 L718,118 L718,166 a6,6 0 0 1 -6,6 L424,172 a6,6 0 0 1 -6,-6 Z" fill="#26215C"/>
<rect x="540" y="132" width="56" height="8" rx="4" fill="#534AB7"/>
</g>
<path d="M300,74 q10,-8 20,0 M332,62 q10,-8 20,0" fill="none" stroke="#534AB7" stroke-width="3" stroke-linecap="round"/>
<path d="M0,166 C200,154 420,180 640,168 C860,156 1040,180 1200,166 V200 H0 Z" fill="#3C3489"/>
<path d="M0,188 C240,178 500,198 760,186 C980,176 1110,192 1200,184 V200 H0 Z" fill="#26215C"/>
</svg>
