<svg xmlns="http://www.w3.org/2000/svg" viewBox="0 0 1200 200" role="img" aria-label="Der verknotete Faden entwirrt sich zur klaren Linie — die goldene Perle markiert den Durchblick">
<rect width="1200" height="200" fill="#EEEDFE"/>
<path d="M856,40 q11,-9 22,0 M900,52 q9,-8 18,0" fill="none" stroke="#534AB7" stroke-width="3" stroke-linecap="round"/>
<path d="M164,120 C150,88 196,72 216,96 C236,120 196,138 182,112 C168,86 214,66 238,88 C258,106 234,130 216,118 C198,106 214,80 244,90 C270,99 262,118 248,116" fill="none" stroke="#26215C" stroke-width="6" stroke-linecap="round"/>
<path d="M248,116 C310,142 330,74 390,100 C440,122 404,150 462,138 C520,126 490,90 556,102" fill="none" stroke="#26215C" stroke-width="6" stroke-linecap="round"/>
<path d="M556,102 C640,116 820,122 1060,120" fill="none" stroke="#26215C" stroke-width="6" stroke-linecap="round"/>
<circle cx="614" cy="110" r="11" fill="#f3c46a"/>
<path d="M0,152 C160,140 330,160 500,150 C720,138 960,160 1200,148 V200 H0 Z" fill="#7F77DD"/>
<path d="M0,172 C230,162 480,184 720,172 C940,162 1090,178 1200,170 V200 H0 Z" fill="#3C3489"/>
<path d="M0,190 C260,184 540,200 800,190 C1020,184 1130,194 1200,190 V200 H0 Z" fill="#26215C"/>
</svg>
