<svg xmlns="http://www.w3.org/2000/svg" viewBox="0 0 1200 200" role="img" aria-label="Eine Fackel über der Welle — die goldene Flamme brennt">
<rect width="1200" height="200" fill="#EEEDFE"/>
<path d="M160,150 L300,104 L450,150 Z" fill="#CECBF6"/>
<path d="M850,60 q10,-8 20,0 M882,48 q10,-8 20,0" fill="none" stroke="#534AB7" stroke-width="3" stroke-linecap="round"/>
<path d="M600,26 Q614,44 610,60 Q608,70 600,76 Q592,70 590,60 Q586,44 600,26 Z" fill="#f3c46a"/>
<path d="M576,80 L624,80 L612,150 L588,150 Z" fill="#3C3489"/>
<path d="M576,80 L624,80 L620,92 L580,92 Z" fill="#26215C"/>
<g stroke="#26215C" stroke-width="3" stroke-linecap="round">
<line x1="592" y1="104" x2="590" y2="140"/><line x1="608" y1="104" x2="610" y2="140"/>
</g>
<path d="M0,152 C190,142 400,160 620,151 C840,142 1030,158 1200,150 V200 H0 Z" fill="#534AB7"/>
<circle cx="300" cy="162" r="3" fill="#AFA9EC"/>
<path d="M0,172 C220,164 450,182 670,172 C890,164 1060,178 1200,171 V200 H0 Z" fill="#3C3489"/>
<path d="M0,191 C240,186 500,198 760,192 C980,188 1120,196 1200,192 V200 H0 Z" fill="#26215C"/>
</svg>
