<svg xmlns="http://www.w3.org/2000/svg" viewBox="0 0 1200 200" role="img" aria-label="Ein Megafon ruft, seine äußerste Schallwelle wird zur Landschaftswelle — das goldene Wort">
<rect width="1200" height="200" fill="#EEEDFE"/>
<g transform="translate(300,110)"><path d="M0,-18 L34,-30 L34,30 L0,18 Z" fill="#26215C"/><rect x="-16" y="-14" width="18" height="28" rx="3" fill="#3C3489"/><line x1="30" y1="-34" x2="34" y2="-30" stroke="#26215C" stroke-width="3"/></g><path d="M348,86 q26,24 0,48" fill="none" stroke="#f3c46a" stroke-width="4"/><path d="M372,72 q40,38 0,76" fill="none" stroke="#534AB7" stroke-width="3"/><path d="M560,56 q9,-7 18,0 M586,48 q9,-7 18,0" fill="none" stroke="#534AB7" stroke-width="3" stroke-linecap="round"/><path d="M400,60 C620,150 900,150 1200,120 L1200,200 L400,200 Z" fill="#7F77DD" opacity="0.5"/><path d="M400,60 C620,150 900,150 1200,120" fill="none" stroke="#534AB7" stroke-width="4"/><path d="M0,150 C160,142 300,150 430,150 L430,200 L0,200 Z" fill="#534AB7"/><path d="M0,152 C200,136 440,166 680,152 C900,139 1050,166 1200,154 V200 H0 Z" fill="#3C3489"/>
<path d="M0,180 C240,168 500,192 760,180 C980,168 1100,188 1200,180 V200 H0 Z" fill="#26215C"/>
</svg>
