<svg xmlns="http://www.w3.org/2000/svg" viewBox="0 0 1200 200" role="img" aria-label="Angebot und Nachfrage kreuzen sich im goldenen Gleichgewicht">
<rect width="1200" height="200" fill="#EEEDFE"/>
<path d="M0,150 C190,132 400,164 620,150 C840,136 1020,166 1200,150 V200 H0 Z" fill="#534AB7"/>
<path d="M0,170 C220,154 470,186 720,170 C940,158 1090,182 1200,170 V200 H0 Z" fill="#3C3489"/>
<path d="M0,188 C240,174 500,200 760,188 C980,176 1110,198 1200,188 V200 H0 Z" fill="#26215C"/>
<path d="M270,150 C420,132 520,118 600,110 C700,100 830,74 950,52" fill="none" stroke="#26215C" stroke-width="6" stroke-linecap="round"/>
<path d="M950,52 l-22,-2 l12,18 Z" fill="#26215C"/>
<path d="M270,58 C420,72 520,90 600,110 C700,134 830,150 950,158" fill="none" stroke="#7F77DD" stroke-width="6" stroke-linecap="round"/>
<path d="M950,158 l-14,-14 l-2,22 Z" fill="#7F77DD"/>
<circle cx="600" cy="110" r="42" fill="none" stroke="#f3c46a" stroke-width="2" opacity="0.4"/>
<circle cx="600" cy="110" r="9" fill="#f3c46a"/>
<circle cx="352" cy="150" r="3.5" fill="#26215C" opacity="0.6"/>
<circle cx="900" cy="120" r="3" fill="#3C3489" opacity="0.6"/>
</svg>