<svg xmlns="http://www.w3.org/2000/svg" viewBox="0 0 1200 200" role="img" aria-label="Dieselbe Aussage in zwei Registern: oben die strenge gerade Zeile, unten die lockere geschwungene — und die untere Zeile ist zugleich die vorderste Welle; der goldene Punkt setzt sie um">
<rect width="1200" height="200" fill="#EEEDFE"/>
<line x1="200" y1="70" x2="240" y2="70" stroke="#AFA9EC" stroke-width="4" stroke-linecap="round"/><line x1="250" y1="70" x2="274" y2="70" stroke="#AFA9EC" stroke-width="4" stroke-linecap="round"/><line x1="286" y1="70" x2="330" y2="70" stroke="#AFA9EC" stroke-width="4" stroke-linecap="round"/><line x1="342" y1="70" x2="370" y2="70" stroke="#AFA9EC" stroke-width="4" stroke-linecap="round"/><line x1="382" y1="70" x2="422" y2="70" stroke="#AFA9EC" stroke-width="4" stroke-linecap="round"/><line x1="438" y1="70" x2="458" y2="70" stroke="#AFA9EC" stroke-width="4" stroke-linecap="round"/><line x1="470" y1="70" x2="514" y2="70" stroke="#AFA9EC" stroke-width="4" stroke-linecap="round"/><line x1="526" y1="70" x2="554" y2="70" stroke="#AFA9EC" stroke-width="4" stroke-linecap="round"/><line x1="566" y1="70" x2="606" y2="70" stroke="#AFA9EC" stroke-width="4" stroke-linecap="round"/><line x1="622" y1="70" x2="646" y2="70" stroke="#AFA9EC" stroke-width="4" stroke-linecap="round"/>
<circle cx="676" cy="70" r="4" fill="#AFA9EC"/>
<path d="M600,88 l0,20 m-6,-8 l6,8 6,-8" fill="none" stroke="#7F77DD" stroke-width="2.5" stroke-linecap="round" stroke-linejoin="round"/>
<path d="M0,150 C150,128 320,150 470,134 C620,120 760,150 900,136 C1030,124 1120,142 1200,134 V200 H0 Z" fill="#534AB7"/>
<line x1="210" y1="138" x2="236" y2="137" stroke="#EEEDFE" stroke-width="3" stroke-linecap="round" opacity="0.75"/><line x1="255" y1="136" x2="271" y2="135" stroke="#EEEDFE" stroke-width="3" stroke-linecap="round" opacity="0.75"/><line x1="292" y1="135" x2="320" y2="134" stroke="#EEEDFE" stroke-width="3" stroke-linecap="round" opacity="0.75"/><line x1="346" y1="137" x2="364" y2="136" stroke="#EEEDFE" stroke-width="3" stroke-linecap="round" opacity="0.75"/><line x1="560" y1="137" x2="586" y2="136" stroke="#EEEDFE" stroke-width="3" stroke-linecap="round" opacity="0.75"/><line x1="610" y1="133" x2="626" y2="132" stroke="#EEEDFE" stroke-width="3" stroke-linecap="round" opacity="0.75"/><line x1="650" y1="132" x2="678" y2="131" stroke="#EEEDFE" stroke-width="3" stroke-linecap="round" opacity="0.75"/>
<circle cx="470" cy="126" r="7" fill="#f3c46a"/>
<path d="M0,150 C190,132 380,164 600,150 C820,136 1010,166 1200,150 V200 H0 Z" fill="#3C3489"/><path d="M0,180 C220,166 460,192 700,178 C920,166 1080,188 1200,178 V200 H0 Z" fill="#26215C"/>
</svg>