<svg xmlns="http://www.w3.org/2000/svg" viewBox="0 0 1200 200" role="img" aria-label="Ein Zen-Garten von oben: der geharkte Kies zieht ruhige Bögen um drei Steine, darüber steht der goldene Mond">
<rect width="1200" height="200" fill="#EEEDFE"/>
<path d="M1000,34 a24,24 0 1 0 0,42 a28,28 0 0 1 0,-42 Z" fill="#f3c46a"/>
<path d="M60,104 L200,54 L340,104 Z" fill="#CECBF6"/>
<path d="M250,104 L410,40 L570,104 Z" fill="#AFA9EC"/>
<path d="M330,64 q10,-8 20,0 M360,52 q10,-8 20,0" fill="none" stroke="#7F77DD" stroke-width="3" stroke-linecap="round"/>
<path d="M0,104 C200,96 420,112 640,104 C860,96 1020,112 1200,104 V200 H0 Z" fill="#7F77DD"/>
<g fill="none" stroke="#EEEDFE" stroke-width="2" opacity="0.55">
<path d="M0,116 C200,108 420,124 640,116 C860,108 1020,124 1200,116"/>
<path d="M0,128 C160,120 320,136 470,132"/>
<path d="M810,134 C960,136 1060,124 1200,128"/>
<path d="M0,142 C140,134 280,148 400,146"/>
<path d="M880,150 C1000,152 1100,140 1200,142"/>
<ellipse cx="640" cy="150" rx="150" ry="34"/>
<ellipse cx="640" cy="150" rx="185" ry="46"/>
<ellipse cx="640" cy="150" rx="222" ry="58"/>
</g>
<path d="M556,150 C554,132 570,120 590,120 C612,120 626,132 628,150 Z" fill="#3C3489"/>
<path d="M642,150 C640,120 668,100 702,102 C738,104 760,126 758,150 Z" fill="#26215C"/>
<path d="M494,150 C492,138 504,128 518,128 C534,128 544,138 544,150 Z" fill="#534AB7"/>
<path d="M0,178 C220,168 460,190 700,180 C900,172 1060,188 1200,176 V200 H0 Z" fill="#3C3489"/>
<path d="M0,194 C260,188 520,200 780,196 C980,192 1100,198 1200,194 V200 H0 Z" fill="#26215C"/>
</svg>
