<svg xmlns="http://www.w3.org/2000/svg" viewBox="0 0 1200 200" role="img" aria-label="Zwei Sprechblasen überlappen einander — nur ihre Schnittmenge leuchtet golden, und beide Spitzen laufen auf denselben Punkt am Tisch zu">
<rect width="1200" height="200" fill="#EEEDFE"/>
<path d="M160,40 q10,-8 20,0 M190,28 q10,-8 20,0" fill="none" stroke="#AFA9EC" stroke-width="3" stroke-linecap="round"/>
<rect x="252" y="14" width="378" height="92" rx="26" fill="#7F77DD"/>
<rect x="570" y="42" width="378" height="92" rx="26" fill="#534AB7"/>
<rect x="570" y="42" width="60" height="64" fill="#f3c46a"/>
<circle cx="322" cy="60" r="7" fill="#EEEDFE"/><circle cx="364" cy="60" r="7" fill="#EEEDFE"/><circle cx="406" cy="60" r="7" fill="#EEEDFE"/><circle cx="800" cy="88" r="7" fill="#EEEDFE"/><circle cx="842" cy="88" r="7" fill="#EEEDFE"/><circle cx="884" cy="88" r="7" fill="#EEEDFE"/>
<path d="M470,104 L520,104 L594,158 Z" fill="#7F77DD"/>
<path d="M700,132 L750,132 L606,159 Z" fill="#534AB7"/>
<path d="M0,172 C200,166 400,180 600,158 C800,136 1000,172 1200,164 V200 H0 Z" fill="#534AB7"/>
<path d="M0,182 C230,176 470,194 710,183 C930,173 1090,188 1200,181 V200 H0 Z" fill="#3C3489"/>
<path d="M0,194 C260,190 540,199 800,194 C1000,190 1120,197 1200,194 V200 H0 Z" fill="#26215C"/>
</svg>
