<svg xmlns="http://www.w3.org/2000/svg" viewBox="0 0 1200 200" role="img" aria-label="Ein Globus ruht auf der Welle, umgeben von leeren Sprechblasen — die Sprachen der Welt; darüber die goldene Sonne"><rect width="1200" height="200" fill="#EEEDFE"/><circle cx="1040" cy="48" r="26" fill="#f3c46a"/><circle cx="1040" cy="48" r="37" fill="none" stroke="#f3c46a" stroke-width="2" opacity="0.4"/><path d="M0,110 C160,90 340,120 520,104 C700,88 900,120 1080,104 C1140,99 1180,106 1200,102 V200 H0 Z" fill="#CECBF6"/>
<g fill="#AFA9EC"><path d="M470,54 h54 a10,10 0 0 1 10,10 v20 a10,10 0 0 1 -10,10 h-30 l-12,12 v-12 h-12 a10,10 0 0 1 -10,-10 v-20 a10,10 0 0 1 10,-10 Z"/><path d="M690,40 h44 a9,9 0 0 1 9,9 v16 a9,9 0 0 1 -9,9 h-24 l-10,10 v-10 h-10 a9,9 0 0 1 -9,-9 v-16 a9,9 0 0 1 9,-9 Z"/></g><g fill="#CECBF6"><path d="M840,64 h40 a9,9 0 0 1 9,9 v14 a9,9 0 0 1 -9,9 h-22 l-9,9 v-9 h-9 a9,9 0 0 1 -9,-9 v-14 a9,9 0 0 1 9,-9 Z"/></g><circle cx="330" cy="92" r="50" fill="#534AB7"/><g stroke="#AFA9EC" stroke-width="2.2" fill="none" opacity="0.9"><ellipse cx="330" cy="92" rx="50" ry="20"/><ellipse cx="330" cy="92" rx="22" ry="50"/><line x1="280" y1="92" x2="380" y2="92"/></g><path d="M300,74 q14,-8 26,2 q10,8 2,16 q-16,6 -28,-2 q-8,-8 0,-16 Z" fill="#3C3489"/><path d="M344,104 q16,-4 24,8 q4,10 -8,14 q-14,2 -20,-8 q-4,-10 4,-14 Z" fill="#3C3489"/><circle cx="360" cy="60" r="4" fill="#26215C"/><circle cx="250" cy="120" r="3" fill="#3C3489"/><path d="M0,150 C190,132 400,164 620,150 C840,136 1020,166 1200,150 V200 H0 Z" fill="#3C3489"/>
<path d="M0,180 C240,166 480,192 720,178 C940,166 1090,188 1200,178 V200 H0 Z" fill="#26215C"/>
</svg>