<svg xmlns="http://www.w3.org/2000/svg" viewBox="0 0 1200 200" role="img" aria-label="Ein Netz aus verbundenen Knoten über der Welle — ein Knoten fehlt, der goldene schwebt heran und schließt die Verbindung">
<rect width="1200" height="200" fill="#EEEDFE"/>
<g stroke="#AFA9EC" stroke-width="2">
<line x1="440" y1="60" x2="540" y2="96"/><line x1="540" y1="96" x2="470" y2="128"/><line x1="540" y1="96" x2="640" y2="70"/>
<line x1="640" y1="70" x2="720" y2="110"/><line x1="720" y1="110" x2="620" y2="130"/><line x1="470" y1="128" x2="620" y2="130"/>
<line x1="640" y1="70" x2="600" y2="112"/><line x1="600" y1="112" x2="470" y2="128"/><line x1="600" y1="112" x2="620" y2="130"/>
</g>
<g fill="#3C3489"><circle cx="440" cy="60" r="8"/><circle cx="540" cy="96" r="8"/><circle cx="470" cy="128" r="8"/><circle cx="720" cy="110" r="8"/><circle cx="620" cy="130" r="8"/></g>
<circle cx="640" cy="70" r="9" fill="none" stroke="#AFA9EC" stroke-width="2" stroke-dasharray="3 4"/>
<circle cx="600" cy="112" r="8" fill="#534AB7"/>
<circle cx="320" cy="44" r="9" fill="#f3c46a"/>
<path d="M330,50 C430,52 530,58 632,66" fill="none" stroke="#AFA9EC" stroke-width="2" stroke-dasharray="4 6" opacity="0.85"/>
<path d="M0,150 C200,134 420,166 640,152 C860,138 1040,166 1200,152 V200 H0 Z" fill="#3C3489"/>
<path d="M0,180 C240,166 500,192 760,180 C980,168 1110,188 1200,180 V200 H0 Z" fill="#26215C"/>
</svg>