<svg xmlns="http://www.w3.org/2000/svg" viewBox="0 0 1200 200" role="img" aria-label="Ein Baum an der Wasserlinie — unter Wasser setzt sich seine Krone als Wurzelwerk fort; in der Krone leuchtet eine goldene Frucht">
<rect width="1200" height="200" fill="#EEEDFE"/>
<path d="M110,110 L250,52 L390,110 Z" fill="#CECBF6"/>
<path d="M880,110 L1000,64 L1120,110 Z" fill="#CECBF6"/>
<path d="M430,58 q10,-8 20,0 M460,46 q10,-8 20,0" fill="none" stroke="#AFA9EC" stroke-width="3" stroke-linecap="round"/>
<g fill="#3C3489">
<path d="M594,110 L594,76 L606,76 L606,110 Z"/>
<path d="M600,16 C640,16 664,30 672,48 C700,52 706,78 682,88 C660,98 630,96 600,96 C570,96 540,98 518,88 C494,78 500,52 528,48 C536,30 560,16 600,16 Z"/>
<path d="M600,90 L600,40 M600,58 L572,42 M600,66 L630,48" stroke="#EEEDFE" stroke-width="2" opacity="0.35" fill="none"/>
</g>
<path d="M0,110 C180,100 360,120 560,112 C760,104 980,122 1200,110 V200 H0 Z" fill="#534AB7"/>
<g fill="#7F77DD">
<path d="M594,112 L594,140 L606,140 L606,112 Z"/>
<path d="M600,196 C638,196 660,184 668,168 C694,164 700,140 678,132 C658,124 630,126 600,126 C570,126 542,124 522,132 C500,140 506,164 532,168 C540,184 562,196 600,196 Z"/>
<path d="M600,132 L600,186 M600,150 L566,176 M600,158 L634,180 M600,168 L588,190 M600,168 L614,190" stroke="#26215C" stroke-width="2" opacity="0.5" fill="none"/>
</g>
<circle cx="646" cy="52" r="9" fill="#f3c46a"/>
<path d="M0,174 C220,162 460,186 700,174 C900,164 1060,182 1200,172 V200 H0 Z" fill="#3C3489"/>
<path d="M0,192 C260,184 520,200 780,192 C980,186 1100,196 1200,190 V200 H0 Z" fill="#26215C"/>
<circle cx="300" cy="128" r="4" fill="#EEEDFE" opacity="0.45"/>
<circle cx="920" cy="124" r="3" fill="#EEEDFE" opacity="0.45"/>
</svg>
