<svg xmlns="http://www.w3.org/2000/svg" viewBox="0 0 1200 200" role="img" aria-label="Eine Skyline aus Spielautomaten über der Welle — ein Bildschirm leuchtet golden">
<rect width="1200" height="200" fill="#EEEDFE"/>
<path d="M1020,34 a24,24 0 1 0 0,42 a28,28 0 0 1 0,-42 Z" fill="#CECBF6"/>
<path d="M0,152 C120,132 240,144 340,150 L0,150 Z" fill="#CECBF6"/>
<g>
<path d="M170,152 L170,86 Q170,76 180,76 L228,76 Q238,76 238,86 L238,152 Z" fill="#534AB7"/>
<rect x="182" y="92" width="44" height="30" rx="2" fill="#AFA9EC"/>
<rect x="176" y="128" width="56" height="10" rx="3" fill="#3C3489"/>
<path d="M254,152 L254,60 Q254,48 266,48 L322,48 Q334,48 334,60 L334,152 Z" fill="#3C3489"/>
<rect x="268" y="66" width="52" height="34" rx="2" fill="#AFA9EC"/>
<rect x="262" y="110" width="64" height="11" rx="3" fill="#26215C"/>
<path d="M350,152 L350,96 Q350,86 360,86 L414,86 Q424,86 424,96 L424,152 Z" fill="#7F77DD"/>
<rect x="362" y="102" width="50" height="28" rx="2" fill="#CECBF6"/>
<path d="M440,152 L440,44 Q440,32 452,32 L516,32 Q528,32 528,44 L528,152 Z" fill="#534AB7"/>
<rect x="454" y="52" width="60" height="40" rx="2" fill="#f3c46a"/>
<rect x="448" y="102" width="72" height="12" rx="3" fill="#26215C"/>
<circle cx="472" cy="126" r="6" fill="#26215C"/>
<circle cx="496" cy="126" r="6" fill="#26215C"/>
<path d="M544,152 L544,72 Q544,62 554,62 L612,62 Q622,62 622,72 L622,152 Z" fill="#3C3489"/>
<rect x="556" y="80" width="54" height="32" rx="2" fill="#AFA9EC"/>
<rect x="550" y="122" width="66" height="10" rx="3" fill="#26215C"/>
<path d="M638,152 L638,50 Q638,38 650,38 L710,38 Q722,38 722,50 L722,152 Z" fill="#7F77DD"/>
<rect x="652" y="58" width="56" height="36" rx="2" fill="#CECBF6"/>
<rect x="646" y="104" width="68" height="11" rx="3" fill="#534AB7"/>
<path d="M738,152 L738,88 Q738,78 748,78 L800,78 Q810,78 810,88 L810,152 Z" fill="#534AB7"/>
<rect x="750" y="94" width="48" height="30" rx="2" fill="#AFA9EC"/>
<path d="M826,152 L826,58 Q826,46 838,46 L898,46 Q910,46 910,58 L910,152 Z" fill="#3C3489"/>
<rect x="840" y="66" width="56" height="36" rx="2" fill="#AFA9EC"/>
<rect x="834" y="112" width="68" height="10" rx="3" fill="#26215C"/>
<path d="M926,152 L926,100 Q926,90 936,90 L984,90 Q994,90 994,100 L994,152 Z" fill="#7F77DD"/>
<rect x="938" y="106" width="44" height="26" rx="2" fill="#CECBF6"/>
</g>
<path d="M120,64 q10,-8 20,0 M150,52 q10,-8 20,0" fill="none" stroke="#534AB7" stroke-width="3" stroke-linecap="round"/>
<path d="M0,150 C180,138 380,158 600,150 C820,142 1000,160 1200,150 V200 H0 Z" fill="#3C3489"/>
<path d="M0,178 C220,166 460,190 700,177 C920,166 1080,186 1200,176 V200 H0 Z" fill="#26215C"/>
</svg>
