<svg xmlns="http://www.w3.org/2000/svg" viewBox="0 0 1200 200" role="img" aria-label="Ein Scheinwerfer wirft seinen Kegel auf die Landschaft — nur so weit das Licht reicht, ist die Welle ausgefüllt, daneben bleibt sie eine bloße Linie">
<rect width="1200" height="200" fill="#EEEDFE"/>
<defs><clipPath id="kegelA"><path d="M430,74 L206,200 L752,200 Z"/></clipPath></defs>
<rect x="170" y="10" width="860" height="8" rx="4" fill="#26215C"/>
<g transform="translate(430,18) rotate(12)">
<rect x="-4" y="0" width="8" height="14" fill="#26215C"/>
<rect x="-30" y="14" width="60" height="34" rx="6" fill="#26215C"/>
<rect x="-38" y="20" width="8" height="22" rx="2" fill="#3C3489"/>
<path d="M-34,48 L34,48 L26,60 L-26,60 Z" fill="#3C3489"/>
<line x1="-26" y1="60" x2="26" y2="60" stroke="#534AB7" stroke-width="3"/>
</g>
<path d="M430,74 L206,200 L752,200 Z" fill="#f3c46a" opacity="0.36"/>
<path d="M0,148 C120,130 260,124 380,136 C500,148 600,110 700,114 C820,119 960,150 1080,138 C1140,132 1172,136 1200,134" fill="none" stroke="#AFA9EC" stroke-width="4"/>
<g clip-path="url(#kegelA)">
<path d="M0,148 C120,130 260,124 380,136 C500,148 600,110 700,114 C820,119 960,150 1080,138 C1140,132 1172,136 1200,134 V200 H0 Z" fill="#534AB7"/>
</g>
<path d="M880,64 q10,-8 20,0 M912,52 q10,-8 20,0" fill="none" stroke="#534AB7" stroke-width="3" stroke-linecap="round"/>
<path d="M0,166 C200,154 420,180 640,168 C860,156 1040,180 1200,168 V200 H0 Z" fill="#3C3489"/>
<path d="M0,188 C240,178 500,198 760,186 C980,176 1110,192 1200,184 V200 H0 Z" fill="#26215C"/>
</svg>
