<svg xmlns="http://www.w3.org/2000/svg" viewBox="0 0 1200 200" role="img" aria-label="Ein Messschreiber zieht seine Kurve — die geschriebene Linie ist zugleich die vorderste Welle der Landschaft">
<rect width="1200" height="200" fill="#EEEDFE"/>
<path d="M280,52 q10,-8 20,0 M310,40 q10,-8 20,0" fill="none" stroke="#534AB7" stroke-width="3" stroke-linecap="round"/>
<g>
  <rect x="940" y="150" width="96" height="12" rx="5" fill="#26215C"/>
  <rect x="980" y="96" width="16" height="58" fill="#3C3489"/>
  <circle cx="988" cy="92" r="44" fill="#534AB7"/>
  <circle cx="988" cy="92" r="30" fill="#AFA9EC"/>
  <circle cx="988" cy="92" r="9" fill="#26215C"/>
  <path d="M988,62 a30,30 0 0 1 26,15" fill="none" stroke="#EEEDFE" stroke-width="3" stroke-linecap="round"/>
  <path d="M988,122 a30,30 0 0 1 -26,-15" fill="none" stroke="#EEEDFE" stroke-width="3" stroke-linecap="round"/>
  <line x1="960" y1="72" x2="722" y2="116" stroke="#26215C" stroke-width="8" stroke-linecap="round"/>
  <path d="M726,110 L700,122 L722,126 Z" fill="#26215C"/>
  <circle cx="960" cy="72" r="10" fill="#3C3489"/>
</g>
<path d="M0,130 C90,110 150,140 220,126 C290,112 330,148 400,132 C460,118 520,144 580,128 C625,116 665,130 700,122 L700,200 L0,200 Z" fill="#7F77DD"/>
<path d="M0,130 C90,110 150,140 220,126 C290,112 330,148 400,132 C460,118 520,144 580,128 C625,116 665,130 700,122" fill="none" stroke="#534AB7" stroke-width="4" stroke-linecap="round"/>
<circle cx="700" cy="122" r="7.5" fill="#f3c46a"/>
<circle cx="742" cy="146" r="3.5" fill="#3C3489"/>
<circle cx="784" cy="162" r="2.5" fill="#534AB7"/>
<path d="M0,158 C220,144 460,172 700,158 C900,146 1060,170 1200,156 V200 H0 Z" fill="#3C3489"/>
<path d="M0,184 C260,174 520,196 780,184 C980,175 1110,192 1200,184 V200 H0 Z" fill="#26215C"/>
</svg>