<svg xmlns="http://www.w3.org/2000/svg" viewBox="0 0 1200 200" role="img" aria-label="Schreibtisch mit golden leuchtender Lampe — Geschichte"><rect width="1200" height="200" fill="#EEEDFE"/><rect x="440" y="112" width="340" height="12" rx="3" fill="#26215C"/><rect x="470" y="90" width="90" height="22" rx="3" fill="#3C3489"/><rect x="486" y="66" width="58" height="30" rx="3" fill="#534AB7"/><line x1="700" y1="112" x2="700" y2="70" stroke="#3C3489" stroke-width="5"/><line x1="700" y1="70" x2="736" y2="52" stroke="#3C3489" stroke-width="5"/><path d="M736,52 l22,10 l-14,18 Z" fill="#f3c46a"/><circle cx="742" cy="66" r="26" fill="#f3c46a" opacity="0.18"/><ellipse cx="700" cy="112" rx="16" ry="4" fill="#26215C"/><path d="M320,60 q10,-8 20,0 M350,48 q10,-8 20,0" fill="none" stroke="#534AB7" stroke-width="3" stroke-linecap="round"/><path d="M0,124 C160,106 320,140 480,124 C640,108 820,142 1000,124 C1090,115 1150,122 1200,118 V200 H0 Z" fill="#534AB7"/><path d="M0,152 C180,134 380,166 600,152 C820,138 1010,168 1200,152 V200 H0 Z" fill="#3C3489"/><path d="M0,178 C220,164 460,190 700,176 C920,164 1080,188 1200,178 V200 H0 Z" fill="#26215C"/></svg>