<svg xmlns="http://www.w3.org/2000/svg" viewBox="0 0 1200 200" role="img" aria-label="Bürostadt in der Dämmerung — in einem Fenster brennt noch golden das Licht der späten Arbeit">
<rect width="1200" height="200" fill="#EEEDFE"/>
<path d="M200,44 a17,17 0 1 0 0,32 a21,21 0 0 1 0,-32 Z" fill="#CECBF6"/><g fill="#3C3489"><path d="M320,150 L320,96 L380,96 L380,150 Z"/><path d="M760,150 L760,80 L820,80 L820,150 Z"/><path d="M840,150 L840,110 L890,110 L890,150 Z"/></g><g fill="#534AB7"><path d="M400,150 L400,66 L470,66 L470,150 Z"/><path d="M560,150 L560,90 L628,90 L628,150 Z"/><path d="M640,150 L640,116 L700,116 L700,150 Z"/></g><g fill="#26215C"><rect x="414" y="82" width="12" height="15"/><rect x="434" y="82" width="12" height="15"/><rect x="414" y="106" width="12" height="15"/><rect x="434" y="106" width="12" height="15"/></g><rect x="414" y="130" width="12" height="15" fill="#f3c46a"/><path d="M300,60 q9,-7 18,0 M326,52 q9,-7 18,0" fill="none" stroke="#534AB7" stroke-width="3" stroke-linecap="round"/><path d="M0,150 C220,138 460,160 720,150 C940,142 1060,160 1200,150 V200 H0 Z" fill="#534AB7"/><path d="M0,152 C200,136 440,166 680,152 C900,139 1050,166 1200,154 V200 H0 Z" fill="#3C3489"/>
<path d="M0,180 C240,168 500,192 760,180 C980,168 1100,188 1200,180 V200 H0 Z" fill="#26215C"/>
</svg>
