<svg xmlns="http://www.w3.org/2000/svg" viewBox="0 0 1200 200" role="img" aria-label="Ein Schieberegler über der Landschaft — so weit der goldene Knopf steht, so hoch steigt die Welle">
<rect width="1200" height="200" fill="#EEEDFE"/>
<path d="M110,152 L200,110 L286,152 Z" fill="#CECBF6"/>
<path d="M890,152 L1000,90 L1110,152 Z" fill="#CECBF6"/>
<rect x="200" y="50" width="800" height="14" rx="7" fill="#CECBF6"/>
<rect x="200" y="50" width="560" height="14" rx="7" fill="#534AB7"/>
<g stroke="#AFA9EC" stroke-width="4" stroke-linecap="round">
<line x1="200" y1="76" x2="200" y2="94"/><line x1="360" y1="76" x2="360" y2="90"/>
<line x1="520" y1="76" x2="520" y2="94"/><line x1="680" y1="76" x2="680" y2="90"/>
<line x1="840" y1="76" x2="840" y2="94"/><line x1="1000" y1="76" x2="1000" y2="94"/>
</g>
<line x1="760" y1="86" x2="760" y2="120" stroke="#534AB7" stroke-width="2" stroke-dasharray="5 6" opacity="0.7"/>
<circle cx="760" cy="57" r="19" fill="#f3c46a"/>
<path d="M330,42 q10,-8 20,0 M360,32 q10,-8 20,0" fill="none" stroke="#AFA9EC" stroke-width="3" stroke-linecap="round"/>
<path d="M0,192 C160,188 320,178 460,162 C580,148 660,132 760,120 C880,126 1020,118 1200,126 V200 H0 Z" fill="#534AB7"/>
<path d="M0,198 C200,190 420,186 640,180 C860,174 1040,186 1200,178 V200 H0 Z" fill="#3C3489"/>
<path d="M0,200 C260,193 520,199 780,195 C980,191 1100,198 1200,193 V200 H0 Z" fill="#26215C"/>
</svg>
