<svg xmlns="http://www.w3.org/2000/svg" viewBox="0 0 1200 200" role="img" aria-label="Eine Angel über der Welle — der Haken holt sich den goldenen Fisch">
<rect width="1200" height="200" fill="#EEEDFE"/>
<path d="M200,40 a22,22 0 1 0 0,36 a26,26 0 0 1 0,-36 Z" fill="#CECBF6"/>
<path d="M0,132 C190,118 400,142 620,130 C840,118 1030,142 1200,130 V200 H0 Z" fill="#534AB7"/>
<g>
<line x1="410" y1="128" x2="660" y2="30" stroke="#26215C" stroke-width="7" stroke-linecap="round"/>
<line x1="410" y1="128" x2="440" y2="110" stroke="#26215C" stroke-width="12" stroke-linecap="round"/>
<path d="M660,30 C720,34 750,52 758,74" fill="none" stroke="#26215C" stroke-width="3"/>
<path d="M758,74 L758,96 a13,13 0 1 1 -24,8" fill="none" stroke="#26215C" stroke-width="5" stroke-linecap="round"/>
</g>
<g transform="translate(742,142) rotate(-52)">
<path d="M0,0 C16,-14 40,-16 60,-7 C46,5 22,9 0,0 Z" fill="#f3c46a"/>
<path d="M60,-7 L82,-19 L77,0 L60,-7 Z" fill="#f3c46a"/>
<circle cx="18" cy="-6" r="3" fill="#26215C"/>
</g>
<path d="M700,150 q9,6 20,3 M770,156 q9,6 18,3" fill="none" stroke="#3C3489" stroke-width="3.5" stroke-linecap="round"/>
<path d="M330,64 q10,-8 20,0 M360,52 q10,-8 20,0" fill="none" stroke="#534AB7" stroke-width="3" stroke-linecap="round"/>
<path d="M0,158 C210,146 440,170 660,158 C880,146 1050,168 1200,157 V200 H0 Z" fill="#3C3489"/>
<path d="M0,184 C240,174 500,196 760,184 C980,174 1110,190 1200,183 V200 H0 Z" fill="#26215C"/>
</svg>
