<svg xmlns="http://www.w3.org/2000/svg" viewBox="0 0 1200 200" role="img" aria-label="Kapseln stapeln sich zu einem Turm — Satzbau in der Medizin"><rect width="1200" height="200" fill="#EEEDFE"/><path d="M1000,42 a20,20 0 1 0 0,36 a24,24 0 0 1 0,-36 Z" fill="#CECBF6"/><g><rect x="500" y="150" width="120" height="34" rx="17" fill="#534AB7"/><rect x="560" y="150" width="60" height="34" rx="17" fill="#3C3489"/><rect x="470" y="110" width="120" height="34" rx="17" fill="#7F77DD"/><rect x="530" y="110" width="60" height="34" rx="17" fill="#534AB7"/><rect x="520" y="66" width="120" height="34" rx="17" fill="#AFA9EC"/><rect x="580" y="66" width="60" height="34" rx="17" fill="#f3c46a"/></g><path d="M0,150 C190,132 400,164 620,150 C840,136 1020,166 1200,150 V200 H0 Z" fill="#3C3489"/><path d="M0,180 C240,166 480,192 720,178 C940,166 1090,188 1200,178 V200 H0 Z" fill="#26215C"/></svg>