<svg xmlns="http://www.w3.org/2000/svg" viewBox="0 0 1200 200" role="img" aria-label="Weltraum-Panorama: ein Ringplanet, aufsteigende Umlaufbahnen und Sternenhügel unter der goldenen Sonne">
<rect width="1200" height="200" fill="#EEEDFE"/>
<circle cx="210" cy="44" r="2" fill="#EEEDFE" opacity="0.5"/><circle cx="330" cy="84" r="1.6" fill="#EEEDFE" opacity="0.45"/><circle cx="900" cy="40" r="2" fill="#EEEDFE" opacity="0.5"/><circle cx="1010" cy="80" r="1.6" fill="#EEEDFE" opacity="0.45"/><circle cx="150" cy="96" r="1.5" fill="#EEEDFE" opacity="0.4"/><circle cx="1060" cy="54" r="1.8" fill="#EEEDFE" opacity="0.5"/><circle cx="470" cy="40" r="1.6" fill="#EEEDFE" opacity="0.4"/><circle cx="720" cy="36" r="1.6" fill="#EEEDFE" opacity="0.4"/>
<circle cx="880" cy="56" r="24" fill="#f3c46a"/>
<ellipse cx="880" cy="56" rx="40" ry="12" fill="none" stroke="#f3c46a" stroke-width="2" opacity="0.45"/>
<ellipse cx="380" cy="70" rx="150" ry="34" fill="none" stroke="#AFA9EC" stroke-width="2" opacity="0.5"/>
<ellipse cx="380" cy="70" rx="150" ry="34" fill="none" stroke="#AFA9EC" stroke-width="2" opacity="0.3" transform="rotate(20 380 70)"/>
<circle cx="380" cy="70" r="12" fill="#AFA9EC"/>
<path d="M0,134 L170,100 L330,134 Z" fill="#CECBF6"/>
<path d="M600,134 L760,92 L920,134 Z" fill="#7F77DD"/>
<path d="M0,140 C210,122 420,150 640,140 C860,130 1030,152 1200,140 V200 H0 Z" fill="#534AB7"/>
<path d="M0,150 C190,132 380,164 600,150 C820,136 1010,166 1200,150 V200 H0 Z" fill="#3C3489"/><path d="M0,180 C220,166 460,192 700,178 C920,166 1080,188 1200,178 V200 H0 Z" fill="#26215C"/>
</svg>