<svg xmlns="http://www.w3.org/2000/svg" viewBox="0 0 1200 200" role="img" aria-label="Eine Leiter lehnt über dem Weg — in ihrer Mitte fehlt eine Sprosse, die goldene schwebt neben der Lücke">
<rect width="1200" height="200" fill="#EEEDFE"/>
<path d="M120,124 L250,70 L380,124 Z" fill="#CECBF6"/>
<path d="M860,124 L1000,58 L1140,124 Z" fill="#CECBF6"/>
<path d="M250,58 q10,-8 20,0 M280,46 q10,-8 20,0" fill="none" stroke="#AFA9EC" stroke-width="3" stroke-linecap="round"/>
<path d="M0,128 C160,114 340,140 520,130 C740,118 960,140 1200,126 V200 H0 Z" fill="#AFA9EC"/>
<g stroke="#26215C" stroke-width="9" stroke-linecap="round">
<line x1="470" y1="164" x2="700" y2="30"/>
<line x1="504" y1="176" x2="734" y2="42"/>
</g>
<g stroke="#3C3489" stroke-width="7" stroke-linecap="round">
<line x1="487" y1="170" x2="504" y2="160"/>
<line x1="521" y1="150" x2="538" y2="140"/>
<line x1="555" y1="130" x2="572" y2="120"/>
<line x1="623" y1="90" x2="640" y2="80"/>
<line x1="657" y1="70" x2="674" y2="60"/>
<line x1="691" y1="50" x2="708" y2="40"/>
</g>
<line x1="583" y1="88" x2="600" y2="78" stroke="#f3c46a" stroke-width="7" stroke-linecap="round"/>
<path d="M0,150 C180,138 400,164 620,152 C860,139 1020,160 1200,148 V200 H0 Z" fill="#7F77DD"/>
<path d="M0,172 C220,160 460,186 700,174 C900,163 1050,180 1200,168 V200 H0 Z" fill="#3C3489"/>
<path d="M0,190 C260,182 520,200 780,192 C980,186 1100,196 1200,190 V200 H0 Z" fill="#26215C"/>
<circle cx="860" cy="152" r="4" fill="#EEEDFE" opacity="0.45"/>
<circle cx="300" cy="158" r="3" fill="#EEEDFE" opacity="0.45"/>
</svg>
