<svg xmlns="http://www.w3.org/2000/svg" viewBox="0 0 1200 200" role="img" aria-label="Pro und Kontra als zwei Sprechblasen in den Schalen einer Waage — der Waagebalken ist zugleich die vorderste Welle, in der Mitte hält der goldene Punkt sie im Gleichgewicht">
<rect width="1200" height="200" fill="#EEEDFE"/>
<circle cx="230" cy="50" r="2" fill="#EEEDFE" opacity="0.45"/><circle cx="980" cy="54" r="1.8" fill="#EEEDFE" opacity="0.4"/>
<line x1="600" y1="60" x2="600" y2="150" stroke="#3C3489" stroke-width="5" stroke-linecap="round"/>
<path d="M330,86 C440,70 760,70 870,86" fill="none" stroke="#534AB7" stroke-width="4" stroke-linecap="round"/>
<circle cx="600" cy="66" r="9" fill="#f3c46a"/>
<line x1="360" y1="86" x2="360" y2="108" stroke="#7F77DD" stroke-width="2"/>
<path d="M320,108 q0,-12 14,-12 l52,0 q14,0 14,12 q0,12 -14,12 l-36,0 l-10,9 l1,-9 q-21,0 -21,-12 Z" fill="#7F77DD"/>
<line x1="840" y1="86" x2="840" y2="108" stroke="#3C3489" stroke-width="2"/>
<path d="M796,108 q0,-12 14,-12 l52,0 q14,0 14,12 q0,12 -14,12 l-30,0 l-10,9 l1,-9 q-27,0 -27,-12 Z" fill="#3C3489"/>
<path d="M0,150 C150,138 300,146 470,144 C560,143 560,150 600,150 C660,150 760,140 900,146 C1030,151 1120,144 1200,148 V200 H0 Z" fill="#534AB7"/>
<path d="M0,150 C190,132 380,164 600,150 C820,136 1010,166 1200,150 V200 H0 Z" fill="#3C3489"/><path d="M0,180 C220,166 460,192 700,178 C920,166 1080,188 1200,178 V200 H0 Z" fill="#26215C"/>
</svg>