<svg xmlns="http://www.w3.org/2000/svg" viewBox="0 0 1200 200" role="img" aria-label="Zwei Sprechblasen der Freunde, deren Unterkanten zusammen die vordere Welle bilden; wo sie sich berühren, leuchtet ein goldener Punkt">
<rect width="1200" height="200" fill="#EEEDFE"/>
<path d="M0,140 C120,126 240,150 350,142 L350,120 A60,42 0 0 1 470,120 L560,120 C560,132 560,140 560,150 V200 H0 Z" fill="#7F77DD"/>
<path d="M1200,140 C1080,126 960,150 850,142 L850,120 A60,42 0 0 0 730,120 L640,120 C640,132 640,140 640,150 V200 H1200 Z" fill="#7F77DD"/>
<path d="M420,158 l-14,20 l30,-8 Z" fill="#7F77DD"/><path d="M780,158 l14,20 l-30,-8 Z" fill="#7F77DD"/>
<circle cx="600" cy="150" r="9" fill="#f3c46a"/>
<circle cx="600" cy="150" r="16" fill="none" stroke="#f3c46a" stroke-width="2" opacity="0.5"/>
<g fill="#EEEDFE" opacity="0.5"><rect x="380" y="96" width="70" height="6" rx="3"/><rect x="380" y="110" width="52" height="6" rx="3"/><rect x="756" y="96" width="70" height="6" rx="3"/><rect x="774" y="110" width="52" height="6" rx="3"/></g>
<path d="M0,168 C220,154 460,182 700,170 C920,158 1080,182 1200,172 V200 H0 Z" fill="#3C3489"/>
<path d="M0,186 C240,176 520,196 780,186 C1000,178 1120,192 1200,186 V200 H0 Z" fill="#26215C"/>
</svg>