<svg xmlns="http://www.w3.org/2000/svg" viewBox="0 0 1200 200" role="img" aria-label="Eine Litfaßsäule an der Welle — ein Plakat leuchtet golden">
<rect width="1200" height="200" fill="#EEEDFE"/>
<path d="M680,150 L840,94 L1010,150 Z" fill="#CECBF6"/>
<path d="M880,58 q10,-8 20,0 M912,46 q10,-8 20,0" fill="none" stroke="#534AB7" stroke-width="3" stroke-linecap="round"/>
<g>
<rect x="342" y="44" width="86" height="110" fill="#3C3489"/>
<path d="M342,154 A43,8 0 0 0 428,154 Z" fill="#3C3489"/>
<path d="M342,44 A43,16 0 0 1 428,44 Z" fill="#26215C"/>
<circle cx="385" cy="26" r="4" fill="#26215C"/>
<rect x="350" y="54" width="26" height="42" rx="2" fill="#CECBF6"/>
<rect x="382" y="52" width="38" height="58" rx="2" fill="#f3c46a"/>
<rect x="350" y="104" width="26" height="26" rx="2" fill="#AFA9EC"/>
<rect x="386" y="118" width="32" height="22" rx="2" fill="#CECBF6"/>
</g>
<path d="M0,152 C190,140 400,160 620,150 C840,140 1030,158 1200,149 V200 H0 Z" fill="#534AB7"/>
<circle cx="560" cy="160" r="3" fill="#AFA9EC"/>
<path d="M0,172 C220,164 450,182 670,172 C890,164 1060,178 1200,171 V200 H0 Z" fill="#3C3489"/>
<path d="M0,191 C240,186 500,198 760,192 C980,188 1120,196 1200,192 V200 H0 Z" fill="#26215C"/>
</svg>
