<svg xmlns="http://www.w3.org/2000/svg" viewBox="0 0 1200 200" role="img" aria-label="Eine Litfaßsäule an der Uferpromenade — ein Plakat leuchtet golden">
<rect width="1200" height="200" fill="#EEEDFE"/>
<path d="M290,56 q10,-8 20,0 M324,44 q10,-8 20,0" fill="none" stroke="#534AB7" stroke-width="3" stroke-linecap="round"/>
<path d="M0,136 C220,126 480,146 740,137 C960,129 1110,141 1200,135 V200 H0 Z" fill="#AFA9EC"/>
<g>
<path d="M560,38 a56,16 0 0 1 112,0 Z" fill="#26215C"/>
<rect x="552" y="36" width="128" height="8" rx="4" fill="#26215C"/>
<rect x="566" y="44" width="100" height="116" fill="#26215C"/>
<rect x="560" y="158" width="112" height="10" rx="4" fill="#26215C"/>
<rect x="578" y="58" width="34" height="44" rx="3" fill="#f3c46a"/>
<rect x="622" y="66" width="32" height="40" rx="3" fill="#AFA9EC"/>
<rect x="586" y="112" width="52" height="36" rx="3" fill="#CECBF6"/>
</g>
<g fill="#3C3489">
<path d="M816,138 C824,144 872,144 880,138 L892,118 L804,118 Z"/>
<line x1="846" y1="116" x2="846" y2="76" stroke="#3C3489" stroke-width="5" stroke-linecap="round"/>
<path d="M850,80 L850,112 L884,112 Z"/>
<path d="M842,86 L842,110 L816,110 Z"/>
</g>
<path d="M0,162 C240,152 500,172 760,163 C980,156 1120,166 1200,161 V200 H0 Z" fill="#3C3489"/>
<path d="M0,186 C260,180 520,194 780,188 C1000,183 1120,192 1200,189 V200 H0 Z" fill="#26215C"/>
</svg>
