<svg xmlns="http://www.w3.org/2000/svg" viewBox="0 0 1200 200" role="img" aria-label="Zwei Sprechblasen, deren Ausläufer zu Wellenkämmen werden und sich in der Mitte golden begegnen — Rede und Gegenrede im Rollenspiel">
<rect width="1200" height="200" fill="#EEEDFE"/>
<g fill="#7F77DD"><rect x="230" y="66" width="96" height="50" rx="12"/></g>
<g fill="#534AB7"><rect x="876" y="66" width="96" height="50" rx="12"/></g>
<g stroke="#EEEDFE" stroke-width="4" stroke-linecap="round" opacity="0.85"><line x1="248" y1="84" x2="308" y2="84"/><line x1="248" y1="98" x2="296" y2="98"/><line x1="894" y1="84" x2="954" y2="84"/><line x1="894" y1="98" x2="942" y2="98"/></g>
<path d="M300,116 C420,140 540,150 600,150 C660,150 780,140 902,116 L902,200 L300,200 Z" fill="#7F77DD"/>
<path d="M300,116 C420,140 540,150 600,150 C660,150 780,140 902,116" fill="none" stroke="#AFA9EC" stroke-width="3"/>
<circle cx="600" cy="150" r="9" fill="#f3c46a"/>
<path d="M0,158 C190,140 400,170 620,156 C840,142 1020,172 1200,156 V200 H0 Z" fill="#3C3489"/>
<path d="M0,184 C240,170 480,196 720,182 C940,170 1090,192 1200,182 V200 H0 Z" fill="#26215C"/>
</svg>
