<svg xmlns="http://www.w3.org/2000/svg" viewBox="0 0 1200 200" role="img" aria-label="Eine Pulslinie zieht über die Hügel — warum der Körper aus dem Takt gerät"><rect width="1200" height="200" fill="#EEEDFE"/><path d="M170,34 a22,22 0 1 0 0,38 a26,26 0 0 1 0,-38 Z" fill="#CECBF6"/><path d="M150,108 L420,108 L446,108 L470,64 L500,150 L528,108 L820,108 L858,108 L882,84 L904,132 L928,108 L1050,108" fill="none" stroke="#3C3489" stroke-width="4" stroke-linecap="round" stroke-linejoin="round"/><circle cx="470" cy="64" r="6" fill="#f3c46a"/><path d="M0,128 C150,106 320,142 500,124 C680,106 860,144 1040,124 C1110,116 1170,126 1200,120 V200 H0 Z" fill="#534AB7"/><path d="M0,150 C190,132 400,164 620,150 C840,136 1020,166 1200,150 V200 H0 Z" fill="#3C3489"/><path d="M0,180 C240,166 480,192 720,178 C940,166 1090,188 1200,178 V200 H0 Z" fill="#26215C"/></svg>