<svg xmlns="http://www.w3.org/2000/svg" viewBox="0 0 1200 200" role="img" aria-label="Eine Bühnentraverse wird Stück für Stück aufgebaut — in der Reihe fehlt ein Segment, das goldene schwebt über der Lücke">
<rect width="1200" height="200" fill="#EEEDFE"/>
<path d="M0,144 C160,126 320,138 480,132 C660,125 840,140 1020,128 C1100,123 1160,127 1200,124 V200 H0 Z" fill="#AFA9EC"/>
<g stroke="#26215C" stroke-width="5" fill="none">
<path d="M300,148 L300,72 M336,148 L336,72"/>
<path d="M300,148 L336,128 L300,108 L336,88 L300,72"/>
<path d="M864,148 L864,72 M900,148 L900,72"/>
<path d="M864,148 L900,128 L864,108 L900,88 L864,72"/>
</g>
<g stroke="#3C3489" stroke-width="5" fill="none">
<path d="M290,66 L560,66 M290,90 L560,90"/>
<path d="M290,90 L326,66 L362,90 L398,66 L434,90 L470,66 L506,90 L542,66"/>
<path d="M700,66 L910,66 M700,90 L910,90"/>
<path d="M700,90 L736,66 L772,90 L808,66 L844,90 L880,66"/>
</g>
<g stroke="#f3c46a" stroke-width="5" fill="none">
<path d="M566,26 L694,26 M566,50 L566,26 M694,50 L694,26 M566,50 L694,50"/>
<path d="M566,50 L602,26 L638,50 L674,26 L694,42"/>
</g>
<g transform="translate(806,90)">
<rect x="-3" y="0" width="6" height="10" fill="#26215C"/>
<rect x="-22" y="10" width="44" height="26" rx="5" fill="#26215C"/>
<rect x="-28" y="14" width="6" height="17" rx="2" fill="#3C3489"/>
<path d="M-25,36 L25,36 L19,48 L-19,48 Z" fill="#3C3489"/>
<line x1="-19" y1="48" x2="19" y2="48" stroke="#534AB7" stroke-width="3"/>
</g>
<path d="M1000,58 q10,-8 20,0 M1032,46 q10,-8 20,0" fill="none" stroke="#534AB7" stroke-width="3" stroke-linecap="round"/>
<path d="M0,162 C200,150 420,178 640,164 C860,150 1040,176 1200,162 V200 H0 Z" fill="#3C3489"/>
<path d="M0,186 C240,176 500,196 760,184 C980,174 1110,190 1200,182 V200 H0 Z" fill="#26215C"/>
</svg>
