<svg xmlns="http://www.w3.org/2000/svg" viewBox="0 0 1200 200" role="img" aria-label="Ein Rednerpult auf der Welle — die goldene Sprechblase steigt auf">
<rect width="1200" height="200" fill="#EEEDFE"/>
<path d="M230,48 q10,-8 20,0 M264,37 q10,-8 20,0" fill="none" stroke="#534AB7" stroke-width="3" stroke-linecap="round"/>
<path d="M560,120 C556,80 556,60 566,44 C560,36 562,26 572,24 L584,24 C594,26 596,36 590,44 C600,60 600,80 596,120 Z" fill="none"/>
<rect x="566" y="96" width="88" height="74" rx="4" fill="#26215C"/>
<path d="M552,86 L668,86 L662,100 L558,100 Z" fill="#3C3489"/>
<path d="M646,84 C660,74 664,62 660,52" fill="none" stroke="#26215C" stroke-width="5" stroke-linecap="round"/>
<circle cx="660" cy="48" r="7" fill="#26215C"/>
<path d="M706,26 h74 a12,12 0 0 1 12,12 v18 a12,12 0 0 1 -12,12 h-46 l-16,16 v-16 h-12 a12,12 0 0 1 -12,-12 v-18 a12,12 0 0 1 12,-12 Z" fill="#f3c46a"/>
<circle cx="884" cy="60" r="4" fill="#534AB7"/>
<circle cx="912" cy="44" r="3" fill="#534AB7"/>
<path d="M0,146 C180,134 380,154 600,144 C820,134 1030,156 1200,144 V200 H0 Z" fill="#7F77DD"/>
<path d="M0,168 C230,158 470,180 690,168 C910,158 1070,178 1200,167 V200 H0 Z" fill="#3C3489"/>
<path d="M0,189 C250,181 530,199 790,188 C1000,181 1130,193 1200,187 V200 H0 Z" fill="#26215C"/>
</svg>
