<svg xmlns="http://www.w3.org/2000/svg" viewBox="0 0 1200 200" role="img" aria-label="Gefuehls-Wetter ueber derselben Landschaft: links die goldene Sonne, rechts eine Regenwolke mit Striche">
<rect width="1200" height="200" fill="#EEEDFE"/>
<circle cx="330" cy="56" r="27" fill="#f3c46a"/>
<g stroke="#f3c46a" stroke-width="3" stroke-linecap="round"><line x1="330" y1="16" x2="330" y2="26"/><line x1="286" y1="56" x2="296" y2="56"/><line x1="364" y1="56" x2="374" y2="56"/><line x1="300" y1="26" x2="307" y2="33"/><line x1="360" y1="26" x2="353" y2="33"/></g>
<path d="M780,58 a26,26 0 0 1 50,-6 a22,22 0 0 1 34,26 h-96 a20,18 0 0 1 12,-20 Z" fill="#AFA9EC"/>
<g stroke="#7F77DD" stroke-width="3" stroke-linecap="round"><line x1="800" y1="86" x2="792" y2="104"/><line x1="830" y1="86" x2="822" y2="104"/><line x1="860" y1="86" x2="852" y2="104"/></g>
<path d="M0,150 C200,134 420,164 620,150 C820,136 1010,164 1200,150 V200 H0 Z" fill="#7F77DD"/>
<path d="M0,172 C230,158 480,186 740,172 C960,160 1090,182 1200,174 V200 H0 Z" fill="#3C3489"/>
<path d="M0,188 C240,180 520,198 780,188 C1000,180 1120,194 1200,188 V200 H0 Z" fill="#26215C"/>
</svg>