<svg xmlns="http://www.w3.org/2000/svg" viewBox="0 0 1200 200" role="img" aria-label="Aus der Reihe der Messbalken ragt ein einziger goldener Ausschlag heraus — die Federspitze zieht gerade seine Kante nach">
<rect width="1200" height="200" fill="#EEEDFE"/>
<rect x="380" y="136" width="26" height="14" rx="3" fill="#534AB7"/>
<rect x="414" y="130" width="26" height="20" rx="3" fill="#534AB7"/>
<rect x="448" y="122" width="26" height="28" rx="3" fill="#534AB7"/>
<rect x="482" y="112" width="26" height="38" rx="3" fill="#534AB7"/>
<rect x="516" y="98" width="26" height="52" rx="3" fill="#534AB7"/>
<rect x="550" y="86" width="26" height="64" rx="3" fill="#534AB7"/>
<rect x="618" y="86" width="26" height="64" rx="3" fill="#534AB7"/>
<rect x="652" y="98" width="26" height="52" rx="3" fill="#534AB7"/>
<rect x="686" y="112" width="26" height="38" rx="3" fill="#534AB7"/>
<rect x="720" y="122" width="26" height="28" rx="3" fill="#534AB7"/>
<rect x="754" y="130" width="26" height="20" rx="3" fill="#534AB7"/>
<rect x="788" y="136" width="26" height="14" rx="3" fill="#534AB7"/>
<rect x="584" y="52" width="26" height="98" rx="3" fill="#f3c46a"/>
<g transform="translate(600,50) rotate(28)">
<path d="M0,0 C-8,-11 -13,-27 -11,-46 L11,-46 C13,-27 8,-11 0,0 Z" fill="#26215C"/>
<circle cx="0" cy="-32" r="4.5" fill="#EEEDFE"/>
<line x1="0" y1="-27" x2="0" y2="-7" stroke="#EEEDFE" stroke-width="2.5" stroke-linecap="round"/>
<rect x="-12" y="-56" width="24" height="10" rx="3" fill="#534AB7"/>
<path d="M-5,-56 C-8,-82 2,-104 28,-120 C18,-96 21,-74 10,-56 Z" fill="#7F77DD"/>
</g>
<path d="M200,50 q10,-8 20,0 M230,38 q10,-8 20,0" fill="none" stroke="#534AB7" stroke-width="3" stroke-linecap="round"/>
<circle cx="960" cy="70" r="3.5" fill="#CECBF6"/>
<path d="M0,150 C190,136 400,162 620,150 C840,138 1020,164 1200,150 V200 H0 Z" fill="#3C3489"/>
<path d="M0,180 C240,170 500,196 760,182 C960,173 1100,190 1200,180 V200 H0 Z" fill="#26215C"/>
</svg>