<svg xmlns="http://www.w3.org/2000/svg" viewBox="0 0 1200 200" role="img" aria-label="Der breite Block schwebt beiseite — an seine Stelle tritt eine schmale goldene Stütze, und der Balken trägt genauso">
<rect width="1200" height="200" fill="#EEEDFE"/>
<path d="M190,54 q10,-8 20,0 M220,42 q10,-8 20,0" fill="none" stroke="#AFA9EC" stroke-width="3" stroke-linecap="round"/>
<circle cx="1090" cy="52" r="22" fill="#CECBF6"/>
<rect x="850" y="26" width="196" height="50" rx="4" fill="#7F77DD" transform="rotate(-5 948 51)"/>
<path d="M836,58 C760,44 700,54 640,84" fill="none" stroke="#AFA9EC" stroke-width="3" stroke-dasharray="9 8"/>
<path d="M646,72 L634,90 L656,88 Z" fill="#AFA9EC"/>
<rect x="360" y="86" width="440" height="26" rx="4" fill="#3C3489"/>
<rect x="372" y="112" width="58" height="42" rx="3" fill="#26215C"/>
<rect x="730" y="112" width="58" height="42" rx="3" fill="#26215C"/>
<rect x="566" y="112" width="28" height="42" rx="3" fill="#f3c46a"/>
<path d="M0,152 C200,144 420,166 640,155 C860,144 1040,166 1200,152 V200 H0 Z" fill="#534AB7"/>
<path d="M0,174 C220,166 460,190 700,177 C920,166 1080,184 1200,174 V200 H0 Z" fill="#3C3489"/>
<path d="M0,192 C260,187 540,198 800,192 C1000,188 1120,195 1200,192 V200 H0 Z" fill="#26215C"/>
</svg>
