<svg xmlns="http://www.w3.org/2000/svg" viewBox="0 0 1200 200" role="img" aria-label="Drei Türme wachsen von klein zu groß — der größte trägt die goldene Fahne">
<rect width="1200" height="200" fill="#EEEDFE"/>
<path d="M0,132 C220,120 460,142 680,130 C900,120 1060,140 1200,130 V200 H0 Z" fill="#AFA9EC"/>
<g fill="#534AB7">
<rect x="392" y="106" width="44" height="34" rx="2"/>
<rect x="386" y="100" width="56" height="8" rx="3"/>
</g>
<g fill="#3C3489">
<rect x="576" y="74" width="50" height="66" rx="2"/>
<rect x="569" y="67" width="64" height="8" rx="3"/>
</g>
<g fill="#26215C">
<rect x="762" y="38" width="56" height="102" rx="2"/>
<rect x="754" y="31" width="72" height="9" rx="3"/>
</g>
<rect x="788" y="6" width="4" height="27" fill="#26215C"/>
<path d="M792,7 L824,14 L792,22 Z" fill="#f3c46a"/>
<path d="M180,58 q11,-9 22,0 M216,70 q9,-8 18,0" fill="none" stroke="#534AB7" stroke-width="3" stroke-linecap="round"/>
<path d="M0,152 C230,142 480,164 700,152 C920,141 1090,162 1200,152 V200 H0 Z" fill="#7F77DD"/>
<path d="M0,172 C250,163 520,186 760,173 C970,163 1110,181 1200,172 V200 H0 Z" fill="#3C3489"/>
<path d="M0,189 C270,182 560,199 820,188 C1020,182 1150,194 1200,189 V200 H0 Z" fill="#26215C"/>
</svg>
