<svg xmlns="http://www.w3.org/2000/svg" viewBox="0 0 1200 200" role="img" aria-label="Ein langes Regal über den Wellen — das Buch liegt, die Vase steht, die Katze sitzt, das Bild hängt">
<rect width="1200" height="200" fill="#EEEDFE"/>
<path d="M200,52 q10,-8 20,0 M234,40 q10,-8 20,0" fill="none" stroke="#534AB7" stroke-width="3" stroke-linecap="round"/>
<rect x="330" y="118" width="560" height="10" rx="3" fill="#26215C"/>
<rect x="352" y="128" width="8" height="26" fill="#26215C"/>
<rect x="860" y="128" width="8" height="26" fill="#26215C"/>
<rect x="360" y="106" width="92" height="12" rx="3" fill="#3C3489"/>
<rect x="370" y="96" width="72" height="10" rx="3" fill="#534AB7"/>
<g fill="#f3c46a"><rect x="568" y="48" width="20" height="8" rx="3"/><rect x="572" y="54" width="12" height="20"/><path d="M566,72 C548,82 546,106 562,118 L594,118 C610,106 608,82 590,72 Z"/></g>
<path d="M712,118 C708,92 722,72 736,72 C748,72 758,90 756,118 Z" fill="#26215C"/>
<circle cx="737" cy="63" r="13" fill="#26215C"/>
<path d="M727,55 L723,40 L735,51 Z" fill="#26215C"/>
<path d="M747,55 L751,40 L739,51 Z" fill="#26215C"/>
<path d="M756,116 C772,112 776,96 768,88" fill="none" stroke="#26215C" stroke-width="7" stroke-linecap="round"/>
<rect x="836" y="30" width="6" height="88" fill="#3C3489"/>
<rect x="788" y="30" width="54" height="6" fill="#3C3489"/>
<line x1="800" y1="36" x2="800" y2="50" stroke="#3C3489" stroke-width="3"/>
<rect x="778" y="50" width="44" height="34" rx="3" fill="#3C3489"/>
<rect x="785" y="57" width="30" height="20" rx="2" fill="#CECBF6"/>
<path d="M0,140 C170,128 360,148 560,138 C780,128 1000,150 1200,138 V200 H0 Z" fill="#7F77DD"/>
<path d="M0,162 C220,150 460,174 680,162 C900,150 1060,172 1200,161 V200 H0 Z" fill="#3C3489"/>
<path d="M0,186 C250,176 520,196 780,185 C990,176 1120,190 1200,184 V200 H0 Z" fill="#26215C"/>
</svg>
