<svg xmlns="http://www.w3.org/2000/svg" viewBox="0 0 1200 200" role="img" aria-label="Eine Laterne über dem Wasser — der Mast trägt nur, erst das goldene Licht macht die Welle voll; links von ihm bleibt sie eine leere Linie">
<rect width="1200" height="200" fill="#EEEDFE"/>
<path d="M880,40 q10,-8 20,0 M910,28 q10,-8 20,0" fill="none" stroke="#AFA9EC" stroke-width="3" stroke-linecap="round"/>
<path d="M0,148 C130,140 300,154 520,144" fill="none" stroke="#7F77DD" stroke-width="4" stroke-linecap="round"/>
<path d="M520,144 C640,132 780,152 920,140 C1030,130 1120,146 1200,138 V200 H520 Z" fill="#7F77DD"/>
<circle cx="580" cy="60" r="52" fill="none" stroke="#f3c46a" stroke-width="2" opacity="0.35"/>
<line x1="520" y1="180" x2="520" y2="34" stroke="#26215C" stroke-width="10" stroke-linecap="round"/>
<path d="M520,34 C520,10 550,10 580,10" fill="none" stroke="#26215C" stroke-width="10" stroke-linecap="round"/>
<path d="M546,22 L614,22 L638,84 L522,84 Z" fill="#26215C"/>
<path d="M558,34 L602,34 L618,76 L542,76 Z" fill="#f3c46a"/>
<g stroke="#CECBF6" stroke-width="5" stroke-linecap="round"><line x1="660" y1="60" x2="726" y2="48"/><line x1="662" y1="84" x2="734" y2="88"/><line x1="652" y1="102" x2="712" y2="126"/></g>
<circle cx="300" cy="148" r="4" fill="#AFA9EC"/><circle cx="180" cy="144" r="3" fill="#AFA9EC"/><circle cx="410" cy="150" r="3" fill="#AFA9EC"/>
<path d="M0,172 C220,164 460,188 700,176 C920,165 1080,184 1200,174 V200 H0 Z" fill="#3C3489"/>
<path d="M0,192 C260,187 540,199 800,192 C1000,188 1120,196 1200,192 V200 H0 Z" fill="#26215C"/>
</svg>
