<svg xmlns="http://www.w3.org/2000/svg" viewBox="0 0 1200 200" role="img" aria-label="Eine Lichtbrücke wird über die Bühne gebaut, ein Scheinwerfer leuchtet golden — Satzbau">
<rect width="1200" height="200" fill="#EEEDFE"/>
<line x1="380" y1="150" x2="380" y2="52" stroke="#26215C" stroke-width="7" stroke-linecap="round"/>
<line x1="820" y1="150" x2="820" y2="52" stroke="#26215C" stroke-width="7" stroke-linecap="round"/>
<line x1="372" y1="52" x2="828" y2="52" stroke="#26215C" stroke-width="7" stroke-linecap="round"/>
<g stroke="#534AB7" stroke-width="3">
<path d="M380,52 L470,150 M470,52 L560,150 M560,52 L650,150 M650,52 L740,150 M740,52 L820,150"/>
<path d="M380,150 L470,52 M470,150 L560,52 M560,150 L650,52 M650,150 L740,52 M740,150 L820,52"/></g>
<rect x="452" y="52" width="26" height="18" rx="3" fill="#3C3489"/>
<rect x="712" y="52" width="26" height="18" rx="3" fill="#3C3489"/>
<path d="M584,52 h32 l8,22 h-48 Z" fill="#f3c46a"/>
<path d="M0,150 C190,134 400,164 620,150 C840,136 1020,164 1200,150 V200 H0 Z" fill="#3C3489"/>
<path d="M0,180 C240,166 480,192 720,178 C940,166 1090,188 1200,178 V200 H0 Z" fill="#26215C"/>
</svg>
