<svg xmlns="http://www.w3.org/2000/svg" viewBox="0 0 1200 200" role="img" aria-label="Hut, Brille und Fliege schweben übereinander — ein Erscheinungsbild ohne Gesicht">
<rect width="1200" height="200" fill="#EEEDFE"/>
<g transform="translate(600,0)">
<path d="M-56,60 Q0,72 56,60 L56,54 Q0,66 -56,54 Z" fill="#26215C"/>
<path d="M-30,57 C-33,36 -24,24 0,24 C24,24 33,36 30,57 Q0,66 -30,57 Z" fill="#3C3489"/>
<rect x="-30" y="44" width="60" height="7" fill="#26215C"/>
<g stroke="#26215C" stroke-width="4.5" fill="none">
<circle cx="-24" cy="94" r="17"/>
<circle cx="24" cy="94" r="17"/>
<path d="M-7,92 Q0,86 7,92"/>
<path d="M-41,90 L-52,84 M41,90 L52,84"/>
</g>
<path d="M-30,126 L-5,137 L-5,149 L-30,160 Z" fill="#f3c46a"/>
<path d="M30,126 L5,137 L5,149 L30,160 Z" fill="#f3c46a"/>
<rect x="-6" y="135" width="12" height="16" rx="3" fill="#f3c46a"/>
</g>
<path d="M900,52 q11,-9 22,0 M938,64 q9,-8 18,0" fill="none" stroke="#534AB7" stroke-width="3" stroke-linecap="round"/>
<path d="M0,150 C200,138 420,162 620,150 C840,138 1030,162 1200,150 V200 H0 Z" fill="#7F77DD"/>
<path d="M540,158 L570,143 L600,156 L630,143 L660,158 Z" fill="#534AB7"/>
<path d="M0,170 C240,160 500,184 720,171 C940,160 1090,180 1200,170 V200 H0 Z" fill="#3C3489"/>
<path d="M0,188 C260,181 540,199 800,187 C1010,181 1140,193 1200,187 V200 H0 Z" fill="#26215C"/>
</svg>
