<svg xmlns="http://www.w3.org/2000/svg" viewBox="0 0 1200 200" role="img" aria-label="Viele Textzeilen werden zu einer goldenen Zusammenfassung gebündelt">
<rect width="1200" height="200" fill="#EEEDFE"/>
<g stroke="#7F77DD" stroke-width="5" stroke-linecap="round">
<line x1="180" y1="66" x2="360" y2="66"/><line x1="180" y1="90" x2="330" y2="90"/>
<line x1="180" y1="114" x2="360" y2="114"/><line x1="180" y1="138" x2="320" y2="138"/></g>
<g fill="none" stroke="#534AB7" stroke-width="4">
<path d="M360,66 C480,66 520,100 600,102"/>
<path d="M330,90 C470,90 520,101 600,102"/>
<path d="M360,114 C480,114 520,104 600,102"/>
<path d="M320,138 C470,138 520,106 600,102"/></g>
<circle cx="600" cy="102" r="7" fill="#f3c46a"/>
<path d="M607,102 C720,100 860,120 1000,120 C1090,120 1150,116 1200,114" fill="none" stroke="#f3c46a" stroke-width="6" stroke-linecap="round"/>
<path d="M607,102 C720,100 860,120 1000,120 C1090,120 1150,116 1200,114 V200 H607 Z" fill="#3C3489" opacity="0.16"/>
<path d="M0,150 C190,132 400,164 620,150 C840,136 1020,166 1200,150 V200 H0 Z" fill="#534AB7"/>
<path d="M0,172 C220,156 470,188 720,172 C940,160 1090,184 1200,172 V200 H0 Z" fill="#3C3489"/>
<path d="M0,189 C240,175 500,201 760,189 C980,177 1110,199 1200,189 V200 H0 Z" fill="#26215C"/>
</svg>