<svg xmlns="http://www.w3.org/2000/svg" viewBox="0 0 1200 200" role="img" aria-label="Aus dem Bildschirm fließen die Nachrichtenzeilen heraus und werden zur Welle — der goldene Live-Punkt leuchtet">
<rect width="1200" height="200" fill="#EEEDFE"/>
<rect x="168" y="66" width="150" height="104" rx="12" fill="#3C3489"/>
<rect x="180" y="78" width="126" height="80" rx="5" fill="#CECBF6"/>
<g stroke="#7F77DD" stroke-width="6" stroke-linecap="round"><line x1="194" y1="112" x2="292" y2="112"/><line x1="194" y1="132" x2="270" y2="132"/></g>
<path d="M0,170 L318,170 L318,104 C440,100 580,116 720,110 C880,103 1010,120 1200,110 V200 H0 Z" fill="#7F77DD"/>
<path d="M318,104 C440,100 580,116 720,110 C880,103 1010,120 1200,110" fill="none" stroke="#534AB7" stroke-width="4" stroke-linecap="round"/>
<circle cx="196" cy="92" r="6" fill="#f3c46a"/>
<g fill="#EEEDFE" opacity="0.55"><circle cx="470" cy="107" r="2.5"/><circle cx="650" cy="112" r="2.5"/><circle cx="880" cy="108" r="2.5"/></g>
<path d="M0,158 C190,140 400,170 620,156 C840,142 1020,172 1200,156 V200 H0 Z" fill="#3C3489"/>
<path d="M0,184 C240,170 480,196 720,182 C940,170 1090,192 1200,182 V200 H0 Z" fill="#26215C"/>
</svg>
