<svg xmlns="http://www.w3.org/2000/svg" viewBox="0 0 1200 200" role="img" aria-label="Ein Baum trägt Sprechblasen als Krone — eine leuchtet golden">
<rect width="1200" height="200" fill="#EEEDFE"/>
<path d="M0,138 C200,124 420,148 640,136 C860,124 1040,148 1200,136 V200 H0 Z" fill="#534AB7"/>
<g stroke="#26215C" stroke-linecap="round" fill="none">
<path d="M600,140 C600,112 598,98 596,84" stroke-width="14"/>
<path d="M598,104 C566,92 538,86 514,84" stroke-width="8"/>
<path d="M597,94 C632,80 664,74 692,72" stroke-width="8"/>
<path d="M596,84 C586,68 578,58 570,50" stroke-width="7"/>
<path d="M596,84 C612,66 624,56 636,48" stroke-width="7"/>
</g>
<g>
<ellipse cx="478" cy="68" rx="52" ry="26" fill="#7F77DD"/>
<path d="M496,90 L506,108 L522,88 Z" fill="#7F77DD"/>
<rect x="656" y="50" width="100" height="46" rx="14" fill="#AFA9EC"/>
<path d="M678,94 L684,114 L702,96 Z" fill="#AFA9EC"/>
<ellipse cx="540" cy="26" rx="44" ry="22" fill="#CECBF6"/>
<rect x="668" y="6" width="84" height="36" rx="18" fill="#CECBF6"/>
<ellipse cx="610" cy="18" rx="42" ry="21" fill="#f3c46a"/>
<path d="M596,36 L600,54 L618,38 Z" fill="#f3c46a"/>
</g>
<path d="M850,64 q10,-8 20,0 M880,52 q10,-8 20,0" fill="none" stroke="#534AB7" stroke-width="3" stroke-linecap="round"/>
<circle cx="520" cy="128" r="3" fill="#26215C"/>
<circle cx="682" cy="124" r="3" fill="#26215C"/>
<path d="M0,162 C210,150 440,174 660,162 C880,150 1050,172 1200,161 V200 H0 Z" fill="#3C3489"/>
<path d="M0,186 C240,176 500,198 760,186 C980,176 1110,192 1200,185 V200 H0 Z" fill="#26215C"/>
</svg>
