<svg xmlns="http://www.w3.org/2000/svg" viewBox="0 0 1200 200" role="img" aria-label="Eine Musterseite mit goldenem Siegel, deren unterer Rand zur Welle wird — Modelltext">
<rect width="1200" height="200" fill="#EEEDFE"/>
<path d="M470,44 L730,44 L730,128 C660,140 560,140 470,128 Z" fill="#EEEDFE" stroke="#7F77DD" stroke-width="3"/>
<g stroke="#AFA9EC" stroke-width="3" stroke-linecap="round">
<line x1="496" y1="66" x2="704" y2="66"/><line x1="496" y1="82" x2="704" y2="82"/>
<line x1="496" y1="98" x2="704" y2="98"/><line x1="496" y1="114" x2="640" y2="114"/></g>
<circle cx="690" cy="118" r="15" fill="#f3c46a"/>
<path d="M0,128 C160,116 340,132 470,128 C560,125 640,138 730,128 C860,113 1030,140 1200,126 V200 H0 Z" fill="#534AB7"/>
<path d="M0,156 C220,140 440,170 700,156 C920,144 1080,168 1200,158 V200 H0 Z" fill="#3C3489"/>
<path d="M0,182 C240,170 500,192 760,180 C980,170 1110,188 1200,180 V200 H0 Z" fill="#26215C"/>
</svg>
