<svg xmlns="http://www.w3.org/2000/svg" viewBox="0 0 1200 200" role="img" aria-label="Die gebaute Brücke endet über dem Wasser — als gestrichelte Linie träumt sie sich ans andere Ufer weiter, wo golden das Ziel wartet"><rect width="1200" height="200" fill="#EEEDFE"/><path d="M0,110 C160,90 340,120 520,104 C700,88 900,120 1080,104 C1140,99 1180,106 1200,102 V200 H0 Z" fill="#CECBF6"/>
<path d="M0,120 C110,108 210,122 250,150 L0,200 Z" fill="#7F77DD"/><path d="M1200,126 C1120,116 1050,126 1015,150 L1200,200 Z" fill="#7F77DD"/><path d="M250,118 Q400,70 560,116" fill="none" stroke="#534AB7" stroke-width="8" stroke-linecap="round"/><line x1="250" y1="118" x2="250" y2="140" stroke="#534AB7" stroke-width="6"/><line x1="380" y1="92" x2="380" y2="132" stroke="#534AB7" stroke-width="4"/><line x1="480" y1="98" x2="480" y2="136" stroke="#534AB7" stroke-width="4"/><path d="M560,116 Q760,66 1000,118" fill="none" stroke="#AFA9EC" stroke-width="4" stroke-linecap="round" stroke-dasharray="8 7"/><circle cx="1000" cy="118" r="10" fill="#f3c46a"/><path d="M0,150 C190,132 400,164 620,150 C840,136 1020,166 1200,150 V200 H0 Z" fill="#3C3489"/>
<path d="M0,180 C240,166 480,192 720,178 C940,166 1090,188 1200,178 V200 H0 Z" fill="#26215C"/>
</svg>