<svg xmlns="http://www.w3.org/2000/svg" viewBox="0 0 1200 200" role="img" aria-label="Ein Kompass über der Welle — die goldene Nadel weist die Richtung, die Wellen sind Höhenlinien">
<rect width="1200" height="200" fill="#EEEDFE"/>
<circle cx="600" cy="82" r="42" fill="none" stroke="#3C3489" stroke-width="6"/>
<g stroke="#3C3489" stroke-width="4" stroke-linecap="round">
<line x1="600" y1="46" x2="600" y2="56"/><line x1="600" y1="108" x2="600" y2="118"/>
<line x1="564" y1="82" x2="574" y2="82"/><line x1="626" y1="82" x2="636" y2="82"/>
</g>
<path d="M600,52 L590,82 L600,78 L610,82 Z" fill="#f3c46a"/>
<path d="M600,112 L590,82 L600,86 L610,82 Z" fill="#26215C"/>
<circle cx="600" cy="82" r="5" fill="#3C3489"/>
<path d="M0,150 C190,132 400,162 620,150 C840,134 1030,162 1200,150 V200 H0 Z" fill="#534AB7"/>
<path d="M0,164 C190,150 400,176 620,164 C840,150 1030,176 1200,164" fill="none" stroke="#7F77DD" stroke-width="2" opacity="0.5"/>
<path d="M0,178 C220,166 460,190 700,178 C920,166 1090,186 1200,178 V200 H0 Z" fill="#3C3489"/>
<path d="M0,190 C240,182 500,198 760,191 C980,186 1120,196 1200,191 V200 H0 Z" fill="#26215C"/>
</svg>
