<svg xmlns="http://www.w3.org/2000/svg" viewBox="0 0 1200 200" role="img" aria-label="Ein Bücherregal-Gebirge, dessen goldenes Buch mit einem Band auf das nächste verweist — Zugehörigkeit">
<rect width="1200" height="200" fill="#EEEDFE"/>
<circle cx="300" cy="50" r="26" fill="#AFA9EC"/>
<circle cx="300" cy="50" r="36" fill="none" stroke="#AFA9EC" stroke-width="2" opacity="0.4"/>
<rect x="180" y="118" width="840" height="6" fill="#534AB7"/>
<g><rect x="360" y="70" width="16" height="48" fill="#7F77DD"/><rect x="378" y="60" width="16" height="58" fill="#AFA9EC"/><rect x="396" y="78" width="16" height="40" fill="#534AB7"/><rect x="414" y="66" width="16" height="52" fill="#7F77DD"/><rect x="560" y="72" width="18" height="46" fill="#f3c46a"/><rect x="700" y="64" width="16" height="54" fill="#7F77DD"/><rect x="718" y="74" width="16" height="44" fill="#AFA9EC"/><rect x="736" y="60" width="16" height="58" fill="#534AB7"/></g>
<path d="M578,80 C640,54 660,54 708,66" fill="none" stroke="#f3c46a" stroke-width="2.5"/>
<path d="M0,124 C150,96 290,140 450,118 C610,96 760,138 920,116 C1040,101 1130,118 1200,108 V200 H0 Z" fill="#534AB7"/>
<path d="M0,150 C170,128 330,166 520,146 C700,128 880,168 1050,148 C1110,141 1170,148 1200,144 V200 H0 Z" fill="#3C3489"/>
<path d="M0,178 C200,162 420,190 640,176 C860,163 1040,188 1200,176 V200 H0 Z" fill="#26215C"/>
</svg>
