<svg xmlns="http://www.w3.org/2000/svg" viewBox="0 0 1200 200" role="img" aria-label="Eine Reihe Rampenlichter — eine Fassung ist leer, das goldene Licht schwebt heran — Lückentext">
<rect width="1200" height="200" fill="#EEEDFE"/>
<path d="M0,132 C200,116 440,146 680,132 C880,120 1040,144 1200,132 V200 H0 Z" fill="#534AB7"/>
<g>
<circle cx="360" cy="120" r="11" fill="#AFA9EC"/>
<circle cx="450" cy="116" r="11" fill="#AFA9EC"/>
<circle cx="630" cy="118" r="11" fill="#AFA9EC"/>
<circle cx="720" cy="122" r="11" fill="#AFA9EC"/>
<circle cx="810" cy="120" r="11" fill="#AFA9EC"/></g>
<circle cx="540" cy="118" r="12" fill="none" stroke="#26215C" stroke-width="2.5" stroke-dasharray="4 4"/>
<circle cx="540" cy="66" r="14" fill="#f3c46a"/>
<line x1="540" y1="80" x2="540" y2="104" stroke="#26215C" stroke-width="2.5" stroke-dasharray="3 4"/>
<path d="M0,158 C220,142 440,172 700,158 C920,146 1080,170 1200,160 V200 H0 Z" fill="#3C3489"/>
<path d="M0,182 C240,170 500,192 760,180 C980,170 1110,188 1200,180 V200 H0 Z" fill="#26215C"/>
</svg>
