<svg xmlns="http://www.w3.org/2000/svg" viewBox="0 0 1200 200" role="img" aria-label="Eine Treppe aus Seiten steigt zum goldenen Wegweiser — strukturierte Anleitung">
<rect width="1200" height="200" fill="#EEEDFE"/>
<g fill="#7F77DD">
<rect x="360" y="120" width="90" height="30"/>
<rect x="450" y="98" width="90" height="52"/>
<rect x="540" y="76" width="90" height="74"/>
<rect x="630" y="54" width="90" height="96"/></g>
<g stroke="#26215C" stroke-width="3" stroke-linecap="round">
<line x1="380" y1="132" x2="430" y2="132"/>
<line x1="470" y1="112" x2="520" y2="112"/><line x1="470" y1="126" x2="520" y2="126"/>
<line x1="560" y1="92" x2="610" y2="92"/><line x1="560" y1="106" x2="610" y2="106"/><line x1="560" y1="120" x2="610" y2="120"/></g>
<line x1="720" y1="54" x2="720" y2="24" stroke="#26215C" stroke-width="4" stroke-linecap="round"/>
<path d="M720,26 L780,38 L720,50 Z" fill="#f3c46a"/>
<path d="M0,150 C190,132 400,164 620,150 C840,136 1020,164 1200,150 V200 H0 Z" fill="#3C3489"/>
<path d="M0,180 C240,166 480,192 720,178 C940,166 1090,188 1200,178 V200 H0 Z" fill="#26215C"/>
</svg>
