<svg xmlns="http://www.w3.org/2000/svg" viewBox="0 0 1200 200" role="img" aria-label="Aus der Sanduhr rinnt der goldene Sand herab und wird zur Welle — die Zeit läuft weiter">
<rect width="1200" height="200" fill="#EEEDFE"/>
<g stroke="#26215C" stroke-width="6" fill="none" stroke-linecap="round"><line x1="556" y1="46" x2="644" y2="46"/><line x1="556" y1="150" x2="644" y2="150"/></g><path d="M566,50 L634,50 L606,98 L634,146 L566,146 L594,98 Z" fill="none" stroke="#3C3489" stroke-width="5"/><path d="M572,54 L628,54 L602,92 Z" fill="#f3c46a"/><line x1="600" y1="96" x2="600" y2="150" stroke="#f3c46a" stroke-width="3"/><path d="M300,60 q9,-7 18,0 M326,52 q9,-7 18,0" fill="none" stroke="#534AB7" stroke-width="3" stroke-linecap="round"/><path d="M0,150 C180,140 360,150 560,150 C600,150 600,150 640,150 C840,150 1020,160 1200,150 V200 H0 Z" fill="#534AB7"/><path d="M0,168 C240,158 500,176 760,166 C980,158 1100,176 1200,168 V200 H0 Z" fill="#3C3489"/><path d="M0,186 C240,178 520,196 780,187 C1000,180 1120,192 1200,186 V200 H0 Z" fill="#26215C"/>
</svg>
