<svg xmlns="http://www.w3.org/2000/svg" viewBox="0 0 1200 200" role="img" aria-label="Aus der Sprechblase läuft eine Linie heraus und wird zur Landschaft — über ihrem höchsten Punkt steht die goldene Sonne">
<rect width="1200" height="200" fill="#EEEDFE"/>
<circle cx="640" cy="34" r="24" fill="#f3c46a"/>
<circle cx="640" cy="34" r="35" fill="none" stroke="#f3c46a" stroke-width="2" opacity="0.42"/>
<path d="M180,118 L285,64 L390,118 Z" fill="#CECBF6"/>
<path d="M930,124 L1040,56 L1160,124 Z" fill="#CECBF6"/>
<path d="M452,54 q10,-8 20,0 M482,42 q10,-8 20,0" fill="none" stroke="#AFA9EC" stroke-width="3" stroke-linecap="round"/>
<path d="M330,128 C400,126 450,110 520,96 C570,86 610,72 640,74 C676,76 700,104 740,128 C776,150 810,158 848,152 C900,144 940,116 1000,106 C1080,93 1150,102 1200,100 L1200,200 L330,200 Z" fill="#7F77DD"/>
<path d="M330,128 C400,126 450,110 520,96 C570,86 610,72 640,74 C676,76 700,104 740,128 C776,150 810,158 848,152 C900,144 940,116 1000,106 C1080,93 1150,102 1200,100" fill="none" stroke="#534AB7" stroke-width="5" stroke-linecap="round"/>
<path d="M162,24 h150 a20,20 0 0 1 20,20 v48 a20,20 0 0 1 -20,20 h-58 l-30,20 4,-20 h-66 a20,20 0 0 1 -20,-20 v-48 a20,20 0 0 1 20,-20 Z" fill="#534AB7"/>
<path d="M262,110 L334,130 L286,132 Z" fill="#534AB7"/>
<circle cx="205" cy="68" r="7" fill="#EEEDFE" opacity="0.7"/>
<circle cx="237" cy="68" r="7" fill="#EEEDFE" opacity="0.7"/>
<circle cx="269" cy="68" r="7" fill="#EEEDFE" opacity="0.7"/>
<path d="M0,158 C200,148 420,174 640,162 C860,150 1040,174 1200,160 V200 H0 Z" fill="#3C3489"/>
<path d="M0,184 C240,174 500,198 760,185 C980,174 1110,192 1200,184 V200 H0 Z" fill="#26215C"/>
<circle cx="900" cy="172" r="3" fill="#AFA9EC" opacity="0.6"/>
</svg>
