<svg xmlns="http://www.w3.org/2000/svg" viewBox="0 0 1200 200" role="img" aria-label="Aus einem Stapel gesetzter Bausteine wächst ein kräftiger, verzweigter Baum empor — erst der Bau ergibt den Stammbaum; die Knospe an der Spitze leuchtet golden"><rect width="1200" height="200" fill="#EEEDFE"/><path d="M0,110 C160,90 340,120 520,104 C700,88 900,120 1080,104 C1140,99 1180,106 1200,102 V200 H0 Z" fill="#CECBF6"/><g fill="#534AB7"><rect x="548" y="130" width="104" height="20" rx="3"/><rect x="562" y="110" width="76" height="20" rx="3"/></g><rect x="588" y="94" width="24" height="20" rx="3" fill="#3C3489"/><g stroke="#3C3489" fill="none" stroke-linecap="round"><path d="M600,96 L600,66" stroke-width="9"/><path d="M600,80 C566,68 536,62 506,58" stroke-width="6"/><path d="M600,74 C634,62 664,58 694,54" stroke-width="6"/><path d="M506,58 C498,50 494,44 498,38" stroke-width="4"/><path d="M694,54 C702,46 708,42 716,38" stroke-width="4"/></g><g fill="#7F77DD"><circle cx="600" cy="60" r="14"/><circle cx="502" cy="54" r="11"/><circle cx="698" cy="50" r="11"/><circle cx="498" cy="36" r="6"/><circle cx="716" cy="36" r="6"/></g><circle cx="600" cy="42" r="8" fill="#f3c46a"/><path d="M0,150 C190,132 400,164 620,150 C840,136 1020,166 1200,150 V200 H0 Z" fill="#3C3489"/><path d="M0,180 C240,166 480,192 720,178 C940,166 1090,188 1200,178 V200 H0 Z" fill="#26215C"/></svg>