<svg xmlns="http://www.w3.org/2000/svg" viewBox="0 0 1200 200" role="img" aria-label="Kalender mit goldener Notiz in der Lücke — Lückentext"><rect width="1200" height="200" fill="#EEEDFE"/><rect x="480" y="40" width="240" height="86" rx="6" fill="#AFA9EC"/><rect x="480" y="40" width="240" height="18" rx="6" fill="#7F77DD"/><circle cx="520" cy="40" r="6" fill="#3C3489"/><circle cx="680" cy="40" r="6" fill="#3C3489"/><g fill="#7F77DD"><rect x="496" y="66" width="34" height="14" rx="2"/><rect x="540" y="66" width="34" height="14" rx="2"/><rect x="584" y="66" width="34" height="14" rx="2"/><rect x="628" y="66" width="34" height="14" rx="2"/><rect x="672" y="66" width="34" height="14" rx="2"/><rect x="496" y="86" width="34" height="14" rx="2"/><rect x="540" y="86" width="34" height="14" rx="2"/><rect x="628" y="86" width="34" height="14" rx="2"/><rect x="672" y="86" width="34" height="14" rx="2"/><rect x="496" y="106" width="34" height="14" rx="2"/><rect x="540" y="106" width="34" height="14" rx="2"/><rect x="584" y="106" width="34" height="14" rx="2"/><rect x="628" y="106" width="34" height="14" rx="2"/><rect x="672" y="106" width="34" height="14" rx="2"/></g><rect x="584" y="86" width="34" height="14" rx="2" fill="#f3c46a"/><path d="M601,74 l0,10" stroke="#f3c46a" stroke-width="2" stroke-dasharray="2 3"/><path d="M0,124 C160,106 320,140 480,124 C640,108 820,142 1000,124 C1090,115 1150,122 1200,118 V200 H0 Z" fill="#534AB7"/><path d="M0,152 C180,134 380,166 600,152 C820,138 1010,168 1200,152 V200 H0 Z" fill="#3C3489"/><path d="M0,178 C220,164 460,190 700,176 C920,164 1080,188 1200,178 V200 H0 Z" fill="#26215C"/></svg>