<svg xmlns="http://www.w3.org/2000/svg" viewBox="0 0 1200 200" role="img" aria-label="Eine Reihe Reagenzgläser auf der Welle — ein Glas ist leer, und der goldene Tropfen schwebt schon über seiner Lücke">
<rect width="1200" height="200" fill="#EEEDFE"/>
<path d="M630,2 C639,22 646,32 646,42 a16,16 0 0 1 -32,0 C614,32 621,22 630,2 Z" fill="#f3c46a"/>
<path d="M300,40 q10,-8 20,0 M330,28 q10,-8 20,0" fill="none" stroke="#534AB7" stroke-width="3" stroke-linecap="round"/>
<rect x="390" y="139" width="420" height="11" rx="5" fill="#26215C"/>
<path d="M402,62 L402,130 a18,18 0 0 0 36,0 L438,62 Z" fill="#CECBF6"/>
<rect x="398" y="55" width="44" height="9" rx="3" fill="#AFA9EC"/>
<path d="M472,62 L472,130 a18,18 0 0 0 36,0 L508,62 Z" fill="#CECBF6"/>
<rect x="468" y="55" width="44" height="9" rx="3" fill="#AFA9EC"/>
<path d="M542,62 L542,130 a18,18 0 0 0 36,0 L578,62 Z" fill="#CECBF6"/>
<rect x="538" y="55" width="44" height="9" rx="3" fill="#AFA9EC"/>
<path d="M612,62 L612,130 a18,18 0 0 0 36,0 L648,62 Z" fill="#CECBF6"/>
<rect x="608" y="55" width="44" height="9" rx="3" fill="#AFA9EC"/>
<path d="M682,62 L682,130 a18,18 0 0 0 36,0 L718,62 Z" fill="#CECBF6"/>
<rect x="678" y="55" width="44" height="9" rx="3" fill="#AFA9EC"/>
<path d="M752,62 L752,130 a18,18 0 0 0 36,0 L788,62 Z" fill="#CECBF6"/>
<rect x="748" y="55" width="44" height="9" rx="3" fill="#AFA9EC"/>
<path d="M402,102 L402,130 a18,18 0 0 0 36,0 L438,102 Z" fill="#3C3489"/>
<path d="M472,86 L472,130 a18,18 0 0 0 36,0 L508,86 Z" fill="#3C3489"/>
<path d="M542,114 L542,130 a18,18 0 0 0 36,0 L578,114 Z" fill="#3C3489"/>
<path d="M682,94 L682,130 a18,18 0 0 0 36,0 L718,94 Z" fill="#3C3489"/>
<path d="M752,80 L752,130 a18,18 0 0 0 36,0 L788,80 Z" fill="#3C3489"/>
<circle cx="502" cy="106" r="3.5" fill="#CECBF6" opacity="0.85"/>
<circle cx="712" cy="114" r="3" fill="#CECBF6" opacity="0.85"/>
<circle cx="779" cy="100" r="3" fill="#CECBF6" opacity="0.85"/>
<path d="M0,150 C170,132 380,164 600,150 C820,136 1010,166 1200,148 V200 H0 Z" fill="#534AB7"/>
<path d="M0,170 C210,158 450,186 690,170 C900,156 1070,180 1200,170 V200 H0 Z" fill="#3C3489"/>
<path d="M0,188 C260,180 520,198 780,188 C980,181 1110,194 1200,187 V200 H0 Z" fill="#26215C"/>
</svg>