<svg xmlns="http://www.w3.org/2000/svg" viewBox="0 0 1200 200" role="img" aria-label="Sprechblasen werden zu Bausteinen gestapelt — Rede und Wiedergabe fügen sich"><rect width="1200" height="200" fill="#EEEDFE"/><path d="M200,44 a20,20 0 1 0 0,36 a24,24 0 0 1 0,-36 Z" fill="#CECBF6"/><g><path d="M470,158 h84 a10,10 0 0 1 10,10 v22 a10,10 0 0 1 -10,10 h-70 l-14,12 v-12 h0 a10,10 0 0 1 -10,-10 v-22 a10,10 0 0 1 10,-10 Z" fill="#534AB7"/><path d="M486,116 h84 a10,10 0 0 1 10,10 v22 a10,10 0 0 1 -10,10 h-70 l-14,12 v-12 a10,10 0 0 1 -10,-10 v-22 a10,10 0 0 1 10,-10 Z" fill="#7F77DD"/><path d="M506,74 h84 a10,10 0 0 1 10,10 v22 a10,10 0 0 1 -10,10 h-70 l-14,12 v-12 a10,10 0 0 1 -10,-10 v-22 a10,10 0 0 1 10,-10 Z" fill="#f3c46a"/></g><path d="M0,150 C190,132 400,164 620,150 C840,136 1020,166 1200,150 V200 H0 Z" fill="#3C3489"/><path d="M0,180 C240,166 480,192 720,178 C940,166 1090,188 1200,178 V200 H0 Z" fill="#26215C"/></svg>