<svg xmlns="http://www.w3.org/2000/svg" viewBox="0 0 1200 200" role="img" aria-label="Ein großer Kamm glättet die vorderste Welle — links kraus, rechts glatt">
<rect width="1200" height="200" fill="#EEEDFE"/>
<path d="M0,120 C220,110 460,128 680,118 C900,110 1060,124 1200,118 V200 H0 Z" fill="#AFA9EC"/>
<g transform="translate(600,0)">
<rect x="-110" y="34" width="220" height="30" rx="14" fill="#26215C"/>
<g fill="#3C3489">
<rect x="-100" y="60" width="12" height="80" rx="5"/>
<rect x="-71" y="60" width="12" height="84" rx="5"/>
<rect x="-42" y="60" width="12" height="87" rx="5"/>
<rect x="-13" y="60" width="12" height="88" rx="5"/>
<rect x="16" y="60" width="12" height="88" rx="5"/>
<rect x="45" y="60" width="12" height="86" rx="5"/>
<rect x="74" y="60" width="12" height="83" rx="5"/>
</g>
<path d="M92,110 C97,120 101,126 101,132 C101,138 97,142 92,142 C87,142 83,138 83,132 C83,126 87,120 92,110 Z" fill="#f3c46a"/>
</g>
<path d="M0,158 C30,144 55,168 85,154 C115,142 140,166 170,153 C200,142 230,164 260,152 C295,140 330,162 365,151 C400,141 435,161 470,151 L500,148 C560,144 640,146 720,146 C880,146 1050,146 1200,147 V200 H0 Z" fill="#534AB7"/>
<path d="M0,178 C250,170 520,190 760,179 C970,170 1110,186 1200,178 V200 H0 Z" fill="#3C3489"/>
<path d="M0,192 C270,186 560,200 820,191 C1020,186 1150,196 1200,192 V200 H0 Z" fill="#26215C"/>
</svg>
