<svg xmlns="http://www.w3.org/2000/svg" viewBox="0 0 1200 200" role="img" aria-label="Karteikasten mit Wortkarten und einer goldenen herausgehobenen Karte — Wortschatz"><rect width="1200" height="200" fill="#EEEDFE"/><rect x="470" y="70" width="210" height="54" rx="5" fill="#3C3489"/><rect x="470" y="70" width="210" height="12" rx="4" fill="#26215C"/><circle cx="575" cy="98" r="6" fill="#AFA9EC"/><g fill="#AFA9EC"><rect x="500" y="54" width="18" height="24" rx="2"/><rect x="526" y="50" width="18" height="28" rx="2"/><rect x="552" y="46" width="18" height="32" rx="2"/><rect x="578" y="54" width="18" height="24" rx="2"/><rect x="604" y="50" width="18" height="28" rx="2"/><rect x="630" y="46" width="18" height="32" rx="2"/><rect x="656" y="54" width="18" height="24" rx="2"/></g><rect x="700" y="26" width="26" height="40" rx="3" fill="#f3c46a"/><path d="M690,52 l-14,-8" stroke="#7F77DD" stroke-width="0"/><path d="M300,74 q10,-8 20,0 M330,62 q10,-8 20,0" fill="none" stroke="#534AB7" stroke-width="3" stroke-linecap="round"/><path d="M0,124 C160,106 320,140 480,124 C640,108 820,142 1000,124 C1090,115 1150,122 1200,118 V200 H0 Z" fill="#534AB7"/><path d="M0,152 C180,134 380,166 600,152 C820,138 1010,168 1200,152 V200 H0 Z" fill="#3C3489"/><path d="M0,178 C220,164 460,190 700,176 C920,164 1080,188 1200,178 V200 H0 Z" fill="#26215C"/></svg>