<svg xmlns="http://www.w3.org/2000/svg" viewBox="0 0 1200 200" role="img" aria-label="Zwei Bausteintuerme — These und Antithese — der goldene Querbalken verbindet sie zur Synthese ueber der Welle">
<rect width="1200" height="200" fill="#EEEDFE"/>
<g>
<rect x="360" y="118" width="70" height="34" rx="4" fill="#7F77DD"/>
<rect x="360" y="82" width="70" height="34" rx="4" fill="#534AB7"/>
<rect x="770" y="118" width="70" height="34" rx="4" fill="#7F77DD"/>
<rect x="770" y="82" width="70" height="34" rx="4" fill="#534AB7"/>
<rect x="430" y="60" width="340" height="20" rx="5" fill="#f3c46a"/>
</g>
<path d="M470,46 q10,-8 20,0 M700,40 q10,-8 20,0" fill="none" stroke="#AFA9EC" stroke-width="3" stroke-linecap="round"/>
<path d="M0,150 C190,132 400,164 620,150 C840,136 1020,164 1200,150 V200 H0 Z" fill="#3C3489"/>
<path d="M0,138 C210,120 470,152 720,140 C940,130 1090,150 1200,140 V200 H0 Z" fill="#534AB7"/>
<path d="M0,150 C190,132 400,164 620,150 C840,136 1020,164 1200,150 V200 H0 Z" fill="#3C3489"/>
<path d="M0,180 C240,166 480,192 720,178 C940,166 1090,188 1200,178 V200 H0 Z" fill="#26215C"/>
</svg>
