<svg xmlns="http://www.w3.org/2000/svg" viewBox="0 0 1200 200" role="img" aria-label="Ein Mikrofonständer wird zur Schreibfeder — die gesprochene Rede fließt als Linie in die Welle">
<rect width="1200" height="200" fill="#EEEDFE"/>
<circle cx="1070" cy="46" r="24" fill="#f3c46a"/>
<circle cx="1070" cy="46" r="35" fill="none" stroke="#f3c46a" stroke-width="2" opacity="0.4"/>
<path d="M0,128 C120,112 260,138 400,126 C500,117 560,126 636,122 L640,122 L640,200 L0,200 Z" fill="#7F77DD"/>
<path d="M0,128 C120,112 260,138 400,126 C500,117 560,126 638,122" fill="none" stroke="#534AB7" stroke-width="4" stroke-linecap="round"/>
<g transform="translate(640,122) rotate(-32)"><path d="M0,0 C-9,-13 -14,-32 -12,-54 L12,-54 C14,-32 9,-13 0,0 Z" fill="#26215C"/><line x1="0" y1="-30" x2="0" y2="-8" stroke="#EEEDFE" stroke-width="3" stroke-linecap="round"/><rect x="-14" y="-66" width="28" height="12" rx="4" fill="#534AB7"/><ellipse cx="0" cy="-84" rx="15" ry="20" fill="#7F77DD"/><path d="M-15,-84 h30 M-13,-92 h26 M-13,-76 h26" stroke="#534AB7" stroke-width="2"/></g>
<path d="M120,150 q10,-8 20,0 M150,138 q10,-8 20,0" fill="none" stroke="#534AB7" stroke-width="3" stroke-linecap="round"/>
<path d="M0,148 C190,130 400,162 620,148 C840,134 1020,164 1200,148 V200 H0 Z" fill="#3C3489"/>
<path d="M0,180 C240,166 480,192 720,178 C940,166 1090,188 1200,178 V200 H0 Z" fill="#26215C"/>
</svg>
