<svg xmlns="http://www.w3.org/2000/svg" viewBox="0 0 1200 200" role="img" aria-label="Eine griechische Amphore auf dem Wellenberg unter der goldenen Sonne">
<rect width="1200" height="200" fill="#EEEDFE"/>
<circle cx="890" cy="52" r="26" fill="#f3c46a"/>
<circle cx="890" cy="52" r="37" fill="none" stroke="#f3c46a" stroke-width="2" opacity="0.4"/>
<path d="M0,150 L150,106 L300,150 Z" fill="#CECBF6"/>
<path d="M980,150 L1110,112 L1200,148 L1200,150 Z" fill="#CECBF6"/>
<circle cx="360" cy="46" r="3" fill="#AFA9EC"/><circle cx="470" cy="70" r="2.5" fill="#AFA9EC"/><circle cx="720" cy="40" r="2.5" fill="#AFA9EC"/>
<g fill="#3C3489">
<path d="M600,44 m-44,66 a44,66 0 1 0 88,0 a44,66 0 1 0 -88,0" opacity="0"/>
<ellipse cx="600" cy="112" rx="46" ry="42"/>
<path d="M572,80 L628,80 L620,110 L580,110 Z"/>
<rect x="582" y="46" width="36" height="36"/>
<rect x="574" y="40" width="52" height="10" rx="2"/>
<rect x="590" y="150" width="20" height="8"/>
<path d="M582,58 C556,60 552,86 574,96" fill="none" stroke="#3C3489" stroke-width="7"/>
<path d="M618,58 C644,60 648,86 626,96" fill="none" stroke="#3C3489" stroke-width="7"/>
</g>
<path d="M0,150 C190,132 400,162 620,150 C840,134 1030,162 1200,150 V200 H0 Z" fill="#534AB7"/>
<path d="M0,172 C220,158 460,184 700,170 C920,158 1080,180 1200,171 V200 H0 Z" fill="#3C3489"/>
<path d="M0,190 C240,182 500,198 760,191 C980,186 1120,196 1200,191 V200 H0 Z" fill="#26215C"/>
</svg>
