<svg xmlns="http://www.w3.org/2000/svg" viewBox="0 0 1200 200" role="img" aria-label="Panorama einer Bewerbung: die Bueroskyline staffelt sich wie Huegel, im vordersten Haus oeffnet sich die goldene Eingangstuer">
<rect width="1200" height="200" fill="#EEEDFE"/>
<circle cx="330" cy="50" r="24" fill="#f3c46a" opacity="0"/>
<g fill="#CECBF6"><rect x="150" y="82" width="60" height="42"/><rect x="960" y="72" width="60" height="52"/></g>
<g fill="#AFA9EC"><rect x="230" y="66" width="70" height="58"/><rect x="880" y="86" width="60" height="38"/></g>
<g fill="#7F77DD"><rect x="700" y="54" width="76" height="70"/><rect x="792" y="74" width="60" height="50"/></g>
<g fill="#CECBF6" opacity="0.7"><rect x="712" y="66" width="12" height="12"/><rect x="732" y="66" width="12" height="12"/><rect x="752" y="66" width="12" height="12"/><rect x="712" y="86" width="12" height="12"/><rect x="752" y="86" width="12" height="12"/></g>
<rect x="256" y="96" width="20" height="28" fill="#f3c46a"/>
<path d="M0,128 C170,108 360,140 540,126 C720,110 900,142 1080,128 C1140,122 1180,128 1200,124 V200 H0 Z" fill="#534AB7"/>
<path d="M0,150 C190,132 400,164 620,150 C840,136 1020,164 1200,150 V200 H0 Z" fill="#3C3489"/>
<path d="M0,180 C240,166 480,192 720,178 C940,166 1090,188 1200,178 V200 H0 Z" fill="#26215C"/>
</svg>
