<svg xmlns="http://www.w3.org/2000/svg" viewBox="0 0 1200 200" role="img" aria-label="Der Theatervorhang öffnet sich und gibt ein goldenes Rampenlicht frei — Lesetext">
<rect width="1200" height="200" fill="#EEEDFE"/>
<circle cx="600" cy="150" r="50" fill="#f3c46a"/>
<path d="M0,20 C120,30 230,44 300,90 C360,128 350,150 300,150 L0,150 Z" fill="#534AB7"/>
<path d="M1200,20 C1080,30 970,44 900,90 C840,128 850,150 900,150 L1200,150 Z" fill="#534AB7"/>
<g stroke="#3C3489" stroke-width="3" opacity="0.55">
<path d="M70,26 C90,70 90,110 70,150" fill="none"/>
<path d="M160,34 C182,74 182,112 160,150" fill="none"/>
<path d="M1130,26 C1110,70 1110,110 1130,150" fill="none"/>
<path d="M1040,34 C1018,74 1018,112 1040,150" fill="none"/></g>
<path d="M0,150 C190,138 400,160 620,150 C840,138 1020,160 1200,150 V200 H0 Z" fill="#3C3489"/>
<path d="M0,180 C240,166 480,192 720,178 C940,166 1090,188 1200,178 V200 H0 Z" fill="#26215C"/>
</svg>
