<svg xmlns="http://www.w3.org/2000/svg" viewBox="0 0 1200 200" role="img" aria-label="Aus festen Bausteinen wächst eine Brücke, doch der oberste Baustein ist nur gestrichelt gedacht — der goldene schwebt zur erdachten Insel">
<rect width="1200" height="200" fill="#EEEDFE"/>
<g><rect x="300" y="120" width="60" height="34" rx="4" fill="#534AB7"/><rect x="366" y="104" width="60" height="34" rx="4" fill="#7F77DD"/><rect x="432" y="88" width="60" height="34" rx="4" fill="#AFA9EC"/></g>
<rect x="512" y="70" width="60" height="34" rx="4" fill="none" stroke="#AFA9EC" stroke-width="3" stroke-dasharray="9 7"/>
<rect x="612" y="52" width="60" height="34" rx="6" fill="#f3c46a"/>
<path d="M760,86 C800,70 900,70 940,86 C980,100 780,100 760,86 Z" fill="none" stroke="#AFA9EC" stroke-width="3" stroke-dasharray="10 8"/>
<path d="M0,134 C170,112 340,142 520,130 C700,118 900,144 1200,128 V200 H0 Z" fill="#7F77DD"/>
<path d="M0,158 C190,140 400,170 620,156 C840,142 1020,172 1200,156 V200 H0 Z" fill="#3C3489"/>
<path d="M0,184 C240,170 480,196 720,182 C940,170 1090,192 1200,182 V200 H0 Z" fill="#26215C"/>
</svg>
