<svg xmlns="http://www.w3.org/2000/svg" viewBox="0 0 1200 200" role="img" aria-label="Zwei Ufer, eine Brücke schließt sich in der Mitte, darüber steht golden die Sonne — die Einigung">
<rect width="1200" height="200" fill="#EEEDFE"/>
<circle cx="600" cy="52" r="26" fill="#f3c46a"/><circle cx="600" cy="52" r="37" fill="none" stroke="#f3c46a" stroke-width="2" opacity="0.4"/><path d="M0,150 L0,110 C120,104 220,116 300,132 L340,150 Z" fill="#7F77DD"/><path d="M1200,150 L1200,110 C1080,104 980,116 900,132 L860,150 Z" fill="#7F77DD"/><line x1="300" y1="120" x2="900" y2="120" stroke="#26215C" stroke-width="6"/><g stroke="#3C3489" stroke-width="3"><line x1="380" y1="120" x2="380" y2="150"/><line x1="480" y1="120" x2="480" y2="150"/><line x1="600" y1="120" x2="600" y2="150"/><line x1="720" y1="120" x2="720" y2="150"/><line x1="820" y1="120" x2="820" y2="150"/></g><path d="M300,60 q9,-7 18,0 M326,52 q9,-7 18,0" fill="none" stroke="#534AB7" stroke-width="3" stroke-linecap="round"/><path d="M0,150 C220,140 460,152 720,150 C940,148 1060,154 1200,150 V200 H0 Z" fill="#534AB7"/><path d="M0,152 C200,136 440,166 680,152 C900,139 1050,166 1200,154 V200 H0 Z" fill="#3C3489"/>
<path d="M0,180 C240,168 500,192 760,180 C980,168 1100,188 1200,180 V200 H0 Z" fill="#26215C"/>
</svg>
