<svg xmlns="http://www.w3.org/2000/svg" viewBox="0 0 1200 200" role="img" aria-label="Ein dichtes Netz spannt sich über die Welle — ein einzelner goldener Knoten hängt an einem gerissenen Faden darunter, ohne Verbindung">
<rect width="1200" height="200" fill="#EEEDFE"/>
<g stroke="#AFA9EC" stroke-width="2.5">
<line x1="230" y1="72" x2="330" y2="34"/><line x1="330" y1="34" x2="440" y2="66"/>
<line x1="440" y1="66" x2="540" y2="30"/><line x1="540" y1="30" x2="660" y2="58"/>
<line x1="660" y1="58" x2="770" y2="28"/><line x1="770" y1="28" x2="880" y2="62"/>
<line x1="880" y1="62" x2="980" y2="36"/>
<line x1="230" y1="72" x2="360" y2="96"/><line x1="360" y1="96" x2="490" y2="80"/>
<line x1="490" y1="80" x2="600" y2="98"/><line x1="600" y1="98" x2="720" y2="76"/>
<line x1="720" y1="76" x2="840" y2="100"/><line x1="840" y1="100" x2="980" y2="36"/>
<line x1="330" y1="34" x2="360" y2="96"/><line x1="440" y1="66" x2="490" y2="80"/>
<line x1="540" y1="30" x2="600" y2="98"/><line x1="660" y1="58" x2="720" y2="76"/>
<line x1="770" y1="28" x2="840" y2="100"/><line x1="880" y1="62" x2="840" y2="100"/>
<line x1="360" y1="96" x2="440" y2="66"/><line x1="600" y1="98" x2="660" y2="58"/>
</g>
<g fill="#534AB7">
<circle cx="230" cy="72" r="6"/><circle cx="330" cy="34" r="6"/><circle cx="440" cy="66" r="6"/>
<circle cx="540" cy="30" r="6"/><circle cx="660" cy="58" r="6"/><circle cx="770" cy="28" r="6"/>
<circle cx="880" cy="62" r="6"/><circle cx="980" cy="36" r="6"/><circle cx="360" cy="96" r="6"/>
<circle cx="490" cy="80" r="6"/><circle cx="600" cy="98" r="7"/><circle cx="720" cy="76" r="6"/>
<circle cx="840" cy="100" r="6"/>
</g>
<line x1="600" y1="105" x2="600" y2="120" stroke="#AFA9EC" stroke-width="2.5" stroke-linecap="round"/>
<circle cx="600" cy="148" r="10" fill="#f3c46a"/>
<path d="M0,160 C180,148 360,174 560,164 C760,154 940,178 1200,158 V200 H0 Z" fill="#7F77DD"/>
<path d="M0,180 C220,170 460,196 700,182 C920,170 1080,192 1200,180 V200 H0 Z" fill="#3C3489"/>
<path d="M0,198 C260,190 520,200 780,195 C980,191 1110,199 1200,194 V200 H0 Z" fill="#26215C"/>
</svg>
