<svg xmlns="http://www.w3.org/2000/svg" viewBox="0 0 1200 200" role="img" aria-label="Aus vielen Pfaden über die Hügel führt nur einer zum goldenen Gipfel — der bestimmende Weg">
<rect width="1200" height="200" fill="#EEEDFE"/>
<circle cx="880" cy="50" r="26" fill="#AFA9EC"/>
<circle cx="880" cy="50" r="36" fill="none" stroke="#AFA9EC" stroke-width="2" opacity="0.4"/>
<path d="M150,120 L360,60 L600,120 Z" fill="#AFA9EC"/>
<path d="M520,120 L760,44 L980,120 Z" fill="#7F77DD"/>
<path d="M300,120 C360,100 380,86 400,66" fill="none" stroke="#AFA9EC" stroke-width="2" stroke-dasharray="3 6"/>
<path d="M520,120 C560,104 600,92 640,74" fill="none" stroke="#AFA9EC" stroke-width="2" stroke-dasharray="3 6"/>
<path d="M420,120 C520,100 640,80 758,48" fill="none" stroke="#f3c46a" stroke-width="3" stroke-dasharray="5 5"/>
<circle cx="760" cy="46" r="6" fill="#f3c46a"/>
<path d="M240,80 q10,-8 20,0 M270,68 q10,-8 20,0" fill="none" stroke="#534AB7" stroke-width="3" stroke-linecap="round"/>
<path d="M0,148 C190,130 400,162 620,148 C840,134 1020,164 1200,148 V200 H0 Z" fill="#3C3489"/>
<path d="M0,180 C240,166 480,192 720,178 C940,166 1090,188 1200,178 V200 H0 Z" fill="#26215C"/>
</svg>
