<svg xmlns="http://www.w3.org/2000/svg" viewBox="0 0 1200 200" role="img" aria-label="Strommasten über den Wellen — auf der Leitung springt ein goldener Funke">
<rect width="1200" height="200" fill="#EEEDFE"/>
<path d="M920,36 q10,-8 20,0 M956,26 q10,-8 20,0" fill="none" stroke="#534AB7" stroke-width="3" stroke-linecap="round"/>
<g fill="#AFA9EC">
<path d="M1046,140 L1054,68 L1062,140 L1056,140 L1054,80 L1052,140 Z"/>
<rect x="1040" y="72" width="28" height="4" rx="2"/>
<rect x="1044" y="84" width="20" height="4" rx="2"/>
</g>
<path d="M0,140 C190,128 400,150 600,138 C820,126 1030,148 1200,138 V200 H0 Z" fill="#AFA9EC"/>
<g fill="#534AB7">
<path d="M282,148 L300,44 L318,148 L308,148 L300,64 L292,148 Z"/>
<rect x="266" y="52" width="68" height="6" rx="3"/>
<rect x="276" y="76" width="48" height="6" rx="3"/>
<line x1="272" y1="58" x2="272" y2="66" stroke="#534AB7" stroke-width="3"/>
<line x1="328" y1="58" x2="328" y2="66" stroke="#534AB7" stroke-width="3"/>
</g>
<g fill="#3C3489">
<path d="M700,152 L722,32 L744,152 L732,152 L722,56 L712,152 Z"/>
<rect x="680" y="42" width="84" height="7" rx="3"/>
<rect x="692" y="70" width="60" height="7" rx="3"/>
<line x1="687" y1="49" x2="687" y2="59" stroke="#3C3489" stroke-width="3"/>
<line x1="757" y1="49" x2="757" y2="59" stroke="#3C3489" stroke-width="3"/>
</g>
<path d="M334,58 C460,96 560,96 683,46" fill="none" stroke="#3C3489" stroke-width="3.5"/>
<path d="M324,82 C450,116 560,114 695,74" fill="none" stroke="#3C3489" stroke-width="3"/>
<path d="M762,46 C860,78 950,80 1042,74" fill="none" stroke="#AFA9EC" stroke-width="3"/>
<g fill="#f3c46a">
<path d="M516,88 l9,-30 5,19 16,-6 -19,36 -4,-17 Z"/>
<circle cx="527" cy="94" r="19" opacity="0.28"/>
</g>
<path d="M0,164 C220,154 460,174 700,162 C920,152 1080,170 1200,162 V200 H0 Z" fill="#3C3489"/>
<circle cx="420" cy="160" r="3" fill="#EEEDFE"/>
<circle cx="880" cy="168" r="3" fill="#AFA9EC"/>
<path d="M0,186 C260,180 540,196 800,188 C1010,182 1120,190 1200,186 V200 H0 Z" fill="#26215C"/>
</svg>
