<svg xmlns="http://www.w3.org/2000/svg" viewBox="0 0 1200 200" role="img" aria-label="Die vordere Welle wird zur aufsteigenden Treppe mit Fahne">
<rect width="1200" height="200" fill="#EEEDFE"/>
<path d="M150,40 a24,24 0 1 0 0,40 a28,28 0 0 1 0,-40 Z" fill="#CECBF6"/>
<path d="M0,118 C170,102 360,128 560,114 C760,101 960,126 1200,112 V200 H0 Z" fill="#7F77DD"/>
<path d="M380,84 q10,-8 20,0 M412,72 q10,-8 20,0" fill="none" stroke="#534AB7" stroke-width="3" stroke-linecap="round"/>
<path d="M0,156 C120,146 260,162 400,156 L470,156 L470,132 L560,132 L560,108 L650,108 L650,84 L740,84 L740,60 L830,60 L830,156 C950,150 1080,160 1200,154 V200 H0 Z" fill="#3C3489"/>
<line x1="836" y1="60" x2="836" y2="18" stroke="#26215C" stroke-width="5" stroke-linecap="round"/>
<path d="M836,18 L878,30 L836,42 Z" fill="#f3c46a"/>
<path d="M0,184 C240,174 500,194 760,184 C980,176 1110,190 1200,184 V200 H0 Z" fill="#26215C"/>
</svg>
