<svg xmlns="http://www.w3.org/2000/svg" viewBox="0 0 1200 200" role="img" aria-label="Eine goldene Brücke verbindet zwei Ufer — ihr Bogen spannt sich über die Welle">
<rect width="1200" height="200" fill="#EEEDFE"/>
<circle cx="600" cy="40" r="3" fill="#AFA9EC"/><circle cx="470" cy="46" r="2.5" fill="#AFA9EC"/><circle cx="740" cy="44" r="2.5" fill="#AFA9EC"/>
<path d="M0,150 C120,132 240,128 336,132 L336,200 L0,200 Z" fill="#3C3489"/>
<path d="M864,132 C960,128 1080,132 1200,150 L1200,200 L864,200 Z" fill="#3C3489"/>
<path d="M336,132 C460,86 740,86 864,132" fill="none" stroke="#f3c46a" stroke-width="11" stroke-linecap="round"/>
<path d="M360,131 C470,150 730,150 840,131" fill="none" stroke="#3C3489" stroke-width="4" opacity="0.55"/>
<g stroke="#f3c46a" stroke-width="3">
<line x1="470" y1="99" x2="470" y2="128"/><line x1="600" y1="90" x2="600" y2="126"/><line x1="730" y1="99" x2="730" y2="128"/>
</g>
<path d="M0,158 C240,150 500,170 760,160 C980,152 1100,166 1200,160 V200 H0 Z" fill="#534AB7"/>
<path d="M0,184 C240,176 500,196 760,186 C980,178 1120,192 1200,186 V200 H0 Z" fill="#26215C"/>
</svg>
