<svg xmlns="http://www.w3.org/2000/svg" viewBox="0 0 1200 200" role="img" aria-label="Ein goldener Stein fällt ins Wasser — aus seinen Ringen wachsen die Wellen der Landschaft">
<rect width="1200" height="200" fill="#EEEDFE"/>
<g stroke="#AFA9EC" stroke-width="3" stroke-linecap="round">
<line x1="290" y1="16" x2="290" y2="38"/><line x1="274" y1="46" x2="274" y2="62"/>
</g>
<rect x="252" y="66" width="34" height="34" rx="7" transform="rotate(-20 269 83)" fill="#f3c46a"/>
<path d="M0,134 C80,132 180,136 269,134 C320,133 350,124 400,116 C450,108 480,128 530,128 C580,128 610,96 670,94 C730,92 760,116 800,112 C850,107 870,50 940,50 C1010,50 1040,84 1090,82 C1140,80 1170,94 1200,90 V200 H0 Z" fill="#7F77DD"/>
<g fill="none" stroke="#3C3489" stroke-width="3.2" stroke-linecap="round" opacity="0.8">
<path d="M239,134 a30,10 0 0 0 60,0"/>
<path d="M207,134 a62,19 0 0 0 124,0"/>
<path d="M171,134 a98,29 0 0 0 196,0"/>
</g>
<circle cx="269" cy="126" r="4.5" fill="#EEEDFE" opacity="0.85"/>
<circle cx="305" cy="116" r="3" fill="#AFA9EC"/>
<circle cx="235" cy="118" r="2.5" fill="#AFA9EC"/>
<path d="M0,160 C180,148 400,174 620,162 C840,150 1020,174 1200,160 V200 H0 Z" fill="#3C3489"/>
<path d="M0,184 C240,174 500,196 760,184 C960,175 1100,192 1200,184 V200 H0 Z" fill="#26215C"/>
<path d="M1000,36 q10,-8 20,0 M1030,26 q10,-8 20,0" fill="none" stroke="#534AB7" stroke-width="3" stroke-linecap="round"/>
</svg>
