<svg xmlns="http://www.w3.org/2000/svg" viewBox="0 0 1200 200" role="img" aria-label="Ein Greifautomat über der Welle — der Greifer holt aus dem Haufen genau das goldene Teil heraus">
<rect width="1200" height="200" fill="#EEEDFE"/>
<rect x="380" y="10" width="440" height="152" rx="8" fill="#CECBF6" opacity="0.55"/>
<rect x="380" y="10" width="440" height="152" rx="8" fill="none" stroke="#534AB7" stroke-width="5"/>
<line x1="400" y1="34" x2="800" y2="34" stroke="#26215C" stroke-width="6" stroke-linecap="round"/>
<rect x="580" y="24" width="44" height="20" rx="5" fill="#26215C"/>
<line x1="602" y1="44" x2="602" y2="72" stroke="#26215C" stroke-width="4"/>
<path d="M602,72 L568,100 M602,72 L636,100" stroke="#26215C" stroke-width="7" fill="none" stroke-linecap="round"/>
<path d="M568,100 C556,112 564,126 578,126" stroke="#26215C" stroke-width="7" fill="none" stroke-linecap="round"/>
<path d="M636,100 C648,112 640,126 626,126" stroke="#26215C" stroke-width="7" fill="none" stroke-linecap="round"/>
<circle cx="602" cy="114" r="18" fill="#f3c46a"/>
<g fill="#7F77DD">
<circle cx="438" cy="140" r="15"/><circle cx="702" cy="142" r="14"/><circle cx="772" cy="138" r="12"/>
</g>
<g fill="#534AB7">
<rect x="468" y="126" width="30" height="26" rx="4"/>
<rect x="510" y="134" width="26" height="20" rx="4"/>
<rect x="726" y="128" width="28" height="24" rx="4"/>
<rect x="656" y="132" width="30" height="22" rx="4"/>
</g>
<g fill="#3C3489">
<path d="M546,154 l16,-26 l16,26 Z"/>
<path d="M606,156 l14,-22 l14,22 Z"/>
<circle cx="678" cy="150" r="9"/>
<rect x="404" y="134" width="24" height="20" rx="4"/>
</g>
<path d="M240,64 q10,-8 20,0 M270,52 q10,-8 20,0" fill="none" stroke="#AFA9EC" stroke-width="3" stroke-linecap="round"/>
<path d="M0,160 C180,148 380,170 600,162 C820,154 1000,174 1200,160 V200 H0 Z" fill="#3C3489"/>
<path d="M0,186 C240,176 500,198 760,187 C980,178 1100,194 1200,187 V200 H0 Z" fill="#26215C"/>
</svg>
