<svg xmlns="http://www.w3.org/2000/svg" viewBox="0 0 1200 200" role="img" aria-label="Eine Brücke aus Sprechblasen verbindet zwei Ufer — die goldene in der Mitte trägt">
<rect width="1200" height="200" fill="#EEEDFE"/>
<path d="M580,20 q10,-8 20,0 M614,10 q10,-8 20,0" fill="none" stroke="#534AB7" stroke-width="3" stroke-linecap="round"/>
<path d="M0,150 C210,140 470,160 730,150 C950,142 1100,154 1200,148 V200 H0 Z" fill="#7F77DD"/>
<path d="M0,80 C90,86 200,104 300,136 C200,124 90,120 0,124 Z" fill="#3C3489"/>
<path d="M0,80 C90,86 200,104 300,136 L300,150 C200,132 90,126 0,128 Z" fill="#26215C"/>
<path d="M1200,80 C1110,86 1000,104 900,136 C1000,124 1110,120 1200,124 Z" fill="#3C3489"/>
<path d="M1200,80 C1110,86 1000,104 900,136 L900,150 C1000,132 1110,126 1200,128 Z" fill="#26215C"/>
<g fill="#26215C"><rect x="316" y="92" width="78" height="46" rx="15"/><path d="M338,134 l-7,17 l21,-13 Z"/></g>
<g fill="#3C3489"><rect x="436" y="66" width="78" height="46" rx="15"/><path d="M458,108 l-7,17 l21,-13 Z"/></g>
<g fill="#f3c46a"><rect x="556" y="52" width="84" height="50" rx="16"/><path d="M580,98 l-7,18 l22,-14 Z"/></g>
<g fill="#3C3489"><rect x="682" y="66" width="78" height="46" rx="15"/><path d="M756,108 l7,17 l-21,-13 Z"/></g>
<g fill="#26215C"><rect x="802" y="92" width="78" height="46" rx="15"/><path d="M876,134 l7,17 l-21,-13 Z"/></g>
<g stroke="#EEEDFE" stroke-width="3.5" stroke-linecap="round">
<path d="M334,108 h42 M334,120 h28"/>
<path d="M454,82 h42 M454,94 h28"/>
<path d="M700,82 h42 M700,94 h28"/>
<path d="M820,108 h42 M820,120 h28"/>
</g>
<g stroke="#26215C" stroke-width="3.5" stroke-linecap="round">
<path d="M576,70 h46 M576,82 h30"/>
</g>
<path d="M0,168 C240,158 500,178 760,169 C980,162 1120,172 1200,167 V200 H0 Z" fill="#3C3489"/>
<path d="M0,188 C260,182 520,196 780,190 C1000,185 1120,194 1200,191 V200 H0 Z" fill="#26215C"/>
</svg>
