<svg xmlns="http://www.w3.org/2000/svg" viewBox="0 0 1200 200" role="img" aria-label="Zwei verbundene Telefone mit goldenem Kontaktpunkt — Zuordnung"><rect width="1200" height="200" fill="#EEEDFE"/><rect x="440" y="60" width="46" height="80" rx="8" fill="#3C3489"/><rect x="447" y="68" width="32" height="54" rx="3" fill="#534AB7"/><rect x="714" y="60" width="46" height="80" rx="8" fill="#3C3489"/><rect x="721" y="68" width="32" height="54" rx="3" fill="#534AB7"/><path d="M486,84 C560,120 640,120 714,84" fill="none" stroke="#7F77DD" stroke-width="4"/><circle cx="600" cy="108" r="10" fill="#f3c46a"/><path d="M600,44 q10,-8 20,0 M630,32 q10,-8 20,0" fill="none" stroke="#534AB7" stroke-width="3" stroke-linecap="round"/><path d="M0,124 C160,106 320,140 480,124 C640,108 820,142 1000,124 C1090,115 1150,122 1200,118 V200 H0 Z" fill="#534AB7"/><path d="M0,152 C180,134 380,166 600,152 C820,138 1010,168 1200,152 V200 H0 Z" fill="#3C3489"/><path d="M0,178 C220,164 460,190 700,176 C920,164 1080,188 1200,178 V200 H0 Z" fill="#26215C"/></svg>