<svg xmlns="http://www.w3.org/2000/svg" viewBox="0 0 1200 200" role="img" aria-label="Bergpanorama mit Wegstaffelung zum sonnenbeschienenen Gipfel — der Berufsweg">
<rect width="1200" height="200" fill="#EEEDFE"/>
<circle cx="250" cy="58" r="30" fill="#f3c46a"/>
<circle cx="250" cy="58" r="42" fill="none" stroke="#f3c46a" stroke-width="2" opacity="0.4"/><path d="M0,140 L150,96 L300,140 Z" fill="#CECBF6"/><path d="M430,140 L600,70 L770,140 Z" fill="#CECBF6"/><path d="M560,140 L880,44 L1120,140 Z" fill="#7F77DD"/><line x1="880" y1="44" x2="880" y2="20" stroke="#26215C" stroke-width="4"/><path d="M880,20 L916,29 L880,38 Z" fill="#26215C"/><path d="M700,140 q40,-30 80,-38 q40,-8 70,-40" fill="none" stroke="#EEEDFE" stroke-width="4" stroke-dasharray="10 9" opacity="0.85"/><path d="M300,60 q9,-7 18,0 M326,52 q9,-7 18,0" fill="none" stroke="#534AB7" stroke-width="3" stroke-linecap="round"/><path d="M0,132 C180,112 360,146 560,132 C760,118 940,148 1200,132 V200 H0 Z" fill="#534AB7"/><path d="M0,152 C200,136 440,166 680,152 C900,139 1050,166 1200,154 V200 H0 Z" fill="#3C3489"/>
<path d="M0,180 C240,168 500,192 760,180 C980,168 1100,188 1200,180 V200 H0 Z" fill="#26215C"/>
</svg>
