<svg xmlns="http://www.w3.org/2000/svg" viewBox="0 0 1200 200" role="img" aria-label="Zwei Vertragshälften mit gezackter Kante passen genau zusammen">
<rect width="1200" height="200" fill="#EEEDFE"/>
<path d="M1020,34 a24,24 0 1 0 0,40 a28,28 0 0 1 0,-40 Z" fill="#CECBF6"/>
<g transform="translate(600,86) rotate(-4)">
<path d="M-160,-56 L-14,-56 L-26,-38 L-10,-20 L-28,-2 L-12,16 L-24,34 L-14,56 L-160,56 Z" fill="#3C3489"/>
<path d="M160,-56 L14,-56 L2,-38 L18,-20 L0,-2 L16,16 L4,34 L14,56 L160,56 Z" fill="#26215C"/>
</g>
<g transform="translate(600,86) rotate(-4)" stroke="#AFA9EC" stroke-width="7" stroke-linecap="round">
<line x1="-136" y1="-30" x2="-56" y2="-30"/>
<line x1="-136" y1="-6" x2="-64" y2="-6"/>
<line x1="-136" y1="18" x2="-58" y2="18"/>
<line x1="56" y1="-30" x2="132" y2="-30"/>
<line x1="62" y1="-6" x2="132" y2="-6"/>
<line x1="58" y1="18" x2="132" y2="18"/>
</g>
<circle cx="704" cy="118" r="13" fill="#f3c46a"/>
<path d="M240,56 q10,-8 20,0 M272,44 q10,-8 20,0" fill="none" stroke="#534AB7" stroke-width="3" stroke-linecap="round"/>
<path d="M0,158 C180,146 380,166 600,157 C820,148 1020,166 1200,156 V200 H0 Z" fill="#534AB7"/>
<path d="M0,186 C240,178 500,196 760,188 C980,181 1110,192 1200,187 V200 H0 Z" fill="#26215C"/>
</svg>
