<svg xmlns="http://www.w3.org/2000/svg" viewBox="0 0 1200 200" role="img" aria-label="Aus der Feder fließt eine Notenlinie, die zur Wellenkante wird — ein goldener Notenkopf sitzt darauf">
<rect width="1200" height="200" fill="#EEEDFE"/>
<circle cx="1070" cy="46" r="22" fill="#AFA9EC"/>
<circle cx="1070" cy="46" r="32" fill="none" stroke="#AFA9EC" stroke-width="2" opacity="0.4"/>
<path d="M0,126 C120,120 240,120 360,124 C480,128 560,124 636,122 L640,122 L640,200 L0,200 Z" fill="#7F77DD"/>
<path d="M40,116 C160,110 320,110 480,114 C560,116 600,114 636,113" fill="none" stroke="#AFA9EC" stroke-width="1.5"/>
<path d="M40,122 C160,116 320,116 480,120 C560,122 600,120 636,119" fill="none" stroke="#AFA9EC" stroke-width="1.5"/>
<ellipse cx="300" cy="112" rx="9" ry="7" fill="#f3c46a" transform="rotate(-18 300 112)"/>
<line x1="308" y1="112" x2="308" y2="82" stroke="#f3c46a" stroke-width="3"/>
<g transform="translate(640,122) rotate(-34)"><path d="M0,0 C-10,-14 -16,-34 -14,-58 L14,-58 C16,-34 10,-14 0,0 Z" fill="#26215C"/><circle cx="0" cy="-40" r="5.5" fill="#EEEDFE"/><line x1="0" y1="-34" x2="0" y2="-8" stroke="#EEEDFE" stroke-width="3" stroke-linecap="round"/><rect x="-15" y="-70" width="30" height="12" rx="4" fill="#534AB7"/><path d="M-6,-70 C-10,-102 2,-128 34,-148 C22,-118 26,-92 12,-70 Z" fill="#7F77DD"/></g>
<path d="M0,148 C190,130 400,162 620,148 C840,134 1020,164 1200,148 V200 H0 Z" fill="#3C3489"/>
<path d="M0,180 C240,166 480,192 720,178 C940,166 1090,188 1200,178 V200 H0 Z" fill="#26215C"/>
</svg>
