<svg xmlns="http://www.w3.org/2000/svg" viewBox="0 0 1200 200" role="img" aria-label="Ein Parfümzerstäuber sprüht Sprechblasen in den Himmel — eine leuchtet golden">
<rect width="1200" height="200" fill="#EEEDFE"/>
<g transform="translate(460,0)">
<path d="M-30,96 C-30,82 -18,74 0,74 C18,74 30,82 30,96 L30,134 C30,146 20,152 0,152 C-20,152 -30,146 -30,134 Z" fill="#3C3489"/>
<path d="M-20,100 C-20,92 -11,88 0,88 C11,88 20,92 20,100 L20,130 C20,138 13,142 0,142 C-13,142 -20,138 -20,130 Z" fill="#534AB7"/>
<rect x="-8" y="58" width="16" height="16" rx="3" fill="#26215C"/>
<rect x="-4" y="46" width="26" height="12" rx="5" fill="#26215C"/>
<path d="M-6,52 C-20,52 -30,46 -34,38 C-24,34 -12,38 -6,46 Z" fill="#26215C"/>
<circle cx="-38" cy="34" r="11" fill="#3C3489"/>
<g stroke="#AFA9EC" stroke-width="3.5" stroke-linecap="round">
<path d="M30,48 L46,40"/>
<path d="M32,54 L50,52"/>
<path d="M30,60 L46,64"/>
</g>
</g>
<g>
<path d="M572,52 m-20,0 a20,15 0 1 1 40,0 a20,15 0 1 1 -40,0" fill="#AFA9EC"/>
<path d="M560,64 l-6,11 l14,-6 Z" fill="#AFA9EC"/>
<path d="M668,38 m-26,0 a26,19 0 1 1 52,0 a26,19 0 1 1 -52,0" fill="#534AB7"/>
<path d="M652,54 l-8,13 l17,-7 Z" fill="#534AB7"/>
<path d="M786,50 m-33,0 a33,24 0 1 1 66,0 a33,24 0 1 1 -66,0" fill="#f3c46a"/>
<path d="M766,70 l-10,15 l20,-8 Z" fill="#f3c46a"/>
</g>
<path d="M940,40 q11,-9 22,0 M976,52 q9,-8 18,0" fill="none" stroke="#534AB7" stroke-width="3" stroke-linecap="round"/>
<path d="M0,158 C210,148 440,168 660,158 C880,147 1050,166 1200,158 V200 H0 Z" fill="#7F77DD"/>
<path d="M0,175 C240,167 500,188 740,176 C950,167 1100,183 1200,175 V200 H0 Z" fill="#3C3489"/>
<path d="M0,190 C260,184 540,200 800,190 C1010,184 1140,195 1200,190 V200 H0 Z" fill="#26215C"/>
</svg>
