<svg xmlns="http://www.w3.org/2000/svg" viewBox="0 0 1200 200" role="img" aria-label="Ein aufgeschlagenes Buch auf der Welle — Lektüre und Wiedergabe"><rect width="1200" height="200" fill="#EEEDFE"/><circle cx="300" cy="50" r="26" fill="#f3c46a"/><circle cx="300" cy="50" r="39" fill="none" stroke="#f3c46a" stroke-width="2" opacity="0.42"/><path d="M600,132 L600,82 C556,66 494,70 448,90 L468,134 Z" fill="#AFA9EC"/><path d="M600,132 L600,82 C644,66 706,70 752,90 L732,134 Z" fill="#7F77DD"/><line x1="600" y1="82" x2="600" y2="132" stroke="#26215C" stroke-width="3"/><path d="M478,98 C512,90 552,90 588,98 M478,110 C512,102 552,102 588,110" fill="none" stroke="#534AB7" stroke-width="2" stroke-linecap="round"/><path d="M612,98 C648,90 688,90 722,98 M612,110 C648,102 688,102 722,110" fill="none" stroke="#534AB7" stroke-width="2" stroke-linecap="round"/><path d="M0,128 C150,106 320,142 500,124 C680,106 860,144 1040,124 C1110,116 1170,126 1200,120 V200 H0 Z" fill="#534AB7"/><path d="M0,150 C190,132 400,164 620,150 C840,136 1020,166 1200,150 V200 H0 Z" fill="#3C3489"/><path d="M0,180 C240,166 480,192 720,178 C940,166 1090,188 1200,178 V200 H0 Z" fill="#26215C"/></svg>