<svg xmlns="http://www.w3.org/2000/svg" viewBox="0 0 1200 200" role="img" aria-label="Ein Standspiegel auf der Welle — nur im Spiegel geht die goldene Sonne auf">
<rect width="1200" height="200" fill="#EEEDFE"/>
<g transform="translate(600,0)">
<rect x="-72" y="62" width="10" height="96" rx="4" fill="#26215C"/>
<rect x="62" y="62" width="10" height="96" rx="4" fill="#26215C"/>
<path d="M-69,158 L-98,158 M69,158 L98,158" stroke="#26215C" stroke-width="9" stroke-linecap="round"/>
<rect x="-64" y="88" width="14" height="8" rx="3" fill="#26215C"/><rect x="50" y="88" width="14" height="8" rx="3" fill="#26215C"/>
<ellipse cx="0" cy="92" rx="54" ry="62" fill="#26215C"/>
<ellipse cx="0" cy="92" rx="44" ry="52" fill="#CECBF6"/>
<path d="M-43,102 C-20,94 18,110 43,100 L43,106 C37,131 21,144 0,144 C-21,144 -37,131 -43,108 Z" fill="#AFA9EC"/>
<circle cx="2" cy="74" r="17" fill="#f3c46a"/>
<circle cx="2" cy="74" r="25" fill="none" stroke="#f3c46a" stroke-width="2.5" opacity="0.45"/>
</g>
<path d="M300,50 q11,-9 22,0 M336,62 q9,-8 18,0" fill="none" stroke="#534AB7" stroke-width="3" stroke-linecap="round"/>
<path d="M0,166 C210,157 440,174 660,166 C880,157 1050,172 1200,166 V200 H0 Z" fill="#7F77DD"/>
<path d="M0,179 C240,172 500,190 740,180 C950,172 1100,187 1200,179 V200 H0 Z" fill="#3C3489"/>
<path d="M0,192 C260,187 540,200 800,192 C1010,187 1140,197 1200,192 V200 H0 Z" fill="#26215C"/>
</svg>
