<svg xmlns="http://www.w3.org/2000/svg" viewBox="0 0 1200 200" role="img" aria-label="Eine Leiter lehnt über der Welle — ihre Sprossen sind geschriebene Zeilen unterschiedlicher Länge, und ganz oben wartet der goldene Stern">
<rect width="1200" height="200" fill="#EEEDFE"/>
<path d="M878,26 l8,19 l21,2 l-16,14 l5,21 l-18,-11 l-18,11 l5,-21 l-16,-14 l21,-2 Z" fill="#f3c46a"/>
<path d="M0,150 C160,134 340,158 520,148 C700,138 900,158 1080,146 C1130,143 1170,146 1200,144 V200 H0 Z" fill="#534AB7"/>
<g stroke="#26215C" stroke-width="6" stroke-linecap="round">
<line x1="430" y1="180" x2="786" y2="50"/>
<line x1="478" y1="190" x2="834" y2="60"/>
</g>
<g stroke="#26215C" stroke-linecap="round">
<line x1="459" y1="167" x2="507" y2="177" stroke-width="5"/>
<line x1="501" y1="152" x2="527" y2="158" stroke-width="4"/>
<line x1="542" y1="137" x2="590" y2="147" stroke-width="5"/>
<line x1="584" y1="122" x2="620" y2="129" stroke-width="4"/>
<line x1="626" y1="106" x2="674" y2="116" stroke-width="5"/>
<line x1="668" y1="91" x2="689" y2="96" stroke-width="4"/>
<line x1="709" y1="76" x2="757" y2="86" stroke-width="5"/>
<line x1="751" y1="61" x2="783" y2="67" stroke-width="4"/>
</g>
<circle cx="852" cy="52" r="4" fill="#3C3489"/>
<path d="M240,86 q10,-8 20,0 M270,74 q10,-8 20,0" fill="none" stroke="#534AB7" stroke-width="3" stroke-linecap="round"/>
<path d="M0,168 C200,154 420,180 640,168 C860,156 1040,178 1200,166 V200 H0 Z" fill="#3C3489"/>
<path d="M0,190 C240,180 500,199 760,190 C980,182 1100,196 1200,190 V200 H0 Z" fill="#26215C"/>
</svg>
