<svg xmlns="http://www.w3.org/2000/svg" viewBox="0 0 1200 200" role="img" aria-label="Ein Kreislauf des Teilens über der Stadt am Wasser">
<rect width="1200" height="200" fill="#EEEDFE"/>
<g fill="#CECBF6"><rect x="150" y="96" width="40" height="54"/><rect x="196" y="80" width="30" height="70"/><rect x="960" y="88" width="36" height="62"/><rect x="1002" y="104" width="30" height="46"/></g>
<path d="M600,44 A66,66 0 1 1 534,110" fill="none" stroke="#3C3489" stroke-width="9" stroke-linecap="round"/>
<path d="M534,110 l-14,-16 l24,-4 Z" fill="#3C3489"/>
<path d="M600,176 A66,66 0 0 1 666,110" fill="none" stroke="#534AB7" stroke-width="9" stroke-linecap="round" opacity="0"/>
<circle cx="600" cy="110" r="20" fill="#f3c46a"/>
<circle cx="600" cy="110" r="30" fill="none" stroke="#f3c46a" stroke-width="2" opacity="0.4"/>
<path d="M0,150 C150,150 320,150 470,150 C520,150 540,166 600,176 C662,166 686,150 740,150 C900,150 1060,150 1200,150 V200 H0 Z" fill="#7F77DD"/>
<path d="M0,170 C240,158 500,182 760,172 C980,162 1110,180 1200,172 V200 H0 Z" fill="#3C3489"/>
<path d="M0,188 C240,178 500,196 760,188 C980,180 1110,194 1200,188 V200 H0 Z" fill="#26215C"/>
</svg>