<svg xmlns="http://www.w3.org/2000/svg" viewBox="0 0 1200 200" role="img" aria-label="Dieselbe Hügelkette erscheint zweimal — links in blassen, rechts in vollen Farben; über der Grenze steht die goldene Sonne der Erkenntnis"><rect width="1200" height="200" fill="#EEEDFE"/><circle cx="600" cy="42" r="22" fill="#f3c46a"/><circle cx="600" cy="42" r="32" fill="none" stroke="#f3c46a" stroke-width="2" opacity="0.4"/><path d="M150,118 L250,72 L350,118 Z" fill="#CECBF6"/><path d="M330,118 L470,60 L600,118 Z" fill="#AFA9EC"/><path d="M600,118 L730,60 L870,118 Z" fill="#7F77DD"/><path d="M850,118 L950,72 L1050,118 Z" fill="#534AB7"/><line x1="600" y1="26" x2="600" y2="120" stroke="#AFA9EC" stroke-width="2" stroke-dasharray="4 5" opacity="0.8"/><circle cx="255" cy="132" r="3" fill="#AFA9EC" opacity="0.6"/><circle cx="950" cy="130" r="3" fill="#EEEDFE" opacity="0.6"/><path d="M0,126 C150,106 300,138 470,122 C620,108 760,138 920,120 C1040,108 1130,122 1200,114 V200 H0 Z" fill="#3C3489"/><path d="M0,150 C190,132 400,164 620,150 C840,136 1020,166 1200,150 V200 H0 Z" fill="#3C3489"/>
<path d="M0,180 C240,166 480,192 720,178 C940,166 1090,188 1200,178 V200 H0 Z" fill="#26215C"/>
</svg>