<svg xmlns="http://www.w3.org/2000/svg" viewBox="0 0 1200 200" role="img" aria-label="Der goldene Hammer Mjölnir ruht auf einem Fels vor den nordischen Bergen">
<rect width="1200" height="200" fill="#EEEDFE"/>
<circle cx="330" cy="44" r="4" fill="#AFA9EC"/><circle cx="500" cy="34" r="2.5" fill="#AFA9EC"/><circle cx="900" cy="40" r="3" fill="#AFA9EC"/><circle cx="1030" cy="30" r="2.5" fill="#AFA9EC"/><circle cx="770" cy="26" r="2.5" fill="#AFA9EC"/>
<path d="M0,132 L180,58 L360,132 Z" fill="#CECBF6"/>
<path d="M820,132 L980,50 L1140,132 Z" fill="#CECBF6"/>
<path d="M250,132 L470,44 L690,132 Z" fill="#AFA9EC"/>
<path d="M620,132 L820,60 L1010,132 Z" fill="#7F77DD"/>
<path d="M512,150 L512,134 L556,118 L648,118 L692,134 L692,150 Z" fill="#26215C"/>
<g fill="#f3c46a">
<path d="M562,60 L642,60 L634,92 L570,92 Z"/>
<rect x="592" y="92" width="18" height="30" rx="2"/>
</g>
<path d="M0,150 C190,132 400,162 620,150 C840,134 1030,162 1200,150 V200 H0 Z" fill="#534AB7"/>
<path d="M0,172 C220,158 460,184 700,170 C920,158 1080,180 1200,171 V200 H0 Z" fill="#3C3489"/>
<path d="M0,190 C240,182 500,198 760,191 C980,186 1120,196 1200,191 V200 H0 Z" fill="#26215C"/>
</svg>
