<svg xmlns="http://www.w3.org/2000/svg" viewBox="0 0 1200 200" role="img" aria-label="Ein Kranz aus Sternen über der Welle — oben fehlt ein Stern, der goldene schwebt heran und schließt den Kreis">
<rect width="1200" height="200" fill="#EEEDFE"/>
<circle cx="600.0" cy="40.0" r="9" fill="none" stroke="#AFA9EC" stroke-width="2" stroke-dasharray="3 4"/><path d="M635.4,43.6 l3.4,7.0 7.8,0 -6.3,4.8 2.4,7.5 -7.0,-4.6 -7.0,4.6 2.4,-7.5 -6.3,-4.8 7.8,0 z" fill="#534AB7"/><path d="M650.0,79.0 l3.4,7.0 7.8,0 -6.3,4.8 2.4,7.5 -7.0,-4.6 -7.0,4.6 2.4,-7.5 -6.3,-4.8 7.8,0 z" fill="#534AB7"/><path d="M635.4,114.4 l3.4,7.0 7.8,0 -6.3,4.8 2.4,7.5 -7.0,-4.6 -7.0,4.6 2.4,-7.5 -6.3,-4.8 7.8,0 z" fill="#534AB7"/><path d="M600.0,129.0 l3.4,7.0 7.8,0 -6.3,4.8 2.4,7.5 -7.0,-4.6 -7.0,4.6 2.4,-7.5 -6.3,-4.8 7.8,0 z" fill="#534AB7"/><path d="M564.6,114.4 l3.4,7.0 7.8,0 -6.3,4.8 2.4,7.5 -7.0,-4.6 -7.0,4.6 2.4,-7.5 -6.3,-4.8 7.8,0 z" fill="#534AB7"/><path d="M550.0,79.0 l3.4,7.0 7.8,0 -6.3,4.8 2.4,7.5 -7.0,-4.6 -7.0,4.6 2.4,-7.5 -6.3,-4.8 7.8,0 z" fill="#534AB7"/><path d="M564.6,43.6 l3.4,7.0 7.8,0 -6.3,4.8 2.4,7.5 -7.0,-4.6 -7.0,4.6 2.4,-7.5 -6.3,-4.8 7.8,0 z" fill="#534AB7"/>
<path d="M300.0,31.9 l3.7,7.7 8.6,0 -6.9,5.3 2.6,8.2 -7.7,-5.1 -7.7,5.1 2.6,-8.2 -6.9,-5.3 8.6,0 z" fill="#f3c46a"/>
<path d="M312,52 C420,48 520,58 592,80" fill="none" stroke="#AFA9EC" stroke-width="2" stroke-dasharray="4 6" opacity="0.85"/>
<path d="M0,152 C200,136 420,168 640,154 C860,140 1040,168 1200,154 V200 H0 Z" fill="#3C3489"/>
<path d="M0,182 C240,168 500,194 760,182 C980,170 1110,190 1200,182 V200 H0 Z" fill="#26215C"/>
</svg>