<svg xmlns="http://www.w3.org/2000/svg" viewBox="0 0 1200 200" role="img" aria-label="Kongress-Panorama: Fahnenreihe und Rednerpulte staffeln sich wie Hügel, die goldene Sonne über dem Saal">
<rect width="1200" height="200" fill="#EEEDFE"/>
<circle cx="300" cy="54" r="28" fill="#f3c46a"/>
<circle cx="300" cy="54" r="39" fill="none" stroke="#f3c46a" stroke-width="2" opacity="0.4"/>
<path d="M150,120 h60 v-40 h50 v40 h70 v-64 h44 v64 h80 v-30 h60 v30 h90 v-50 h50 v50 h120 v-40 h60 v40 h130 V120 Z" fill="#AFA9EC"/>
<g stroke="#534AB7" stroke-width="4" stroke-linecap="round"><line x1="470" y1="56" x2="470" y2="120"/><line x1="520" y1="66" x2="520" y2="120"/><line x1="570" y1="60" x2="570" y2="120"/></g>
<path d="M470,56 l26,8 -26,8 Z" fill="#534AB7"/><path d="M520,66 l24,8 -24,8 Z" fill="#534AB7"/><path d="M570,60 l26,8 -26,8 Z" fill="#7F77DD"/>
<path d="M760,70 q10,-8 20,0 M790,58 q10,-8 20,0" fill="none" stroke="#534AB7" stroke-width="3" stroke-linecap="round"/>
<path d="M0,124 C150,96 290,140 450,118 C610,96 760,138 920,116 C1040,101 1130,118 1200,108 V200 H0 Z" fill="#534AB7"/>
<path d="M0,150 C170,128 330,166 520,146 C700,128 880,168 1050,148 C1110,141 1170,148 1200,144 V200 H0 Z" fill="#3C3489"/>
<path d="M0,178 C200,162 420,190 640,176 C860,163 1040,188 1200,176 V200 H0 Z" fill="#26215C"/>
</svg>
