<svg xmlns="http://www.w3.org/2000/svg" viewBox="0 0 1200 200" role="img" aria-label="Der Tisch ist gedeckt — Teller, Gläser und Besteck stehen bereit, die Kerze brennt golden, der Stuhl wartet">
<rect width="1200" height="200" fill="#EEEDFE"/>
<g fill="#AFA9EC">
<rect x="238" y="70" width="12" height="96" rx="4"/>
<rect x="330" y="70" width="12" height="96" rx="4"/>
<rect x="234" y="30" width="112" height="12" rx="5"/>
<rect x="234" y="52" width="112" height="10" rx="5"/>
<rect x="238" y="26" width="10" height="44" rx="4"/>
<rect x="332" y="26" width="10" height="44" rx="4"/>
<rect x="228" y="96" width="124" height="12" rx="5"/>
</g>
<rect x="596" y="30" width="16" height="56" rx="4" fill="#534AB7"/>
<path d="M604,30 C595,18 600,6 604,0 C608,6 613,18 604,30 Z" fill="#f3c46a"/>
<rect x="400" y="118" width="620" height="16" rx="5" fill="#3C3489"/>
<rect x="430" y="134" width="16" height="46" fill="#26215C"/>
<rect x="974" y="134" width="16" height="46" fill="#26215C"/>
<ellipse cx="700" cy="110" rx="78" ry="18" fill="#7F77DD"/>
<ellipse cx="700" cy="108" rx="46" ry="10" fill="#CECBF6"/>
<g fill="#534AB7">
<rect x="576" y="88" width="7" height="30" rx="3"/><rect x="590" y="88" width="7" height="30" rx="3"/><rect x="604" y="88" width="7" height="30" rx="3"/>
<rect x="812" y="88" width="7" height="30" rx="3"/>
</g>
<path d="M828,90 q12,5 0,28 Z" fill="#534AB7"/>
<path d="M876,80 h38 l-6,26 h-26 Z" fill="#AFA9EC"/>
<rect x="887" y="106" width="16" height="12" fill="#AFA9EC"/>
<path d="M478,80 h38 l-6,26 h-26 Z" fill="#CECBF6"/>
<rect x="489" y="106" width="16" height="12" fill="#CECBF6"/>
<path d="M960,44 q10,-8 20,0 M990,34 q10,-8 20,0" fill="none" stroke="#534AB7" stroke-width="3" stroke-linecap="round"/>
<path d="M0,156 C190,144 400,170 620,158 C840,146 1020,170 1200,156 V200 H0 Z" fill="#534AB7"/>
<path d="M0,176 C240,166 500,190 760,178 C960,169 1100,186 1200,178 V200 H0 Z" fill="#3C3489"/>
<path d="M0,191 C260,185 520,197 780,191 C980,187 1100,195 1200,191 V200 H0 Z" fill="#26215C"/>
</svg>
