<svg xmlns="http://www.w3.org/2000/svg" viewBox="0 0 1200 200" role="img" aria-label="Ein Schlüssel schwebt über dem Schlüsselloch im Wellenberg">
<rect width="1200" height="200" fill="#EEEDFE"/>
<path d="M1010,36 a24,24 0 1 0 0,40 a28,28 0 0 1 0,-40 Z" fill="#CECBF6"/>
<path d="M0,126 C170,110 360,136 560,122 C760,109 960,134 1200,120 V200 H0 Z" fill="#7F77DD"/>
<g transform="translate(596,66) rotate(24)">
<circle cx="-96" cy="0" r="24" fill="none" stroke="#26215C" stroke-width="13"/>
<line x1="-72" y1="0" x2="92" y2="0" stroke="#26215C" stroke-width="13" stroke-linecap="round"/>
<line x1="58" y1="0" x2="58" y2="25" stroke="#26215C" stroke-width="11" stroke-linecap="round"/>
<line x1="88" y1="0" x2="88" y2="29" stroke="#26215C" stroke-width="11" stroke-linecap="round"/>
</g>
<path d="M0,158 C160,146 320,164 480,156 C560,152 640,146 720,150 C900,158 1060,166 1200,158 V200 H0 Z" fill="#3C3489"/>
<circle cx="600" cy="140" r="19" fill="#f3c46a"/>
<path d="M600,140 L621,186 L579,186 Z" fill="#f3c46a"/>
<path d="M250,60 q10,-8 20,0 M282,48 q10,-8 20,0" fill="none" stroke="#534AB7" stroke-width="3" stroke-linecap="round"/>
<path d="M0,188 C240,180 500,198 760,189 C980,182 1110,194 1200,188 V200 H0 Z" fill="#26215C"/>
</svg>
