<svg xmlns="http://www.w3.org/2000/svg" viewBox="0 0 1200 200" role="img" aria-label="Eine Zielscheibe auf der Welle — der goldene Pfeil sitzt in der Mitte">
<rect width="1200" height="200" fill="#EEEDFE"/>
<path d="M700,150 L850,104 L1010,150 Z" fill="#CECBF6"/>
<path d="M280,60 q10,-8 20,0 M314,48 q10,-8 20,0" fill="none" stroke="#534AB7" stroke-width="3" stroke-linecap="round"/>
<g stroke="#26215C" stroke-width="6" stroke-linecap="round">
<line x1="576" y1="118" x2="556" y2="152"/>
<line x1="576" y1="118" x2="596" y2="152"/>
</g>
<circle cx="576" cy="76" r="46" fill="#26215C"/>
<circle cx="576" cy="76" r="34" fill="#EEEDFE"/>
<circle cx="576" cy="76" r="22" fill="#534AB7"/>
<circle cx="576" cy="76" r="10" fill="#EEEDFE"/>
<g transform="rotate(-38 576 76)">
<line x1="576" y1="76" x2="646" y2="76" stroke="#f3c46a" stroke-width="6" stroke-linecap="round"/>
<path d="M640,68 L662,76 L640,84 Z" fill="#f3c46a"/>
<circle cx="576" cy="76" r="6" fill="#f3c46a"/>
</g>
<path d="M0,152 C190,142 400,160 620,151 C840,142 1030,158 1200,150 V200 H0 Z" fill="#534AB7"/>
<circle cx="900" cy="162" r="3" fill="#AFA9EC"/>
<path d="M0,172 C220,164 450,182 670,172 C890,164 1060,178 1200,171 V200 H0 Z" fill="#3C3489"/>
<path d="M0,191 C240,186 500,198 760,192 C980,188 1120,196 1200,192 V200 H0 Z" fill="#26215C"/>
</svg>
