<svg xmlns="http://www.w3.org/2000/svg" viewBox="0 0 1200 200" role="img" aria-label="Regal mit leerem Fach, goldene Kiste schwebt hinein — Wechselpräposition Lückentext"><rect width="1200" height="200" fill="#EEEDFE"/><g stroke="#26215C" stroke-width="6"><line x1="460" y1="78" x2="740" y2="78"/><line x1="460" y1="124" x2="740" y2="124"/></g><g fill="#534AB7"><rect x="472" y="84" width="50" height="38"/><rect x="640" y="84" width="50" height="38"/></g><g fill="#7F77DD"><rect x="472" y="40" width="50" height="36"/><rect x="694" y="40" width="46" height="36"/></g><rect x="558" y="10" width="50" height="38" rx="2" fill="#f3c46a"/><path d="M583,48 l0,34" stroke="#f3c46a" stroke-width="2" stroke-dasharray="3 4"/><path d="M576,74 l7,8 l7,-8" fill="none" stroke="#f3c46a" stroke-width="3" stroke-linecap="round"/><path d="M320,60 q10,-8 20,0 M350,48 q10,-8 20,0" fill="none" stroke="#534AB7" stroke-width="3" stroke-linecap="round"/><path d="M0,124 C160,106 320,140 480,124 C640,108 820,142 1000,124 C1090,115 1150,122 1200,118 V200 H0 Z" fill="#534AB7"/><path d="M0,152 C180,134 380,166 600,152 C820,138 1010,168 1200,152 V200 H0 Z" fill="#3C3489"/><path d="M0,178 C220,164 460,190 700,176 C920,164 1080,188 1200,178 V200 H0 Z" fill="#26215C"/></svg>