<svg xmlns="http://www.w3.org/2000/svg" viewBox="0 0 1200 200" role="img" aria-label="Ein Koffer wartet am Pier, das Schiff fährt der goldenen Sonne entgegen — Aufbruch ins Ausland">
<rect width="1200" height="200" fill="#EEEDFE"/>
<circle cx="920" cy="50" r="26" fill="#f3c46a"/>
<circle cx="920" cy="50" r="38" fill="none" stroke="#f3c46a" stroke-width="2" opacity="0.4"/>
<path d="M480,60 q10,-8 20,0 M518,46 q10,-8 20,0" fill="none" stroke="#534AB7" stroke-width="3" stroke-linecap="round"/>
<path d="M652,64 c-4,-10 4,-14 0,-22 M666,52 c-4,-10 4,-14 0,-22" fill="none" stroke="#AFA9EC" stroke-width="4" stroke-linecap="round"/>
<path d="M0,118 C200,106 460,126 720,116 C920,108 1080,120 1200,113 V200 H0 Z" fill="#AFA9EC"/>
<g fill="#3C3489">
<path d="M610,120 L628,82 L790,82 L810,120 Z"/>
<rect x="644" y="66" width="18" height="24" rx="3"/>
<rect x="700" y="56" width="26" height="34" rx="4"/>
<rect x="744" y="66" width="18" height="24" rx="3"/>
</g>
<path d="M600,120 C614,130 632,130 646,120 M646,120 C660,130 678,130 692,120 M692,120 C706,130 724,130 738,120 M738,120 C752,130 770,130 784,120 M784,120 C798,130 812,130 822,120" fill="none" stroke="#534AB7" stroke-width="3.5" opacity="0.8"/>
<path d="M0,142 C220,130 480,154 740,142 C960,132 1100,150 1200,142 V200 H0 Z" fill="#534AB7"/>
<g fill="#26215C">
<rect x="150" y="126" width="220" height="13" rx="3"/>
<rect x="166" y="139" width="11" height="61"/>
<rect x="244" y="139" width="11" height="61"/>
<rect x="322" y="139" width="11" height="61"/>
<rect x="228" y="80" width="56" height="46" rx="7"/>
<path d="M243,80 v-9 a13,13 0 0 1 26,0 v9 h-9 v-8 a4,4 0 0 0 -8,0 v8 Z"/>
<rect x="236" y="126" width="9" height="6"/>
<rect x="267" y="126" width="9" height="6"/>
</g>
<line x1="256" y1="86" x2="256" y2="120" stroke="#534AB7" stroke-width="3.5"/>
<path d="M0,168 C240,158 500,180 760,170 C980,162 1110,176 1200,169 V200 H0 Z" fill="#3C3489"/>
<path d="M0,188 C260,182 520,196 780,190 C1000,185 1120,194 1200,190 V200 H0 Z" fill="#26215C"/>
</svg>
