<svg xmlns="http://www.w3.org/2000/svg" viewBox="0 0 1200 200" role="img" aria-label="Eine Waage über den Wellen: zwei ungleiche Hügel in den Schalen, die goldene Sonne als Mittelpunkt">
<rect width="1200" height="200" fill="#EEEDFE"/>
<line x1="600" y1="40" x2="600" y2="70" stroke="#26215C" stroke-width="4"/>
<circle cx="600" cy="40" r="8" fill="#f3c46a"/>
<line x1="440" y1="66" x2="760" y2="74" stroke="#26215C" stroke-width="4" stroke-linecap="round"/>
<line x1="440" y1="66" x2="410" y2="104" stroke="#534AB7" stroke-width="2"/><line x1="440" y1="66" x2="470" y2="104" stroke="#534AB7" stroke-width="2"/>
<line x1="760" y1="74" x2="730" y2="100" stroke="#534AB7" stroke-width="2"/><line x1="760" y1="74" x2="790" y2="100" stroke="#534AB7" stroke-width="2"/>
<path d="M405,104 a35,14 0 0 0 70,0 Z" fill="#7F77DD"/>
<path d="M725,100 a35,14 0 0 0 70,0 Z" fill="#7F77DD"/>
<path d="M420,104 l20,-16 l20,16 Z" fill="#534AB7"/>
<path d="M742,100 l18,-10 l18,10 Z" fill="#534AB7"/>
<path d="M0,148 C190,130 400,162 620,148 C840,134 1020,164 1200,148 V200 H0 Z" fill="#3C3489"/>
<path d="M0,180 C240,166 480,192 720,178 C940,166 1090,188 1200,178 V200 H0 Z" fill="#26215C"/>
</svg>
