<svg xmlns="http://www.w3.org/2000/svg" viewBox="0 0 1200 200" role="img" aria-label="Eine Giraffe schaut über den Zaun des Geheges — ein goldener Vogel fliegt frei">
<rect width="1200" height="200" fill="#EEEDFE"/>
<path d="M880,44 q16,-16 32,0 q16,-16 32,0 l-5,7 q-11,-10 -27,2 q-16,-12 -27,-2 Z" fill="#f3c46a"/>
<g fill="#26215C">
<ellipse cx="600" cy="140" rx="72" ry="34"/>
<rect x="548" y="150" width="11" height="26" rx="4"/>
<rect x="584" y="156" width="11" height="22" rx="4"/>
<rect x="616" y="156" width="11" height="22" rx="4"/>
<rect x="646" y="150" width="11" height="26" rx="4"/>
<path d="M622,124 L654,44 L682,52 L662,130 Z"/>
<path d="M652,34 C654,26 662,20 672,20 C684,20 692,28 692,38 C692,44 688,50 682,52 L656,46 C652,42 650,38 652,34 Z"/>
<path d="M688,30 C696,28 706,32 710,40 C712,46 708,50 702,50 C696,50 692,44 688,42 Z"/>
<path d="M658,22 l-2,-12 6,2 2,10 Z"/>
<path d="M672,20 l2,-12 5,3 -1,10 Z"/>
<circle cx="659" cy="8" r="4"/>
<circle cx="676" cy="7" r="4"/>
<path d="M646,34 l-14,-6 2,8 10,4 Z"/>
</g>
<g fill="#7F77DD">
<rect x="150" y="92" width="720" height="10" rx="5"/>
<rect x="168" y="92" width="10" height="76" rx="4"/>
<rect x="238" y="92" width="10" height="76" rx="4"/>
<rect x="308" y="92" width="10" height="76" rx="4"/>
<rect x="378" y="92" width="10" height="76" rx="4"/>
<rect x="448" y="92" width="10" height="76" rx="4"/>
<rect x="518" y="92" width="10" height="76" rx="4"/>
<rect x="588" y="92" width="10" height="76" rx="4"/>
<rect x="658" y="92" width="10" height="76" rx="4"/>
<rect x="728" y="92" width="10" height="76" rx="4"/>
<rect x="798" y="92" width="10" height="76" rx="4"/>
<rect x="852" y="92" width="10" height="76" rx="4"/>
</g>
<path d="M0,166 C200,154 420,176 640,164 C860,153 1040,174 1200,164 V200 H0 Z" fill="#534AB7"/>
<path d="M0,180 C240,170 480,192 720,180 C920,171 1090,188 1200,182 V200 H0 Z" fill="#3C3489"/>
<path d="M0,194 C260,188 540,199 800,194 C1000,190 1120,196 1200,194 V200 H0 Z" fill="#26215C"/>
<circle cx="120" cy="34" r="4" fill="#CECBF6"/>
<circle cx="1080" cy="60" r="3" fill="#CECBF6"/>
</svg>
