<svg xmlns="http://www.w3.org/2000/svg" viewBox="0 0 1200 200" role="img" aria-label="Skyline aus Häusern vieler Kulturen unter derselben Sonne">
<rect width="1200" height="200" fill="#EEEDFE"/>
<circle cx="600" cy="30" r="24" fill="#f3c46a"/>
<circle cx="600" cy="30" r="35" fill="none" stroke="#f3c46a" stroke-width="2" opacity="0.4"/>
<path d="M0,136 C180,122 380,146 600,134 C820,122 1020,144 1200,133 V200 H0 Z" fill="#534AB7"/>
<g fill="#26215C">
<path d="M290,134 L290,98 L276,98 L322,68 L368,98 L354,98 L354,134 Z"/>
<rect x="392" y="90" width="56" height="44" rx="3"/>
<path d="M384,90 L456,90 L420,72 Z"/>
<rect x="498" y="94" width="42" height="40" rx="2"/>
<path d="M492,94 L546,94 L519,58 Z"/>
<path d="M596,134 L596,104 A30,26 0 0 1 656,104 L656,134 Z"/>
<line x1="682" y1="134" x2="682" y2="70" stroke="#26215C" stroke-width="8"/>
<circle cx="682" cy="66" r="7"/>
<rect x="718" y="80" width="44" height="54" rx="2"/>
<line x1="740" y1="80" x2="740" y2="58" stroke="#26215C" stroke-width="5"/>
<path d="M790,134 L790,102 C790,88 800,78 814,78 C828,78 838,88 838,102 L838,134 Z"/>
<path d="M814,78 C814,66 806,62 814,50 C822,62 814,66 814,78"/>
<path d="M872,134 L872,106 L860,106 L892,84 L924,106 L912,106 L912,134 Z"/>
</g>
<path d="M170,60 q10,-8 20,0 M202,48 q10,-8 20,0" fill="none" stroke="#534AB7" stroke-width="3" stroke-linecap="round"/>
<path d="M0,160 C210,150 440,170 660,160 C880,150 1050,168 1200,159 V200 H0 Z" fill="#3C3489"/>
<path d="M0,187 C240,179 500,197 760,189 C980,183 1110,193 1200,188 V200 H0 Z" fill="#26215C"/>
</svg>
