<svg xmlns="http://www.w3.org/2000/svg" viewBox="0 0 1200 200" role="img" aria-label="Zwei Lautsprechertürme werden mit Bausteinen zur gemeinsamen Bühne verbunden — der goldene Schlussbalken schließt sie">
<rect width="1200" height="200" fill="#EEEDFE"/>
<circle cx="1050" cy="48" r="22" fill="#AFA9EC"/>
<circle cx="1050" cy="48" r="32" fill="none" stroke="#AFA9EC" stroke-width="2" opacity="0.4"/>
<rect x="300" y="70" width="52" height="60" rx="4" fill="#534AB7"/><circle cx="326" cy="88" r="9" fill="#26215C"/><circle cx="326" cy="112" r="13" fill="#26215C"/>
<rect x="848" y="70" width="52" height="60" rx="4" fill="#534AB7"/><circle cx="874" cy="88" r="9" fill="#26215C"/><circle cx="874" cy="112" r="13" fill="#26215C"/>
<g fill="#7F77DD"><rect x="360" y="96" width="70" height="24" rx="3"/><rect x="438" y="96" width="70" height="24" rx="3"/><rect x="692" y="96" width="70" height="24" rx="3"/><rect x="770" y="96" width="70" height="24" rx="3"/></g>
<rect x="516" y="96" width="168" height="24" rx="4" fill="#f3c46a"/>
<path d="M0,148 C190,130 400,162 620,148 C840,134 1020,164 1200,148 V200 H0 Z" fill="#3C3489"/>
<path d="M0,180 C240,166 480,192 720,178 C940,166 1090,188 1200,178 V200 H0 Z" fill="#26215C"/>
</svg>
