<svg xmlns="http://www.w3.org/2000/svg" viewBox="0 0 1200 200" role="img" aria-label="Panorama eines aufsteigenden Berufswegs — ein heller Pfad windet sich über Hügel hinauf zur goldenen Sonne">
<rect width="1200" height="200" fill="#EEEDFE"/>
<circle cx="1012" cy="44" r="27" fill="#f3c46a"/>
<circle cx="1012" cy="44" r="38" fill="none" stroke="#f3c46a" stroke-width="2" opacity="0.45"/>
<path d="M0,150 L150,120 L330,150 Z" fill="#CECBF6"/>
<path d="M250,150 L470,96 L690,150 Z" fill="#AFA9EC"/>
<path d="M560,150 L820,60 L1080,150 Z" fill="#7F77DD"/>
<path d="M120,168 C60,150 40,132 92,120 C70,138 96,150 148,150 C210,150 230,132 300,126 C420,116 470,112 560,96 C690,74 760,66 830,60" fill="none" stroke="#EEEDFE" stroke-width="6" stroke-linecap="round" stroke-dasharray="2 12" opacity="0.9"/>
<path d="M470,88 q10,-8 20,0 M500,78 q10,-8 20,0" fill="none" stroke="#534AB7" stroke-width="3" stroke-linecap="round"/>
<path d="M0,150 C160,130 320,164 520,150 C720,136 900,166 1200,150 V200 H0 Z" fill="#534AB7"/>
<path d="M0,170 C200,156 420,186 660,172 C880,160 1050,182 1200,172 V200 H0 Z" fill="#3C3489"/>
<path d="M0,188 C240,178 500,198 760,188 C980,180 1100,194 1200,188 V200 H0 Z" fill="#26215C"/>
</svg>
