<svg xmlns="http://www.w3.org/2000/svg" viewBox="0 0 1200 200" role="img" aria-label="Die Zeilen eines Blogeintrags schwingen über dem Wasser — in einer Zeile klafft eine Lücke, darin blinkt der goldene Cursor">
<rect width="1200" height="200" fill="#EEEDFE"/>
<path d="M260,44 C380,36 520,54 660,46 C760,40 830,50 900,44" fill="none" stroke="#CECBF6" stroke-width="13" stroke-linecap="round"/>
<path d="M190,74 C340,64 520,84 700,74 C820,67 940,78 1030,72" fill="none" stroke="#CECBF6" stroke-width="13" stroke-linecap="round"/>
<path d="M190,104 C320,94 440,110 548,106" fill="none" stroke="#AFA9EC" stroke-width="13" stroke-linecap="round"/>
<path d="M652,104 C760,98 870,110 960,104" fill="none" stroke="#AFA9EC" stroke-width="13" stroke-linecap="round"/>
<path d="M190,134 C310,126 430,140 530,136" fill="none" stroke="#7F77DD" stroke-width="13" stroke-linecap="round"/>
<rect x="594" y="84" width="13" height="42" rx="5" fill="#f3c46a"/>
<path d="M0,176 C80,170 130,166 190,164 C350,154 530,174 710,164 C830,157 950,168 1030,162 C1110,157 1160,164 1200,160 V200 H0 Z" fill="#7F77DD"/>
<path d="M190,164 C350,154 530,174 710,164 C830,157 950,168 1030,162" fill="none" stroke="#534AB7" stroke-width="5" stroke-linecap="round"/>
<path d="M0,190 C240,180 500,199 760,188 C960,179 1100,194 1200,186 V200 H0 Z" fill="#3C3489"/>
<path d="M0,200 C260,192 540,199 800,195 C990,191 1110,198 1200,194 V200 H0 Z" fill="#26215C"/>
</svg>
