<svg xmlns="http://www.w3.org/2000/svg" viewBox="0 0 1200 200" role="img" aria-label="Eine Kerze mit goldener Flamme, das herabfließende Wachs wird zur vorderen Welle — Schreiben bis spät">
<rect width="1200" height="200" fill="#EEEDFE"/>
<rect x="586" y="86" width="28" height="60" rx="3" fill="#CECBF6"/><line x1="600" y1="86" x2="600" y2="72" stroke="#26215C" stroke-width="3"/><path d="M600,72 C590,60 596,48 600,40 C604,48 610,60 600,72 Z" fill="#f3c46a"/><path d="M586,110 q-6,14 -2,36" fill="none" stroke="#CECBF6" stroke-width="5" stroke-linecap="round"/><path d="M300,60 q9,-7 18,0 M326,52 q9,-7 18,0" fill="none" stroke="#534AB7" stroke-width="3" stroke-linecap="round"/><path d="M0,150 C160,142 340,150 540,150 C560,150 580,148 600,146 C820,140 1020,158 1200,150 V200 H0 Z" fill="#534AB7"/><path d="M0,152 C200,136 440,166 680,152 C900,139 1050,166 1200,154 V200 H0 Z" fill="#3C3489"/>
<path d="M0,180 C240,168 500,192 760,180 C980,168 1100,188 1200,180 V200 H0 Z" fill="#26215C"/>
</svg>
