<svg xmlns="http://www.w3.org/2000/svg" viewBox="0 0 1200 200" role="img" aria-label="Ein goldener Brief schwebt über dem Schlitz des passenden Briefkastens">
<rect width="1200" height="200" fill="#EEEDFE"/>
<path d="M150,148 L280,100 L420,148 Z" fill="#CECBF6"/>
<path d="M210,80 q10,-8 20,0 M244,68 q10,-8 20,0" fill="none" stroke="#534AB7" stroke-width="3" stroke-linecap="round"/>
<g>
<rect x="497" y="112" width="7" height="34" fill="#3C3489"/>
<rect x="472" y="78" width="57" height="38" rx="6" fill="#3C3489"/>
<rect x="480" y="88" width="41" height="6" rx="3" fill="#AFA9EC"/>
</g>
<g>
<rect x="598" y="108" width="8" height="40" fill="#26215C"/>
<rect x="570" y="68" width="64" height="42" rx="7" fill="#26215C"/>
<rect x="579" y="79" width="46" height="7" rx="3.5" fill="#EEEDFE"/>
</g>
<g>
<rect x="699" y="114" width="7" height="32" fill="#3C3489"/>
<rect x="676" y="84" width="53" height="34" rx="6" fill="#3C3489"/>
<rect x="684" y="93" width="37" height="6" rx="3" fill="#AFA9EC"/>
</g>
<g transform="rotate(-12 602 34)">
<rect x="574" y="14" width="56" height="36" rx="4" fill="#f3c46a"/>
<path d="M574,16 L602,36 L630,16" fill="none" stroke="#26215C" stroke-width="3"/>
</g>
<path d="M602,56 L602,76" stroke="#7F77DD" stroke-width="3" stroke-dasharray="1 8" stroke-linecap="round"/>
<path d="M0,146 C180,134 400,156 620,146 C840,136 1030,154 1200,145 V200 H0 Z" fill="#534AB7"/>
<circle cx="900" cy="160" r="3" fill="#AFA9EC"/>
<path d="M0,170 C220,162 450,180 670,170 C890,162 1060,176 1200,169 V200 H0 Z" fill="#3C3489"/>
<path d="M0,190 C240,185 500,197 760,191 C980,187 1120,195 1200,191 V200 H0 Z" fill="#26215C"/>
</svg>
