<svg xmlns="http://www.w3.org/2000/svg" viewBox="0 0 1200 200" role="img" aria-label="Panorama eines Regierungsviertels über der Welle — Kuppelbau, Türme und Bausteine, dahinter die goldene Sonne">
<rect width="1200" height="200" fill="#EEEDFE"/>
<circle cx="600" cy="60" r="30" fill="#f3c46a"/>
<circle cx="600" cy="60" r="42" fill="none" stroke="#f3c46a" stroke-width="2" opacity="0.4"/>
<g fill="#CECBF6">
<rect x="250" y="96" width="40" height="44"/><rect x="300" y="82" width="30" height="58"/><rect x="900" y="90" width="36" height="50"/><rect x="946" y="100" width="30" height="40"/>
</g>
<g fill="#AFA9EC">
<rect x="360" y="100" width="46" height="40"/><rect x="820" y="94" width="44" height="46"/><rect x="866" y="106" width="30" height="34"/>
</g>
<path d="M560,100 A40,44 0 0 1 640,100 Z" fill="#534AB7"/>
<rect x="556" y="100" width="88" height="40" fill="#534AB7"/>
<rect x="597" y="46" width="6" height="20" fill="#3C3489"/><circle cx="600" cy="44" r="4" fill="#3C3489"/>
<g fill="#3C3489"><rect x="520" y="112" width="14" height="28"/><rect x="538" y="112" width="14" height="28"/><rect x="648" y="112" width="14" height="28"/><rect x="666" y="112" width="14" height="28"/></g>
<g fill="#7F77DD"><rect x="470" y="124" width="30" height="16"/><rect x="700" y="124" width="30" height="16"/><rect x="486" y="108" width="26" height="16"/></g>
<path d="M0,148 C190,132 400,162 620,148 C840,134 1020,164 1200,148 V200 H0 Z" fill="#3C3489"/>
<path d="M0,180 C240,166 480,192 720,178 C940,166 1090,188 1200,178 V200 H0 Z" fill="#26215C"/>
<circle cx="250" cy="128" r="3" fill="#EEEDFE" opacity="0.5"/><circle cx="980" cy="126" r="3" fill="#EEEDFE" opacity="0.5"/>
</svg>