<svg xmlns="http://www.w3.org/2000/svg" viewBox="0 0 1200 200" role="img" aria-label="Eine Waage am Horizont wägt die Argumente — Pro und Contra"><rect width="1200" height="200" fill="#EEEDFE"/><circle cx="320" cy="48" r="24" fill="#f3c46a"/><circle cx="320" cy="48" r="37" fill="none" stroke="#f3c46a" stroke-width="2" opacity="0.42"/><line x1="600" y1="150" x2="600" y2="66" stroke="#26215C" stroke-width="6" stroke-linecap="round"/><path d="M584,66 L616,66 L600,50 Z" fill="#26215C"/><line x1="500" y1="80" x2="700" y2="72" stroke="#26215C" stroke-width="5" stroke-linecap="round"/><line x1="500" y1="80" x2="484" y2="116" stroke="#3C3489" stroke-width="2"/><line x1="500" y1="80" x2="516" y2="116" stroke="#3C3489" stroke-width="2"/><path d="M478,116 A24,10 0 0 0 522,116 Z" fill="#534AB7"/><line x1="700" y1="72" x2="684" y2="104" stroke="#3C3489" stroke-width="2"/><line x1="700" y1="72" x2="716" y2="104" stroke="#3C3489" stroke-width="2"/><path d="M678,104 A24,10 0 0 0 722,104 Z" fill="#f3c46a"/><path d="M0,128 C150,106 320,142 500,124 C680,106 860,144 1040,124 C1110,116 1170,126 1200,120 V200 H0 Z" fill="#534AB7"/><path d="M0,150 C190,132 400,164 620,150 C840,136 1020,166 1200,150 V200 H0 Z" fill="#3C3489"/><path d="M0,180 C240,166 480,192 720,178 C940,166 1090,188 1200,178 V200 H0 Z" fill="#26215C"/></svg>