<svg xmlns="http://www.w3.org/2000/svg" viewBox="0 0 1200 200" role="img" aria-label="Zwei Städte am selben Ufer — über der hellen geht die goldene Sonne auf, die dunkle liegt zerbrochen">
<rect width="1200" height="200" fill="#EEEDFE"/>
<circle cx="330" cy="44" r="24" fill="#f3c46a"/>
<circle cx="330" cy="44" r="34" fill="none" stroke="#f3c46a" stroke-width="2" opacity="0.4"/>
<path d="M0,118 C200,102 440,124 640,112 C860,100 1040,122 1200,110 V200 H0 Z" fill="#AFA9EC"/>
<g fill="#7F77DD">
<rect x="238" y="74" width="30" height="46"/>
<path d="M236,74 L253,58 L270,74 Z"/>
<rect x="278" y="86" width="26" height="34"/>
<path d="M276,86 L291,72 L306,86 Z"/>
<rect x="314" y="66" width="34" height="54"/>
<path d="M312,66 L331,48 L350,66 Z"/>
<rect x="358" y="82" width="26" height="38"/>
<path d="M356,82 L371,68 L386,82 Z"/>
<rect x="394" y="92" width="24" height="28"/>
<path d="M392,92 L406,80 L420,92 Z"/>
</g>
<g fill="#EEEDFE">
<rect x="322" y="78" width="7" height="10"/>
<rect x="337" y="78" width="7" height="10"/>
<rect x="248" y="84" width="7" height="10"/>
</g>
<g fill="#26215C">
<path d="M766,112 L766,58 L780,50 L780,70 L794,64 L794,112 Z"/>
<path d="M808,112 L808,46 L836,46 L836,60 L822,66 L822,80 L836,74 L836,112 Z"/>
<path d="M850,112 L856,72 L884,58 L890,78 L884,112 Z"/>
<path d="M902,112 L902,54 L916,60 L916,44 L930,50 L930,112 Z"/>
<path d="M944,112 L948,84 L972,72 L978,92 L974,112 Z"/>
<path d="M838,84 L872,104 L868,112 L836,94 Z"/>
</g>
<path d="M470,66 q10,-8 20,0 M502,54 q10,-8 20,0" fill="none" stroke="#534AB7" stroke-width="3" stroke-linecap="round"/>
<path d="M0,148 C220,134 470,160 700,148 C920,136 1080,158 1200,148 V200 H0 Z" fill="#534AB7"/>
<path d="M0,168 C240,156 500,180 760,168 C980,156 1110,176 1200,166 V200 H0 Z" fill="#3C3489"/>
<path d="M0,188 C240,180 500,198 760,188 C980,180 1110,194 1200,187 V200 H0 Z" fill="#26215C"/>
</svg>
