<svg xmlns="http://www.w3.org/2000/svg" viewBox="0 0 1200 200" role="img" aria-label="Über der Wasserlinie steht die nüchterne Bürostadt — ihre Spiegelung im Wasser zeigt eine ganz andere Skyline; genau dazwischen geht die goldene Sonne auf">
<rect width="1200" height="200" fill="#EEEDFE"/>
<path d="M150,36 q10,-8 20,0 M180,24 q10,-8 20,0" fill="none" stroke="#AFA9EC" stroke-width="3" stroke-linecap="round"/>
<rect x="238" y="46" width="72" height="50" fill="#AFA9EC"/><rect x="248" y="57" width="7" height="8" fill="#EEEDFE" opacity="0.42"/><rect x="265" y="57" width="7" height="8" fill="#EEEDFE" opacity="0.42"/><rect x="282" y="57" width="7" height="8" fill="#EEEDFE" opacity="0.42"/><rect x="299" y="57" width="7" height="8" fill="#EEEDFE" opacity="0.42"/><rect x="248" y="74" width="7" height="8" fill="#EEEDFE" opacity="0.42"/><rect x="265" y="74" width="7" height="8" fill="#EEEDFE" opacity="0.42"/><rect x="282" y="74" width="7" height="8" fill="#EEEDFE" opacity="0.42"/><rect x="299" y="74" width="7" height="8" fill="#EEEDFE" opacity="0.42"/><rect x="320" y="22" width="56" height="74" fill="#7F77DD"/><rect x="330" y="33" width="7" height="8" fill="#EEEDFE" opacity="0.42"/><rect x="347" y="33" width="7" height="8" fill="#EEEDFE" opacity="0.42"/><rect x="364" y="33" width="7" height="8" fill="#EEEDFE" opacity="0.42"/><rect x="330" y="50" width="7" height="8" fill="#EEEDFE" opacity="0.42"/><rect x="347" y="50" width="7" height="8" fill="#EEEDFE" opacity="0.42"/><rect x="364" y="50" width="7" height="8" fill="#EEEDFE" opacity="0.42"/><rect x="330" y="67" width="7" height="8" fill="#EEEDFE" opacity="0.42"/><rect x="347" y="67" width="7" height="8" fill="#EEEDFE" opacity="0.42"/><rect x="364" y="67" width="7" height="8" fill="#EEEDFE" opacity="0.42"/><rect x="330" y="84" width="7" height="8" fill="#EEEDFE" opacity="0.42"/><rect x="347" y="84" width="7" height="8" fill="#EEEDFE" opacity="0.42"/><rect x="364" y="84" width="7" height="8" fill="#EEEDFE" opacity="0.42"/><rect x="384" y="54" width="82" height="42" fill="#534AB7"/><rect x="394" y="65" width="7" height="8" fill="#EEEDFE" opacity="0.42"/><rect x="411" y="65" width="7" height="8" fill="#EEEDFE" opacity="0.42"/><rect x="428" y="65" width="7" height="8" fill="#EEEDFE" opacity="0.42"/><rect x="445" y="65" width="7" height="8" fill="#EEEDFE" opacity="0.42"/><rect x="394" y="82" width="7" height="8" fill="#EEEDFE" opacity="0.42"/><rect x="411" y="82" width="7" height="8" fill="#EEEDFE" opacity="0.42"/><rect x="428" y="82" width="7" height="8" fill="#EEEDFE" opacity="0.42"/><rect x="445" y="82" width="7" height="8" fill="#EEEDFE" opacity="0.42"/><rect x="476" y="16" width="54" height="80" fill="#3C3489"/><rect x="486" y="27" width="7" height="8" fill="#EEEDFE" opacity="0.42"/><rect x="503" y="27" width="7" height="8" fill="#EEEDFE" opacity="0.42"/><rect x="520" y="27" width="7" height="8" fill="#EEEDFE" opacity="0.42"/><rect x="486" y="44" width="7" height="8" fill="#EEEDFE" opacity="0.42"/><rect x="503" y="44" width="7" height="8" fill="#EEEDFE" opacity="0.42"/><rect x="520" y="44" width="7" height="8" fill="#EEEDFE" opacity="0.42"/><rect x="486" y="61" width="7" height="8" fill="#EEEDFE" opacity="0.42"/><rect x="503" y="61" width="7" height="8" fill="#EEEDFE" opacity="0.42"/><rect x="520" y="61" width="7" height="8" fill="#EEEDFE" opacity="0.42"/><rect x="486" y="78" width="7" height="8" fill="#EEEDFE" opacity="0.42"/><rect x="503" y="78" width="7" height="8" fill="#EEEDFE" opacity="0.42"/><rect x="520" y="78" width="7" height="8" fill="#EEEDFE" opacity="0.42"/><rect x="540" y="42" width="90" height="54" fill="#7F77DD"/><rect x="550" y="53" width="7" height="8" fill="#EEEDFE" opacity="0.42"/><rect x="567" y="53" width="7" height="8" fill="#EEEDFE" opacity="0.42"/><rect x="584" y="53" width="7" height="8" fill="#EEEDFE" opacity="0.42"/><rect x="601" y="53" width="7" height="8" fill="#EEEDFE" opacity="0.42"/><rect x="618" y="53" width="7" height="8" fill="#EEEDFE" opacity="0.42"/><rect x="550" y="70" width="7" height="8" fill="#EEEDFE" opacity="0.42"/><rect x="567" y="70" width="7" height="8" fill="#EEEDFE" opacity="0.42"/><rect x="584" y="70" width="7" height="8" fill="#EEEDFE" opacity="0.42"/><rect x="601" y="70" width="7" height="8" fill="#EEEDFE" opacity="0.42"/><rect x="618" y="70" width="7" height="8" fill="#EEEDFE" opacity="0.42"/><rect x="550" y="87" width="7" height="8" fill="#EEEDFE" opacity="0.42"/><rect x="567" y="87" width="7" height="8" fill="#EEEDFE" opacity="0.42"/><rect x="584" y="87" width="7" height="8" fill="#EEEDFE" opacity="0.42"/><rect x="601" y="87" width="7" height="8" fill="#EEEDFE" opacity="0.42"/><rect x="618" y="87" width="7" height="8" fill="#EEEDFE" opacity="0.42"/><rect x="640" y="26" width="60" height="70" fill="#534AB7"/><rect x="650" y="37" width="7" height="8" fill="#EEEDFE" opacity="0.42"/><rect x="667" y="37" width="7" height="8" fill="#EEEDFE" opacity="0.42"/><rect x="684" y="37" width="7" height="8" fill="#EEEDFE" opacity="0.42"/><rect x="650" y="54" width="7" height="8" fill="#EEEDFE" opacity="0.42"/><rect x="667" y="54" width="7" height="8" fill="#EEEDFE" opacity="0.42"/><rect x="684" y="54" width="7" height="8" fill="#EEEDFE" opacity="0.42"/><rect x="650" y="71" width="7" height="8" fill="#EEEDFE" opacity="0.42"/><rect x="667" y="71" width="7" height="8" fill="#EEEDFE" opacity="0.42"/><rect x="684" y="71" width="7" height="8" fill="#EEEDFE" opacity="0.42"/><rect x="710" y="58" width="78" height="38" fill="#AFA9EC"/><rect x="720" y="69" width="7" height="8" fill="#EEEDFE" opacity="0.42"/><rect x="737" y="69" width="7" height="8" fill="#EEEDFE" opacity="0.42"/><rect x="754" y="69" width="7" height="8" fill="#EEEDFE" opacity="0.42"/><rect x="771" y="69" width="7" height="8" fill="#EEEDFE" opacity="0.42"/><rect x="720" y="86" width="7" height="8" fill="#EEEDFE" opacity="0.42"/><rect x="737" y="86" width="7" height="8" fill="#EEEDFE" opacity="0.42"/><rect x="754" y="86" width="7" height="8" fill="#EEEDFE" opacity="0.42"/><rect x="771" y="86" width="7" height="8" fill="#EEEDFE" opacity="0.42"/><rect x="798" y="34" width="66" height="62" fill="#3C3489"/><rect x="808" y="45" width="7" height="8" fill="#EEEDFE" opacity="0.42"/><rect x="825" y="45" width="7" height="8" fill="#EEEDFE" opacity="0.42"/><rect x="842" y="45" width="7" height="8" fill="#EEEDFE" opacity="0.42"/><rect x="808" y="62" width="7" height="8" fill="#EEEDFE" opacity="0.42"/><rect x="825" y="62" width="7" height="8" fill="#EEEDFE" opacity="0.42"/><rect x="842" y="62" width="7" height="8" fill="#EEEDFE" opacity="0.42"/><rect x="808" y="79" width="7" height="8" fill="#EEEDFE" opacity="0.42"/><rect x="825" y="79" width="7" height="8" fill="#EEEDFE" opacity="0.42"/><rect x="842" y="79" width="7" height="8" fill="#EEEDFE" opacity="0.42"/><rect x="874" y="52" width="56" height="44" fill="#534AB7"/><rect x="884" y="63" width="7" height="8" fill="#EEEDFE" opacity="0.42"/><rect x="901" y="63" width="7" height="8" fill="#EEEDFE" opacity="0.42"/><rect x="918" y="63" width="7" height="8" fill="#EEEDFE" opacity="0.42"/><rect x="884" y="80" width="7" height="8" fill="#EEEDFE" opacity="0.42"/><rect x="901" y="80" width="7" height="8" fill="#EEEDFE" opacity="0.42"/><rect x="918" y="80" width="7" height="8" fill="#EEEDFE" opacity="0.42"/>
<rect y="96" width="1200" height="104" fill="#CECBF6"/>
<line x1="0" y1="96" x2="1200" y2="96" stroke="#EEEDFE" stroke-width="3"/>
<g opacity="0.85"><rect x="240" y="98" width="70" height="30" fill="#7F77DD"/><path d="M242,128 A36,40 0 0 0 308,128 Z" fill="#7F77DD"/><rect x="271" y="166" width="9" height="16" fill="#7F77DD"/><rect x="330" y="98" width="18" height="58" fill="#534AB7"/><path d="M327,156 A12,14 0 0 0 351,156 Z" fill="#534AB7"/><rect x="337" y="168" width="5" height="12" fill="#534AB7"/><path d="M376,98 L458,98 L417,128 Z" fill="#3C3489"/><path d="M366,126 L468,126 L417,158 Z" fill="#3C3489"/><path d="M358,156 L476,156 L417,190 Z" fill="#3C3489"/><rect x="496" y="98" width="96" height="26" fill="#534AB7"/><path d="M498,124 A48,50 0 0 0 590,124 Z" fill="#534AB7"/><rect x="540" y="176" width="10" height="16" fill="#534AB7"/><rect x="618" y="98" width="16" height="50" fill="#7F77DD"/><path d="M615,148 A11,13 0 0 0 637,148 Z" fill="#7F77DD"/><path d="M666,98 L666,140 A40,44 0 0 0 746,140 L746,98 Z" fill="#534AB7"/><rect x="790" y="98" width="76" height="24" fill="#3C3489"/><path d="M792,122 A38,42 0 0 0 864,122 Z" fill="#3C3489"/><rect x="824" y="172" width="9" height="14" fill="#3C3489"/><rect x="890" y="98" width="18" height="46" fill="#7F77DD"/><path d="M887,144 A12,13 0 0 0 911,144 Z" fill="#7F77DD"/></g>
<circle cx="1020" cy="96" r="30" fill="#f3c46a"/>
<circle cx="1020" cy="96" r="42" fill="none" stroke="#f3c46a" stroke-width="2" opacity="0.4"/>
<g stroke="#EEEDFE" stroke-width="4" stroke-linecap="round" opacity="0.85"><line x1="50" y1="114" x2="200" y2="114"/><line x1="60" y1="146" x2="170" y2="146"/><line x1="960" y1="140" x2="1140" y2="140"/><line x1="1000" y1="116" x2="1150" y2="116"/></g>
<path d="M0,184 C230,178 470,196 710,187 C930,179 1090,192 1200,185 V200 H0 Z" fill="#3C3489"/>
<path d="M0,196 C300,192 600,200 900,196 C1050,194 1140,198 1200,196 V200 H0 Z" fill="#26215C"/>
</svg>
