<svg xmlns="http://www.w3.org/2000/svg" viewBox="0 0 1200 200" role="img" aria-label="Die Wellenkämme sind zugleich die Leiterbahnen einer Platine — im Chip bleibt genau ein goldener Sockel offen, die Lücke zum Füllen">
<rect width="1200" height="200" fill="#EEEDFE"/>
<path d="M0,140 C150,120 300,140 450,128 C560,120 640,128 740,124 C860,119 1000,134 1200,124 V200 H0 Z" fill="#7F77DD"/>
<g stroke="#26215C" stroke-width="2.5" fill="#26215C"><path d="M240,132 h40 v-14 h30" fill="none"/><circle cx="240" cy="132" r="3"/><circle cx="310" cy="118" r="3"/><path d="M470,126 h34 v12 h28" fill="none"/><circle cx="470" cy="126" r="3"/><circle cx="532" cy="138" r="3"/><path d="M840,122 h40 v-12 h26" fill="none"/><circle cx="840" cy="122" r="3"/><circle cx="906" cy="110" r="3"/></g>
<rect x="596" y="96" width="60" height="44" rx="4" fill="#3C3489"/>
<g stroke="#26215C" stroke-width="3" stroke-linecap="round"><line x1="596" y1="106" x2="582" y2="106"/><line x1="596" y1="122" x2="582" y2="122"/><line x1="656" y1="106" x2="670" y2="106"/><line x1="656" y1="122" x2="670" y2="122"/></g>
<rect x="610" y="108" width="32" height="20" rx="3" fill="#f3c46a"/>
<path d="M0,158 C190,140 400,170 620,156 C840,142 1020,172 1200,156 V200 H0 Z" fill="#3C3489"/>
<path d="M0,184 C240,170 480,196 720,182 C940,170 1090,192 1200,182 V200 H0 Z" fill="#26215C"/>
</svg>
