<svg xmlns="http://www.w3.org/2000/svg" viewBox="0 0 1200 200" role="img" aria-label="Panorama der Subkulturen: Gitarre, Schallplatte und Sprühdose ragen wie Berge aus der Wellenlandschaft, darüber die goldene Sonne">
<rect width="1200" height="200" fill="#EEEDFE"/>
<circle cx="960" cy="56" r="30" fill="#f3c46a"/>
<circle cx="960" cy="56" r="42" fill="none" stroke="#f3c46a" stroke-width="2" opacity="0.45"/>
<path d="M0,140 C120,112 240,104 380,124 C520,144 660,110 800,124 C940,138 1080,116 1200,104 V200 H0 Z" fill="#CECBF6"/>
<g transform="translate(340,0) rotate(-7 0 130)">
<rect x="-13" y="22" width="26" height="24" rx="4" fill="#26215C"/>
<g fill="#EEEDFE" opacity="0.6"><circle cx="-7" cy="29" r="2.6"/><circle cx="-7" cy="38" r="2.6"/><circle cx="7" cy="29" r="2.6"/><circle cx="7" cy="38" r="2.6"/></g>
<rect x="-8" y="44" width="16" height="66" fill="#26215C"/>
<circle cx="0" cy="112" r="27" fill="#26215C"/>
<circle cx="0" cy="150" r="37" fill="#26215C"/>
<rect x="-23" y="112" width="46" height="40" fill="#26215C"/>
<circle cx="0" cy="128" r="11" fill="#7F77DD"/>
<rect x="-14" y="160" width="28" height="7" rx="2" fill="#7F77DD"/>
<g stroke="#AFA9EC" stroke-width="1.2" opacity="0.75"><line x1="-4" y1="46" x2="-4" y2="160"/><line x1="0" y1="46" x2="0" y2="160"/><line x1="4" y1="46" x2="4" y2="160"/></g>
</g>
<g transform="translate(620,0)">
<rect x="-6" y="118" width="12" height="52" fill="#3C3489"/>
<rect x="-34" y="166" width="68" height="10" rx="4" fill="#3C3489"/>
<circle cx="0" cy="86" r="56" fill="#26215C"/>
<g fill="none" stroke="#534AB7" stroke-width="2" opacity="0.85"><circle cx="0" cy="86" r="48"/><circle cx="0" cy="86" r="40"/><circle cx="0" cy="86" r="32"/></g>
<circle cx="0" cy="86" r="18" fill="#7F77DD"/>
<circle cx="0" cy="86" r="4" fill="#EEEDFE"/>
</g>
<g transform="translate(840,0)">
<rect x="-26" y="76" width="52" height="98" rx="8" fill="#534AB7"/>
<rect x="-16" y="56" width="32" height="22" rx="3" fill="#3C3489"/>
<rect x="-8" y="46" width="18" height="12" rx="3" fill="#26215C"/>
<rect x="-26" y="104" width="52" height="20" fill="#3C3489"/>
<g fill="none" stroke="#AFA9EC" stroke-width="3" stroke-linecap="round"><path d="M14,44 l16,-8 M18,52 l20,-2 M14,36 l12,-14"/></g>
</g>
<path d="M150,72 q10,-8 20,0 M182,60 q10,-8 20,0" fill="none" stroke="#534AB7" stroke-width="3" stroke-linecap="round"/>
<path d="M0,160 C190,146 400,174 620,160 C840,146 1020,174 1200,158 V200 H0 Z" fill="#3C3489"/>
<path d="M0,185 C240,174 480,196 720,184 C940,173 1090,192 1200,182 V200 H0 Z" fill="#26215C"/>
</svg>
