<svg xmlns="http://www.w3.org/2000/svg" viewBox="0 0 1200 200" role="img" aria-label="Die Lupe wandert über die Zeilen — unter der Linse leuchtet der goldene Fund">
<rect width="1200" height="200" fill="#EEEDFE"/>
<path d="M280,50 q10,-8 20,0 M314,38 q10,-8 20,0" fill="none" stroke="#534AB7" stroke-width="3" stroke-linecap="round"/>
<g stroke="#534AB7" stroke-width="5" stroke-linecap="round" fill="none">
<path d="M240,84 h180 M470,84 h110"/>
<path d="M240,110 h130 M420,110 h160"/>
<path d="M240,136 h210 M500,136 h80"/>
</g>
<g>
<circle cx="700" cy="104" r="46" fill="#EEEDFE" stroke="#26215C" stroke-width="10"/>
<rect x="738" y="128" width="86" height="16" rx="8" transform="rotate(38 738 128)" fill="#26215C"/>
<path d="M672,86 a34,34 0 0 1 30,-12" fill="none" stroke="#CECBF6" stroke-width="6" stroke-linecap="round"/>
</g>
<circle cx="702" cy="106" r="12" fill="#f3c46a"/>
<path d="M0,154 C230,144 490,164 750,155 C970,147 1110,159 1200,153 V200 H0 Z" fill="#534AB7"/>
<path d="M0,174 C250,166 520,186 780,177 C1000,170 1120,182 1200,177 V200 H0 Z" fill="#3C3489"/>
<path d="M0,192 C280,187 560,198 820,194 C1020,191 1130,196 1200,194 V200 H0 Z" fill="#26215C"/>
</svg>
