<svg xmlns="http://www.w3.org/2000/svg" viewBox="0 0 1200 200" role="img" aria-label="Drei Hüte aus drei Epochen auf Ständern — das Band des jüngsten leuchtet golden">
<rect width="1200" height="200" fill="#EEEDFE"/>
<g stroke="#26215C" stroke-width="8" stroke-linecap="round" fill="none">
<path d="M400,70 L400,148 M376,148 L424,148"/>
<path d="M600,74 L600,148 M576,148 L624,148"/>
<path d="M800,80 L800,148 M776,148 L824,148"/>
</g>
<g fill="#26215C">
<rect x="364" y="60" width="72" height="8" rx="4"/>
<rect x="380" y="14" width="40" height="48" rx="2"/>
<rect x="380" y="46" width="40" height="8" fill="#534AB7"/>
</g>
<g fill="#3C3489">
<rect x="562" y="66" width="76" height="8" rx="4"/>
<path d="M574,68 C574,40 626,40 626,68 Z"/>
</g>
<g>
<path d="M772,80 C772,56 828,56 828,80 Z" fill="#534AB7"/>
<path d="M798,80 L852,80 C846,70 826,66 812,68 Z" fill="#3C3489"/>
<path d="M772,80 C772,74 828,74 828,80 Z" fill="#f3c46a"/>
</g>
<path d="M960,44 q11,-9 22,0 M996,56 q9,-8 18,0" fill="none" stroke="#534AB7" stroke-width="3" stroke-linecap="round"/>
<path d="M0,156 C210,146 440,166 660,156 C880,145 1050,164 1200,156 V200 H0 Z" fill="#7F77DD"/>
<path d="M0,173 C240,165 500,186 740,174 C950,165 1100,182 1200,173 V200 H0 Z" fill="#3C3489"/>
<path d="M0,189 C260,183 540,199 800,188 C1010,183 1140,194 1200,189 V200 H0 Z" fill="#26215C"/>
</svg>
