<svg xmlns="http://www.w3.org/2000/svg" viewBox="0 0 1200 200" role="img" aria-label="Kleine Inseln über der Welle sind durch Bogenbrücken verbunden — Haupt- und Nebensätze, die zusammenfinden; darüber die goldene Sonne"><rect width="1200" height="200" fill="#EEEDFE"/><circle cx="1040" cy="46" r="24" fill="#f3c46a"/><circle cx="1040" cy="46" r="34" fill="none" stroke="#f3c46a" stroke-width="2" opacity="0.4"/><path d="M0,110 C160,90 340,120 520,104 C700,88 900,120 1080,104 C1140,99 1180,106 1200,102 V200 H0 Z" fill="#CECBF6"/><g fill="#534AB7"><path d="M210,132 q60,-34 120,0 Z"/><path d="M470,132 q70,-40 140,0 Z"/><path d="M760,132 q60,-34 120,0 Z"/></g><path d="M330,120 Q400,92 470,116" fill="none" stroke="#7F77DD" stroke-width="6" stroke-linecap="round"/><path d="M610,116 Q685,92 760,120" fill="none" stroke="#7F77DD" stroke-width="6" stroke-linecap="round"/><line x1="330" y1="120" x2="330" y2="130" stroke="#7F77DD" stroke-width="4"/><line x1="470" y1="116" x2="470" y2="128" stroke="#7F77DD" stroke-width="4"/><line x1="610" y1="116" x2="610" y2="128" stroke="#7F77DD" stroke-width="4"/><line x1="760" y1="120" x2="760" y2="130" stroke="#7F77DD" stroke-width="4"/><path d="M0,150 C190,132 400,164 620,150 C840,136 1020,166 1200,150 V200 H0 Z" fill="#3C3489"/><path d="M0,180 C240,166 480,192 720,178 C940,166 1090,188 1200,178 V200 H0 Z" fill="#26215C"/></svg>