<svg xmlns="http://www.w3.org/2000/svg" viewBox="0 0 1200 200" role="img" aria-label="Eine kleine Ladenzeile am Wasser — ein Schaufenster leuchtet golden, die eigene Gründung">
<rect width="1200" height="200" fill="#EEEDFE"/>
<path d="M150,44 a18,18 0 1 0 0,34 a22,22 0 0 1 0,-34 Z" fill="#CECBF6"/><g fill="#3C3489"><path d="M360,150 L360,112 L410,112 L410,150 Z"/><path d="M420,150 L420,100 L474,100 L474,150 Z"/><path d="M700,150 L700,108 L752,108 L752,150 Z"/><path d="M760,150 L760,118 L806,118 L806,150 Z"/></g><g fill="#534AB7"><path d="M484,150 L484,96 L560,96 L560,150 Z"/><path d="M620,150 L620,104 L688,104 L688,150 Z"/></g><path d="M484,96 L560,96 L560,108 L484,108 Z" fill="#26215C"/><rect x="504" y="118" width="30" height="22" rx="2" fill="#f3c46a"/><path d="M300,60 q9,-7 18,0 M326,52 q9,-7 18,0" fill="none" stroke="#534AB7" stroke-width="3" stroke-linecap="round"/><path d="M0,148 C200,134 430,158 700,150 C920,143 1040,160 1200,150 V200 H0 Z" fill="#534AB7"/><path d="M0,152 C200,136 440,166 680,152 C900,139 1050,166 1200,154 V200 H0 Z" fill="#3C3489"/>
<path d="M0,180 C240,168 500,192 760,180 C980,168 1100,188 1200,180 V200 H0 Z" fill="#26215C"/>
</svg>
