<svg xmlns="http://www.w3.org/2000/svg" viewBox="0 0 1200 200" role="img" aria-label="Ein Kran stapelt Bausteine, der oberste ist golden — Satzbau">
<rect width="1200" height="200" fill="#EEEDFE"/>
<g stroke="#26215C" stroke-linecap="round">
<line x1="360" y1="150" x2="360" y2="34" stroke-width="8"/>
<line x1="360" y1="34" x2="720" y2="34" stroke-width="7"/>
<line x1="360" y1="34" x2="430" y2="70" stroke-width="4"/>
<line x1="360" y1="66" x2="470" y2="34" stroke-width="4"/>
<line x1="360" y1="66" x2="300" y2="34" stroke-width="4"/></g>
<line x1="620" y1="34" x2="620" y2="72" stroke="#26215C" stroke-width="3"/>
<rect x="592" y="72" width="58" height="30" rx="4" fill="#f3c46a"/>
<g>
<rect x="470" y="120" width="72" height="30" rx="4" fill="#534AB7"/>
<rect x="546" y="120" width="72" height="30" rx="4" fill="#3C3489"/>
<rect x="508" y="88" width="72" height="30" rx="4" fill="#7F77DD"/></g>
<path d="M0,150 C190,134 400,164 620,150 C840,136 1020,164 1200,150 V200 H0 Z" fill="#3C3489"/>
<path d="M0,180 C240,166 480,192 720,178 C940,166 1090,188 1200,178 V200 H0 Z" fill="#26215C"/>
</svg>
