<svg xmlns="http://www.w3.org/2000/svg" viewBox="0 0 1200 200" role="img" aria-label="Sternbild-Linien verbinden die Punkte zu einer Deutung — die vorderste Welle ist selbst dieses Sternbild; ein goldener Stern schließt die offene Linie">
<rect width="1200" height="200" fill="#EEEDFE"/>
<circle cx="230" cy="50" r="2" fill="#EEEDFE" opacity="0.4"/><circle cx="1000" cy="54" r="2" fill="#EEEDFE" opacity="0.4"/><circle cx="360" cy="40" r="1.6" fill="#EEEDFE" opacity="0.4"/>
<path d="M0,150 C160,138 300,120 430,126 C560,132 640,110 760,128 C880,146 1000,120 1200,138 V200 H0 Z" fill="#534AB7"/>
<circle cx="160" cy="132" r="4" fill="#EEEDFE"/><circle cx="300" cy="116" r="4" fill="#EEEDFE"/><circle cx="430" cy="122" r="4" fill="#EEEDFE"/><circle cx="560" cy="128" r="4" fill="#EEEDFE"/><circle cx="680" cy="116" r="4" fill="#EEEDFE"/><circle cx="760" cy="124" r="4" fill="#EEEDFE"/>
<line x1="160" y1="132" x2="300" y2="116" stroke="#AFA9EC" stroke-width="2" opacity="0.8"/><line x1="300" y1="116" x2="430" y2="122" stroke="#AFA9EC" stroke-width="2" opacity="0.8"/><line x1="430" y1="122" x2="560" y2="128" stroke="#AFA9EC" stroke-width="2" opacity="0.8"/><line x1="560" y1="128" x2="680" y2="116" stroke="#AFA9EC" stroke-width="2" opacity="0.8"/>
<path d="M760,110 l3,9 9,0 -7,6 3,9 -8,-6 -8,6 3,-9 -7,-6 9,0 z" fill="#f3c46a"/>
<path d="M0,150 C190,132 380,164 600,150 C820,136 1010,166 1200,150 V200 H0 Z" fill="#3C3489"/><path d="M0,180 C220,166 460,192 700,178 C920,166 1080,188 1200,178 V200 H0 Z" fill="#26215C"/>
</svg>