<svg xmlns="http://www.w3.org/2000/svg" viewBox="0 0 1200 200" role="img" aria-label="Eine große Sprechblase über der Welle erzählt von Raketen und Planeten — der goldene Mond leuchtet darin">
<rect width="1200" height="200" fill="#EEEDFE"/>
<path d="M0,124 C220,110 460,132 700,120 C920,110 1080,128 1200,118 V200 H0 Z" fill="#AFA9EC"/>
<path d="M470,28 h260 a22,22 0 0 1 22,22 v58 a22,22 0 0 1 -22,22 h-176 l-34,28 6,-28 h-56 a22,22 0 0 1 -22,-22 v-58 a22,22 0 0 1 22,-22 Z" fill="#CECBF6"/>
<g transform="translate(530,80) rotate(40)">
<path d="M0,-30 C7,-19 9,-4 6,10 L-6,10 C-9,-4 -7,-19 0,-30 Z" fill="#26215C"/>
<circle cx="0" cy="-8" r="3.6" fill="#CECBF6"/>
<path d="M-6,4 L-14,15 L-6,10 Z" fill="#26215C"/>
<path d="M6,4 L14,15 L6,10 Z" fill="#26215C"/>
</g>
<g transform="translate(648,78)">
<circle cx="0" cy="0" r="17" fill="#3C3489"/>
<ellipse cx="0" cy="2" rx="30" ry="7" fill="none" stroke="#534AB7" stroke-width="4"/>
</g>
<path d="M714,52 a13,13 0 1 0 10,21 a10,10 0 1 1 -10,-21 Z" fill="#f3c46a"/>
<circle cx="586" cy="46" r="2.5" fill="#3C3489"/>
<circle cx="612" cy="102" r="2.5" fill="#3C3489"/>
<path d="M250,66 q10,-8 20,0 M282,54 q10,-8 20,0" fill="none" stroke="#534AB7" stroke-width="3" stroke-linecap="round"/>
<path d="M0,152 C220,138 470,164 700,152 C920,140 1080,162 1200,152 V200 H0 Z" fill="#534AB7"/>
<path d="M0,171 C240,159 500,183 760,171 C980,159 1110,179 1200,169 V200 H0 Z" fill="#3C3489"/>
<path d="M0,189 C240,181 500,199 760,189 C980,181 1110,195 1200,188 V200 H0 Z" fill="#26215C"/>
</svg>
