<svg xmlns="http://www.w3.org/2000/svg" viewBox="0 0 1200 200" role="img" aria-label="Eine DNA-Doppelhelix steigt aus der Welle — Fachsprache und Struktur"><rect width="1200" height="200" fill="#EEEDFE"/><circle cx="320" cy="48" r="24" fill="#f3c46a"/><circle cx="320" cy="48" r="37" fill="none" stroke="#f3c46a" stroke-width="2" opacity="0.42"/><g stroke-linecap="round" fill="none"><path d="M572,150 C620,132 620,110 572,92 C524,74 524,52 572,40" stroke="#534AB7" stroke-width="6"/><path d="M628,150 C580,132 580,110 628,92 C676,74 676,52 628,40" stroke="#3C3489" stroke-width="6"/><line x1="576" y1="132" x2="624" y2="132" stroke="#7F77DD" stroke-width="3"/><line x1="562" y1="110" x2="638" y2="110" stroke="#7F77DD" stroke-width="3"/><line x1="576" y1="88" x2="624" y2="88" stroke="#7F77DD" stroke-width="3"/><line x1="588" y1="64" x2="612" y2="64" stroke="#7F77DD" stroke-width="3"/></g><circle cx="600" cy="110" r="6" fill="#f3c46a"/><path d="M0,128 C150,106 320,142 500,124 C680,106 860,144 1040,124 C1110,116 1170,126 1200,120 V200 H0 Z" fill="#534AB7"/><path d="M0,150 C190,132 400,164 620,150 C840,136 1020,166 1200,150 V200 H0 Z" fill="#3C3489"/><path d="M0,180 C240,166 480,192 720,178 C940,166 1090,188 1200,178 V200 H0 Z" fill="#26215C"/></svg>