<svg xmlns="http://www.w3.org/2000/svg" viewBox="0 0 1200 200" role="img" aria-label="Dieselbe Landschaft wandert von der Morgensonne links in die Nacht rechts — die Zeit vergeht im Bild">
<rect width="1200" height="200" fill="#EEEDFE"/>
<circle cx="240" cy="44" r="26" fill="#f3c46a"/>
<circle cx="240" cy="44" r="37" fill="none" stroke="#f3c46a" stroke-width="2" opacity="0.4"/>
<path d="M1010,22 a26,26 0 1 0 0,44 a30,30 0 0 1 0,-44 Z" fill="#CECBF6"/>
<path d="M120,128 L260,72 L400,128 Z" fill="#CECBF6"/>
<path d="M460,128 L600,64 L740,128 Z" fill="#AFA9EC"/>
<path d="M800,128 L940,58 L1080,128 Z" fill="#7F77DD"/>
<path d="M420,96 q10,-8 20,0 M452,84 q10,-8 20,0" fill="none" stroke="#534AB7" stroke-width="3" stroke-linecap="round"/>
<path d="M0,136 C180,120 380,146 600,134 C820,122 1020,146 1200,133 V200 H0 Z" fill="#534AB7"/>
<path d="M0,162 C210,150 440,174 660,162 C880,150 1050,172 1200,161 V200 H0 Z" fill="#3C3489"/>
<path d="M0,187 C240,179 500,197 760,189 C980,183 1110,193 1200,188 V200 H0 Z" fill="#26215C"/>
</svg>
