<svg xmlns="http://www.w3.org/2000/svg" viewBox="0 0 1200 200" role="img" aria-label="Aus der Spitze einer Schreibfeder strömt eine Linie über das Wasser und füllt das goldene Segel eines kleinen Bootes — Worte, die bewegen">
<rect width="1200" height="200" fill="#EEEDFE"/>
<path d="M980,116 L1080,60 L1180,116 Z" fill="#CECBF6"/>
<path d="M0,124 C160,110 320,136 500,126 C700,115 900,134 1200,120 V200 H0 Z" fill="#AFA9EC"/>
<g transform="translate(300,120) rotate(28)">
<path d="M0,0 C-9,-13 -14,-31 -12,-53 L12,-53 C14,-31 9,-13 0,0 Z" fill="#26215C"/>
<circle cx="0" cy="-37" r="5" fill="#EEEDFE"/>
<line x1="0" y1="-32" x2="0" y2="-8" stroke="#EEEDFE" stroke-width="2.5" stroke-linecap="round"/>
<rect x="-13" y="-64" width="26" height="11" rx="4" fill="#534AB7"/>
<path d="M-5,-64 C-9,-94 2,-118 31,-136 C20,-108 24,-84 11,-64 Z" fill="#7F77DD"/>
<path d="M-1,-66 C-5,-92 4,-114 28,-131" fill="none" stroke="#534AB7" stroke-width="2.5"/>
</g>
<path d="M312,124 C400,96 470,132 560,104 C630,84 690,98 752,96" fill="none" stroke="#534AB7" stroke-width="3.5" stroke-linecap="round"/>
<path d="M752,96 l-16,-7 M752,96 l-15,10" fill="none" stroke="#534AB7" stroke-width="3.5" stroke-linecap="round"/>
<path d="M0,144 C170,132 350,158 540,146 C740,133 940,156 1200,142 V200 H0 Z" fill="#7F77DD"/>
<g>
<path d="M770,140 L770,54 L862,140 Z" fill="#f3c46a"/>
<line x1="768" y1="140" x2="768" y2="52" stroke="#26215C" stroke-width="4" stroke-linecap="round"/>
<path d="M726,140 L890,140 L866,160 L750,160 Z" fill="#26215C"/>
</g>
<path d="M0,166 C200,154 420,180 660,168 C880,157 1030,176 1200,164 V200 H0 Z" fill="#3C3489"/>
<path d="M0,188 C240,180 500,198 760,190 C960,184 1080,194 1200,188 V200 H0 Z" fill="#26215C"/>
<circle cx="180" cy="150" r="4" fill="#EEEDFE" opacity="0.45"/>
<circle cx="1020" cy="152" r="3" fill="#EEEDFE" opacity="0.45"/>
</svg>
