<svg xmlns="http://www.w3.org/2000/svg" viewBox="0 0 1200 200" role="img" aria-label="Panorama zum Wachbleiben: Kioske und ein Sendeturm strahlen Signalbögen aus, die goldene Sonne geht auf">
<rect width="1200" height="200" fill="#EEEDFE"/>
<circle cx="300" cy="54" r="28" fill="#f3c46a"/>
<circle cx="300" cy="54" r="39" fill="none" stroke="#f3c46a" stroke-width="2" opacity="0.45"/>
<path d="M0,126 C160,104 340,130 540,120 C740,110 940,132 1200,118 V200 H0 Z" fill="#CECBF6"/>
<g fill="#AFA9EC"><rect x="150" y="96" width="46" height="34" rx="2"/><path d="M144,96 h58 l-6,-12 h-46 z" fill="#7F77DD"/></g>
<g fill="#AFA9EC"><rect x="430" y="96" width="46" height="34" rx="2"/><path d="M424,96 h58 l-6,-12 h-46 z" fill="#7F77DD"/></g>
<g fill="#AFA9EC"><rect x="980" y="96" width="46" height="34" rx="2"/><path d="M974,96 h58 l-6,-12 h-46 z" fill="#7F77DD"/></g>
<g stroke="#26215C" stroke-linecap="round" fill="none"><path d="M718,150 L735,58 L752,150" stroke-width="5"/><line x1="724" y1="120" x2="746" y2="120" stroke-width="3"/><line x1="721" y1="100" x2="749" y2="100" stroke-width="3"/><line x1="726" y1="82" x2="744" y2="82" stroke-width="3"/></g>
<path d="M760,52 a30,30 0 0 1 0,44 M770,45 a44,44 0 0 1 0,58" fill="none" stroke="#AFA9EC" stroke-width="4" stroke-linecap="round"/>
<path d="M710,52 a30,30 0 0 0 0,44 M700,45 a44,44 0 0 0 0,58" fill="none" stroke="#AFA9EC" stroke-width="4" stroke-linecap="round"/>
<path d="M560,74 q10,-8 20,0 M590,64 q10,-8 20,0" fill="none" stroke="#534AB7" stroke-width="3" stroke-linecap="round"/>
<path d="M0,134 C170,112 340,142 520,130 C700,118 900,144 1200,128 V200 H0 Z" fill="#7F77DD"/>
<path d="M0,158 C190,140 400,170 620,156 C840,142 1020,172 1200,156 V200 H0 Z" fill="#3C3489"/>
<path d="M0,184 C240,170 480,196 720,182 C940,170 1090,192 1200,182 V200 H0 Z" fill="#26215C"/>
</svg>
