<svg xmlns="http://www.w3.org/2000/svg" viewBox="0 0 1200 200" role="img" aria-label="Die Bürostadt im Sonnenaufgang — der Arbeitstag beginnt, die goldene Sonne steigt">
<rect width="1200" height="200" fill="#EEEDFE"/>
<circle cx="620" cy="120" r="30" fill="#f3c46a"/><g fill="#534AB7"><path d="M300,150 L300,92 L360,92 L360,150 Z"/><path d="M840,150 L840,84 L902,84 L902,150 Z"/></g><g fill="#3C3489"><path d="M380,150 L380,72 L448,72 L448,150 Z"/><path d="M470,150 L470,104 L524,104 L524,150 Z"/><path d="M720,150 L720,96 L784,96 L784,150 Z"/><path d="M800,150 L800,116 L836,116 L836,150 Z"/></g><g fill="#26215C"><path d="M556,150 L556,120 L610,120 L610,150 Z"/><path d="M636,150 L636,112 L694,112 L694,150 Z"/></g><path d="M250,58 q9,-7 18,0 M276,50 q9,-7 18,0" fill="none" stroke="#534AB7" stroke-width="3" stroke-linecap="round"/><path d="M0,150 C220,140 460,152 720,150 C940,148 1060,154 1200,150 V200 H0 Z" fill="#534AB7"/><path d="M0,152 C200,136 440,166 680,152 C900,139 1050,166 1200,154 V200 H0 Z" fill="#3C3489"/>
<path d="M0,180 C240,168 500,192 760,180 C980,168 1100,188 1200,180 V200 H0 Z" fill="#26215C"/>
</svg>
