<svg xmlns="http://www.w3.org/2000/svg" viewBox="0 0 1200 200" role="img" aria-label="Ein Boot zieht seine Spur durchs Wasser — was geschehen ist, bleibt sichtbar">
<rect width="1200" height="200" fill="#EEEDFE"/>
<path d="M300,58 q10,-8 20,0 M336,46 q10,-8 20,0" fill="none" stroke="#534AB7" stroke-width="3" stroke-linecap="round"/>
<path d="M0,126 C220,114 480,136 740,126 C960,118 1100,130 1200,124 V200 H0 Z" fill="#AFA9EC"/>
<g fill="none" stroke="#EEEDFE" stroke-width="5" stroke-linecap="round">
<path d="M210,124 C400,118 580,122 770,127"/>
<path d="M290,140 C460,136 610,132 762,131"/>
<path d="M382,154 C520,150 640,140 754,135"/>
</g>
<circle cx="236" cy="140" r="4.5" fill="#EEEDFE"/>
<circle cx="308" cy="158" r="3.5" fill="#EEEDFE"/>
<circle cx="216" cy="156" r="3" fill="#EEEDFE"/>
<g fill="#26215C">
<path d="M756,132 C766,140 848,140 858,132 L886,100 L768,100 Z"/>
<rect x="818" y="44" width="8" height="56" rx="2"/>
<path d="M814,52 L814,94 L774,94 Z"/>
</g>
<circle cx="822" cy="36" r="11" fill="#f3c46a"/>
<circle cx="822" cy="36" r="18" fill="none" stroke="#f3c46a" stroke-width="2" opacity="0.45"/>
<path d="M0,160 C230,150 490,170 750,160 C970,152 1110,164 1200,158 V200 H0 Z" fill="#534AB7"/>
<path d="M0,178 C250,170 520,190 780,181 C1000,174 1120,186 1200,181 V200 H0 Z" fill="#3C3489"/>
<path d="M0,192 C280,188 560,198 820,194 C1020,191 1130,196 1200,194 V200 H0 Z" fill="#26215C"/>
</svg>
