<svg xmlns="http://www.w3.org/2000/svg" viewBox="0 0 1200 200" role="img" aria-label="Panorama des Grafik-Beschreibens: Saeulendiagramme ragen wie Berge, eine goldene Kreisdiagramm-Sonne darueber">
<rect width="1200" height="200" fill="#EEEDFE"/>
<circle cx="330" cy="52" r="28" fill="#f3c46a"/>
<path d="M330,52 L330,24 A28,28 0 0 1 354,66 Z" fill="#EEEDFE" opacity="0.55"/>
<circle cx="330" cy="52" r="39" fill="none" stroke="#f3c46a" stroke-width="2" opacity="0.4"/>
<g fill="#CECBF6"><rect x="720" y="86" width="40" height="38"/><rect x="770" y="64" width="40" height="60"/><rect x="820" y="96" width="40" height="28"/></g>
<g fill="#AFA9EC"><rect x="880" y="72" width="40" height="52"/><rect x="930" y="50" width="40" height="74"/><rect x="980" y="88" width="40" height="36"/></g>
<g fill="#7F77DD"><rect x="150" y="92" width="38" height="32"/><rect x="196" y="74" width="38" height="50"/><rect x="242" y="100" width="38" height="24"/></g>
<path d="M0,128 C170,106 360,142 540,124 C720,106 900,142 1080,126 C1140,120 1180,126 1200,122 V200 H0 Z" fill="#534AB7"/>
<path d="M0,150 C190,132 400,164 620,150 C840,136 1020,164 1200,150 V200 H0 Z" fill="#3C3489"/>
<path d="M0,180 C240,166 480,192 720,178 C940,166 1090,188 1200,178 V200 H0 Z" fill="#26215C"/>
</svg>
