<svg xmlns="http://www.w3.org/2000/svg" viewBox="0 0 1200 200" role="img" aria-label="Ein Steinturm wächst Stein für Stein aus der Welle — der oberste, goldene Stein schwebt noch über seinem Platz">
<rect width="1200" height="200" fill="#EEEDFE"/>
<path d="M120,120 L260,62 L400,120 Z" fill="#CECBF6"/>
<path d="M900,120 L1030,70 L1160,120 Z" fill="#CECBF6"/>
<path d="M300,60 q10,-8 20,0 M330,48 q10,-8 20,0" fill="none" stroke="#AFA9EC" stroke-width="3" stroke-linecap="round"/>
<ellipse cx="600" cy="34" rx="26" ry="13" fill="#f3c46a"/>
<path d="M0,126 C170,112 340,138 520,128 C740,116 960,138 1200,124 V200 H0 Z" fill="#7F77DD"/>
<g>
<ellipse cx="600" cy="146" rx="76" ry="20" fill="#26215C"/>
<ellipse cx="596" cy="118" rx="58" ry="17" fill="#3C3489"/>
<ellipse cx="606" cy="94" rx="44" ry="14" fill="#534AB7"/>
<ellipse cx="596" cy="74" rx="31" ry="11" fill="#3C3489"/>
<ellipse cx="602" cy="58" rx="20" ry="8" fill="#26215C"/>
</g>
<path d="M0,162 C200,150 420,176 660,164 C880,153 1030,172 1200,160 V200 H0 Z" fill="#3C3489"/>
<path d="M0,186 C240,178 500,198 760,188 C960,180 1090,192 1200,186 V200 H0 Z" fill="#26215C"/>
<circle cx="240" cy="146" r="4" fill="#EEEDFE" opacity="0.45"/>
<circle cx="980" cy="142" r="3" fill="#EEEDFE" opacity="0.45"/>
</svg>
