<svg xmlns="http://www.w3.org/2000/svg" viewBox="0 0 1200 200" role="img" aria-label="Ein Pfad aus Trittplatten steigt Stufe für Stufe den Berg hinauf bis zur goldenen Flagge auf dem Gipfel">
<rect width="1200" height="200" fill="#EEEDFE"/>
<path d="M150,140 L300,58 L450,140 Z" fill="#CECBF6"/>
<path d="M980,146 L1090,72 L1200,146 Z" fill="#CECBF6"/>
<path d="M420,74 q10,-8 20,0 M450,62 q10,-8 20,0" fill="none" stroke="#534AB7" stroke-width="3" stroke-linecap="round"/>
<path d="M0,148 C150,136 320,152 480,146 C660,139 860,154 1040,146 C1120,142 1160,148 1200,146 V200 H0 Z" fill="#7F77DD"/>
<path d="M640,162 L880,44 L1080,162 Z" fill="#AFA9EC"/>
<line x1="880" y1="48" x2="880" y2="8" stroke="#26215C" stroke-width="4" stroke-linecap="round"/>
<path d="M880,10 L946,26 L880,42 Z" fill="#f3c46a"/>
<g fill="#26215C">
<path d="M170,142 l34,-9 l34,9 l-34,9 Z"/>
<path d="M258,136 l34,-9 l34,9 l-34,9 Z"/>
<path d="M346,132 l34,-9 l34,9 l-34,9 Z"/>
<path d="M436,130 l34,-9 l34,9 l-34,9 Z"/>
<path d="M526,132 l34,-9 l34,9 l-34,9 Z"/>
<path d="M614,138 l34,-9 l34,9 l-34,9 Z"/>
<path d="M676,126 l32,-8 l32,8 l-32,8 Z"/>
<path d="M736,100 l30,-8 l30,8 l-30,8 Z"/>
<path d="M790,76 l28,-7 l28,7 l-28,7 Z"/>
<path d="M838,58 l26,-7 l26,7 l-26,7 Z"/>
</g>
<path d="M0,168 C200,156 420,180 640,168 C860,156 1040,178 1200,166 V200 H0 Z" fill="#3C3489"/>
<path d="M0,188 C240,177 500,198 760,188 C980,179 1100,194 1200,188 V200 H0 Z" fill="#26215C"/>
</svg>
