<svg xmlns="http://www.w3.org/2000/svg" viewBox="0 0 1200 200" role="img" aria-label="Skyline aus Häusern verschiedener Kulturen unter einer Sonne — Interkulturalität">
<rect width="1200" height="200" fill="#EEEDFE"/>
<circle cx="600" cy="50" r="30" fill="#AFA9EC"/>
<circle cx="600" cy="50" r="40" fill="none" stroke="#AFA9EC" stroke-width="2" opacity="0.4"/>
<g fill="#AFA9EC"><path d="M180,120 v-36 l30,-22 l30,22 v36 Z"/><rect x="270" y="70" width="52" height="50"/><path d="M340,120 v-40 q26,-30 52,0 v40 Z"/><path d="M420,120 v-30 l18,-14 l18,14 v-6 l18,-14 l18,14 v50 Z"/><rect x="520" y="60" width="40" height="60"/><path d="M600,120 v-46 l24,-20 l24,20 v46 Z"/><path d="M690,120 v-34 q24,-26 48,0 v34 Z"/><rect x="770" y="74" width="56" height="46"/><path d="M850,120 v-40 l28,-22 l28,22 v40 Z"/><rect x="940" y="66" width="44" height="54"/></g>
<rect x="612" y="86" width="12" height="14" rx="1" fill="#f3c46a"/>
<path d="M0,148 C190,130 400,162 620,148 C840,134 1020,164 1200,148 V200 H0 Z" fill="#3C3489"/>
<path d="M0,180 C240,166 480,192 720,178 C940,166 1090,188 1200,178 V200 H0 Z" fill="#26215C"/>
</svg>
