<svg xmlns="http://www.w3.org/2000/svg" viewBox="0 0 1200 200" role="img" aria-label="Ein Relativsatz als Bausteinbogen — nur der goldene Stein, der genau passt, schließt die Lücke">
<rect width="1200" height="200" fill="#EEEDFE"/>
<circle cx="1050" cy="48" r="22" fill="#AFA9EC"/>
<circle cx="1050" cy="48" r="32" fill="none" stroke="#AFA9EC" stroke-width="2" opacity="0.4"/>
<rect x="300" y="96" width="34" height="34" fill="#534AB7"/><rect x="866" y="96" width="34" height="34" fill="#534AB7"/>
<g fill="#7F77DD"><path d="M334,96 l30,-20 l16,26 l-30,14 Z"/><path d="M380,76 l30,-16 l14,26 l-30,12 Z"/><path d="M424,60 l30,-10 l12,24 l-30,10 Z"/><path d="M770,50 l30,10 l-12,24 l-30,-10 Z"/><path d="M816,60 l30,16 l-14,26 l-30,-12 Z"/><path d="M846,76 l30,20 l-16,26 l-30,-14 Z"/></g>
<path d="M582,30 l36,0 l-6,26 l-24,0 Z" fill="#f3c46a"/>
<path d="M600,64 v10" stroke="#f3c46a" stroke-width="2" stroke-dasharray="2 3"/>
<path d="M0,148 C190,130 400,162 620,148 C840,134 1020,164 1200,148 V200 H0 Z" fill="#3C3489"/>
<path d="M0,180 C240,166 480,192 720,178 C940,166 1090,188 1200,178 V200 H0 Z" fill="#26215C"/>
</svg>
