<svg xmlns="http://www.w3.org/2000/svg" viewBox="0 0 1200 200" role="img" aria-label="Eine Drohne trägt ein goldenes Werbebanner über die Wellen">
<rect width="1200" height="200" fill="#EEEDFE"/>
<path d="M160,150 L300,104 L450,150 Z" fill="#CECBF6"/>
<path d="M250,80 q10,-8 20,0 M284,68 q10,-8 20,0" fill="none" stroke="#534AB7" stroke-width="3" stroke-linecap="round"/>
<g fill="#26215C">
<rect x="566" y="38" width="68" height="14" rx="7"/>
<line x1="560" y1="30" x2="586" y2="42" stroke="#26215C" stroke-width="5" stroke-linecap="round"/>
<line x1="640" y1="30" x2="614" y2="42" stroke="#26215C" stroke-width="5" stroke-linecap="round"/>
</g>
<ellipse cx="548" cy="28" rx="26" ry="5" fill="#3C3489"/>
<ellipse cx="652" cy="28" rx="26" ry="5" fill="#3C3489"/>
<path d="M584,52 L580,72 M616,52 L620,72" stroke="#26215C" stroke-width="3"/>
<rect x="556" y="72" width="88" height="34" rx="4" fill="#f3c46a"/>
<path d="M0,150 C190,140 400,158 620,149 C840,140 1030,156 1200,148 V200 H0 Z" fill="#534AB7"/>
<circle cx="880" cy="160" r="3" fill="#AFA9EC"/>
<path d="M0,170 C220,162 450,180 670,170 C890,162 1060,176 1200,169 V200 H0 Z" fill="#3C3489"/>
<path d="M0,190 C240,185 500,197 760,191 C980,187 1120,195 1200,191 V200 H0 Z" fill="#26215C"/>
</svg>
