<svg xmlns="http://www.w3.org/2000/svg" viewBox="0 0 1200 200" role="img" aria-label="Ein heller Weg windet sich über gestaffelte Hügel zur aufgehenden goldenen Sonne — der Blick nach vorn in die Zukunft">
<rect width="1200" height="200" fill="#EEEDFE"/>
<circle cx="840" cy="54" r="27" fill="#f3c46a"/>
<circle cx="840" cy="54" r="39" fill="none" stroke="#f3c46a" stroke-width="2" opacity="0.42"/>
<path d="M150,122 L320,80 L500,122 Z" fill="#CECBF6"/>
<path d="M640,122 L840,66 L1030,122 Z" fill="#CECBF6"/>
<path d="M0,126 C180,104 360,138 540,122 C720,106 900,138 1080,122 C1130,118 1170,124 1200,120 V200 H0 Z" fill="#AFA9EC"/>
<path d="M0,132 C180,110 360,142 540,126 C720,110 900,140 1080,126 C1130,122 1170,128 1200,124 V200 H0 Z" fill="#7F77DD"/>
<path d="M300,196 C360,176 300,158 420,150 C520,143 470,132 560,126 C640,121 720,120 810,112 C830,110 836,96 840,84" fill="none" stroke="#CECBF6" stroke-width="9" stroke-linecap="round" opacity="0.9"/>
<path d="M300,196 C360,176 300,158 420,150 C520,143 470,132 560,126 C640,121 720,120 810,112 C830,110 836,96 840,84" fill="none" stroke="#EEEDFE" stroke-width="4" stroke-linecap="round" stroke-dasharray="2 12"/>
<path d="M0,158 C220,140 460,172 700,158 C920,145 1090,172 1200,158 V200 H0 Z" fill="#3C3489"/>
<path d="M0,182 C240,170 500,194 760,183 C980,172 1110,190 1200,182 V200 H0 Z" fill="#26215C"/>
<circle cx="470" cy="52" r="4" fill="#EEEDFE" opacity="0.55"/>
<circle cx="560" cy="42" r="3" fill="#EEEDFE" opacity="0.55"/>
</svg>
