<svg xmlns="http://www.w3.org/2000/svg" viewBox="0 0 1200 200" role="img" aria-label="Ein Rednerpult, aus dem zwei Sprechblasen aufsteigen — die Diskussion"><rect width="1200" height="200" fill="#EEEDFE"/><path d="M600,44 a20,20 0 1 0 0,36 a24,24 0 0 1 0,-36 Z" fill="#CECBF6"/><path d="M566,190 L554,120 L646,120 L634,190 Z" fill="#3C3489"/><rect x="548" y="112" width="104" height="12" rx="3" fill="#26215C"/><path d="M430,96 h74 a10,10 0 0 1 10,10 v20 a10,10 0 0 1 -10,10 h-56 l-14,12 v-12 h-4 a10,10 0 0 1 -10,-10 v-20 a10,10 0 0 1 10,-10 Z" fill="#7F77DD"/><path d="M770,96 h-74 a10,10 0 0 0 -10,10 v20 a10,10 0 0 0 10,10 h56 l14,12 v-12 h4 a10,10 0 0 0 10,-10 v-20 a10,10 0 0 0 -10,-10 Z" fill="#f3c46a"/><path d="M0,150 C190,132 400,164 620,150 C840,136 1020,166 1200,150 V200 H0 Z" fill="#3C3489"/><path d="M0,180 C240,166 480,192 720,178 C940,166 1090,188 1200,178 V200 H0 Z" fill="#26215C"/></svg>