<svg xmlns="http://www.w3.org/2000/svg" viewBox="0 0 1200 200" role="img" aria-label="Ein Funkmast auf dem Wellenberg meldet — das goldene Signal leuchtet">
<rect width="1200" height="200" fill="#EEEDFE"/>
<path d="M282,58 q10,-8 20,0 M318,70 q8,-7 16,0" fill="none" stroke="#534AB7" stroke-width="3" stroke-linecap="round"/>
<circle cx="600" cy="52" r="7" fill="#f3c46a"/>
<path d="M566,42 A46,46 0 0,1 566,66 M544,30 A76,76 0 0,1 544,78" fill="none" stroke="#7F77DD" stroke-width="4" stroke-linecap="round"/>
<path d="M634,42 A46,46 0 0,0 634,66 M656,30 A76,76 0 0,0 656,78" fill="none" stroke="#7F77DD" stroke-width="4" stroke-linecap="round"/>
<path d="M596,60 L580,144 L620,144 L604,60 Z" fill="#26215C"/>
<path d="M584,124 L616,102 M584,102 L616,124 M588,96 L612,82 M588,82 L612,96" stroke="#EEEDFE" stroke-width="2.5"/>
<path d="M0,144 C180,130 380,152 590,140 C820,128 1020,152 1200,140 V200 H0 Z" fill="#7F77DD"/>
<path d="M470,168 L500,146 L530,168 Z" fill="#3C3489"/>
<path d="M672,168 L700,150 L728,168 Z" fill="#3C3489"/>
<path d="M0,166 C220,156 460,178 700,166 C920,156 1080,174 1200,164 V200 H0 Z" fill="#3C3489"/>
<path d="M0,187 C260,178 540,198 800,188 C1020,180 1130,192 1200,187 V200 H0 Z" fill="#26215C"/>
</svg>
