<svg xmlns="http://www.w3.org/2000/svg" viewBox="0 0 1200 200" role="img" aria-label="Eine Uhr versinkt wie eine Abendsonne hinter der Welle — die Zeit ist vergangen">
<rect width="1200" height="200" fill="#EEEDFE"/>
<path d="M270,40 a24,24 0 1 0 0,40 a28,28 0 0 1 0,-40 Z" fill="#CECBF6"/>
<circle cx="640" cy="118" r="52" fill="#f3c46a"/>
<circle cx="640" cy="118" r="64" fill="none" stroke="#f3c46a" stroke-width="2" opacity="0.4"/>
<line x1="640" y1="118" x2="612" y2="100" stroke="#26215C" stroke-width="7" stroke-linecap="round"/>
<line x1="640" y1="118" x2="640" y2="84" stroke="#26215C" stroke-width="7" stroke-linecap="round"/>
<circle cx="640" cy="118" r="5" fill="#26215C"/>
<path d="M880,56 q10,-8 20,0 M912,44 q10,-8 20,0" fill="none" stroke="#534AB7" stroke-width="3" stroke-linecap="round"/>
<path d="M0,148 C190,134 400,158 620,146 C840,134 1020,156 1200,145 V200 H0 Z" fill="#534AB7"/>
<path d="M0,168 C220,158 460,180 700,168 C920,158 1090,176 1200,167 V200 H0 Z" fill="#3C3489"/>
<path d="M0,188 C260,182 540,198 800,190 C1000,184 1120,194 1200,189 V200 H0 Z" fill="#26215C"/>
</svg>
