<svg xmlns="http://www.w3.org/2000/svg" viewBox="0 0 1200 200" role="img" aria-label="Ein verknoteter Klangfaden entwirrt sich von links nach rechts zur klaren Welle; die goldene Perle markiert den geloesten Laut">
<rect width="1200" height="200" fill="#EEEDFE"/>
<path d="M180,120 C260,60 300,180 360,110 C400,64 440,170 500,120 C540,86 560,150 600,120" fill="none" stroke="#534AB7" stroke-width="6" stroke-linecap="round"/>
<path d="M600,120 C680,116 760,124 860,120 C960,116 1040,124 1050,122" fill="none" stroke="#3C3489" stroke-width="6" stroke-linecap="round"/>
<circle cx="600" cy="120" r="9" fill="#f3c46a"/>
<circle cx="600" cy="120" r="16" fill="none" stroke="#f3c46a" stroke-width="2" opacity="0.5"/>
<path d="M0,150 C200,134 420,164 620,150 C820,136 1010,164 1200,150 V200 H0 Z" fill="#7F77DD"/>
<path d="M0,178 C240,166 500,190 760,178 C980,168 1100,186 1200,178 V200 H0 Z" fill="#26215C"/>
</svg>