<svg xmlns="http://www.w3.org/2000/svg" viewBox="0 0 1200 200" role="img" aria-label="Eine Waage wägt die Argumente, eine Schale glänzt golden — Stellungnahme aufbauen">
<rect width="1200" height="200" fill="#EEEDFE"/>
<line x1="600" y1="40" x2="600" y2="150" stroke="#26215C" stroke-width="6" stroke-linecap="round"/>
<line x1="452" y1="52" x2="748" y2="52" stroke="#26215C" stroke-width="6" stroke-linecap="round"/>
<circle cx="600" cy="42" r="8" fill="#3C3489"/>
<line x1="452" y1="52" x2="452" y2="86" stroke="#534AB7" stroke-width="2.5"/>
<line x1="748" y1="52" x2="748" y2="86" stroke="#534AB7" stroke-width="2.5"/>
<path d="M418,86 A34,20 0 0 0 486,86 Z" fill="#7F77DD"/>
<path d="M714,86 A34,20 0 0 0 782,86 Z" fill="#f3c46a"/>
<rect x="560" y="150" width="80" height="8" rx="3" fill="#26215C"/>
<path d="M0,150 C190,134 400,164 620,150 C840,136 1020,164 1200,150 V200 H0 Z" fill="#3C3489"/>
<path d="M0,180 C240,166 480,192 720,178 C940,166 1090,188 1200,178 V200 H0 Z" fill="#26215C"/>
</svg>
