<svg xmlns="http://www.w3.org/2000/svg" viewBox="0 0 1200 200" role="img" aria-label="Treppe aus gestapelten Blöcken mit goldenem Krönungsblock — Satzbau"><rect width="1200" height="200" fill="#EEEDFE"/><rect x="360" y="112" width="70" height="12" rx="3" fill="#3C3489"/><rect x="438" y="90" width="70" height="34" rx="3" fill="#534AB7"/><rect x="516" y="68" width="70" height="56" rx="3" fill="#7F77DD"/><rect x="594" y="46" width="70" height="78" rx="3" fill="#AFA9EC"/><rect x="672" y="18" width="70" height="30" rx="3" fill="#f3c46a"/><line x1="707" y1="48" x2="707" y2="46" stroke="#f3c46a" stroke-width="0"/><path d="M250,70 q10,-8 20,0 M280,58 q10,-8 20,0" fill="none" stroke="#534AB7" stroke-width="3" stroke-linecap="round"/><path d="M0,124 C160,106 320,140 480,124 C640,108 820,142 1000,124 C1090,115 1150,122 1200,118 V200 H0 Z" fill="#534AB7"/><path d="M0,152 C180,134 380,166 600,152 C820,138 1010,168 1200,152 V200 H0 Z" fill="#3C3489"/><path d="M0,178 C220,164 460,190 700,176 C920,164 1080,188 1200,178 V200 H0 Z" fill="#26215C"/></svg>