<svg xmlns="http://www.w3.org/2000/svg" viewBox="0 0 1200 200" role="img" aria-label="Panorama der Suche nach Leben: Radioteleskop-Schüsseln auf den Hügeln lauschen, ein fremder Planet als goldene Sonne">
<rect width="1200" height="200" fill="#EEEDFE"/>
<circle cx="200" cy="46" r="2" fill="#EEEDFE" opacity="0.5"/><circle cx="320" cy="86" r="1.5" fill="#EEEDFE" opacity="0.45"/><circle cx="910" cy="44" r="2" fill="#EEEDFE" opacity="0.5"/><circle cx="1020" cy="84" r="1.6" fill="#EEEDFE" opacity="0.45"/><circle cx="150" cy="100" r="1.5" fill="#EEEDFE" opacity="0.4"/><circle cx="1060" cy="58" r="1.8" fill="#EEEDFE" opacity="0.5"/><circle cx="500" cy="38" r="1.6" fill="#EEEDFE" opacity="0.4"/>
<circle cx="620" cy="52" r="25" fill="#f3c46a"/>
<ellipse cx="620" cy="52" rx="41" ry="12" fill="none" stroke="#f3c46a" stroke-width="2" opacity="0.45"/>
<path d="M300,124 q64,-40 160,-70" fill="none" stroke="#AFA9EC" stroke-width="2" opacity="0.4"/><path d="M880,126 q-52,-40 -130,-70" fill="none" stroke="#AFA9EC" stroke-width="2" opacity="0.4"/>
<path d="M0,138 C200,120 380,150 600,138 C820,126 1010,152 1200,138 V200 H0 Z" fill="#534AB7"/>
<g transform="translate(300,120) rotate(-28)"><ellipse cx="0" cy="0" rx="26" ry="11" fill="#3C3489"/><line x1="0" y1="0" x2="0" y2="18" stroke="#26215C" stroke-width="4"/><circle cx="0" cy="-2" r="3" fill="#26215C"/></g><g transform="translate(880,122) rotate(28)"><ellipse cx="0" cy="0" rx="26" ry="11" fill="#3C3489"/><line x1="0" y1="0" x2="0" y2="18" stroke="#26215C" stroke-width="4"/><circle cx="0" cy="-2" r="3" fill="#26215C"/></g><g transform="translate(600,118) rotate(0)"><ellipse cx="0" cy="0" rx="26" ry="11" fill="#3C3489"/><line x1="0" y1="0" x2="0" y2="18" stroke="#26215C" stroke-width="4"/><circle cx="0" cy="-2" r="3" fill="#26215C"/></g>
<path d="M0,150 C190,132 380,164 600,150 C820,136 1010,166 1200,150 V200 H0 Z" fill="#3C3489"/><path d="M0,180 C220,166 460,192 700,178 C920,166 1080,188 1200,178 V200 H0 Z" fill="#26215C"/>
</svg>