<svg xmlns="http://www.w3.org/2000/svg" viewBox="0 0 1200 200" role="img" aria-label="Kettenglieder greifen fest ineinander — das goldene Glied schließt die Kette">
<rect width="1200" height="200" fill="#EEEDFE"/>
<path d="M0,122 C220,106 460,130 700,116 C920,104 1080,126 1200,116 V200 H0 Z" fill="#AFA9EC"/>
<g fill="none" stroke-linecap="round">
<ellipse cx="424" cy="90" rx="46" ry="26" stroke="#26215C" stroke-width="11" transform="rotate(-6 424 90)"/>
<ellipse cx="512" cy="94" rx="46" ry="26" stroke="#3C3489" stroke-width="11" transform="rotate(5 512 94)"/>
<ellipse cx="600" cy="92" rx="46" ry="26" stroke="#f3c46a" stroke-width="12"/>
<ellipse cx="688" cy="94" rx="46" ry="26" stroke="#3C3489" stroke-width="11" transform="rotate(-5 688 94)"/>
<ellipse cx="776" cy="90" rx="46" ry="26" stroke="#26215C" stroke-width="11" transform="rotate(6 776 90)"/>
</g>
<path d="M220,54 q10,-8 20,0 M252,42 q10,-8 20,0" fill="none" stroke="#534AB7" stroke-width="3" stroke-linecap="round"/>
<path d="M0,150 C220,136 470,162 700,150 C920,138 1080,160 1200,150 V200 H0 Z" fill="#534AB7"/>
<path d="M0,170 C240,158 500,182 760,170 C980,158 1110,178 1200,168 V200 H0 Z" fill="#3C3489"/>
<path d="M0,189 C240,181 500,199 760,189 C980,181 1110,195 1200,188 V200 H0 Z" fill="#26215C"/>
</svg>
