<svg xmlns="http://www.w3.org/2000/svg" viewBox="0 0 1200 200" role="img" aria-label="Firmenturm mit goldenem Fenster in der leeren Reihe — Lückentext"><rect width="1200" height="200" fill="#EEEDFE"/><rect x="520" y="34" width="120" height="92" fill="#3C3489"/><g fill="#26215C"><rect x="534" y="46" width="16" height="12"/><rect x="560" y="46" width="16" height="12"/><rect x="586" y="46" width="16" height="12"/><rect x="612" y="46" width="16" height="12"/><rect x="534" y="66" width="16" height="12"/><rect x="560" y="66" width="16" height="12"/><rect x="586" y="66" width="16" height="12"/><rect x="612" y="66" width="16" height="12"/><rect x="534" y="106" width="16" height="12"/><rect x="560" y="106" width="16" height="12"/><rect x="586" y="106" width="16" height="12"/><rect x="612" y="106" width="16" height="12"/></g><rect x="534" y="86" width="16" height="12" fill="#f3c46a"/><line x1="640" y1="34" x2="700" y2="20" stroke="#534AB7" stroke-width="4"/><line x1="700" y1="20" x2="700" y2="12" stroke="#534AB7" stroke-width="4"/><rect x="470" y="70" width="46" height="56" fill="#534AB7"/><rect x="644" y="80" width="40" height="46" fill="#7F77DD"/><path d="M320,60 q10,-8 20,0 M350,48 q10,-8 20,0" fill="none" stroke="#534AB7" stroke-width="3" stroke-linecap="round"/><path d="M0,124 C160,106 320,140 480,124 C640,108 820,142 1000,124 C1090,115 1150,122 1200,118 V200 H0 Z" fill="#534AB7"/><path d="M0,152 C180,134 380,166 600,152 C820,138 1010,168 1200,152 V200 H0 Z" fill="#3C3489"/><path d="M0,178 C220,164 460,190 700,176 C920,164 1080,188 1200,178 V200 H0 Z" fill="#26215C"/></svg>