<svg xmlns="http://www.w3.org/2000/svg" viewBox="0 0 1200 200" role="img" aria-label="Album-Panorama: Schallplatten stehen wie Berge auf der Welle, die goldene Nadel senkt sich">
<rect width="1200" height="200" fill="#EEEDFE"/>
<circle cx="320" cy="52" r="26" fill="#AFA9EC"/>
<circle cx="320" cy="52" r="36" fill="none" stroke="#AFA9EC" stroke-width="2" opacity="0.4"/>
<g><circle cx="470" cy="118" r="48" fill="#7F77DD"/><circle cx="470" cy="118" r="14" fill="#CECBF6"/><circle cx="470" cy="118" r="4" fill="#3C3489"/><circle cx="620" cy="112" r="60" fill="#534AB7"/><circle cx="620" cy="112" r="18" fill="#AFA9EC"/><circle cx="620" cy="112" r="5" fill="#26215C"/><circle cx="790" cy="120" r="42" fill="#7F77DD"/><circle cx="790" cy="120" r="12" fill="#CECBF6"/><circle cx="790" cy="120" r="4" fill="#3C3489"/></g>
<line x1="700" y1="52" x2="628" y2="100" stroke="#26215C" stroke-width="4" stroke-linecap="round"/>
<circle cx="700" cy="52" r="6" fill="#26215C"/>
<circle cx="628" cy="100" r="6" fill="#f3c46a"/>
<path d="M0,124 C150,96 290,140 450,118 C610,96 760,138 920,116 C1040,101 1130,118 1200,108 V200 H0 Z" fill="#534AB7"/>
<path d="M0,150 C170,128 330,166 520,146 C700,128 880,168 1050,148 C1110,141 1170,148 1200,144 V200 H0 Z" fill="#3C3489"/>
<path d="M0,178 C200,162 420,190 640,176 C860,163 1040,188 1200,176 V200 H0 Z" fill="#26215C"/>
</svg>
