<svg xmlns="http://www.w3.org/2000/svg" viewBox="0 0 1200 200" role="img" aria-label="Eine Kette aus Wörtern über der Welle, deren goldenes Bindeglied fehlt und darüber schwebt">
<rect width="1200" height="200" fill="#EEEDFE"/>
<circle cx="1060" cy="46" r="22" fill="#AFA9EC"/>
<circle cx="1060" cy="46" r="32" fill="none" stroke="#AFA9EC" stroke-width="2" opacity="0.4"/>
<g fill="none" stroke="#534AB7" stroke-width="5"><ellipse cx="300" cy="108" rx="20" ry="12"/><ellipse cx="360" cy="108" rx="20" ry="12"/><ellipse cx="480" cy="108" rx="20" ry="12"/><ellipse cx="540" cy="108" rx="20" ry="12"/></g>
<ellipse cx="420" cy="108" rx="20" ry="12" fill="none" stroke="#AFA9EC" stroke-width="2" stroke-dasharray="4 4"/>
<ellipse cx="420" cy="64" rx="20" ry="12" fill="none" stroke="#f3c46a" stroke-width="5"/>
<path d="M420,82 v10" stroke="#f3c46a" stroke-width="2" stroke-dasharray="2 3"/>
<path d="M0,148 C190,130 400,162 620,148 C840,134 1020,164 1200,148 V200 H0 Z" fill="#3C3489"/>
<path d="M0,180 C240,166 480,192 720,178 C940,166 1090,188 1200,178 V200 H0 Z" fill="#26215C"/>
</svg>
