<svg xmlns="http://www.w3.org/2000/svg" viewBox="0 0 1200 200" role="img" aria-label="Hochzeits-Panorama: ein Blumenbogen mit zwei Glocken ueber dem Weg, darueber die goldene Sonne">
<rect width="1200" height="200" fill="#EEEDFE"/>
<circle cx="600" cy="44" r="22" fill="#f3c46a"/>
<circle cx="600" cy="44" r="32" fill="none" stroke="#f3c46a" stroke-width="2" opacity="0.4"/>
<path d="M470,150 C470,64 730,64 730,150" fill="none" stroke="#AFA9EC" stroke-width="12"/>
<g fill="#7F77DD"><circle cx="500" cy="86" r="11"/><circle cx="545" cy="70" r="11"/><circle cx="600" cy="66" r="11"/><circle cx="655" cy="70" r="11"/><circle cx="700" cy="86" r="11"/></g>
<g fill="#534AB7"><circle cx="524" cy="76" r="8"/><circle cx="572" cy="66" r="8"/><circle cx="628" cy="66" r="8"/><circle cx="678" cy="76" r="8"/></g>
<g fill="#3C3489"><path d="M566,150 a12,14 0 0 1 24,0 Z"/><circle cx="578" cy="152" r="3"/><path d="M610,150 a12,14 0 0 1 24,0 Z"/><circle cx="622" cy="152" r="3"/></g>
<path d="M0,150 C200,134 420,164 620,150 C820,136 1010,164 1200,150 V200 H0 Z" fill="#534AB7"/>
<g stroke="#EEEDFE" stroke-width="3" opacity="0.5"><path d="M420,168 q6,-8 12,0" fill="none"/><path d="M760,172 q6,-8 12,0" fill="none"/></g>
<path d="M0,178 C240,166 500,190 760,178 C980,168 1100,186 1200,178 V200 H0 Z" fill="#26215C"/>
</svg>