<svg xmlns="http://www.w3.org/2000/svg" viewBox="0 0 1200 200" role="img" aria-label="Zwei Freunde-Plaetze: eine Bank unter dem Baum am stillen See, darueber die goldene Sonne">
<rect width="1200" height="200" fill="#EEEDFE"/>
<circle cx="880" cy="50" r="25" fill="#f3c46a"/>
<circle cx="880" cy="50" r="35" fill="none" stroke="#f3c46a" stroke-width="2" opacity="0.4"/>
<path d="M120,150 L250,60 L380,150 Z" fill="#CECBF6"/>
<path d="M300,150 L470,52 L640,150 Z" fill="#AFA9EC"/>
<ellipse cx="560" cy="96" rx="52" ry="52" fill="#7F77DD"/>
<rect x="555" y="126" width="10" height="30" fill="#534AB7"/>
<path d="M0,150 C200,134 420,164 620,150 C820,136 1010,164 1200,150 V200 H0 Z" fill="#534AB7"/>
<g fill="#26215C"><rect x="500" y="148" width="120" height="6" rx="2"/><rect x="506" y="154" width="6" height="16"/><rect x="608" y="154" width="6" height="16"/><rect x="500" y="138" width="120" height="6" rx="2"/></g>
<path d="M0,178 C240,166 500,190 760,178 C980,168 1100,186 1200,178 V200 H0 Z" fill="#26215C"/>
</svg>