<svg xmlns="http://www.w3.org/2000/svg" viewBox="0 0 1200 200" role="img" aria-label="Eine Malerpalette über der Welle — ihre Farbtupfer sind genau die Farben der Landschaft, nur der goldene fehlt dort noch">
<rect width="1200" height="200" fill="#EEEDFE"/>
<path d="M200,86 q10,-8 20,0 M230,74 q10,-8 20,0" fill="none" stroke="#AFA9EC" stroke-width="3" stroke-linecap="round"/>
<path d="M980,132 L1070,72 L1160,132 Z" fill="#CECBF6"/>
<g transform="rotate(-7 600 100)">
<path d="M450,102 C450,44 532,18 616,18 C724,18 794,52 794,94 C794,126 764,138 736,134 C712,130 692,136 690,154 C688,174 664,184 616,182 C528,178 450,152 450,102 Z" fill="#AFA9EC"/>
<circle cx="700" cy="112" r="18" fill="#EEEDFE"/>
<circle cx="516" cy="80" r="17" fill="#CECBF6"/>
<circle cx="572" cy="56" r="17" fill="#7F77DD"/>
<circle cx="632" cy="48" r="17" fill="#534AB7"/>
<circle cx="692" cy="60" r="17" fill="#3C3489"/>
<circle cx="512" cy="138" r="17" fill="#26215C"/>
<circle cx="580" cy="146" r="19" fill="#f3c46a"/>
</g>
<g transform="rotate(34 800 40)">
<rect x="800" y="30" width="180" height="14" rx="7" fill="#3C3489"/>
<rect x="770" y="26" width="34" height="22" rx="4" fill="#AFA9EC"/>
<path d="M770,26 L742,32 L742,42 L770,48 Z" fill="#26215C"/>
</g>
<path d="M0,140 C180,128 360,156 560,146 C760,136 960,158 1200,142 V200 H0 Z" fill="#7F77DD"/>
<path d="M0,164 C220,154 460,180 700,168 C920,158 1080,178 1200,166 V200 H0 Z" fill="#3C3489"/>
<path d="M0,188 C260,182 540,196 800,189 C1000,184 1120,192 1200,188 V200 H0 Z" fill="#26215C"/>
</svg>
