<svg xmlns="http://www.w3.org/2000/svg" viewBox="0 0 1200 200" role="img" aria-label="Eine Feder treibt ein Zahnrad an — aus Tätigkeit wird Begriff"><rect width="1200" height="200" fill="#EEEDFE"/><path d="M1000,42 a20,20 0 1 0 0,36 a24,24 0 0 1 0,-36 Z" fill="#CECBF6"/><g transform="translate(560,150)"><g fill="#f3c46a"><circle r="30"/></g><circle r="14" fill="#EEEDFE"/><g fill="#3C3489"><rect x="-4" y="-40" width="8" height="12"/><rect x="-4" y="28" width="8" height="12"/><rect x="-40" y="-4" width="12" height="8"/><rect x="28" y="-4" width="12" height="8"/><rect x="-30" y="-30" width="10" height="8" transform="rotate(45)"/><rect x="20" y="20" width="10" height="8" transform="rotate(45)"/></g></g><g transform="translate(560,124) rotate(-24)"><rect x="-8" y="-64" width="16" height="12" rx="4" fill="#534AB7"/><path d="M-3,-64 C-7,-100 4,-124 32,-142 C20,-114 24,-90 10,-64 Z" fill="#7F77DD"/><path d="M0,-66 C-4,-96 6,-118 28,-136" fill="none" stroke="#534AB7" stroke-width="2.5"/></g><path d="M0,150 C190,132 400,164 620,150 C840,136 1020,166 1200,150 V200 H0 Z" fill="#3C3489"/><path d="M0,180 C240,166 480,192 720,178 C940,166 1090,188 1200,178 V200 H0 Z" fill="#26215C"/></svg>