<svg xmlns="http://www.w3.org/2000/svg" viewBox="0 0 1200 200" role="img" aria-label="Ein Meer aufgerichteter Fahnen über der Welle — die mittlere leuchtet golden: eine Bewegung, die sich aufrichtet">
<rect width="1200" height="200" fill="#EEEDFE"/>
<g stroke="#26215C" stroke-width="4" stroke-linecap="round">
<line x1="300" y1="100" x2="300" y2="150"/><line x1="360" y1="82" x2="360" y2="150"/><line x1="430" y1="64" x2="430" y2="150"/>
<line x1="700" y1="66" x2="700" y2="150"/><line x1="770" y1="84" x2="770" y2="150"/><line x1="840" y1="100" x2="840" y2="150"/><line x1="900" y1="90" x2="900" y2="150"/>
</g>
<g fill="#7F77DD"><path d="M300,100 l40,10 -40,12 z"/><path d="M700,66 l44,10 -44,12 z"/></g>
<g fill="#AFA9EC"><path d="M360,82 l40,10 -40,12 z"/><path d="M770,84 l40,10 -40,12 z"/></g>
<g fill="#534AB7"><path d="M430,64 l44,10 -44,12 z"/><path d="M840,100 l38,10 -38,12 z"/><path d="M900,90 l38,10 -38,12 z"/></g>
<line x1="600" y1="42" x2="600" y2="150" stroke="#26215C" stroke-width="5" stroke-linecap="round"/>
<path d="M600,42 l52,12 -52,14 z" fill="#f3c46a"/>
<path d="M0,150 C200,134 420,166 640,152 C860,138 1040,166 1200,152 V200 H0 Z" fill="#3C3489"/>
<path d="M0,180 C240,166 500,192 760,180 C980,168 1110,188 1200,180 V200 H0 Z" fill="#26215C"/>
</svg>