<svg xmlns="http://www.w3.org/2000/svg" viewBox="0 0 1200 200" role="img" aria-label="Eine Feder zieht eine Linie über das All — sie verschwindet in einem Wurmloch-Trichter und läuft jenseits als vorderste Welle weiter">
<rect width="1200" height="200" fill="#EEEDFE"/>
<circle cx="230" cy="52" r="2" fill="#EEEDFE" opacity="0.45"/><circle cx="360" cy="92" r="1.5" fill="#EEEDFE" opacity="0.4"/><circle cx="1100" cy="150" r="1.6" fill="#EEEDFE" opacity="0.4"/>
<path d="M0,150 C120,138 260,128 380,140 C460,148 500,150 520,148 L520,200 L0,200 Z" fill="#534AB7"/>
<path d="M0,150 C120,138 260,128 380,140 C460,148 500,150 520,148" fill="none" stroke="#3C3489" stroke-width="3" stroke-linecap="round"/>
<ellipse cx="560" cy="120" rx="60" ry="52" fill="none" stroke="#AFA9EC" stroke-width="2.5" opacity="0.4"/><ellipse cx="560" cy="120" rx="42" ry="36" fill="none" stroke="#7F77DD" stroke-width="2.5" opacity="0.55"/><ellipse cx="560" cy="120" rx="26" ry="22" fill="none" stroke="#534AB7" stroke-width="2.5" opacity="0.7"/><ellipse cx="560" cy="120" rx="12" ry="10" fill="none" stroke="#26215C" stroke-width="2.5" opacity="0.85"/>
<circle cx="560" cy="120" r="7" fill="#f3c46a"/>
<path d="M604,138 C700,128 820,150 940,140 C980,137 1000,138 1010,138 L1010,200 L604,200 Z" fill="#534AB7"/>
<path d="M604,138 C700,128 820,150 940,140 C980,137 1000,138 1010,138" fill="none" stroke="#3C3489" stroke-width="3" stroke-linecap="round"/>
<g transform="translate(1010,138) rotate(-32)"><path d="M0,0 C-9,-12 -14,-30 -12,-52 L12,-52 C14,-30 9,-12 0,0 Z" fill="#26215C"/><circle cx="0" cy="-36" r="4.5" fill="#EEEDFE"/><line x1="0" y1="-30" x2="0" y2="-8" stroke="#EEEDFE" stroke-width="2.5" stroke-linecap="round"/><rect x="-13" y="-62" width="26" height="10" rx="3" fill="#534AB7"/><path d="M-5,-62 C-9,-90 2,-112 30,-130 C20,-104 24,-82 11,-62 Z" fill="#7F77DD"/></g>
<path d="M0,150 C190,132 380,164 600,150 C820,136 1010,166 1200,150 V200 H0 Z" fill="#3C3489"/><path d="M0,180 C220,166 460,192 700,178 C920,166 1080,188 1200,178 V200 H0 Z" fill="#26215C"/>
</svg>