<svg xmlns="http://www.w3.org/2000/svg" viewBox="0 0 1200 200" role="img" aria-label="Drei Zahnräder laufen auf der Wellenkante ineinander — die Kämme der Welle sind ihre Verzahnung, und das kleinste, goldene, greift zuletzt">
<rect width="1200" height="200" fill="#EEEDFE"/>
<path d="M190,40 q10,-8 20,0 M220,28 q10,-8 20,0" fill="none" stroke="#AFA9EC" stroke-width="3" stroke-linecap="round"/>
<path d="M0,154 C110,150 280,158 440,144 L900,144 C1010,144 1100,152 1200,148 V200 H0 Z" fill="#7F77DD"/>
<rect x="448" y="134" width="12" height="11" rx="2" fill="#7F77DD"/><rect x="472" y="134" width="12" height="11" rx="2" fill="#7F77DD"/><rect x="496" y="134" width="12" height="11" rx="2" fill="#7F77DD"/><rect x="520" y="134" width="12" height="11" rx="2" fill="#7F77DD"/><rect x="544" y="134" width="12" height="11" rx="2" fill="#7F77DD"/><rect x="568" y="134" width="12" height="11" rx="2" fill="#7F77DD"/><rect x="592" y="134" width="12" height="11" rx="2" fill="#7F77DD"/><rect x="616" y="134" width="12" height="11" rx="2" fill="#7F77DD"/><rect x="640" y="134" width="12" height="11" rx="2" fill="#7F77DD"/><rect x="664" y="134" width="12" height="11" rx="2" fill="#7F77DD"/><rect x="688" y="134" width="12" height="11" rx="2" fill="#7F77DD"/><rect x="712" y="134" width="12" height="11" rx="2" fill="#7F77DD"/><rect x="736" y="134" width="12" height="11" rx="2" fill="#7F77DD"/><rect x="760" y="134" width="12" height="11" rx="2" fill="#7F77DD"/><rect x="784" y="134" width="12" height="11" rx="2" fill="#7F77DD"/><rect x="808" y="134" width="12" height="11" rx="2" fill="#7F77DD"/><rect x="832" y="134" width="12" height="11" rx="2" fill="#7F77DD"/><rect x="856" y="134" width="12" height="11" rx="2" fill="#7F77DD"/><rect x="880" y="134" width="12" height="11" rx="2" fill="#7F77DD"/>
<circle cx="555" cy="86" r="58" fill="#3C3489"/><rect x="548" y="20" width="14" height="16" rx="2" fill="#3C3489" transform="rotate(0.0 555 86)"/><rect x="548" y="20" width="14" height="16" rx="2" fill="#3C3489" transform="rotate(30.0 555 86)"/><rect x="548" y="20" width="14" height="16" rx="2" fill="#3C3489" transform="rotate(60.0 555 86)"/><rect x="548" y="20" width="14" height="16" rx="2" fill="#3C3489" transform="rotate(90.0 555 86)"/><rect x="548" y="20" width="14" height="16" rx="2" fill="#3C3489" transform="rotate(120.0 555 86)"/><rect x="548" y="20" width="14" height="16" rx="2" fill="#3C3489" transform="rotate(150.0 555 86)"/><rect x="548" y="20" width="14" height="16" rx="2" fill="#3C3489" transform="rotate(180.0 555 86)"/><rect x="548" y="20" width="14" height="16" rx="2" fill="#3C3489" transform="rotate(210.0 555 86)"/><rect x="548" y="20" width="14" height="16" rx="2" fill="#3C3489" transform="rotate(240.0 555 86)"/><rect x="548" y="20" width="14" height="16" rx="2" fill="#3C3489" transform="rotate(270.0 555 86)"/><rect x="548" y="20" width="14" height="16" rx="2" fill="#3C3489" transform="rotate(300.0 555 86)"/><rect x="548" y="20" width="14" height="16" rx="2" fill="#3C3489" transform="rotate(330.0 555 86)"/><circle cx="555" cy="86" r="19" fill="#EEEDFE"/>
<circle cx="645" cy="106" r="38" fill="#534AB7"/><rect x="638" y="61" width="14" height="15" rx="2" fill="#534AB7" transform="rotate(0.0 645 106)"/><rect x="638" y="61" width="14" height="15" rx="2" fill="#534AB7" transform="rotate(36.0 645 106)"/><rect x="638" y="61" width="14" height="15" rx="2" fill="#534AB7" transform="rotate(72.0 645 106)"/><rect x="638" y="61" width="14" height="15" rx="2" fill="#534AB7" transform="rotate(108.0 645 106)"/><rect x="638" y="61" width="14" height="15" rx="2" fill="#534AB7" transform="rotate(144.0 645 106)"/><rect x="638" y="61" width="14" height="15" rx="2" fill="#534AB7" transform="rotate(180.0 645 106)"/><rect x="638" y="61" width="14" height="15" rx="2" fill="#534AB7" transform="rotate(216.0 645 106)"/><rect x="638" y="61" width="14" height="15" rx="2" fill="#534AB7" transform="rotate(252.0 645 106)"/><rect x="638" y="61" width="14" height="15" rx="2" fill="#534AB7" transform="rotate(288.0 645 106)"/><rect x="638" y="61" width="14" height="15" rx="2" fill="#534AB7" transform="rotate(324.0 645 106)"/><circle cx="645" cy="106" r="13" fill="#EEEDFE"/>
<circle cx="707" cy="118" r="26" fill="#f3c46a"/><rect x="700" y="87" width="14" height="13" rx="2" fill="#f3c46a" transform="rotate(0.0 707 118)"/><rect x="700" y="87" width="14" height="13" rx="2" fill="#f3c46a" transform="rotate(45.0 707 118)"/><rect x="700" y="87" width="14" height="13" rx="2" fill="#f3c46a" transform="rotate(90.0 707 118)"/><rect x="700" y="87" width="14" height="13" rx="2" fill="#f3c46a" transform="rotate(135.0 707 118)"/><rect x="700" y="87" width="14" height="13" rx="2" fill="#f3c46a" transform="rotate(180.0 707 118)"/><rect x="700" y="87" width="14" height="13" rx="2" fill="#f3c46a" transform="rotate(225.0 707 118)"/><rect x="700" y="87" width="14" height="13" rx="2" fill="#f3c46a" transform="rotate(270.0 707 118)"/><rect x="700" y="87" width="14" height="13" rx="2" fill="#f3c46a" transform="rotate(315.0 707 118)"/><circle cx="707" cy="118" r="9" fill="#EEEDFE"/>
<path d="M0,168 C220,160 460,184 700,172 C920,161 1080,180 1200,170 V200 H0 Z" fill="#3C3489"/>
<path d="M0,190 C260,185 540,198 800,191 C1000,186 1120,195 1200,190 V200 H0 Z" fill="#26215C"/>
</svg>
