<svg xmlns="http://www.w3.org/2000/svg" viewBox="0 0 1200 200" role="img" aria-label="Eine Rakete startet über der Hügellandschaft — Aufbruch in neue Berufe">
<rect width="1200" height="200" fill="#EEEDFE"/>
<path d="M210,38 a24,24 0 1 0 0,40 a28,28 0 0 1 0,-40 Z" fill="#CECBF6"/>
<path d="M300,124 L420,66 L540,124 Z" fill="#CECBF6"/>
<path d="M760,124 L880,58 L1000,124 Z" fill="#CECBF6"/>
<g transform="translate(620,58) rotate(18)">
<path d="M0,-52 C14,-34 16,-6 10,18 L-10,18 C-16,-6 -14,-34 0,-52 Z" fill="#26215C"/>
<circle cx="0" cy="-16" r="7" fill="#EEEDFE"/>
<path d="M-10,6 C-22,12 -26,24 -24,34 L-8,20 Z" fill="#3C3489"/>
<path d="M10,6 C22,12 26,24 24,34 L8,20 Z" fill="#3C3489"/>
<path d="M-7,20 L7,20 L0,42 Z" fill="#f3c46a"/>
</g>
<circle cx="560" cy="120" r="4" fill="#AFA9EC"/>
<circle cx="538" cy="136" r="3" fill="#AFA9EC"/>
<circle cx="586" cy="106" r="3" fill="#AFA9EC"/>
<path d="M320,52 q10,-8 20,0 M352,40 q10,-8 20,0" fill="none" stroke="#534AB7" stroke-width="3" stroke-linecap="round"/>
<path d="M0,132 C160,114 340,140 520,126 C720,112 940,138 1200,124 V200 H0 Z" fill="#534AB7"/>
<path d="M0,160 C210,148 440,172 660,160 C880,148 1050,170 1200,159 V200 H0 Z" fill="#3C3489"/>
<path d="M0,186 C240,178 500,196 760,188 C980,181 1110,192 1200,187 V200 H0 Z" fill="#26215C"/>
</svg>
