<svg xmlns="http://www.w3.org/2000/svg" viewBox="0 0 1200 200" role="img" aria-label="Briefumschlag mit goldenem Brief — Lückentext"><rect width="1200" height="200" fill="#EEEDFE"/><path d="M470,60 h260 v70 h-260 Z" fill="#534AB7"/><path d="M470,60 L600,104 L730,60" fill="none" stroke="#26215C" stroke-width="4"/><path d="M470,60 L600,20 L730,60 Z" fill="#7F77DD"/><rect x="560" y="12" width="80" height="52" rx="3" fill="#f3c46a"/><g stroke="#3C3489" stroke-width="3" stroke-linecap="round"><line x1="572" y1="26" x2="628" y2="26"/><line x1="572" y1="36" x2="628" y2="36"/></g><path d="M300,74 q10,-8 20,0 M330,62 q10,-8 20,0" fill="none" stroke="#534AB7" stroke-width="3" stroke-linecap="round"/><path d="M0,124 C160,106 320,140 480,124 C640,108 820,142 1000,124 C1090,115 1150,122 1200,118 V200 H0 Z" fill="#534AB7"/><path d="M0,152 C180,134 380,166 600,152 C820,138 1010,168 1200,152 V200 H0 Z" fill="#3C3489"/><path d="M0,178 C220,164 460,190 700,176 C920,164 1080,188 1200,178 V200 H0 Z" fill="#26215C"/></svg>