<svg xmlns="http://www.w3.org/2000/svg" viewBox="0 0 1200 200" role="img" aria-label="Pfeil trifft goldenes Zielzentrum — Multiple Choice"><rect width="1200" height="200" fill="#EEEDFE"/><circle cx="600" cy="78" r="50" fill="#AFA9EC"/><circle cx="600" cy="78" r="36" fill="#7F77DD"/><circle cx="600" cy="78" r="22" fill="#534AB7"/><circle cx="600" cy="78" r="10" fill="#f3c46a"/><path d="M470,150 L596,82" stroke="#26215C" stroke-width="5" stroke-linecap="round"/><path d="M596,82 l-16,2 l8,14 Z" fill="#26215C"/><path d="M470,150 l-14,-4 l6,-13" fill="none" stroke="#26215C" stroke-width="5" stroke-linecap="round"/><path d="M760,60 q10,-8 20,0 M790,48 q10,-8 20,0" fill="none" stroke="#534AB7" stroke-width="3" stroke-linecap="round"/><path d="M0,124 C160,106 320,140 480,124 C640,108 820,142 1000,124 C1090,115 1150,122 1200,118 V200 H0 Z" fill="#534AB7"/><path d="M0,152 C180,134 380,166 600,152 C820,138 1010,168 1200,152 V200 H0 Z" fill="#3C3489"/><path d="M0,178 C220,164 460,190 700,176 C920,164 1080,188 1200,178 V200 H0 Z" fill="#26215C"/></svg>