<svg xmlns="http://www.w3.org/2000/svg" viewBox="0 0 1200 200" role="img" aria-label="Picknick der Freunde im Park: karierte Decke und Korb zwischen zwei Bäumen unter der goldenen Sonne">
<rect width="1200" height="200" fill="#EEEDFE"/>
<circle cx="300" cy="48" r="26" fill="#f3c46a"/>
<circle cx="300" cy="48" r="37" fill="none" stroke="#f3c46a" stroke-width="2" opacity="0.4"/>
<ellipse cx="205" cy="92" rx="40" ry="46" fill="#CECBF6"/>
<ellipse cx="995" cy="96" rx="44" ry="50" fill="#CECBF6"/>
<rect x="201" y="120" width="8" height="34" fill="#AFA9EC"/><rect x="991" y="126" width="8" height="34" fill="#AFA9EC"/>
<ellipse cx="470" cy="104" rx="30" ry="34" fill="#AFA9EC"/><ellipse cx="740" cy="108" rx="24" ry="28" fill="#AFA9EC"/>
<path d="M0,150 C180,134 380,166 600,152 C820,138 1000,166 1200,152 V200 H0 Z" fill="#7F77DD"/>
<g transform="translate(600,150)">
<path d="M-96,-8 L96,-8 L120,30 L-120,30 Z" fill="#3C3489"/>
<g fill="#EEEDFE" opacity="0.28"><path d="M-60,-8 L-44,-8 L-52,30 L-72,30 Z"/><path d="M-12,-8 L4,-8 L4,30 L-16,30 Z"/><path d="M36,-8 L52,-8 L60,30 L40,30 Z"/></g>
</g>
<path d="M562,142 h30 l-3,-14 h-24 Z" fill="#26215C"/><path d="M559,128 h36" stroke="#26215C" stroke-width="3"/><path d="M563,128 a14,9 0 0 1 28,0" fill="none" stroke="#26215C" stroke-width="3"/>
<path d="M0,178 C240,164 480,190 720,178 C940,166 1090,186 1200,178 V200 H0 Z" fill="#26215C"/>
</svg>