<svg xmlns="http://www.w3.org/2000/svg" viewBox="0 0 1200 200" role="img" aria-label="Eine Doppelhelix über den Wellen — jede Sprosse verbindet genau zwei Hälften, die goldene Sprosse hat ihr Paar gerade gefunden">
<rect width="1200" height="200" fill="#EEEDFE"/>
<line x1="274" y1="96.9" x2="274" y2="71.1" stroke="#AFA9EC" stroke-width="6" stroke-linecap="round"/>
<line x1="300" y1="114.5" x2="300" y2="53.5" stroke="#AFA9EC" stroke-width="6" stroke-linecap="round"/>
<line x1="326" y1="116.8" x2="326" y2="51.2" stroke="#AFA9EC" stroke-width="6" stroke-linecap="round"/>
<line x1="352" y1="102.7" x2="352" y2="65.3" stroke="#AFA9EC" stroke-width="6" stroke-linecap="round"/>
<line x1="404" y1="58.2" x2="404" y2="109.8" stroke="#7F77DD" stroke-width="6" stroke-linecap="round"/>
<line x1="456" y1="58.8" x2="456" y2="109.2" stroke="#7F77DD" stroke-width="6" stroke-linecap="round"/>
<line x1="508" y1="103.5" x2="508" y2="64.5" stroke="#AFA9EC" stroke-width="6" stroke-linecap="round"/>
<line x1="534" y1="117.1" x2="534" y2="50.9" stroke="#AFA9EC" stroke-width="6" stroke-linecap="round"/>
<line x1="560" y1="114.1" x2="560" y2="53.9" stroke="#AFA9EC" stroke-width="6" stroke-linecap="round"/>
<line x1="586" y1="96.0" x2="586" y2="72.0" stroke="#AFA9EC" stroke-width="6" stroke-linecap="round"/>
<line x1="612" y1="72.0" x2="612" y2="96.0" stroke="#7F77DD" stroke-width="6" stroke-linecap="round"/>
<line x1="638" y1="53.9" x2="638" y2="114.1" stroke="#7F77DD" stroke-width="6" stroke-linecap="round"/>
<line x1="664" y1="50.9" x2="664" y2="117.1" stroke="#7F77DD" stroke-width="6" stroke-linecap="round"/>
<line x1="690" y1="64.5" x2="690" y2="103.5" stroke="#7F77DD" stroke-width="6" stroke-linecap="round"/>
<line x1="742" y1="109.2" x2="742" y2="58.8" stroke="#AFA9EC" stroke-width="6" stroke-linecap="round"/>
<line x1="768" y1="118.0" x2="768" y2="50.0" stroke="#AFA9EC" stroke-width="6" stroke-linecap="round"/>
<line x1="794" y1="109.8" x2="794" y2="58.2" stroke="#AFA9EC" stroke-width="6" stroke-linecap="round"/>
<line x1="846" y1="65.3" x2="846" y2="102.7" stroke="#7F77DD" stroke-width="6" stroke-linecap="round"/>
<line x1="872" y1="51.2" x2="872" y2="116.8" stroke="#7F77DD" stroke-width="6" stroke-linecap="round"/>
<line x1="898" y1="53.5" x2="898" y2="114.5" stroke="#7F77DD" stroke-width="6" stroke-linecap="round"/>
<line x1="924" y1="71.1" x2="924" y2="96.9" stroke="#7F77DD" stroke-width="6" stroke-linecap="round"/>
<line x1="429" y1="50.0" x2="429" y2="118.0" stroke="#f3c46a" stroke-width="9" stroke-linecap="round"/>
<path d="M260,84.0 L268,91.5 L276,98.6 L284,105.0 L292,110.4 L300,114.5 L308,117.1 L316,118.0 L324,117.3 L332,114.9 L340,111.0 L348,105.8 L356,99.5 L364,92.4 L372,84.9 L380,77.4 L388,70.2 L396,63.7 L404,58.2 L412,53.9 L420,51.2 L428,50.0 L436,50.6 L444,52.7 L452,56.4 L460,61.5 L468,67.7 L476,74.7 L484,82.1 L492,89.6 L500,96.9 L508,103.5 L516,109.2 L524,113.6 L532,116.6 L540,117.9 L548,117.6 L556,115.6 L564,112.1 L572,107.2 L580,101.1 L588,94.2 L596,86.8 L604,79.3 L612,72.0 L620,65.3 L628,59.5 L636,54.9 L644,51.7 L652,50.2 L660,50.3 L668,52.0 L676,55.4 L684,60.1 L692,66.1 L700,72.9 L708,80.2 L716,87.8 L724,95.1 L732,101.9 L740,107.9 L748,112.6 L756,116.0 L764,117.7 L772,117.8 L780,116.3 L788,113.1 L796,108.5 L804,102.7 L812,96.0 L820,88.7 L828,81.2 L836,73.8 L844,66.9 L852,60.8 L860,55.9 L868,52.4 L876,50.4 L884,50.1 L892,51.4 L900,54.4 L908,58.8 L916,64.5 L924,71.1 L932,78.4 L940,85.9" fill="none" stroke="#3C3489" stroke-width="9" stroke-linecap="round"/>
<path d="M260,84.0 L268,76.5 L276,69.4 L284,63.0 L292,57.6 L300,53.5 L308,50.9 L316,50.0 L324,50.7 L332,53.1 L340,57.0 L348,62.2 L356,68.5 L364,75.6 L372,83.1 L380,90.6 L388,97.8 L396,104.3 L404,109.8 L412,114.1 L420,116.8 L428,118.0 L436,117.4 L444,115.3 L452,111.6 L460,106.5 L468,100.3 L476,93.3 L484,85.9 L492,78.4 L500,71.1 L508,64.5 L516,58.8 L524,54.4 L532,51.4 L540,50.1 L548,50.4 L556,52.4 L564,55.9 L572,60.8 L580,66.9 L588,73.8 L596,81.2 L604,88.7 L612,96.0 L620,102.7 L628,108.5 L636,113.1 L644,116.3 L652,117.8 L660,117.7 L668,116.0 L676,112.6 L684,107.9 L692,101.9 L700,95.1 L708,87.8 L716,80.2 L724,72.9 L732,66.1 L740,60.1 L748,55.4 L756,52.0 L764,50.3 L772,50.2 L780,51.7 L788,54.9 L796,59.5 L804,65.3 L812,72.0 L820,79.3 L828,86.8 L836,94.2 L844,101.1 L852,107.2 L860,112.1 L868,115.6 L876,117.6 L884,117.9 L892,116.6 L900,113.6 L908,109.2 L916,103.5 L924,96.9 L932,89.6 L940,82.1" fill="none" stroke="#534AB7" stroke-width="9" stroke-linecap="round"/>
<path d="M150,52 q10,-8 20,0 M180,40 q10,-8 20,0" fill="none" stroke="#534AB7" stroke-width="3" stroke-linecap="round"/>
<circle cx="1060" cy="70" r="4" fill="#AFA9EC"/>
<circle cx="1092" cy="96" r="3" fill="#CECBF6"/>
<path d="M0,140 C200,124 420,154 640,140 C860,126 1030,156 1200,140 V200 H0 Z" fill="#7F77DD"/>
<path d="M0,162 C210,148 440,176 660,162 C880,148 1050,174 1200,162 V200 H0 Z" fill="#3C3489"/>
<path d="M0,184 C240,174 500,196 760,184 C960,175 1100,192 1200,184 V200 H0 Z" fill="#26215C"/>
</svg>