<svg xmlns="http://www.w3.org/2000/svg" viewBox="0 0 1200 200" role="img" aria-label="Aufgefalteter Bericht mit goldener Schlagzeile — Text und Fragen"><rect width="1200" height="200" fill="#EEEDFE"/><path d="M480,40 h230 v86 h-230 Z" fill="#AFA9EC"/><path d="M480,40 h230 l-16,10 h-198 Z" fill="#7F77DD"/><rect x="498" y="58" width="90" height="14" rx="2" fill="#f3c46a"/><g stroke="#534AB7" stroke-width="4" stroke-linecap="round"><line x1="498" y1="82" x2="588" y2="82"/><line x1="604" y1="82" x2="694" y2="82"/><line x1="498" y1="94" x2="588" y2="94"/><line x1="604" y1="94" x2="694" y2="94"/><line x1="498" y1="106" x2="588" y2="106"/><line x1="604" y1="106" x2="694" y2="106"/></g><rect x="604" y="58" width="90" height="14" rx="2" fill="#534AB7"/><path d="M320,66 q10,-8 20,0 M350,54 q10,-8 20,0" fill="none" stroke="#534AB7" stroke-width="3" stroke-linecap="round"/><path d="M0,124 C160,106 320,140 480,124 C640,108 820,142 1000,124 C1090,115 1150,122 1200,118 V200 H0 Z" fill="#534AB7"/><path d="M0,152 C180,134 380,166 600,152 C820,138 1010,168 1200,152 V200 H0 Z" fill="#3C3489"/><path d="M0,178 C220,164 460,190 700,176 C920,164 1080,188 1200,178 V200 H0 Z" fill="#26215C"/></svg>