<svg xmlns="http://www.w3.org/2000/svg" viewBox="0 0 1200 200" role="img" aria-label="Ein Parlamentsportikus über der Welle — in der Säulenreihe fehlt eine Säule, die goldene schwebt schon herab">
<rect width="1200" height="200" fill="#EEEDFE"/>
<path d="M360,66 L600,22 L840,66 Z" fill="#7F77DD"/>
<rect x="372" y="64" width="456" height="12" fill="#534AB7"/>
<g fill="#3C3489">
<rect x="396" y="82" width="26" height="56"/><rect x="392" y="76" width="34" height="8"/><rect x="391" y="138" width="36" height="8"/>
<rect x="466" y="82" width="26" height="56"/><rect x="462" y="76" width="34" height="8"/><rect x="461" y="138" width="36" height="8"/>
<rect x="536" y="82" width="26" height="56"/><rect x="532" y="76" width="34" height="8"/><rect x="531" y="138" width="36" height="8"/>
<rect x="676" y="82" width="26" height="56"/><rect x="672" y="76" width="34" height="8"/><rect x="671" y="138" width="36" height="8"/>
<rect x="746" y="82" width="26" height="56"/><rect x="742" y="76" width="34" height="8"/><rect x="741" y="138" width="36" height="8"/>
<rect x="806" y="82" width="26" height="56"/><rect x="802" y="76" width="34" height="8"/><rect x="801" y="138" width="36" height="8"/>
</g>
<rect x="600" y="146" width="16" height="0" fill="none"/>
<g fill="#f3c46a"><rect x="602" y="30" width="26" height="46"/><rect x="598" y="24" width="34" height="8"/><rect x="597" y="76" width="36" height="7"/></g>
<line x1="615" y1="86" x2="615" y2="132" stroke="#AFA9EC" stroke-width="2" stroke-dasharray="3 5" opacity="0.7"/>
<path d="M470,52 q9,-7 18,0 M498,44 q9,-7 18,0" fill="none" stroke="#534AB7" stroke-width="3" stroke-linecap="round"/>
<path d="M0,150 C200,134 420,166 640,152 C860,138 1040,166 1200,152 V200 H0 Z" fill="#3C3489"/>
<path d="M0,180 C240,166 500,192 760,180 C980,168 1110,188 1200,180 V200 H0 Z" fill="#26215C"/>
</svg>