<svg xmlns="http://www.w3.org/2000/svg" viewBox="0 0 1200 200" role="img" aria-label="Gestapelte Sprechblasen mit goldener Spitze — Satzbau"><rect width="1200" height="200" fill="#EEEDFE"/><path d="M470,96 h150 q14,0 14,14 v0 q0,14 -14,14 h-90 l-20,16 v-16 h-40 q-14,0 -14,-14 q0,-14 14,-14 Z" fill="#3C3489"/><path d="M500,64 h120 q14,0 14,14 q0,14 -14,14 h-120 q-14,0 -14,-14 q0,-14 14,-14 Z" fill="#534AB7"/><path d="M520,36 h90 q12,0 12,12 q0,12 -12,12 h-90 q-12,0 -12,-12 q0,-12 12,-12 Z" fill="#f3c46a"/><path d="M760,60 q10,-8 20,0 M790,48 q10,-8 20,0" fill="none" stroke="#534AB7" stroke-width="3" stroke-linecap="round"/><path d="M0,124 C160,106 320,140 480,124 C640,108 820,142 1000,124 C1090,115 1150,122 1200,118 V200 H0 Z" fill="#534AB7"/><path d="M0,152 C180,134 380,166 600,152 C820,138 1010,168 1200,152 V200 H0 Z" fill="#3C3489"/><path d="M0,178 C220,164 460,190 700,176 C920,164 1080,188 1200,178 V200 H0 Z" fill="#26215C"/></svg>