<svg xmlns="http://www.w3.org/2000/svg" viewBox="0 0 1200 200" role="img" aria-label="Eine Gabel zeichnet die vordere Welle — Schreiben rund ums Essen"><rect width="1200" height="200" fill="#EEEDFE"/><circle cx="1060" cy="46" r="24" fill="#f3c46a"/><circle cx="1060" cy="46" r="37" fill="none" stroke="#f3c46a" stroke-width="2" opacity="0.42"/><path d="M0,126 C150,110 320,134 520,124 C600,120 660,124 700,122 L700,200 L0,200 Z" fill="#7F77DD"/><path d="M0,126 C150,110 320,134 520,124 C600,120 660,124 698,122" fill="none" stroke="#534AB7" stroke-width="4" stroke-linecap="round"/><g transform="translate(700,122) rotate(-32)"><rect x="-6" y="-118" width="12" height="70" rx="5" fill="#3C3489"/><path d="M-16,-48 L16,-48 L12,-20 C12,-8 -12,-8 -12,-20 Z" fill="#26215C"/><g stroke="#26215C" stroke-width="4" stroke-linecap="round"><line x1="-12" y1="-48" x2="-12" y2="-70"/><line x1="0" y1="-48" x2="0" y2="-70"/><line x1="12" y1="-48" x2="12" y2="-70"/></g></g><circle cx="672" cy="140" r="4.5" fill="#f3c46a"/><circle cx="648" cy="152" r="3" fill="#3C3489"/><path d="M0,150 C190,132 400,164 620,150 C840,136 1020,166 1200,150 V200 H0 Z" fill="#3C3489"/><path d="M0,180 C240,166 480,192 720,178 C940,166 1090,188 1200,178 V200 H0 Z" fill="#26215C"/></svg>