<svg xmlns="http://www.w3.org/2000/svg" viewBox="0 0 1200 200" role="img" aria-label="Eine goldene Glühbirne der Lösung über einer Waage">
<rect width="1200" height="200" fill="#EEEDFE"/>
<g stroke="#f3c46a" stroke-width="3" stroke-linecap="round">
<line x1="600" y1="16" x2="600" y2="4"/><line x1="558" y1="26" x2="549" y2="17"/><line x1="642" y1="26" x2="651" y2="17"/>
<line x1="542" y1="60" x2="530" y2="58"/><line x1="658" y1="60" x2="670" y2="58"/></g>
<circle cx="600" cy="52" r="22" fill="#f3c46a"/>
<rect x="590" y="72" width="20" height="10" rx="2" fill="#26215C"/>
<line x1="600" y1="82" x2="600" y2="104" stroke="#26215C" stroke-width="5"/>
<path d="M320,104 L880,104" stroke="#26215C" stroke-width="6" stroke-linecap="round"/>
<g stroke="#26215C" stroke-width="2.5">
<line x1="360" y1="104" x2="340" y2="132"/><line x1="360" y1="104" x2="380" y2="132"/>
<line x1="840" y1="104" x2="820" y2="132"/><line x1="840" y1="104" x2="860" y2="132"/></g>
<path d="M332,132 a28,12 0 0 0 56,0 Z" fill="#3C3489"/>
<path d="M812,132 a28,12 0 0 0 56,0 Z" fill="#3C3489"/>
<rect x="350" y="120" width="20" height="14" rx="2" fill="#534AB7"/>
<rect x="828" y="116" width="20" height="18" rx="2" fill="#534AB7"/>
<path d="M0,152 C190,134 400,166 620,152 C840,138 1020,168 1200,152 V200 H0 Z" fill="#534AB7"/>
<path d="M0,172 C220,156 470,188 720,172 C940,160 1090,184 1200,172 V200 H0 Z" fill="#3C3489"/>
<path d="M0,189 C240,175 500,201 760,189 C980,177 1110,199 1200,189 V200 H0 Z" fill="#26215C"/>
</svg>