<svg xmlns="http://www.w3.org/2000/svg" viewBox="0 0 1200 200" role="img" aria-label="Eine Schriftrolle entrollt sich — ihre unterste Zeile wird zur vorderen Welle">
<rect width="1200" height="200" fill="#EEEDFE"/>
<circle cx="880" cy="52" r="26" fill="#f3c46a"/>
<circle cx="880" cy="52" r="37" fill="none" stroke="#f3c46a" stroke-width="2" opacity="0.4"/>
<g>
<rect x="336" y="78" width="228" height="48" fill="#CECBF6"/>
<g stroke="#7F77DD" stroke-width="3" stroke-linecap="round">
<line x1="368" y1="92" x2="548" y2="92"/><line x1="368" y1="104" x2="536" y2="104"/>
</g>
<ellipse cx="336" cy="102" rx="15" ry="28" fill="#3C3489"/>
</g>
<path d="M0,150 C120,146 240,142 356,140 L562,124 C700,132 860,150 1010,150 C1100,150 1160,150 1200,148 V200 H0 Z" fill="#3C3489"/>
<circle cx="470" cy="119" r="6" fill="#f3c46a"/>
<path d="M0,182 C220,168 460,194 700,180 C920,168 1090,190 1200,180 V200 H0 Z" fill="#26215C"/>
</svg>
