<svg xmlns="http://www.w3.org/2000/svg" viewBox="0 0 1200 200" role="img" aria-label="Eine Reihe von Tempelsäulen auf der Welle — eine Säule fehlt und die goldene Säule schwebt über ihrer Lücke">
<rect width="1200" height="200" fill="#EEEDFE"/>
<g>
<g fill="#534AB7">
<rect x="292" y="86" width="26" height="58"/><rect x="286" y="80" width="38" height="8" rx="2"/><rect x="286" y="142" width="38" height="7" rx="2"/>
<rect x="392" y="86" width="26" height="58"/><rect x="386" y="80" width="38" height="8" rx="2"/><rect x="386" y="142" width="38" height="7" rx="2"/>
<rect x="492" y="86" width="26" height="58"/><rect x="486" y="80" width="38" height="8" rx="2"/><rect x="486" y="142" width="38" height="7" rx="2"/>
</g>
<g fill="#3C3489">
<rect x="692" y="86" width="26" height="58"/><rect x="686" y="80" width="38" height="8" rx="2"/><rect x="686" y="142" width="38" height="7" rx="2"/>
<rect x="792" y="86" width="26" height="58"/><rect x="786" y="80" width="38" height="8" rx="2"/><rect x="786" y="142" width="38" height="7" rx="2"/>
<rect x="892" y="86" width="26" height="58"/><rect x="886" y="80" width="38" height="8" rx="2"/><rect x="886" y="142" width="38" height="7" rx="2"/>
</g>
</g>
<path d="M580,144 L624,144" stroke="#AFA9EC" stroke-width="2" stroke-dasharray="3 6"/>
<rect x="592" y="40" width="24" height="52" fill="#f3c46a"/>
<rect x="586" y="34" width="36" height="8" rx="2" fill="#f3c46a"/>
<rect x="586" y="92" width="36" height="7" rx="2" fill="#f3c46a"/>
<path d="M604,99 L604,132" stroke="#f3c46a" stroke-width="2" stroke-dasharray="2 7" stroke-linecap="round"/>
<path d="M0,150 C190,132 400,164 620,150 C840,134 1030,162 1200,150 V200 H0 Z" fill="#3C3489"/>
<path d="M0,180 C220,166 460,192 700,178 C920,166 1090,188 1200,178 V200 H0 Z" fill="#26215C"/>
</svg>
