<svg xmlns="http://www.w3.org/2000/svg" viewBox="0 0 1200 200" role="img" aria-label="Ein großer Spielwürfel auf der Welle — die goldene Sechs oben">
<rect width="1200" height="200" fill="#EEEDFE"/>
<path d="M700,150 L850,102 L1010,150 Z" fill="#CECBF6"/>
<path d="M260,64 q10,-8 20,0 M294,52 q10,-8 20,0" fill="none" stroke="#534AB7" stroke-width="3" stroke-linecap="round"/>
<g transform="rotate(-8 590 100)">
<path d="M530,70 L610,52 L668,74 L668,140 L588,158 L530,136 Z" fill="#3C3489"/>
<path d="M530,70 L610,52 L668,74 L588,92 Z" fill="#f3c46a"/>
<path d="M530,70 L588,92 L588,158 L530,136 Z" fill="#26215C"/>
<g fill="#26215C">
<circle cx="560" cy="73" r="5"/><circle cx="598" cy="64" r="5"/><circle cx="636" cy="76" r="5"/>
<circle cx="572" cy="82" r="5"/><circle cx="610" cy="73" r="5"/><circle cx="624" cy="67" r="5"/>
</g>
<g fill="#EEEDFE">
<circle cx="614" cy="102" r="6"/><circle cx="640" cy="112" r="6"/><circle cx="614" cy="128" r="6"/><circle cx="640" cy="138" r="6"/>
</g>
<g fill="#AFA9EC">
<circle cx="548" cy="98" r="5"/><circle cx="570" cy="122" r="5"/>
</g>
</g>
<path d="M0,152 C190,142 400,160 620,151 C840,142 1030,158 1200,150 V200 H0 Z" fill="#534AB7"/>
<circle cx="880" cy="162" r="3" fill="#AFA9EC"/>
<path d="M0,172 C220,164 450,182 670,172 C890,164 1060,178 1200,171 V200 H0 Z" fill="#3C3489"/>
<path d="M0,191 C240,186 500,198 760,192 C980,188 1120,196 1200,192 V200 H0 Z" fill="#26215C"/>
</svg>
