<svg xmlns="http://www.w3.org/2000/svg" viewBox="0 0 1200 200" role="img" aria-label="Die Landschaft spiegelt sich im Wasser — doch nur die Spiegelung hat eine goldene Sonne">
<rect width="1200" height="200" fill="#EEEDFE"/>
<path d="M200,96 L310,34 L420,96 Z" fill="#AFA9EC"/>
<path d="M380,96 L520,16 L660,96 Z" fill="#7F77DD"/>
<path d="M620,96 L730,44 L840,96 Z" fill="#534AB7"/>
<path d="M280,52 q10,-8 20,0" fill="none" stroke="#7F77DD" stroke-width="3" stroke-linecap="round"/>
<path d="M900,44 q10,-8 20,0 M930,32 q10,-8 20,0" fill="none" stroke="#AFA9EC" stroke-width="3" stroke-linecap="round"/>
<rect y="96" width="1200" height="104" fill="#CECBF6"/>
<line x1="0" y1="96" x2="1200" y2="96" stroke="#EEEDFE" stroke-width="3"/>
<g opacity="0.55">
<path d="M200,98 L310,144 L420,98 Z" fill="#AFA9EC"/>
<path d="M380,98 L520,158 L660,98 Z" fill="#7F77DD"/>
<path d="M620,98 L730,136 L840,98 Z" fill="#534AB7"/>
</g>
<circle cx="990" cy="130" r="24" fill="#f3c46a"/>
<circle cx="990" cy="130" r="35" fill="none" stroke="#f3c46a" stroke-width="2" opacity="0.45"/>
<g stroke="#EEEDFE" stroke-width="4" stroke-linecap="round" opacity="0.9">
<line x1="240" y1="112" x2="470" y2="112"/><line x1="330" y1="128" x2="600" y2="128"/>
<line x1="420" y1="144" x2="700" y2="144"/><line x1="560" y1="116" x2="790" y2="116"/>
<line x1="60" y1="124" x2="180" y2="124"/><line x1="880" y1="110" x2="1120" y2="110"/>
<line x1="930" y1="152" x2="1140" y2="152"/>
</g>
<path d="M0,170 C220,160 460,186 700,173 C920,162 1080,182 1200,172 V200 H0 Z" fill="#3C3489"/>
<path d="M0,190 C260,184 540,198 800,191 C1000,186 1120,194 1200,190 V200 H0 Z" fill="#26215C"/>
</svg>