<svg xmlns="http://www.w3.org/2000/svg" viewBox="0 0 1200 200" role="img" aria-label="Praepositionen-Landschaft: ein goldener Ball liegt auf dem Huegel, unter der Bruecke und zwischen zwei Baeumen">
<rect width="1200" height="200" fill="#EEEDFE"/>
<ellipse cx="360" cy="102" rx="30" ry="36" fill="#CECBF6"/><rect x="356" y="128" width="8" height="24" fill="#AFA9EC"/>
<ellipse cx="840" cy="102" rx="30" ry="36" fill="#CECBF6"/><rect x="836" y="128" width="8" height="24" fill="#AFA9EC"/>
<path d="M470,150 C470,96 730,96 730,150" fill="none" stroke="#AFA9EC" stroke-width="10"/>
<path d="M520,150 L600,110 L680,150 Z" fill="#7F77DD"/>
<circle cx="600" cy="102" r="14" fill="#f3c46a"/>
<path d="M0,150 C200,134 420,164 620,150 C820,136 1010,164 1200,150 V200 H0 Z" fill="#534AB7"/>
<path d="M0,178 C240,166 500,190 760,178 C980,168 1100,186 1200,178 V200 H0 Z" fill="#26215C"/>
</svg>