<svg xmlns="http://www.w3.org/2000/svg" viewBox="0 0 1200 200" role="img" aria-label="Ein stiller Bergsee spiegelt den goldenen Mond zwischen den Bergen">
<rect width="1200" height="200" fill="#EEEDFE"/>
<circle cx="600" cy="46" r="23" fill="#f3c46a"/>
<circle cx="600" cy="46" r="33" fill="none" stroke="#f3c46a" stroke-width="2" opacity="0.4"/>
<circle cx="380" cy="38" r="2.5" fill="#AFA9EC"/><circle cx="820" cy="36" r="2.5" fill="#AFA9EC"/>
<path d="M0,120 L150,74 L300,120 Z" fill="#CECBF6"/>
<path d="M760,120 L900,66 L1050,120 Z" fill="#CECBF6"/>
<path d="M120,120 L360,60 L600,120 Z" fill="#AFA9EC"/>
<path d="M560,120 L820,72 L1080,120 Z" fill="#7F77DD"/>
<path d="M0,120 H1200 V132 H0 Z" fill="#534AB7"/>
<g fill="#f3c46a" opacity="0.55">
<circle cx="600" cy="140" r="6"/><circle cx="600" cy="154" r="4"/><circle cx="600" cy="166" r="3"/>
</g>
<path d="M0,146 C220,138 460,152 700,146 C920,140 1080,150 1200,145 V200 H0 Z" fill="#3C3489"/>
<path d="M0,178 C240,170 500,190 760,180 C980,172 1120,186 1200,180 V200 H0 Z" fill="#26215C"/>
</svg>
