<svg xmlns="http://www.w3.org/2000/svg" viewBox="0 0 1200 200" role="img" aria-label="Bergpanorama: ein Fahrradrad als leuchtende Sonne über den Gipfeln"><rect width="1200" height="200" fill="#EEEDFE"/><circle cx="880" cy="58" r="30" fill="#f3c46a"/><circle cx="880" cy="58" r="30" fill="none" stroke="#26215C" stroke-width="3"/><circle cx="880" cy="58" r="6" fill="#26215C"/><line x1="880" y1="58" x2="910.0" y2="58.0" stroke="#26215C" stroke-width="1.6"/><line x1="880" y1="58" x2="901.2132047804594" y2="79.21320209073342" stroke="#26215C" stroke-width="1.6"/><line x1="880" y1="58" x2="880.0000038038469" y2="87.99999999999976" stroke="#26215C" stroke-width="1.6"/><line x1="880" y1="58" x2="858.7868005989928" y2="79.21320747018495" stroke="#26215C" stroke-width="1.6"/><line x1="880" y1="58" x2="850.0000000000009" y2="58.000007607693796" stroke="#26215C" stroke-width="1.6"/><line x1="880" y1="58" x2="858.7867898400898" y2="36.78680328871948" stroke="#26215C" stroke-width="1.6"/><line x1="880" y1="58" x2="879.9999885884592" y2="28.00000000000217" stroke="#26215C" stroke-width="1.6"/><line x1="880" y1="58" x2="901.2131940215536" y2="36.78678715036488" stroke="#26215C" stroke-width="1.6"/><path d="M0,120 L180,70 L360,120 Z" fill="#CECBF6"/><path d="M250,120 L470,52 L690,120 Z" fill="#AFA9EC"/><path d="M520,120 L700,64 L900,120 Z" fill="#7F77DD"/><path d="M100,96 q10,-8 20,0 M130,86 q10,-8 20,0" fill="none" stroke="#534AB7" stroke-width="3" stroke-linecap="round"/><path d="M0,132 C220,118 430,150 650,134 C880,118 1050,150 1200,134 V200 H0 Z" fill="#534AB7"/><path d="M0,150 C200,134 420,166 640,150 C860,134 1040,166 1200,150 V200 H0 Z" fill="#3C3489"/><path d="M0,180 C240,166 480,192 720,178 C940,166 1090,188 1200,178 V200 H0 Z" fill="#26215C"/></svg>