<svg xmlns="http://www.w3.org/2000/svg" viewBox="0 0 1200 200" role="img" aria-label="Aus Buchstaben-Bausteinen wächst ein Wort-Turm über der Welle — der goldene Baustein schließt das Spielwort">
<rect width="1200" height="200" fill="#EEEDFE"/>
<circle cx="1050" cy="48" r="22" fill="#AFA9EC"/>
<circle cx="1050" cy="48" r="32" fill="none" stroke="#AFA9EC" stroke-width="2" opacity="0.4"/>
<g fill="#7F77DD"><rect x="540" y="102" width="30" height="28" rx="3"/><rect x="572" y="102" width="30" height="28" rx="3"/><rect x="604" y="102" width="30" height="28" rx="3"/><rect x="556" y="72" width="30" height="28" rx="3"/><rect x="588" y="72" width="30" height="28" rx="3"/></g>
<rect x="572" y="44" width="30" height="26" rx="3" fill="#f3c46a"/>
<path d="M587,70 v4" stroke="#f3c46a" stroke-width="2" stroke-dasharray="2 2"/>
<path d="M0,148 C190,130 400,162 620,148 C840,134 1020,164 1200,148 V200 H0 Z" fill="#3C3489"/>
<path d="M0,180 C240,166 480,192 720,178 C940,166 1090,188 1200,178 V200 H0 Z" fill="#26215C"/>
</svg>
