<svg xmlns="http://www.w3.org/2000/svg" viewBox="0 0 1200 200" role="img" aria-label="Zwei Lautsprechertürme stehen sich gegenüber — nur aus einem steigen goldene Schallbögen auf, der andere schweigt">
<rect width="1200" height="200" fill="#EEEDFE"/>
<path d="M0,140 C160,120 320,132 480,126 C660,119 820,134 1000,124 C1090,119 1150,124 1200,120 V200 H0 Z" fill="#AFA9EC"/>
<g fill="none" stroke="#f3c46a" stroke-width="6" stroke-linecap="round">
<path d="M452,60 a44,44 0 0 1 0,64"/>
<path d="M478,44 a66,66 0 0 1 0,96"/>
<path d="M504,28 a88,88 0 0 1 0,128"/>
</g>
<g fill="#26215C">
<rect x="326" y="46" width="94" height="106" rx="6"/>
<rect x="780" y="46" width="94" height="106" rx="6"/>
</g>
<g fill="#7F77DD">
<circle cx="373" cy="76" r="17"/><circle cx="373" cy="120" r="24"/>
<circle cx="827" cy="76" r="17"/><circle cx="827" cy="120" r="24"/>
</g>
<g fill="#CECBF6"><circle cx="373" cy="76" r="6"/><circle cx="373" cy="120" r="8"/><circle cx="827" cy="76" r="6"/><circle cx="827" cy="120" r="8"/></g>
<g fill="#3C3489"><rect x="318" y="152" width="110" height="10" rx="3"/><rect x="772" y="152" width="110" height="10" rx="3"/></g>
<path d="M600,52 q10,-8 20,0 M632,40 q10,-8 20,0" fill="none" stroke="#534AB7" stroke-width="3" stroke-linecap="round"/>
<path d="M0,162 C200,150 420,178 640,164 C860,150 1040,176 1200,162 V200 H0 Z" fill="#3C3489"/>
<path d="M0,186 C240,176 500,196 760,184 C980,174 1110,190 1200,182 V200 H0 Z" fill="#26215C"/>
</svg>
