<svg xmlns="http://www.w3.org/2000/svg" viewBox="0 0 1200 200" role="img" aria-label="Ein Bewerbungsbrief segelt auf der Welle heran — seine Faltkante ist die Wellenkante selbst, vorn oeffnet sich die goldene Tuer der Chance">
<rect width="1200" height="200" fill="#EEEDFE"/>
<path d="M980,124 L980,58 q0,-14 30,-14 q30,0 30,14 L1040,124 Z" fill="#f3c46a"/>
<path d="M998,124 L998,74 q0,-8 12,-8 q12,0 12,8 L1022,124 Z" fill="#EEEDFE" opacity="0.5"/>
<path d="M0,124 C160,112 320,120 470,120 L470,120 L360,120 Z" fill="none"/>
<path d="M360,120 L520,120 L440,88 Z" fill="#7F77DD"/>
<path d="M440,88 L440,120 L520,120 Z" fill="#534AB7"/>
<g stroke="#EEEDFE" stroke-width="2" opacity="0.7"><line x1="410" y1="104" x2="470" y2="104"/><line x1="418" y1="112" x2="472" y2="112"/></g>
<path d="M0,120 C160,110 320,124 470,120 C620,116 760,122 900,120 C1000,119 1120,122 1200,120 V200 H0 Z" fill="#534AB7"/>
<path d="M0,150 C190,134 400,162 620,150 C840,138 1020,162 1200,150 V200 H0 Z" fill="#3C3489"/>
<path d="M0,150 C190,132 400,164 620,150 C840,136 1020,164 1200,150 V200 H0 Z" fill="#3C3489"/>
<path d="M0,180 C240,166 480,192 720,178 C940,166 1090,188 1200,178 V200 H0 Z" fill="#26215C"/>
</svg>
