<svg xmlns="http://www.w3.org/2000/svg" viewBox="0 0 1200 200" role="img" aria-label="Zwei ungleich große Berge liegen in den Schalen einer Waage — die goldene Sonne balanciert auf dem Drehpunkt">
<rect width="1200" height="200" fill="#EEEDFE"/>
<path d="M170,74 q10,-8 20,0 M200,62 q10,-8 20,0" fill="none" stroke="#AFA9EC" stroke-width="3" stroke-linecap="round"/>
<line x1="600" y1="46" x2="600" y2="150" stroke="#26215C" stroke-width="9" stroke-linecap="round"/>
<path d="M548,150 L652,150 L600,114 Z" fill="#26215C"/>
<line x1="290" y1="34" x2="910" y2="58" stroke="#26215C" stroke-width="8" stroke-linecap="round"/>
<circle cx="600" cy="46" r="10" fill="#26215C"/>
<circle cx="600" cy="18" r="21" fill="#f3c46a"/>
<line x1="290" y1="36" x2="290" y2="96" stroke="#3C3489" stroke-width="4"/>
<line x1="910" y1="60" x2="910" y2="116" stroke="#3C3489" stroke-width="4"/>
<path d="M235,96 L290,60 L345,96 Z" fill="#7F77DD"/>
<path d="M215,96 L365,96 A75,42 0 0 1 215,96 Z" fill="#534AB7"/>
<line x1="215" y1="96" x2="365" y2="96" stroke="#3C3489" stroke-width="4"/>
<path d="M835,116 L910,66 L985,116 Z" fill="#7F77DD"/>
<path d="M820,116 L1000,116 A90,46 0 0 1 820,116 Z" fill="#534AB7"/>
<line x1="820" y1="116" x2="1000" y2="116" stroke="#3C3489" stroke-width="4"/>
<path d="M0,152 C200,142 420,168 640,156 C860,144 1040,168 1200,154 V200 H0 Z" fill="#3C3489"/>
<path d="M0,182 C240,172 500,196 760,183 C980,172 1110,190 1200,182 V200 H0 Z" fill="#26215C"/>
</svg>