<svg xmlns="http://www.w3.org/2000/svg" viewBox="0 0 1200 200" role="img" aria-label="Über einer vernetzten Skyline steigen Sprechblasen auf — das digitale Gespräch unter der goldenen Sonne">
<rect width="1200" height="200" fill="#EEEDFE"/>
<circle cx="880" cy="50" r="26" fill="#f3c46a"/>
<circle cx="880" cy="50" r="37" fill="none" stroke="#f3c46a" stroke-width="2" opacity="0.45"/>
<g fill="#AFA9EC"><rect x="200" y="104" width="34" height="42" rx="2"/><rect x="300" y="92" width="34" height="54" rx="2"/><rect x="410" y="110" width="34" height="36" rx="2"/></g>
<g stroke="#7F77DD" stroke-width="2" stroke-dasharray="4 5"><line x1="217" y1="104" x2="317" y2="92"/><line x1="317" y1="92" x2="427" y2="110"/></g>
<g fill="#7F77DD"><rect x="520" y="70" width="80" height="44" rx="10"/><path d="M536,112 l0,14 l14,-12 z"/></g>
<g fill="#534AB7"><rect x="640" y="90" width="64" height="36" rx="10"/><path d="M654,124 l0,14 l14,-12 z"/></g>
<g stroke="#EEEDFE" stroke-width="4" stroke-linecap="round" opacity="0.85"><line x1="536" y1="86" x2="584" y2="86"/><line x1="536" y1="98" x2="576" y2="98"/><line x1="654" y1="104" x2="690" y2="104"/></g>
<path d="M0,134 C170,112 340,142 520,130 C700,118 900,144 1200,128 V200 H0 Z" fill="#7F77DD"/>
<path d="M0,158 C190,140 400,170 620,156 C840,142 1020,172 1200,156 V200 H0 Z" fill="#3C3489"/>
<path d="M0,184 C240,170 480,196 720,182 C940,170 1090,192 1200,182 V200 H0 Z" fill="#26215C"/>
</svg>
