<svg xmlns="http://www.w3.org/2000/svg" viewBox="0 0 1200 200" role="img" aria-label="Zwei Treppen führen von verschiedenen Seiten auf denselben Gipfel — in der linken Treppe fehlt eine Stufe, die goldene schwebt über der Lücke">
<rect width="1200" height="200" fill="#EEEDFE"/>
<path d="M120,120 L240,74 L360,120 Z" fill="#CECBF6"/>
<path d="M880,120 L1000,78 L1120,120 Z" fill="#CECBF6"/>
<path d="M300,56 q10,-8 20,0 M330,44 q10,-8 20,0" fill="none" stroke="#AFA9EC" stroke-width="3" stroke-linecap="round"/>
<path d="M410,150 L600,32 L790,150 Z" fill="#AFA9EC"/>
<g fill="#3C3489">
<rect x="440" y="140" width="42" height="12"/>
<rect x="466" y="122" width="42" height="12"/>
<rect x="492" y="104" width="42" height="12"/>
<rect x="544" y="68" width="42" height="12"/>
<rect x="570" y="50" width="42" height="12"/>
</g>
<g fill="#26215C">
<rect x="718" y="140" width="42" height="12"/>
<rect x="692" y="122" width="42" height="12"/>
<rect x="666" y="104" width="42" height="12"/>
<rect x="640" y="86" width="42" height="12"/>
<rect x="614" y="68" width="42" height="12"/>
<rect x="588" y="50" width="42" height="12"/>
</g>
<rect x="514" y="48" width="42" height="12" fill="#f3c46a"/>
<path d="M0,146 C170,132 360,158 560,150 C800,140 990,158 1200,144 V200 H0 Z" fill="#7F77DD"/>
<path d="M0,170 C220,158 460,184 700,172 C900,161 1050,178 1200,166 V200 H0 Z" fill="#3C3489"/>
<path d="M0,190 C260,182 520,200 780,192 C980,186 1100,196 1200,190 V200 H0 Z" fill="#26215C"/>
<circle cx="250" cy="160" r="4" fill="#EEEDFE" opacity="0.45"/>
<circle cx="960" cy="156" r="3" fill="#EEEDFE" opacity="0.45"/>
</svg>
