<svg xmlns="http://www.w3.org/2000/svg" viewBox="0 0 1200 200" role="img" aria-label="Eine Uferlinie spiegelt sich im Wasser — oben die wirkliche Welt, unten ihr blasses Spiegelbild, dazu der goldene Mond: das Mögliche und das Wirkliche">
<rect width="1200" height="200" fill="#EEEDFE"/>
<path d="M470,42 a20,20 0 1 0 0,40 a24,24 0 0 1 0,-40 Z" fill="#f3c46a"/>
<path d="M0,104 L150,104 L210,72 L250,90 L330,58 L410,92 L470,104 L620,104 L690,66 L760,96 L840,74 L920,100 L1200,104 L1200,104 L0,104 Z" fill="#534AB7"/>
<g fill="#7F77DD"><rect x="300" y="80" width="16" height="24"/><rect x="720" y="82" width="16" height="22"/></g>
<rect x="0" y="104" width="1200" height="2" fill="#26215C" opacity="0.4"/>
<g opacity="0.4"><path d="M0,108 L150,108 L210,140 L250,122 L330,154 L410,120 L470,108 L620,108 L690,146 L760,116 L840,138 L920,112 L1200,108 L1200,108 L0,108 Z" fill="#3C3489"/></g>
<g opacity="0.25" fill="#3C3489"><rect x="300" y="108" width="16" height="24"/><rect x="720" y="108" width="16" height="22"/></g>
<circle cx="470" cy="128" r="7" fill="#AFA9EC" opacity="0.35"/>
<path d="M0,150 C200,140 420,160 640,150 C860,142 1040,158 1200,150 V200 H0 Z" fill="#3C3489"/>
<path d="M0,180 C240,170 500,190 760,180 C980,172 1110,188 1200,180 V200 H0 Z" fill="#26215C"/>
</svg>