<svg xmlns="http://www.w3.org/2000/svg" viewBox="0 0 1200 200" role="img" aria-label="Eine goldene Münze fällt in ein Sparschwein">
<rect width="1200" height="200" fill="#EEEDFE"/>
<circle cx="600" cy="34" r="16" fill="#f3c46a"/>
<circle cx="600" cy="34" r="24" fill="none" stroke="#f3c46a" stroke-width="2" opacity="0.4"/>
<g fill="#3C3489">
<ellipse cx="600" cy="120" rx="96" ry="58"/>
<path d="M690,96 q34,-10 40,18 q-22,6 -40,-2 Z"/>
<rect x="540" y="164" width="16" height="22" rx="4"/>
<rect x="580" y="168" width="16" height="20" rx="4"/>
<rect x="630" y="168" width="16" height="20" rx="4"/>
<rect x="668" y="164" width="16" height="22" rx="4"/>
<path d="M516,116 q-30,-6 -34,20 q22,4 34,-6 Z"/>
</g>
<ellipse cx="732" cy="112" rx="9" ry="12" fill="#26215C"/>
<rect x="576" y="70" width="48" height="7" rx="3" fill="#26215C"/>
<path d="M690,150 q26,18 44,4" fill="none" stroke="#26215C" stroke-width="7" stroke-linecap="round"/>
<circle cx="640" cy="112" r="5" fill="#EEEDFE" opacity="0.8"/>
<path d="M0,150 C190,132 400,164 620,150 C840,136 1020,166 1200,150 V200 H0 Z" fill="#534AB7"/>
<path d="M0,172 C220,156 470,188 720,172 C940,160 1090,184 1200,172 V200 H0 Z" fill="#3C3489"/>
<path d="M0,189 C240,175 500,201 760,189 C980,177 1110,199 1200,189 V200 H0 Z" fill="#26215C"/>
</svg>