<svg xmlns="http://www.w3.org/2000/svg" viewBox="0 0 1200 200" role="img" aria-label="Heißluftballons in verschiedenen Mustern schweben über der Landschaft — einer leuchtet golden">
<rect width="1200" height="200" fill="#EEEDFE"/>
<path d="M170,36 a24,24 0 1 0 0,40 a28,28 0 0 1 0,-40 Z" fill="#CECBF6"/>
<g>
<path d="M360,40 a34,36 0 0 1 34,36 c0,20 -16,30 -34,46 c-18,-16 -34,-26 -34,-46 a34,36 0 0 1 34,-36 Z" fill="#534AB7"/>
<path d="M360,40 c8,18 8,60 0,82 c-8,-22 -8,-64 0,-82 Z" fill="#7F77DD"/>
<rect x="351" y="128" width="18" height="13" rx="3" fill="#26215C"/>
<line x1="348" y1="118" x2="352" y2="128" stroke="#26215C" stroke-width="2"/>
<line x1="372" y1="118" x2="368" y2="128" stroke="#26215C" stroke-width="2"/>
</g>
<g>
<path d="M600,24 a38,40 0 0 1 38,40 c0,22 -18,33 -38,51 c-20,-18 -38,-29 -38,-51 a38,40 0 0 1 38,-40 Z" fill="#f3c46a"/>
<rect x="590" y="122" width="20" height="14" rx="3" fill="#26215C"/>
<line x1="586" y1="112" x2="590" y2="122" stroke="#26215C" stroke-width="2"/>
<line x1="614" y1="112" x2="610" y2="122" stroke="#26215C" stroke-width="2"/>
</g>
<g>
<path d="M840,52 a30,32 0 0 1 30,32 c0,18 -14,26 -30,40 c-16,-14 -30,-22 -30,-40 a30,32 0 0 1 30,-32 Z" fill="#3C3489"/>
<path d="M812,88 q28,-12 56,0 l0,0 q-28,-10 -56,0 Z" fill="#AFA9EC"/>
<rect x="832" y="130" width="16" height="12" rx="3" fill="#26215C"/>
<line x1="829" y1="121" x2="833" y2="130" stroke="#26215C" stroke-width="2"/>
<line x1="851" y1="121" x2="847" y2="130" stroke="#26215C" stroke-width="2"/>
</g>
<path d="M470,86 q10,-8 20,0 M502,74 q10,-8 20,0" fill="none" stroke="#534AB7" stroke-width="3" stroke-linecap="round"/>
<path d="M0,152 C180,140 380,160 600,150 C820,140 1020,158 1200,149 V200 H0 Z" fill="#534AB7"/>
<path d="M0,172 C210,164 440,182 660,172 C880,164 1050,178 1200,171 V200 H0 Z" fill="#3C3489"/>
<path d="M0,191 C240,186 500,198 760,192 C980,188 1120,196 1200,192 V200 H0 Z" fill="#26215C"/>
</svg>
