<svg xmlns="http://www.w3.org/2000/svg" viewBox="0 0 1200 200" role="img" aria-label="Panorama der Welträtsel: verschieden große Planeten steigen zwischen den Hügeln auf, der goldene darüber">
<rect width="1200" height="200" fill="#EEEDFE"/>
<circle cx="210" cy="48" r="2" fill="#EEEDFE" opacity="0.5"/><circle cx="330" cy="88" r="1.5" fill="#EEEDFE" opacity="0.45"/><circle cx="900" cy="46" r="2" fill="#EEEDFE" opacity="0.5"/><circle cx="1010" cy="86" r="1.6" fill="#EEEDFE" opacity="0.45"/><circle cx="150" cy="100" r="1.5" fill="#EEEDFE" opacity="0.4"/><circle cx="1060" cy="60" r="1.8" fill="#EEEDFE" opacity="0.5"/><circle cx="490" cy="40" r="1.6" fill="#EEEDFE" opacity="0.4"/><circle cx="760" cy="36" r="1.6" fill="#EEEDFE" opacity="0.4"/>
<circle cx="600" cy="50" r="24" fill="#f3c46a"/>
<ellipse cx="600" cy="50" rx="40" ry="12" fill="none" stroke="#f3c46a" stroke-width="2" opacity="0.45"/>
<circle cx="300" cy="96" r="18" fill="#AFA9EC"/>
<circle cx="880" cy="88" r="26" fill="#7F77DD"/>
<ellipse cx="880" cy="88" rx="40" ry="10" fill="none" stroke="#AFA9EC" stroke-width="2" opacity="0.5" transform="rotate(-16 880 88)"/>
<circle cx="1010" cy="104" r="10" fill="#CECBF6"/>
<path d="M0,140 C210,122 420,150 640,140 C860,130 1030,152 1200,140 V200 H0 Z" fill="#534AB7"/>
<path d="M0,150 C190,132 380,164 600,150 C820,136 1010,166 1200,150 V200 H0 Z" fill="#3C3489"/><path d="M0,180 C220,166 460,192 700,178 C920,166 1080,188 1200,178 V200 H0 Z" fill="#26215C"/>
</svg>