<svg xmlns="http://www.w3.org/2000/svg" viewBox="0 0 1200 200" role="img" aria-label="Stufe um Stufe baut sich die Materie auf — vom einzelnen Teilchen zum Molekül; der goldene Baustein schwebt über der letzten, noch leeren Stufe">
<rect width="1200" height="200" fill="#EEEDFE"/>
<rect x="290" y="150" width="130" height="34" fill="#534AB7"/>
<rect x="420" y="128" width="130" height="56" fill="#3C3489"/>
<rect x="550" y="106" width="130" height="78" fill="#534AB7"/>
<rect x="680" y="84" width="130" height="100" fill="#3C3489"/>
<circle cx="355" cy="136" r="8" fill="#26215C"/>
<g fill="#26215C"><circle cx="474" cy="106" r="7"/><circle cx="497" cy="118" r="7"/><circle cx="497" cy="96" r="7"/></g>
<g><ellipse cx="615" cy="82" rx="30" ry="13" fill="none" stroke="#26215C" stroke-width="3"/>
<ellipse cx="615" cy="82" rx="13" ry="30" fill="none" stroke="#26215C" stroke-width="3" opacity="0.55"/>
<circle cx="615" cy="82" r="8" fill="#26215C"/><circle cx="645" cy="82" r="4.5" fill="#26215C"/></g>
<g stroke="#26215C" stroke-width="4"><line x1="722" y1="58" x2="748" y2="46"/><line x1="748" y1="46" x2="772" y2="58"/></g>
<g fill="#26215C"><circle cx="722" cy="58" r="8"/><circle cx="748" cy="46" r="8"/><circle cx="772" cy="58" r="8"/></g>
<circle cx="748" cy="20" r="0" fill="none"/>
<rect x="856" y="46" width="40" height="40" rx="7" fill="#f3c46a" transform="rotate(-9 876 66)"/>
<path d="M846,74 C822,80 800,74 790,62" fill="none" stroke="#CECBF6" stroke-width="3" stroke-linecap="round" stroke-dasharray="2 10"/>
<path d="M170,56 q10,-8 20,0 M200,44 q10,-8 20,0" fill="none" stroke="#534AB7" stroke-width="3" stroke-linecap="round"/>
<path d="M0,168 C190,154 400,182 620,170 C840,158 1020,184 1200,168 V200 H0 Z" fill="#3C3489"/>
<path d="M0,188 C240,180 500,198 760,190 C960,183 1100,196 1200,188 V200 H0 Z" fill="#26215C"/>
</svg>