<svg xmlns="http://www.w3.org/2000/svg" viewBox="0 0 1200 200" role="img" aria-label="Bergketten aus gestapelten Bausteinen — der oberste Baustein leuchtet golden">
<rect width="1200" height="200" fill="#EEEDFE"/>
<path d="M240,42 a18,18 0 1 0 0,34 a22,22 0 0 1 0,-34 Z" fill="#CECBF6"/><g fill="#7F77DD"><rect x="430" y="126" width="26" height="24"/><rect x="458" y="126" width="26" height="24"/><rect x="486" y="126" width="26" height="24"/><rect x="444" y="100" width="26" height="24"/><rect x="472" y="100" width="26" height="24"/><rect x="458" y="74" width="26" height="24"/></g><g fill="#534AB7"><rect x="720" y="128" width="28" height="22"/><rect x="750" y="128" width="28" height="22"/><rect x="780" y="128" width="28" height="22"/><rect x="810" y="128" width="28" height="22"/><rect x="735" y="104" width="28" height="22"/><rect x="765" y="104" width="28" height="22"/><rect x="795" y="104" width="28" height="22"/><rect x="750" y="80" width="28" height="22"/><rect x="780" y="80" width="28" height="22"/></g><rect x="765" y="56" width="28" height="22" fill="#f3c46a"/><path d="M330,66 q9,-7 18,0 M356,58 q9,-7 18,0" fill="none" stroke="#534AB7" stroke-width="3" stroke-linecap="round"/><path d="M0,150 C220,138 460,160 720,150 C940,142 1060,160 1200,150 V200 H0 Z" fill="#3C3489"/><path d="M0,180 C240,168 500,192 760,180 C980,168 1100,188 1200,180 V200 H0 Z" fill="#26215C"/>
</svg>
