<svg xmlns="http://www.w3.org/2000/svg" viewBox="0 0 1200 200" role="img" aria-label="Hinter der zerbrochenen Stadt geht die goldene Sonne wieder auf — ein junger Baum wächst aus den Ruinen">
<rect width="1200" height="200" fill="#EEEDFE"/>
<circle cx="600" cy="112" r="40" fill="#f3c46a"/>
<path d="M600,52 L600,38 M652,66 L662,56 M548,66 L538,56 M666,112 L680,112 M534,112 L520,112" stroke="#f3c46a" stroke-width="4" stroke-linecap="round" opacity="0.6"/>
<path d="M0,120 C220,106 460,128 700,116 C920,106 1080,124 1200,114 V200 H0 Z" fill="#AFA9EC"/>
<g fill="#3C3489">
<path d="M256,118 L256,64 L272,64 L272,84 L290,76 L290,118 Z"/>
<path d="M306,118 L310,54 L330,60 L342,48 L338,118 Z"/>
<path d="M356,118 L356,86 L388,70 L392,118 Z"/>
</g>
<g fill="#26215C">
<path d="M436,120 L436,70 L452,62 L452,44 L470,52 L468,120 Z"/>
<path d="M486,120 L490,88 L520,74 L528,96 L524,120 Z"/>
<path d="M760,118 L764,52 L782,58 L796,44 L792,80 L806,74 L802,118 Z"/>
<path d="M826,118 L826,84 L858,68 L864,92 L858,118 Z"/>
<path d="M884,118 L888,66 L904,72 L916,60 L912,118 Z"/>
</g>
<path d="M446,84 L462,72 M836,92 L852,80" stroke="#EEEDFE" stroke-width="3" fill="none"/>
<path d="M0,148 C220,134 470,160 700,148 C920,136 1080,158 1200,148 V200 H0 Z" fill="#534AB7"/>
<g fill="none" stroke="#26215C" stroke-width="5" stroke-linecap="round">
<path d="M672,152 C672,128 672,116 672,104"/>
<path d="M672,124 C660,116 652,112 644,108"/>
<path d="M672,116 C684,106 692,102 700,98"/>
</g>
<g fill="#26215C">
<ellipse cx="640" cy="106" rx="10" ry="6" transform="rotate(-24 640 106)"/>
<ellipse cx="704" cy="96" rx="10" ry="6" transform="rotate(24 704 96)"/>
<ellipse cx="672" cy="96" rx="9" ry="6"/>
</g>
<path d="M0,170 C240,158 500,182 760,170 C980,158 1110,178 1200,168 V200 H0 Z" fill="#3C3489"/>
<path d="M0,189 C240,181 500,199 760,189 C980,181 1110,195 1200,188 V200 H0 Z" fill="#26215C"/>
</svg>
