<svg xmlns="http://www.w3.org/2000/svg" viewBox="0 0 1200 200" role="img" aria-label="Die Zeilen der Zeitungsspalte lösen sich auf und zerstäuben zur Welle — eine leere Zeile bleibt golden offen">
<rect width="1200" height="200" fill="#EEEDFE"/>
<rect x="360" y="60" width="150" height="104" rx="3" fill="#CECBF6"/>
<g stroke="#7F77DD" stroke-width="5" stroke-linecap="round"><line x1="374" y1="78" x2="490" y2="78"/><line x1="374" y1="94" x2="484" y2="94"/><line x1="374" y1="110" x2="478" y2="110"/><line x1="374" y1="126" x2="472" y2="126"/><line x1="374" y1="142" x2="466" y2="142"/></g>
<g fill="#AFA9EC"><circle cx="536" cy="96" r="4"/><circle cx="566" cy="110" r="4"/><circle cx="600" cy="102" r="3.5"/><circle cx="640" cy="118" r="3.5"/><circle cx="690" cy="108" r="3"/></g>
<rect x="374" y="119" width="86" height="12" rx="3" fill="#f3c46a"/>
<path d="M0,134 C170,112 340,142 520,130 C700,118 900,144 1200,128 V200 H0 Z" fill="#7F77DD"/>
<path d="M0,158 C190,140 400,170 620,156 C840,142 1020,172 1200,156 V200 H0 Z" fill="#3C3489"/>
<path d="M0,184 C240,170 480,196 720,182 C940,170 1090,192 1200,182 V200 H0 Z" fill="#26215C"/>
</svg>
