<svg xmlns="http://www.w3.org/2000/svg" viewBox="0 0 1200 200" role="img" aria-label="Zwei Blocktürme — der goldene Balken verbindet sie zum Kompromiss">
<rect width="1200" height="200" fill="#EEEDFE"/>
<path d="M180,30 a24,24 0 1 0 0,40 a28,28 0 0 1 0,-40 Z" fill="#CECBF6"/>
<path d="M0,128 C150,108 300,108 420,126 L420,200 L0,200 Z" fill="#7F77DD"/>
<path d="M1200,128 C1050,108 900,108 780,126 L780,200 L1200,200 Z" fill="#7F77DD"/>
<g fill="#26215C">
<rect x="324" y="112" width="92" height="30" rx="4"/>
<rect x="332" y="80" width="76" height="30" rx="4"/>
<rect x="342" y="48" width="56" height="30" rx="4"/>
</g>
<g fill="#3C3489">
<rect x="784" y="112" width="92" height="30" rx="4"/>
<rect x="792" y="80" width="76" height="30" rx="4"/>
<rect x="802" y="48" width="56" height="30" rx="4"/>
</g>
<rect x="392" y="24" width="416" height="20" rx="6" fill="#f3c46a"/>
<path d="M560,120 q10,-8 20,0 M592,108 q10,-8 20,0" fill="none" stroke="#534AB7" stroke-width="3" stroke-linecap="round"/>
<path d="M0,162 C210,152 440,172 660,162 C880,152 1050,170 1200,161 V200 H0 Z" fill="#3C3489"/>
<path d="M0,188 C240,180 500,196 760,189 C980,183 1110,193 1200,188 V200 H0 Z" fill="#26215C"/>
</svg>
