<svg xmlns="http://www.w3.org/2000/svg" viewBox="0 0 1200 200" role="img" aria-label="Ein Stethoskop legt sich über die Hügel — der ärztliche Blick"><rect width="1200" height="200" fill="#EEEDFE"/><path d="M1010,40 a24,24 0 1 0 0,42 a28,28 0 0 1 0,-42 Z" fill="#CECBF6"/><path d="M476,56 C460,104 520,146 600,146 C680,146 740,104 724,56" fill="none" stroke="#3C3489" stroke-width="8" stroke-linecap="round"/><circle cx="476" cy="52" r="7" fill="#26215C"/><circle cx="724" cy="52" r="7" fill="#26215C"/><line x1="600" y1="146" x2="600" y2="164" stroke="#3C3489" stroke-width="6" stroke-linecap="round"/><circle cx="600" cy="170" r="15" fill="#f3c46a"/><circle cx="600" cy="170" r="6" fill="#26215C"/><path d="M0,128 C150,106 320,142 500,124 C680,106 860,144 1040,124 C1110,116 1170,126 1200,120 V200 H0 Z" fill="#534AB7"/><path d="M0,150 C190,132 400,164 620,150 C840,136 1020,166 1200,150 V200 H0 Z" fill="#3C3489"/><path d="M0,180 C240,166 480,192 720,178 C940,166 1090,188 1200,178 V200 H0 Z" fill="#26215C"/></svg>