<svg xmlns="http://www.w3.org/2000/svg" viewBox="0 0 1200 200" role="img" aria-label="Aufsteigende Balkensäulen mit goldenem Höchststand — Satzbau"><rect width="1200" height="200" fill="#EEEDFE"/><rect x="430" y="84" width="50" height="40" rx="3" fill="#AFA9EC"/><rect x="500" y="66" width="50" height="58" rx="3" fill="#7F77DD"/><rect x="570" y="50" width="50" height="74" rx="3" fill="#534AB7"/><rect x="640" y="32" width="50" height="92" rx="3" fill="#3C3489"/><rect x="710" y="12" width="50" height="112" rx="3" fill="#f3c46a"/><path d="M430,40 L760,14" stroke="#534AB7" stroke-width="3" stroke-dasharray="4 6" fill="none"/><path d="M300,80 q10,-8 20,0 M330,68 q10,-8 20,0" fill="none" stroke="#534AB7" stroke-width="3" stroke-linecap="round"/><path d="M0,124 C160,106 320,140 480,124 C640,108 820,142 1000,124 C1090,115 1150,122 1200,118 V200 H0 Z" fill="#534AB7"/><path d="M0,152 C180,134 380,166 600,152 C820,138 1010,168 1200,152 V200 H0 Z" fill="#3C3489"/><path d="M0,178 C220,164 460,190 700,176 C920,164 1080,188 1200,178 V200 H0 Z" fill="#26215C"/></svg>