<svg xmlns="http://www.w3.org/2000/svg" viewBox="0 0 1200 200" role="img" aria-label="Panorama vom Sprechen über das Universum: eine Rakete und Planeten ragen wie Berge auf, Sprechblasen steigen zwischen ihnen empor, die goldene Sonne darüber">
<rect width="1200" height="200" fill="#EEEDFE"/>
<circle cx="200" cy="44" r="2" fill="#EEEDFE" opacity="0.5"/><circle cx="1000" cy="50" r="1.8" fill="#EEEDFE" opacity="0.5"/><circle cx="150" cy="100" r="1.5" fill="#EEEDFE" opacity="0.4"/><circle cx="1080" cy="90" r="1.6" fill="#EEEDFE" opacity="0.45"/><circle cx="330" cy="84" r="1.5" fill="#EEEDFE" opacity="0.45"/>
<circle cx="600" cy="48" r="23" fill="#f3c46a"/>
<ellipse cx="600" cy="48" rx="38" ry="11" fill="none" stroke="#f3c46a" stroke-width="2" opacity="0.45"/>
<circle cx="240" cy="92" r="20" fill="#AFA9EC"/>
<g transform="translate(430,0)"><path d="M0,132 L0,74 Q10,50 20,74 L20,132 Z" fill="#3C3489"/><path d="M0,110 L-12,132 L0,124 Z" fill="#534AB7"/><path d="M20,110 L32,132 L20,124 Z" fill="#534AB7"/></g>
<circle cx="900" cy="90" r="24" fill="#7F77DD"/>
<ellipse cx="900" cy="90" rx="38" ry="9" fill="none" stroke="#AFA9EC" stroke-width="2" opacity="0.5" transform="rotate(-16 900 90)"/>
<path d="M560,108 q0,-9 10,-9 l18,0 q10,0 10,9 q0,9 -10,9 l-14,0 l-8,7 l1,-7 q-7,-1 -7,-9 Z" fill="#AFA9EC"/><path d="M660,96 q0,-9 10,-9 l18,0 q10,0 10,9 q0,9 -10,9 l-14,0 l-8,7 l1,-7 q-7,-1 -7,-9 Z" fill="#CECBF6"/><path d="M720,112 q0,-9 10,-9 l18,0 q10,0 10,9 q0,9 -10,9 l-14,0 l-8,7 l1,-7 q-7,-1 -7,-9 Z" fill="#AFA9EC"/>
<path d="M0,140 C210,124 420,150 640,140 C860,130 1030,152 1200,140 V200 H0 Z" fill="#534AB7"/>
<path d="M0,150 C190,132 380,164 600,150 C820,136 1010,166 1200,150 V200 H0 Z" fill="#3C3489"/><path d="M0,180 C220,166 460,192 700,178 C920,166 1080,188 1200,178 V200 H0 Z" fill="#26215C"/>
</svg>