<svg xmlns="http://www.w3.org/2000/svg" viewBox="0 0 1200 200" role="img" aria-label="Über dem Besprechungstisch schweben Sprechblasen wie Wolken — eine leuchtet golden">
<rect width="1200" height="200" fill="#EEEDFE"/>
<g fill="#CECBF6">
<path d="M300,44 h96 a14,14 0 0 1 14,14 v18 a14,14 0 0 1 -14,14 h-56 l-16,16 l0,-16 h-24 a14,14 0 0 1 -14,-14 v-18 a14,14 0 0 1 14,-14 Z"/>
<path d="M760,30 h110 a15,15 0 0 1 15,15 v20 a15,15 0 0 1 -15,15 h-70 l0,18 l-18,-18 h-22 a15,15 0 0 1 -15,-15 v-20 a15,15 0 0 1 15,-15 Z" fill="#AFA9EC"/>
</g>
<path d="M540,20 h120 a16,16 0 0 1 16,16 v24 a16,16 0 0 1 -16,16 h-78 l-20,20 l0,-20 h-22 a16,16 0 0 1 -16,-16 v-24 a16,16 0 0 1 16,-16 Z" fill="#f3c46a"/>
<path d="M180,84 q10,-8 20,0 M212,72 q10,-8 20,0" fill="none" stroke="#534AB7" stroke-width="3" stroke-linecap="round"/>
<path d="M0,138 C180,124 380,148 600,136 C820,124 1020,146 1200,135 V200 H0 Z" fill="#534AB7"/>
<g fill="#26215C">
<rect x="440" y="128" width="320" height="14" rx="7"/>
<path d="M470,142 L460,190 L448,190 L462,142 Z"/>
<path d="M730,142 L740,190 L752,190 L738,142 Z"/>
</g>
<path d="M0,168 C210,158 440,178 660,168 C880,158 1050,176 1200,167 V200 H0 Z" fill="#3C3489"/>
<path d="M0,190 C240,184 500,197 760,191 C980,186 1120,195 1200,191 V200 H0 Z" fill="#26215C"/>
</svg>
