<svg xmlns="http://www.w3.org/2000/svg" viewBox="0 0 1200 200" role="img" aria-label="Eine Bürostadt bei Nacht — ein einziges Fenster ist golden erleuchtet">
<rect width="1200" height="200" fill="#EEEDFE"/>
<path d="M180,42 a17,17 0 1 0 0,32 a21,21 0 0 1 0,-32 Z" fill="#CECBF6"/><g fill="#3C3489"><path d="M300,150 L300,90 L356,90 L356,150 Z"/><path d="M700,150 L700,74 L760,74 L760,150 Z"/><path d="M820,150 L820,104 L872,104 L872,150 Z"/></g><g fill="#534AB7"><path d="M366,150 L366,60 L436,60 L436,150 Z"/><path d="M540,150 L540,84 L610,84 L610,150 Z"/><path d="M620,150 L620,110 L680,110 L680,150 Z"/></g><g fill="#26215C"><rect x="378" y="76" width="12" height="14"/><rect x="398" y="76" width="12" height="14"/><rect x="418" y="76" width="12" height="14"/><rect x="378" y="100" width="12" height="14"/><rect x="418" y="100" width="12" height="14"/></g><rect x="398" y="100" width="12" height="14" fill="#f3c46a"/><path d="M300,60 q9,-7 18,0 M326,52 q9,-7 18,0" fill="none" stroke="#534AB7" stroke-width="3" stroke-linecap="round"/><path d="M0,150 C220,138 460,160 720,150 C940,142 1060,160 1200,150 V200 H0 Z" fill="#534AB7"/><path d="M0,152 C200,136 440,166 680,152 C900,139 1050,166 1200,154 V200 H0 Z" fill="#3C3489"/>
<path d="M0,180 C240,168 500,192 760,180 C980,168 1100,188 1200,180 V200 H0 Z" fill="#26215C"/>
</svg>
