<svg xmlns="http://www.w3.org/2000/svg" viewBox="0 0 1200 200" role="img" aria-label="Dokument mit Zeilen und einem goldenen Fragezeichen — Text und Fragen"><rect width="1200" height="200" fill="#EEEDFE"/><rect x="500" y="30" width="150" height="96" rx="6" fill="#AFA9EC"/><rect x="548" y="22" width="54" height="16" rx="4" fill="#7F77DD"/><g stroke="#534AB7" stroke-width="5" stroke-linecap="round"><line x1="516" y1="52" x2="634" y2="52"/><line x1="516" y1="68" x2="634" y2="68"/><line x1="516" y1="84" x2="634" y2="84"/><line x1="516" y1="100" x2="634" y2="100"/></g><path d="M690,44 q0,-22 22,-22 q22,0 22,22 q0,16 -18,22 q-8,4 -8,12" fill="none" stroke="#f3c46a" stroke-width="7" stroke-linecap="round"/><circle cx="708" cy="96" r="5" fill="#f3c46a"/><path d="M300,74 q10,-8 20,0 M330,62 q10,-8 20,0" fill="none" stroke="#534AB7" stroke-width="3" stroke-linecap="round"/><path d="M0,124 C160,106 320,140 480,124 C640,108 820,142 1000,124 C1090,115 1150,122 1200,118 V200 H0 Z" fill="#534AB7"/><path d="M0,152 C180,134 380,166 600,152 C820,138 1010,168 1200,152 V200 H0 Z" fill="#3C3489"/><path d="M0,178 C220,164 460,190 700,176 C920,164 1080,188 1200,178 V200 H0 Z" fill="#26215C"/></svg>