<svg xmlns="http://www.w3.org/2000/svg" viewBox="0 0 1200 200" role="img" aria-label="Zwei Tassen auf der Welle — ihr Dampf steigt auf und verflicht sich zu einer einzigen goldenen Wolke">
<rect width="1200" height="200" fill="#EEEDFE"/>
<path d="M200,74 q10,-8 20,0 M230,62 q10,-8 20,0" fill="none" stroke="#AFA9EC" stroke-width="3" stroke-linecap="round"/>
<path d="M950,132 L1050,72 L1150,132 Z" fill="#CECBF6"/>
<g fill="#f3c46a">
<circle cx="556" cy="34" r="26"/><circle cx="612" cy="24" r="32"/><circle cx="670" cy="34" r="26"/>
<rect x="530" y="32" width="152" height="26" rx="13"/>
</g>
<path d="M520,110 C520,90 542,86 536,70 C530,54 560,50 566,62" fill="none" stroke="#AFA9EC" stroke-width="7" stroke-linecap="round"/>
<path d="M704,110 C704,90 682,86 688,70 C694,54 664,50 658,62" fill="none" stroke="#AFA9EC" stroke-width="7" stroke-linecap="round"/>
<g fill="#26215C">
<path d="M452,112 L566,112 L554,156 L464,156 Z"/>
<path d="M658,112 L772,112 L760,156 L670,156 Z"/>
</g>
<path d="M566,118 a20,20 0 0 1 0,28" fill="none" stroke="#26215C" stroke-width="8"/>
<path d="M658,118 a20,20 0 0 0 0,28" fill="none" stroke="#26215C" stroke-width="8"/>
<path d="M0,154 C200,146 420,166 640,157 C860,148 1040,168 1200,156 V200 H0 Z" fill="#534AB7"/>
<path d="M0,176 C220,168 460,190 700,178 C920,168 1080,186 1200,176 V200 H0 Z" fill="#3C3489"/>
<path d="M0,193 C260,188 540,198 800,193 C1000,189 1120,196 1200,193 V200 H0 Z" fill="#26215C"/>
</svg>