<svg xmlns="http://www.w3.org/2000/svg" viewBox="0 0 1200 200" role="img" aria-label="Eine EKG-Linie bildet die vordere Welle — in einem Herzschlag klafft eine Luecke, der goldene Puls schwebt darueber">
<rect width="1200" height="200" fill="#EEEDFE"/>
<path d="M0,132 C200,124 380,138 560,132 C760,126 980,138 1200,130 V200 H0 Z" fill="#534AB7"/>
<path d="M0,124 H240 l10,0 l7,-34 l9,58 l8,-24 l10,0 H470" fill="none" stroke="#26215C" stroke-width="4" stroke-linecap="round"/>
<path d="M560,124 l10,0 l7,-34 l9,58 l8,-24 l10,0 H820 l7,-30 l7,30 H1200" fill="none" stroke="#26215C" stroke-width="4" stroke-linecap="round"/>
<line x1="470" y1="124" x2="560" y2="124" stroke="#7F77DD" stroke-width="2" stroke-dasharray="5 6"/>
<path d="M486,86 l8,0 l6,-26 l7,44 l6,-18 l8,0" fill="none" stroke="#f3c46a" stroke-width="4" stroke-linecap="round"/>
<circle cx="332" cy="120" r="3.5" fill="#EEEDFE" opacity="0.6"/>
<path d="M0,150 C190,132 400,164 620,150 C840,136 1020,164 1200,150 V200 H0 Z" fill="#3C3489"/>
<path d="M0,150 C190,132 400,164 620,150 C840,136 1020,164 1200,150 V200 H0 Z" fill="#3C3489"/>
<path d="M0,180 C240,166 480,192 720,178 C940,166 1090,188 1200,178 V200 H0 Z" fill="#26215C"/>
</svg>
