<svg xmlns="http://www.w3.org/2000/svg" viewBox="0 0 1200 200" role="img" aria-label="Aus dem geöffneten Liederbuch steigen Noten auf und werden zur Bergkette, die goldene Note über dem Tal">
<rect width="1200" height="200" fill="#EEEDFE"/>
<circle cx="300" cy="50" r="26" fill="#AFA9EC"/>
<circle cx="300" cy="50" r="36" fill="none" stroke="#AFA9EC" stroke-width="2" opacity="0.4"/>
<path d="M470,120 C520,96 580,96 600,104 C620,96 680,96 730,120 Z" fill="#AFA9EC"/>
<line x1="600" y1="104" x2="600" y2="120" stroke="#534AB7" stroke-width="3"/>
<g fill="#7F77DD"><ellipse cx="630" cy="92" rx="7" ry="5" transform="rotate(-18 630 92)"/><ellipse cx="690" cy="74" rx="7" ry="5" transform="rotate(-18 690 74)"/><ellipse cx="760" cy="58" rx="7" ry="5" transform="rotate(-18 760 58)"/></g>
<line x1="636" y1="92" x2="636" y2="66" stroke="#7F77DD" stroke-width="2"/><line x1="696" y1="74" x2="696" y2="48" stroke="#7F77DD" stroke-width="2"/><line x1="766" y1="58" x2="766" y2="34" stroke="#7F77DD" stroke-width="2"/>
<ellipse cx="850" cy="46" rx="8" ry="6" fill="#f3c46a" transform="rotate(-18 850 46)"/><line x1="857" y1="46" x2="857" y2="20" stroke="#f3c46a" stroke-width="3"/>
<path d="M0,124 C150,96 290,140 450,118 C610,96 760,138 920,116 C1040,101 1130,118 1200,108 V200 H0 Z" fill="#534AB7"/>
<path d="M0,150 C170,128 330,166 520,146 C700,128 880,168 1050,148 C1110,141 1170,148 1200,144 V200 H0 Z" fill="#3C3489"/>
<path d="M0,178 C200,162 420,190 640,176 C860,163 1040,188 1200,176 V200 H0 Z" fill="#26215C"/>
</svg>
