<svg xmlns="http://www.w3.org/2000/svg" viewBox="0 0 1200 200" role="img" aria-label="Das goldene Flugzeug steigt über die Wellen auf — Aufbruch zum Praktikum im Ausland">
<rect width="1200" height="200" fill="#EEEDFE"/>
<g stroke="#7F77DD" stroke-width="3.5" stroke-linecap="round" fill="none" stroke-dasharray="1 18">
<path d="M240,150 C420,142 600,112 760,78"/>
</g>
<g transform="translate(820,58) rotate(-14)">
<path d="M-58,0 C-30,-8 30,-8 58,-2 C70,1 70,7 56,9 C24,13 -30,12 -58,6 Z" fill="#f3c46a"/>
<path d="M-8,-4 L-38,-34 L-22,-34 L8,-6 Z" fill="#f3c46a"/>
<path d="M-6,6 L-30,30 L-16,30 L12,8 Z" fill="#f3c46a"/>
<path d="M-58,0 L-78,-16 L-68,-16 L-50,-3 Z" fill="#f3c46a"/>
</g>
<path d="M180,84 q10,-8 20,0 M214,70 q10,-8 20,0" fill="none" stroke="#534AB7" stroke-width="3" stroke-linecap="round"/>
<path d="M0,132 C200,120 440,142 700,132 C920,124 1090,138 1200,130 V200 H0 Z" fill="#AFA9EC"/>
<g fill="#26215C">
<path d="M330,134 C338,140 386,140 394,134 L388,120 L336,120 Z"/>
<line x1="362" y1="118" x2="362" y2="76" stroke="#26215C" stroke-width="5" stroke-linecap="round"/>
<path d="M366,80 L366,114 L398,114 Z"/>
<path d="M358,84 L358,112 L332,112 Z"/>
</g>
<circle cx="470" cy="142" r="3.5" fill="#CECBF6"/>
<circle cx="292" cy="146" r="3" fill="#CECBF6"/>
<path d="M0,156 C230,146 480,168 740,158 C960,150 1110,164 1200,157 V200 H0 Z" fill="#534AB7"/>
<path d="M0,176 C250,168 520,188 780,179 C1000,172 1120,184 1200,179 V200 H0 Z" fill="#3C3489"/>
<path d="M0,192 C280,187 560,198 820,193 C1020,190 1130,196 1200,193 V200 H0 Z" fill="#26215C"/>
</svg>
