<svg xmlns="http://www.w3.org/2000/svg" viewBox="0 0 1200 200" role="img" aria-label="Panorama einer Debatte: zwei Rednerpulte stehen sich gegenueber, Fahnen staffeln sich wie Huegel, die goldene Sonne darueber">
<rect width="1200" height="200" fill="#EEEDFE"/>
<circle cx="600" cy="50" r="28" fill="#f3c46a"/>
<circle cx="600" cy="50" r="39" fill="none" stroke="#f3c46a" stroke-width="2" opacity="0.4"/>
<path d="M0,126 L120,92 L250,126 Z" fill="#CECBF6"/>
<path d="M950,126 L1080,90 L1200,126 Z" fill="#CECBF6"/>
<g fill="#3C3489">
<path d="M300,150 L300,110 L360,110 L360,150 Z"/><rect x="322" y="88" width="6" height="24"/><path d="M312,88 L344,88 L360,100 L296,100 Z"/>
<path d="M900,150 L900,110 L840,110 L840,150 Z"/><rect x="872" y="88" width="6" height="24"/><path d="M856,88 L888,88 L904,100 L840,100 Z"/>
</g>
<path d="M400,64 q0,-16 22,-16 h40 q22,0 22,16 q0,16 -22,16 h-34 l-14,12 l2,-12 q-16,-2 -16,-16 Z" fill="#7F77DD"/>
<path d="M800,64 q0,-16 -22,-16 h-40 q-22,0 -22,16 q0,16 22,16 h34 l14,12 l-2,-12 q16,-2 16,-16 Z" fill="#534AB7"/>
<path d="M0,132 C170,110 340,146 520,128 C700,110 880,146 1050,128 C1120,121 1170,128 1200,124 V200 H0 Z" fill="#534AB7"/>
<path d="M0,150 C190,132 400,164 620,150 C840,136 1020,164 1200,150 V200 H0 Z" fill="#3C3489"/>
<path d="M0,180 C240,166 480,192 720,178 C940,166 1090,188 1200,178 V200 H0 Z" fill="#26215C"/>
</svg>
