<svg xmlns="http://www.w3.org/2000/svg" viewBox="0 0 1200 200" role="img" aria-label="Eine Traumlandschaft über der Welle — eine goldene Sternschnuppe zieht über die Hügel, eine gestrichelte Wolke schwebt als Möglichkeit"><rect width="1200" height="200" fill="#EEEDFE"/><circle cx="880" cy="46" r="9" fill="#f3c46a"/><path d="M889,46 C930,40 970,52 1010,44" fill="none" stroke="#f3c46a" stroke-width="3" stroke-linecap="round" opacity="0.7"/><path d="M300,58 a20,20 0 0 1 40,-4 a16,16 0 0 1 30,4 a14,14 0 0 1 -6,26 h-58 a16,16 0 0 1 -6,-22 Z" fill="none" stroke="#AFA9EC" stroke-width="2.5" stroke-dasharray="6 5"/><path d="M0,110 C160,90 340,120 520,104 C700,88 900,120 1080,104 C1140,99 1180,106 1200,102 V200 H0 Z" fill="#CECBF6"/>
<path d="M120,110 L330,60 L560,110 Z" fill="#AFA9EC"/><path d="M470,110 L700,52 L940,110 Z" fill="#7F77DD"/><path d="M700,52 q6,10 0,20 q-6,-4 -12,-2 q6,-10 12,-18 Z" fill="#EEEDFE" opacity="0.7"/><circle cx="250" cy="128" r="3" fill="#EEEDFE" opacity="0.5"/><circle cx="1000" cy="124" r="3" fill="#EEEDFE" opacity="0.5"/><path d="M0,150 C190,132 400,164 620,150 C840,136 1020,166 1200,150 V200 H0 Z" fill="#3C3489"/>
<path d="M0,180 C240,166 480,192 720,178 C940,166 1090,188 1200,178 V200 H0 Z" fill="#26215C"/>
</svg>