<svg xmlns="http://www.w3.org/2000/svg" viewBox="0 0 1200 200" role="img" aria-label="Ein Stift hakt die Wellenkämme ab wie eine Tagesordnung — der letzte Punkt ist noch offen">
<rect width="1200" height="200" fill="#EEEDFE"/>
<path d="M170,32 a24,24 0 1 0 0,40 a28,28 0 0 1 0,-40 Z" fill="#CECBF6"/>
<path d="M0,128 C90,108 190,104 280,118 C370,132 420,138 500,128 C580,118 620,108 700,114 C790,121 850,132 920,126 C1030,117 1110,110 1200,116 V200 H0 Z" fill="#534AB7"/>
<g stroke="#26215C" stroke-width="9" stroke-linecap="round" fill="none">
<path d="M212,88 L232,108 L268,64"/>
<path d="M462,84 L482,104 L518,60"/>
<path d="M672,74 L692,94 L728,50"/>
</g>
<circle cx="946" cy="86" r="13" fill="#f3c46a"/>
<g transform="translate(1000,120) rotate(142)">
<rect x="-11" y="14" width="22" height="84" rx="7" fill="#3C3489"/>
<path d="M-11,14 L0,-12 L11,14 Z" fill="#26215C"/>
<path d="M-4,-3 L4,-3 L0,-12 Z" fill="#EEEDFE"/>
</g>
<path d="M350,44 q10,-8 20,0 M382,32 q10,-8 20,0" fill="none" stroke="#534AB7" stroke-width="3" stroke-linecap="round"/>
<path d="M0,162 C210,152 440,172 660,162 C880,152 1050,170 1200,161 V200 H0 Z" fill="#3C3489"/>
<path d="M0,188 C240,180 500,196 760,189 C980,183 1110,193 1200,188 V200 H0 Z" fill="#26215C"/>
</svg>
