<svg xmlns="http://www.w3.org/2000/svg" viewBox="0 0 1200 200" role="img" aria-label="Eine grosse Herzform, deren untere Spitze in die vordere Welle uebergeht; oben schwebt ein goldener kleiner Herzpunkt">
<rect width="1200" height="200" fill="#EEEDFE"/>
<circle cx="720" cy="60" r="10" fill="#f3c46a"/>
<path d="M600,90 C600,64 640,58 660,78 C680,58 720,64 720,90 C720,120 660,150 660,150 C660,150 600,120 600,90 Z" fill="none" stroke="#534AB7" stroke-width="5" transform="translate(-60,0) scale(1.0)"/>
<path d="M0,150 C150,138 330,150 470,152 C520,153 560,150 600,150 C600,150 540,120 540,90 C540,64 500,58 480,78 C460,58 420,64 420,90 C420,120 480,150 480,150 L480,150 C620,150 760,138 920,150 C1040,159 1130,150 1200,148 V200 H0 Z" fill="#7F77DD"/>
<path d="M0,176 C220,162 460,190 700,178 C920,166 1080,188 1200,178 V200 H0 Z" fill="#3C3489"/>
<path d="M0,190 C240,182 520,198 780,190 C1000,183 1120,194 1200,190 V200 H0 Z" fill="#26215C"/>
</svg>