<svg xmlns="http://www.w3.org/2000/svg" viewBox="0 0 1200 200" role="img" aria-label="Die Zeitung sinkt wie eine goldene Sonne hinter den Wellen — ein gefaltetes Blatt treibt noch auf dem Wasser">
<rect width="1200" height="200" fill="#EEEDFE"/>
<circle cx="600" cy="120" r="34" fill="#f3c46a"/>
<circle cx="600" cy="120" r="45" fill="none" stroke="#f3c46a" stroke-width="2" opacity="0.45"/>
<path d="M0,150 C150,138 300,150 460,146 L460,120 L520,120 L520,146 C700,150 900,140 1200,150 V200 H0 Z" fill="#CECBF6"/>
<g fill="#AFA9EC"><path d="M150,128 l70,-14 l4,30 l-70,14 z"/></g>
<g stroke="#7F77DD" stroke-width="2" stroke-linecap="round"><line x1="162" y1="122" x2="214" y2="112"/><line x1="164" y1="130" x2="216" y2="120"/></g>
<path d="M930,78 q10,-8 20,0 M960,68 q10,-8 20,0" fill="none" stroke="#534AB7" stroke-width="3" stroke-linecap="round"/>
<path d="M0,150 C170,132 340,160 520,150 C700,140 900,162 1200,148 V200 H0 Z" fill="#534AB7"/>
<path d="M0,158 C190,140 400,170 620,156 C840,142 1020,172 1200,156 V200 H0 Z" fill="#3C3489"/>
<path d="M0,184 C240,170 480,196 720,182 C940,170 1090,192 1200,182 V200 H0 Z" fill="#26215C"/>
</svg>
