<svg xmlns="http://www.w3.org/2000/svg" viewBox="0 0 1200 200" role="img" aria-label="Um das Stadtmodell auf dem Tisch liegen Bauhelm, Aktenkoffer und Megafon — drei Rollen, darüber die goldene Sprechblase">
<rect width="1200" height="200" fill="#EEEDFE"/>
<g transform="translate(600,40)">
<path d="M-52,-30 h104 a12,12 0 0 1 12,12 v26 a12,12 0 0 1 -12,12 h-46 l-16,16 l-2,-16 h-40 a12,12 0 0 1 -12,-12 v-26 a12,12 0 0 1 12,-12 Z" fill="#f3c46a"/>
</g>
<rect x="288" y="128" width="624" height="14" rx="4" fill="#3C3489"/>
<rect x="320" y="142" width="14" height="42" fill="#26215C"/>
<rect x="866" y="142" width="14" height="42" fill="#26215C"/>
<g fill="#534AB7">
<rect x="524" y="92" width="30" height="36"/>
<rect x="560" y="70" width="26" height="58"/>
<rect x="592" y="100" width="34" height="28"/>
<rect x="632" y="78" width="28" height="50"/>
<rect x="666" y="104" width="26" height="24"/>
</g>
<g fill="#CECBF6">
<rect x="533" y="102" width="7" height="9"/><rect x="567" y="82" width="7" height="9"/>
<rect x="640" y="90" width="7" height="9"/><rect x="602" y="110" width="7" height="8"/>
</g>
<g fill="#26215C">
<path d="M368,128 a36,32 0 0 1 72,0 Z"/>
<rect x="356" y="121" width="96" height="8" rx="4"/>
</g>
<g fill="#26215C">
<rect x="742" y="94" width="72" height="34" rx="4"/>
<path d="M764,94 v-10 a14,9 0 0 1 28,0 v10" fill="none" stroke="#26215C" stroke-width="5"/>
<rect x="770" y="106" width="16" height="7" rx="2" fill="#7F77DD"/>
</g>
<g fill="#26215C" transform="translate(842,84)">
<path d="M0,14 L34,-6 L34,50 L0,30 Z"/>
<rect x="-16" y="14" width="18" height="16" rx="4"/>
<rect x="34" y="8" width="8" height="30" rx="3"/>
</g>
<path d="M1000,54 q10,-8 20,0 M1030,44 q10,-8 20,0" fill="none" stroke="#534AB7" stroke-width="3" stroke-linecap="round"/>
<path d="M0,162 C190,150 400,176 620,164 C840,152 1020,176 1200,162 V200 H0 Z" fill="#534AB7"/>
<path d="M0,181 C240,171 500,193 760,183 C960,174 1100,191 1200,183 V200 H0 Z" fill="#3C3489"/>
<path d="M0,193 C260,188 520,198 780,193 C980,190 1100,196 1200,193 V200 H0 Z" fill="#26215C"/>
</svg>
