<svg xmlns="http://www.w3.org/2000/svg" viewBox="0 0 1200 200" role="img" aria-label="Ein gedeckter Tisch am Horizont — Beratung rund um die Ernährung"><rect width="1200" height="200" fill="#EEEDFE"/><circle cx="320" cy="50" r="26" fill="#f3c46a"/><circle cx="320" cy="50" r="39" fill="none" stroke="#f3c46a" stroke-width="2" opacity="0.42"/><ellipse cx="600" cy="120" rx="92" ry="24" fill="#7F77DD"/><ellipse cx="600" cy="120" rx="64" ry="15" fill="#AFA9EC"/><g stroke="#26215C" stroke-width="5" stroke-linecap="round"><line x1="476" y1="92" x2="476" y2="148"/><line x1="470" y1="92" x2="470" y2="108"/><line x1="482" y1="92" x2="482" y2="108"/></g><line x1="726" y1="92" x2="726" y2="148" stroke="#26215C" stroke-width="6" stroke-linecap="round"/><path d="M726,92 C736,98 736,112 726,118" fill="none" stroke="#26215C" stroke-width="4"/><path d="M0,128 C150,106 320,142 500,124 C680,106 860,144 1040,124 C1110,116 1170,126 1200,120 V200 H0 Z" fill="#534AB7"/><path d="M0,150 C190,132 400,164 620,150 C840,136 1020,166 1200,150 V200 H0 Z" fill="#3C3489"/><path d="M0,180 C240,166 480,192 720,178 C940,166 1090,188 1200,178 V200 H0 Z" fill="#26215C"/></svg>