<svg xmlns="http://www.w3.org/2000/svg" viewBox="0 0 1200 200" role="img" aria-label="Die CI/CD-Schleife der DevOps-Kultur — ihre untere Bahn ist die vordere Welle, golden der Übergabepunkt">
<rect width="1200" height="200" fill="#EEEDFE"/>
<path d="M600,110 C560,66 470,66 460,110 C470,154 560,154 600,110 C640,66 730,66 740,110 C730,154 640,154 600,110 Z" fill="none" stroke="#3C3489" stroke-width="10"/><circle cx="600" cy="110" r="11" fill="#f3c46a"/><path d="M300,66 q9,-7 18,0 M326,58 q9,-7 18,0" fill="none" stroke="#534AB7" stroke-width="3" stroke-linecap="round"/><path d="M0,150 C140,144 280,150 430,150 C450,150 455,140 468,128 C500,150 700,150 732,128 C744,140 750,150 770,150 C920,150 1050,156 1200,150 V200 H0 Z" fill="#534AB7"/><path d="M0,152 C200,136 440,166 680,152 C900,139 1050,166 1200,154 V200 H0 Z" fill="#3C3489"/>
<path d="M0,180 C240,168 500,192 760,180 C980,168 1100,188 1200,180 V200 H0 Z" fill="#26215C"/>
</svg>
