<svg xmlns="http://www.w3.org/2000/svg" viewBox="0 0 1200 200" role="img" aria-label="Derselbe Baum steht zweimal an der Wellenkante — links noch kahl, rechts in voller Krone; dazwischen wandert die goldene Sonne über die Kerben der Zeit">
<rect width="1200" height="200" fill="#EEEDFE"/>
<path d="M0,142 C260,124 420,140 600,128 C800,118 1000,132 1200,120 V200 H0 Z" fill="#7F77DD"/>
<path d="M0,142 C260,124 420,140 600,128 C800,118 1000,132 1200,120" fill="none" stroke="#534AB7" stroke-width="4"/>
<line x1="180" y1="135.9" x2="180" y2="147.9" stroke="#EEEDFE" stroke-width="3" stroke-linecap="round"/><line x1="235" y1="135.0" x2="235" y2="147.0" stroke="#EEEDFE" stroke-width="3" stroke-linecap="round"/><line x1="290" y1="134.7" x2="290" y2="146.7" stroke="#EEEDFE" stroke-width="3" stroke-linecap="round"/><line x1="345" y1="134.8" x2="345" y2="146.8" stroke="#EEEDFE" stroke-width="3" stroke-linecap="round"/><line x1="400" y1="135.0" x2="400" y2="147.0" stroke="#EEEDFE" stroke-width="3" stroke-linecap="round"/><line x1="455" y1="134.8" x2="455" y2="146.8" stroke="#EEEDFE" stroke-width="3" stroke-linecap="round"/><line x1="510" y1="134.0" x2="510" y2="146.0" stroke="#EEEDFE" stroke-width="3" stroke-linecap="round"/><line x1="565" y1="132.0" x2="565" y2="144.0" stroke="#EEEDFE" stroke-width="3" stroke-linecap="round"/><line x1="620" y1="129.1" x2="620" y2="141.1" stroke="#EEEDFE" stroke-width="3" stroke-linecap="round"/><line x1="675" y1="127.3" x2="675" y2="139.3" stroke="#EEEDFE" stroke-width="3" stroke-linecap="round"/><line x1="730" y1="126.4" x2="730" y2="138.4" stroke="#EEEDFE" stroke-width="3" stroke-linecap="round"/><line x1="785" y1="126.1" x2="785" y2="138.1" stroke="#EEEDFE" stroke-width="3" stroke-linecap="round"/><line x1="840" y1="126.3" x2="840" y2="138.3" stroke="#EEEDFE" stroke-width="3" stroke-linecap="round"/><line x1="895" y1="126.7" x2="895" y2="138.7" stroke="#EEEDFE" stroke-width="3" stroke-linecap="round"/><line x1="950" y1="127.1" x2="950" y2="139.1" stroke="#EEEDFE" stroke-width="3" stroke-linecap="round"/><line x1="1005" y1="127.2" x2="1005" y2="139.2" stroke="#EEEDFE" stroke-width="3" stroke-linecap="round"/>
<path d="M302,133 L318,133 L314,58 L306,58 Z" fill="#3C3489"/>
<g stroke="#3C3489" stroke-width="6" stroke-linecap="round" fill="none"><path d="M310,86 L266,54"/><path d="M310,94 L354,60"/><path d="M310,66 L280,36"/><path d="M310,64 L344,32"/><path d="M310,48 L310,24"/></g>
<g stroke="#3C3489" stroke-width="3" stroke-linecap="round" fill="none"><path d="M288,68 L272,52"/><path d="M334,74 L352,58"/><path d="M296,40 L286,26"/><path d="M326,42 L338,26"/></g>
<path d="M891,125 L909,125 L906,76 L894,76 Z" fill="#3C3489"/>
<path d="M900,20 C962,20 990,58 962,80 C938,98 862,98 838,80 C810,58 838,20 900,20 Z" fill="#534AB7"/>
<circle cx="600" cy="44" r="25" fill="#f3c46a"/>
<circle cx="600" cy="44" r="36" fill="none" stroke="#f3c46a" stroke-width="2" opacity="0.45"/>
<path d="M356,34 C460,-2 740,-2 848,34" fill="none" stroke="#AFA9EC" stroke-width="3" stroke-dasharray="8 9"/>
<path d="M0,164 C220,156 460,180 700,168 C920,157 1080,176 1200,166 V200 H0 Z" fill="#3C3489"/>
<path d="M0,188 C260,182 540,197 800,189 C1000,184 1120,193 1200,188 V200 H0 Z" fill="#26215C"/>
</svg>
