<svg xmlns="http://www.w3.org/2000/svg" viewBox="0 0 1200 200" role="img" aria-label="Der Tag-und-Nacht-Terminator eines Planeten ist zugleich die vorderste Wellenkante — links golden beleuchtet, rechts dunkel: der Gegensatz in einem Bild">
<rect width="1200" height="200" fill="#EEEDFE"/>
<circle cx="880" cy="48" r="2" fill="#EEEDFE" opacity="0.45"/><circle cx="1000" cy="86" r="1.6" fill="#EEEDFE" opacity="0.4"/><circle cx="950" cy="120" r="1.5" fill="#EEEDFE" opacity="0.35"/>
<circle cx="250" cy="60" r="22" fill="#f3c46a"/>
<ellipse cx="250" cy="60" rx="36" ry="11" fill="none" stroke="#f3c46a" stroke-width="2" opacity="0.4"/>
<path d="M0,150 C150,120 330,150 470,132 C540,124 570,126 600,128 V200 H0 Z" fill="#7F77DD"/>
<path d="M600,128 C660,132 760,150 900,134 C1030,120 1120,140 1200,132 V200 H600 Z" fill="#26215C"/>
<path d="M0,150 C150,120 330,150 470,132 C540,124 570,126 600,128 C660,132 760,150 900,134 C1030,120 1120,140 1200,132" fill="none" stroke="#534AB7" stroke-width="3" stroke-linecap="round"/>
<line x1="600" y1="128" x2="600" y2="200" stroke="#AFA9EC" stroke-width="2" opacity="0.5" stroke-dasharray="4 5"/>
<path d="M0,150 C190,132 380,164 600,150 C820,136 1010,166 1200,150 V200 H0 Z" fill="#3C3489"/><path d="M0,180 C220,166 460,192 700,178 C920,166 1080,188 1200,178 V200 H0 Z" fill="#26215C"/>
</svg>