<svg xmlns="http://www.w3.org/2000/svg" viewBox="0 0 1200 200" role="img" aria-label="Ein Thermometer, dessen goldene Saeule die Hoehe der Welle bestimmt">
<rect width="1200" height="200" fill="#EEEDFE"/>
<path d="M0,150 C120,150 340,150 480,150 C520,150 540,116 600,72 C660,116 690,150 760,150 C920,150 1060,150 1200,150 V200 H0 Z" fill="#7F77DD"/>
<path d="M0,170 C240,158 500,182 760,172 C980,162 1110,180 1200,172 V200 H0 Z" fill="#3C3489"/>
<path d="M0,188 C240,178 500,196 760,188 C980,180 1110,194 1200,188 V200 H0 Z" fill="#26215C"/>
<g stroke="#534AB7" stroke-width="3" stroke-linecap="round">
<line x1="620" y1="86" x2="644" y2="86"/><line x1="626" y1="104" x2="644" y2="104"/>
<line x1="620" y1="122" x2="644" y2="122"/><line x1="626" y1="140" x2="644" y2="140"/></g>
<rect x="584" y="60" width="34" height="98" rx="17" fill="#EEEDFE" stroke="#26215C" stroke-width="7"/>
<circle cx="601" cy="166" r="24" fill="#26215C"/>
<circle cx="601" cy="166" r="16" fill="#f3c46a"/>
<rect x="592" y="80" width="18" height="86" fill="#f3c46a"/>
<circle cx="601" cy="80" r="9" fill="#f3c46a"/>
</svg>