<svg xmlns="http://www.w3.org/2000/svg" viewBox="0 0 1200 200" role="img" aria-label="Eine Welle aus lauter Bildschirmen türmt sich auf — davor treibt ein kleines Boot mit goldener Laterne">
<rect width="1200" height="200" fill="#EEEDFE"/>
<defs>
<clipPath id="flut">
<path d="M1200,16 C1080,22 1010,64 930,92 C830,126 660,146 470,156 C300,165 140,168 0,170 V200 H1200 Z"/>
</clipPath>
</defs>
<path d="M180,52 q12,-10 24,0 M214,40 q12,-10 24,0" fill="none" stroke="#AFA9EC" stroke-width="3.5" stroke-linecap="round"/>
<path d="M1200,16 C1080,22 1010,64 930,92 C830,126 660,146 470,156 C300,165 140,168 0,170 V200 H1200 Z" fill="#3C3489"/>
<g clip-path="url(#flut)" fill="#534AB7">
<rect x="1000" y="34" width="26" height="17" rx="2"/><rect x="1040" y="30" width="26" height="17" rx="2"/><rect x="1080" y="26" width="26" height="17" rx="2"/><rect x="1120" y="24" width="26" height="17" rx="2"/><rect x="1160" y="22" width="26" height="17" rx="2"/>
<rect x="960" y="62" width="26" height="17" rx="2"/><rect x="1000" y="58" width="26" height="17" rx="2"/><rect x="1040" y="54" width="26" height="17" rx="2"/><rect x="1080" y="50" width="26" height="17" rx="2"/><rect x="1120" y="48" width="26" height="17" rx="2"/><rect x="1160" y="46" width="26" height="17" rx="2"/>
<rect x="880" y="104" width="26" height="17" rx="2"/><rect x="920" y="96" width="26" height="17" rx="2"/><rect x="960" y="88" width="26" height="17" rx="2"/><rect x="1000" y="82" width="26" height="17" rx="2"/><rect x="1040" y="78" width="26" height="17" rx="2"/><rect x="1080" y="74" width="26" height="17" rx="2"/><rect x="1120" y="72" width="26" height="17" rx="2"/><rect x="1160" y="70" width="26" height="17" rx="2"/>
<rect x="760" y="140" width="26" height="17" rx="2"/><rect x="800" y="134" width="26" height="17" rx="2"/><rect x="840" y="126" width="26" height="17" rx="2"/><rect x="880" y="128" width="26" height="17" rx="2"/><rect x="920" y="120" width="26" height="17" rx="2"/><rect x="960" y="112" width="26" height="17" rx="2"/><rect x="1000" y="106" width="26" height="17" rx="2"/><rect x="1040" y="102" width="26" height="17" rx="2"/><rect x="1080" y="98" width="26" height="17" rx="2"/><rect x="1120" y="96" width="26" height="17" rx="2"/><rect x="1160" y="94" width="26" height="17" rx="2"/>
<rect x="560" y="172" width="26" height="17" rx="2"/><rect x="600" y="170" width="26" height="17" rx="2"/><rect x="640" y="166" width="26" height="17" rx="2"/><rect x="680" y="162" width="26" height="17" rx="2"/><rect x="720" y="158" width="26" height="17" rx="2"/><rect x="760" y="164" width="26" height="17" rx="2"/><rect x="800" y="158" width="26" height="17" rx="2"/><rect x="840" y="150" width="26" height="17" rx="2"/><rect x="880" y="152" width="26" height="17" rx="2"/><rect x="920" y="144" width="26" height="17" rx="2"/><rect x="960" y="136" width="26" height="17" rx="2"/><rect x="1000" y="130" width="26" height="17" rx="2"/><rect x="1040" y="126" width="26" height="17" rx="2"/><rect x="1080" y="122" width="26" height="17" rx="2"/><rect x="1120" y="120" width="26" height="17" rx="2"/><rect x="1160" y="118" width="26" height="17" rx="2"/>
</g>
<g transform="translate(340,160)">
<path d="M-56,0 L56,0 L38,22 L-38,22 Z" fill="#26215C"/>
<line x1="0" y1="0" x2="0" y2="-52" stroke="#26215C" stroke-width="5" stroke-linecap="round"/>
<path d="M6,-48 L44,-8 L6,-8 Z" fill="#534AB7"/>
<circle cx="0" cy="-60" r="8" fill="#f3c46a"/>
</g>
<path d="M0,178 C200,170 420,188 640,180 C860,172 1040,190 1200,182 V200 H0 Z" fill="#26215C"/>
<circle cx="170" cy="188" r="3.5" fill="#EEEDFE" opacity="0.5"/>
<circle cx="480" cy="193" r="3" fill="#EEEDFE" opacity="0.45"/>
</svg>
