<svg xmlns="http://www.w3.org/2000/svg" viewBox="0 0 1200 200" role="img" aria-label="Die Bergkette ist aus einzelnen Gliedern zusammengesetzt — ein goldenes Glied lässt sich herausheben, und die Landschaft bleibt doch Landschaft">
<rect width="1200" height="200" fill="#EEEDFE"/>
<defs>
<clipPath id="slice"><rect x="466" y="0" width="150" height="200"/></clipPath>
</defs>
<circle cx="1080" cy="46" r="22" fill="#CECBF6"/>
<path d="M200,44 q10,-8 20,0 M230,32 q10,-8 20,0" fill="none" stroke="#AFA9EC" stroke-width="3" stroke-linecap="round"/>
<path d="M120,150 L200,96 L268,130 L340,52 L430,116 L500,74 L580,128 L660,60 L750,124 L830,88 L910,140 L1000,100 L1080,150 Z" fill="#534AB7"/>
<g clip-path="url(#slice)"><path d="M120,150 L200,96 L268,130 L340,52 L430,116 L500,74 L580,128 L660,60 L750,124 L830,88 L910,140 L1000,100 L1080,150 Z" fill="#CECBF6"/></g>
<rect x="292" y="0" width="8" height="200" fill="#EEEDFE"/><rect x="462" y="0" width="8" height="200" fill="#EEEDFE"/><rect x="612" y="0" width="8" height="200" fill="#EEEDFE"/><rect x="782" y="0" width="8" height="200" fill="#EEEDFE"/><rect x="942" y="0" width="8" height="200" fill="#EEEDFE"/>
<g transform="translate(0,-42)" clip-path="url(#slice)"><path d="M120,150 L200,96 L268,130 L340,52 L430,116 L500,74 L580,128 L660,60 L750,124 L830,88 L910,140 L1000,100 L1080,150 Z" fill="#f3c46a"/></g>
<path d="M0,152 C200,144 420,164 640,154 C860,144 1040,164 1200,152 V200 H0 Z" fill="#534AB7"/>
<path d="M0,174 C220,166 460,190 700,177 C920,166 1080,184 1200,174 V200 H0 Z" fill="#3C3489"/>
<path d="M0,192 C260,187 540,198 800,192 C1000,188 1120,195 1200,192 V200 H0 Z" fill="#26215C"/>
</svg>