<svg xmlns="http://www.w3.org/2000/svg" viewBox="0 0 1200 200" role="img" aria-label="Marktstaende am Wasser, deren Markisen zur Welle werden">
<rect width="1200" height="200" fill="#EEEDFE"/>
<circle cx="600" cy="46" r="24" fill="#f3c46a"/>
<circle cx="600" cy="46" r="34" fill="none" stroke="#f3c46a" stroke-width="2" opacity="0.4"/>
<path d="M160,108 L250,80 L340,108 Z" fill="#534AB7"/><line x1="172" y1="150" x2="172" y2="112" stroke="#26215C" stroke-width="4"/><line x1="328" y1="150" x2="328" y2="112" stroke="#26215C" stroke-width="4"/><path d="M340,108 L430,80 L520,108 Z" fill="#534AB7"/><line x1="352" y1="150" x2="352" y2="112" stroke="#26215C" stroke-width="4"/><line x1="508" y1="150" x2="508" y2="112" stroke="#26215C" stroke-width="4"/><path d="M520,108 L610,80 L700,108 Z" fill="#534AB7"/><line x1="532" y1="150" x2="532" y2="112" stroke="#26215C" stroke-width="4"/><line x1="688" y1="150" x2="688" y2="112" stroke="#26215C" stroke-width="4"/><path d="M700,108 L790,80 L880,108 Z" fill="#534AB7"/><line x1="712" y1="150" x2="712" y2="112" stroke="#26215C" stroke-width="4"/><line x1="868" y1="150" x2="868" y2="112" stroke="#26215C" stroke-width="4"/><path d="M880,108 L970,80 L1060,108 Z" fill="#534AB7"/><line x1="892" y1="150" x2="892" y2="112" stroke="#26215C" stroke-width="4"/><line x1="1048" y1="150" x2="1048" y2="112" stroke="#26215C" stroke-width="4"/>
<g fill="#26215C"><rect x="228" y="126" width="44" height="24" rx="2"/><path d="M598,150 l16,-26 l16,26 Z"/><rect x="948" y="120" width="26" height="30" rx="2"/><circle cx="792" cy="138" r="11"/></g>
<path d="M160,108 q22,22 44,0 q22,22 44,0 q22,22 44,0 q22,22 44,0 q22,22 44,0 q22,22 44,0 q22,22 44,0 q22,22 44,0 q22,22 44,0 q22,22 44,0 q22,22 44,0 q22,22 44,0 q22,22 44,0 q22,22 44,0 q22,22 44,0 q22,22 44,0 q22,22 44,0 q22,22 44,0 q22,22 44,0 q22,22 44,0 q22,22 44,0 q22,22 44,0 q22,22 44,0 q22,22 44,0 L1048,200 L160,200 Z" fill="#7F77DD"/>
<path d="M0,160 C240,146 500,174 760,162 C980,152 1110,172 1200,162 V200 H0 Z" fill="#3C3489"/>
<path d="M0,185 C240,173 500,195 760,185 C980,175 1110,193 1200,185 V200 H0 Z" fill="#26215C"/>
</svg>