<svg xmlns="http://www.w3.org/2000/svg" viewBox="0 0 1200 200" role="img" aria-label="Ein goldener Blitz schlägt in die Welle und spaltet sie">
<rect width="1200" height="200" fill="#EEEDFE"/>
<path d="M0,132 L200,72 L400,132 Z" fill="#CECBF6"/>
<path d="M800,132 L1000,74 L1200,132 Z" fill="#CECBF6"/>
<circle cx="330" cy="40" r="3" fill="#AFA9EC"/><circle cx="880" cy="38" r="2.5" fill="#AFA9EC"/>
<path d="M616,22 L560,86 L598,90 L548,132 L604,128 L598,150 L640,96 L602,92 L648,52 Z" fill="#f3c46a"/>
<path d="M0,150 C160,140 320,150 470,150 L560,150 L600,138 L640,150 L740,150 C900,150 1050,150 1200,148 V200 H0 Z" fill="#534AB7"/>
<path d="M600,150 L588,166 L612,166 Z" fill="#f3c46a" opacity="0.85"/>
<path d="M0,180 C220,166 460,192 700,178 C920,166 1090,188 1200,178 V200 H0 Z" fill="#26215C"/>
</svg>
