<svg xmlns="http://www.w3.org/2000/svg" viewBox="0 0 1200 200" role="img" aria-label="Im Zebrastreifen fehlt ein Balken — der goldene Streifen schwebt über der Lücke">
<rect width="1200" height="200" fill="#EEEDFE"/>
<g fill="#CECBF6">
<rect x="150" y="52" width="56" height="66"/><rect x="216" y="70" width="44" height="48"/>
<rect x="980" y="46" width="60" height="72"/><rect x="1050" y="76" width="46" height="42"/>
</g>
<g stroke="#AFA9EC" stroke-width="4" stroke-linecap="round" fill="none">
<line x1="300" y1="118" x2="300" y2="70"/><line x1="300" y1="70" x2="336" y2="70"/>
<line x1="900" y1="118" x2="900" y2="70"/><line x1="900" y1="70" x2="864" y2="70"/>
</g>
<circle cx="342" cy="70" r="7" fill="#AFA9EC"/><circle cx="858" cy="70" r="7" fill="#AFA9EC"/>
<path d="M0,118 C200,112 380,124 600,118 C820,112 1000,124 1200,118 V200 H0 Z" fill="#3C3489"/>
<g fill="#CECBF6">
<rect x="330" y="126" width="34" height="56"/>
<rect x="392" y="126" width="34" height="56"/>
<rect x="454" y="126" width="34" height="56"/>
<rect x="516" y="126" width="34" height="56"/>
<rect x="640" y="126" width="34" height="56"/>
<rect x="702" y="126" width="34" height="56"/>
<rect x="764" y="126" width="34" height="56"/>
<rect x="826" y="126" width="34" height="56"/>
</g>
<g stroke="#7F77DD" stroke-width="2.5" stroke-dasharray="7 7" fill="none">
<line x1="578" y1="126" x2="578" y2="182"/><line x1="612" y1="126" x2="612" y2="182"/>
</g>
<g transform="translate(576,46) rotate(-9)">
<rect x="0" y="0" width="34" height="58" rx="3" fill="#f3c46a"/>
</g>
<circle cx="595" cy="112" r="4" fill="#7F77DD" opacity="0.6"/>
<path d="M700,40 q10,-8 20,0 M730,30 q10,-8 20,0" fill="none" stroke="#534AB7" stroke-width="3" stroke-linecap="round"/>
<path d="M0,188 C260,181 520,196 780,189 C980,183 1100,194 1200,189 V200 H0 Z" fill="#26215C"/>
</svg>
