<svg xmlns="http://www.w3.org/2000/svg" viewBox="0 0 1200 200" role="img" aria-label="Eine Stimmgabel schwingt ueber dem Wasser; ihre Schwingungslinie wird zur vorderen Welle, oben schwebt ein goldener Ton">
<rect width="1200" height="200" fill="#EEEDFE"/>
<circle cx="770" cy="52" r="11" fill="#f3c46a"/>
<line x1="770" y1="52" x2="770" y2="20" stroke="#f3c46a" stroke-width="3" stroke-linecap="round"/>
<g stroke="#3C3489" stroke-width="9" fill="none" stroke-linecap="round"><line x1="560" y1="60" x2="560" y2="130"/><line x1="620" y1="60" x2="620" y2="130"/></g>
<rect x="580" y="130" width="20" height="10" fill="#3C3489"/>
<rect x="583" y="140" width="14" height="20" rx="4" fill="#534AB7"/>
<g stroke="#AFA9EC" stroke-width="3" fill="none" stroke-linecap="round"><path d="M520,74 q-14,16 0,32"/><path d="M496,66 q-24,26 0,52"/><path d="M660,74 q14,16 0,32"/><path d="M684,66 q24,26 0,52"/></g>
<path d="M0,150 C120,150 300,150 470,150 C520,120 560,120 600,150 C640,180 680,180 730,150 C900,150 1080,150 1200,150 V200 H0 Z" fill="#7F77DD"/>
<path d="M0,176 C220,162 460,190 700,178 C920,166 1080,188 1200,178 V200 H0 Z" fill="#3C3489"/>
<path d="M0,190 C240,182 520,198 780,190 C1000,183 1120,194 1200,190 V200 H0 Z" fill="#26215C"/>
</svg>