<svg xmlns="http://www.w3.org/2000/svg" viewBox="0 0 1200 200" role="img" aria-label="Eine Pipeline wächst über die Welle — das goldene Rohrstück wird eingesetzt">
<rect width="1200" height="200" fill="#EEEDFE"/>
<g fill="#3C3489">
<rect x="250" y="94" width="160" height="26" rx="13"/>
<rect x="426" y="94" width="160" height="26" rx="13"/>
<rect x="756" y="94" width="160" height="26" rx="13"/>
</g>
<g fill="#26215C">
<rect x="404" y="88" width="14" height="38" rx="4"/>
<rect x="580" y="88" width="14" height="38" rx="4"/>
<rect x="734" y="88" width="14" height="38" rx="4"/>
<rect x="910" y="88" width="14" height="38" rx="4"/>
</g>
<rect x="602" y="40" width="124" height="26" rx="13" fill="#f3c46a"/>
<path d="M620,74 L620,82 M708,74 L708,82" stroke="#26215C" stroke-width="3" stroke-dasharray="4 5"/>
<g stroke="#26215C" stroke-width="7" stroke-linecap="round">
<path d="M300,120 L300,156 M360,120 L360,158"/>
<path d="M480,120 L480,158 M540,120 L540,156"/>
<path d="M810,120 L810,156 M870,120 L870,158"/>
</g>
<path d="M130,56 q11,-9 22,0 M166,68 q9,-8 18,0" fill="none" stroke="#534AB7" stroke-width="3" stroke-linecap="round"/>
<path d="M0,156 C210,146 440,168 660,156 C880,145 1050,166 1200,156 V200 H0 Z" fill="#7F77DD"/>
<path d="M0,174 C240,166 500,188 740,175 C950,166 1100,184 1200,174 V200 H0 Z" fill="#3C3489"/>
<path d="M0,190 C260,184 540,200 800,189 C1010,184 1140,195 1200,190 V200 H0 Z" fill="#26215C"/>
</svg>
