<svg xmlns="http://www.w3.org/2000/svg" viewBox="0 0 1200 200" role="img" aria-label="Aus dem aufgeschlagenen Programmheft steigen Noten auf und reihen sich zur Wellenkante — die letzte leuchtet golden">
<rect width="1200" height="200" fill="#EEEDFE"/>
<path d="M0,152 C120,140 240,148 340,152 C480,158 560,142 620,130 C760,102 900,88 1040,74 C1110,67 1160,64 1200,62 V200 H0 Z" fill="#7F77DD"/>
<path d="M0,152 C120,140 240,148 340,152 C480,158 560,142 620,130 C760,102 900,88 1040,74 C1110,67 1160,64 1200,62" fill="none" stroke="#534AB7" stroke-width="3"/>
<g>
<path d="M168,152 C196,116 258,106 300,122 L300,152 Z" fill="#CECBF6"/>
<path d="M432,152 C404,116 342,106 300,122 L300,152 Z" fill="#AFA9EC"/>
<g stroke="#7F77DD" stroke-width="2" fill="none" opacity="0.9">
<path d="M196,136 C224,120 262,116 292,128"/><path d="M198,146 C226,130 264,126 292,138"/>
<path d="M404,136 C376,120 338,116 308,128"/><path d="M402,146 C374,130 336,126 308,138"/>
</g>
<path d="M168,152 C196,116 258,106 300,122 C342,106 404,116 432,152" fill="none" stroke="#26215C" stroke-width="3.5" stroke-linejoin="round"/>
<line x1="300" y1="122" x2="300" y2="152" stroke="#26215C" stroke-width="3.5"/>
</g>
<g fill="#26215C">
<g transform="translate(486,150)"><ellipse cx="0" cy="0" rx="13" ry="9" transform="rotate(-18)"/><rect x="9" y="-34" width="4" height="34"/></g>
<g transform="translate(606,134)"><ellipse cx="0" cy="0" rx="13" ry="9" transform="rotate(-18)"/><rect x="9" y="-34" width="4" height="34"/><path d="M13,-34 q18,8 14,26 q-2,-14 -14,-16 Z"/></g>
<g transform="translate(734,110)"><ellipse cx="0" cy="0" rx="13" ry="9" transform="rotate(-18)"/><rect x="9" y="-34" width="4" height="34"/></g>
<g transform="translate(872,92)"><ellipse cx="0" cy="0" rx="13" ry="9" transform="rotate(-18)"/><rect x="9" y="-34" width="4" height="34"/><path d="M13,-34 q18,8 14,26 q-2,-14 -14,-16 Z"/></g>
</g>
<g fill="#f3c46a" transform="translate(1012,76)"><ellipse cx="0" cy="0" rx="14" ry="10" transform="rotate(-18)"/><rect x="10" y="-38" width="5" height="38"/><path d="M15,-38 q20,9 15,29 q-2,-16 -15,-18 Z"/></g>
<path d="M520,72 q10,-8 20,0 M552,60 q10,-8 20,0" fill="none" stroke="#AFA9EC" stroke-width="3" stroke-linecap="round"/>
<path d="M0,168 C200,156 420,182 640,170 C860,158 1040,182 1200,168 V200 H0 Z" fill="#3C3489"/>
<path d="M0,188 C240,178 500,198 760,186 C980,176 1110,192 1200,184 V200 H0 Z" fill="#26215C"/>
</svg>
