<svg xmlns="http://www.w3.org/2000/svg" viewBox="0 0 1200 200" role="img" aria-label="Ein Fluss windet sich durch die Hügel, ein Boot ist gerade unterwegs — der fortlaufende Verlauf">
<rect width="1200" height="200" fill="#EEEDFE"/>
<circle cx="980" cy="54" r="26" fill="#f3c46a"/>
<circle cx="980" cy="54" r="37" fill="none" stroke="#f3c46a" stroke-width="2" opacity="0.4"/><path d="M0,138 L220,104 L430,138 Z" fill="#CECBF6"/><path d="M360,138 L620,84 L880,138 Z" fill="#AFA9EC"/><path d="M520,120 C500,140 560,150 540,168 C525,182 590,188 620,196 L720,196 C690,184 640,178 660,164 C680,150 610,142 640,124 Z" fill="#CECBF6" opacity="0.9"/><path d="M596,150 l40,0 -6,12 -28,0 Z" fill="#26215C"/><line x1="616" y1="150" x2="616" y2="134" stroke="#26215C" stroke-width="2"/><path d="M616,135 l16,8 -16,5 Z" fill="#534AB7"/><path d="M300,60 q9,-7 18,0 M326,52 q9,-7 18,0" fill="none" stroke="#534AB7" stroke-width="3" stroke-linecap="round"/><path d="M0,150 C200,134 430,160 700,150 C900,142 1050,162 1200,152 V200 H0 Z" fill="#534AB7"/><path d="M0,152 C200,136 440,166 680,152 C900,139 1050,166 1200,154 V200 H0 Z" fill="#3C3489"/>
<path d="M0,180 C240,168 500,192 760,180 C980,168 1100,188 1200,180 V200 H0 Z" fill="#26215C"/>
</svg>
