<svg xmlns="http://www.w3.org/2000/svg" viewBox="0 0 1200 200" role="img" aria-label="Die Fensterreihen der Fassade lesen sich wie Textzeilen — ein Fenster leuchtet golden wie ein markiertes Wort">
<rect width="1200" height="200" fill="#EEEDFE"/>
<g fill="#CECBF6">
<rect x="168" y="70" width="70" height="90"/><rect x="962" y="56" width="76" height="104"/>
<rect x="1048" y="88" width="52" height="72"/>
</g>
<g stroke="#CECBF6" stroke-width="4" stroke-linecap="round"><line x1="1000" y1="56" x2="1000" y2="34"/></g>
<rect x="300" y="30" width="30" height="130" fill="#3C3489"/>
<rect x="330" y="22" width="596" height="138" fill="#534AB7"/>
<rect x="330" y="22" width="596" height="9" fill="#3C3489"/>
<g fill="#CECBF6">
<rect x="352" y="46" width="52" height="12" rx="2"/><rect x="416" y="46" width="88" height="12" rx="2"/><rect x="516" y="46" width="36" height="12" rx="2"/><rect x="564" y="46" width="70" height="12" rx="2"/><rect x="646" y="46" width="46" height="12" rx="2"/><rect x="704" y="46" width="96" height="12" rx="2"/><rect x="812" y="46" width="40" height="12" rx="2"/><rect x="864" y="46" width="42" height="12" rx="2"/>
<rect x="352" y="74" width="76" height="12" rx="2"/><rect x="440" y="74" width="40" height="12" rx="2"/><rect x="492" y="74" width="58" height="12" rx="2"/><rect x="628" y="74" width="34" height="12" rx="2"/><rect x="674" y="74" width="84" height="12" rx="2"/><rect x="770" y="74" width="48" height="12" rx="2"/><rect x="830" y="74" width="76" height="12" rx="2"/>
<rect x="352" y="102" width="44" height="12" rx="2"/><rect x="408" y="102" width="92" height="12" rx="2"/><rect x="512" y="102" width="38" height="12" rx="2"/><rect x="562" y="102" width="66" height="12" rx="2"/><rect x="640" y="102" width="52" height="12" rx="2"/><rect x="704" y="102" width="42" height="12" rx="2"/><rect x="758" y="102" width="74" height="12" rx="2"/><rect x="844" y="102" width="62" height="12" rx="2"/>
<rect x="352" y="130" width="60" height="12" rx="2"/><rect x="424" y="130" width="42" height="12" rx="2"/><rect x="478" y="130" width="78" height="12" rx="2"/><rect x="568" y="130" width="36" height="12" rx="2"/><rect x="616" y="130" width="54" height="12" rx="2"/>
</g>
<rect x="562" y="74" width="54" height="12" rx="2" fill="#f3c46a"/>
<path d="M1096,44 q10,-8 20,0 M1126,34 q10,-8 20,0" fill="none" stroke="#534AB7" stroke-width="3" stroke-linecap="round"/>
<path d="M0,160 C190,148 400,174 620,162 C840,150 1020,174 1200,160 V200 H0 Z" fill="#3C3489"/>
<path d="M0,183 C240,173 500,195 760,183 C960,174 1100,191 1200,183 V200 H0 Z" fill="#26215C"/>
</svg>
