<svg xmlns="http://www.w3.org/2000/svg" viewBox="0 0 1200 200" role="img" aria-label="Pro und Kontra liegen als Wortkarten auf dem Waagebalken — rechts fehlt genau eine, und erst die goldene bringt die Waage ins Gleichgewicht">
<rect width="1200" height="200" fill="#EEEDFE"/>
<path d="M180,44 q10,-8 20,0 M210,32 q10,-8 20,0" fill="none" stroke="#AFA9EC" stroke-width="3" stroke-linecap="round"/>
<path d="M556,172 L644,172 L600,106 Z" fill="#26215C"/>
<path d="M258,130 L942,98 L942,112 L258,144 Z" fill="#26215C"/>
<rect x="306" y="95" width="124" height="25" rx="3" fill="#534AB7"/><line x1="320" y1="104" x2="416" y2="104" stroke="#EEEDFE" stroke-width="3" opacity="0.75"/><line x1="320" y1="112" x2="392" y2="112" stroke="#EEEDFE" stroke-width="3" opacity="0.55"/>
<rect x="306" y="68" width="124" height="25" rx="3" fill="#7F77DD"/><line x1="320" y1="77" x2="416" y2="77" stroke="#EEEDFE" stroke-width="3" opacity="0.75"/><line x1="320" y1="85" x2="392" y2="85" stroke="#EEEDFE" stroke-width="3" opacity="0.55"/>
<rect x="306" y="41" width="124" height="25" rx="3" fill="#AFA9EC"/><line x1="320" y1="50" x2="416" y2="50" stroke="#EEEDFE" stroke-width="3" opacity="0.75"/><line x1="320" y1="58" x2="392" y2="58" stroke="#EEEDFE" stroke-width="3" opacity="0.55"/>
<rect x="760" y="74" width="124" height="25" rx="3" fill="#534AB7"/><line x1="774" y1="83" x2="870" y2="83" stroke="#EEEDFE" stroke-width="3" opacity="0.75"/><line x1="774" y1="91" x2="846" y2="91" stroke="#EEEDFE" stroke-width="3" opacity="0.55"/>
<rect x="760" y="47" width="124" height="25" rx="3" fill="#7F77DD"/><line x1="774" y1="56" x2="870" y2="56" stroke="#EEEDFE" stroke-width="3" opacity="0.75"/><line x1="774" y1="64" x2="846" y2="64" stroke="#EEEDFE" stroke-width="3" opacity="0.55"/>
<rect x="760" y="20" width="124" height="25" rx="3" fill="none" stroke="#AFA9EC" stroke-width="3" stroke-dasharray="10 9"/>
<g transform="rotate(-8 996 18)"><rect x="946" y="6" width="100" height="25" rx="3" fill="#f3c46a"/><line x1="958" y1="15" x2="1034" y2="15" stroke="#EEEDFE" stroke-width="3" opacity="0.8"/><line x1="958" y1="23" x2="1012" y2="23" stroke="#EEEDFE" stroke-width="3" opacity="0.6"/></g>
<line x1="890" y1="32" x2="944" y2="28" stroke="#AFA9EC" stroke-width="3" stroke-dasharray="6 8"/>
<path d="M0,158 C200,148 420,174 640,162 C860,150 1040,172 1200,158 V200 H0 Z" fill="#534AB7"/>
<path d="M0,178 C220,170 460,192 700,180 C920,170 1080,186 1200,178 V200 H0 Z" fill="#3C3489"/>
<path d="M0,194 C260,190 540,199 800,194 C1000,190 1120,197 1200,194 V200 H0 Z" fill="#26215C"/>
</svg>
