<svg xmlns="http://www.w3.org/2000/svg" viewBox="0 0 1200 200" role="img" aria-label="Skyline der Arbeitswelt mit einer Lücke, die ein goldener Baustein füllt"><rect width="1200" height="200" fill="#EEEDFE"/><g fill="#AFA9EC"><rect x="200" y="74" width="60" height="46"/><rect x="268" y="54" width="46" height="66"/><rect x="560" y="66" width="44" height="54"/><rect x="1006" y="60" width="52" height="60"/></g><g fill="#7F77DD"><rect x="324" y="38" width="66" height="82"/><rect x="470" y="76" width="54" height="44"/><rect x="940" y="48" width="64" height="72"/></g><rect x="700" y="44" width="60" height="76" fill="#3C3489"/><g fill="#26215C"><rect x="800" y="60" width="48" height="60"/></g><rect x="628" y="20" width="52" height="40" rx="3" fill="#f3c46a"/><path d="M628,60 l52,0 M654,60 l0,58" stroke="#f3c46a" stroke-width="2" opacity="0.5" stroke-dasharray="3 5"/><path d="M250,80 q10,-8 20,0 M280,68 q10,-8 20,0" fill="none" stroke="#534AB7" stroke-width="3" stroke-linecap="round"/><path d="M0,124 C160,106 320,140 480,124 C640,108 820,142 1000,124 C1090,115 1150,122 1200,118 V200 H0 Z" fill="#534AB7"/><path d="M0,152 C180,134 380,166 600,152 C820,138 1010,168 1200,152 V200 H0 Z" fill="#3C3489"/><path d="M0,178 C220,164 460,190 700,176 C920,164 1080,188 1200,178 V200 H0 Z" fill="#26215C"/></svg>