<svg xmlns="http://www.w3.org/2000/svg" viewBox="0 0 1200 200" role="img" aria-label="Ein Mobile über der Welle — an einem Faden fehlt die Form; solange die Lücke offen ist, hängt das Ganze schief, und die goldene Form schwebt schon heran">
<rect width="1200" height="200" fill="#EEEDFE"/>
<path d="M200,58 q10,-8 20,0 M230,46 q10,-8 20,0" fill="none" stroke="#AFA9EC" stroke-width="3" stroke-linecap="round"/>
<circle cx="1040" cy="44" r="20" fill="#CECBF6"/>
<line x1="600" y1="0" x2="600" y2="34" stroke="#26215C" stroke-width="4"/>
<circle cx="600" cy="38" r="7" fill="#26215C"/>
<g transform="rotate(-7 600 38)">
<line x1="380" y1="38" x2="820" y2="38" stroke="#26215C" stroke-width="6" stroke-linecap="round"/>
<g stroke="#AFA9EC" stroke-width="3">
<line x1="400" y1="38" x2="400" y2="78"/>
<line x1="500" y1="38" x2="500" y2="96"/>
<line x1="600" y1="38" x2="600" y2="70"/>
<line x1="700" y1="38" x2="700" y2="102"/>
<line x1="800" y1="38" x2="800" y2="88"/>
</g>
<circle cx="400" cy="98" r="20" fill="#7F77DD"/>
<rect x="478" y="96" width="44" height="44" rx="4" fill="#534AB7"/>
<path d="M600,70 L626,116 L574,116 Z" fill="#3C3489"/>
<circle cx="700" cy="102" r="4" fill="#AFA9EC"/>
<rect x="778" y="88" width="44" height="30" rx="4" fill="#26215C"/>
</g>
<path d="M846,132 L888,96 L930,132 Z" fill="#f3c46a" transform="rotate(-10 888 116)"/>
<path d="M0,150 C200,142 420,166 640,154 C860,142 1040,166 1200,152 V200 H0 Z" fill="#7F77DD"/>
<path d="M0,172 C220,164 460,188 700,175 C920,164 1080,182 1200,172 V200 H0 Z" fill="#3C3489"/>
<path d="M0,192 C260,187 540,198 800,192 C1000,188 1120,195 1200,192 V200 H0 Z" fill="#26215C"/>
</svg>
