<svg xmlns="http://www.w3.org/2000/svg" viewBox="0 0 1200 200" role="img" aria-label="Ein vernetzter Globus steigt aus den Wellen — seine Signalbögen laufen aus und werden zur Wellenkante">
<rect width="1200" height="200" fill="#EEEDFE"/>
<path d="M0,150 L110,96 L226,150 Z" fill="#CECBF6"/>
<path d="M980,150 L1080,102 L1180,150 Z" fill="#CECBF6"/>
<path d="M536,74 C420,32 250,72 150,146" fill="none" stroke="#AFA9EC" stroke-width="3" stroke-linecap="round"/>
<path d="M664,74 C782,32 950,72 1050,146" fill="none" stroke="#AFA9EC" stroke-width="3" stroke-linecap="round"/>
<circle cx="330" cy="52" r="3.5" fill="#7F77DD"/>
<circle cx="870" cy="52" r="3.5" fill="#7F77DD"/>
<circle cx="600" cy="112" r="74" fill="#3C3489"/>
<g fill="none" stroke="#7F77DD" stroke-width="2.5">
<ellipse cx="600" cy="112" rx="26" ry="74"/>
<ellipse cx="600" cy="112" rx="52" ry="74"/>
<path d="M530,86 Q600,106 670,86"/>
<path d="M527,138 Q600,158 673,138"/>
<line x1="600" y1="38" x2="600" y2="186"/>
<line x1="526" y1="112" x2="674" y2="112"/>
</g>
<g fill="#CECBF6">
<circle cx="574" cy="92" r="3.5"/><circle cx="626" cy="134" r="3.5"/>
<circle cx="600" cy="112" r="4"/><circle cx="548" cy="118" r="3"/>
</g>
<circle cx="652" cy="90" r="7" fill="#f3c46a"/>
<path d="M0,146 C180,132 360,158 560,146 C760,134 940,160 1200,142 V200 H0 Z" fill="#534AB7"/>
<path d="M0,168 C220,156 460,184 700,170 C920,158 1080,180 1200,168 V200 H0 Z" fill="#3C3489"/>
<path d="M0,188 C260,178 520,198 780,186 C980,177 1110,192 1200,184 V200 H0 Z" fill="#26215C"/>
</svg>
