<svg xmlns="http://www.w3.org/2000/svg" viewBox="0 0 1200 200" role="img" aria-label="Panorama medizinischer Entdeckungen: eine DNA-Doppelhelix steigt zwischen den Huegeln zur goldenen Sonne">
<rect width="1200" height="200" fill="#EEEDFE"/>
<circle cx="332" cy="52" r="30" fill="#f3c46a"/>
<circle cx="332" cy="52" r="42" fill="none" stroke="#f3c46a" stroke-width="2" opacity="0.45"/>
<path d="M0,124 L150,82 L300,124 Z" fill="#CECBF6"/>
<path d="M880,124 L1030,72 L1190,124 Z" fill="#CECBF6"/>
<path d="M770,124 L900,66 L1030,124 Z" fill="#AFA9EC"/>
<g stroke-linecap="round" fill="none">
<line x1="582" y1="60" x2="618" y2="60" stroke="#AFA9EC" stroke-width="4"/>
<line x1="576" y1="72" x2="624" y2="72" stroke="#AFA9EC" stroke-width="4"/>
<line x1="576" y1="112" x2="624" y2="112" stroke="#AFA9EC" stroke-width="4"/>
<line x1="582" y1="124" x2="618" y2="124" stroke="#AFA9EC" stroke-width="4"/>
<path d="M600,42 C634,58 634,76 600,92 C566,108 566,126 600,142" stroke="#534AB7" stroke-width="7"/>
<path d="M600,42 C566,58 566,76 600,92 C634,108 634,126 600,142" stroke="#7F77DD" stroke-width="7"/>
</g>
<path d="M470,74 q10,-8 20,0 M500,62 q10,-8 20,0" fill="none" stroke="#534AB7" stroke-width="3" stroke-linecap="round"/>
<path d="M0,128 C160,104 320,142 500,122 C680,104 860,142 1040,124 C1110,117 1170,124 1200,120 V200 H0 Z" fill="#534AB7"/>
<path d="M0,150 C190,132 400,164 620,150 C840,136 1020,164 1200,150 V200 H0 Z" fill="#3C3489"/>
<path d="M0,180 C240,166 480,192 720,178 C940,166 1090,188 1200,178 V200 H0 Z" fill="#26215C"/>
</svg>
