<svg xmlns="http://www.w3.org/2000/svg" viewBox="0 0 1200 200" role="img" aria-label="Eine antike Tempelruine mit gebrochenen Säulen unter der goldenen Sonne und Sternen">
<rect width="1200" height="200" fill="#EEEDFE"/>
<circle cx="315" cy="50" r="27" fill="#f3c46a"/>
<circle cx="315" cy="50" r="38" fill="none" stroke="#f3c46a" stroke-width="2" opacity="0.4"/>
<circle cx="470" cy="40" r="2.5" fill="#AFA9EC"/><circle cx="760" cy="44" r="3" fill="#AFA9EC"/><circle cx="880" cy="34" r="2.5" fill="#AFA9EC"/><circle cx="1010" cy="58" r="2.5" fill="#AFA9EC"/>
<path d="M470,150 L620,150 L612,66 L560,60 L556,150 Z" fill="#3C3489" opacity="0"/>
<g fill="#3C3489">
<rect x="470" y="70" width="20" height="80"/>
<rect x="512" y="86" width="20" height="64"/>
<rect x="554" y="60" width="20" height="90"/>
<rect x="596" y="104" width="20" height="46"/>
<rect x="700" y="72" width="20" height="78"/>
<rect x="742" y="94" width="20" height="56"/>
<rect x="784" y="66" width="20" height="84"/>
<rect x="460" y="56" width="126" height="12"/>
<rect x="690" y="58" width="124" height="12"/>
</g>
<rect x="628" y="132" width="52" height="16" rx="2" fill="#534AB7"/>
<path d="M0,150 C190,132 400,162 620,150 C840,134 1030,162 1200,150 V200 H0 Z" fill="#534AB7"/>
<path d="M0,172 C220,158 460,184 700,170 C920,158 1080,180 1200,171 V200 H0 Z" fill="#3C3489"/>
<path d="M0,190 C240,182 500,198 760,191 C980,186 1120,196 1200,191 V200 H0 Z" fill="#26215C"/>
</svg>
