<svg xmlns="http://www.w3.org/2000/svg" viewBox="0 0 1200 200" role="img" aria-label="Sprechblase mit goldenem Füllwort — Lückentext"><rect width="1200" height="200" fill="#EEEDFE"/><path d="M460,34 h280 q18,0 18,18 v46 q0,18 -18,18 h-150 l-30,24 v-24 h-100 q-18,0 -18,-18 v-46 q0,-18 18,-18 Z" fill="#AFA9EC"/><g fill="#7F77DD"><rect x="486" y="54" width="90" height="14" rx="3"/><rect x="486" y="78" width="60" height="14" rx="3"/></g><rect x="560" y="78" width="80" height="14" rx="3" fill="#f3c46a"/><rect x="656" y="54" width="70" height="14" rx="3" fill="#534AB7"/><path d="M300,60 q10,-8 20,0 M330,48 q10,-8 20,0" fill="none" stroke="#534AB7" stroke-width="3" stroke-linecap="round"/><path d="M0,124 C160,106 320,140 480,124 C640,108 820,142 1000,124 C1090,115 1150,122 1200,118 V200 H0 Z" fill="#534AB7"/><path d="M0,152 C180,134 380,166 600,152 C820,138 1010,168 1200,152 V200 H0 Z" fill="#3C3489"/><path d="M0,178 C220,164 460,190 700,176 C920,164 1080,188 1200,178 V200 H0 Z" fill="#26215C"/></svg>