<svg xmlns="http://www.w3.org/2000/svg" viewBox="0 0 1200 200" role="img" aria-label="Zwei Stühle stehen einander gegenüber, die Sprechblasen treffen sich — das Beratungsgespräch"><rect width="1200" height="200" fill="#EEEDFE"/><circle cx="1050" cy="46" r="22" fill="#f3c46a"/><circle cx="1050" cy="46" r="35" fill="none" stroke="#f3c46a" stroke-width="2" opacity="0.42"/><g fill="#3C3489"><path d="M452,150 v-46 h10 v16 h34 v-16 h10 v46 h-10 v-20 h-34 v20 Z"/><path d="M748,150 v-46 h-10 v16 h-34 v-16 h-10 v46 h10 v-20 h34 v20 Z"/></g><path d="M500,72 h70 a10,10 0 0 1 10,10 v20 a10,10 0 0 1 -10,10 h-52 l-14,12 v-12 h-4 a10,10 0 0 1 -10,-10 v-20 a10,10 0 0 1 10,-10 Z" fill="#7F77DD"/><path d="M700,72 h-70 a10,10 0 0 0 -10,10 v20 a10,10 0 0 0 10,10 h52 l14,12 v-12 h4 a10,10 0 0 0 10,-10 v-20 a10,10 0 0 0 -10,-10 Z" fill="#534AB7"/><circle cx="600" cy="92" r="7" fill="#f3c46a"/><path d="M0,150 C190,132 400,164 620,150 C840,136 1020,166 1200,150 V200 H0 Z" fill="#3C3489"/><path d="M0,180 C240,166 480,192 720,178 C940,166 1090,188 1200,178 V200 H0 Z" fill="#26215C"/></svg>