<svg xmlns="http://www.w3.org/2000/svg" viewBox="0 0 1200 200" role="img" aria-label="Ein verworrenes Gekritzel entwirrt sich am goldenen Knoten zur klaren, geraden Wellenlinie — aus Unklarheit wird deutliche Sprache">
<rect width="1200" height="200" fill="#EEEDFE"/>
<path d="M170,110 C210,80 190,140 240,110 C290,80 250,150 310,112 C350,88 330,138 380,114" fill="none" stroke="#7F77DD" stroke-width="6" stroke-linecap="round"/>
<circle cx="470" cy="112" r="10" fill="#f3c46a"/>
<path d="M480,112 C620,108 760,120 900,114 C1020,109 1110,120 1200,113" fill="none" stroke="#534AB7" stroke-width="5" stroke-linecap="round"/>
<path d="M480,112 C620,108 760,120 900,114 C1020,109 1110,120 1200,113 V200 H480 Z" fill="#7F77DD"/>
<path d="M0,150 H480 V200 H0 Z" fill="#7F77DD" opacity="0"/>
<path d="M0,158 C190,140 400,170 620,156 C840,142 1020,172 1200,156 V200 H0 Z" fill="#3C3489"/>
<path d="M0,184 C240,170 480,196 720,182 C940,170 1090,192 1200,182 V200 H0 Z" fill="#26215C"/>
</svg>
