<svg xmlns="http://www.w3.org/2000/svg" viewBox="0 0 1200 200" role="img" aria-label="Zwei Leuchttürme senden ihr Licht einander entgegen — in der Mitte begegnet es sich golden">
<rect width="1200" height="200" fill="#EEEDFE"/>
<path d="M296,64 L588,60 L588,82 L296,88 Z" fill="#CECBF6" opacity="0.75"/>
<path d="M904,64 L612,60 L612,82 L904,88 Z" fill="#CECBF6" opacity="0.75"/>
<circle cx="600" cy="71" r="15" fill="#f3c46a"/>
<circle cx="600" cy="71" r="24" fill="none" stroke="#f3c46a" stroke-width="2" opacity="0.45"/>
<path d="M0,122 C220,108 460,130 700,118 C920,108 1080,126 1200,116 V200 H0 Z" fill="#AFA9EC"/>
<g>
<path d="M282,120 L288,58 L312,58 L318,120 Z" fill="#26215C"/>
<rect x="284" y="76" width="32" height="9" fill="#EEEDFE"/>
<rect x="286" y="94" width="29" height="9" fill="#EEEDFE"/>
<rect x="290" y="48" width="20" height="12" fill="#26215C"/>
<path d="M286,48 L300,36 L314,48 Z" fill="#3C3489"/>
</g>
<g>
<path d="M882,120 L888,58 L912,58 L918,120 Z" fill="#26215C"/>
<rect x="884" y="76" width="32" height="9" fill="#EEEDFE"/>
<rect x="886" y="94" width="29" height="9" fill="#EEEDFE"/>
<rect x="890" y="48" width="20" height="12" fill="#26215C"/>
<path d="M886,48 L900,36 L914,48 Z" fill="#3C3489"/>
</g>
<path d="M420,40 q10,-8 20,0 M452,28 q10,-8 20,0" fill="none" stroke="#534AB7" stroke-width="3" stroke-linecap="round"/>
<path d="M0,150 C220,136 470,162 700,150 C920,138 1080,160 1200,150 V200 H0 Z" fill="#534AB7"/>
<path d="M0,170 C240,158 500,182 760,170 C980,158 1110,178 1200,168 V200 H0 Z" fill="#3C3489"/>
<path d="M0,189 C240,181 500,199 760,189 C980,181 1110,195 1200,188 V200 H0 Z" fill="#26215C"/>
</svg>
