<svg xmlns="http://www.w3.org/2000/svg" viewBox="0 0 1200 200" role="img" aria-label="Zwei Scheinwerfer richten ihr Licht auf den goldenen Stern über der Bühne">
<rect width="1200" height="200" fill="#EEEDFE"/>
<path d="M180,44 q10,-8 20,0 M212,32 q10,-8 20,0" fill="none" stroke="#534AB7" stroke-width="3" stroke-linecap="round"/>
<path d="M388,0 C376,30 384,60 374,88 C390,84 396,60 392,36 C398,60 402,80 396,96 L418,96 C410,70 416,34 410,0 Z" fill="#534AB7"/>
<path d="M812,0 C824,30 816,60 826,88 C810,84 804,60 808,36 C802,60 798,80 804,96 L782,96 C790,70 784,34 790,0 Z" fill="#534AB7"/>
<path d="M452,116 L588,52 L612,64 L474,124 Z" fill="#CECBF6"/>
<path d="M748,116 L612,52 L588,64 L726,124 Z" fill="#CECBF6"/>
<path d="M600,28 L607.3,47.2 L627.9,48.3 L611.9,61.3 L617.2,81.2 L600,69.9 L582.8,81.2 L588.1,61.3 L572.1,48.3 L592.7,47.2 Z" fill="#f3c46a"/>
<g fill="#26215C">
<path d="M436,108 L462,96 L470,112 L446,122 Z"/>
<rect x="446" y="118" width="8" height="14"/>
<path d="M764,108 L738,96 L730,112 L754,122 Z"/>
<rect x="746" y="118" width="8" height="14"/>
</g>
<rect x="420" y="128" width="360" height="18" rx="4" fill="#26215C"/>
<path d="M432,146 L768,146 L756,170 L444,170 Z" fill="#3C3489"/>
<path d="M0,150 C190,140 400,158 610,148 C830,140 1040,160 1200,148 V200 H0 Z" fill="#534AB7"/>
<path d="M0,170 C230,162 480,182 700,171 C920,162 1080,180 1200,170 V200 H0 Z" fill="#3C3489"/>
<path d="M0,190 C260,183 540,200 800,189 C1010,183 1140,194 1200,189 V200 H0 Z" fill="#26215C"/>
</svg>
