<svg xmlns="http://www.w3.org/2000/svg" viewBox="0 0 1200 200" role="img" aria-label="Ein Füller zeichnet die steigende Wachstumskurve, die vordere Welle endet an seiner Spitze">
<rect width="1200" height="200" fill="#EEEDFE"/>
<path d="M0,150 C130,140 260,132 380,124 C500,116 600,112 700,104 L700,200 L0,200 Z" fill="#7F77DD"/><path d="M0,150 C130,140 260,132 380,124 C500,116 600,112 700,104" fill="none" stroke="#534AB7" stroke-width="4" stroke-linecap="round"/><path d="M700,104 C780,92 850,76 930,58" fill="none" stroke="#26215C" stroke-width="3" stroke-linecap="round"/><circle cx="936" cy="55" r="12" fill="#f3c46a"/><g transform="translate(700,104) rotate(-30)"><path d="M0,0 C-8,-11 -12,-27 -11,-46 L11,-46 C12,-27 8,-11 0,0 Z" fill="#26215C"/><line x1="0" y1="-30" x2="0" y2="-8" stroke="#EEEDFE" stroke-width="2.5"/><rect x="-12" y="-58" width="24" height="12" rx="3" fill="#534AB7"/><path d="M-5,-58 C-8,-84 3,-104 26,-120 C17,-96 20,-76 9,-58 Z" fill="#7F77DD"/></g><path d="M300,60 q9,-7 18,0 M326,52 q9,-7 18,0" fill="none" stroke="#534AB7" stroke-width="3" stroke-linecap="round"/><path d="M0,152 C200,136 440,166 680,152 C900,139 1050,166 1200,154 V200 H0 Z" fill="#3C3489"/>
<path d="M0,180 C240,168 500,192 760,180 C980,168 1100,188 1200,180 V200 H0 Z" fill="#26215C"/>
</svg>
