<svg xmlns="http://www.w3.org/2000/svg" viewBox="0 0 1200 200" role="img" aria-label="Panorama der Sprachregister: links die strenge Bürozeile mit einem Brief, rechts das lockere Sprechblasen-Viertel — unter einer Sonne">
<rect width="1200" height="200" fill="#EEEDFE"/>
<circle cx="600" cy="50" r="23" fill="#f3c46a"/>
<ellipse cx="600" cy="50" rx="38" ry="11" fill="none" stroke="#f3c46a" stroke-width="2" opacity="0.45"/>
<rect x="150" y="90" width="44" height="42" fill="#534AB7"/><rect x="206" y="74" width="40" height="58" fill="#3C3489"/><rect x="258" y="100" width="38" height="32" fill="#7F77DD"/><rect x="310" y="84" width="42" height="48" fill="#534AB7"/>
<path d="M860,132 L860,110 q0,-14 14,-14 l26,0 q14,0 14,14 L914,132 Z" fill="#7F77DD"/><path d="M924,132 L924,100 q0,-14 14,-14 l22,0 q14,0 14,14 L974,132 Z" fill="#534AB7"/><path d="M982,132 L982,118 q0,-14 14,-14 l18,0 q14,0 14,14 L1028,132 Z" fill="#3C3489"/>
<g transform="translate(430,96)"><rect x="-20" y="-14" width="40" height="28" rx="2" fill="#CECBF6"/><path d="M-20,-14 L0,2 L20,-14" fill="none" stroke="#534AB7" stroke-width="2"/></g>
<path d="M720,110 q0,-14 16,-14 l30,0 q16,0 16,14 q0,14 -16,14 l-24,0 l-12,10 l2,-10 q-12,-2 -12,-14 Z" fill="#AFA9EC"/>
<path d="M0,140 C210,124 420,150 640,140 C860,130 1030,152 1200,140 V200 H0 Z" fill="#534AB7"/>
<path d="M0,150 C190,132 380,164 600,150 C820,136 1010,166 1200,150 V200 H0 Z" fill="#3C3489"/><path d="M0,180 C220,166 460,192 700,178 C920,166 1080,188 1200,178 V200 H0 Z" fill="#26215C"/>
</svg>