<svg xmlns="http://www.w3.org/2000/svg" viewBox="0 0 1200 200" role="img" aria-label="Über der weiten Welle treiben viele leere Sprechblasen wie Wolken — Sprache in aller Munde; die höchste leuchtet golden wie eine Sonne"><rect width="1200" height="200" fill="#EEEDFE"/><path d="M0,110 C160,90 340,120 520,104 C700,88 900,120 1080,104 C1140,99 1180,106 1200,102 V200 H0 Z" fill="#CECBF6"/><path d="M600,30 h60 a12,12 0 0 1 12,12 v20 a12,12 0 0 1 -12,12 h-34 l-14,14 v-14 h-12 a12,12 0 0 1 -12,-12 v-20 a12,12 0 0 1 12,-12 Z" fill="#f3c46a"/><g fill="#AFA9EC"><path d="M300,66 h46 a10,10 0 0 1 10,10 v16 a10,10 0 0 1 -10,10 h-26 l-11,11 v-11 h-9 a10,10 0 0 1 -10,-10 v-16 a10,10 0 0 1 10,-10 Z"/><path d="M780,72 h40 a9,9 0 0 1 9,9 v14 a9,9 0 0 1 -9,9 h-22 l-10,10 v-10 h-8 a9,9 0 0 1 -9,-9 v-14 a9,9 0 0 1 9,-9 Z"/></g><g fill="#CECBF6"><path d="M470,84 h36 a8,8 0 0 1 8,8 v12 a8,8 0 0 1 -8,8 h-20 l-9,9 v-9 h-7 a8,8 0 0 1 -8,-8 v-12 a8,8 0 0 1 8,-8 Z"/><path d="M900,90 h32 a8,8 0 0 1 8,8 v10 a8,8 0 0 1 -8,8 h-18 l-8,8 v-8 h-6 a8,8 0 0 1 -8,-8 v-10 a8,8 0 0 1 8,-8 Z"/></g><path d="M0,150 C190,132 400,164 620,150 C840,136 1020,166 1200,150 V200 H0 Z" fill="#3C3489"/><path d="M0,180 C240,166 480,192 720,178 C940,166 1090,188 1200,178 V200 H0 Z" fill="#26215C"/></svg>