<svg xmlns="http://www.w3.org/2000/svg" viewBox="0 0 1200 200" role="img" aria-label="Die durchlaufende Wellenlinie ist ein langer Satz — genau ein goldenes Komma sitzt darin und gliedert ihn">
<rect width="1200" height="200" fill="#EEEDFE"/>
<circle cx="230" cy="52" r="2" fill="#EEEDFE" opacity="0.45"/><circle cx="360" cy="92" r="1.5" fill="#EEEDFE" opacity="0.4"/><circle cx="940" cy="54" r="2" fill="#EEEDFE" opacity="0.45"/><circle cx="1030" cy="96" r="1.6" fill="#EEEDFE" opacity="0.4"/>
<path d="M0,150 C150,128 320,122 470,134 C560,141 620,146 690,146 C760,146 820,140 900,132 C1020,120 1120,140 1200,134 V200 H0 Z" fill="#534AB7"/>
<path d="M0,150 C150,128 320,122 470,134 C560,141 620,146 690,146 C760,146 820,140 900,132 C1020,120 1120,140 1200,134" fill="none" stroke="#3C3489" stroke-width="3" stroke-linecap="round"/>
<line x1="60" y1="143" x2="86" y2="142" stroke="#EEEDFE" stroke-width="3" stroke-linecap="round" opacity="0.75"/><line x1="100" y1="141" x2="116" y2="140" stroke="#EEEDFE" stroke-width="3" stroke-linecap="round" opacity="0.75"/><line x1="130" y1="140" x2="160" y2="139" stroke="#EEEDFE" stroke-width="3" stroke-linecap="round" opacity="0.75"/><line x1="180" y1="138" x2="200" y2="137" stroke="#EEEDFE" stroke-width="3" stroke-linecap="round" opacity="0.75"/><line x1="220" y1="137" x2="248" y2="136" stroke="#EEEDFE" stroke-width="3" stroke-linecap="round" opacity="0.75"/><line x1="270" y1="136" x2="288" y2="135" stroke="#EEEDFE" stroke-width="3" stroke-linecap="round" opacity="0.75"/><line x1="310" y1="136" x2="340" y2="135" stroke="#EEEDFE" stroke-width="3" stroke-linecap="round" opacity="0.75"/><line x1="360" y1="136" x2="376" y2="135" stroke="#EEEDFE" stroke-width="3" stroke-linecap="round" opacity="0.75"/><line x1="400" y1="137" x2="426" y2="136" stroke="#EEEDFE" stroke-width="3" stroke-linecap="round" opacity="0.75"/><line x1="440" y1="138" x2="460" y2="137" stroke="#EEEDFE" stroke-width="3" stroke-linecap="round" opacity="0.75"/><line x1="770" y1="138" x2="796" y2="137" stroke="#EEEDFE" stroke-width="3" stroke-linecap="round" opacity="0.75"/><line x1="820" y1="136" x2="836" y2="135" stroke="#EEEDFE" stroke-width="3" stroke-linecap="round" opacity="0.75"/><line x1="860" y1="135" x2="888" y2="134" stroke="#EEEDFE" stroke-width="3" stroke-linecap="round" opacity="0.75"/><line x1="920" y1="132" x2="940" y2="131" stroke="#EEEDFE" stroke-width="3" stroke-linecap="round" opacity="0.75"/><line x1="970" y1="130" x2="1000" y2="129" stroke="#EEEDFE" stroke-width="3" stroke-linecap="round" opacity="0.75"/><line x1="1020" y1="128" x2="1036" y2="127" stroke="#EEEDFE" stroke-width="3" stroke-linecap="round" opacity="0.75"/><line x1="1060" y1="129" x2="1086" y2="128" stroke="#EEEDFE" stroke-width="3" stroke-linecap="round" opacity="0.75"/><line x1="1110" y1="131" x2="1130" y2="130" stroke="#EEEDFE" stroke-width="3" stroke-linecap="round" opacity="0.75"/>
<g transform="translate(700,104)"><circle cx="0" cy="0" r="12" fill="#f3c46a"/><path d="M-3,9 C-2,22 -12,30 -22,34 C-13,25 -9,18 -8,7 Z" fill="#f3c46a"/></g>
<path d="M0,150 C190,132 380,164 600,150 C820,136 1010,166 1200,150 V200 H0 Z" fill="#3C3489"/><path d="M0,180 C220,166 460,192 700,178 C920,166 1080,188 1200,178 V200 H0 Z" fill="#26215C"/>
</svg>