<svg xmlns="http://www.w3.org/2000/svg" viewBox="0 0 1200 200" role="img" aria-label="Ein heller Pfad windet sich durch die Hügel hinauf zur goldenen Sonne">
<rect width="1200" height="200" fill="#EEEDFE"/>
<circle cx="600" cy="44" r="24" fill="#f3c46a"/>
<circle cx="600" cy="44" r="34" fill="none" stroke="#f3c46a" stroke-width="2" opacity="0.4"/>
<circle cx="360" cy="40" r="2.5" fill="#AFA9EC"/><circle cx="840" cy="44" r="2.5" fill="#AFA9EC"/>
<path d="M0,124 C200,100 360,116 520,108 C700,100 840,120 1000,106 C1090,98 1160,108 1200,104 V200 H0 Z" fill="#CECBF6"/>
<path d="M0,150 C220,128 420,154 640,142 C860,130 1040,154 1200,144 V200 H0 Z" fill="#AFA9EC"/>
<path d="M555,172 L555,150 L590,128 L587,106 L595,84 L605,84 L609,106 L630,128 L617,150 L645,172 Z" fill="#EEEDFE" opacity="0.95"/>
<path d="M0,170 C240,154 500,186 760,172 C980,160 1100,182 1200,172 V200 H0 Z" fill="#3C3489"/>
<path d="M0,190 C240,182 500,198 760,191 C980,186 1120,196 1200,191 V200 H0 Z" fill="#26215C"/>
</svg>
