<svg xmlns="http://www.w3.org/2000/svg" viewBox="0 0 1200 200" role="img" aria-label="Pinnwand mit Wortkarten und einer goldenen Karte — Wortschatz"><rect width="1200" height="200" fill="#EEEDFE"/><rect x="450" y="30" width="300" height="92" rx="6" fill="#3C3489"/><rect x="450" y="30" width="300" height="92" rx="6" fill="none" stroke="#26215C" stroke-width="6"/><rect x="478" y="48" width="46" height="28" rx="3" fill="#AFA9EC"/><circle cx="501" cy="52" r="3" fill="#26215C"/><rect x="540" y="44" width="46" height="28" rx="3" fill="#7F77DD"/><circle cx="563" cy="48" r="3" fill="#26215C"/><rect x="602" y="52" width="46" height="28" rx="3" fill="#534AB7"/><circle cx="625" cy="56" r="3" fill="#26215C"/><rect x="664" y="46" width="46" height="28" rx="3" fill="#AFA9EC"/><circle cx="687" cy="50" r="3" fill="#26215C"/><rect x="510" y="86" width="46" height="28" rx="3" fill="#7F77DD"/><circle cx="533" cy="90" r="3" fill="#26215C"/><rect x="600" y="88" width="46" height="28" rx="3" fill="#f3c46a"/><circle cx="623" cy="92" r="3" fill="#26215C"/><rect x="672" y="84" width="46" height="28" rx="3" fill="#534AB7"/><circle cx="695" cy="88" r="3" fill="#26215C"/><path d="M300,74 q10,-8 20,0 M330,62 q10,-8 20,0" fill="none" stroke="#534AB7" stroke-width="3" stroke-linecap="round"/><path d="M0,124 C160,106 320,140 480,124 C640,108 820,142 1000,124 C1090,115 1150,122 1200,118 V200 H0 Z" fill="#534AB7"/><path d="M0,152 C180,134 380,166 600,152 C820,138 1010,168 1200,152 V200 H0 Z" fill="#3C3489"/><path d="M0,178 C220,164 460,190 700,176 C920,164 1080,188 1200,178 V200 H0 Z" fill="#26215C"/></svg>