<svg xmlns="http://www.w3.org/2000/svg" viewBox="0 0 1200 200" role="img" aria-label="Ein Schachspringer auf der Welle — der goldene Bauer wartet am anderen Ufer">
<rect width="1200" height="200" fill="#EEEDFE"/>
<path d="M170,150 L310,104 L460,150 Z" fill="#CECBF6"/>
<path d="M850,54 q10,-8 20,0 M882,42 q10,-8 20,0" fill="none" stroke="#534AB7" stroke-width="3" stroke-linecap="round"/>
<g fill="#26215C">
<path d="M560,148 L560,138 Q560,130 568,128 Q560,110 566,86 Q572,58 600,44 Q596,36 602,32 Q610,28 616,36 Q648,44 660,72 Q666,88 658,96 Q650,102 640,96 Q634,92 636,84 Q626,96 622,110 Q636,118 640,132 Q642,140 640,148 Z"/>
<rect x="548" y="148" width="104" height="10" rx="4"/>
</g>
<g fill="#f3c46a">
<circle cx="812" cy="94" r="11"/>
<path d="M800,124 Q806,106 812,104 Q818,106 824,124 Z"/>
<rect x="796" y="124" width="32" height="7" rx="3"/>
</g>
<path d="M0,152 C190,142 400,160 620,151 C840,142 1030,158 1200,150 V200 H0 Z" fill="#534AB7"/>
<circle cx="960" cy="162" r="3" fill="#AFA9EC"/>
<path d="M0,172 C220,164 450,182 670,172 C890,164 1060,178 1200,171 V200 H0 Z" fill="#3C3489"/>
<path d="M0,191 C240,186 500,198 760,192 C980,188 1120,196 1200,192 V200 H0 Z" fill="#26215C"/>
</svg>
