<svg xmlns="http://www.w3.org/2000/svg" viewBox="0 0 1200 200" role="img" aria-label="Zwei Satz-Inseln stehen getrennt auf der Welle — der goldene Verbindungsbogen schwebt heran und macht aus zweien einen zusammenhängenden Satz"><rect width="1200" height="200" fill="#EEEDFE"/><path d="M0,110 C160,90 340,120 520,104 C700,88 900,120 1080,104 C1140,99 1180,106 1200,102 V200 H0 Z" fill="#CECBF6"/><rect x="330" y="112" width="150" height="34" rx="6" fill="#534AB7"/><rect x="720" y="112" width="150" height="34" rx="6" fill="#3C3489"/><path d="M480,112 Q600,72 720,112" fill="none" stroke="#AFA9EC" stroke-width="2" stroke-dasharray="5 5"/><path d="M470,86 Q600,44 730,86" fill="none" stroke="#f3c46a" stroke-width="8" stroke-linecap="round"/><circle cx="520" cy="150" r="3" fill="#26215C"/><circle cx="690" cy="150" r="3" fill="#26215C"/><path d="M0,150 C190,132 400,164 620,150 C840,136 1020,166 1200,150 V200 H0 Z" fill="#3C3489"/><path d="M0,180 C240,166 480,192 720,178 C940,166 1090,188 1200,178 V200 H0 Z" fill="#26215C"/></svg>