<svg xmlns="http://www.w3.org/2000/svg" viewBox="0 0 1200 200" role="img" aria-label="Ein Streuer würzt die Welle, ein goldenes Korn fällt">
<rect width="1200" height="200" fill="#EEEDFE"/>
<g transform="translate(470,64) rotate(38)">
<rect x="-26" y="0" width="52" height="72" rx="10" fill="#3C3489"/>
<rect x="-26" y="-14" width="52" height="18" rx="6" fill="#26215C"/>
<g fill="#EEEDFE"><circle cx="-12" cy="-6" r="2"/><circle cx="0" cy="-9" r="2"/><circle cx="12" cy="-6" r="2"/></g>
</g>
<g fill="#534AB7">
<circle cx="560" cy="70" r="4"/><circle cx="600" cy="88" r="4"/><circle cx="648" cy="104" r="4"/>
<circle cx="588" cy="112" r="3.5"/><circle cx="700" cy="120" r="4"/><circle cx="672" cy="82" r="3.5"/></g>
<circle cx="628" cy="128" r="6" fill="#f3c46a"/>
<path d="M0,150 C190,132 400,164 620,150 C840,136 1020,166 1200,150 V200 H0 Z" fill="#534AB7"/>
<path d="M0,171 C220,155 470,187 720,171 C940,159 1090,183 1200,171 V200 H0 Z" fill="#3C3489"/>
<path d="M0,188 C240,174 500,200 760,188 C980,176 1110,198 1200,188 V200 H0 Z" fill="#26215C"/>
</svg>