<svg xmlns="http://www.w3.org/2000/svg" viewBox="0 0 1200 200" role="img" aria-label="Ein Vogel fliegt auf den Ast, ein zweiter sitzt schon darauf — wohin und wo in einem Bild">
<rect width="1200" height="200" fill="#EEEDFE"/>
<path d="M300,40 C400,22 500,46 596,92" fill="none" stroke="#AFA9EC" stroke-width="4" stroke-linecap="round" stroke-dasharray="2 13"/>
<path d="M0,168 C60,150 120,138 210,126 C340,109 520,104 700,110 C820,114 930,122 1052,136 L1050,148 C930,134 820,126 700,122 C520,116 340,121 212,138 C124,150 62,162 0,180 Z" fill="#3C3489"/><path d="M470,112 C500,92 528,84 556,84 C532,92 512,104 494,118 Z" fill="#3C3489"/><path d="M880,120 C904,104 928,98 950,98 C928,106 908,116 894,128 Z" fill="#3C3489"/>
<g><ellipse cx="800" cy="98" rx="26.0" ry="13.0" fill="#26215C"/><circle cx="822.0" cy="87.0" r="9.0" fill="#26215C"/><path d="M830.0,85.0 L843.0,89.0 L830.0,93.0 Z" fill="#26215C"/><path d="M778.0,94.0 L754.0,82.0 L760.0,102.0 Z" fill="#26215C"/><path d="M790.0,94.0 C798.0,80.0 814.0,82.0 818.0,96.0 C808.0,102.0 798.0,102.0 790.0,94.0 Z" fill="#26215C"/></g>
<g><ellipse cx="620" cy="74" rx="26.0" ry="13.0" fill="#f3c46a"/><circle cx="642.0" cy="63.0" r="9.0" fill="#f3c46a"/><path d="M650.0,61.0 L663.0,65.0 L650.0,69.0 Z" fill="#f3c46a"/><path d="M598.0,70.0 L574.0,58.0 L580.0,78.0 Z" fill="#f3c46a"/><path d="M614.0,68.0 C618.0,40.0 636.0,34.0 646.0,44.0 C632.0,50.0 628.0,64.0 624.0,72.0 Z" fill="#f3c46a"/></g>
<circle cx="1080" cy="60" r="4" fill="#CECBF6"/>
<circle cx="1120" cy="84" r="3" fill="#CECBF6"/>
<path d="M0,150 C190,134 400,164 620,150 C840,136 1020,166 1200,150 V200 H0 Z" fill="#7F77DD"/>
<path d="M0,170 C210,156 440,184 660,170 C880,156 1050,180 1200,168 V200 H0 Z" fill="#3C3489"/>
<path d="M0,188 C240,178 500,198 760,188 C960,180 1100,195 1200,188 V200 H0 Z" fill="#26215C"/>
</svg>