<svg xmlns="http://www.w3.org/2000/svg" viewBox="0 0 1200 200" role="img" aria-label="Ein Weg führt vom jungen Baum zum großen Baum über die Hügel — ein Lebensweg">
<rect width="1200" height="200" fill="#EEEDFE"/>
<circle cx="1030" cy="42" r="24" fill="#f3c46a"/>
<circle cx="1030" cy="42" r="34" fill="none" stroke="#f3c46a" stroke-width="2" opacity="0.4"/>
<path d="M120,64 q10,-8 20,0 M156,52 q10,-8 20,0" fill="none" stroke="#534AB7" stroke-width="3" stroke-linecap="round"/>
<path d="M0,132 C160,116 340,140 520,126 C720,112 940,138 1200,124 V200 H0 Z" fill="#AFA9EC"/>
<g fill="#534AB7">
<rect x="228" y="102" width="8" height="30"/>
<circle cx="232" cy="92" r="17"/>
</g>
<path d="M0,150 C200,136 420,162 640,148 C860,136 1040,160 1200,150 V200 H0 Z" fill="#534AB7"/>
<path d="M238,132 C300,172 420,178 540,164 C660,150 700,136 780,132 C830,130 870,132 892,140" fill="none" stroke="#EEEDFE" stroke-width="10" stroke-linecap="round"/>
<circle cx="400" cy="173" r="4.5" fill="#26215C"/>
<circle cx="628" cy="152" r="4.5" fill="#26215C"/>
<circle cx="800" cy="131" r="4.5" fill="#26215C"/>
<g fill="#26215C">
<rect x="906" y="94" width="13" height="58"/>
<circle cx="912" cy="72" r="31"/>
<circle cx="886" cy="92" r="19"/>
<circle cx="938" cy="89" r="20"/>
</g>
<path d="M0,180 C260,170 520,190 780,180 C1000,172 1120,184 1200,179 V200 H0 Z" fill="#26215C"/>
</svg>
