<svg xmlns="http://www.w3.org/2000/svg" viewBox="0 0 1200 200" role="img" aria-label="Pixel-Sprechblasen steigen aus einer Arcade-Skyline auf — eine goldene Blase trägt das Schlüsselwort">
<rect width="1200" height="200" fill="#EEEDFE"/>
<circle cx="320" cy="50" r="24" fill="#AFA9EC"/>
<circle cx="320" cy="50" r="34" fill="none" stroke="#AFA9EC" stroke-width="2" opacity="0.4"/>
<g fill="#AFA9EC"><rect x="200" y="92" width="40" height="28"/><rect x="250" y="80" width="34" height="40"/><rect x="294" y="98" width="44" height="22"/></g>
<g fill="#7F77DD"><path d="M520,110 h40 v26 h-16 l-8,10 v-10 h-16 Z"/><path d="M600,84 h34 v22 h-14 l-6,8 v-8 h-14 Z"/><path d="M700,100 h30 v20 h-12 l-6,8 v-8 h-12 Z"/></g>
<path d="M660,50 h46 v28 h-18 l-8,10 v-10 h-12 Z" fill="#f3c46a"/>
<path d="M0,124 C150,96 290,140 450,118 C610,96 760,138 920,116 C1040,101 1130,118 1200,108 V200 H0 Z" fill="#534AB7"/>
<path d="M0,150 C170,128 330,166 520,146 C700,128 880,168 1050,148 C1110,141 1170,148 1200,144 V200 H0 Z" fill="#3C3489"/>
<path d="M0,178 C200,162 420,190 640,176 C860,163 1040,188 1200,176 V200 H0 Z" fill="#26215C"/>
</svg>
