<svg xmlns="http://www.w3.org/2000/svg" viewBox="0 0 1200 200" role="img" aria-label="Über jedem Bürohaus steht eine Sprechblase — die Reihe der Blasen zeichnet genau die Dachlinie nach; eine einzige leuchtet golden">
<rect width="1200" height="200" fill="#EEEDFE"/>
<rect x="228" y="110" width="64" height="54" fill="#534AB7"/><rect x="238" y="122" width="7" height="8" fill="#EEEDFE" opacity="0.35"/><rect x="256" y="122" width="7" height="8" fill="#EEEDFE" opacity="0.35"/><rect x="274" y="122" width="7" height="8" fill="#EEEDFE" opacity="0.35"/><rect x="238" y="140" width="7" height="8" fill="#EEEDFE" opacity="0.35"/><rect x="256" y="140" width="7" height="8" fill="#EEEDFE" opacity="0.35"/><rect x="274" y="140" width="7" height="8" fill="#EEEDFE" opacity="0.35"/><rect x="300" y="94" width="56" height="70" fill="#3C3489"/><rect x="310" y="106" width="7" height="8" fill="#EEEDFE" opacity="0.35"/><rect x="328" y="106" width="7" height="8" fill="#EEEDFE" opacity="0.35"/><rect x="346" y="106" width="7" height="8" fill="#EEEDFE" opacity="0.35"/><rect x="310" y="124" width="7" height="8" fill="#EEEDFE" opacity="0.35"/><rect x="328" y="124" width="7" height="8" fill="#EEEDFE" opacity="0.35"/><rect x="346" y="124" width="7" height="8" fill="#EEEDFE" opacity="0.35"/><rect x="310" y="142" width="7" height="8" fill="#EEEDFE" opacity="0.35"/><rect x="328" y="142" width="7" height="8" fill="#EEEDFE" opacity="0.35"/><rect x="346" y="142" width="7" height="8" fill="#EEEDFE" opacity="0.35"/><rect x="366" y="118" width="60" height="46" fill="#7F77DD"/><rect x="376" y="130" width="7" height="8" fill="#EEEDFE" opacity="0.35"/><rect x="394" y="130" width="7" height="8" fill="#EEEDFE" opacity="0.35"/><rect x="412" y="130" width="7" height="8" fill="#EEEDFE" opacity="0.35"/><rect x="376" y="148" width="7" height="8" fill="#EEEDFE" opacity="0.35"/><rect x="394" y="148" width="7" height="8" fill="#EEEDFE" opacity="0.35"/><rect x="412" y="148" width="7" height="8" fill="#EEEDFE" opacity="0.35"/><rect x="436" y="88" width="54" height="76" fill="#534AB7"/><rect x="446" y="100" width="7" height="8" fill="#EEEDFE" opacity="0.35"/><rect x="464" y="100" width="7" height="8" fill="#EEEDFE" opacity="0.35"/><rect x="446" y="118" width="7" height="8" fill="#EEEDFE" opacity="0.35"/><rect x="464" y="118" width="7" height="8" fill="#EEEDFE" opacity="0.35"/><rect x="446" y="136" width="7" height="8" fill="#EEEDFE" opacity="0.35"/><rect x="464" y="136" width="7" height="8" fill="#EEEDFE" opacity="0.35"/><rect x="500" y="114" width="70" height="50" fill="#3C3489"/><rect x="510" y="126" width="7" height="8" fill="#EEEDFE" opacity="0.35"/><rect x="528" y="126" width="7" height="8" fill="#EEEDFE" opacity="0.35"/><rect x="546" y="126" width="7" height="8" fill="#EEEDFE" opacity="0.35"/><rect x="510" y="144" width="7" height="8" fill="#EEEDFE" opacity="0.35"/><rect x="528" y="144" width="7" height="8" fill="#EEEDFE" opacity="0.35"/><rect x="546" y="144" width="7" height="8" fill="#EEEDFE" opacity="0.35"/><rect x="580" y="96" width="56" height="68" fill="#7F77DD"/><rect x="590" y="108" width="7" height="8" fill="#EEEDFE" opacity="0.35"/><rect x="608" y="108" width="7" height="8" fill="#EEEDFE" opacity="0.35"/><rect x="626" y="108" width="7" height="8" fill="#EEEDFE" opacity="0.35"/><rect x="590" y="126" width="7" height="8" fill="#EEEDFE" opacity="0.35"/><rect x="608" y="126" width="7" height="8" fill="#EEEDFE" opacity="0.35"/><rect x="626" y="126" width="7" height="8" fill="#EEEDFE" opacity="0.35"/><rect x="590" y="144" width="7" height="8" fill="#EEEDFE" opacity="0.35"/><rect x="608" y="144" width="7" height="8" fill="#EEEDFE" opacity="0.35"/><rect x="626" y="144" width="7" height="8" fill="#EEEDFE" opacity="0.35"/><rect x="646" y="122" width="64" height="42" fill="#534AB7"/><rect x="656" y="134" width="7" height="8" fill="#EEEDFE" opacity="0.35"/><rect x="674" y="134" width="7" height="8" fill="#EEEDFE" opacity="0.35"/><rect x="692" y="134" width="7" height="8" fill="#EEEDFE" opacity="0.35"/><rect x="656" y="152" width="7" height="8" fill="#EEEDFE" opacity="0.35"/><rect x="674" y="152" width="7" height="8" fill="#EEEDFE" opacity="0.35"/><rect x="692" y="152" width="7" height="8" fill="#EEEDFE" opacity="0.35"/><rect x="720" y="90" width="56" height="74" fill="#3C3489"/><rect x="730" y="102" width="7" height="8" fill="#EEEDFE" opacity="0.35"/><rect x="748" y="102" width="7" height="8" fill="#EEEDFE" opacity="0.35"/><rect x="766" y="102" width="7" height="8" fill="#EEEDFE" opacity="0.35"/><rect x="730" y="120" width="7" height="8" fill="#EEEDFE" opacity="0.35"/><rect x="748" y="120" width="7" height="8" fill="#EEEDFE" opacity="0.35"/><rect x="766" y="120" width="7" height="8" fill="#EEEDFE" opacity="0.35"/><rect x="730" y="138" width="7" height="8" fill="#EEEDFE" opacity="0.35"/><rect x="748" y="138" width="7" height="8" fill="#EEEDFE" opacity="0.35"/><rect x="766" y="138" width="7" height="8" fill="#EEEDFE" opacity="0.35"/><rect x="786" y="116" width="68" height="48" fill="#7F77DD"/><rect x="796" y="128" width="7" height="8" fill="#EEEDFE" opacity="0.35"/><rect x="814" y="128" width="7" height="8" fill="#EEEDFE" opacity="0.35"/><rect x="832" y="128" width="7" height="8" fill="#EEEDFE" opacity="0.35"/><rect x="796" y="146" width="7" height="8" fill="#EEEDFE" opacity="0.35"/><rect x="814" y="146" width="7" height="8" fill="#EEEDFE" opacity="0.35"/><rect x="832" y="146" width="7" height="8" fill="#EEEDFE" opacity="0.35"/><rect x="864" y="100" width="58" height="64" fill="#534AB7"/><rect x="874" y="112" width="7" height="8" fill="#EEEDFE" opacity="0.35"/><rect x="892" y="112" width="7" height="8" fill="#EEEDFE" opacity="0.35"/><rect x="910" y="112" width="7" height="8" fill="#EEEDFE" opacity="0.35"/><rect x="874" y="130" width="7" height="8" fill="#EEEDFE" opacity="0.35"/><rect x="892" y="130" width="7" height="8" fill="#EEEDFE" opacity="0.35"/><rect x="910" y="130" width="7" height="8" fill="#EEEDFE" opacity="0.35"/><rect x="874" y="148" width="7" height="8" fill="#EEEDFE" opacity="0.35"/><rect x="892" y="148" width="7" height="8" fill="#EEEDFE" opacity="0.35"/><rect x="910" y="148" width="7" height="8" fill="#EEEDFE" opacity="0.35"/>
<circle cx="260" cy="62" r="32" fill="#CECBF6"/><circle cx="328" cy="48" r="30" fill="#AFA9EC"/><circle cx="396" cy="72" r="30" fill="#CECBF6"/><circle cx="463" cy="44" r="28" fill="#AFA9EC"/><circle cx="535" cy="64" r="34" fill="#CECBF6"/><circle cx="608" cy="50" r="30" fill="#AFA9EC"/><circle cx="678" cy="74" r="32" fill="#CECBF6"/><circle cx="748" cy="42" r="32" fill="#f3c46a"/><circle cx="820" cy="70" r="30" fill="#CECBF6"/><circle cx="893" cy="56" r="28" fill="#AFA9EC"/>
<path d="M247,89 L273,89 L258,112 Z" fill="#CECBF6"/><path d="M315,73 L341,73 L326,96 Z" fill="#AFA9EC"/><path d="M383,97 L409,97 L394,120 Z" fill="#CECBF6"/><path d="M450,67 L476,67 L461,90 Z" fill="#AFA9EC"/><path d="M522,93 L548,93 L533,116 Z" fill="#CECBF6"/><path d="M595,75 L621,75 L606,98 Z" fill="#AFA9EC"/><path d="M665,101 L691,101 L676,124 Z" fill="#CECBF6"/><path d="M735,69 L761,69 L746,92 Z" fill="#f3c46a"/><path d="M807,95 L833,95 L818,118 Z" fill="#CECBF6"/><path d="M880,79 L906,79 L891,102 Z" fill="#AFA9EC"/>
<path d="M0,170 C220,162 460,186 700,174 C920,163 1080,182 1200,172 V200 H0 Z" fill="#3C3489"/>
<path d="M0,191 C260,186 540,199 800,192 C1000,187 1120,196 1200,191 V200 H0 Z" fill="#26215C"/>
</svg>
