<svg xmlns="http://www.w3.org/2000/svg" viewBox="0 0 1200 200" role="img" aria-label="Ein Roboterarm setzt Stein um Stein — die vorderste Welle entsteht erst unter seinem Greifer">
<rect width="1200" height="200" fill="#EEEDFE"/>
<path d="M180,50 q10,-8 20,0 M210,38 q10,-8 20,0" fill="none" stroke="#AFA9EC" stroke-width="3" stroke-linecap="round"/>
<path d="M0,156 C90,150 190,152 300,150 L300,200 L0,200 Z" fill="#534AB7"/>
<rect x="300" y="150" width="70" height="50" fill="#534AB7"/>
<rect x="376" y="142" width="70" height="58" fill="#534AB7"/>
<rect x="452" y="133" width="70" height="67" fill="#534AB7"/>
<rect x="528" y="123" width="70" height="77" fill="#534AB7"/>
<rect x="604" y="112" width="70" height="88" fill="#534AB7"/>

<rect x="930" y="128" width="120" height="32" rx="5" fill="#26215C"/>
<g stroke="#3C3489" stroke-linecap="round" fill="none">
<line x1="990" y1="132" x2="990" y2="58" stroke-width="18"/>
<line x1="990" y1="58" x2="836" y2="26" stroke-width="15"/>
<line x1="836" y1="26" x2="732" y2="52" stroke-width="12"/>
</g>
<circle cx="990" cy="58" r="13" fill="#26215C"/>
<circle cx="836" cy="26" r="11" fill="#26215C"/>
<path d="M714,52 L700,76 M748,54 L762,78" stroke="#26215C" stroke-width="10" stroke-linecap="round"/>
<rect x="694" y="76" width="70" height="26" rx="3" fill="#f3c46a"/>
<path d="M0,176 C220,168 460,190 700,178 C920,168 1080,186 1200,176 V200 H0 Z" fill="#3C3489"/>
<path d="M0,193 C260,188 540,198 800,193 C1000,189 1120,196 1200,193 V200 H0 Z" fill="#26215C"/>
</svg>