<svg xmlns="http://www.w3.org/2000/svg" viewBox="0 0 1200 200" role="img" aria-label="Eine Tonspur läuft über die Welle — ein Ausschlag bricht aus der Reihe und leuchtet golden">
<rect width="1200" height="200" fill="#EEEDFE"/>
<path d="M0,146 C170,126 340,140 510,132 C690,124 870,142 1050,130 C1120,125 1170,128 1200,126 V200 H0 Z" fill="#AFA9EC"/>
<g transform="translate(196,104)">
<rect x="-42" y="-34" width="60" height="68" rx="6" fill="#26215C"/>
<circle cx="-12" cy="-14" r="10" fill="#7F77DD"/><circle cx="-12" cy="14" r="14" fill="#7F77DD"/>
<circle cx="-12" cy="-14" r="3.5" fill="#CECBF6"/><circle cx="-12" cy="14" r="5" fill="#CECBF6"/>
</g>
<line x1="218" y1="104" x2="1050" y2="104" stroke="#534AB7" stroke-width="2" opacity="0.55"/>
<g fill="#3C3489">
<rect x="242" y="88" width="9" height="32" rx="4"/><rect x="268" y="76" width="9" height="56" rx="4"/><rect x="294" y="92" width="9" height="24" rx="4"/>
<rect x="320" y="66" width="9" height="76" rx="4"/><rect x="346" y="86" width="9" height="36" rx="4"/><rect x="372" y="72" width="9" height="64" rx="4"/>
<rect x="398" y="94" width="9" height="20" rx="4"/><rect x="424" y="80" width="9" height="48" rx="4"/><rect x="450" y="70" width="9" height="68" rx="4"/>
<rect x="476" y="90" width="9" height="28" rx="4"/><rect x="502" y="78" width="9" height="52" rx="4"/><rect x="528" y="68" width="9" height="72" rx="4"/>
<rect x="554" y="92" width="9" height="24" rx="4"/><rect x="580" y="82" width="9" height="44" rx="4"/><rect x="606" y="74" width="9" height="60" rx="4"/>
<rect x="632" y="94" width="9" height="20" rx="4"/><rect x="658" y="84" width="9" height="40" rx="4"/>
<rect x="710" y="76" width="9" height="56" rx="4"/><rect x="736" y="90" width="9" height="28" rx="4"/><rect x="762" y="70" width="9" height="68" rx="4"/>
<rect x="788" y="88" width="9" height="32" rx="4"/><rect x="814" y="78" width="9" height="52" rx="4"/><rect x="840" y="94" width="9" height="20" rx="4"/>
<rect x="866" y="72" width="9" height="64" rx="4"/><rect x="892" y="90" width="9" height="28" rx="4"/><rect x="918" y="80" width="9" height="48" rx="4"/>
<rect x="944" y="92" width="9" height="24" rx="4"/><rect x="970" y="76" width="9" height="56" rx="4"/><rect x="996" y="88" width="9" height="32" rx="4"/>
</g>
<rect x="682" y="26" width="11" height="156" rx="5" fill="#f3c46a"/>
<path d="M900,50 q10,-8 20,0 M932,38 q10,-8 20,0" fill="none" stroke="#534AB7" stroke-width="3" stroke-linecap="round"/>
<path d="M0,164 C200,152 420,178 640,166 C860,154 1040,178 1200,164 V200 H0 Z" fill="#3C3489"/>
<path d="M0,187 C240,177 500,197 760,185 C980,175 1110,191 1200,183 V200 H0 Z" fill="#26215C"/>
</svg>
