<svg xmlns="http://www.w3.org/2000/svg" viewBox="0 0 1200 200" role="img" aria-label="Eine Stadt aus Aktenordnern und Formularen staffelt sich über den Wellen — die goldene Münze geht als Sonne auf">
<rect width="1200" height="200" fill="#EEEDFE"/>
<circle cx="300" cy="52" r="26" fill="#f3c46a"/>
<circle cx="300" cy="52" r="37" fill="none" stroke="#f3c46a" stroke-width="2" opacity="0.45"/>
<g fill="#AFA9EC"><rect x="430" y="92" width="60" height="54" rx="2"/></g>
<g fill="#7F77DD"><rect x="500" y="72" width="56" height="74" rx="2"/></g>
<g fill="#CECBF6"><rect x="566" y="100" width="58" height="46" rx="2"/></g>
<g fill="#7F77DD"><rect x="634" y="82" width="54" height="64" rx="2"/></g>
<g fill="#534AB7"><rect x="500" y="64" width="26" height="10" rx="2"/><rect x="634" y="74" width="26" height="10" rx="2"/></g>
<g stroke="#3C3489" stroke-width="3" stroke-linecap="round"><line x1="440" y1="106" x2="480" y2="106"/><line x1="440" y1="118" x2="474" y2="118"/><line x1="576" y1="114" x2="614" y2="114"/><line x1="576" y1="126" x2="608" y2="126"/></g>
<path d="M520,44 q10,-8 20,0 M550,36 q10,-8 20,0" fill="none" stroke="#534AB7" stroke-width="3" stroke-linecap="round"/>
<path d="M0,134 C170,112 340,142 520,130 C700,118 900,144 1200,128 V200 H0 Z" fill="#7F77DD"/>
<path d="M0,158 C190,140 400,170 620,156 C840,142 1020,172 1200,156 V200 H0 Z" fill="#3C3489"/>
<path d="M0,184 C240,170 480,196 720,182 C940,170 1090,192 1200,182 V200 H0 Z" fill="#26215C"/>
</svg>
