<svg xmlns="http://www.w3.org/2000/svg" viewBox="0 0 1200 200" role="img" aria-label="Kran hebt goldenen Block auf einen Bau — Satzbau"><rect width="1200" height="200" fill="#EEEDFE"/><g stroke="#26215C" stroke-linecap="round"><line x1="700" y1="124" x2="700" y2="22" stroke-width="8"/><line x1="678" y1="124" x2="700" y2="86" stroke-width="4"/><line x1="722" y1="124" x2="700" y2="86" stroke-width="4"/><line x1="520" y1="24" x2="860" y2="24" stroke-width="7"/><line x1="700" y1="52" x2="780" y2="24" stroke-width="5"/><line x1="700" y1="52" x2="620" y2="24" stroke-width="5"/></g><rect x="820" y="24" width="40" height="22" rx="3" fill="#3C3489"/><line x1="560" y1="24" x2="560" y2="60" stroke="#26215C" stroke-width="3"/><rect x="536" y="60" width="48" height="34" rx="4" fill="#f3c46a"/><g fill="#534AB7"><rect x="470" y="94" width="60" height="30"/></g><g fill="#7F77DD"><rect x="486" y="72" width="60" height="22"/></g><path d="M320,90 q10,-8 20,0 M350,78 q10,-8 20,0" fill="none" stroke="#534AB7" stroke-width="3" stroke-linecap="round"/><path d="M0,124 C160,106 320,140 480,124 C640,108 820,142 1000,124 C1090,115 1150,122 1200,118 V200 H0 Z" fill="#534AB7"/><path d="M0,152 C180,134 380,166 600,152 C820,138 1010,168 1200,152 V200 H0 Z" fill="#3C3489"/><path d="M0,178 C220,164 460,190 700,176 C920,164 1080,188 1200,178 V200 H0 Z" fill="#26215C"/></svg>