<svg xmlns="http://www.w3.org/2000/svg" viewBox="0 0 1200 200" role="img" aria-label="Aus einer Wolke fällt Regen ohne Urheber — genau darunter wölbt sich die dunkle Welle auf, daneben steht die goldene Sonne">
<rect width="1200" height="200" fill="#EEEDFE"/>
<circle cx="960" cy="52" r="26" fill="#f3c46a"/>
<path d="M280,74 C280,44 316,28 346,38 C360,14 400,12 418,32 C444,18 480,30 484,54 C512,52 528,66 524,80 C520,90 508,94 494,94 L306,94 C286,94 280,86 280,74 Z" fill="#534AB7"/>
<g stroke="#AFA9EC" stroke-width="4" stroke-linecap="round">
<line x1="322" y1="102" x2="308" y2="132"/><line x1="366" y1="104" x2="352" y2="136"/>
<line x1="410" y1="102" x2="396" y2="134"/><line x1="454" y1="104" x2="440" y2="136"/>
<line x1="344" y1="142" x2="332" y2="164"/><line x1="432" y1="144" x2="420" y2="166"/>
<line x1="388" y1="144" x2="376" y2="168"/>
</g>
<path d="M700,84 q10,-8 20,0 M730,74 q10,-8 20,0" fill="none" stroke="#AFA9EC" stroke-width="3" stroke-linecap="round"/>
<path d="M0,126 L104,74 L206,126 Z" fill="#CECBF6"/>
<path d="M1030,126 L1120,82 L1200,126 Z" fill="#CECBF6"/>
<path d="M0,152 C180,140 340,164 520,154 C700,144 900,168 1200,148 V200 H0 Z" fill="#7F77DD"/>
<path d="M0,180 C220,168 460,194 700,180 C920,168 1080,190 1200,178 V200 H0 Z" fill="#3C3489"/>
<path d="M0,198 C110,196 190,194 250,188 C300,182 320,166 386,164 C452,162 476,180 530,188 C610,199 760,199 900,196 C1020,193 1120,198 1200,195 V200 H0 Z" fill="#26215C"/>
</svg>
