<svg xmlns="http://www.w3.org/2000/svg" viewBox="0 0 1200 200" role="img" aria-label="Panorama der neuen Wissenschaft: ein Atommodell steigt zwischen Kolben-Bergen auf, die goldene Sonne darueber">
<rect width="1200" height="200" fill="#EEEDFE"/>
<circle cx="880" cy="52" r="28" fill="#f3c46a"/>
<circle cx="880" cy="52" r="39" fill="none" stroke="#f3c46a" stroke-width="2" opacity="0.4"/>
<path d="M120,124 L240,84 L360,124 Z" fill="#CECBF6"/>
<path d="M980,124 L1090,80 L1200,124 Z" fill="#CECBF6"/>
<g transform="translate(560,88)" fill="none" stroke="#534AB7" stroke-width="4">
<ellipse rx="52" ry="20"/><ellipse rx="52" ry="20" transform="rotate(60)"/><ellipse rx="52" ry="20" transform="rotate(120)"/>
</g>
<circle cx="560" cy="88" r="8" fill="#7F77DD"/>
<path d="M300,124 L300,104 L296,100 L316,100 L312,104 L312,124 Z" fill="#7F77DD"/>
<path d="M470,72 q10,-8 20,0 M500,60 q10,-8 20,0" fill="none" stroke="#534AB7" stroke-width="3" stroke-linecap="round"/>
<path d="M0,128 C160,106 340,142 520,126 C700,108 880,142 1060,126 C1130,120 1180,126 1200,122 V200 H0 Z" fill="#534AB7"/>
<path d="M0,150 C190,132 400,164 620,150 C840,136 1020,164 1200,150 V200 H0 Z" fill="#3C3489"/>
<path d="M0,180 C240,166 480,192 720,178 C940,166 1090,188 1200,178 V200 H0 Z" fill="#26215C"/>
</svg>
