<svg xmlns="http://www.w3.org/2000/svg" viewBox="0 0 1200 200" role="img" aria-label="Eine Lupe über der Landschaft — nur in der Linse wird sie scharf, im Fokus sitzt der goldene Punkt">
<rect width="1200" height="200" fill="#EEEDFE"/>
<defs><clipPath id="lens"><circle cx="600" cy="96" r="60"/></clipPath></defs>
<path d="M0,126 C220,114 460,134 700,124 C920,114 1080,130 1200,122 V200 H0 Z" fill="#CECBF6"/>
<path d="M0,156 C240,146 500,166 760,156 C980,148 1110,162 1200,155 V200 H0 Z" fill="#AFA9EC"/>
<path d="M0,182 C240,174 500,192 760,182 C980,174 1110,188 1200,181 V200 H0 Z" fill="#7F77DD"/>
<g clip-path="url(#lens)">
<rect x="520" y="36" width="160" height="130" fill="#EEEDFE"/>
<path d="M520,110 C560,104 620,112 680,106 L680,166 L520,166 Z" fill="#7F77DD"/>
<path d="M560,110 L560,84 L596,84 L596,110 Z M554,86 L578,70 L602,86 Z" fill="#26215C"/>
<rect x="572" y="94" width="10" height="16" fill="#f3c46a"/>
<path d="M628,110 L640,88 L652,110 Z M630,96 L640,76 L650,96 Z" fill="#3C3489"/><rect x="637" y="104" width="6" height="8" fill="#26215C"/>
<path d="M520,132 C570,126 630,136 680,130 L680,166 L520,166 Z" fill="#3C3489"/>
<path d="M520,152 C570,148 630,156 680,151 L680,166 L520,166 Z" fill="#26215C"/>
</g>
<circle cx="600" cy="96" r="60" fill="none" stroke="#26215C" stroke-width="9"/>
<g transform="translate(600,96) rotate(38)">
<rect x="58" y="-8" width="66" height="16" rx="8" fill="#26215C"/>
</g>
<path d="M330,60 q10,-8 20,0 M362,48 q10,-8 20,0" fill="none" stroke="#7F77DD" stroke-width="3" stroke-linecap="round"/>
</svg>
