<svg xmlns="http://www.w3.org/2000/svg" viewBox="0 0 1200 200" role="img" aria-label="Ein antiker Torbogen aus zwei Hälften — der goldene Schlussstein fügt sie zusammen">
<rect width="1200" height="200" fill="#EEEDFE"/>
<g fill="none" stroke="#3C3489" stroke-width="20" stroke-linecap="round">
<path d="M402,150 C420,108 476,80 566,72"/>
<path d="M798,150 C780,108 724,80 634,72"/>
</g>
<path d="M566,78 L634,78 L644,54 L556,54 Z" fill="#f3c46a"/>
<path d="M566,78 L634,78" stroke="#26215C" stroke-width="2" opacity="0.3"/>
<circle cx="600" cy="40" r="3" fill="#AFA9EC"/><circle cx="470" cy="46" r="2.5" fill="#AFA9EC"/><circle cx="740" cy="44" r="2.5" fill="#AFA9EC"/>
<path d="M0,150 C150,138 300,140 420,150 C520,158 560,158 600,158 C640,158 690,158 800,150 C920,141 1060,160 1200,150 V200 H0 Z" fill="#3C3489"/>
<path d="M0,180 C220,166 460,192 700,178 C920,166 1090,188 1200,178 V200 H0 Z" fill="#26215C"/>
</svg>
