<svg xmlns="http://www.w3.org/2000/svg" viewBox="0 0 1200 200" role="img" aria-label="Panorama des Gegensatzes: links steigt die goldene Sonne über hellen Hügeln, rechts liegt die dunkle Bergseite — zwei Seiten desselben Himmels">
<rect width="1200" height="200" fill="#EEEDFE"/>
<circle cx="760" cy="44" r="2" fill="#EEEDFE" opacity="0.5"/><circle cx="900" cy="80" r="1.6" fill="#EEEDFE" opacity="0.45"/><circle cx="1010" cy="54" r="1.8" fill="#EEEDFE" opacity="0.5"/><circle cx="850" cy="110" r="1.5" fill="#EEEDFE" opacity="0.4"/><circle cx="1080" cy="90" r="1.6" fill="#EEEDFE" opacity="0.45"/>
<circle cx="300" cy="56" r="25" fill="#f3c46a"/>
<ellipse cx="300" cy="56" rx="41" ry="12" fill="none" stroke="#f3c46a" stroke-width="2" opacity="0.45"/>
<path d="M0,132 L150,100 L300,132 Z" fill="#CECBF6"/>
<path d="M120,132 L280,104 L440,132 Z" fill="#AFA9EC"/>
<path d="M760,132 L920,86 L1080,132 Z" fill="#3C3489"/>
<path d="M900,132 L1050,100 L1200,132 Z" fill="#26215C"/>
<path d="M0,140 C200,124 420,150 600,140 V200 H0 Z" fill="#7F77DD"/>
<path d="M600,140 C780,132 1010,150 1200,140 V200 H600 Z" fill="#534AB7"/>
<path d="M0,150 C190,132 380,164 600,150 C820,136 1010,166 1200,150 V200 H0 Z" fill="#3C3489"/><path d="M0,180 C220,166 460,192 700,178 C920,166 1080,188 1200,178 V200 H0 Z" fill="#26215C"/>
</svg>