<svg xmlns="http://www.w3.org/2000/svg" viewBox="0 0 1200 200" role="img" aria-label="Festivalpanorama: Bühnendach mit Lautsprechertürmen und Wimpeln, Zelte auf den Hügeln, darüber die goldene Sonne">
<rect width="1200" height="200" fill="#EEEDFE"/>
<circle cx="250" cy="50" r="28" fill="#f3c46a"/>
<circle cx="250" cy="50" r="39" fill="none" stroke="#f3c46a" stroke-width="2" opacity="0.45"/>
<path d="M0,132 C120,104 240,96 360,116 C440,129 500,120 560,124 L560,200 L0,200 Z" fill="#CECBF6"/>
<path d="M840,124 C940,104 1060,116 1200,100 L1200,200 L840,200 Z" fill="#CECBF6"/>
<g fill="#7F77DD">
<path d="M150,142 L190,96 L230,142 Z"/><path d="M236,142 L268,108 L300,142 Z"/>
<path d="M1040,138 L1076,98 L1112,138 Z"/>
</g>
<g stroke="#AFA9EC" stroke-width="4" stroke-linecap="round" opacity="0.85">
<line x1="520" y1="66" x2="466" y2="20"/><line x1="600" y1="46" x2="574" y2="8"/>
<line x1="800" y1="46" x2="826" y2="8"/><line x1="880" y1="66" x2="934" y2="20"/>
</g>
<path d="M520,152 L520,72 M880,152 L880,72" stroke="#26215C" stroke-width="8" stroke-linecap="round"/>
<path d="M506,78 C560,72 640,44 700,34 C760,44 840,72 894,78 L894,90 C840,84 760,58 700,48 C640,58 560,84 506,90 Z" fill="#534AB7"/>
<path d="M700,34 L700,48" stroke="#26215C" stroke-width="5"/>
<rect x="484" y="98" width="40" height="58" rx="3" fill="#3C3489"/>
<rect x="876" y="98" width="40" height="58" rx="3" fill="#3C3489"/>
<g fill="#AFA9EC"><circle cx="504" cy="114" r="10"/><circle cx="504" cy="140" r="12"/><circle cx="896" cy="114" r="10"/><circle cx="896" cy="140" r="12"/></g>
<rect x="556" y="134" width="288" height="22" rx="3" fill="#26215C"/>
<g stroke="#7F77DD" stroke-width="2" fill="none"><path d="M520,90 C580,104 620,104 700,96 C780,88 830,102 880,90"/></g>
<g fill="#7F77DD">
<path d="M560,98 L560,112 L580,105 Z"/><path d="M640,101 L640,115 L660,108 Z"/><path d="M740,98 L740,112 L760,105 Z"/><path d="M820,99 L820,113 L840,106 Z"/>
</g>
<path d="M360,86 q10,-8 20,0 M392,74 q10,-8 20,0" fill="none" stroke="#534AB7" stroke-width="3" stroke-linecap="round"/>
<path d="M0,158 C190,142 400,172 620,158 C840,144 1020,172 1200,158 V200 H0 Z" fill="#3C3489"/>
<path d="M0,184 C240,172 480,196 720,183 C940,172 1090,192 1200,182 V200 H0 Z" fill="#26215C"/>
</svg>
