<svg xmlns="http://www.w3.org/2000/svg" viewBox="0 0 1200 200" role="img" aria-label="Ein Satellit zieht über die schlafende Stadt — sein Lichtkegel trifft genau das eine Fenster, das noch golden leuchtet">
<rect width="1200" height="200" fill="#EEEDFE"/>
<path d="M878,46 L634,120 L692,144 Z" fill="#CECBF6" opacity="0.8"/>
<g transform="translate(890,40) rotate(-14)">
<rect x="-16" y="-13" width="32" height="26" rx="4" fill="#26215C"/>
<rect x="-58" y="-9" width="36" height="18" rx="2" fill="#534AB7"/>
<rect x="22" y="-9" width="36" height="18" rx="2" fill="#534AB7"/>
<line x1="-22" y1="0" x2="-16" y2="0" stroke="#26215C" stroke-width="3"/>
<line x1="16" y1="0" x2="22" y2="0" stroke="#26215C" stroke-width="3"/>
<path d="M-6,13 L-14,30 L10,30 L2,13 Z" fill="#26215C"/>
</g>
<path d="M180,60 q11,-9 22,0 M212,49 q11,-9 22,0" fill="none" stroke="#AFA9EC" stroke-width="3" stroke-linecap="round"/>
<path d="M0,146 C120,142 240,150 340,146 L340,110 L392,110 L392,132 L438,132 L438,96 L494,96 L494,124 L548,124 L548,88 L610,88 L610,118 L664,118 L664,102 L722,102 L722,130 L776,130 L776,112 L832,112 C920,116 1060,140 1200,136 V200 H0 Z" fill="#3C3489"/>
<g fill="#7F77DD">
<rect x="352" y="120" width="10" height="12" rx="1"/><rect x="370" y="120" width="10" height="12" rx="1"/>
<rect x="450" y="108" width="10" height="12" rx="1"/><rect x="470" y="108" width="10" height="12" rx="1"/>
<rect x="450" y="128" width="10" height="12" rx="1"/>
<rect x="560" y="100" width="10" height="12" rx="1"/><rect x="586" y="100" width="10" height="12" rx="1"/>
<rect x="586" y="122" width="10" height="12" rx="1"/>
<rect x="676" y="114" width="10" height="12" rx="1"/><rect x="698" y="114" width="10" height="12" rx="1"/>
<rect x="734" y="142" width="10" height="12" rx="1"/><rect x="788" y="124" width="10" height="12" rx="1"/>
<rect x="404" y="144" width="10" height="12" rx="1"/>
</g>
<rect x="653" y="126" width="15" height="18" rx="1" fill="#f3c46a"/>
<path d="M0,168 C220,158 460,182 700,170 C920,159 1080,180 1200,168 V200 H0 Z" fill="#26215C"/>
<circle cx="150" cy="180" r="3.5" fill="#EEEDFE" opacity="0.45"/>
<circle cx="1020" cy="182" r="3" fill="#EEEDFE" opacity="0.45"/>
</svg>
