<svg xmlns="http://www.w3.org/2000/svg" viewBox="0 0 1200 200" role="img" aria-label="Eine Laterne über der Welle wirft warmes Licht — der Wortschatz erhellt sich"><rect width="1200" height="200" fill="#EEEDFE"/><path d="M0,132 C140,120 300,138 470,130 L470,200 L0,200 Z" fill="#7F77DD"/><path d="M470,130 C560,126 650,150 760,140 C900,128 1040,150 1200,140 L1200,200 L470,200 Z" fill="#534AB7"/><path d="M470,60 L470,130 L440,150 L500,150 Z" fill="none"/><line x1="470" y1="40" x2="470" y2="66" stroke="#26215C" stroke-width="4" stroke-linecap="round"/><path d="M448,66 h44 l6,52 h-56 Z" fill="#3C3489"/><rect x="452" y="74" width="36" height="40" rx="4" fill="#f3c46a"/><path d="M470,80 C464,88 464,96 470,104 C476,96 476,88 470,80 Z" fill="#26215C"/><g stroke="#f3c46a" stroke-width="2" opacity="0.4" stroke-linecap="round"><line x1="430" y1="94" x2="410" y2="94"/><line x1="510" y1="94" x2="530" y2="94"/><line x1="440" y1="120" x2="424" y2="132"/><line x1="500" y1="120" x2="516" y2="132"/></g><path d="M0,150 C190,132 400,164 620,150 C840,136 1020,166 1200,150 V200 H0 Z" fill="#3C3489"/><path d="M0,180 C240,166 480,192 720,178 C940,166 1090,188 1200,178 V200 H0 Z" fill="#26215C"/></svg>