<svg xmlns="http://www.w3.org/2000/svg" viewBox="0 0 1200 200" role="img" aria-label="Ein Dodo blickt auf die sinkende Sonne — zwei Vögel fliegen davon">
<rect width="1200" height="200" fill="#EEEDFE"/>
<circle cx="870" cy="116" r="34" fill="#f3c46a"/>
<circle cx="870" cy="116" r="47" fill="none" stroke="#f3c46a" stroke-width="2" opacity="0.4"/>
<path d="M930,38 q13,-13 26,0 q13,-13 26,0 l-4,6 q-9,-8 -22,2 q-13,-10 -22,-2 Z" fill="#534AB7"/>
<path d="M1010,60 q11,-11 22,0 q11,-11 22,0 l-4,5 q-7,-7 -18,2 q-11,-9 -18,-2 Z" fill="#534AB7"/>
<path d="M0,132 C160,112 300,140 470,124 C650,108 800,138 1000,122 C1090,115 1150,124 1200,118 V200 H0 Z" fill="#AFA9EC"/>
<g fill="#26215C">
<rect x="396" y="128" width="10" height="30" rx="4"/>
<rect x="428" y="128" width="10" height="30" rx="4"/>
<path d="M392,156 h20 q5,0 5,5 h-30 q0,-5 5,-5 Z"/>
<path d="M424,156 h20 q5,0 5,5 h-30 q0,-5 5,-5 Z"/>
<ellipse cx="415" cy="100" rx="58" ry="42"/>
<path d="M438,86 L468,54 L490,68 L458,102 Z"/>
<path d="M462,64 C456,46 466,32 484,32 C500,32 510,40 514,44 C528,46 540,54 544,62 C546,68 542,73 536,71 C533,77 525,79 521,73 C513,75 505,71 499,72 C484,76 468,78 462,64 Z"/>
</g>
<g fill="#534AB7">
<path d="M366,74 C352,62 348,48 356,40 C360,50 368,58 376,62 Z"/>
<path d="M358,88 C340,82 330,70 334,60 C342,68 354,74 364,78 Z"/>
<path d="M354,102 C334,102 322,92 322,82 C332,88 346,90 356,92 Z"/>
</g>
<path d="M376,102 q16,-12 34,-6" fill="none" stroke="#3C3489" stroke-width="6" stroke-linecap="round"/>
<path d="M0,152 C180,138 360,162 560,148 C760,136 940,162 1200,148 V200 H0 Z" fill="#534AB7"/>
<path d="M0,172 C220,158 460,184 700,170 C900,158 1080,180 1200,172 V200 H0 Z" fill="#3C3489"/>
<path d="M0,190 C260,182 540,198 800,190 C1000,184 1120,194 1200,190 V200 H0 Z" fill="#26215C"/>
<circle cx="200" cy="162" r="4" fill="#EEEDFE" opacity="0.5"/>
<circle cx="1060" cy="158" r="3" fill="#EEEDFE" opacity="0.5"/>
</svg>
