<svg xmlns="http://www.w3.org/2000/svg" viewBox="0 0 1200 200" role="img" aria-label="Ein Gamepad, dessen Kabel sich zur ruhigen Wellenlinie streckt — an der Spitze ein goldener Knopf">
<rect width="1200" height="200" fill="#EEEDFE"/>
<path d="M1050,44 a22,22 0 1 0 0,36 a26,26 0 0 1 0,-36 Z" fill="#CECBF6"/><g transform="translate(360,92)"><path d="M-96,0 q-22,2 -26,26 q-4,24 16,28 q18,4 28,-14 h108 q10,18 28,14 q20,-4 16,-28 q-4,-24 -26,-26 Z" fill="#534AB7"/><circle cx="-58" cy="14" r="4" fill="#26215C"/><path d="M-72,10 h12 M-66,4 v12" stroke="#26215C" stroke-width="4" stroke-linecap="round"/><circle cx="52" cy="6" r="5" fill="#26215C"/><circle cx="70" cy="18" r="5" fill="#26215C"/><circle cx="52" cy="26" r="5" fill="#26215C"/><circle cx="34" cy="18" r="5" fill="#26215C"/></g><path d="M470,110 C560,132 680,120 820,126 C900,130 960,124 1020,128 L1020,200 L0,200 L0,150 C130,158 260,150 470,110 Z" fill="#7F77DD"/><path d="M470,110 C560,132 680,120 820,126 C900,130 960,124 1020,128" fill="none" stroke="#534AB7" stroke-width="3"/><circle cx="1020" cy="128" r="7" fill="#f3c46a"/><path d="M0,148 C190,130 400,162 620,148 C840,134 1020,164 1200,148 V200 H0 Z" fill="#3C3489"/>
<path d="M0,180 C240,166 480,192 720,178 C940,166 1090,188 1200,178 V200 H0 Z" fill="#26215C"/>
</svg>
