<svg xmlns="http://www.w3.org/2000/svg" viewBox="0 0 1200 200" role="img" aria-label="Eine Treppe aus Bausteinen steigt zum Berufsziel auf — eine Stufe fehlt, und der goldene Baustein schwebt heran, um die Lücke zu schließen">
<rect width="1200" height="200" fill="#EEEDFE"/>
<g>
<rect x="360" y="150" width="96" height="26" fill="#CECBF6"/>
<rect x="456" y="128" width="96" height="48" fill="#AFA9EC"/>
<rect x="648" y="84" width="96" height="92" fill="#7F77DD"/>
<rect x="744" y="62" width="96" height="114" fill="#534AB7"/>
</g>
<rect x="552" y="106" width="96" height="70" fill="none" stroke="#7F77DD" stroke-width="2.5" stroke-dasharray="5 6" opacity="0.85"/>
<g transform="translate(552,58)">
<rect x="0" y="0" width="96" height="34" fill="#f3c46a"/>
<rect x="0" y="0" width="96" height="7" fill="#f6d089"/>
</g>
<path d="M596,98 l0,-10 M591,92 l5,-6 l5,6" fill="none" stroke="#3C3489" stroke-width="2" stroke-linecap="round" stroke-linejoin="round" opacity="0.65"/>
<path d="M0,156 C190,140 400,170 620,158 C840,146 1020,172 1200,158 V200 H0 Z" fill="#3C3489"/>
<path d="M0,184 C240,172 480,196 720,184 C940,172 1090,192 1200,184 V200 H0 Z" fill="#26215C"/>
</svg>
