<svg xmlns="http://www.w3.org/2000/svg" viewBox="0 0 1200 200" role="img" aria-label="Eine Pixel-Landschaft, in der genau ein goldener Block fehlt und darüber schwebt — die Lücke im Level">
<rect width="1200" height="200" fill="#EEEDFE"/>
<circle cx="1060" cy="46" r="22" fill="#AFA9EC"/>
<circle cx="1060" cy="46" r="32" fill="none" stroke="#AFA9EC" stroke-width="2" opacity="0.4"/>
<g fill="#7F77DD"><rect x="250" y="112" width="26" height="26"/><rect x="276" y="112" width="26" height="26"/><rect x="302" y="86" width="26" height="52"/><rect x="328" y="86" width="26" height="52"/><rect x="380" y="86" width="26" height="52"/><rect x="406" y="112" width="26" height="26"/><rect x="432" y="112" width="26" height="26"/><rect x="510" y="112" width="26" height="26"/><rect x="536" y="86" width="26" height="52"/></g>
<rect x="354" y="86" width="26" height="26" fill="none" stroke="#534AB7" stroke-width="2" stroke-dasharray="3 3"/>
<rect x="354" y="52" width="26" height="26" fill="#f3c46a"/>
<path d="M367,80 v6" stroke="#f3c46a" stroke-width="2" stroke-dasharray="2 3"/>
<path d="M0,148 C190,130 400,162 620,148 C840,134 1020,164 1200,148 V200 H0 Z" fill="#3C3489"/>
<path d="M0,180 C240,166 480,192 720,178 C940,166 1090,188 1200,178 V200 H0 Z" fill="#26215C"/>
</svg>
