<svg xmlns="http://www.w3.org/2000/svg" viewBox="0 0 1200 200" role="img" aria-label="Über der Stadt der Zukunft steigt eine Rakete auf — ihr goldenes Triebwerk leuchtet">
<rect width="1200" height="200" fill="#EEEDFE"/>
<circle cx="252" cy="40" r="3" fill="#7F77DD"/>
<circle cx="948" cy="34" r="3" fill="#7F77DD"/>
<circle cx="520" cy="26" r="3" fill="#7F77DD"/>
<path d="M0,124 C220,110 460,132 700,120 C920,110 1080,128 1200,118 V200 H0 Z" fill="#AFA9EC"/>
<g fill="#3C3489">
<path d="M300,122 A46,46 0 0 1 392,122 Z"/>
<rect x="338" y="60" width="14" height="62"/>
<path d="M470,122 L474,46 L490,46 L494,122 Z"/>
<ellipse cx="482" cy="60" rx="30" ry="8"/>
<path d="M560,122 A30,30 0 0 1 620,122 Z"/><rect x="584" y="76" width="10" height="46"/>
<path d="M876,122 L880,66 L896,66 L900,122 Z"/>
<ellipse cx="888" cy="78" rx="24" ry="7"/>
<path d="M950,122 A38,38 0 0 1 1026,122 Z"/>
</g>
<path d="M346,110 C440,84 560,84 680,102 C800,120 900,120 1000,112" fill="none" stroke="#534AB7" stroke-width="5"/>
<g transform="translate(748,60) rotate(-12) scale(1.18)">
<path d="M0,-46 C10,-30 12,-8 8,12 L-8,12 C-12,-8 -10,-30 0,-46 Z" fill="#26215C"/>
<circle cx="0" cy="-14" r="5" fill="#EEEDFE"/>
<path d="M-8,4 L-20,20 L-8,14 Z" fill="#26215C"/>
<path d="M8,4 L20,20 L8,14 Z" fill="#26215C"/>
<path d="M0,14 C6,26 4,36 0,46 C-4,36 -6,26 0,14 Z" fill="#f3c46a"/>
</g>
<path d="M0,152 C220,138 470,164 700,152 C920,140 1080,162 1200,152 V200 H0 Z" fill="#534AB7"/>
<path d="M0,171 C240,159 500,183 760,171 C980,159 1110,179 1200,169 V200 H0 Z" fill="#3C3489"/>
<path d="M0,189 C240,181 500,199 760,189 C980,181 1110,195 1200,188 V200 H0 Z" fill="#26215C"/>
</svg>
