<svg xmlns="http://www.w3.org/2000/svg" viewBox="0 0 1200 200" role="img" aria-label="Ein Gleis teilt sich an der Weiche — das Signal leuchtet golden">
<rect width="1200" height="200" fill="#EEEDFE"/>
<path d="M620,152 L850,60 L1090,152 Z" fill="#CECBF6"/>
<path d="M240,70 q10,-8 20,0 M274,58 q10,-8 20,0" fill="none" stroke="#534AB7" stroke-width="3" stroke-linecap="round"/>
<g stroke="#3C3489" stroke-width="5" fill="none" stroke-linecap="round">
<path d="M190,132 L560,132 C660,132 720,124 780,108 L900,76"/>
<path d="M190,144 L560,144 C690,144 760,136 820,120 L940,88"/>
<path d="M560,138 L1010,138"/>
<path d="M560,150 L1010,150"/>
</g>
<g stroke="#3C3489" stroke-width="4" stroke-linecap="round">
<line x1="240" y1="128" x2="240" y2="154"/><line x1="320" y1="128" x2="320" y2="154"/>
<line x1="400" y1="128" x2="400" y2="154"/><line x1="480" y1="128" x2="480" y2="154"/>
<line x1="650" y1="134" x2="650" y2="154"/><line x1="740" y1="134" x2="740" y2="154"/>
<line x1="830" y1="134" x2="830" y2="154"/><line x1="920" y1="134" x2="920" y2="154"/>
<line x1="716" y1="114" x2="726" y2="140"/><line x1="800" y1="94" x2="814" y2="120"/><line x1="884" y1="72" x2="900" y2="98"/>
</g>
<rect x="536" y="70" width="7" height="66" fill="#26215C"/>
<circle cx="539" cy="60" r="12" fill="#f3c46a"/>
<path d="M0,158 C200,148 420,166 640,158 C860,150 1040,164 1200,157 V200 H0 Z" fill="#534AB7"/>
<path d="M0,176 C230,168 470,186 690,177 C900,169 1070,182 1200,176 V200 H0 Z" fill="#3C3489"/>
<path d="M0,192 C250,187 520,198 770,193 C990,189 1130,196 1200,193 V200 H0 Z" fill="#26215C"/>
</svg>
