<svg xmlns="http://www.w3.org/2000/svg" viewBox="0 0 1200 200" role="img" aria-label="Eine klare, scharf gestaffelte Berglandschaft unter der goldenen Sonne — deutliche Sicht ohne Nebel">
<rect width="1200" height="200" fill="#EEEDFE"/>
<circle cx="880" cy="50" r="26" fill="#f3c46a"/>
<circle cx="880" cy="50" r="37" fill="none" stroke="#f3c46a" stroke-width="2" opacity="0.45"/>
<path d="M0,132 L180,72 L360,132 Z" fill="#CECBF6"/>
<path d="M240,132 L470,54 L700,132 Z" fill="#AFA9EC"/>
<path d="M560,132 L760,80 L960,132 Z" fill="#7F77DD"/>
<line x1="470" y1="60" x2="470" y2="132" stroke="#EEEDFE" stroke-width="2" opacity="0.5"/>
<path d="M300,64 q10,-8 20,0 M330,54 q10,-8 20,0" fill="none" stroke="#534AB7" stroke-width="3" stroke-linecap="round"/>
<path d="M0,134 C170,112 340,142 520,130 C700,118 900,144 1200,128 V200 H0 Z" fill="#7F77DD"/>
<path d="M0,158 C190,140 400,170 620,156 C840,142 1020,172 1200,156 V200 H0 Z" fill="#3C3489"/>
<path d="M0,184 C240,170 480,196 720,182 C940,170 1090,192 1200,182 V200 H0 Z" fill="#26215C"/>
</svg>
