<svg xmlns="http://www.w3.org/2000/svg" viewBox="0 0 1200 200" role="img" aria-label="Panorama der Wurmloch-Reise: ein Trichter aus konzentrischen Ringen wölbt sich über die Hügel, der goldene Ring markiert den Durchgang">
<rect width="1200" height="200" fill="#EEEDFE"/>
<circle cx="200" cy="44" r="2" fill="#EEEDFE" opacity="0.5"/><circle cx="330" cy="84" r="1.5" fill="#EEEDFE" opacity="0.45"/><circle cx="160" cy="104" r="1.5" fill="#EEEDFE" opacity="0.4"/><circle cx="1080" cy="120" r="1.6" fill="#EEEDFE" opacity="0.45"/><circle cx="120" cy="60" r="1.6" fill="#EEEDFE" opacity="0.45"/>
<ellipse cx="820" cy="66" rx="180" ry="58" fill="none" stroke="#AFA9EC" stroke-width="2" opacity="0.4"/><ellipse cx="820" cy="66" rx="140" ry="45" fill="none" stroke="#7F77DD" stroke-width="2" opacity="0.5"/><ellipse cx="820" cy="66" rx="102" ry="33" fill="none" stroke="#534AB7" stroke-width="2.5" opacity="0.6"/><ellipse cx="820" cy="66" rx="66" ry="22" fill="none" stroke="#3C3489" stroke-width="3" opacity="0.7"/><ellipse cx="820" cy="66" rx="34" ry="11" fill="none" stroke="#26215C" stroke-width="3" opacity="0.8"/>
<circle cx="820" cy="66" r="14" fill="#f3c46a"/>
<path d="M0,134 L150,104 L300,134 Z" fill="#CECBF6"/>
<path d="M300,134 L470,110 L640,134 Z" fill="#7F77DD"/>
<path d="M0,140 C210,124 420,150 640,140 C860,130 1030,152 1200,140 V200 H0 Z" fill="#534AB7"/>
<path d="M0,150 C190,132 380,164 600,150 C820,136 1010,166 1200,150 V200 H0 Z" fill="#3C3489"/><path d="M0,180 C220,166 460,192 700,178 C920,166 1080,188 1200,178 V200 H0 Z" fill="#26215C"/>
</svg>