<svg xmlns="http://www.w3.org/2000/svg" viewBox="0 0 1200 200" role="img" aria-label="Haftnotizen-Wand mit einer goldenen Notiz — Wortschatz"><rect width="1200" height="200" fill="#EEEDFE"/><rect x="452" y="34" width="296" height="90" rx="5" fill="#26215C" opacity="0.25"/><g transform="rotate(-4 496 68)"><rect x="474" y="50" width="44" height="36" fill="#AFA9EC"/><rect x="474" y="50" width="44" height="8" fill="#26215C" opacity="0.15"/></g><g transform="rotate(3 570 64)"><rect x="548" y="46" width="44" height="36" fill="#7F77DD"/><rect x="548" y="46" width="44" height="8" fill="#26215C" opacity="0.15"/></g><g transform="rotate(-3 646 70)"><rect x="624" y="52" width="44" height="36" fill="#534AB7"/><rect x="624" y="52" width="44" height="8" fill="#26215C" opacity="0.15"/></g><g transform="rotate(4 712 68)"><rect x="690" y="50" width="44" height="36" fill="#AFA9EC"/><rect x="690" y="50" width="44" height="8" fill="#26215C" opacity="0.15"/></g><g transform="rotate(3 532 106)"><rect x="510" y="88" width="44" height="36" fill="#7F77DD"/><rect x="510" y="88" width="44" height="8" fill="#26215C" opacity="0.15"/></g><g transform="rotate(-3 622 108)"><rect x="600" y="90" width="44" height="36" fill="#f3c46a"/><rect x="600" y="90" width="44" height="8" fill="#26215C" opacity="0.15"/></g><g transform="rotate(4 698 104)"><rect x="676" y="86" width="44" height="36" fill="#534AB7"/><rect x="676" y="86" width="44" height="8" fill="#26215C" opacity="0.15"/></g><path d="M320,74 q10,-8 20,0 M350,62 q10,-8 20,0" fill="none" stroke="#534AB7" stroke-width="3" stroke-linecap="round"/><path d="M0,124 C160,106 320,140 480,124 C640,108 820,142 1000,124 C1090,115 1150,122 1200,118 V200 H0 Z" fill="#534AB7"/><path d="M0,152 C180,134 380,166 600,152 C820,138 1010,168 1200,152 V200 H0 Z" fill="#3C3489"/><path d="M0,178 C220,164 460,190 700,176 C920,164 1080,188 1200,178 V200 H0 Z" fill="#26215C"/></svg>