<svg xmlns="http://www.w3.org/2000/svg" viewBox="0 0 1200 200" role="img" aria-label="Stadtsilhouette mit Hochhäusern über den Wellen — in einem Fenster brennt golden das Licht">
<rect width="1200" height="200" fill="#EEEDFE"/>
<circle cx="300" cy="52" r="27" fill="#f3c46a"/>
<circle cx="300" cy="52" r="38" fill="none" stroke="#f3c46a" stroke-width="2" opacity="0.4"/>
<g fill="#CECBF6">
<rect x="360" y="70" width="46" height="66"/><rect x="470" y="54" width="34" height="82"/><rect x="560" y="82" width="40" height="54"/><rect x="820" y="66" width="44" height="70"/>
</g>
<g fill="#AFA9EC">
<rect x="410" y="86" width="52" height="50"/><rect x="612" y="60" width="48" height="76"/><rect x="770" y="78" width="42" height="58"/>
</g>
<g fill="#7F77DD">
<rect x="512" y="94" width="44" height="42"/><rect x="672" y="46" width="54" height="90"/><rect x="736" y="96" width="30" height="40"/>
</g>
<rect x="688" y="66" width="10" height="12" fill="#f3c46a"/>
<g fill="#CECBF6" opacity="0.9"><rect x="628" y="72" width="6" height="8"/><rect x="640" y="72" width="6" height="8"/><rect x="628" y="90" width="6" height="8"/><rect x="640" y="90" width="6" height="8"/></g>
<path d="M470,64 q10,-8 20,0 M502,54 q10,-8 20,0" fill="none" stroke="#534AB7" stroke-width="3" stroke-linecap="round"/>
<path d="M0,132 C160,116 320,146 520,134 C700,123 860,150 1040,134 C1110,128 1170,134 1200,131 V200 H0 Z" fill="#534AB7"/>
<path d="M0,154 C180,140 380,170 600,154 C820,140 1010,170 1200,154 V200 H0 Z" fill="#3C3489"/>
<path d="M0,180 C220,166 460,192 720,178 C940,166 1090,188 1200,178 V200 H0 Z" fill="#26215C"/>
<circle cx="250" cy="140" r="4" fill="#EEEDFE" opacity="0.5"/><circle cx="1010" cy="138" r="3" fill="#EEEDFE" opacity="0.5"/>
</svg>