<svg xmlns="http://www.w3.org/2000/svg" viewBox="0 0 1200 200" role="img" aria-label="Ein Rad auf dem Pfosten wird von der Wellenkante selbst wie von einem Riemen gedreht und zieht ohne Hand das goldene Gewicht empor — es lässt sich von selbst heben"><rect width="1200" height="200" fill="#EEEDFE"/><path d="M0,110 C160,90 340,120 520,104 C700,88 900,120 1080,104 C1140,99 1180,106 1200,102 V200 H0 Z" fill="#CECBF6"/><rect x="596" y="96" width="10" height="54" fill="#3C3489"/><circle cx="601" cy="92" r="26" fill="#534AB7"/><line x1="627.0" y1="92.0" x2="633.0" y2="92.0" stroke="#534AB7" stroke-width="6" stroke-linecap="round"/><line x1="623.5" y1="105.0" x2="628.7" y2="108.0" stroke="#534AB7" stroke-width="6" stroke-linecap="round"/><line x1="614.0" y1="114.5" x2="617.0" y2="119.7" stroke="#534AB7" stroke-width="6" stroke-linecap="round"/><line x1="601.0" y1="118.0" x2="601.0" y2="124.0" stroke="#534AB7" stroke-width="6" stroke-linecap="round"/><line x1="588.0" y1="114.5" x2="585.0" y2="119.7" stroke="#534AB7" stroke-width="6" stroke-linecap="round"/><line x1="578.5" y1="105.0" x2="573.3" y2="108.0" stroke="#534AB7" stroke-width="6" stroke-linecap="round"/><line x1="575.0" y1="92.0" x2="569.0" y2="92.0" stroke="#534AB7" stroke-width="6" stroke-linecap="round"/><line x1="578.5" y1="79.0" x2="573.3" y2="76.0" stroke="#534AB7" stroke-width="6" stroke-linecap="round"/><line x1="588.0" y1="69.5" x2="585.0" y2="64.3" stroke="#534AB7" stroke-width="6" stroke-linecap="round"/><line x1="601.0" y1="66.0" x2="601.0" y2="60.0" stroke="#534AB7" stroke-width="6" stroke-linecap="round"/><line x1="614.0" y1="69.5" x2="617.0" y2="64.3" stroke="#534AB7" stroke-width="6" stroke-linecap="round"/><line x1="623.5" y1="79.0" x2="628.7" y2="76.0" stroke="#534AB7" stroke-width="6" stroke-linecap="round"/><circle cx="601" cy="92" r="9" fill="#EEEDFE" opacity="0.6"/><path d="M627,92 C700,96 780,120 900,150" fill="none" stroke="#7F77DD" stroke-width="4" stroke-dasharray="2 6" stroke-linecap="round"/><line x1="575" y1="92" x2="500" y2="92" stroke="#26215C" stroke-width="3"/><line x1="500" y1="92" x2="500" y2="110" stroke="#26215C" stroke-width="2.5"/><rect x="486" y="110" width="28" height="26" rx="4" fill="#f3c46a"/><path d="M0,150 C190,132 400,164 620,150 C840,136 1020,166 1200,150 V200 H0 Z" fill="#3C3489"/><path d="M0,180 C240,166 480,192 720,178 C940,166 1090,188 1200,178 V200 H0 Z" fill="#26215C"/></svg>