<svg xmlns="http://www.w3.org/2000/svg" viewBox="0 0 1200 200" role="img" aria-label="In der Häuserzeile fehlt ein Haus — das goldene Haus schwebt über der Baulücke">
<rect width="1200" height="200" fill="#EEEDFE"/>
<g fill="#CECBF6">
<path d="M132,156 V96 L176,70 L220,96 V156 Z"/>
<path d="M1000,156 V92 L1046,64 L1092,92 V156 Z"/>
</g>
<g fill="#7F77DD">
<path d="M244,156 V104 L280,78 L316,104 V156 Z"/>
<path d="M324,156 V96 L364,68 L404,96 V156 Z"/>
<path d="M412,156 V110 L446,86 L480,110 V156 Z"/>
</g>
<g fill="#534AB7">
<path d="M612,156 V100 L652,72 L692,100 V156 Z"/>
<path d="M700,156 V112 L734,88 L768,112 V156 Z"/>
<path d="M776,156 V94 L818,66 L860,94 V156 Z"/>
<path d="M868,156 V108 L902,84 L936,108 V156 Z"/>
</g>
<g fill="#CECBF6">
<rect x="271" y="114" width="16" height="18"/><rect x="354" y="106" width="16" height="18"/>
<rect x="437" y="122" width="14" height="16"/>
<rect x="642" y="114" width="16" height="18"/><rect x="726" y="124" width="14" height="16"/>
<rect x="808" y="106" width="16" height="18"/><rect x="894" y="120" width="14" height="16"/>
</g>
<g stroke="#AFA9EC" stroke-width="3" stroke-dasharray="9 9" fill="none">
<line x1="502" y1="156" x2="502" y2="104"/><line x1="590" y1="156" x2="590" y2="104"/>
</g>
<g transform="translate(546,62)">
<path d="M-40,36 V-4 L0,-34 L40,-4 V36 Z" fill="#f3c46a"/>
<rect x="-9" y="4" width="18" height="20" fill="#EEEDFE"/>
</g>
<circle cx="546" cy="118" r="4.5" fill="#3C3489" opacity="0.45"/>
<circle cx="546" cy="133" r="2.5" fill="#3C3489" opacity="0.35"/>
<path d="M950,44 q10,-8 20,0 M980,34 q10,-8 20,0" fill="none" stroke="#534AB7" stroke-width="3" stroke-linecap="round"/>
<path d="M0,156 C200,144 420,170 640,158 C860,146 1020,170 1200,156 V200 H0 Z" fill="#3C3489"/>
<path d="M0,182 C240,172 500,194 760,182 C960,173 1100,190 1200,182 V200 H0 Z" fill="#26215C"/>
</svg>
