<svg xmlns="http://www.w3.org/2000/svg" viewBox="0 0 1200 200" role="img" aria-label="Zellen fügen sich zu einem Bau — Satzbau rund um den Körper"><rect width="1200" height="200" fill="#EEEDFE"/><path d="M1000,42 a20,20 0 1 0 0,36 a24,24 0 0 1 0,-36 Z" fill="#CECBF6"/><g><circle cx="520" cy="168" r="26" fill="#534AB7"/><circle cx="520" cy="168" r="9" fill="#26215C"/><circle cx="580" cy="168" r="26" fill="#7F77DD"/><circle cx="580" cy="168" r="9" fill="#3C3489"/><circle cx="550" cy="122" r="26" fill="#AFA9EC"/><circle cx="550" cy="122" r="9" fill="#534AB7"/><circle cx="612" cy="122" r="26" fill="#534AB7"/><circle cx="612" cy="122" r="9" fill="#26215C"/><circle cx="580" cy="78" r="26" fill="#f3c46a"/><circle cx="580" cy="78" r="9" fill="#26215C"/></g><path d="M0,150 C190,132 400,164 620,150 C840,136 1020,166 1200,150 V200 H0 Z" fill="#3C3489"/><path d="M0,180 C240,166 480,192 720,178 C940,166 1090,188 1200,178 V200 H0 Z" fill="#26215C"/></svg>