<svg xmlns="http://www.w3.org/2000/svg" viewBox="0 0 1200 200" role="img" aria-label="Zwischen zwei Pfosten hängt ein Seil, sein goldener Knoten in der Mitte — der Kompromiss ist die Wellenkante">
<rect width="1200" height="200" fill="#EEEDFE"/>
<line x1="330" y1="86" x2="330" y2="150" stroke="#26215C" stroke-width="7" stroke-linecap="round"/><line x1="870" y1="86" x2="870" y2="150" stroke="#26215C" stroke-width="7" stroke-linecap="round"/><path d="M330,92 C480,150 720,150 870,92" fill="none" stroke="#3C3489" stroke-width="5"/><circle cx="600" cy="129" r="12" fill="#f3c46a"/><path d="M300,60 q9,-7 18,0 M326,52 q9,-7 18,0" fill="none" stroke="#534AB7" stroke-width="3" stroke-linecap="round"/><path d="M330,92 C480,150 720,150 870,92 L870,200 L330,200 Z" fill="#534AB7" opacity="0.55"/><path d="M0,158 C220,148 460,168 720,158 C940,150 1060,168 1200,158 V200 H0 Z" fill="#3C3489"/><path d="M0,184 C240,176 520,196 780,186 C1000,180 1120,192 1200,186 V200 H0 Z" fill="#26215C"/>
</svg>
