<svg xmlns="http://www.w3.org/2000/svg" viewBox="0 0 1200 200" role="img" aria-label="Der Stecker vorn erweckt erst das Ganze — sein Kabel ist die Wellenkante selbst, am Kontakt springt der goldene Funke">
<rect width="1200" height="200" fill="#EEEDFE"/>
<path d="M180,60 q10,-8 20,0 M210,48 q10,-8 20,0" fill="none" stroke="#AFA9EC" stroke-width="3" stroke-linecap="round"/>
<path d="M760,160 C830,120 920,110 1010,110 C1100,110 1160,116 1200,120 L1200,200 L760,200 Z" fill="#CECBF6"/>
<path d="M0,146 C160,134 320,158 470,148 C560,142 620,134 668,126 C700,121 730,114 758,106 C820,122 900,140 1000,146 C1090,151 1150,150 1200,148 L1200,200 L0,200 Z" fill="#7F77DD"/>
<path d="M0,146 C160,134 320,158 470,148 C560,142 620,134 668,126 C700,121 730,114 758,106" fill="none" stroke="#26215C" stroke-width="7" stroke-linecap="round"/>
<path d="M758,106 C796,94 806,74 806,58 L806,48" fill="none" stroke="#26215C" stroke-width="7" stroke-linecap="round"/>
<rect x="762" y="18" width="92" height="52" rx="9" fill="#26215C"/>
<rect x="854" y="28" width="32" height="9" rx="4" fill="#3C3489"/>
<rect x="854" y="51" width="32" height="9" rx="4" fill="#3C3489"/>
<rect x="948" y="10" width="98" height="68" rx="10" fill="#534AB7"/>
<rect x="976" y="26" width="11" height="14" rx="2" fill="#26215C"/>
<rect x="976" y="48" width="11" height="14" rx="2" fill="#26215C"/>
<path d="M902,26 l18,16 -12,4 16,20 -25,-15 11,-6 -16,-14 Z" fill="#f3c46a"/>
<path d="M0,170 C220,160 460,186 700,173 C920,162 1080,182 1200,172 V200 H0 Z" fill="#3C3489"/>
<path d="M0,190 C260,184 540,198 800,191 C1000,186 1120,194 1200,190 V200 H0 Z" fill="#26215C"/>
</svg>
