<svg xmlns="http://www.w3.org/2000/svg" viewBox="0 0 1200 200" role="img" aria-label="Ein Rednerpult auf der Welle mit goldenem Mikrofon — die Schallbögen tragen weit: Stellung nehmen">
<rect width="1200" height="200" fill="#EEEDFE"/>
<path d="M556,138 L556,96 L644,96 L644,138 Z" fill="#3C3489"/>
<path d="M556,96 L644,96 L662,108 L538,108 Z" fill="#534AB7"/>
<rect x="594" y="108" width="12" height="30" fill="#26215C"/>
<line x1="600" y1="96" x2="600" y2="70" stroke="#26215C" stroke-width="4"/>
<circle cx="600" cy="62" r="10" fill="#f3c46a"/>
<g fill="none" stroke="#AFA9EC" stroke-width="3" stroke-linecap="round">
<path d="M628,50 a34,34 0 0 1 0,24"/><path d="M644,44 a52,52 0 0 1 0,36"/>
<path d="M572,50 a34,34 0 0 0 0,24"/><path d="M556,44 a52,52 0 0 0 0,36"/>
</g>
<path d="M300,110 q10,-8 20,0 M330,98 q10,-8 20,0" fill="none" stroke="#534AB7" stroke-width="3" stroke-linecap="round"/>
<path d="M0,138 C160,126 360,150 540,138 L662,138 C820,128 1030,150 1200,138 V200 H0 Z" fill="#7F77DD"/>
<path d="M0,158 C200,144 420,172 640,158 C860,146 1040,172 1200,158 V200 H0 Z" fill="#3C3489"/>
<path d="M0,184 C240,172 500,196 760,184 C980,172 1110,190 1200,184 V200 H0 Z" fill="#26215C"/>
</svg>