<svg xmlns="http://www.w3.org/2000/svg" viewBox="0 0 1200 200" role="img" aria-label="Das Gehirn wird zum sanften Hügel unter der Sonne — Ernährung und Gehirn"><rect width="1200" height="200" fill="#EEEDFE"/><circle cx="1000" cy="50" r="26" fill="#f3c46a"/><circle cx="1000" cy="50" r="39" fill="none" stroke="#f3c46a" stroke-width="2" opacity="0.42"/><path d="M120,124 L250,84 L370,124 Z" fill="#CECBF6"/><path d="M452,134 C444,100 460,76 492,72 C500,50 542,48 556,70 C578,50 616,54 624,80 C660,68 692,90 690,118 C689,130 680,136 668,134 Z" fill="#7F77DD"/><g fill="none" stroke="#CECBF6" stroke-width="3" stroke-linecap="round"><path d="M486,92 C500,100 496,112 510,118"/><path d="M512,78 C506,92 520,100 514,114"/><path d="M600,84 C610,94 604,106 616,112"/><path d="M630,96 C640,104 634,116 646,120"/></g><path d="M556,70 C560,90 552,108 560,132" fill="none" stroke="#3C3489" stroke-width="2.5" stroke-linecap="round"/><path d="M604,130 C612,140 620,140 624,132" fill="none" stroke="#534AB7" stroke-width="5" stroke-linecap="round"/><path d="M0,128 C150,106 320,142 500,124 C680,106 860,144 1040,124 C1110,116 1170,126 1200,120 V200 H0 Z" fill="#534AB7"/><path d="M0,150 C190,132 400,164 620,150 C840,136 1020,166 1200,150 V200 H0 Z" fill="#3C3489"/><path d="M0,180 C240,166 480,192 720,178 C940,166 1090,188 1200,178 V200 H0 Z" fill="#26215C"/></svg>