<svg xmlns="http://www.w3.org/2000/svg" viewBox="0 0 1200 200" role="img" aria-label="Eine Reihe Dominosteine auf dem Wellenkamm kippt nacheinander — sodass der letzte, goldene, ins Meer fällt">
<rect width="1200" height="200" fill="#EEEDFE"/>
<g fill="#534AB7"><g transform="translate(300,120) rotate(0)"><rect x="-8" y="-44" width="16" height="44" rx="2"/></g><g transform="translate(360,120) rotate(8)"><rect x="-8" y="-44" width="16" height="44" rx="2"/></g><g transform="translate(420,120) rotate(18)"><rect x="-8" y="-44" width="16" height="44" rx="2"/></g><g transform="translate(480,120) rotate(30)"><rect x="-8" y="-44" width="16" height="44" rx="2"/></g><g transform="translate(540,120) rotate(45)"><rect x="-8" y="-44" width="16" height="44" rx="2"/></g><g transform="translate(600,120) rotate(62)"><rect x="-8" y="-44" width="16" height="44" rx="2"/></g></g>
<g transform="translate(662,120) rotate(80)"><rect x="-8" y="-44" width="16" height="44" rx="2" fill="#f3c46a"/></g>
<path d="M0,134 C170,112 340,142 520,130 C700,118 900,144 1200,128 V200 H0 Z" fill="#7F77DD"/>
<path d="M0,158 C190,140 400,170 620,156 C840,142 1020,172 1200,156 V200 H0 Z" fill="#3C3489"/>
<path d="M0,184 C240,170 480,196 720,182 C940,170 1090,192 1200,182 V200 H0 Z" fill="#26215C"/>
</svg>
