<svg xmlns="http://www.w3.org/2000/svg" viewBox="0 0 1200 200" role="img" aria-label="Ein Theaterportal im Panorama, über dem Bogen leuchtet ein goldener Stern — Wortschatz">
<rect width="1200" height="200" fill="#EEEDFE"/>
<path d="M280,150 L280,70 Q600,-6 920,70 L920,150 Z" fill="#AFA9EC"/>
<path d="M330,150 L330,80 Q600,20 870,80 L870,150 Z" fill="#7F77DD"/>
<path d="M330,150 L330,150 Q600,86 870,150 Z" fill="#534AB7"/>
<path d="M600,30 l9,20 22,2 -16,15 5,22 -20,-12 -20,12 5,-22 -16,-15 22,-2 Z" fill="#f3c46a"/>
<g stroke="#3C3489" stroke-width="3" opacity="0.55">
<line x1="380" y1="96" x2="380" y2="150"/><line x1="450" y1="88" x2="450" y2="150"/>
<line x1="600" y1="82" x2="600" y2="150"/><line x1="750" y1="88" x2="750" y2="150"/>
<line x1="820" y1="96" x2="820" y2="150"/></g>
<path d="M0,150 C190,134 400,164 620,150 C840,136 1020,164 1200,150 V200 H0 Z" fill="#3C3489"/>
<path d="M0,180 C240,166 480,192 720,178 C940,166 1090,188 1200,178 V200 H0 Z" fill="#26215C"/>
</svg>
