<svg xmlns="http://www.w3.org/2000/svg" viewBox="0 0 1200 200" role="img" aria-label="Arcade-Skyline: Spielautomaten und Pixeltürme staffeln sich wie Berge, ein goldener Bildschirm leuchtet">
<rect width="1200" height="200" fill="#EEEDFE"/>
<circle cx="320" cy="50" r="24" fill="#AFA9EC"/>
<circle cx="320" cy="50" r="34" fill="none" stroke="#AFA9EC" stroke-width="2" opacity="0.4"/>
<g fill="#AFA9EC"><rect x="180" y="78" width="46" height="42"/><rect x="240" y="66" width="40" height="54"/><rect x="300" y="86" width="50" height="34"/></g>
<g fill="#7F77DD"><rect x="560" y="60" width="54" height="60" rx="4"/><rect x="640" y="74" width="46" height="46" rx="4"/><rect x="710" y="52" width="58" height="68" rx="4"/><rect x="800" y="80" width="50" height="40" rx="4"/></g>
<rect x="720" y="62" width="38" height="26" rx="2" fill="#f3c46a"/>
<rect x="570" y="70" width="34" height="24" rx="2" fill="#3C3489"/>
<rect x="470" y="70" width="10" height="10" fill="#534AB7"/><rect x="484" y="60" width="10" height="10" fill="#534AB7"/><rect x="498" y="72" width="10" height="10" fill="#534AB7"/>
<path d="M0,124 C150,96 290,140 450,118 C610,96 760,138 920,116 C1040,101 1130,118 1200,108 V200 H0 Z" fill="#534AB7"/>
<path d="M0,150 C170,128 330,166 520,146 C700,128 880,168 1050,148 C1110,141 1170,148 1200,144 V200 H0 Z" fill="#3C3489"/>
<path d="M0,178 C200,162 420,190 640,176 C860,163 1040,188 1200,176 V200 H0 Z" fill="#26215C"/>
</svg>
