<svg xmlns="http://www.w3.org/2000/svg" viewBox="0 0 1200 200" role="img" aria-label="Ein Containerschiff fährt über die Welle — das goldene Steuerrad geht wie eine Sonne auf">
<rect width="1200" height="200" fill="#EEEDFE"/>
<g stroke="#f3c46a" fill="none" stroke-width="5">
<circle cx="950" cy="72" r="30"/>
<line x1="950" y1="30" x2="950" y2="114"/>
<line x1="908" y1="72" x2="992" y2="72"/>
<line x1="920" y1="42" x2="980" y2="102"/>
<line x1="920" y1="102" x2="980" y2="42"/>
</g>
<circle cx="950" cy="72" r="9" fill="#f3c46a"/>
<g fill="#f3c46a">
<circle cx="950" cy="28" r="5"/><circle cx="950" cy="116" r="5"/>
<circle cx="906" cy="72" r="5"/><circle cx="994" cy="72" r="5"/>
<circle cx="919" cy="41" r="5"/><circle cx="981" cy="103" r="5"/>
<circle cx="919" cy="103" r="5"/><circle cx="981" cy="41" r="5"/>
</g>
<path d="M200,60 q10,-8 20,0 M236,48 q10,-8 20,0" fill="none" stroke="#534AB7" stroke-width="3" stroke-linecap="round"/>
<path d="M0,138 C180,126 380,148 580,136 C800,124 1020,146 1200,136 V200 H0 Z" fill="#AFA9EC"/>
<g>
<rect x="360" y="118" width="34" height="26" fill="#7F77DD"/>
<rect x="398" y="118" width="34" height="26" fill="#534AB7"/>
<rect x="436" y="118" width="34" height="26" fill="#7F77DD"/>
<rect x="379" y="92" width="34" height="24" fill="#534AB7"/>
<rect x="417" y="92" width="34" height="24" fill="#3C3489"/>
<rect x="474" y="96" width="22" height="48" fill="#26215C"/>
<rect x="470" y="86" width="30" height="12" fill="#3C3489"/>
<path d="M336,144 L516,144 L496,172 L360,172 Z" fill="#26215C"/>
</g>
<path d="M0,166 C220,156 460,176 700,164 C920,154 1080,172 1200,164 V200 H0 Z" fill="#3C3489"/>
<circle cx="322" cy="162" r="3" fill="#EEEDFE"/>
<circle cx="540" cy="170" r="3" fill="#AFA9EC"/>
<path d="M0,186 C260,180 540,196 800,188 C1010,182 1120,190 1200,186 V200 H0 Z" fill="#26215C"/>
</svg>
