<svg xmlns="http://www.w3.org/2000/svg" viewBox="0 0 1200 200" role="img" aria-label="Ein Fischschwarm zieht in eine Richtung — der goldene Fisch schwimmt anders">
<rect width="1200" height="200" fill="#EEEDFE"/>
<path d="M170,60 q10,-8 20,0 M204,48 q10,-8 20,0" fill="none" stroke="#534AB7" stroke-width="3" stroke-linecap="round"/>
<path d="M0,88 C200,78 420,96 640,88 C860,80 1040,94 1200,86 V200 H0 Z" fill="#534AB7"/>
<g fill="#26215C">
<path d="M470,116 q24,-12 48,0 q-24,12 -48,0 Z M518,116 l20,-11 v22 Z"/>
<path d="M560,104 q24,-12 48,0 q-24,12 -48,0 Z M608,104 l20,-11 v22 Z"/>
<path d="M566,136 q24,-12 48,0 q-24,12 -48,0 Z M614,136 l20,-11 v22 Z"/>
<path d="M656,120 q24,-12 48,0 q-24,12 -48,0 Z M704,120 l20,-11 v22 Z"/>
<path d="M746,108 q24,-12 48,0 q-24,12 -48,0 Z M794,108 l20,-11 v22 Z"/>
<path d="M752,140 q24,-12 48,0 q-24,12 -48,0 Z M800,140 l20,-11 v22 Z"/>
</g>
<g fill="#f3c46a">
<path d="M508,152 q-24,-12 -48,0 q24,12 48,0 Z"/>
<path d="M460,152 l-20,-11 v22 Z"/>
</g>
<circle cx="880" cy="120" r="3" fill="#AFA9EC"/><circle cx="900" cy="140" r="2.5" fill="#AFA9EC"/>
<path d="M0,174 C230,166 470,184 690,175 C900,168 1070,181 1200,175 V200 H0 Z" fill="#3C3489"/>
<path d="M0,192 C250,187 520,198 770,193 C990,189 1130,196 1200,193 V200 H0 Z" fill="#26215C"/>
</svg>
