<svg xmlns="http://www.w3.org/2000/svg" viewBox="0 0 1200 200" role="img" aria-label="Panorama der Universums-Erforschung: Observatoriumskuppeln auf den Hügeln, eine Umlaufbahn zieht ihren Ring, der goldene Planet darüber">
<rect width="1200" height="200" fill="#EEEDFE"/>
<ellipse cx="600" cy="66" rx="270" ry="60" fill="none" stroke="#AFA9EC" stroke-width="2" opacity="0.55"/>
<circle cx="600" cy="52" r="27" fill="#f3c46a"/>
<ellipse cx="600" cy="52" rx="44" ry="13" fill="none" stroke="#f3c46a" stroke-width="2" opacity="0.45"/>
<circle cx="200" cy="40" r="2" fill="#EEEDFE" opacity="0.5"/><circle cx="300" cy="80" r="1.5" fill="#EEEDFE" opacity="0.45"/><circle cx="920" cy="44" r="2" fill="#EEEDFE" opacity="0.5"/><circle cx="1000" cy="90" r="1.6" fill="#EEEDFE" opacity="0.45"/><circle cx="150" cy="100" r="1.5" fill="#EEEDFE" opacity="0.4"/><circle cx="1050" cy="60" r="1.8" fill="#EEEDFE" opacity="0.5"/><circle cx="430" cy="36" r="1.6" fill="#EEEDFE" opacity="0.45"/><circle cx="770" cy="34" r="1.6" fill="#EEEDFE" opacity="0.45"/>
<path d="M0,132 L150,104 L300,132 Z" fill="#CECBF6"/>
<path d="M760,132 L900,96 L1040,132 Z" fill="#CECBF6"/>
<path d="M0,138 C200,120 380,150 600,138 C820,126 1010,152 1200,138 V200 H0 Z" fill="#534AB7"/>
<g fill="#3C3489"><path d="M274,132 a26,26 0 0 1 52,0 Z"/><rect x="270" y="132" width="60" height="18" rx="3"/></g><line x1="300" y1="108" x2="312" y2="102" stroke="#EEEDFE" stroke-width="2" opacity="0.6"/><g fill="#3C3489"><path d="M574,128 a26,26 0 0 1 52,0 Z"/><rect x="570" y="128" width="60" height="18" rx="3"/></g><line x1="600" y1="104" x2="612" y2="98" stroke="#EEEDFE" stroke-width="2" opacity="0.6"/><g fill="#3C3489"><path d="M854,134 a26,26 0 0 1 52,0 Z"/><rect x="850" y="134" width="60" height="18" rx="3"/></g><line x1="880" y1="110" x2="892" y2="104" stroke="#EEEDFE" stroke-width="2" opacity="0.6"/>
<g stroke="#26215C" stroke-width="3" stroke-linecap="round"><line x1="470" y1="140" x2="470" y2="116"/><line x1="470" y1="120" x2="452" y2="110"/></g>
<path d="M0,150 C190,132 380,164 600,150 C820,136 1010,166 1200,150 V200 H0 Z" fill="#3C3489"/><path d="M0,180 C220,166 460,192 700,178 C920,166 1080,188 1200,178 V200 H0 Z" fill="#26215C"/>
</svg>