<svg xmlns="http://www.w3.org/2000/svg" viewBox="0 0 1200 200" role="img" aria-label="Ein Fragezeichen aus Trittsteinen im Wasser — der goldene Punkt">
<rect width="1200" height="200" fill="#EEEDFE"/>
<path d="M170,150 L310,104 L460,150 Z" fill="#CECBF6"/>
<path d="M840,50 q10,-8 20,0 M872,38 q10,-8 20,0" fill="none" stroke="#534AB7" stroke-width="3" stroke-linecap="round"/>
<path d="M0,92 C200,82 420,100 640,92 C860,84 1040,98 1200,90 V200 H0 Z" fill="#534AB7"/>
<g fill="#26215C">
<ellipse cx="560" cy="120" rx="11" ry="5.5"/>
<ellipse cx="578" cy="108" rx="11" ry="5.5"/>
<ellipse cx="602" cy="102" rx="11" ry="5.5"/>
<ellipse cx="626" cy="107" rx="11" ry="5.5"/>
<ellipse cx="642" cy="119" rx="11" ry="5.5"/>
<ellipse cx="640" cy="134" rx="10" ry="5"/>
<ellipse cx="624" cy="145" rx="10" ry="5"/>
<ellipse cx="608" cy="155" rx="10" ry="5"/>
<ellipse cx="604" cy="169" rx="9" ry="4.5"/>
</g>
<ellipse cx="602" cy="188" rx="10" ry="5" fill="#f3c46a"/>
<circle cx="760" cy="130" r="3" fill="#AFA9EC"/>
<path d="M0,176 C230,170 470,186 690,178 C900,171 1070,183 1200,177 V200 H0 Z" fill="#3C3489"/>
<path d="M0,193 C250,189 520,199 770,194 C990,190 1130,197 1200,194 V200 H0 Z" fill="#26215C"/>
</svg>
