<svg xmlns="http://www.w3.org/2000/svg" viewBox="0 0 1200 200" role="img" aria-label="Vier Frage-Sprechblasen ueber die Breite, eine golden"><rect width="1200" height="200" fill="#EEEDFE"/><circle cx="190" cy="60" r="24" fill="#f3c46a"/><path d="M0,132 C130,104 270,100 400,120 C470,131 560,128 680,128 L680,200 H0 Z" fill="#CECBF6"/><path d="M1200,132 C1070,104 930,100 800,120 C730,131 620,128 520,128 L520,200 H1200 Z" fill="#CECBF6"/><path d="M0,158 C300,144 600,166 900,156 C1050,151 1150,160 1200,156 L1200,200 H0 Z" fill="#7F77DD"/><path d="M150,50 q7,-7 14,0" stroke="#534AB7" stroke-width="2.6" fill="none"/><path d="M166,53 q7,-7 14,0" stroke="#534AB7" stroke-width="2.6" fill="none"/><rect x="225" y="90" width="110" height="60" rx="14" fill="#534AB7"/><path d="M272,150 L288,150 L278,166 Z" fill="#534AB7"/><path d="M272,104 a10,10 0 1 1 14,9 q-6,4 -6,10" fill="none" stroke="#EEEDFE" stroke-width="4" stroke-linecap="round"/><circle cx="280" cy="141" r="3" fill="#EEEDFE"/><rect x="440" y="84" width="120" height="66" rx="14" fill="#3C3489"/><path d="M492,150 L508,150 L498,166 Z" fill="#3C3489"/><path d="M492,98 a10,10 0 1 1 14,9 q-6,4 -6,10" fill="none" stroke="#EEEDFE" stroke-width="4" stroke-linecap="round"/><circle cx="500" cy="141" r="3" fill="#EEEDFE"/><rect x="660" y="84" width="120" height="66" rx="14" fill="#f3c46a"/><path d="M712,150 L728,150 L718,166 Z" fill="#f3c46a"/><path d="M712,98 a10,10 0 1 1 14,9 q-6,4 -6,10" fill="none" stroke="#26215C" stroke-width="4" stroke-linecap="round"/><circle cx="720" cy="141" r="3" fill="#26215C"/><rect x="885" y="90" width="110" height="60" rx="14" fill="#534AB7"/><path d="M932,150 L948,150 L938,166 Z" fill="#534AB7"/><path d="M932,104 a10,10 0 1 1 14,9 q-6,4 -6,10" fill="none" stroke="#EEEDFE" stroke-width="4" stroke-linecap="round"/><circle cx="940" cy="141" r="3" fill="#EEEDFE"/><path d="M0,180 C300,170 600,188 900,178 C1050,173 1150,182 1200,178 L1200,200 H0 Z" fill="#26215C"/></svg>