<svg xmlns="http://www.w3.org/2000/svg" viewBox="0 0 1200 200" role="img" aria-label="Eine Zielscheibe mit goldener Mitte — die richtige Antwort treffen"><rect width="1200" height="200" fill="#EEEDFE"/><circle cx="300" cy="56" r="3.5" fill="#EEEDFE" opacity="0.5"/><circle cx="360" cy="90" r="3" fill="#EEEDFE" opacity="0.5"/><circle cx="250" cy="96" r="2.5" fill="#EEEDFE" opacity="0.5"/><circle cx="620" cy="98" r="48" fill="#AFA9EC"/><circle cx="620" cy="98" r="34" fill="#7F77DD"/><circle cx="620" cy="98" r="20" fill="#534AB7"/><circle cx="620" cy="98" r="9" fill="#f3c46a"/><line x1="500" y1="150" x2="616" y2="102" stroke="#26215C" stroke-width="4" stroke-linecap="round"/><path d="M616,102 l-14,-2 6,12 Z" fill="#26215C"/><path d="M500,150 l10,-3 M500,150 l3,-10" stroke="#26215C" stroke-width="3" stroke-linecap="round"/><path d="M0,150 C200,134 420,166 640,150 C860,134 1040,166 1200,150 V200 H0 Z" fill="#3C3489"/><path d="M0,180 C240,166 480,192 720,178 C940,166 1090,188 1200,178 V200 H0 Z" fill="#26215C"/></svg>