<svg xmlns="http://www.w3.org/2000/svg" viewBox="0 0 1200 200" role="img" aria-label="Ein Pfad windet sich über die Hügel der neuen Sportart entgegen"><rect width="1200" height="200" fill="#EEEDFE"/><circle cx="950" cy="56" r="3.5" fill="#EEEDFE" opacity="0.5"/><circle cx="1000" cy="88" r="3" fill="#EEEDFE" opacity="0.5"/><circle cx="900" cy="96" r="2.5" fill="#EEEDFE" opacity="0.5"/><path d="M0,116 L200,72 L400,116 Z" fill="#CECBF6"/><path d="M320,120 L560,60 L800,120 Z" fill="#AFA9EC"/><path d="M600,120 L780,72 L980,120 Z" fill="#7F77DD"/><path d="M180,182 C360,152 320,134 520,128 C700,122 760,104 940,86" fill="none" stroke="#f3c46a" stroke-width="4" stroke-linecap="round" stroke-dasharray="2 12"/><path d="M0,138 C220,122 430,156 650,138 C880,122 1050,154 1200,138 V200 H0 Z" fill="#534AB7"/><path d="M0,150 C200,134 420,166 640,150 C860,134 1040,166 1200,150 V200 H0 Z" fill="#3C3489"/><path d="M0,180 C240,166 480,192 720,178 C940,166 1090,188 1200,178 V200 H0 Z" fill="#26215C"/></svg>