<svg xmlns="http://www.w3.org/2000/svg" viewBox="0 0 1200 200" role="img" aria-label="Eine Laterne wirft ihr goldenes Licht auf das offene Buch — Lesen am Abend">
<rect width="1200" height="200" fill="#EEEDFE"/>
<path d="M0,126 C220,112 460,134 700,122 C920,112 1080,130 1200,120 V200 H0 Z" fill="#AFA9EC"/>
<g>
<rect x="470" y="46" width="9" height="94" rx="3" fill="#26215C"/>
<path d="M474,46 C474,36 490,36 496,44" fill="none" stroke="#26215C" stroke-width="7" stroke-linecap="round"/>
<circle cx="502" cy="52" r="11" fill="#f3c46a"/>
<circle cx="502" cy="52" r="19" fill="none" stroke="#f3c46a" stroke-width="2" opacity="0.45"/>
<path d="M502,68 L560,128 L610,128 L516,60 Z" fill="#f3c46a" opacity="0.22"/>
</g>
<g>
<path d="M540,136 C568,124 606,120 628,126 L628,170 C606,163 568,166 540,177 Z" fill="#EEEDFE" stroke="#26215C" stroke-width="5" stroke-linejoin="round"/>
<path d="M716,136 C688,124 650,120 628,126 L628,170 C650,163 688,166 716,177 Z" fill="#EEEDFE" stroke="#26215C" stroke-width="5" stroke-linejoin="round"/>
<path d="M556,140 C576,133 600,131 614,134 M556,151 C576,144 600,142 614,145 M642,134 C656,131 680,133 700,140 M642,145 C656,142 680,144 700,151" fill="none" stroke="#7F77DD" stroke-width="3.5" stroke-linecap="round"/>
</g>
<path d="M810,60 q10,-8 20,0 M842,48 q10,-8 20,0" fill="none" stroke="#534AB7" stroke-width="3" stroke-linecap="round"/>
<path d="M0,158 C220,146 470,168 700,158 C920,148 1080,166 1200,157 V200 H0 Z" fill="#534AB7"/>
<path d="M0,174 C240,164 500,186 760,174 C980,164 1110,182 1200,172 V200 H0 Z" fill="#3C3489"/>
<path d="M0,190 C240,184 500,199 760,190 C980,184 1110,196 1200,189 V200 H0 Z" fill="#26215C"/>
</svg>
