<svg xmlns="http://www.w3.org/2000/svg" viewBox="0 0 1200 200" role="img" aria-label="Die vordere Welle steigt in der Mitte zu einem Hausdach auf — im Inneren leuchtet golden das Fenster und schuetzt die dunkleren Wellen dahinter">
<rect width="1200" height="200" fill="#EEEDFE"/>
<path d="M0,120 C240,112 480,126 720,116 C940,108 1080,120 1200,114 V200 H0 Z" fill="#AFA9EC"/>
<path d="M0,164 C120,158 250,150 360,150 L520,150 L600,66 L680,150 L840,150 C950,150 1080,158 1200,164 V200 H0 Z" fill="#3C3489"/>
<rect x="582" y="104" width="36" height="46" rx="2" fill="#f3c46a"/>
<line x1="600" y1="104" x2="600" y2="150" stroke="#3C3489" stroke-width="2"/><line x1="582" y1="126" x2="618" y2="126" stroke="#3C3489" stroke-width="2"/>
<path d="M300,54 q9,-7 18,0 M330,46 q9,-7 18,0" fill="none" stroke="#7F77DD" stroke-width="3" stroke-linecap="round"/>
<path d="M0,182 C240,170 500,194 760,182 C980,170 1100,192 1200,182 V200 H0 Z" fill="#26215C"/>
</svg>
