<svg xmlns="http://www.w3.org/2000/svg" viewBox="0 0 1200 200" role="img" aria-label="Aus einem offenen Buch führt ein Weg zu den Hügeln — die Geschichte betritt die Welt">
<rect width="1200" height="200" fill="#EEEDFE"/>
<path d="M1014,30 a24,24 0 1 0 0,40 a28,28 0 0 1 0,-40 Z" fill="#CECBF6"/>
<path d="M660,124 L800,60 L940,124 Z" fill="#CECBF6"/>
<circle cx="800" cy="44" r="13" fill="#f3c46a"/>
<path d="M0,140 C180,126 380,150 600,138 C820,126 1020,148 1200,137 V200 H0 Z" fill="#534AB7"/>
<path d="M512,118 C570,102 640,96 700,102 C740,106 770,112 806,120" fill="none" stroke="#3C3489" stroke-width="5" stroke-linecap="round" stroke-dasharray="1 16"/>
<g>
<path d="M360,122 C400,106 460,106 500,122 L500,170 C460,154 400,154 360,170 Z" fill="#EEEDFE"/>
<path d="M640,122 C600,106 540,106 500,122 L500,170 C540,154 600,154 640,170 Z" fill="#CECBF6"/>
<path d="M355,118 L360,122 L360,170 L500,170 L640,170 L640,122 L645,118 L645,174 L500,174 L355,174 Z" fill="#26215C"/>
<path d="M500,122 L500,170" stroke="#26215C" stroke-width="4"/>
</g>
<path d="M300,72 q10,-8 20,0 M332,60 q10,-8 20,0" fill="none" stroke="#534AB7" stroke-width="3" stroke-linecap="round"/>
<path d="M0,180 C210,172 440,188 660,180 C880,172 1050,186 1200,179 V200 H0 Z" fill="#3C3489"/>
<path d="M0,193 C260,188 540,198 800,194 C1000,190 1120,197 1200,193 V200 H0 Z" fill="#26215C"/>
</svg>
