<svg xmlns="http://www.w3.org/2000/svg" viewBox="0 0 1200 200" role="img" aria-label="Panorama der Sinne: eine dampfende Tasse und eine Schale auf der Tischwelle, darüber die goldene Sonne">
<rect width="1200" height="200" fill="#EEEDFE"/>
<circle cx="330" cy="54" r="30" fill="#f3c46a"/>
<circle cx="330" cy="54" r="42" fill="none" stroke="#f3c46a" stroke-width="2" opacity="0.4"/><path d="M440,120 L560,70 L680,120 Z" fill="#CECBF6"/><path d="M570,120 L720,52 L870,120 Z" fill="#7F77DD"/><path d="M760,86 C748,70 772,58 762,42 C756,32 770,22 786,26" fill="none" stroke="#AFA9EC" stroke-width="5" stroke-linecap="round"/><path d="M470,72 q10,-8 20,0 M500,60 q10,-8 20,0" fill="none" stroke="#534AB7" stroke-width="3" stroke-linecap="round"/><path d="M735,120 L735,96 Q735,90 741,90 L783,90 Q789,90 789,96 L789,120 Z" fill="#26215C"/><path d="M789,98 q16,0 16,10 t-16,10" fill="none" stroke="#26215C" stroke-width="5"/><path d="M600,120 Q600,108 640,108 Q680,108 680,120 Z" fill="#3C3489"/><path d="M912,120 Q912,110 946,110 Q980,110 980,120 Z" fill="#3C3489"/><path d="M0,128 C150,106 330,142 510,126 C710,108 910,144 1110,128 C1155,124 1185,128 1200,125 V200 H0 Z" fill="#534AB7"/>
<path d="M0,152 C190,134 400,166 620,152 C840,138 1020,168 1200,152 V200 H0 Z" fill="#3C3489"/>
<path d="M0,180 C240,166 500,192 760,178 C980,166 1110,188 1200,178 V200 H0 Z" fill="#26215C"/>
<circle cx="245" cy="150" r="3.5" fill="#EEEDFE" opacity="0.5"/><circle cx="1030" cy="150" r="3" fill="#EEEDFE" opacity="0.5"/>
</svg>
