<svg xmlns="http://www.w3.org/2000/svg" viewBox="0 0 1200 200" role="img" aria-label="Ein Buecherregal ueber die volle Breite, ein Buchruecken golden"><rect width="1200" height="200" fill="#EEEDFE"/><circle cx="190" cy="60" r="24" fill="#f3c46a"/><path d="M0,132 C130,104 270,100 400,120 C470,131 560,128 680,128 L680,200 H0 Z" fill="#CECBF6"/><path d="M1200,132 C1070,104 930,100 800,120 C730,131 620,128 520,128 L520,200 H1200 Z" fill="#CECBF6"/><path d="M0,158 C300,144 600,166 900,156 C1050,151 1150,160 1200,156 L1200,200 H0 Z" fill="#7F77DD"/><path d="M430,48 q7,-7 14,0" stroke="#534AB7" stroke-width="2.6" fill="none"/><path d="M446,51 q7,-7 14,0" stroke="#534AB7" stroke-width="2.6" fill="none"/><rect x="195" y="96" width="18" height="54" rx="2" fill="#534AB7"/><rect x="218" y="84" width="22" height="66" rx="2" fill="#3C3489"/><rect x="245" y="102" width="15" height="48" rx="2" fill="#26215C"/><rect x="265" y="90" width="20" height="60" rx="2" fill="#7F77DD"/><rect x="290" y="80" width="17" height="70" rx="2" fill="#3C3489"/><rect x="312" y="98" width="18" height="52" rx="2" fill="#534AB7"/><rect x="335" y="86" width="22" height="64" rx="2" fill="#f3c46a"/><rect x="362" y="92" width="15" height="58" rx="2" fill="#3C3489"/><rect x="382" y="78" width="20" height="72" rx="2" fill="#534AB7"/><rect x="407" y="100" width="17" height="50" rx="2" fill="#7F77DD"/><rect x="429" y="88" width="18" height="62" rx="2" fill="#26215C"/><rect x="452" y="94" width="22" height="56" rx="2" fill="#3C3489"/><rect x="479" y="96" width="15" height="54" rx="2" fill="#534AB7"/><rect x="499" y="84" width="20" height="66" rx="2" fill="#3C3489"/><rect x="524" y="102" width="17" height="48" rx="2" fill="#26215C"/><rect x="546" y="90" width="18" height="60" rx="2" fill="#7F77DD"/><rect x="569" y="80" width="22" height="70" rx="2" fill="#3C3489"/><rect x="596" y="98" width="15" height="52" rx="2" fill="#534AB7"/><rect x="616" y="86" width="20" height="64" rx="2" fill="#26215C"/><rect x="641" y="92" width="17" height="58" rx="2" fill="#3C3489"/><rect x="663" y="78" width="18" height="72" rx="2" fill="#534AB7"/><rect x="686" y="100" width="22" height="50" rx="2" fill="#7F77DD"/><rect x="713" y="88" width="15" height="62" rx="2" fill="#26215C"/><rect x="733" y="94" width="20" height="56" rx="2" fill="#3C3489"/><rect x="758" y="96" width="17" height="54" rx="2" fill="#534AB7"/><rect x="780" y="84" width="18" height="66" rx="2" fill="#3C3489"/><rect x="803" y="102" width="22" height="48" rx="2" fill="#26215C"/><rect x="830" y="90" width="15" height="60" rx="2" fill="#7F77DD"/><rect x="850" y="80" width="20" height="70" rx="2" fill="#3C3489"/><rect x="875" y="98" width="17" height="52" rx="2" fill="#534AB7"/><rect x="897" y="86" width="18" height="64" rx="2" fill="#26215C"/><rect x="920" y="92" width="22" height="58" rx="2" fill="#3C3489"/><rect x="947" y="78" width="15" height="72" rx="2" fill="#534AB7"/><rect x="967" y="100" width="20" height="50" rx="2" fill="#7F77DD"/><rect x="992" y="88" width="17" height="62" rx="2" fill="#26215C"/><path d="M0,180 C300,170 600,188 900,178 C1050,173 1150,182 1200,178 L1200,200 H0 Z" fill="#26215C"/></svg>