<svg xmlns="http://www.w3.org/2000/svg" viewBox="0 0 1200 200" role="img" aria-label="Eine goldene Lesebrille ruht auf dem aufgeschlagenen Buch">
<rect width="1200" height="200" fill="#EEEDFE"/>
<path d="M270,42 q10,-8 20,0 M304,31 q10,-8 20,0" fill="none" stroke="#534AB7" stroke-width="3" stroke-linecap="round"/>
<path d="M448,150 C516,130 578,126 600,133 C622,126 684,130 752,150 L752,170 C684,158 622,156 600,163 C578,156 516,158 448,170 Z" fill="#26215C"/>
<path d="M462,146 C522,130 580,127 600,134 C620,127 678,130 738,146 L738,152 C678,138 620,136 600,142 C580,136 522,138 462,152 Z" fill="#CECBF6"/>
<path d="M600,134 L600,163" stroke="#3C3489" stroke-width="5"/>
<g fill="none" stroke="#f3c46a" stroke-width="6" stroke-linecap="round">
<circle cx="572" cy="116" r="15"/>
<circle cx="618" cy="112" r="15"/>
<path d="M586,114 Q595,107 604,110"/>
<path d="M557,114 L542,106"/>
<path d="M633,110 L648,100"/>
</g>
<circle cx="880" cy="58" r="4" fill="#534AB7"/>
<circle cx="908" cy="44" r="3" fill="#534AB7"/>
<path d="M0,154 C190,144 400,162 610,152 C830,144 1040,164 1200,152 V200 H0 Z" fill="#7F77DD"/>
<path d="M0,173 C230,165 480,185 700,174 C920,165 1080,183 1200,173 V200 H0 Z" fill="#3C3489"/>
<path d="M0,191 C260,184 540,200 800,190 C1010,184 1140,195 1200,190 V200 H0 Z" fill="#26215C"/>
</svg>
