<svg xmlns="http://www.w3.org/2000/svg" viewBox="0 0 1200 200" role="img" aria-label="Leselampe wirft goldenes Licht auf ein offenes Buch, Buecherstapel"><rect width="1200" height="200" fill="#EEEDFE"/><circle cx="190" cy="60" r="24" fill="#f3c46a"/><path d="M0,132 C130,104 270,100 400,120 C470,131 560,128 680,128 L680,200 H0 Z" fill="#CECBF6"/><path d="M1200,132 C1070,104 930,100 800,120 C730,131 620,128 520,128 L520,200 H1200 Z" fill="#CECBF6"/><path d="M0,158 C300,144 600,166 900,156 C1050,151 1150,160 1200,156 L1200,200 H0 Z" fill="#7F77DD"/><path d="M150,50 q7,-7 14,0" stroke="#534AB7" stroke-width="2.6" fill="none"/><path d="M166,53 q7,-7 14,0" stroke="#534AB7" stroke-width="2.6" fill="none"/><rect x="245" y="138" width="70" height="11" rx="2" fill="#534AB7"/><rect x="249" y="126" width="62" height="11" rx="2" fill="#3C3489"/><rect x="241" y="114" width="78" height="11" rx="2" fill="#26215C"/><rect x="885" y="138" width="70" height="11" rx="2" fill="#3C3489"/><rect x="889" y="126" width="62" height="11" rx="2" fill="#534AB7"/><rect x="881" y="114" width="78" height="11" rx="2" fill="#26215C"/><rect x="887" y="102" width="66" height="11" rx="2" fill="#3C3489"/><path d="M540,150 Q600,138 600,138 L600,120 Q560,110 520,120 Z" fill="#3C3489"/><path d="M660,150 Q600,138 600,138 L600,120 Q640,110 680,120 Z" fill="#534AB7"/><path d="M600,138 L600,120" stroke="#26215C" stroke-width="2"/><path d="M470,150 L470,96 Q470,74 512,80" fill="none" stroke="#26215C" stroke-width="6"/><path d="M512,74 L544,74 L560,104 L516,104 Z" fill="#f3c46a"/><path d="M0,180 C300,170 600,188 900,178 C1050,173 1150,182 1200,178 L1200,200 H0 Z" fill="#26215C"/></svg>