<svg xmlns="http://www.w3.org/2000/svg" viewBox="0 0 1200 200" role="img" aria-label="Ein aufgeschlagenes Buch und ein Lese-Pfad führen zum goldenen Ziel"><rect width="1200" height="200" fill="#EEEDFE"/><circle cx="190" cy="60" r="24" fill="#f3c46a"/><path d="M0,132 C130,104 270,100 400,120 C470,131 560,128 680,128 L680,200 H0 Z" fill="#CECBF6"/><path d="M1200,132 C1070,104 930,100 800,120 C730,131 620,128 520,128 L520,200 H1200 Z" fill="#CECBF6"/><path d="M0,158 C300,144 600,166 900,156 C1050,151 1150,160 1200,156 L1200,200 H0 Z" fill="#7F77DD"/><path d="M225,150 L225,108 Q325,96 420,108 L420,150 Q325,140 225,150 Z" fill="#CECBF6"/><path d="M615,150 L615,108 Q520,96 420,108 L420,150 Q520,140 615,150 Z" fill="#AFA9EC"/><rect x="418" y="108" width="4" height="42" fill="#26215C"/><rect x="250" y="118" width="120" height="4" rx="2" fill="#534AB7" opacity="0.6"/><rect x="470" y="118" width="120" height="4" rx="2" fill="#534AB7" opacity="0.45"/><rect x="250" y="127" width="120" height="4" rx="2" fill="#534AB7" opacity="0.6"/><rect x="470" y="127" width="120" height="4" rx="2" fill="#534AB7" opacity="0.45"/><rect x="250" y="136" width="120" height="4" rx="2" fill="#534AB7" opacity="0.6"/><rect x="470" y="136" width="120" height="4" rx="2" fill="#534AB7" opacity="0.45"/><circle cx="630" cy="132" r="4" fill="#534AB7"/><circle cx="657" cy="122" r="4" fill="#534AB7"/><circle cx="685" cy="113" r="4" fill="#534AB7"/><circle cx="712" cy="105" r="4" fill="#534AB7"/><circle cx="739" cy="99" r="4" fill="#534AB7"/><circle cx="766" cy="96" r="4" fill="#534AB7"/><circle cx="794" cy="96" r="4" fill="#534AB7"/><circle cx="821" cy="99" r="4" fill="#534AB7"/><circle cx="848" cy="105" r="4" fill="#534AB7"/><circle cx="875" cy="113" r="4" fill="#534AB7"/><circle cx="903" cy="122" r="4" fill="#534AB7"/><circle cx="930" cy="132" r="4" fill="#534AB7"/><rect x="946" y="98" width="6" height="52" fill="#26215C"/><path d="M952,100 l40,10 l-40,10 Z" fill="#f3c46a"/><path d="M300,42 q7,-7 14,0" stroke="#534AB7" stroke-width="2.6" fill="none"/><path d="M316,45 q7,-7 14,0" stroke="#534AB7" stroke-width="2.6" fill="none"/><path d="M0,180 C300,170 600,188 900,178 C1050,173 1150,182 1200,178 L1200,200 H0 Z" fill="#26215C"/></svg>