<svg xmlns="http://www.w3.org/2000/svg" viewBox="0 0 1200 200" role="img" aria-label="Ein grosser Schluessel liegt auf der Welle — seine Zaehne bilden eine kleine Stadt-Skyline, der goldene Griff ist rund wie eine Sonne">
<rect width="1200" height="200" fill="#EEEDFE"/>
<path d="M0,120 C240,112 480,126 720,116 C940,108 1080,120 1200,114 V200 H0 Z" fill="#AFA9EC"/>
<circle cx="270" cy="96" r="40" fill="none" stroke="#f3c46a" stroke-width="16"/>
<rect x="308" y="88" width="470" height="16" rx="4" fill="#3C3489"/>
<rect x="720" y="104" width="26" height="40" fill="#3C3489"/><rect x="726" y="110" width="6" height="8" fill="#AFA9EC"/>
<rect x="760" y="104" width="26" height="64" fill="#26215C"/><rect x="766" y="110" width="6" height="8" fill="#AFA9EC"/>
<rect x="800" y="104" width="26" height="30" fill="#3C3489"/><rect x="806" y="110" width="6" height="8" fill="#AFA9EC"/>
<rect x="834" y="104" width="26" height="52" fill="#26215C"/><rect x="840" y="110" width="6" height="8" fill="#AFA9EC"/>
<rect x="872" y="104" width="26" height="38" fill="#3C3489"/><rect x="878" y="110" width="6" height="8" fill="#AFA9EC"/>
<path d="M430,56 q9,-7 18,0 M460,48 q9,-7 18,0" fill="none" stroke="#7F77DD" stroke-width="3" stroke-linecap="round"/>
<path d="M0,152 C200,136 460,168 700,152 C900,140 1050,166 1200,152 V200 H0 Z" fill="#3C3489"/>
<path d="M0,182 C240,170 500,194 760,182 C980,170 1100,192 1200,182 V200 H0 Z" fill="#26215C"/>
</svg>
