<svg xmlns="http://www.w3.org/2000/svg" viewBox="0 0 1200 200" role="img" aria-label="Aus dem aufgeschlagenen Buch fliegen Vögel auf — der vorderste leuchtet golden">
<rect width="1200" height="200" fill="#EEEDFE"/>
<path d="M0,128 C220,114 460,136 700,124 C920,114 1080,132 1200,122 V200 H0 Z" fill="#AFA9EC"/>
<g fill="none" stroke="#3C3489" stroke-width="4" stroke-linecap="round">
<path d="M636,96 q11,-9 22,0 M658,96 q11,-9 22,0" transform="rotate(-8 658 96)"/>
<path d="M700,70 q10,-8 20,0 M720,70 q10,-8 20,0" transform="rotate(-6 720 70)"/>
<path d="M760,50 q9,-7 18,0 M778,50 q9,-7 18,0"/>
</g>
<path d="M556,102 q13,-11 26,0 M582,102 q13,-11 26,0" fill="none" stroke="#f3c46a" stroke-width="6" stroke-linecap="round"/>
<g>
<path d="M480,142 C510,128 552,124 576,130 L576,178 C552,170 510,174 480,186 Z" fill="#EEEDFE" stroke="#26215C" stroke-width="5" stroke-linejoin="round"/>
<path d="M672,142 C642,128 600,124 576,130 L576,178 C600,170 642,174 672,186 Z" fill="#EEEDFE" stroke="#26215C" stroke-width="5" stroke-linejoin="round"/>
<path d="M498,146 C520,138 548,136 564,140 M498,158 C520,150 548,148 564,152 M588,140 C604,136 632,138 654,146 M588,152 C604,148 632,150 654,158" fill="none" stroke="#7F77DD" stroke-width="3.5" stroke-linecap="round"/>
</g>
<path d="M0,168 C240,156 500,180 760,168 C980,156 1110,176 1200,166 V200 H0 Z" fill="#3C3489"/>
<path d="M0,188 C240,180 500,198 760,188 C980,180 1110,194 1200,187 V200 H0 Z" fill="#26215C"/>
</svg>
