<svg xmlns="http://www.w3.org/2000/svg" viewBox="0 0 1200 200" role="img" aria-label="Eine Reihe Sprechblasen über der Welle — eine fehlt, die goldene schwebt heran, um die Lücke zu füllen">
<rect width="1200" height="200" fill="#EEEDFE"/>
<g fill="#AFA9EC">
<path d="M330,50 h70 a10,10 0 0 1 10,10 v28 a10,10 0 0 1 -10,10 h-40 l-14,14 v-14 h-16 a10,10 0 0 1 -10,-10 v-28 a10,10 0 0 1 10,-10 Z"/>
</g>
<g fill="#7F77DD">
<path d="M470,50 h70 a10,10 0 0 1 10,10 v28 a10,10 0 0 1 -10,10 h-40 l-14,14 v-14 h-16 a10,10 0 0 1 -10,-10 v-28 a10,10 0 0 1 10,-10 Z"/>
</g>
<g fill="#534AB7">
<path d="M750,50 h70 a10,10 0 0 1 10,10 v28 a10,10 0 0 1 -10,10 h-40 l-14,14 v-14 h-16 a10,10 0 0 1 -10,-10 v-28 a10,10 0 0 1 10,-10 Z"/>
</g>
<rect x="610" y="50" width="90" height="62" rx="12" fill="none" stroke="#CECBF6" stroke-width="3" stroke-dasharray="7 7"/>
<g fill="#f3c46a">
<path d="M628,20 h70 a10,10 0 0 1 10,10 v28 a10,10 0 0 1 -10,10 h-40 l-14,14 v-14 h-16 a10,10 0 0 1 -10,-10 v-28 a10,10 0 0 1 10,-10 Z"/>
</g>
<path d="M0,140 C190,124 400,154 620,142 C840,130 1020,158 1200,142 V200 H0 Z" fill="#534AB7"/>
<path d="M0,160 C200,146 460,178 720,162 C940,150 1090,176 1200,164 V200 H0 Z" fill="#3C3489"/>
<path d="M0,184 C240,172 500,196 760,184 C980,174 1110,190 1200,182 V200 H0 Z" fill="#26215C"/>
</svg>