<svg xmlns="http://www.w3.org/2000/svg" viewBox="0 0 1200 200" role="img" aria-label="Eine Reihe Uhren über der Welle zeigt die Zeit — eine fehlt, die goldene schwebt heran, um die Lücke zu füllen">
<rect width="1200" height="200" fill="#EEEDFE"/>
<g fill="none" stroke-linecap="round">
<circle cx="360" cy="80" r="26" fill="#CECBF6"/><g stroke="#26215C" stroke-width="3"><line x1="360" y1="80" x2="360" y2="64"/><line x1="360" y1="80" x2="372" y2="86"/></g>
<circle cx="470" cy="80" r="26" fill="#AFA9EC"/><g stroke="#26215C" stroke-width="3"><line x1="470" y1="80" x2="470" y2="66"/><line x1="470" y1="80" x2="482" y2="80"/></g>
<circle cx="740" cy="80" r="26" fill="#7F77DD"/><g stroke="#EEEDFE" stroke-width="3"><line x1="740" y1="80" x2="740" y2="64"/><line x1="740" y1="80" x2="728" y2="86"/></g>
</g>
<circle cx="600" cy="80" r="28" fill="none" stroke="#CECBF6" stroke-width="3" stroke-dasharray="7 7"/>
<circle cx="600" cy="46" r="24" fill="#f3c46a"/>
<g stroke="#26215C" stroke-width="3" stroke-linecap="round"><line x1="600" y1="46" x2="600" y2="32"/><line x1="600" y1="46" x2="611" y2="52"/></g>
<path d="M300,104 q10,-8 20,0 M332,94 q10,-8 20,0" fill="none" stroke="#534AB7" stroke-width="3" stroke-linecap="round"/>
<path d="M0,132 C190,116 400,146 620,134 C840,122 1020,150 1200,134 V200 H0 Z" fill="#534AB7"/>
<path d="M0,156 C200,142 460,174 720,158 C940,146 1090,172 1200,158 V200 H0 Z" fill="#3C3489"/>
<path d="M0,182 C240,170 500,196 760,184 C980,174 1110,190 1200,182 V200 H0 Z" fill="#26215C"/>
</svg>