<svg xmlns="http://www.w3.org/2000/svg" viewBox="0 0 1200 200" role="img" aria-label="Laternenreihe an der Promenade — die fehlende Laterne schwebt golden über ihrem Platz">
<rect width="1200" height="200" fill="#EEEDFE"/>
<path d="M950,110 q10,-8 20,0 M984,98 q10,-8 20,0" fill="none" stroke="#534AB7" stroke-width="3" stroke-linecap="round"/>
<path d="M0,138 C220,128 480,148 740,139 C960,131 1110,143 1200,137 V200 H0 Z" fill="#7F77DD"/>
<g fill="#26215C">
<g transform="translate(280,0)"><rect x="-4" y="64" width="8" height="74"/><path d="M-14,64 L-10,38 L10,38 L14,64 Z"/><rect x="-7" y="30" width="14" height="8" rx="3"/><rect x="-15" y="134" width="30" height="7" rx="3"/></g>
<g transform="translate(420,0)"><rect x="-4" y="64" width="8" height="74"/><path d="M-14,64 L-10,38 L10,38 L14,64 Z"/><rect x="-7" y="30" width="14" height="8" rx="3"/><rect x="-15" y="134" width="30" height="7" rx="3"/></g>
<g transform="translate(700,0)"><rect x="-4" y="64" width="8" height="74"/><path d="M-14,64 L-10,38 L10,38 L14,64 Z"/><rect x="-7" y="30" width="14" height="8" rx="3"/><rect x="-15" y="134" width="30" height="7" rx="3"/></g>
<g transform="translate(840,0)"><rect x="-4" y="64" width="8" height="74"/><path d="M-14,64 L-10,38 L10,38 L14,64 Z"/><rect x="-7" y="30" width="14" height="8" rx="3"/><rect x="-15" y="134" width="30" height="7" rx="3"/></g>
<rect x="545" y="134" width="30" height="7" rx="3"/>
</g>
<g fill="#f3c46a" transform="translate(560,0)">
<rect x="-4" y="52" width="8" height="26"/>
<path d="M-14,52 L-10,26 L10,26 L14,52 Z"/>
<rect x="-7" y="18" width="14" height="8" rx="3"/>
</g>
<path d="M560,90 v10 M560,112 v10" stroke="#f3c46a" stroke-width="3.5" stroke-linecap="round" opacity="0.75"/>
<path d="M0,162 C240,152 500,172 760,163 C980,156 1120,166 1200,161 V200 H0 Z" fill="#3C3489"/>
<path d="M0,186 C260,180 520,194 780,188 C1000,183 1120,192 1200,189 V200 H0 Z" fill="#26215C"/>
</svg>
