<svg xmlns="http://www.w3.org/2000/svg" viewBox="0 0 1200 200" role="img" aria-label="Eine Stuhlreihe auf der Welle — ein Stuhl ist frei">
<rect width="1200" height="200" fill="#EEEDFE"/>
<path d="M170,34 a24,24 0 1 0 0,40 a28,28 0 0 1 0,-40 Z" fill="#CECBF6"/>
<path d="M0,134 C180,120 380,144 600,132 C820,120 1020,144 1200,132 V200 H0 Z" fill="#534AB7"/>
<g fill="#26215C">
<path d="M370,133 L370,70 L378,70 L378,96 L416,96 L416,104 L420,104 L420,133 L412,133 L412,110 L378,110 L378,133 Z"/>
<path d="M490,131 L490,68 L498,68 L498,94 L536,94 L536,102 L540,102 L540,131 L532,131 L532,108 L498,108 L498,131 Z"/>
<path d="M730,131 L730,68 L738,68 L738,94 L776,94 L776,102 L780,102 L780,131 L772,131 L772,108 L738,108 L738,131 Z"/>
<path d="M850,133 L850,70 L858,70 L858,96 L896,96 L896,104 L900,104 L900,133 L892,133 L892,110 L858,110 L858,133 Z"/>
</g>
<path d="M610,132 L610,69 L618,69 L618,95 L656,95 L656,103 L660,103 L660,132 L652,132 L652,109 L618,109 L618,132 Z" fill="#f3c46a"/>
<path d="M300,58 q10,-8 20,0 M330,46 q10,-8 20,0" fill="none" stroke="#534AB7" stroke-width="3" stroke-linecap="round"/>
<path d="M0,158 C210,146 440,170 660,158 C880,146 1050,168 1200,157 V200 H0 Z" fill="#3C3489"/>
<path d="M0,184 C240,174 500,196 760,184 C980,174 1110,190 1200,183 V200 H0 Z" fill="#26215C"/>
</svg>
