<svg xmlns="http://www.w3.org/2000/svg" viewBox="0 0 1200 200" role="img" aria-label="Ein Fußballtor mit einer leeren Netzmasche — der Ball füllt die Lücke"><rect width="1200" height="200" fill="#EEEDFE"/><g stroke="#26215C" stroke-width="7" fill="none" stroke-linecap="round"><line x1="360" y1="52" x2="360" y2="150"/><line x1="840" y1="52" x2="840" y2="150"/><line x1="360" y1="52" x2="840" y2="52"/></g><g stroke="#7F77DD" stroke-width="1.6" opacity="0.85"><line x1="400" y1="56" x2="400" y2="148"/><line x1="440" y1="56" x2="440" y2="148"/><line x1="480" y1="56" x2="480" y2="148"/><line x1="520" y1="56" x2="520" y2="148"/><line x1="560" y1="56" x2="560" y2="148"/><line x1="600" y1="56" x2="600" y2="148"/><line x1="640" y1="56" x2="640" y2="148"/><line x1="680" y1="56" x2="680" y2="148"/><line x1="720" y1="56" x2="720" y2="148"/><line x1="760" y1="56" x2="760" y2="148"/><line x1="800" y1="56" x2="800" y2="148"/><line x1="364" y1="76" x2="836" y2="76" /><line x1="364" y1="98" x2="836" y2="98" /><line x1="364" y1="120" x2="836" y2="120" /><line x1="364" y1="142" x2="836" y2="142" /></g><rect x="600" y="76" width="40" height="22" fill="#EEEDFE"/><rect x="600" y="76" width="40" height="22" fill="none" stroke="#AFA9EC" stroke-width="2.5" stroke-dasharray="4 3"/><circle cx="480" cy="150" r="18" fill="#f3c46a"/><path d="M480,136 l7,8 -4,11 -6,0 -4,-11 Z" fill="#26215C" opacity="0.8"/><path d="M0,150 C200,140 420,168 640,152 C860,140 1040,166 1200,152 V200 H0 Z" fill="#3C3489"/><path d="M0,180 C240,168 480,192 720,180 C940,168 1090,188 1200,180 V200 H0 Z" fill="#26215C"/></svg>