<svg xmlns="http://www.w3.org/2000/svg" viewBox="0 0 1200 200" role="img" aria-label="Große Sprechblase mit Textzeilen — ein Baustein fehlt und schwebt davor">
<rect width="1200" height="200" fill="#EEEDFE"/>
<path d="M1010,34 a24,24 0 1 0 0,40 a28,28 0 0 1 0,-40 Z" fill="#CECBF6"/>
<path d="M440,28 h300 a22,22 0 0 1 22,22 v60 a22,22 0 0 1 -22,22 h-200 l-34,34 l0,-34 h-66 a22,22 0 0 1 -22,-22 v-60 a22,22 0 0 1 22,-22 Z" fill="#3C3489"/>
<g stroke="#EEEDFE" stroke-width="9" stroke-linecap="round">
<line x1="466" y1="58" x2="600" y2="58"/>
<line x1="624" y1="58" x2="716" y2="58"/>
<line x1="466" y1="84" x2="530" y2="84"/>
<line x1="614" y1="84" x2="716" y2="84"/>
<line x1="466" y1="110" x2="640" y2="110"/>
</g>
<rect x="548" y="76" width="52" height="16" rx="8" fill="#f3c46a"/>
<path d="M240,64 q10,-8 20,0 M272,52 q10,-8 20,0" fill="none" stroke="#534AB7" stroke-width="3" stroke-linecap="round"/>
<path d="M0,152 C180,140 380,160 600,150 C820,140 1020,158 1200,149 V200 H0 Z" fill="#534AB7"/>
<path d="M0,172 C210,164 440,182 660,172 C880,164 1050,178 1200,171 V200 H0 Z" fill="#3C3489"/>
<path d="M0,191 C240,186 500,198 760,192 C980,188 1120,196 1200,192 V200 H0 Z" fill="#26215C"/>
</svg>
