<svg xmlns="http://www.w3.org/2000/svg" viewBox="0 0 1200 200" role="img" aria-label="Eine Perlenkette mit einer Lücke — die goldene Perle füllt sie"><rect width="1200" height="200" fill="#EEEDFE"/><circle cx="190" cy="60" r="24" fill="#f3c46a"/><path d="M0,132 C130,104 270,100 400,120 C470,131 560,128 680,128 L680,200 H0 Z" fill="#CECBF6"/><path d="M1200,132 C1070,104 930,100 800,120 C730,131 620,128 520,128 L520,200 H1200 Z" fill="#CECBF6"/><path d="M0,158 C300,144 600,166 900,156 C1050,151 1150,160 1200,156 L1200,200 H0 Z" fill="#7F77DD"/><rect x="228" y="70" width="9" height="80" rx="3" fill="#26215C"/><rect x="963" y="70" width="9" height="80" rx="3" fill="#26215C"/><path d="M233,76 Q600,140 968,76" fill="none" stroke="#534AB7" stroke-width="4"/><circle cx="280" cy="91" r="13" fill="#3C3489"/><circle cx="348" cy="110" r="13" fill="#26215C"/><circle cx="416" cy="124" r="13" fill="#3C3489"/><circle cx="484" cy="134" r="13" fill="#26215C"/><circle cx="552" cy="139" r="13" fill="#3C3489"/><circle cx="620" cy="140" r="13" fill="none" stroke="#7F77DD" stroke-width="3" stroke-dasharray="4 4"/><circle cx="620" cy="132" r="13" fill="#f3c46a"/><circle cx="688" cy="136" r="13" fill="#3C3489"/><circle cx="756" cy="129" r="13" fill="#26215C"/><circle cx="824" cy="116" r="13" fill="#3C3489"/><circle cx="892" cy="100" r="13" fill="#26215C"/><path d="M300,42 q7,-7 14,0" stroke="#534AB7" stroke-width="2.6" fill="none"/><path d="M316,45 q7,-7 14,0" stroke="#534AB7" stroke-width="2.6" fill="none"/><path d="M0,180 C300,170 600,188 900,178 C1050,173 1150,182 1200,178 L1200,200 H0 Z" fill="#26215C"/></svg>