<svg xmlns="http://www.w3.org/2000/svg" viewBox="0 0 1200 200" role="img" aria-label="Ein Dialog mit einer Lücke — die goldene Sprechblase wartet auf die Antwort"><rect width="1200" height="200" fill="#EEEDFE"/><circle cx="190" cy="60" r="24" fill="#f3c46a"/><path d="M0,132 C130,104 270,100 400,120 C470,131 560,128 680,128 L680,200 H0 Z" fill="#CECBF6"/><path d="M1200,132 C1070,104 930,100 800,120 C730,131 620,128 520,128 L520,200 H1200 Z" fill="#CECBF6"/><path d="M0,158 C300,144 600,166 900,156 C1050,151 1150,160 1200,156 L1200,200 H0 Z" fill="#7F77DD"/><rect x="232" y="92" width="210" height="56" rx="10" fill="#26215C"/><path d="M246,148 l0,16 l16,-12 Z" fill="#26215C"/><rect x="246" y="106" width="182" height="6" rx="3" fill="#CECBF6" opacity="0.85"/><rect x="246" y="119" width="127" height="6" rx="3" fill="#CECBF6" opacity="0.85"/><rect x="246" y="132" width="164" height="6" rx="3" fill="#CECBF6" opacity="0.85"/><rect x="500" y="100" width="190" height="50" rx="10" fill="#f3c46a"/><path d="M676,150 l0,16 l-16,-12 Z" fill="#f3c46a"/><text x="595" y="132" font-family="Georgia,serif" font-size="30" fill="#26215C" text-anchor="middle">?</text><rect x="740" y="92" width="230" height="56" rx="10" fill="#3C3489"/><path d="M754,148 l0,16 l16,-12 Z" fill="#3C3489"/><rect x="754" y="106" width="202" height="6" rx="3" fill="#CECBF6" opacity="0.85"/><rect x="754" y="119" width="141" height="6" rx="3" fill="#CECBF6" opacity="0.85"/><rect x="754" y="132" width="182" height="6" rx="3" fill="#CECBF6" opacity="0.85"/><path d="M300,44 q7,-7 14,0" stroke="#534AB7" stroke-width="2.6" fill="none"/><path d="M316,47 q7,-7 14,0" stroke="#534AB7" stroke-width="2.6" fill="none"/><path d="M0,180 C300,170 600,188 900,178 C1050,173 1150,182 1200,178 L1200,200 H0 Z" fill="#26215C"/></svg>