<svg xmlns="http://www.w3.org/2000/svg" viewBox="0 0 1200 200" role="img" aria-label="Wortreihe mit Luecken und einem fehlenden Baustein"><rect width="1200" height="200" fill="#EEEDFE"/><circle cx="1030" cy="60" r="24" fill="#f3c46a"/><path d="M0,132 C130,104 270,100 400,120 C470,131 560,128 680,128 L680,200 H0 Z" fill="#CECBF6"/><path d="M1200,132 C1070,104 930,100 800,120 C730,131 620,128 520,128 L520,200 H1200 Z" fill="#CECBF6"/><path d="M0,158 C300,144 600,166 900,156 C1050,151 1150,160 1200,156 L1200,200 H0 Z" fill="#7F77DD"/><rect x="185.0" y="120.0" width="112.0" height="32.0" rx="5" fill="#534AB7"/><rect x="307.0" y="120.0" width="112.0" height="32.0" rx="5" fill="#3C3489"/><rect x="429" y="120" width="112" height="32" rx="5" fill="none" stroke="#7F77DD" stroke-width="3" stroke-dasharray="7 6"/><rect x="435.0" y="74.0" width="100.0" height="26.0" rx="5" fill="#f3c46a"/><rect x="551.0" y="120.0" width="112.0" height="32.0" rx="5" fill="#3C3489"/><rect x="673.0" y="120.0" width="112.0" height="32.0" rx="5" fill="#534AB7"/><rect x="795" y="120" width="112" height="32" rx="5" fill="none" stroke="#7F77DD" stroke-width="3" stroke-dasharray="7 6"/><rect x="917.0" y="120.0" width="112.0" height="32.0" rx="5" fill="#534AB7"/><path d="M0,180 C300,170 600,188 900,178 C1050,173 1150,182 1200,178 L1200,200 H0 Z" fill="#26215C"/></svg>