<svg xmlns="http://www.w3.org/2000/svg" viewBox="0 0 1200 200" role="img" aria-label="Ein runder Kuchen auf der Welle — ein Stück fehlt, das goldene Stück schwebt zum Füllen heran">
<rect width="1200" height="200" fill="#EEEDFE"/>
<path d="M200,120 L300,84 L400,120 Z" fill="#CECBF6"/><path d="M300,72 q10,-8 20,0 M330,60 q10,-8 20,0" fill="none" stroke="#534AB7" stroke-width="3" stroke-linecap="round"/><path d="M640,110 L640,65 A45,45 0 1 0 685,110 Z" fill="#534AB7"/><path d="M640,110 L640,65 A45,45 0 0 1 685,110 Z" fill="none" stroke="#3C3489" stroke-width="2"/><path d="M760,70 L806,60 L800,96 Z" fill="#f3c46a"/><line x1="716" y1="88" x2="752" y2="76" stroke="#26215C" stroke-width="2" stroke-dasharray="4 4"/><path d="M0,128 C150,106 330,142 510,126 C710,108 910,144 1110,128 C1155,124 1185,128 1200,125 V200 H0 Z" fill="#534AB7"/>
<path d="M0,152 C190,134 400,166 620,152 C840,138 1020,168 1200,152 V200 H0 Z" fill="#3C3489"/>
<path d="M0,180 C240,166 500,192 760,178 C980,166 1110,188 1200,178 V200 H0 Z" fill="#26215C"/>

</svg>
