<svg xmlns="http://www.w3.org/2000/svg" viewBox="0 0 1200 200" role="img" aria-label="Trittsteine führen durchs Wasser ans andere Ufer — der letzte Stein wird gerade gesetzt">
<rect width="1200" height="200" fill="#EEEDFE"/>
<path d="M1020,32 a24,24 0 1 0 0,40 a28,28 0 0 1 0,-40 Z" fill="#CECBF6"/>
<path d="M0,110 C120,88 240,88 340,108 L340,200 L0,200 Z" fill="#7F77DD"/>
<path d="M1200,110 C1080,88 960,88 860,108 L860,200 L1200,200 Z" fill="#7F77DD"/>
<path d="M0,150 C210,140 440,162 660,152 C880,142 1050,162 1200,151 V200 H0 Z" fill="#3C3489"/>
<g fill="#AFA9EC">
<ellipse cx="400" cy="158" rx="34" ry="12"/>
<ellipse cx="490" cy="164" rx="34" ry="12"/>
<ellipse cx="580" cy="166" rx="34" ry="12"/>
<ellipse cx="670" cy="160" rx="34" ry="12"/>
</g>
<ellipse cx="762" cy="132" rx="34" ry="12" fill="#f3c46a"/>
<path d="M420,120 q10,-8 20,0 M452,108 q10,-8 20,0" fill="none" stroke="#534AB7" stroke-width="3" stroke-linecap="round" transform="translate(60,-60)"/>
<path d="M0,186 C240,178 500,196 760,188 C980,182 1110,192 1200,187 V200 H0 Z" fill="#26215C"/>
</svg>
