<svg xmlns="http://www.w3.org/2000/svg" viewBox="0 0 1200 200" role="img" aria-label="Ein Lückentext über die ganze Breite — die goldene Lücke wartet auf das Wort"><rect width="1200" height="200" fill="#EEEDFE"/><circle cx="190" cy="60" r="24" fill="#f3c46a"/><path d="M0,132 C130,104 270,100 400,120 C470,131 560,128 680,128 L680,200 H0 Z" fill="#CECBF6"/><path d="M1200,132 C1070,104 930,100 800,120 C730,131 620,128 520,128 L520,200 H1200 Z" fill="#CECBF6"/><path d="M0,158 C300,144 600,166 900,156 C1050,151 1150,160 1200,156 L1200,200 H0 Z" fill="#7F77DD"/><rect x="232" y="86" width="748" height="66" rx="8" fill="#CECBF6"/><rect x="232" y="86" width="748" height="66" rx="8" fill="none" stroke="#7F77DD" stroke-width="2"/><rect x="256" y="98" width="70" height="7" rx="3.5" fill="#534AB7" opacity="0.7"/><rect x="342" y="98" width="52" height="7" rx="3.5" fill="#534AB7" opacity="0.7"/><rect x="410" y="98" width="90" height="7" rx="3.5" fill="#534AB7" opacity="0.7"/><rect x="516" y="98" width="44" height="7" rx="3.5" fill="#534AB7" opacity="0.7"/><rect x="576" y="98" width="66" height="7" rx="3.5" fill="#534AB7" opacity="0.7"/><rect x="658" y="98" width="70" height="7" rx="3.5" fill="#534AB7" opacity="0.7"/><rect x="744" y="98" width="52" height="7" rx="3.5" fill="#534AB7" opacity="0.7"/><rect x="812" y="98" width="90" height="7" rx="3.5" fill="#534AB7" opacity="0.7"/><rect x="918" y="98" width="38" height="7" rx="3.5" fill="#534AB7" opacity="0.7"/><rect x="256" y="112" width="44" height="7" rx="3.5" fill="#534AB7" opacity="0.7"/><rect x="316" y="112" width="66" height="7" rx="3.5" fill="#534AB7" opacity="0.7"/><rect x="398" y="112" width="70" height="7" rx="3.5" fill="#f3c46a" opacity="1"/><rect x="484" y="112" width="52" height="7" rx="3.5" fill="#534AB7" opacity="0.7"/><rect x="552" y="112" width="90" height="7" rx="3.5" fill="#534AB7" opacity="0.7"/><rect x="658" y="112" width="44" height="7" rx="3.5" fill="#534AB7" opacity="0.7"/><rect x="718" y="112" width="66" height="7" rx="3.5" fill="#534AB7" opacity="0.7"/><rect x="800" y="112" width="70" height="7" rx="3.5" fill="#534AB7" opacity="0.7"/><rect x="886" y="112" width="52" height="7" rx="3.5" fill="#534AB7" opacity="0.7"/><rect x="256" y="126" width="52" height="7" rx="3.5" fill="#534AB7" opacity="0.7"/><rect x="324" y="126" width="90" height="7" rx="3.5" fill="#534AB7" opacity="0.7"/><rect x="430" y="126" width="44" height="7" rx="3.5" fill="#534AB7" opacity="0.7"/><rect x="490" y="126" width="66" height="7" rx="3.5" fill="#534AB7" opacity="0.7"/><rect x="572" y="126" width="70" height="7" rx="3.5" fill="#534AB7" opacity="0.7"/><rect x="658" y="126" width="52" height="7" rx="3.5" fill="#534AB7" opacity="0.7"/><rect x="726" y="126" width="90" height="7" rx="3.5" fill="#534AB7" opacity="0.7"/><rect x="832" y="126" width="44" height="7" rx="3.5" fill="#534AB7" opacity="0.7"/><rect x="892" y="126" width="64" height="7" rx="3.5" fill="#534AB7" opacity="0.7"/><rect x="256" y="140" width="66" height="7" rx="3.5" fill="#534AB7" opacity="0.7"/><rect x="338" y="140" width="70" height="7" rx="3.5" fill="#534AB7" opacity="0.7"/><rect x="424" y="140" width="52" height="7" rx="3.5" fill="#534AB7" opacity="0.7"/><rect x="492" y="140" width="90" height="7" rx="3.5" fill="#534AB7" opacity="0.7"/><rect x="598" y="140" width="44" height="7" rx="3.5" fill="#534AB7" opacity="0.7"/><rect x="658" y="140" width="66" height="7" rx="3.5" fill="#534AB7" opacity="0.7"/><rect x="740" y="140" width="70" height="7" rx="3.5" fill="#534AB7" opacity="0.7"/><rect x="826" y="140" width="52" height="7" rx="3.5" fill="#534AB7" opacity="0.7"/><rect x="894" y="140" width="62" height="7" rx="3.5" fill="#534AB7" opacity="0.7"/><path d="M300,40 q7,-7 14,0" stroke="#534AB7" stroke-width="2.6" fill="none"/><path d="M316,43 q7,-7 14,0" stroke="#534AB7" stroke-width="2.6" fill="none"/><path d="M0,180 C300,170 600,188 900,178 C1050,173 1150,182 1200,178 L1200,200 H0 Z" fill="#26215C"/></svg>