<svg xmlns="http://www.w3.org/2000/svg" viewBox="0 0 1200 200" role="img" aria-label="Eine Wortmauer mit einer Lücke — der goldene Stein passt genau hinein"><rect width="1200" height="200" fill="#EEEDFE"/><circle cx="190" cy="60" r="24" fill="#f3c46a"/><path d="M0,132 C130,104 270,100 400,120 C470,131 560,128 680,128 L680,200 H0 Z" fill="#CECBF6"/><path d="M1200,132 C1070,104 930,100 800,120 C730,131 620,128 520,128 L520,200 H1200 Z" fill="#CECBF6"/><path d="M0,158 C300,144 600,166 900,156 C1050,151 1150,160 1200,156 L1200,200 H0 Z" fill="#7F77DD"/><rect x="224" y="128" width="68" height="20" rx="3" fill="#3C3489"/><rect x="298" y="128" width="68" height="20" rx="3" fill="#26215C"/><rect x="372" y="128" width="68" height="20" rx="3" fill="#534AB7"/><rect x="446" y="128" width="68" height="20" rx="3" fill="#3C3489"/><rect x="520" y="128" width="68" height="20" rx="3" fill="#26215C"/><rect x="594" y="128" width="68" height="20" rx="3" fill="#534AB7"/><rect x="668" y="128" width="68" height="20" rx="3" fill="#3C3489"/><rect x="742" y="128" width="68" height="20" rx="3" fill="#26215C"/><rect x="816" y="128" width="68" height="20" rx="3" fill="#534AB7"/><rect x="890" y="128" width="68" height="20" rx="3" fill="#3C3489"/><rect x="190" y="106" width="68" height="20" rx="3" fill="#26215C"/><rect x="264" y="106" width="68" height="20" rx="3" fill="#534AB7"/><rect x="338" y="106" width="68" height="20" rx="3" fill="#3C3489"/><rect x="412" y="106" width="68" height="20" rx="3" fill="#26215C"/><rect x="486" y="106" width="68" height="20" rx="3" fill="none" stroke="#7F77DD" stroke-width="2.5" stroke-dasharray="5 4"/><rect x="560" y="106" width="68" height="20" rx="3" fill="#3C3489"/><rect x="634" y="106" width="68" height="20" rx="3" fill="#26215C"/><rect x="708" y="106" width="68" height="20" rx="3" fill="#534AB7"/><rect x="782" y="106" width="68" height="20" rx="3" fill="#3C3489"/><rect x="856" y="106" width="68" height="20" rx="3" fill="#26215C"/><rect x="224" y="84" width="68" height="20" rx="3" fill="#534AB7"/><rect x="298" y="84" width="68" height="20" rx="3" fill="#3C3489"/><rect x="372" y="84" width="68" height="20" rx="3" fill="#26215C"/><rect x="446" y="84" width="68" height="20" rx="3" fill="#534AB7"/><rect x="520" y="84" width="68" height="20" rx="3" fill="#3C3489"/><rect x="594" y="84" width="68" height="20" rx="3" fill="#26215C"/><rect x="668" y="84" width="68" height="20" rx="3" fill="#534AB7"/><rect x="742" y="84" width="68" height="20" rx="3" fill="#3C3489"/><rect x="816" y="84" width="68" height="20" rx="3" fill="#26215C"/><rect x="890" y="84" width="68" height="20" rx="3" fill="#534AB7"/><rect x="486" y="80" width="68" height="20" rx="3" fill="#f3c46a"/><path d="M515,103 l5,7 l5,-7 Z" fill="#f3c46a"/><path d="M880,46 q7,-7 14,0" stroke="#534AB7" stroke-width="2.6" fill="none"/><path d="M896,49 q7,-7 14,0" stroke="#534AB7" stroke-width="2.6" fill="none"/><path d="M0,180 C300,170 600,188 900,178 C1050,173 1150,182 1200,178 L1200,200 H0 Z" fill="#26215C"/></svg>