<svg xmlns="http://www.w3.org/2000/svg" viewBox="0 0 1200 200" role="img" aria-label="Eine Waage, deren Balken die Welle selbst ist — das groessere Haus senkt seine Seite, das kleinere hebt sich, golden der Drehpunkt">
<rect width="1200" height="200" fill="#EEEDFE"/>
<path d="M0,116 C240,108 480,122 720,112 C940,104 1080,116 1200,110 V200 H0 Z" fill="#AFA9EC"/>
<path d="M590,150 L610,150 L600,96 Z" fill="#26215C"/><circle cx="600" cy="92" r="9" fill="#f3c46a"/>
<path d="M300,70 C430,80 560,90 600,92 C660,95 780,108 900,120" fill="none" stroke="#3C3489" stroke-width="8" stroke-linecap="round"/>
<g fill="#534AB7"><rect x="300" y="44" width="52" height="30"/><path d="M294,44 L326,24 L358,44 Z"/></g>
<g fill="#3C3489"><rect x="852" y="86" width="78" height="46"/><path d="M844,86 L891,54 L938,86 Z"/></g>
<path d="M470,48 q9,-7 18,0 M500,40 q9,-7 18,0" fill="none" stroke="#7F77DD" stroke-width="3" stroke-linecap="round"/>
<path d="M0,152 C200,136 460,168 700,152 C900,140 1050,166 1200,152 V200 H0 Z" fill="#3C3489"/>
<path d="M0,182 C240,170 500,194 760,182 C980,170 1100,192 1200,182 V200 H0 Z" fill="#26215C"/>
</svg>
