<svg xmlns="http://www.w3.org/2000/svg" viewBox="0 0 1200 200" role="img" aria-label="Wimpelkette über den Wellen — ein Wimpel fehlt und segelt herab">
<rect width="1200" height="200" fill="#EEEDFE"/>
<path d="M170,36 a24,24 0 1 0 0,40 a28,28 0 0 1 0,-40 Z" fill="#CECBF6"/>
<path d="M260,64 C400,24 800,24 940,64" fill="none" stroke="#26215C" stroke-width="5" stroke-linecap="round"/>
<g fill="#3C3489">
<path d="M330,52 L366,46 L354,90 Z"/>
<path d="M410,42 L448,38 L434,82 Z"/>
<path d="M494,36 L532,34 L516,78 Z"/>
<path d="M668,34 L706,36 L684,78 Z"/>
<path d="M752,38 L790,42 L766,84 Z"/>
<path d="M832,46 L868,52 L844,92 Z"/>
</g>
<path d="M588,96 L626,90 L612,134 Z" fill="#f3c46a" transform="rotate(-18 606 112)"/>
<path d="M860,110 q10,-8 20,0 M892,98 q10,-8 20,0" fill="none" stroke="#534AB7" stroke-width="3" stroke-linecap="round"/>
<path d="M0,152 C180,140 380,160 600,150 C820,140 1020,158 1200,149 V200 H0 Z" fill="#534AB7"/>
<path d="M0,172 C210,164 440,182 660,172 C880,164 1050,178 1200,171 V200 H0 Z" fill="#3C3489"/>
<path d="M0,191 C240,186 500,198 760,192 C980,188 1120,196 1200,192 V200 H0 Z" fill="#26215C"/>
</svg>
