<svg xmlns="http://www.w3.org/2000/svg" viewBox="0 0 1200 200" role="img" aria-label="Perlenkette der Zeit über den Wellen — eine Perle fehlt">
<rect width="1200" height="200" fill="#EEEDFE"/>
<path d="M1010,32 a24,24 0 1 0 0,40 a28,28 0 0 1 0,-40 Z" fill="#CECBF6"/>
<path d="M240,110 C360,60 520,44 660,52 C800,60 920,84 1010,116" fill="none" stroke="#534AB7" stroke-width="5" stroke-linecap="round"/>
<g fill="#26215C">
<circle cx="300" cy="88" r="17"/>
<circle cx="392" cy="66" r="17"/>
<circle cx="490" cy="52" r="17"/>
<circle cx="700" cy="54" r="17"/>
<circle cx="806" cy="68" r="17"/>
<circle cx="906" cy="92" r="17"/>
</g>
<circle cx="596" cy="128" r="17" fill="#f3c46a"/>
<path d="M180,70 q10,-8 20,0 M212,58 q10,-8 20,0" fill="none" stroke="#534AB7" stroke-width="3" stroke-linecap="round"/>
<path d="M0,152 C180,140 380,160 600,150 C820,140 1020,158 1200,149 V200 H0 Z" fill="#534AB7"/>
<path d="M0,170 C210,162 440,180 660,171 C880,162 1050,178 1200,170 V200 H0 Z" fill="#3C3489"/>
<path d="M0,190 C240,184 500,198 760,192 C980,186 1120,195 1200,191 V200 H0 Z" fill="#26215C"/>
</svg>
