<svg xmlns="http://www.w3.org/2000/svg" viewBox="0 0 1200 200" role="img" aria-label="Ein Siegertreppchen — die oberste Stufe ist noch leer und wartet"><rect width="1200" height="200" fill="#EEEDFE"/><circle cx="300" cy="58" r="3.5" fill="#EEEDFE" opacity="0.5"/><circle cx="360" cy="92" r="3" fill="#EEEDFE" opacity="0.5"/><circle cx="250" cy="96" r="2.5" fill="#EEEDFE" opacity="0.5"/><circle cx="910" cy="64" r="3" fill="#EEEDFE" opacity="0.5"/><circle cx="950" cy="96" r="2.5" fill="#EEEDFE" opacity="0.5"/><rect x="470" y="104" width="90" height="56" fill="#534AB7"/><rect x="640" y="128" width="90" height="32" fill="#3C3489"/><rect x="560" y="76" width="80" height="84" fill="#EEEDFE"/><rect x="560" y="76" width="80" height="84" fill="none" stroke="#f3c46a" stroke-width="3"/><path d="M0,150 C200,134 420,166 640,150 C860,134 1040,166 1200,150 V200 H0 Z" fill="#3C3489"/><path d="M0,180 C240,166 480,192 720,178 C940,166 1090,188 1200,178 V200 H0 Z" fill="#26215C"/></svg>