<svg xmlns="http://www.w3.org/2000/svg" viewBox="0 0 1200 200" role="img" aria-label="Eine Anzeigetafel — eine Ziffer fehlt noch in der Lücke"><rect width="1200" height="200" fill="#EEEDFE"/><circle cx="300" cy="56" r="3.5" fill="#EEEDFE" opacity="0.5"/><circle cx="360" cy="90" r="3" fill="#EEEDFE" opacity="0.5"/><circle cx="250" cy="96" r="2.5" fill="#EEEDFE" opacity="0.5"/><circle cx="910" cy="64" r="3" fill="#EEEDFE" opacity="0.5"/><rect x="470" y="58" width="260" height="72" rx="8" fill="#3C3489"/><rect x="490" y="74" width="52" height="42" rx="4" fill="#7F77DD"/><rect x="556" y="74" width="52" height="42" rx="4" fill="#7F77DD"/><rect x="622" y="74" width="52" height="42" rx="4" fill="#EEEDFE"/><rect x="622" y="74" width="52" height="42" rx="4" fill="none" stroke="#f3c46a" stroke-width="3"/><path d="M508,82 h18 v26 M516,82 v26" stroke="#EEEDFE" stroke-width="3" fill="none"/><path d="M574,82 h18 v26 M582,82 v26" stroke="#EEEDFE" stroke-width="3" fill="none"/><path d="M0,150 C200,134 420,166 640,150 C860,134 1040,166 1200,150 V200 H0 Z" fill="#3C3489"/><path d="M0,180 C240,166 480,192 720,178 C940,166 1090,188 1200,178 V200 H0 Z" fill="#26215C"/></svg>