<svg xmlns="http://www.w3.org/2000/svg" viewBox="0 0 1200 200" role="img" aria-label="Gestapelte Umzugskartons bilden die Skyline — an einer Stelle fehlt ein Karton, der goldene schwebt schon heran, um die Luecke zu fuellen">
<rect width="1200" height="200" fill="#EEEDFE"/>
<path d="M0,120 C220,104 440,128 680,116 C900,106 1050,124 1200,116 V200 H0 Z" fill="#AFA9EC"/>
<g transform="rotate(-8 470 60)"><rect x="430" y="34" width="82" height="60" rx="4" fill="#f3c46a"/><line x1="471" y1="34" x2="471" y2="94" stroke="#EEEDFE" stroke-width="2" opacity="0.5"/><path d="M430,50 h82" stroke="#EEEDFE" stroke-width="2" opacity="0.5"/></g>
<rect x="200" y="94" width="92" height="58" rx="3" fill="#534AB7"/><line x1="246" y1="94" x2="246" y2="152" stroke="#EEEDFE" stroke-width="1.5" opacity="0.35"/><path d="M200,108 h92" stroke="#EEEDFE" stroke-width="1.5" opacity="0.35"/>
<rect x="298" y="70" width="92" height="82" rx="3" fill="#3C3489"/><line x1="344" y1="70" x2="344" y2="152" stroke="#EEEDFE" stroke-width="1.5" opacity="0.35"/><path d="M298,84 h92" stroke="#EEEDFE" stroke-width="1.5" opacity="0.35"/>
<rect x="494" y="102" width="92" height="50" rx="3" fill="#534AB7"/><line x1="540" y1="102" x2="540" y2="152" stroke="#EEEDFE" stroke-width="1.5" opacity="0.35"/><path d="M494,116 h92" stroke="#EEEDFE" stroke-width="1.5" opacity="0.35"/>
<rect x="592" y="66" width="92" height="86" rx="3" fill="#3C3489"/><line x1="638" y1="66" x2="638" y2="152" stroke="#EEEDFE" stroke-width="1.5" opacity="0.35"/><path d="M592,80 h92" stroke="#EEEDFE" stroke-width="1.5" opacity="0.35"/>
<rect x="690" y="92" width="92" height="60" rx="3" fill="#534AB7"/><line x1="736" y1="92" x2="736" y2="152" stroke="#EEEDFE" stroke-width="1.5" opacity="0.35"/><path d="M690,106 h92" stroke="#EEEDFE" stroke-width="1.5" opacity="0.35"/>
<rect x="788" y="74" width="92" height="78" rx="3" fill="#3C3489"/><line x1="834" y1="74" x2="834" y2="152" stroke="#EEEDFE" stroke-width="1.5" opacity="0.35"/><path d="M788,88 h92" stroke="#EEEDFE" stroke-width="1.5" opacity="0.35"/>
<rect x="886" y="98" width="92" height="54" rx="3" fill="#534AB7"/><line x1="932" y1="98" x2="932" y2="152" stroke="#EEEDFE" stroke-width="1.5" opacity="0.35"/><path d="M886,112 h92" stroke="#EEEDFE" stroke-width="1.5" opacity="0.35"/>
<rect x="396" y="80" width="86" height="72" rx="3" fill="none" stroke="#534AB7" stroke-width="2.5" stroke-dasharray="7 6"/>
<path d="M1000,60 q9,-7 18,0 M1030,52 q9,-7 18,0" fill="none" stroke="#7F77DD" stroke-width="3" stroke-linecap="round"/>
<path d="M0,152 C200,136 460,168 700,152 C900,140 1050,166 1200,152 V200 H0 Z" fill="#3C3489"/>
<path d="M0,182 C240,170 500,194 760,182 C980,170 1100,192 1200,182 V200 H0 Z" fill="#26215C"/>
</svg>
