<svg xmlns="http://www.w3.org/2000/svg" viewBox="0 0 1200 200" role="img" aria-label="Ein Wohnzimmer als Silhouette — Sofa, Pflanze und die goldene Stehlampe, an der Wand haengt ein leerer Bilderrahmen als offene Luecke">
<rect width="1200" height="200" fill="#EEEDFE"/>
<path d="M0,124 C240,116 480,128 720,120 C940,114 1080,124 1200,118 V200 H0 Z" fill="#AFA9EC"/>
<rect x="470" y="34" width="72" height="52" rx="2" fill="none" stroke="#534AB7" stroke-width="3" stroke-dasharray="7 6"/>
<line x1="770" y1="150" x2="770" y2="70" stroke="#26215C" stroke-width="3"/><path d="M748,70 L792,70 L782,44 L758,44 Z" fill="#f3c46a"/><rect x="756" y="150" width="28" height="6" rx="2" fill="#26215C"/>
<g fill="#3C3489"><rect x="360" y="118" width="150" height="32" rx="6"/><rect x="352" y="100" width="26" height="50" rx="6"/><rect x="492" y="100" width="26" height="50" rx="6"/><rect x="382" y="108" width="108" height="16" rx="5" fill="#534AB7"/></g>
<path d="M876,150 L882,120 L870,120 Z" fill="#26215C"/><path d="M876,128 q-20,-12 -28,-32 q24,4 28,28 q4,-24 28,-28 q-8,20 -28,32 Z" fill="#534AB7"/>
<path d="M280,52 q9,-7 18,0 M310,44 q9,-7 18,0" fill="none" stroke="#7F77DD" stroke-width="3" stroke-linecap="round"/>
<path d="M0,152 C200,136 460,168 700,152 C900,140 1050,166 1200,152 V200 H0 Z" fill="#3C3489"/>
<path d="M0,182 C240,170 500,194 760,182 C980,170 1100,192 1200,182 V200 H0 Z" fill="#26215C"/>
</svg>
