<svg xmlns="http://www.w3.org/2000/svg" viewBox="0 0 1200 200" role="img" aria-label="Ein Gleis schwingt über die Wellen — die fehlende goldene Schwelle schwebt über ihrer Lücke">
<rect width="1200" height="200" fill="#EEEDFE"/>
<path d="M270,42 q10,-8 20,0 M304,30 q10,-8 20,0" fill="none" stroke="#534AB7" stroke-width="3" stroke-linecap="round"/>
<path d="M160,118 C360,94 620,90 840,102 C960,109 1050,116 1080,122" fill="none" stroke="#26215C" stroke-width="6" stroke-linecap="round"/>
<path d="M170,144 C370,120 620,116 838,128 C958,135 1040,141 1066,146" fill="none" stroke="#26215C" stroke-width="6" stroke-linecap="round"/>
<g fill="#3C3489">
<rect x="224" y="114" width="14" height="36" rx="3" transform="rotate(-6 231 132)"/>
<rect x="322" y="105" width="14" height="36" rx="3" transform="rotate(-4 329 123)"/>
<rect x="420" y="99" width="14" height="36" rx="3" transform="rotate(-2 427 117)"/>
<rect x="518" y="96" width="14" height="36" rx="3"/>
<rect x="712" y="98" width="14" height="36" rx="3" transform="rotate(2 719 116)"/>
<rect x="810" y="103" width="14" height="36" rx="3" transform="rotate(4 817 121)"/>
<rect x="906" y="111" width="14" height="36" rx="3" transform="rotate(6 913 129)"/>
</g>
<rect x="608" y="52" width="15" height="36" rx="3" fill="#f3c46a"/>
<path d="M615,94 v10 M615,112 v8" stroke="#f3c46a" stroke-width="3" stroke-linecap="round" opacity="0.75"/>
<path d="M0,158 C230,148 490,168 750,159 C970,151 1110,163 1200,157 V200 H0 Z" fill="#534AB7"/>
<path d="M0,176 C250,168 520,188 780,179 C1000,172 1120,184 1200,179 V200 H0 Z" fill="#3C3489"/>
<path d="M0,192 C280,187 560,198 820,194 C1020,191 1130,196 1200,194 V200 H0 Z" fill="#26215C"/>
</svg>
