<svg xmlns="http://www.w3.org/2000/svg" viewBox="0 0 1200 200" role="img" aria-label="Bogenbrücke zwischen zwei Ufern — der goldene Schlussstein schwebt über der Lücke">
<rect width="1200" height="200" fill="#EEEDFE"/>
<path d="M1042,30 a24,24 0 1 0 0,40 a28,28 0 0 1 0,-40 Z" fill="#CECBF6"/>
<path d="M0,116 C130,92 250,92 352,114 L352,200 L0,200 Z" fill="#7F77DD"/>
<path d="M1200,116 C1070,92 950,92 848,114 L848,200 L1200,200 Z" fill="#7F77DD"/>
<path d="M372,146 A275,275 0 0 1 586,25 L589,82 A218,218 0 0 0 419,178 Z" fill="#26215C"/>
<path d="M614,25 A275,275 0 0 1 828,146 L781,178 A218,218 0 0 0 611,82 Z" fill="#26215C"/>
<path d="M585,13 L615,13 L610,66 L590,66 Z" fill="#f3c46a"/>
<path d="M170,60 q10,-8 20,0 M202,48 q10,-8 20,0" fill="none" stroke="#534AB7" stroke-width="3" stroke-linecap="round"/>
<path d="M0,162 C210,150 440,172 660,162 C880,152 1050,172 1200,161 V200 H0 Z" fill="#3C3489"/>
<path d="M0,187 C240,179 500,197 760,189 C980,182 1110,193 1200,188 V200 H0 Z" fill="#26215C"/>
</svg>