<svg xmlns="http://www.w3.org/2000/svg" viewBox="0 0 1200 200" role="img" aria-label="Tastenreihe auf der Welle — eine Taste fehlt und schwebt darüber">
<rect width="1200" height="200" fill="#EEEDFE"/>
<path d="M180,36 a24,24 0 1 0 0,40 a28,28 0 0 1 0,-40 Z" fill="#CECBF6"/>
<path d="M0,126 C170,112 360,136 560,124 C760,112 960,134 1200,122 V200 H0 Z" fill="#7F77DD"/>
<path d="M0,156 C160,146 330,164 500,156 C700,147 900,162 1200,152 V200 H0 Z" fill="#3C3489"/>
<g fill="#26215C">
<rect x="352" y="118" width="52" height="30" rx="5"/>
<rect x="418" y="115" width="52" height="30" rx="5"/>
<rect x="484" y="113" width="52" height="30" rx="5"/>
<rect x="616" y="113" width="52" height="30" rx="5"/>
<rect x="682" y="115" width="52" height="30" rx="5"/>
<rect x="748" y="118" width="52" height="30" rx="5"/>
</g>
<rect x="550" y="64" width="52" height="30" rx="5" fill="#f3c46a"/>
<path d="M860,50 q10,-8 20,0 M892,38 q10,-8 20,0" fill="none" stroke="#534AB7" stroke-width="3" stroke-linecap="round"/>
<path d="M0,186 C240,178 500,196 760,188 C980,181 1110,192 1200,187 V200 H0 Z" fill="#26215C"/>
</svg>
