<svg xmlns="http://www.w3.org/2000/svg" viewBox="0 0 1200 200" role="img" aria-label="Vom Telefonhörer steigt eine Punktlinie zur goldenen Sprechblase — ein Punkt fehlt">
<rect width="1200" height="200" fill="#EEEDFE"/>
<path d="M180,34 a24,24 0 1 0 0,40 a28,28 0 0 1 0,-40 Z" fill="#CECBF6"/>
<g transform="translate(420,96)">
<path d="M-52,58 L-64,20 C-66,4 -54,-6 -40,-6 L40,-6 C54,-6 66,4 64,20 L52,58 Z" fill="#26215C"/>
<circle cx="0" cy="26" r="22" fill="#AFA9EC"/>
<circle cx="0" cy="26" r="10" fill="#26215C"/>
<path d="M-58,-22 A58,44 0 0 1 58,-22" fill="none" stroke="#26215C" stroke-width="15"/>
<rect x="-74" y="-40" width="30" height="38" rx="11" fill="#26215C" transform="rotate(20 -59 -21)"/>
<rect x="44" y="-40" width="30" height="38" rx="11" fill="#26215C" transform="rotate(-20 59 -21)"/>
</g>
<g fill="#3C3489">
<circle cx="520" cy="88" r="8"/>
<circle cx="558" cy="66" r="8"/>
<circle cx="648" cy="38" r="8"/>
</g>
<path d="M700,10 h130 a16,16 0 0 1 16,16 v26 a16,16 0 0 1 -16,16 h-84 l-20,20 l0,-20 h-26 a16,16 0 0 1 -16,-16 v-26 a16,16 0 0 1 16,-16 Z" fill="#f3c46a"/>
<path d="M250,54 q10,-8 20,0 M282,42 q10,-8 20,0" fill="none" stroke="#534AB7" stroke-width="3" stroke-linecap="round"/>
<path d="M0,150 C180,138 380,158 600,148 C820,138 1020,156 1200,147 V200 H0 Z" fill="#534AB7"/>
<path d="M0,170 C210,162 440,180 660,170 C880,162 1050,178 1200,169 V200 H0 Z" fill="#3C3489"/>
<path d="M0,190 C240,184 500,197 760,191 C980,186 1120,195 1200,191 V200 H0 Z" fill="#26215C"/>
</svg>
