<svg xmlns="http://www.w3.org/2000/svg" viewBox="0 0 1200 200" role="img" aria-label="Die vordere Welle steigt zu einer einzigen hoechsten Spitze auf — ein schlanker Turm mit goldener Fahne ueberragt alle niedrigeren Kaemme">
<rect width="1200" height="200" fill="#EEEDFE"/>
<path d="M0,120 C240,112 480,126 720,116 C940,108 1080,120 1200,114 V200 H0 Z" fill="#AFA9EC"/>
<path d="M0,150 C120,140 220,150 320,140 C400,132 470,150 545,138 L565,138 L600,44 L635,138 L655,138 C740,150 900,150 1000,140 C1100,133 1160,148 1200,146 V200 H0 Z" fill="#3C3489"/>
<g fill="#AFA9EC"><rect x="596" y="72" width="8" height="8"/><rect x="596" y="90" width="8" height="8"/><rect x="596" y="108" width="8" height="8"/><rect x="596" y="126" width="8" height="8"/></g>
<line x1="600" y1="30" x2="600" y2="60" stroke="#26215C" stroke-width="3"/><path d="M600,32 L626,40 L600,50 Z" fill="#f3c46a"/>
<path d="M300,52 q9,-7 18,0 M330,44 q9,-7 18,0" fill="none" stroke="#7F77DD" stroke-width="3" stroke-linecap="round"/>
<path d="M880,60 q9,-7 18,0 M910,52 q9,-7 18,0" fill="none" stroke="#7F77DD" stroke-width="3" stroke-linecap="round"/>
<path d="M0,182 C240,170 500,194 760,182 C980,170 1100,192 1200,182 V200 H0 Z" fill="#26215C"/>
</svg>
