<svg xmlns="http://www.w3.org/2000/svg" viewBox="0 0 1200 200" role="img" aria-label="Stuhlreihe mit einem hervorgehobenen Platz"><rect width="1200" height="200" fill="#EEEDFE"/><circle cx="190" cy="60" r="24" fill="#f3c46a"/><path d="M0,132 C130,104 270,100 400,120 C470,131 560,128 680,128 L680,200 H0 Z" fill="#CECBF6"/><path d="M1200,132 C1070,104 930,100 800,120 C730,131 620,128 520,128 L520,200 H1200 Z" fill="#CECBF6"/><path d="M0,158 C300,144 600,166 900,156 C1050,151 1150,160 1200,156 L1200,200 H0 Z" fill="#7F77DD"/><rect x="190.0" y="128.0" width="66.0" height="12.0" rx="3" fill="#3C3489"/><rect x="244.0" y="88.0" width="12.0" height="52.0" rx="3" fill="#3C3489"/><rect x="194.0" y="140.0" width="10.0" height="12.0" rx="0" fill="#3C3489"/><rect x="242.0" y="140.0" width="10.0" height="12.0" rx="0" fill="#3C3489"/><rect x="318.0" y="128.0" width="66.0" height="12.0" rx="3" fill="#26215C"/><rect x="372.0" y="88.0" width="12.0" height="52.0" rx="3" fill="#26215C"/><rect x="322.0" y="140.0" width="10.0" height="12.0" rx="0" fill="#26215C"/><rect x="370.0" y="140.0" width="10.0" height="12.0" rx="0" fill="#26215C"/><rect x="446.0" y="128.0" width="66.0" height="12.0" rx="3" fill="#3C3489"/><rect x="500.0" y="88.0" width="12.0" height="52.0" rx="3" fill="#3C3489"/><rect x="450.0" y="140.0" width="10.0" height="12.0" rx="0" fill="#3C3489"/><rect x="498.0" y="140.0" width="10.0" height="12.0" rx="0" fill="#3C3489"/><rect x="574.0" y="128.0" width="66.0" height="12.0" rx="3" fill="#f3c46a"/><rect x="628.0" y="88.0" width="12.0" height="52.0" rx="3" fill="#f3c46a"/><rect x="578.0" y="140.0" width="10.0" height="12.0" rx="0" fill="#f3c46a"/><rect x="626.0" y="140.0" width="10.0" height="12.0" rx="0" fill="#f3c46a"/><rect x="702.0" y="128.0" width="66.0" height="12.0" rx="3" fill="#3C3489"/><rect x="756.0" y="88.0" width="12.0" height="52.0" rx="3" fill="#3C3489"/><rect x="706.0" y="140.0" width="10.0" height="12.0" rx="0" fill="#3C3489"/><rect x="754.0" y="140.0" width="10.0" height="12.0" rx="0" fill="#3C3489"/><rect x="830.0" y="128.0" width="66.0" height="12.0" rx="3" fill="#26215C"/><rect x="884.0" y="88.0" width="12.0" height="52.0" rx="3" fill="#26215C"/><rect x="834.0" y="140.0" width="10.0" height="12.0" rx="0" fill="#26215C"/><rect x="882.0" y="140.0" width="10.0" height="12.0" rx="0" fill="#26215C"/><rect x="958.0" y="128.0" width="66.0" height="12.0" rx="3" fill="#3C3489"/><rect x="1012.0" y="88.0" width="12.0" height="52.0" rx="3" fill="#3C3489"/><rect x="962.0" y="140.0" width="10.0" height="12.0" rx="0" fill="#3C3489"/><rect x="1010.0" y="140.0" width="10.0" height="12.0" rx="0" fill="#3C3489"/><path d="M0,180 C300,170 600,188 900,178 C1050,173 1150,182 1200,178 L1200,200 H0 Z" fill="#26215C"/></svg>