<svg xmlns="http://www.w3.org/2000/svg" viewBox="0 0 1200 200" role="img" aria-label="Mehrere Wegweiser zeigen Richtungen — der goldene Arm weist die richtige Wahl"><rect width="1200" height="200" fill="#EEEDFE"/><circle cx="190" cy="60" r="24" fill="#f3c46a"/><path d="M0,132 C130,104 270,100 400,120 C470,131 560,128 680,128 L680,200 H0 Z" fill="#CECBF6"/><path d="M1200,132 C1070,104 930,100 800,120 C730,131 620,128 520,128 L520,200 H1200 Z" fill="#CECBF6"/><path d="M0,158 C300,144 600,166 900,156 C1050,151 1150,160 1200,156 L1200,200 H0 Z" fill="#7F77DD"/><rect x="255" y="86" width="10" height="64" rx="3" fill="#26215C"/><path d="M263,96 h58 l16,11 l-16,11 h-58 Z" fill="#3C3489"/><path d="M257,118 h-58 l-16,11 l16,11 h58 Z" fill="#534AB7"/><rect x="465" y="86" width="10" height="64" rx="3" fill="#26215C"/><path d="M467,96 h-58 l-16,11 l16,11 h58 Z" fill="#3C3489"/><path d="M473,118 h58 l16,11 l-16,11 h-58 Z" fill="#534AB7"/><rect x="675" y="86" width="10" height="64" rx="3" fill="#26215C"/><path d="M683,96 h58 l16,11 l-16,11 h-58 Z" fill="#f3c46a"/><path d="M677,118 h-58 l-16,11 l16,11 h58 Z" fill="#534AB7"/><rect x="885" y="86" width="10" height="64" rx="3" fill="#26215C"/><path d="M887,96 h-58 l-16,11 l16,11 h58 Z" fill="#3C3489"/><path d="M893,118 h58 l16,11 l-16,11 h-58 Z" fill="#534AB7"/><path d="M150,44 q7,-7 14,0" stroke="#534AB7" stroke-width="2.6" fill="none"/><path d="M166,47 q7,-7 14,0" stroke="#534AB7" stroke-width="2.6" fill="none"/><path d="M0,180 C300,170 600,188 900,178 C1050,173 1150,182 1200,178 L1200,200 H0 Z" fill="#26215C"/></svg>