<svg xmlns="http://www.w3.org/2000/svg" viewBox="0 0 1200 200" role="img" aria-label="Ein Wegweiser mit drei Armen über den Wellen — der goldene zeigt den richtigen Weg">
<rect width="1200" height="200" fill="#EEEDFE"/>
<path d="M300,44 q10,-8 20,0 M334,33 q10,-8 20,0" fill="none" stroke="#534AB7" stroke-width="3" stroke-linecap="round"/>
<rect x="594" y="30" width="12" height="112" rx="3" fill="#26215C"/>
<path d="M606,34 L718,34 L740,48 L718,62 L606,62 Z" fill="#f3c46a"/>
<path d="M594,72 L482,72 L460,86 L482,100 L594,100 Z" fill="#3C3489"/>
<path d="M606,106 L694,106 L712,118 L694,130 L606,130 Z" fill="#534AB7"/>
<path d="M0,146 C180,134 380,154 600,144 C820,134 1030,156 1200,144 V200 H0 Z" fill="#7F77DD"/>
<path d="M860,160 q6,-10 12,0 M896,166 q5,-8 10,0" fill="none" stroke="#3C3489" stroke-width="3" stroke-linecap="round"/>
<path d="M0,166 C230,156 470,178 690,166 C910,156 1070,176 1200,165 V200 H0 Z" fill="#3C3489"/>
<path d="M0,188 C250,180 530,198 790,187 C1000,180 1130,192 1200,186 V200 H0 Z" fill="#26215C"/>
</svg>
