<svg xmlns="http://www.w3.org/2000/svg" viewBox="0 0 1200 200" role="img" aria-label="Drei Türen im Wellenberg — eine leuchtet golden">
<rect width="1200" height="200" fill="#EEEDFE"/>
<path d="M1020,34 a24,24 0 1 0 0,40 a28,28 0 0 1 0,-40 Z" fill="#CECBF6"/>
<path d="M240,66 q10,-8 20,0 M272,54 q10,-8 20,0" fill="none" stroke="#534AB7" stroke-width="3" stroke-linecap="round"/>
<path d="M0,120 C180,104 380,130 600,118 C820,106 1020,130 1200,117 V200 H0 Z" fill="#534AB7"/>
<path d="M0,138 C200,126 430,150 650,140 C870,130 1050,148 1200,139 V200 H0 Z" fill="#3C3489"/>
<path d="M430,200 L430,138 A26,30 0 0 1 482,138 L482,200 Z" fill="#AFA9EC"/>
<path d="M574,200 L574,128 A26,30 0 0 1 626,128 L626,200 Z" fill="#f3c46a"/>
<path d="M718,200 L718,138 A26,30 0 0 1 770,138 L770,200 Z" fill="#AFA9EC"/>
<path d="M0,186 C240,178 500,196 760,188 C980,181 1110,192 1200,187 V200 H0 Z" fill="#26215C"/>
</svg>
