<svg xmlns="http://www.w3.org/2000/svg" viewBox="0 0 1200 200" role="img" aria-label="Fuenf Antwort-Boegen, der richtige golden"><rect width="1200" height="200" fill="#EEEDFE"/><circle cx="190" cy="60" r="24" fill="#f3c46a"/><path d="M0,132 C130,104 270,100 400,120 C470,131 560,128 680,128 L680,200 H0 Z" fill="#CECBF6"/><path d="M1200,132 C1070,104 930,100 800,120 C730,131 620,128 520,128 L520,200 H1200 Z" fill="#CECBF6"/><path d="M0,158 C300,144 600,166 900,156 C1050,151 1150,160 1200,156 L1200,200 H0 Z" fill="#7F77DD"/><path d="M150,52 q7,-7 14,0" stroke="#534AB7" stroke-width="2.6" fill="none"/><path d="M166,55 q7,-7 14,0" stroke="#534AB7" stroke-width="2.6" fill="none"/><path d="M218,150 L218,92 A32,32 0 0 1 282,92 L282,150 Z" fill="#534AB7"/><path d="M398,150 L398,84 A32,32 0 0 1 462,84 L462,150 Z" fill="#3C3489"/><path d="M578,150 L578,78 A32,32 0 0 1 642,78 L642,150 Z" fill="#f3c46a"/><path d="M758,150 L758,84 A32,32 0 0 1 822,84 L822,150 Z" fill="#3C3489"/><path d="M938,150 L938,92 A32,32 0 0 1 1002,92 L1002,150 Z" fill="#534AB7"/><circle cx="610" cy="126" r="6" fill="#EEEDFE"/><path d="M0,180 C300,170 600,188 900,178 C1050,173 1150,182 1200,178 L1200,200 H0 Z" fill="#26215C"/></svg>