<svg xmlns="http://www.w3.org/2000/svg" viewBox="0 0 1200 200" role="img" aria-label="Ein goldener Rettungsring hängt am Pfosten über der Welle — Hilfe beim Formulieren ist nah">
<rect width="1200" height="200" fill="#EEEDFE"/>
<path d="M170,60 q10,-8 20,0 M204,48 q10,-8 20,0" fill="none" stroke="#534AB7" stroke-width="3" stroke-linecap="round"/>
<path d="M0,142 C180,130 380,152 580,140 C800,126 1020,148 1200,138 V200 H0 Z" fill="#AFA9EC"/>
<g fill="#534AB7">
<path d="M824,142 L884,142 L872,154 L834,154 Z"/>
<rect x="851" y="94" width="4" height="48"/>
<path d="M851,98 L851,136 L820,136 Z"/>
<path d="M858,102 L858,136 L882,136 Z"/>
</g>
<path d="M0,162 C220,152 460,172 700,160 C920,150 1080,168 1200,160 V200 H0 Z" fill="#3C3489"/>
<g>
<rect x="468" y="46" width="14" height="128" rx="3" fill="#26215C"/>
<rect x="482" y="62" width="26" height="8" rx="4" fill="#26215C"/>
<line x1="502" y1="66" x2="514" y2="86" stroke="#26215C" stroke-width="4" stroke-linecap="round"/>
<circle cx="521" cy="118" r="33" fill="none" stroke="#f3c46a" stroke-width="14"/>
<g stroke="#EEEDFE" stroke-width="6">
<line x1="521" y1="80" x2="521" y2="94"/>
<line x1="521" y1="142" x2="521" y2="156"/>
<line x1="483" y1="118" x2="497" y2="118"/>
<line x1="545" y1="118" x2="559" y2="118"/>
</g>
</g>
<circle cx="300" cy="168" r="3" fill="#EEEDFE"/>
<circle cx="660" cy="156" r="3" fill="#AFA9EC"/>
<path d="M0,186 C260,180 540,196 800,188 C1010,182 1120,190 1200,186 V200 H0 Z" fill="#26215C"/>
</svg>
