<svg xmlns="http://www.w3.org/2000/svg" viewBox="0 0 1200 200" role="img" aria-label="Ein Pinsel malt die vordere Welle — der frisch gestrichene Abschnitt leuchtet golden, die Kunst formt die Landschaft">
<rect width="1200" height="200" fill="#EEEDFE"/>
<circle cx="1060" cy="48" r="20" fill="#CECBF6"/>
<path d="M0,132 C120,114 250,140 380,128 C470,120 540,128 606,126 L610,126 L610,200 L0,200 Z" fill="#7F77DD"/>
<path d="M0,132 C120,114 250,140 380,128 C470,120 540,128 606,126" fill="none" stroke="#534AB7" stroke-width="4" stroke-linecap="round"/>
<path d="M606,126 C650,124 690,132 726,128" fill="none" stroke="#f3c46a" stroke-width="9" stroke-linecap="round"/>
<g transform="translate(748,120) rotate(20)">
<path d="M0,0 C-14,-10 -26,-10 -42,-3 C-34,-9 -34,9 -42,3 C-26,10 -14,10 0,0 Z" fill="#26215C"/>
<rect x="-2" y="-9" width="16" height="18" rx="3" fill="#AFA9EC"/>
<rect x="12" y="-6" width="120" height="12" rx="6" fill="#534AB7"/>
</g>
<circle cx="560" cy="150" r="4.5" fill="#26215C"/><circle cx="500" cy="160" r="3" fill="#3C3489"/>
<path d="M0,160 C200,144 420,172 640,158 C860,146 1040,170 1200,158 V200 H0 Z" fill="#3C3489"/>
<path d="M0,184 C240,172 500,196 760,183 C980,172 1110,190 1200,182 V200 H0 Z" fill="#26215C"/>
</svg>