<svg xmlns="http://www.w3.org/2000/svg" viewBox="0 0 1200 200" role="img" aria-label="Sprechblasen steigen wie Luftblasen aus der Welle auf — die oberste leuchtet golden">
<rect width="1200" height="200" fill="#EEEDFE"/>
<path d="M700,152 L860,96 L1030,152 Z" fill="#CECBF6"/>
<circle cx="518" cy="138" r="5" fill="#7F77DD"/>
<circle cx="500" cy="118" r="8" fill="#7F77DD"/>
<g fill="#7F77DD">
<rect x="452" y="84" width="44" height="26" rx="13"/>
<path d="M474,110 l7,10 l3,-10 Z"/>
</g>
<g fill="#534AB7">
<rect x="396" y="46" width="58" height="32" rx="16"/>
<path d="M425,78 l8,12 l4,-12 Z"/>
</g>
<g stroke="#CECBF6" stroke-width="4" stroke-linecap="round">
<line x1="412" y1="58" x2="440" y2="58"/>
<line x1="412" y1="67" x2="430" y2="67"/>
</g>
<g fill="#f3c46a">
<rect x="316" y="8" width="76" height="42" rx="21"/>
<path d="M354,50 l10,15 l6,-15 Z"/>
</g>
<path d="M880,62 q10,-8 20,0 M912,50 q10,-8 20,0" fill="none" stroke="#534AB7" stroke-width="3" stroke-linecap="round"/>
<path d="M0,148 C170,136 380,158 530,146 C760,130 1030,156 1200,146 V200 H0 Z" fill="#534AB7"/>
<circle cx="530" cy="146" r="3" fill="#EEEDFE"/>
<circle cx="250" cy="158" r="3" fill="#AFA9EC"/>
<path d="M0,170 C220,162 450,180 670,170 C890,162 1060,176 1200,169 V200 H0 Z" fill="#3C3489"/>
<path d="M0,190 C240,185 500,197 760,191 C980,187 1120,195 1200,191 V200 H0 Z" fill="#26215C"/>
</svg>
