<svg xmlns="http://www.w3.org/2000/svg" viewBox="0 0 1200 200" role="img" aria-label="Ein Theatervorhang öffnet sich über der Welle — golden strahlt der Bühnenstern, die Kultur betritt die Bühne">
<rect width="1200" height="200" fill="#EEEDFE"/>
<rect x="360" y="20" width="480" height="14" rx="4" fill="#3C3489"/>
<path d="M372,34 q40,10 40,50 q0,40 -30,66 l-42,0 L340,34 Z" fill="#534AB7"/>
<path d="M828,34 q-40,10 -40,50 q0,40 30,66 l42,0 L860,34 Z" fill="#534AB7"/>
<path d="M412,40 q10,30 4,66 M786,40 q-10,30 -4,66" fill="none" stroke="#26215C" stroke-width="2" opacity="0.4"/>
<g fill="#f3c46a"><path d="M600,50 l7,20 21,1 -16,14 6,21 -18,-12 -18,12 6,-21 -16,-14 21,-1 Z"/></g>
<circle cx="600" cy="70" r="34" fill="none" stroke="#f3c46a" stroke-width="2" opacity="0.35"/>
<path d="M0,130 C190,114 400,144 620,132 C840,120 1020,148 1200,132 V200 H0 Z" fill="#7F77DD"/>
<path d="M0,156 C200,142 460,174 720,158 C940,146 1090,172 1200,158 V200 H0 Z" fill="#3C3489"/>
<path d="M0,182 C240,170 500,196 760,184 C980,174 1110,190 1200,182 V200 H0 Z" fill="#26215C"/>
</svg>