<svg xmlns="http://www.w3.org/2000/svg" viewBox="0 0 1200 200" role="img" aria-label="Eine Uferlinie spiegelt sich an einer goldenen Achse — oben der Berg, unten sein Spiegelbild, wie das reflexive Verb">
<rect width="1200" height="200" fill="#EEEDFE"/>
<path d="M420,100 L560,44 L640,74 L760,40 L860,100 Z" fill="#AFA9EC"/>
<path d="M420,100 L560,156 L640,126 L760,160 L860,100 Z" fill="#7F77DD"/>
<circle cx="560" cy="52" r="6" fill="#EEEDFE"/>
<circle cx="560" cy="148" r="6" fill="#CECBF6" opacity="0.7"/>
<line x1="360" y1="100" x2="920" y2="100" stroke="#f3c46a" stroke-width="4" stroke-linecap="round"/>
<circle cx="640" cy="100" r="7" fill="#f3c46a"/>
<path d="M300,72 q10,-8 20,0 M332,62 q10,-8 20,0" fill="none" stroke="#534AB7" stroke-width="3" stroke-linecap="round"/>
<path d="M0,150 C190,134 400,164 620,152 C840,140 1020,168 1200,152 V200 H0 Z" fill="#3C3489"/>
<path d="M0,180 C240,168 500,192 760,180 C980,170 1110,188 1200,180 V200 H0 Z" fill="#26215C"/>
</svg>