<svg xmlns="http://www.w3.org/2000/svg" viewBox="0 0 1200 200" role="img" aria-label="Bojen markieren die Fahrrinne — das goldene Leitfeuer vorn weist dem Boot den Weg">
<rect width="1200" height="200" fill="#EEEDFE"/>
<path d="M240,54 q10,-8 20,0 M274,42 q10,-8 20,0" fill="none" stroke="#534AB7" stroke-width="3" stroke-linecap="round"/>
<path d="M0,124 C210,112 470,134 730,124 C950,116 1100,128 1200,122 V200 H0 Z" fill="#AFA9EC"/>
<g fill="#26215C">
<path d="M310,128 C320,136 396,136 406,128 L430,98 L290,98 Z"/>
<path d="M368,90 L368,26 L416,84 L376,84 Z"/>
<path d="M362,50 L362,88 L332,88 Z"/>
</g>
<g fill="#3C3489">
<path d="M550,122 L562,84 L578,84 L590,122 Z"/>
<rect x="562" y="72" width="16" height="12" rx="3"/>
<path d="M540,122 C552,130 588,130 600,122" fill="none" stroke="#534AB7" stroke-width="4"/>
</g>
<g fill="#3C3489">
<path d="M700,126 L712,88 L728,88 L740,126 Z"/>
<rect x="712" y="76" width="16" height="12" rx="3"/>
</g>
<path d="M690,126 C702,134 738,134 750,126" fill="none" stroke="#534AB7" stroke-width="4"/>
<g>
<path d="M850,122 L864,78 L882,78 L896,122 Z" fill="#3C3489"/>
<rect x="864" y="66" width="18" height="14" rx="3" fill="#3C3489"/>
<circle cx="873" cy="52" r="11" fill="#f3c46a"/>
<circle cx="873" cy="52" r="18" fill="none" stroke="#f3c46a" stroke-width="2" opacity="0.45"/>
</g>
<path d="M840,122 C852,130 894,130 906,122" fill="none" stroke="#534AB7" stroke-width="4"/>
<path d="M0,150 C230,140 490,162 750,152 C970,144 1110,156 1200,150 V200 H0 Z" fill="#534AB7"/>
<path d="M0,172 C250,164 520,184 780,175 C1000,168 1120,180 1200,175 V200 H0 Z" fill="#3C3489"/>
<path d="M0,190 C280,185 560,197 820,192 C1020,189 1130,195 1200,192 V200 H0 Z" fill="#26215C"/>
</svg>
