<svg xmlns="http://www.w3.org/2000/svg" viewBox="0 0 1200 200" role="img" aria-label="Zwei Haeuser im Groessenvergleich — das groessere rechts ueberragt das kleinere, sein Dach setzt sich als Welle fort, golden das obere Fenster">
<rect width="1200" height="200" fill="#EEEDFE"/>
<path d="M0,124 C240,116 480,130 720,120 C940,112 1080,124 1200,118 V200 H0 Z" fill="#AFA9EC"/>
<g fill="#534AB7"><rect x="330" y="110" width="80" height="40"/><path d="M322,110 L370,80 L418,110 Z"/></g><rect x="352" y="122" width="16" height="20" fill="#AFA9EC"/>
<g fill="#3C3489"><rect x="640" y="70" width="130" height="80"/><path d="M628,70 L705,24 L782,70 Z"/></g><rect x="668" y="44" width="20" height="16" rx="1" fill="#f3c46a"/><rect x="662" y="92" width="22" height="26" fill="#7F77DD"/><rect x="724" y="92" width="22" height="26" fill="#7F77DD"/><rect x="694" y="118" width="24" height="32" fill="#26215C"/>
<path d="M500,54 q9,-7 18,0 M530,46 q9,-7 18,0" fill="none" stroke="#7F77DD" stroke-width="3" stroke-linecap="round"/>
<path d="M0,152 C200,136 460,168 700,152 C900,140 1050,166 1200,152 V200 H0 Z" fill="#3C3489"/>
<path d="M0,182 C240,170 500,194 760,182 C980,170 1100,192 1200,182 V200 H0 Z" fill="#26215C"/>
</svg>
