<svg xmlns="http://www.w3.org/2000/svg" viewBox="0 0 1200 200" role="img" aria-label="Vögel ziehen in fester Ordnung — der goldene Leitvogel gibt die Regel vor">
<rect width="1200" height="200" fill="#EEEDFE"/>
<g fill="#26215C">
<path d="M560,58 q15,-15 30,0 q15,-15 30,0 l-5,7 q-10,-10 -25,2 q-15,-12 -25,-2 Z"/>
<path d="M470,36 q14,-14 28,0 q14,-14 28,0 l-5,6 q-9,-9 -23,2 q-14,-11 -23,-2 Z"/>
<path d="M384,18 q13,-13 26,0 q13,-13 26,0 l-4,6 q-9,-8 -22,2 q-13,-10 -22,-2 Z"/>
<path d="M560,104 q15,-15 30,0 q15,-15 30,0 l-5,7 q-10,-10 -25,2 q-15,-12 -25,-2 Z"/>
<path d="M470,126 q14,-14 28,0 q14,-14 28,0 l-5,6 q-9,-9 -23,2 q-14,-11 -23,-2 Z"/>
<path d="M384,144 q13,-13 26,0 q13,-13 26,0 l-4,6 q-9,-8 -22,2 q-13,-10 -22,-2 Z"/>
</g>
<path d="M652,80 q17,-17 34,0 q17,-17 34,0 l-5,8 q-12,-11 -29,2 q-17,-13 -29,-2 Z" fill="#f3c46a"/>
<path d="M0,148 C210,138 470,158 730,149 C950,141 1100,153 1200,147 V200 H0 Z" fill="#AFA9EC"/>
<path d="M0,168 C250,160 520,178 780,170 C1000,164 1120,174 1200,170 V200 H0 Z" fill="#534AB7"/>
<path d="M0,182 C260,176 520,192 780,185 C1000,180 1120,189 1200,186 V200 H0 Z" fill="#3C3489"/>
<path d="M0,194 C280,190 560,199 820,195 C1020,193 1130,197 1200,195 V200 H0 Z" fill="#26215C"/>
</svg>
