<svg xmlns="http://www.w3.org/2000/svg" viewBox="0 0 1200 200" role="img" aria-label="Zwei Inseln über der Welle, ein goldener Brückenbogen verbindet sie — der Nebensatz baut die Verbindung">
<rect width="1200" height="200" fill="#EEEDFE"/>
<circle cx="880" cy="46" r="22" fill="#CECBF6"/>
<path d="M360,120 q60,-30 120,0 Z" fill="#7F77DD"/>
<path d="M720,120 q60,-30 120,0 Z" fill="#7F77DD"/>
<rect x="404" y="72" width="14" height="30" fill="#534AB7"/><path d="M398,72 h26 l-13,-14 Z" fill="#534AB7"/>
<rect x="782" y="72" width="14" height="30" fill="#534AB7"/><path d="M776,72 h26 l-13,-14 Z" fill="#534AB7"/>
<path d="M470,104 C540,34 660,34 730,104" fill="none" stroke="#f3c46a" stroke-width="8" stroke-linecap="round"/>
<line x1="600" y1="52" x2="600" y2="104" stroke="#f3c46a" stroke-width="4"/>
<line x1="536" y1="66" x2="536" y2="104" stroke="#f3c46a" stroke-width="3" opacity="0.8"/>
<line x1="664" y1="66" x2="664" y2="104" stroke="#f3c46a" stroke-width="3" opacity="0.8"/>
<path d="M300,86 q10,-8 20,0 M332,76 q10,-8 20,0" fill="none" stroke="#534AB7" stroke-width="3" stroke-linecap="round"/>
<path d="M0,120 C190,104 400,134 620,120 C840,106 1020,136 1200,120 V200 H0 Z" fill="#534AB7"/>
<path d="M0,150 C200,136 460,168 720,152 C940,140 1090,166 1200,152 V200 H0 Z" fill="#3C3489"/>
<path d="M0,180 C240,168 500,192 760,180 C980,170 1110,188 1200,180 V200 H0 Z" fill="#26215C"/>
</svg>