<svg xmlns="http://www.w3.org/2000/svg" viewBox="0 0 1200 200" role="img" aria-label="Eine Stoppuhr misst die Zeit — die Regel gibt den Takt"><rect width="1200" height="200" fill="#EEEDFE"/><g fill="#EEEDFE" opacity="0.5"><circle cx="900" cy="60" r="3.5"/><circle cx="960" cy="92" r="3"/></g><circle cx="600" cy="104" r="46" fill="#534AB7"/><circle cx="600" cy="104" r="46" fill="none" stroke="#26215C" stroke-width="3"/><rect x="588" y="46" width="24" height="12" rx="3" fill="#26215C"/><line x1="600" y1="58" x2="600" y2="70" stroke="#26215C" stroke-width="5"/><line x1="600" y1="104" x2="600" y2="72" stroke="#f3c46a" stroke-width="4" stroke-linecap="round"/><line x1="600" y1="104" x2="626" y2="112" stroke="#EEEDFE" stroke-width="3" stroke-linecap="round"/><circle cx="600" cy="104" r="4" fill="#f3c46a"/><path d="M0,150 C200,134 420,166 640,150 C860,134 1040,166 1200,150 V200 H0 Z" fill="#3C3489"/><path d="M0,180 C240,166 480,192 720,178 C940,166 1090,188 1200,178 V200 H0 Z" fill="#26215C"/></svg>