<svg xmlns="http://www.w3.org/2000/svg" viewBox="0 0 1200 200" role="img" aria-label="Vögel ziehen in fester Ordnung über die ganze Breite — der goldene Leitvogel gibt die Regel vor"><rect width="1200" height="200" fill="#EEEDFE"/><circle cx="190" cy="60" r="24" fill="#f3c46a"/><path d="M0,132 C130,104 270,100 400,120 C470,131 560,128 680,128 L680,200 H0 Z" fill="#CECBF6"/><path d="M1200,132 C1070,104 930,100 800,120 C730,131 620,128 520,128 L520,200 H1200 Z" fill="#CECBF6"/><path d="M0,158 C300,144 600,166 900,156 C1050,151 1150,160 1200,156 L1200,200 H0 Z" fill="#7F77DD"/><path d="M576,66 q20,-20 40,0 q20,-20 40,0 l-6,9 q-12,-13 -19,2 q-18,-15 -19,-2 Z" fill="#f3c46a"/><path d="M500,80 q16,-16 32,0 q16,-16 32,0 l-4,7 q-9,-10 -15,1 q-14,-12 -15,-1 Z" fill="#3C3489"/><path d="M424,94 q15,-15 30,0 q15,-15 30,0 l-4,6 q-9,-9 -14,1 q-13,-11 -14,-1 Z" fill="#26215C"/><path d="M352,108 q14,-14 28,0 q14,-14 28,0 l-4,6 q-8,-9 -13,1 q-12,-10 -13,-1 Z" fill="#3C3489"/><path d="M284,122 q13,-13 26,0 q13,-13 26,0 l-3,5 q-7,-8 -12,1 q-11,-9 -12,-1 Z" fill="#26215C"/><path d="M640,80 q16,-16 32,0 q16,-16 32,0 l-4,7 q-9,-10 -15,1 q-14,-12 -15,-1 Z" fill="#26215C"/><path d="M716,94 q15,-15 30,0 q15,-15 30,0 l-4,6 q-9,-9 -14,1 q-13,-11 -14,-1 Z" fill="#3C3489"/><path d="M788,108 q14,-14 28,0 q14,-14 28,0 l-4,6 q-8,-9 -13,1 q-12,-10 -13,-1 Z" fill="#26215C"/><path d="M856,122 q13,-13 26,0 q13,-13 26,0 l-3,5 q-7,-8 -12,1 q-11,-9 -12,-1 Z" fill="#3C3489"/><path d="M0,180 C300,170 600,188 900,178 C1050,173 1150,182 1200,178 L1200,200 H0 Z" fill="#26215C"/></svg>