<svg xmlns="http://www.w3.org/2000/svg" viewBox="0 0 1200 200" role="img" aria-label="Eine Skyline steigt treppenartig zum hoechsten Turm auf — ganz oben leuchtet golden ein Stern als Superlativ">
<rect width="1200" height="200" fill="#EEEDFE"/>
<path d="M0,124 C240,116 480,128 720,120 C940,112 1080,124 1200,118 V200 H0 Z" fill="#AFA9EC"/>
<rect x="300" y="106" width="52" height="44" fill="#534AB7"/><rect x="360" y="88" width="52" height="62" fill="#3C3489"/><rect x="420" y="68" width="52" height="82" fill="#534AB7"/><rect x="486" y="46" width="52" height="104" fill="#3C3489"/><rect x="560" y="0" width="52" height="150" fill="#534AB7"/><rect x="650" y="46" width="52" height="104" fill="#3C3489"/><rect x="716" y="68" width="52" height="82" fill="#534AB7"/><rect x="776" y="90" width="52" height="60" fill="#3C3489"/><rect x="836" y="106" width="52" height="44" fill="#534AB7"/><g fill="#AFA9EC"><rect x="572" y="130" width="10" height="10"/><rect x="538" y="130" width="10" height="10"/><rect x="572" y="108" width="10" height="10"/><rect x="538" y="108" width="10" height="10"/><rect x="572" y="86" width="10" height="10"/><rect x="538" y="86" width="10" height="10"/><rect x="572" y="64" width="10" height="10"/><rect x="538" y="64" width="10" height="10"/><rect x="572" y="42" width="10" height="10"/><rect x="538" y="42" width="10" height="10"/><rect x="572" y="20" width="10" height="10"/><rect x="538" y="20" width="10" height="10"/></g>
<rect x="582" y="0" width="8" height="0" /><line x1="586" y1="0" x2="586" y2="8" stroke="#26215C" stroke-width="3"/><path d="M586,4 l6,12 13,2 -9,10 2,13 -12,-6 -12,6 2,-13 -9,-10 13,-2 Z" fill="#f3c46a"/>
<path d="M920,58 q9,-7 18,0 M950,50 q9,-7 18,0" fill="none" stroke="#7F77DD" stroke-width="3" stroke-linecap="round"/>
<path d="M0,152 C200,136 460,168 700,152 C900,140 1050,166 1200,152 V200 H0 Z" fill="#3C3489"/>
<path d="M0,182 C240,170 500,194 760,182 C980,170 1100,192 1200,182 V200 H0 Z" fill="#26215C"/>
</svg>
