<svg xmlns="http://www.w3.org/2000/svg" viewBox="0 0 1200 200" role="img" aria-label="Breite Waage als Sinnbild fuer richtig und falsch"><rect width="1200" height="200" fill="#EEEDFE"/><circle cx="1030" cy="60" r="24" fill="#f3c46a"/><path d="M0,132 C130,104 270,100 400,120 C470,131 560,128 680,128 L680,200 H0 Z" fill="#CECBF6"/><path d="M1200,132 C1070,104 930,100 800,120 C730,131 620,128 520,128 L520,200 H1200 Z" fill="#CECBF6"/><path d="M0,158 C300,144 600,166 900,156 C1050,151 1150,160 1200,156 L1200,200 H0 Z" fill="#7F77DD"/><rect x="540.0" y="148.0" width="120.0" height="10.0" rx="4" fill="#3C3489"/><rect x="596.0" y="80.0" width="8.0" height="72.0" rx="0" fill="#3C3489"/><circle cx="600" cy="80" r="7" fill="#3C3489"/><line x1="352" y1="100" x2="848" y2="64" stroke="#3C3489" stroke-width="7" stroke-linecap="round"/><line x1="352" y1="100" x2="352" y2="130" stroke="#534AB7" stroke-width="3"/><path d="M300,130 a52,28 0 0,0 104,0 z" fill="#534AB7"/><line x1="848" y1="64" x2="848" y2="94" stroke="#534AB7" stroke-width="3"/><path d="M796,94 a52,28 0 0,0 104,0 z" fill="#7F77DD"/><circle cx="352" cy="124" r="13" fill="#f3c46a"/><path d="M0,180 C300,170 600,188 900,178 C1050,173 1150,182 1200,178 L1200,200 H0 Z" fill="#26215C"/></svg>