<svg xmlns="http://www.w3.org/2000/svg" viewBox="0 0 1200 200" role="img" aria-label="Eine Waage über der Welle — die goldene Schale senkt sich">
<rect width="1200" height="200" fill="#EEEDFE"/>
<path d="M170,150 L310,102 L460,150 Z" fill="#CECBF6"/>
<path d="M850,64 q10,-8 20,0 M882,52 q10,-8 20,0" fill="none" stroke="#534AB7" stroke-width="3" stroke-linecap="round"/>
<g stroke="#26215C" stroke-linecap="round">
<line x1="600" y1="146" x2="600" y2="38" stroke-width="7"/>
<line x1="600" y1="42" x2="512" y2="58" stroke-width="6"/>
<line x1="600" y1="42" x2="688" y2="30" stroke-width="6"/>
<line x1="512" y1="58" x2="512" y2="96" stroke-width="3"/>
<line x1="688" y1="30" x2="688" y2="62" stroke-width="3"/>
<path d="M566,146 L634,146" stroke-width="8"/>
</g>
<circle cx="600" cy="38" r="7" fill="#26215C"/>
<path d="M478,96 A34,20 0 0 0 546,96 Z" fill="#3C3489"/>
<circle cx="512" cy="90" r="9" fill="#f3c46a"/>
<path d="M654,62 A34,20 0 0 0 722,62 Z" fill="#3C3489"/>
<path d="M0,152 C190,142 400,160 620,151 C840,142 1030,158 1200,150 V200 H0 Z" fill="#534AB7"/>
<circle cx="250" cy="162" r="3" fill="#AFA9EC"/>
<path d="M0,172 C220,164 450,182 670,172 C890,164 1060,178 1200,171 V200 H0 Z" fill="#3C3489"/>
<path d="M0,191 C240,186 500,198 760,192 C980,188 1120,196 1200,192 V200 H0 Z" fill="#26215C"/>
</svg>
