<svg xmlns="http://www.w3.org/2000/svg" viewBox="0 0 1200 200" role="img" aria-label="Wort-Bausteine wachsen zu Satz-Türmen — ein Baustein leuchtet golden"><rect width="1200" height="200" fill="#EEEDFE"/><circle cx="190" cy="60" r="24" fill="#f3c46a"/><path d="M0,132 C130,104 270,100 400,120 C470,131 560,128 680,128 L680,200 H0 Z" fill="#CECBF6"/><path d="M1200,132 C1070,104 930,100 800,120 C730,131 620,128 520,128 L520,200 H1200 Z" fill="#CECBF6"/><path d="M0,158 C300,144 600,166 900,156 C1050,151 1150,160 1200,156 L1200,200 H0 Z" fill="#7F77DD"/><rect x="210" y="128" width="74" height="20" rx="4" fill="#534AB7"/><rect x="222" y="135" width="50" height="5" rx="2.5" fill="#AFA9EC" opacity="0.5"/><rect x="210" y="104" width="74" height="20" rx="4" fill="#3C3489"/><rect x="222" y="111" width="50" height="5" rx="2.5" fill="#AFA9EC" opacity="0.5"/><rect x="210" y="80" width="74" height="20" rx="4" fill="#26215C"/><rect x="222" y="87" width="50" height="5" rx="2.5" fill="#AFA9EC" opacity="0.5"/><rect x="300" y="128" width="74" height="20" rx="4" fill="#534AB7"/><rect x="312" y="135" width="50" height="5" rx="2.5" fill="#AFA9EC" opacity="0.5"/><rect x="300" y="104" width="74" height="20" rx="4" fill="#3C3489"/><rect x="312" y="111" width="50" height="5" rx="2.5" fill="#AFA9EC" opacity="0.5"/><rect x="300" y="80" width="74" height="20" rx="4" fill="#26215C"/><rect x="312" y="87" width="50" height="5" rx="2.5" fill="#AFA9EC" opacity="0.5"/><rect x="300" y="56" width="74" height="20" rx="4" fill="#534AB7"/><rect x="312" y="63" width="50" height="5" rx="2.5" fill="#AFA9EC" opacity="0.5"/><rect x="300" y="32" width="74" height="20" rx="4" fill="#3C3489"/><rect x="312" y="39" width="50" height="5" rx="2.5" fill="#AFA9EC" opacity="0.5"/><rect x="392" y="128" width="74" height="20" rx="4" fill="#534AB7"/><rect x="404" y="135" width="50" height="5" rx="2.5" fill="#AFA9EC" opacity="0.5"/><rect x="392" y="104" width="74" height="20" rx="4" fill="#3C3489"/><rect x="404" y="111" width="50" height="5" rx="2.5" fill="#AFA9EC" opacity="0.5"/><rect x="482" y="128" width="74" height="20" rx="4" fill="#534AB7"/><rect x="494" y="135" width="50" height="5" rx="2.5" fill="#AFA9EC" opacity="0.5"/><rect x="482" y="104" width="74" height="20" rx="4" fill="#3C3489"/><rect x="494" y="111" width="50" height="5" rx="2.5" fill="#AFA9EC" opacity="0.5"/><rect x="482" y="80" width="74" height="20" rx="4" fill="#26215C"/><rect x="494" y="87" width="50" height="5" rx="2.5" fill="#AFA9EC" opacity="0.5"/><rect x="482" y="56" width="74" height="20" rx="4" fill="#534AB7"/><rect x="494" y="63" width="50" height="5" rx="2.5" fill="#AFA9EC" opacity="0.5"/><rect x="572" y="128" width="74" height="20" rx="4" fill="#534AB7"/><rect x="584" y="135" width="50" height="5" rx="2.5" fill="#AFA9EC" opacity="0.5"/><rect x="572" y="104" width="74" height="20" rx="4" fill="#3C3489"/><rect x="584" y="111" width="50" height="5" rx="2.5" fill="#AFA9EC" opacity="0.5"/><rect x="572" y="80" width="74" height="20" rx="4" fill="#26215C"/><rect x="584" y="87" width="50" height="5" rx="2.5" fill="#AFA9EC" opacity="0.5"/><rect x="662" y="128" width="74" height="20" rx="4" fill="#534AB7"/><rect x="674" y="135" width="50" height="5" rx="2.5" fill="#AFA9EC" opacity="0.5"/><rect x="662" y="104" width="74" height="20" rx="4" fill="#3C3489"/><rect x="674" y="111" width="50" height="5" rx="2.5" fill="#AFA9EC" opacity="0.5"/><rect x="662" y="80" width="74" height="20" rx="4" fill="#f3c46a"/><rect x="674" y="87" width="50" height="5" rx="2.5" fill="#26215C" opacity="0.5"/><rect x="662" y="56" width="74" height="20" rx="4" fill="#534AB7"/><rect x="674" y="63" width="50" height="5" rx="2.5" fill="#AFA9EC" opacity="0.5"/><rect x="662" y="32" width="74" height="20" rx="4" fill="#3C3489"/><rect x="674" y="39" width="50" height="5" rx="2.5" fill="#AFA9EC" opacity="0.5"/><rect x="752" y="128" width="74" height="20" rx="4" fill="#534AB7"/><rect x="764" y="135" width="50" height="5" rx="2.5" fill="#AFA9EC" opacity="0.5"/><rect x="752" y="104" width="74" height="20" rx="4" fill="#3C3489"/><rect x="764" y="111" width="50" height="5" rx="2.5" fill="#AFA9EC" opacity="0.5"/><rect x="842" y="128" width="74" height="20" rx="4" fill="#534AB7"/><rect x="854" y="135" width="50" height="5" rx="2.5" fill="#AFA9EC" opacity="0.5"/><rect x="842" y="104" width="74" height="20" rx="4" fill="#3C3489"/><rect x="854" y="111" width="50" height="5" rx="2.5" fill="#AFA9EC" opacity="0.5"/><rect x="842" y="80" width="74" height="20" rx="4" fill="#26215C"/><rect x="854" y="87" width="50" height="5" rx="2.5" fill="#AFA9EC" opacity="0.5"/><rect x="842" y="56" width="74" height="20" rx="4" fill="#534AB7"/><rect x="854" y="63" width="50" height="5" rx="2.5" fill="#AFA9EC" opacity="0.5"/><rect x="932" y="128" width="74" height="20" rx="4" fill="#534AB7"/><rect x="944" y="135" width="50" height="5" rx="2.5" fill="#AFA9EC" opacity="0.5"/><rect x="932" y="104" width="74" height="20" rx="4" fill="#3C3489"/><rect x="944" y="111" width="50" height="5" rx="2.5" fill="#AFA9EC" opacity="0.5"/><rect x="932" y="80" width="74" height="20" rx="4" fill="#26215C"/><rect x="944" y="87" width="50" height="5" rx="2.5" fill="#AFA9EC" opacity="0.5"/><path d="M150,40 q7,-7 14,0" stroke="#534AB7" stroke-width="2.6" fill="none"/><path d="M166,43 q7,-7 14,0" stroke="#534AB7" stroke-width="2.6" fill="none"/><path d="M0,180 C300,170 600,188 900,178 C1050,173 1150,182 1200,178 L1200,200 H0 Z" fill="#26215C"/></svg>