<svg xmlns="http://www.w3.org/2000/svg" viewBox="0 0 1200 200" role="img" aria-label="Bausteine steigen als Treppe auf, der oberste ist golden, seine Kante wird zur vorderen Welle">
<rect width="1200" height="200" fill="#EEEDFE"/>
<path d="M150,138 L280,104 L410,138 Z" fill="#CECBF6"/>
<path d="M0,140 C170,120 330,150 500,138 V200 H0 Z" fill="#AFA9EC"/>
<g>
<rect x="360" y="150" width="70" height="42" rx="4" fill="#AFA9EC"/>
<rect x="430" y="122" width="70" height="70" rx="4" fill="#7F77DD"/>
<rect x="500" y="96" width="70" height="96" rx="4" fill="#534AB7"/>
<rect x="570" y="70" width="70" height="122" rx="4" fill="#f3c46a"/>
</g>
<path d="M640,70 C770,86 900,80 1030,92 C1100,99 1160,96 1200,92" fill="none" stroke="#534AB7" stroke-width="4" stroke-linecap="round"/>
<path d="M640,70 C770,86 900,80 1030,92 C1100,99 1160,96 1200,92 V200 H640 Z" fill="#7F77DD"/>
<path d="M0,168 C230,154 470,186 710,172 C930,160 1090,184 1200,172 V200 H0 Z" fill="#3C3489"/>
<path d="M0,188 C250,180 520,196 780,188 C980,182 1110,193 1200,187 V200 H0 Z" fill="#26215C"/>
</svg>
