<svg xmlns="http://www.w3.org/2000/svg" viewBox="0 0 1200 200" role="img" aria-label="Kran hebt Bausteine über geschichteten Wellen — Aufbau">
<rect width="1200" height="200" fill="#EEEDFE"/>
<path d="M170,30 a26,26 0 1 0 0,44 a30,30 0 0 1 0,-44 Z" fill="#CECBF6"/>
<g stroke="#26215C" stroke-linecap="round">
<line x1="880" y1="164" x2="880" y2="24" stroke-width="8"/>
<line x1="856" y1="164" x2="880" y2="120" stroke-width="4"/>
<line x1="904" y1="164" x2="880" y2="120" stroke-width="4"/>
<line x1="620" y1="26" x2="1010" y2="26" stroke-width="7"/>
<line x1="880" y1="62" x2="952" y2="26" stroke-width="5"/>
<line x1="880" y1="62" x2="808" y2="26" stroke-width="5"/>
<line x1="880" y1="62" x2="700" y2="26" stroke-width="3"/>
</g>
<rect x="962" y="26" width="44" height="26" rx="3" fill="#3C3489"/>
<line x1="656" y1="26" x2="656" y2="76" stroke="#26215C" stroke-width="3"/>
<path d="M642,76 L670,76 L656,62 Z" fill="#26215C"/>
<rect x="628" y="76" width="56" height="40" rx="4" fill="#f3c46a"/>
<g>
<rect x="420" y="118" width="74" height="42" rx="4" fill="#534AB7"/>
<rect x="440" y="76" width="74" height="42" rx="4" fill="#7F77DD"/>
<rect x="500" y="118" width="74" height="42" rx="4" fill="#3C3489"/>
<rect x="462" y="34" width="74" height="42" rx="4" fill="#AFA9EC"/>
</g>
<path d="M310,96 q10,-8 20,0 M340,84 q10,-8 20,0" fill="none" stroke="#534AB7" stroke-width="3" stroke-linecap="round"/>
<path d="M0,148 C190,130 400,162 620,148 C840,134 1020,164 1200,148 V200 H0 Z" fill="#3C3489"/>
<path d="M0,180 C240,166 480,192 720,178 C940,166 1090,188 1200,178 V200 H0 Z" fill="#26215C"/>
</svg>
