<svg xmlns="http://www.w3.org/2000/svg" viewBox="0 0 1200 200" role="img" aria-label="Hürden reihen sich ansteigend auf — Schritt für Schritt aufgebaut"><rect width="1200" height="200" fill="#EEEDFE"/><circle cx="300" cy="58" r="3.5" fill="#EEEDFE" opacity="0.5"/><circle cx="360" cy="92" r="3" fill="#EEEDFE" opacity="0.5"/><circle cx="920" cy="70" r="3" fill="#EEEDFE" opacity="0.5"/><g stroke="#26215C" stroke-linecap="round" stroke-width="5"><line x1="300" y1="150" x2="300" y2="126"/><line x1="360" y1="150" x2="360" y2="126"/><line x1="300" y1="126" x2="360" y2="126"/><line x1="470" y1="150" x2="470" y2="110"/><line x1="530" y1="150" x2="530" y2="110"/><line x1="470" y1="110" x2="530" y2="110"/><line x1="640" y1="150" x2="640" y2="92"/><line x1="700" y1="150" x2="700" y2="92"/><line x1="640" y1="92" x2="700" y2="92"/><line x1="810" y1="150" x2="810" y2="72"/><line x1="870" y1="150" x2="870" y2="72"/></g><line x1="808" y1="72" x2="872" y2="72" stroke="#f3c46a" stroke-width="6" stroke-linecap="round"/><path d="M0,150 C200,140 420,166 640,150 C860,138 1040,164 1200,150 V200 H0 Z" fill="#3C3489"/><path d="M0,180 C240,168 480,192 720,180 C940,168 1090,188 1200,180 V200 H0 Z" fill="#26215C"/></svg>