<svg xmlns="http://www.w3.org/2000/svg" viewBox="0 0 1200 200" role="img" aria-label="Ein Turm aus geschichteten Essens-Lagen wächst aus der Welle — die oberste Lage leuchtet golden">
<rect width="1200" height="200" fill="#EEEDFE"/>
<path d="M210,120 L300,84 L390,120 Z" fill="#CECBF6"/><path d="M300,74 q10,-8 20,0 M330,62 q10,-8 20,0" fill="none" stroke="#534AB7" stroke-width="3" stroke-linecap="round"/><rect x="560" y="118" width="120" height="26" rx="5" fill="#534AB7"/><rect x="575" y="92" width="100" height="24" rx="5" fill="#7F77DD"/><rect x="590" y="68" width="82" height="22" rx="5" fill="#AFA9EC"/><rect x="602" y="46" width="60" height="20" rx="5" fill="#f3c46a"/><path d="M880,74 q10,-8 20,0 M910,62 q10,-8 20,0" fill="none" stroke="#534AB7" stroke-width="3" stroke-linecap="round"/><path d="M0,128 C150,106 330,142 510,126 C710,108 910,144 1110,128 C1155,124 1185,128 1200,125 V200 H0 Z" fill="#534AB7"/>
<path d="M0,152 C190,134 400,166 620,152 C840,138 1020,168 1200,152 V200 H0 Z" fill="#3C3489"/>
<path d="M0,180 C240,166 500,192 760,178 C980,166 1110,188 1200,178 V200 H0 Z" fill="#26215C"/>

</svg>
