<svg xmlns="http://www.w3.org/2000/svg" viewBox="0 0 1200 200" role="img" aria-label="Wort-Wagen fügen sich zu einem Satz-Zug — ein Wagen leuchtet golden"><rect width="1200" height="200" fill="#EEEDFE"/><circle cx="190" cy="60" r="24" fill="#f3c46a"/><path d="M0,132 C130,104 270,100 400,120 C470,131 560,128 680,128 L680,200 H0 Z" fill="#CECBF6"/><path d="M1200,132 C1070,104 930,100 800,120 C730,131 620,128 520,128 L520,200 H1200 Z" fill="#CECBF6"/><path d="M0,158 C300,144 600,166 900,156 C1050,151 1150,160 1200,156 L1200,200 H0 Z" fill="#7F77DD"/><rect x="340" y="132" width="42" height="6" rx="3" fill="#534AB7"/><rect x="220" y="108" width="120" height="34" rx="8" fill="#26215C"/><rect x="236" y="116" width="34" height="18" rx="3" fill="#CECBF6" opacity="0.85"/><rect x="290" y="116" width="34" height="18" rx="3" fill="#CECBF6" opacity="0.85"/><circle cx="250" cy="150" r="11" fill="#26215C"/><circle cx="310" cy="150" r="11" fill="#26215C"/><circle cx="250" cy="150" r="4" fill="#AFA9EC"/><circle cx="310" cy="150" r="4" fill="#AFA9EC"/><rect x="500" y="132" width="42" height="6" rx="3" fill="#534AB7"/><rect x="380" y="108" width="120" height="34" rx="8" fill="#3C3489"/><rect x="396" y="116" width="34" height="18" rx="3" fill="#CECBF6" opacity="0.85"/><rect x="450" y="116" width="34" height="18" rx="3" fill="#CECBF6" opacity="0.85"/><circle cx="410" cy="150" r="11" fill="#26215C"/><circle cx="470" cy="150" r="11" fill="#26215C"/><circle cx="410" cy="150" r="4" fill="#AFA9EC"/><circle cx="470" cy="150" r="4" fill="#AFA9EC"/><rect x="660" y="132" width="42" height="6" rx="3" fill="#534AB7"/><rect x="540" y="108" width="120" height="34" rx="8" fill="#f3c46a"/><rect x="556" y="116" width="34" height="18" rx="3" fill="#26215C" opacity="0.85"/><rect x="610" y="116" width="34" height="18" rx="3" fill="#26215C" opacity="0.85"/><circle cx="570" cy="150" r="11" fill="#26215C"/><circle cx="630" cy="150" r="11" fill="#26215C"/><circle cx="570" cy="150" r="4" fill="#AFA9EC"/><circle cx="630" cy="150" r="4" fill="#AFA9EC"/><rect x="820" y="132" width="42" height="6" rx="3" fill="#534AB7"/><rect x="700" y="108" width="120" height="34" rx="8" fill="#3C3489"/><rect x="716" y="116" width="34" height="18" rx="3" fill="#CECBF6" opacity="0.85"/><rect x="770" y="116" width="34" height="18" rx="3" fill="#CECBF6" opacity="0.85"/><circle cx="730" cy="150" r="11" fill="#26215C"/><circle cx="790" cy="150" r="11" fill="#26215C"/><circle cx="730" cy="150" r="4" fill="#AFA9EC"/><circle cx="790" cy="150" r="4" fill="#AFA9EC"/><rect x="860" y="108" width="120" height="34" rx="8" fill="#26215C"/><rect x="876" y="116" width="34" height="18" rx="3" fill="#CECBF6" opacity="0.85"/><rect x="930" y="116" width="34" height="18" rx="3" fill="#CECBF6" opacity="0.85"/><circle cx="890" cy="150" r="11" fill="#26215C"/><circle cx="950" cy="150" r="11" fill="#26215C"/><circle cx="890" cy="150" r="4" fill="#AFA9EC"/><circle cx="950" cy="150" r="4" fill="#AFA9EC"/><rect x="248" y="90" width="16" height="20" rx="3" fill="#26215C"/><path d="M300,46 q7,-7 14,0" stroke="#534AB7" stroke-width="2.6" fill="none"/><path d="M316,49 q7,-7 14,0" stroke="#534AB7" stroke-width="2.6" fill="none"/><path d="M0,180 C300,170 600,188 900,178 C1050,173 1150,182 1200,178 L1200,200 H0 Z" fill="#26215C"/></svg>