<svg xmlns="http://www.w3.org/2000/svg" viewBox="0 0 1200 200" role="img" aria-label="Bücher stapeln sich zur Treppe — das goldene Buch wird obenauf gelegt">
<rect width="1200" height="200" fill="#EEEDFE"/>
<path d="M170,38 a22,22 0 1 0 0,36 a26,26 0 0 1 0,-36 Z" fill="#CECBF6"/>
<path d="M0,140 C200,126 420,150 640,138 C860,126 1040,150 1200,138 V200 H0 Z" fill="#534AB7"/>
<g>
<rect x="400" y="122" width="96" height="16" rx="4" fill="#26215C"/>
<rect x="408" y="106" width="88" height="16" rx="4" fill="#3C3489"/>
<rect x="560" y="122" width="100" height="16" rx="4" fill="#26215C"/>
<rect x="554" y="106" width="94" height="16" rx="4" fill="#3C3489"/>
<rect x="562" y="90" width="90" height="16" rx="4" fill="#7F77DD"/>
<rect x="720" y="122" width="104" height="16" rx="4" fill="#26215C"/>
<rect x="726" y="106" width="96" height="16" rx="4" fill="#3C3489"/>
<rect x="718" y="90" width="100" height="16" rx="4" fill="#7F77DD"/>
<rect x="724" y="74" width="92" height="16" rx="4" fill="#534AB7"/>
</g>
<g transform="translate(770,48) rotate(-8)">
<rect x="-48" y="-8" width="96" height="16" rx="4" fill="#f3c46a"/>
</g>
<path d="M330,70 q10,-8 20,0 M360,58 q10,-8 20,0" fill="none" stroke="#534AB7" stroke-width="3" stroke-linecap="round"/>
<path d="M0,164 C210,152 440,176 660,164 C880,152 1050,174 1200,163 V200 H0 Z" fill="#3C3489"/>
<path d="M0,186 C240,176 500,198 760,186 C980,176 1110,192 1200,185 V200 H0 Z" fill="#26215C"/>
</svg>
