<svg xmlns="http://www.w3.org/2000/svg" viewBox="0 0 1200 200" role="img" aria-label="Bausteine fügen sich zu einer Brücke über dem Wasser, der goldene Schlussstein schließt den Bogen, die Bogenunterkante ist die Wellenlinie">
<rect width="1200" height="200" fill="#EEEDFE"/>
<path d="M200,124 L340,86 L480,124 Z" fill="#CECBF6"/>
<path d="M0,128 C180,112 360,138 540,126 C720,114 900,138 1080,126 C1130,122 1170,128 1200,124 V200 H0 Z" fill="#AFA9EC"/>
<g fill="#534AB7">
<rect x="330" y="132" width="52" height="26" rx="3"/>
<rect x="360" y="106" width="52" height="26" rx="3" transform="rotate(-24 386 119)"/>
<rect x="420" y="86" width="52" height="26" rx="3" transform="rotate(-12 446 99)"/>
</g>
<rect x="574" y="78" width="52" height="26" rx="3" fill="#f3c46a"/>
<g fill="#7F77DD">
<rect x="728" y="86" width="52" height="26" rx="3" transform="rotate(12 754 99)"/>
<rect x="788" y="106" width="52" height="26" rx="3" transform="rotate(24 814 119)"/>
<rect x="818" y="132" width="52" height="26" rx="3"/>
</g>
<path d="M360,150 C440,96 760,96 840,150" fill="none" stroke="#3C3489" stroke-width="5"/>
<path d="M0,150 C120,150 260,150 360,150 C440,96 760,96 840,150 C940,150 1080,150 1200,150 V200 H0 Z" fill="#3C3489"/>
<path d="M0,178 C240,166 500,192 760,179 C980,168 1110,188 1200,178 V200 H0 Z" fill="#26215C"/>
</svg>
