<svg xmlns="http://www.w3.org/2000/svg" viewBox="0 0 1200 200" role="img" aria-label="Über dem gedeckten Tisch steigen zwei Gespräch-Sprechblasen auf — die oberste leuchtet golden; die Tischkante ist die Welle">
<rect width="1200" height="200" fill="#EEEDFE"/>
<path d="M200,120 L300,84 L400,120 Z" fill="#CECBF6"/><path d="M300,72 q10,-8 20,0 M330,60 q10,-8 20,0" fill="none" stroke="#534AB7" stroke-width="3" stroke-linecap="round"/><ellipse cx="560" cy="122" rx="34" ry="9" fill="#3C3489"/><ellipse cx="720" cy="122" rx="34" ry="9" fill="#3C3489"/><path d="M556,104 h56 a7,7 0 0 1 7,7 v14 a7,7 0 0 1 -7,7 h-40 l-10,10 v-10 h-6 a7,7 0 0 1 -7,-7 v-14 a7,7 0 0 1 7,-7 Z" fill="#534AB7"/><path d="M636,74 h52 a7,7 0 0 1 7,7 v13 a7,7 0 0 1 -7,7 h-52 a7,7 0 0 1 -7,-7 v-13 a7,7 0 0 1 7,-7 Z" fill="#7F77DD"/><path d="M612,48 h44 a7,7 0 0 1 7,7 v12 a7,7 0 0 1 -7,7 h-44 a7,7 0 0 1 -7,-7 v-12 a7,7 0 0 1 7,-7 Z" fill="#f3c46a"/><circle cx="626" cy="61" r="2.6" fill="#26215C"/><circle cx="636" cy="61" r="2.6" fill="#26215C"/><circle cx="646" cy="61" r="2.6" fill="#26215C"/><path d="M0,128 C150,106 330,142 510,126 C710,108 910,144 1110,128 C1155,124 1185,128 1200,125 V200 H0 Z" fill="#534AB7"/>
<path d="M0,152 C190,134 400,166 620,152 C840,138 1020,168 1200,152 V200 H0 Z" fill="#3C3489"/>
<path d="M0,180 C240,166 500,192 760,178 C980,166 1110,188 1200,178 V200 H0 Z" fill="#26215C"/>

</svg>
