<svg xmlns="http://www.w3.org/2000/svg" viewBox="0 0 1200 200" role="img" aria-label="Ortsbausteine mit Pfeilen werden gestapelt; der goldene Block mit dem Aufwaerts-Pfeil schwebt noch ueber seinem Platz">
<rect width="1200" height="200" fill="#EEEDFE"/>
<rect x="520" y="112" width="90" height="40" rx="5" fill="#534AB7"/>
<path d="M545,140 l20,-16 l20,16 M565,124 v22" stroke="#EEEDFE" stroke-width="3" fill="none" stroke-linecap="round" stroke-linejoin="round"/>
<rect x="620" y="112" width="90" height="40" rx="5" fill="#3C3489"/>
<path d="M645,132 h40 M675,124 l10,8 l-10,8" stroke="#EEEDFE" stroke-width="3" fill="none" stroke-linecap="round" stroke-linejoin="round"/>
<rect x="565" y="56" width="90" height="40" rx="5" fill="#f3c46a"/>
<path d="M590,84 l20,-16 l20,16 M610,68 v22" stroke="#26215C" stroke-width="3" fill="none" stroke-linecap="round" stroke-linejoin="round"/>
<path d="M610,100 v10" stroke="#AFA9EC" stroke-width="3" stroke-dasharray="2 6" stroke-linecap="round"/>
<path d="M0,156 C210,144 440,172 680,160 C880,150 1030,170 1200,160 V200 H0 Z" fill="#3C3489"/>
<path d="M0,184 C240,174 500,196 760,184 C980,174 1100,190 1200,184 V200 H0 Z" fill="#26215C"/>
</svg>