<svg xmlns="http://www.w3.org/2000/svg" viewBox="0 0 1200 200" role="img" aria-label="Eine Reihe Dominosteine auf der Welle — der goldene Stein wird gerade gesetzt">
<rect width="1200" height="200" fill="#EEEDFE"/>
<path d="M250,50 q10,-8 20,0 M284,39 q10,-8 20,0" fill="none" stroke="#534AB7" stroke-width="3" stroke-linecap="round"/>
<g fill="#26215C">
<rect x="424" y="78" width="16" height="56" rx="4"/>
<rect x="472" y="76" width="16" height="58" rx="4"/>
<rect x="520" y="78" width="16" height="56" rx="4"/>
<rect x="568" y="76" width="16" height="58" rx="4"/>
<rect x="616" y="78" width="16" height="56" rx="4"/>
</g>
<rect x="664" y="84" width="16" height="58" rx="4" fill="#f3c46a" transform="rotate(16 664 142)"/>
<path d="M0,142 C170,130 370,150 580,140 C800,130 1020,152 1200,140 V200 H0 Z" fill="#7F77DD"/>
<circle cx="780" cy="152" r="4" fill="#26215C"/>
<circle cx="810" cy="160" r="3" fill="#3C3489"/>
<path d="M0,164 C220,154 460,176 680,164 C900,154 1070,174 1200,163 V200 H0 Z" fill="#3C3489"/>
<path d="M0,187 C250,178 530,198 790,186 C1000,179 1130,192 1200,185 V200 H0 Z" fill="#26215C"/>
</svg>
