<svg xmlns="http://www.w3.org/2000/svg" viewBox="0 0 1200 200" role="img" aria-label="Zug mit aneinander gekoppelten Waggons"><rect width="1200" height="200" fill="#EEEDFE"/><circle cx="190" cy="60" r="24" fill="#f3c46a"/><path d="M0,132 C130,104 270,100 400,120 C470,131 560,128 680,128 L680,200 H0 Z" fill="#CECBF6"/><path d="M1200,132 C1070,104 930,100 800,120 C730,131 620,128 520,128 L520,200 H1200 Z" fill="#CECBF6"/><path d="M0,158 C300,144 600,166 900,156 C1050,151 1150,160 1200,156 L1200,200 H0 Z" fill="#7F77DD"/><rect x="180.0" y="150.0" width="860.0" height="4.0" rx="0" fill="#3C3489"/><rect x="200.0" y="106.0" width="116.0" height="42.0" rx="5" fill="#3C3489"/><circle cx="226" cy="152" r="10" fill="#26215C"/><circle cx="290" cy="152" r="10" fill="#26215C"/><rect x="316.0" y="128.0" width="6.0" height="8.0" rx="0" fill="#534AB7"/><rect x="340.0" y="106.0" width="116.0" height="42.0" rx="5" fill="#26215C"/><rect x="422.0" y="112.0" width="20.0" height="16.0" rx="3" fill="#f3c46a"/><circle cx="366" cy="152" r="10" fill="#26215C"/><circle cx="430" cy="152" r="10" fill="#26215C"/><rect x="456.0" y="128.0" width="6.0" height="8.0" rx="0" fill="#534AB7"/><rect x="480.0" y="106.0" width="116.0" height="42.0" rx="5" fill="#3C3489"/><circle cx="506" cy="152" r="10" fill="#26215C"/><circle cx="570" cy="152" r="10" fill="#26215C"/><rect x="596.0" y="128.0" width="6.0" height="8.0" rx="0" fill="#534AB7"/><rect x="620.0" y="106.0" width="116.0" height="42.0" rx="5" fill="#26215C"/><circle cx="646" cy="152" r="10" fill="#26215C"/><circle cx="710" cy="152" r="10" fill="#26215C"/><rect x="736.0" y="128.0" width="6.0" height="8.0" rx="0" fill="#534AB7"/><rect x="770.0" y="96.0" width="150.0" height="52.0" rx="6" fill="#26215C"/><rect x="866.0" y="68.0" width="52.0" height="32.0" rx="6" fill="#26215C"/><rect x="786.0" y="112.0" width="40.0" height="20.0" rx="3" fill="#7F77DD"/><rect x="800.0" y="74.0" width="16.0" height="24.0" rx="3" fill="#3C3489"/><circle cx="810" cy="152" r="12" fill="#3C3489"/><circle cx="882" cy="152" r="12" fill="#3C3489"/><circle cx="810" cy="60" r="9" fill="#AFA9EC" opacity=".8"/><circle cx="828" cy="44" r="12" fill="#AFA9EC" opacity=".8"/><circle cx="852" cy="30" r="15" fill="#AFA9EC" opacity=".8"/><path d="M0,180 C300,170 600,188 900,178 C1050,173 1150,182 1200,178 L1200,200 H0 Z" fill="#26215C"/></svg>