<svg xmlns="http://www.w3.org/2000/svg" viewBox="0 0 1200 200" role="img" aria-label="Eine kleine Eisenbahn fährt in fester Reihenfolge über die Welle — zuerst die Lok, dann die Waggons">
<rect width="1200" height="200" fill="#EEEDFE"/>
<path d="M190,34 a24,24 0 1 0 0,40 a28,28 0 0 1 0,-40 Z" fill="#CECBF6"/>
<path d="M0,140 C180,126 380,150 600,138 C820,126 1020,148 1200,137 V200 H0 Z" fill="#534AB7"/>
<g>
<rect x="404" y="100" width="72" height="34" rx="5" fill="#26215C"/>
<rect x="500" y="100" width="72" height="34" rx="5" fill="#26215C"/>
<rect x="596" y="100" width="72" height="34" rx="5" fill="#26215C"/>
<line x1="476" y1="120" x2="500" y2="120" stroke="#26215C" stroke-width="6"/>
<line x1="572" y1="120" x2="596" y2="120" stroke="#26215C" stroke-width="6"/>
<line x1="668" y1="120" x2="692" y2="120" stroke="#26215C" stroke-width="6"/>
<path d="M692,134 L692,86 L730,86 L730,64 L762,64 L762,86 L786,86 C800,86 808,98 808,110 L808,134 Z" fill="#26215C"/>
<rect x="736" y="70" width="20" height="16" rx="3" fill="#26215C"/>
<rect x="700" y="94" width="22" height="20" rx="4" fill="#f3c46a"/>
<circle cx="426" cy="138" r="9" fill="#3C3489"/><circle cx="456" cy="138" r="9" fill="#3C3489"/>
<circle cx="522" cy="138" r="9" fill="#3C3489"/><circle cx="552" cy="138" r="9" fill="#3C3489"/>
<circle cx="618" cy="138" r="9" fill="#3C3489"/><circle cx="648" cy="138" r="9" fill="#3C3489"/>
<circle cx="714" cy="138" r="10" fill="#3C3489"/><circle cx="782" cy="138" r="10" fill="#3C3489"/>
<circle cx="774" cy="52" r="7" fill="#CECBF6"/>
<circle cx="790" cy="36" r="10" fill="#CECBF6"/>
<circle cx="812" cy="18" r="13" fill="#CECBF6"/>
</g>
<path d="M280,66 q10,-8 20,0 M312,54 q10,-8 20,0" fill="none" stroke="#534AB7" stroke-width="3" stroke-linecap="round"/>
<path d="M0,164 C210,154 440,176 660,164 C880,154 1050,174 1200,163 V200 H0 Z" fill="#3C3489"/>
<path d="M0,188 C240,180 500,196 760,189 C980,183 1110,193 1200,188 V200 H0 Z" fill="#26215C"/>
</svg>
