<svg xmlns="http://www.w3.org/2000/svg" viewBox="0 0 1200 200" role="img" aria-label="Kisten wandern der Reihe nach über die Rampe in den Umzugswagen — die goldene ist gleich an ihrem Platz">
<rect width="1200" height="200" fill="#EEEDFE"/>
<path d="M250,54 q10,-8 20,0 M284,42 q10,-8 20,0" fill="none" stroke="#534AB7" stroke-width="3" stroke-linecap="round"/>
<path d="M0,140 C220,130 480,150 740,141 C960,133 1110,145 1200,139 V200 H0 Z" fill="#AFA9EC"/>
<g fill="#26215C">
<rect x="760" y="58" width="190" height="82" rx="8"/>
<path d="M950,90 h44 a10,10 0 0 1 8,5 l16,26 v19 h-68 Z"/>
<circle cx="806" cy="146" r="15"/>
<circle cx="972" cy="146" r="15"/>
</g>
<circle cx="806" cy="146" r="6" fill="#AFA9EC"/>
<circle cx="972" cy="146" r="6" fill="#AFA9EC"/>
<path d="M758,140 L620,152 L758,116 Z" fill="#3C3489"/>
<g fill="#3C3489">
<rect x="240" y="118" width="34" height="26" rx="3"/>
<rect x="340" y="114" width="38" height="30" rx="3"/>
<rect x="448" y="110" width="42" height="34" rx="3"/>
<rect x="556" y="112" width="40" height="32" rx="3"/>
</g>
<g stroke="#AFA9EC" stroke-width="2.5">
<line x1="257" y1="118" x2="257" y2="144"/><line x1="359" y1="114" x2="359" y2="144"/><line x1="469" y1="110" x2="469" y2="144"/><line x1="576" y1="112" x2="576" y2="144"/>
</g>
<g transform="translate(668,96) rotate(-14)">
<rect x="-22" y="-16" width="44" height="32" rx="3" fill="#f3c46a"/>
<line x1="0" y1="-16" x2="0" y2="16" stroke="#EEEDFE" stroke-width="2.5"/>
</g>
<path d="M0,166 C240,156 500,176 760,167 C980,160 1120,170 1200,165 V200 H0 Z" fill="#3C3489"/>
<path d="M0,188 C260,182 520,196 780,190 C1000,185 1120,194 1200,191 V200 H0 Z" fill="#26215C"/>
</svg>
