<svg xmlns="http://www.w3.org/2000/svg" viewBox="0 0 1200 200" role="img" aria-label="Reihe von Satzgeruesten aus Pfosten und Balken"><rect width="1200" height="200" fill="#EEEDFE"/><circle cx="150" cy="60" r="24" fill="#f3c46a"/><path d="M0,132 C130,104 270,100 400,120 C470,131 560,128 680,128 L680,200 H0 Z" fill="#CECBF6"/><path d="M1200,132 C1070,104 930,100 800,120 C730,131 620,128 520,128 L520,200 H1200 Z" fill="#CECBF6"/><path d="M0,158 C300,144 600,166 900,156 C1050,151 1150,160 1200,156 L1200,200 H0 Z" fill="#7F77DD"/><rect x="200.0" y="94.0" width="16.0" height="58.0" rx="0" fill="#3C3489"/><rect x="282.0" y="94.0" width="16.0" height="58.0" rx="0" fill="#3C3489"/><rect x="194.0" y="82.0" width="110.0" height="16.0" rx="4" fill="#3C3489"/><rect x="328.0" y="80.0" width="16.0" height="72.0" rx="0" fill="#534AB7"/><rect x="410.0" y="80.0" width="16.0" height="72.0" rx="0" fill="#534AB7"/><rect x="322.0" y="68.0" width="110.0" height="16.0" rx="4" fill="#534AB7"/><rect x="456.0" y="66.0" width="16.0" height="86.0" rx="0" fill="#3C3489"/><rect x="538.0" y="66.0" width="16.0" height="86.0" rx="0" fill="#3C3489"/><rect x="450.0" y="54.0" width="110.0" height="16.0" rx="4" fill="#3C3489"/><rect x="584.0" y="94.0" width="16.0" height="58.0" rx="0" fill="#f3c46a"/><rect x="666.0" y="94.0" width="16.0" height="58.0" rx="0" fill="#f3c46a"/><rect x="578.0" y="82.0" width="110.0" height="16.0" rx="4" fill="#f3c46a"/><rect x="712.0" y="80.0" width="16.0" height="72.0" rx="0" fill="#3C3489"/><rect x="794.0" y="80.0" width="16.0" height="72.0" rx="0" fill="#3C3489"/><rect x="706.0" y="68.0" width="110.0" height="16.0" rx="4" fill="#3C3489"/><rect x="840.0" y="66.0" width="16.0" height="86.0" rx="0" fill="#534AB7"/><rect x="922.0" y="66.0" width="16.0" height="86.0" rx="0" fill="#534AB7"/><rect x="834.0" y="54.0" width="110.0" height="16.0" rx="4" fill="#534AB7"/><path d="M0,180 C300,170 600,188 900,178 C1050,173 1150,182 1200,178 L1200,200 H0 Z" fill="#26215C"/></svg>