<svg xmlns="http://www.w3.org/2000/svg" viewBox="0 0 1200 200" role="img" aria-label="Bausteine wachsen zu einem Haus über der Welle — der goldene Dachstein schwebt noch heran">
<rect width="1200" height="200" fill="#EEEDFE"/>
<circle cx="880" cy="44" r="24" fill="#CECBF6"/>
<g>
<rect x="500" y="112" width="64" height="30" rx="3" fill="#534AB7"/>
<rect x="568" y="112" width="64" height="30" rx="3" fill="#534AB7"/>
<rect x="516" y="80" width="64" height="30" rx="3" fill="#7F77DD"/>
<rect x="584" y="80" width="48" height="30" rx="3" fill="#7F77DD"/>
<rect x="540" y="48" width="64" height="30" rx="3" fill="#AFA9EC"/>
</g>
<path d="M528,48 L604,48 L566,20 Z" fill="#f3c46a"/>
<path d="M566,20 L566,8" stroke="#26215C" stroke-width="2" stroke-linecap="round"/>
<line x1="640" y1="6" x2="640" y2="120" stroke="#26215C" stroke-width="6" stroke-linecap="round"/>
<line x1="640" y1="10" x2="576" y2="10" stroke="#26215C" stroke-width="5" stroke-linecap="round"/>
<line x1="580" y1="10" x2="580" y2="28" stroke="#26215C" stroke-width="2"/>
<path d="M300,104 q10,-8 20,0 M332,94 q10,-8 20,0" fill="none" stroke="#534AB7" stroke-width="3" stroke-linecap="round"/>
<path d="M0,150 C190,132 400,164 620,150 C840,136 1020,166 1200,150 V200 H0 Z" fill="#3C3489"/>
<path d="M0,180 C240,166 480,192 720,178 C940,166 1090,188 1200,178 V200 H0 Z" fill="#26215C"/>
</svg>