<svg xmlns="http://www.w3.org/2000/svg" viewBox="0 0 1200 200" role="img" aria-label="Gewichtsscheiben wachsen Stück für Stück zu einem Turm — Aufbau"><rect width="1200" height="200" fill="#EEEDFE"/><path d="M170,40 a24,24 0 1 0 0,44 a28,28 0 0 1 0,-44 Z" fill="#CECBF6"/><rect x="470" y="128" width="150" height="26" rx="13" fill="#534AB7"/><rect x="488" y="100" width="150" height="26" rx="13" fill="#7F77DD"/><rect x="506" y="72" width="150" height="26" rx="13" fill="#AFA9EC"/><rect x="524" y="46" width="120" height="22" rx="11" fill="#f3c46a"/><path d="M300,96 q10,-8 20,0 M330,86 q10,-8 20,0" fill="none" stroke="#534AB7" stroke-width="3" stroke-linecap="round"/><path d="M0,150 C200,134 420,166 640,150 C860,134 1040,166 1200,150 V200 H0 Z" fill="#3C3489"/><path d="M0,180 C240,166 480,192 720,178 C940,166 1090,188 1200,178 V200 H0 Z" fill="#26215C"/></svg>