<svg xmlns="http://www.w3.org/2000/svg" viewBox="0 0 1200 200" role="img" aria-label="Breite Dominoreihe fuer den Satzbau"><rect width="1200" height="200" fill="#EEEDFE"/><circle cx="150" cy="60" r="24" fill="#f3c46a"/><path d="M0,132 C130,104 270,100 400,120 C470,131 560,128 680,128 L680,200 H0 Z" fill="#CECBF6"/><path d="M1200,132 C1070,104 930,100 800,120 C730,131 620,128 520,128 L520,200 H1200 Z" fill="#CECBF6"/><path d="M0,158 C300,144 600,166 900,156 C1050,151 1150,160 1200,156 L1200,200 H0 Z" fill="#7F77DD"/><rect x="192.0" y="78.0" width="16.0" height="74.0" rx="3" fill="#3C3489"/><rect x="282.0" y="78.0" width="16.0" height="74.0" rx="3" fill="#26215C"/><rect x="372.0" y="78.0" width="16.0" height="74.0" rx="3" fill="#3C3489"/><rect x="462.0" y="78.0" width="16.0" height="74.0" rx="3" fill="#26215C"/><rect x="552.0" y="78.0" width="16.0" height="74.0" rx="3" fill="#3C3489"/><rect x="642.0" y="78.0" width="16.0" height="74.0" rx="3" fill="#26215C"/><rect x="732.0" y="78.0" width="16.0" height="74.0" rx="3" fill="#3C3489"/><rect x="822.0" y="78.0" width="16.0" height="74.0" rx="3" fill="#26215C"/><g transform="translate(920,152) rotate(20)"><rect x="-8" y="-74" width="16" height="74" rx="3" fill="#f3c46a"/></g><path d="M0,180 C300,170 600,188 900,178 C1050,173 1150,182 1200,178 L1200,200 H0 Z" fill="#26215C"/></svg>