<svg xmlns="http://www.w3.org/2000/svg" viewBox="0 0 1200 200" role="img" aria-label="Sprechblasen stapeln sich wie Bausteine zu einem Turm — die oberste leuchtet golden">
<rect width="1200" height="200" fill="#EEEDFE"/>
<path d="M200,120 L300,86 L400,120 Z" fill="#CECBF6"/><path d="M300,74 q10,-8 20,0 M330,62 q10,-8 20,0" fill="none" stroke="#534AB7" stroke-width="3" stroke-linecap="round"/><path d="M560,118 h120 a8,8 0 0 1 8,8 v20 a8,8 0 0 1 -8,8 h-84 l-14,14 v-14 h-22 a8,8 0 0 1 -8,-8 v-20 a8,8 0 0 1 8,-8 Z" fill="#534AB7"/><path d="M582,86 h92 a8,8 0 0 1 8,8 v18 a8,8 0 0 1 -8,8 h-92 a8,8 0 0 1 -8,-8 v-18 a8,8 0 0 1 8,-8 Z" fill="#7F77DD"/><path d="M600,54 h60 a8,8 0 0 1 8,8 v16 a8,8 0 0 1 -8,8 h-60 a8,8 0 0 1 -8,-8 v-16 a8,8 0 0 1 8,-8 Z" fill="#f3c46a"/><circle cx="616" cy="70" r="3" fill="#26215C"/><circle cx="630" cy="70" r="3" fill="#26215C"/><circle cx="644" cy="70" r="3" fill="#26215C"/><path d="M0,128 C150,106 330,142 510,126 C710,108 910,144 1110,128 C1155,124 1185,128 1200,125 V200 H0 Z" fill="#534AB7"/>
<path d="M0,152 C190,134 400,166 620,152 C840,138 1020,168 1200,152 V200 H0 Z" fill="#3C3489"/>
<path d="M0,180 C240,166 500,192 760,178 C980,166 1110,188 1200,178 V200 H0 Z" fill="#26215C"/>

</svg>
