<svg xmlns="http://www.w3.org/2000/svg" viewBox="0 0 1200 200" role="img" aria-label="Über dem Kochtopf fallen Zutaten Schicht für Schicht hinein — eine goldene Blase steigt auf">
<rect width="1200" height="200" fill="#EEEDFE"/>
<path d="M200,120 L300,84 L400,120 Z" fill="#CECBF6"/><path d="M300,72 q10,-8 20,0 M330,60 q10,-8 20,0" fill="none" stroke="#534AB7" stroke-width="3" stroke-linecap="round"/><circle cx="628" cy="50" r="9" fill="#AFA9EC"/><rect x="656" y="46" width="16" height="12" rx="3" fill="#7F77DD"/><circle cx="600" cy="66" r="7" fill="#7F77DD"/><path d="M566,96 L714,96 L704,146 L576,146 Z" fill="#3C3489"/><rect x="558" y="90" width="164" height="10" rx="4" fill="#534AB7"/><rect x="540" y="88" width="18" height="8" rx="3" fill="#534AB7"/><rect x="722" y="88" width="18" height="8" rx="3" fill="#534AB7"/><circle cx="640" cy="112" r="8" fill="#f3c46a"/><path d="M0,128 C150,106 330,142 510,126 C710,108 910,144 1110,128 C1155,124 1185,128 1200,125 V200 H0 Z" fill="#534AB7"/>
<path d="M0,152 C190,134 400,166 620,152 C840,138 1020,168 1200,152 V200 H0 Z" fill="#3C3489"/>
<path d="M0,180 C240,166 500,192 760,178 C980,166 1110,188 1200,178 V200 H0 Z" fill="#26215C"/>

</svg>
