<svg xmlns="http://www.w3.org/2000/svg" viewBox="0 0 1200 200" role="img" aria-label="Zwei Ereignis-Bausteine auf dem Zeitstrahl: der fruehere goldene Block wird VOR den spaeteren gesetzt">
<rect width="1200" height="200" fill="#EEEDFE"/>
<line x1="150" y1="150" x2="1050" y2="150" stroke="#AFA9EC" stroke-width="3"/>
<g stroke="#AFA9EC" stroke-width="3"><line x1="360" y1="144" x2="360" y2="156"/><line x1="600" y1="144" x2="600" y2="156"/><line x1="840" y1="144" x2="840" y2="156"/></g>
<path d="M1030,150 l18,-6 v12 Z" fill="#AFA9EC"/>
<rect x="510" y="108" width="86" height="42" rx="5" fill="#534AB7"/>
<rect x="330" y="70" width="86" height="42" rx="5" fill="#f3c46a"/>
<path d="M416,91 l40,0 M446,83 l12,8 l-12,8" fill="none" stroke="#26215C" stroke-width="3" stroke-linecap="round" stroke-linejoin="round"/>
<circle cx="373" cy="55" r="18" fill="none" stroke="#3C3489" stroke-width="3"/><line x1="373" y1="55" x2="373" y2="44" stroke="#3C3489" stroke-width="3"/><line x1="373" y1="55" x2="381" y2="60" stroke="#3C3489" stroke-width="3"/>
<path d="M0,158 C210,146 440,172 680,160 C880,150 1030,170 1200,160 V200 H0 Z" fill="#3C3489"/>
<path d="M0,182 C240,172 500,196 760,184 C980,174 1100,190 1200,184 V200 H0 Z" fill="#26215C"/>
</svg>