<svg xmlns="http://www.w3.org/2000/svg" viewBox="0 0 1200 200" role="img" aria-label="Eine Reihe Wort-Rahmen ueber die Breite, der mittlere Querbalken golden"><rect width="1200" height="200" fill="#EEEDFE"/><circle cx="190" cy="60" r="24" fill="#f3c46a"/><path d="M0,132 C130,104 270,100 400,120 C470,131 560,128 680,128 L680,200 H0 Z" fill="#CECBF6"/><path d="M1200,132 C1070,104 930,100 800,120 C730,131 620,128 520,128 L520,200 H1200 Z" fill="#CECBF6"/><path d="M0,158 C300,144 600,166 900,156 C1050,151 1150,160 1200,156 L1200,200 H0 Z" fill="#7F77DD"/><path d="M150,50 q7,-7 14,0" stroke="#534AB7" stroke-width="2.6" fill="none"/><path d="M166,53 q7,-7 14,0" stroke="#534AB7" stroke-width="2.6" fill="none"/><rect x="208" y="78" width="4" height="72" fill="#3C3489"/><rect x="288" y="78" width="4" height="72" fill="#3C3489"/><rect x="208" y="78" width="84" height="6" fill="#3C3489"/><rect x="388" y="66" width="4" height="84" fill="#26215C"/><rect x="468" y="66" width="4" height="84" fill="#26215C"/><rect x="388" y="66" width="84" height="6" fill="#26215C"/><rect x="568" y="56" width="4" height="94" fill="#3C3489"/><rect x="648" y="56" width="4" height="94" fill="#3C3489"/><rect x="568" y="56" width="84" height="6" fill="#f3c46a"/><rect x="748" y="66" width="4" height="84" fill="#26215C"/><rect x="828" y="66" width="4" height="84" fill="#26215C"/><rect x="748" y="66" width="84" height="6" fill="#26215C"/><rect x="928" y="78" width="4" height="72" fill="#3C3489"/><rect x="1008" y="78" width="4" height="72" fill="#3C3489"/><rect x="928" y="78" width="84" height="6" fill="#3C3489"/><path d="M0,180 C300,170 600,188 900,178 C1050,173 1150,182 1200,178 L1200,200 H0 Z" fill="#26215C"/></svg>