<svg xmlns="http://www.w3.org/2000/svg" viewBox="0 0 1200 200" role="img" aria-label="Ein Turm aus Bausteinen auf der Welle — der goldene Schlussstein schwebt noch">
<rect width="1200" height="200" fill="#EEEDFE"/>
<path d="M160,150 L300,104 L450,150 Z" fill="#CECBF6"/>
<path d="M850,60 q10,-8 20,0 M882,48 q10,-8 20,0" fill="none" stroke="#534AB7" stroke-width="3" stroke-linecap="round"/>
<g>
<rect x="540" y="122" width="120" height="26" rx="3" fill="#26215C"/>
<rect x="556" y="94" width="88" height="26" rx="3" fill="#3C3489"/>
<rect x="572" y="66" width="56" height="26" rx="3" fill="#534AB7"/>
</g>
<rect x="584" y="22" width="32" height="24" rx="3" fill="#f3c46a" transform="rotate(-8 600 34)"/>
<path d="M0,150 C190,142 400,158 620,149 C840,142 1030,156 1200,148 V200 H0 Z" fill="#534AB7"/>
<circle cx="900" cy="160" r="3" fill="#AFA9EC"/>
<path d="M0,170 C220,162 450,180 670,170 C890,162 1060,176 1200,169 V200 H0 Z" fill="#3C3489"/>
<path d="M0,190 C240,185 500,197 760,191 C980,187 1120,195 1200,191 V200 H0 Z" fill="#26215C"/>
</svg>
