<svg xmlns="http://www.w3.org/2000/svg" viewBox="0 0 1200 200" role="img" aria-label="Aufsteigende Bausteintreppe fuer den Satzbau"><rect width="1200" height="200" fill="#EEEDFE"/><circle cx="190" cy="60" r="24" fill="#f3c46a"/><path d="M0,132 C130,104 270,100 400,120 C470,131 560,128 680,128 L680,200 H0 Z" fill="#CECBF6"/><path d="M1200,132 C1070,104 930,100 800,120 C730,131 620,128 520,128 L520,200 H1200 Z" fill="#CECBF6"/><path d="M0,158 C300,144 600,166 900,156 C1050,151 1150,160 1200,156 L1200,200 H0 Z" fill="#7F77DD"/><rect x="200.0" y="132.0" width="112.0" height="20.0" rx="4" fill="#534AB7"/><rect x="336.0" y="132.0" width="112.0" height="20.0" rx="4" fill="#534AB7"/><rect x="336.0" y="110.0" width="112.0" height="20.0" rx="4" fill="#3C3489"/><rect x="472.0" y="132.0" width="112.0" height="20.0" rx="4" fill="#534AB7"/><rect x="472.0" y="110.0" width="112.0" height="20.0" rx="4" fill="#3C3489"/><rect x="472.0" y="88.0" width="112.0" height="20.0" rx="4" fill="#534AB7"/><rect x="608.0" y="132.0" width="112.0" height="20.0" rx="4" fill="#534AB7"/><rect x="608.0" y="110.0" width="112.0" height="20.0" rx="4" fill="#3C3489"/><rect x="608.0" y="88.0" width="112.0" height="20.0" rx="4" fill="#534AB7"/><rect x="608.0" y="66.0" width="112.0" height="20.0" rx="4" fill="#3C3489"/><rect x="744.0" y="132.0" width="112.0" height="20.0" rx="4" fill="#534AB7"/><rect x="744.0" y="110.0" width="112.0" height="20.0" rx="4" fill="#3C3489"/><rect x="744.0" y="88.0" width="112.0" height="20.0" rx="4" fill="#534AB7"/><rect x="744.0" y="66.0" width="112.0" height="20.0" rx="4" fill="#3C3489"/><rect x="744.0" y="44.0" width="112.0" height="20.0" rx="4" fill="#534AB7"/><rect x="880.0" y="132.0" width="112.0" height="20.0" rx="4" fill="#534AB7"/><rect x="880.0" y="110.0" width="112.0" height="20.0" rx="4" fill="#3C3489"/><rect x="880.0" y="88.0" width="112.0" height="20.0" rx="4" fill="#534AB7"/><rect x="880.0" y="66.0" width="112.0" height="20.0" rx="4" fill="#3C3489"/><rect x="880.0" y="44.0" width="112.0" height="20.0" rx="4" fill="#534AB7"/><rect x="880.0" y="22.0" width="112.0" height="20.0" rx="4" fill="#3C3489"/><rect x="880.0" y="22.0" width="112.0" height="20.0" rx="4" fill="#f3c46a"/><path d="M0,180 C300,170 600,188 900,178 C1050,173 1150,182 1200,178 L1200,200 H0 Z" fill="#26215C"/></svg>