<svg xmlns="http://www.w3.org/2000/svg" viewBox="0 0 1200 200" role="img" aria-label="Ein Steg wächst Planke für Planke über das Wasser — die goldene Planke schwebt noch">
<rect width="1200" height="200" fill="#EEEDFE"/>
<path d="M0,112 C120,104 240,110 340,122 C400,130 440,140 480,152 L480,200 L0,200 Z" fill="#AFA9EC"/>
<g fill="#26215C">
<rect x="404" y="124" width="9" height="52"/>
<rect x="494" y="124" width="9" height="56"/>
<rect x="584" y="124" width="9" height="60"/>
<rect x="674" y="124" width="9" height="64"/>
</g>
<g fill="#3C3489">
<rect x="332" y="112" width="58" height="13" rx="3"/>
<rect x="396" y="112" width="58" height="13" rx="3"/>
<rect x="460" y="112" width="58" height="13" rx="3"/>
<rect x="524" y="112" width="58" height="13" rx="3"/>
<rect x="588" y="112" width="58" height="13" rx="3"/>
<rect x="652" y="112" width="58" height="13" rx="3"/>
</g>
<rect x="722" y="86" width="58" height="13" rx="3" fill="#f3c46a" transform="rotate(10 751 92)"/>
<circle cx="746" cy="140" r="3.5" fill="#534AB7"/>
<circle cx="770" cy="148" r="2.5" fill="#534AB7"/>
<path d="M880,52 q10,-8 20,0 M912,40 q10,-8 20,0" fill="none" stroke="#534AB7" stroke-width="3" stroke-linecap="round"/>
<path d="M0,152 C220,140 470,164 700,152 C920,142 1080,162 1200,152 V200 H0 Z" fill="#534AB7"/>
<path d="M0,171 C240,159 500,183 760,171 C980,159 1110,179 1200,169 V200 H0 Z" fill="#3C3489"/>
<path d="M0,189 C240,181 500,199 760,189 C980,181 1110,195 1200,188 V200 H0 Z" fill="#26215C"/>
</svg>
