<svg xmlns="http://www.w3.org/2000/svg" viewBox="0 0 1200 200" role="img" aria-label="Eine Schichttorte baut sich Lage um Lage auf der Welle — die oberste Lage leuchtet golden">
<rect width="1200" height="200" fill="#EEEDFE"/>
<path d="M780,120 L880,82 L980,120 Z" fill="#CECBF6"/><path d="M300,72 q10,-8 20,0 M330,60 q10,-8 20,0" fill="none" stroke="#534AB7" stroke-width="3" stroke-linecap="round"/><rect x="558" y="120" width="150" height="24" rx="5" fill="#534AB7"/><rect x="572" y="96" width="122" height="22" rx="5" fill="#7F77DD"/><rect x="586" y="74" width="94" height="20" rx="5" fill="#AFA9EC"/><rect x="600" y="54" width="66" height="18" rx="5" fill="#f3c46a"/><circle cx="633" cy="46" r="5" fill="#26215C"/><line x1="633" y1="46" x2="633" y2="54" stroke="#26215C" stroke-width="2"/><path d="M0,128 C150,106 330,142 510,126 C710,108 910,144 1110,128 C1155,124 1185,128 1200,125 V200 H0 Z" fill="#534AB7"/>
<path d="M0,152 C190,134 400,166 620,152 C840,138 1020,168 1200,152 V200 H0 Z" fill="#3C3489"/>
<path d="M0,180 C240,166 500,192 760,178 C980,166 1110,188 1200,178 V200 H0 Z" fill="#26215C"/>

</svg>
