<svg xmlns="http://www.w3.org/2000/svg" viewBox="0 0 1200 200" role="img" aria-label="Eine Satz-Mauer aus Bausteinen, ein goldener Baustein wird gesetzt"><rect width="1200" height="200" fill="#EEEDFE"/><circle cx="190" cy="60" r="24" fill="#f3c46a"/><path d="M0,132 C130,104 270,100 400,120 C470,131 560,128 680,128 L680,200 H0 Z" fill="#CECBF6"/><path d="M1200,132 C1070,104 930,100 800,120 C730,131 620,128 520,128 L520,200 H1200 Z" fill="#CECBF6"/><path d="M0,158 C300,144 600,166 900,156 C1050,151 1150,160 1200,156 L1200,200 H0 Z" fill="#7F77DD"/><path d="M430,48 q7,-7 14,0" stroke="#534AB7" stroke-width="2.6" fill="none"/><path d="M446,51 q7,-7 14,0" stroke="#534AB7" stroke-width="2.6" fill="none"/><rect x="196" y="133" width="76" height="17" rx="2" fill="#534AB7"/><rect x="278" y="133" width="76" height="17" rx="2" fill="#3C3489"/><rect x="360" y="133" width="76" height="17" rx="2" fill="#26215C"/><rect x="442" y="133" width="76" height="17" rx="2" fill="#534AB7"/><rect x="524" y="133" width="76" height="17" rx="2" fill="#3C3489"/><rect x="606" y="133" width="76" height="17" rx="2" fill="#26215C"/><rect x="688" y="133" width="76" height="17" rx="2" fill="#534AB7"/><rect x="770" y="133" width="76" height="17" rx="2" fill="#3C3489"/><rect x="852" y="133" width="76" height="17" rx="2" fill="#26215C"/><rect x="934" y="133" width="76" height="17" rx="2" fill="#534AB7"/><rect x="237" y="113" width="76" height="17" rx="2" fill="#3C3489"/><rect x="319" y="113" width="76" height="17" rx="2" fill="#26215C"/><rect x="401" y="113" width="76" height="17" rx="2" fill="#534AB7"/><rect x="565" y="113" width="76" height="17" rx="2" fill="#26215C"/><rect x="647" y="113" width="76" height="17" rx="2" fill="#534AB7"/><rect x="729" y="113" width="76" height="17" rx="2" fill="#3C3489"/><rect x="811" y="113" width="76" height="17" rx="2" fill="#26215C"/><rect x="893" y="113" width="76" height="17" rx="2" fill="#534AB7"/><rect x="483" y="83" width="76" height="17" rx="2" fill="#f3c46a"/><path d="M0,180 C300,170 600,188 900,178 C1050,173 1150,182 1200,178 L1200,200 H0 Z" fill="#26215C"/></svg>