<svg xmlns="http://www.w3.org/2000/svg" viewBox="0 0 1200 200" role="img" aria-label="Ein Segelboot auf der Welle — der Mast ist ein Füller, das Segel ein beschriebenes Blatt">
<rect width="1200" height="200" fill="#EEEDFE"/>
<g transform="translate(600,0)">
<rect x="-9" y="42" width="18" height="76" rx="4" fill="#26215C"/>
<path d="M0,10 C-8,20 -9,32 -9,44 L9,44 C9,32 8,20 0,10 Z" fill="#3C3489"/>
<circle cx="0" cy="30" r="3.5" fill="#EEEDFE"/>
<line x1="0" y1="34" x2="0" y2="42" stroke="#EEEDFE" stroke-width="2.5"/>
<path d="M13,44 L13,114 L102,114 Z" fill="#CECBF6"/>
<g stroke="#534AB7" stroke-width="4" stroke-linecap="round">
<path d="M22,66 L48,66"/>
<path d="M22,82 L60,82"/>
<path d="M22,98 L74,98"/>
</g>
<path d="M-9,16 L-42,26 L-9,34 Z" fill="#f3c46a"/>
<path d="M-76,122 L88,122 L60,152 L-54,152 Z" fill="#26215C"/>
</g>
<path d="M300,44 q11,-9 22,0 M336,56 q9,-8 18,0" fill="none" stroke="#534AB7" stroke-width="3" stroke-linecap="round"/>
<path d="M0,154 C210,144 440,164 660,154 C880,143 1050,162 1200,154 V200 H0 Z" fill="#7F77DD"/>
<path d="M0,172 C240,164 500,186 740,173 C950,164 1100,182 1200,172 V200 H0 Z" fill="#3C3489"/>
<path d="M0,189 C260,183 540,199 800,188 C1010,183 1140,194 1200,189 V200 H0 Z" fill="#26215C"/>
</svg>
