<svg xmlns="http://www.w3.org/2000/svg" viewBox="0 0 1200 200" role="img" aria-label="Eine Gabel zeichnet die vordere Welle — an ihrer Spitze glänzt der goldene Punkt">
<rect width="1200" height="200" fill="#EEEDFE"/>
<path d="M0,128 C130,110 280,138 430,126 C540,117 620,126 696,123 L700,123 L700,200 L0,200 Z" fill="#7F77DD"/><path d="M0,128 C130,110 280,138 430,126 C540,117 620,126 698,123" fill="none" stroke="#534AB7" stroke-width="4" stroke-linecap="round"/><circle cx="700" cy="123" r="6" fill="#f3c46a"/><g transform="translate(700,123) rotate(-32)"><rect x="-7" y="-60" width="14" height="46" rx="5" fill="#26215C"/><path d="M-16,-96 L-16,-64 Q-16,-54 -7,-54 L7,-54 Q16,-54 16,-64 L16,-96" fill="none" stroke="#26215C" stroke-width="5"/><line x1="-8" y1="-96" x2="-8" y2="-64" stroke="#26215C" stroke-width="4"/><line x1="8" y1="-96" x2="8" y2="-64" stroke="#26215C" stroke-width="4"/></g><circle cx="662" cy="140" r="4" fill="#26215C"/><circle cx="640" cy="150" r="3" fill="#3C3489"/><path d="M0,158 C200,142 420,170 640,156 C860,144 1040,168 1200,156 V200 H0 Z" fill="#3C3489"/><path d="M0,182 C240,170 500,194 760,181 C980,170 1110,188 1200,180 V200 H0 Z" fill="#26215C"/>
</svg>
