<svg xmlns="http://www.w3.org/2000/svg" viewBox="0 0 1200 200" role="img" aria-label="Ein Stift zeichnet die Linie des Ernährungsplans, die zur Welle wird — ein goldener Haken bestätigt sie">
<rect width="1200" height="200" fill="#EEEDFE"/>
<path d="M0,130 C140,112 300,140 470,128 C560,121 640,128 706,125 L710,125 L710,200 L0,200 Z" fill="#7F77DD"/><path d="M0,130 C140,112 300,140 470,128 C560,121 640,128 708,125" fill="none" stroke="#534AB7" stroke-width="4" stroke-linecap="round"/><path d="M690,120 l8,8 l16,-20" fill="none" stroke="#f3c46a" stroke-width="5" stroke-linecap="round" stroke-linejoin="round"/><g transform="translate(710,125) rotate(-36)"><path d="M0,0 L-12,-20 L12,-20 Z" fill="#26215C"/><rect x="-12" y="-72" width="24" height="52" rx="4" fill="#534AB7"/><rect x="-12" y="-84" width="24" height="14" rx="4" fill="#3C3489"/></g><path d="M0,158 C200,142 420,170 640,156 C860,144 1040,168 1200,156 V200 H0 Z" fill="#3C3489"/><path d="M0,182 C240,170 500,194 760,181 C980,170 1110,188 1200,180 V200 H0 Z" fill="#26215C"/>
</svg>
