<svg xmlns="http://www.w3.org/2000/svg" viewBox="0 0 1200 200" role="img" aria-label="Segelboot mit langem Wimpel und Kielwasser"><rect width="1200" height="200" fill="#EEEDFE"/><circle cx="200" cy="60" r="24" fill="#f3c46a"/><path d="M0,132 C130,104 270,100 400,120 C470,131 560,128 680,128 L680,200 H0 Z" fill="#CECBF6"/><path d="M1200,132 C1070,104 930,100 800,120 C730,131 620,128 520,128 L520,200 H1200 Z" fill="#CECBF6"/><path d="M0,158 C300,144 600,166 900,156 C1050,151 1150,160 1200,156 L1200,200 H0 Z" fill="#7F77DD"/><path d="M745,148 q30,-4 60,0 q30,4 60,0 q30,-4 60,0 q30,4 60,0" fill="none" stroke="#7F77DD" stroke-width="3" stroke-linecap="round" opacity=".8"/><path d="M745,156 q30,-4 60,0 q30,4 60,0 q30,-4 60,0 q30,4 60,0" fill="none" stroke="#7F77DD" stroke-width="3" stroke-linecap="round" opacity=".8"/><path d="M470,140 L732,140 L702,158 L500,158 Z" fill="#26215C"/><rect x="597.0" y="58.0" width="6.0" height="82.0" rx="0" fill="#3C3489"/><polygon points="604,60 604,138 694,138" fill="#7F77DD"/><polygon points="594,66 594,138 522,138" fill="#534AB7"/><polygon points="600,58 350,64 372,74 600,72" fill="#f3c46a"/><path d="M0,180 C300,170 600,188 900,178 C1050,173 1150,182 1200,178 L1200,200 H0 Z" fill="#26215C"/></svg>