<svg xmlns="http://www.w3.org/2000/svg" viewBox="0 0 1200 200" role="img" aria-label="Leuchtturm mit weitem Lichtstrahl ueber das Ufer"><rect width="1200" height="200" fill="#EEEDFE"/><circle cx="190" cy="60" r="24" fill="#f3c46a"/><path d="M0,132 C130,104 270,100 400,120 C470,131 560,128 680,128 L680,200 H0 Z" fill="#CECBF6"/><path d="M1200,132 C1070,104 930,100 800,120 C730,131 620,128 520,128 L520,200 H1200 Z" fill="#CECBF6"/><path d="M0,158 C300,144 600,166 900,156 C1050,151 1150,160 1200,156 L1200,200 H0 Z" fill="#7F77DD"/><polygon points="256,66 1012,84 1012,126 256,86" fill="#f3c46a" opacity=".5"/><polygon points="230,152 288,152 300,162 218,162" fill="#26215C"/><polygon points="244,152 274,152 268,74 250,74" fill="#534AB7"/><polygon points="252,120 266,120 265,104 253,104" fill="#CECBF6"/><polygon points="248,98 270,98 269,86 249,86" fill="#CECBF6"/><rect x="246.0" y="60.0" width="26.0" height="16.0" rx="3" fill="#3C3489"/><polygon points="252,60 266,60 259,50" fill="#3C3489"/><rect x="896.0" y="134.0" width="10.0" height="18.0" rx="0" fill="#3C3489"/><path d="M878,134 a23,10 0 0,0 46,0 z" fill="#534AB7"/><path d="M0,180 C300,170 600,188 900,178 C1050,173 1150,182 1200,178 L1200,200 H0 Z" fill="#26215C"/></svg>