<svg xmlns="http://www.w3.org/2000/svg" viewBox="0 0 1200 200" role="img" aria-label="Ein Bleistift zeichnet die Brücke zwischen zwei Ufern — die gezeichnete Linie trägt">
<rect width="1200" height="200" fill="#EEEDFE"/>
<path d="M0,116 C120,106 260,120 380,112 C440,108 470,114 486,118 L486,200 H0 Z" fill="#534AB7"/>
<path d="M724,118 C790,112 880,120 980,112 C1080,106 1150,114 1200,110 L1200,200 H724 Z" fill="#534AB7"/>
<path d="M478,116 C550,98 660,98 730,114" fill="none" stroke="#26215C" stroke-width="8" stroke-linecap="round"/>
<g stroke="#3C3489" stroke-width="5" stroke-linecap="round">
<path d="M528,106 L528,146"/>
<path d="M574,102 L574,150"/>
<path d="M626,101 L626,150"/>
<path d="M676,105 L676,146"/>
</g>
<circle cx="604" cy="102" r="8" fill="#f3c46a"/>
<g transform="translate(730,114) rotate(-50)">
<path d="M0,0 L-8,-20 L8,-20 Z" fill="#26215C"/>
<path d="M0,0 L-3.5,-9 L3.5,-9 Z" fill="#3C3489"/>
<rect x="-8" y="-88" width="16" height="68" rx="2" fill="#3C3489"/>
<rect x="-8" y="-100" width="16" height="12" rx="4" fill="#26215C"/>
</g>
<path d="M240,50 q11,-9 22,0 M276,62 q9,-8 18,0" fill="none" stroke="#534AB7" stroke-width="3" stroke-linecap="round"/>
<path d="M486,118 C560,132 660,132 724,118 L724,200 L486,200 Z" fill="#7F77DD"/>
<path d="M0,164 C210,155 440,174 660,164 C880,155 1050,172 1200,164 V200 H0 Z" fill="#3C3489"/>
<path d="M0,187 C260,181 540,198 800,188 C1010,182 1140,194 1200,188 V200 H0 Z" fill="#26215C"/>
</svg>
