<svg xmlns="http://www.w3.org/2000/svg" viewBox="0 0 1200 200" role="img" aria-label="Ein gekipptes Tintenfass gießt die dunkelste Welle aus — ein goldener Tropfen fällt">
<rect width="1200" height="200" fill="#EEEDFE"/>
<path d="M150,46 q10,-8 20,0 M184,35 q10,-8 20,0" fill="none" stroke="#534AB7" stroke-width="3" stroke-linecap="round"/>
<g transform="rotate(48 420 100)">
<path d="M382,64 L458,64 L464,78 L464,124 C464,131 458,136 451,136 L389,136 C382,136 376,131 376,124 L376,78 Z" fill="#3C3489"/>
<rect x="396" y="50" width="48" height="16" rx="4" fill="#26215C"/>
</g>
<path d="M452,124 C470,130 484,142 492,158 L466,158 C462,144 456,132 452,124 Z" fill="#26215C"/>
<path d="M516,120 C511,130 511,137 516,142 C521,137 521,130 516,120 Z" fill="#f3c46a"/>
<path d="M0,146 C180,136 380,156 600,146 C820,136 1030,158 1200,146 V200 H0 Z" fill="#7F77DD"/>
<path d="M0,170 C230,160 470,180 690,170 C910,160 1070,180 1200,169 V200 H0 Z" fill="#3C3489"/>
<path d="M462,200 C468,172 500,156 560,154 C740,148 960,166 1200,156 V200 Z" fill="#26215C"/>
</svg>
