<svg xmlns="http://www.w3.org/2000/svg" viewBox="0 0 1200 200" role="img" aria-label="Ein Löffel zieht die geschwungene Rezept-Linie, die zur Welle wird — an der Spitze glänzt Gold">
<rect width="1200" height="200" fill="#EEEDFE"/>
<path d="M0,130 C150,112 320,140 500,128 C600,121 660,128 706,125 L710,125 L710,200 L0,200 Z" fill="#7F77DD"/><path d="M0,130 C150,112 320,140 500,128 C600,121 660,128 708,125" fill="none" stroke="#534AB7" stroke-width="4" stroke-linecap="round"/><circle cx="710" cy="125" r="6" fill="#f3c46a"/><g transform="translate(710,125) rotate(-34)"><rect x="-5" y="-58" width="10" height="46" rx="4" fill="#26215C"/><ellipse cx="0" cy="-72" rx="15" ry="20" fill="#26215C"/><ellipse cx="0" cy="-72" rx="9" ry="13" fill="#534AB7"/></g><path d="M0,158 C200,142 420,170 640,156 C860,144 1040,168 1200,156 V200 H0 Z" fill="#3C3489"/><path d="M0,182 C240,170 500,194 760,181 C980,170 1110,188 1200,180 V200 H0 Z" fill="#26215C"/>
</svg>
