<svg xmlns="http://www.w3.org/2000/svg" viewBox="0 0 1200 200" role="img" aria-label="Ein Bleistift als Leuchtturm — sein goldenes Licht weist über das Meer">
<rect width="1200" height="200" fill="#EEEDFE"/>
<path d="M0,138 C200,124 420,148 640,136 C860,124 1040,148 1200,136 V200 H0 Z" fill="#534AB7"/>
<path d="M316,22 L860,84 L860,128 L316,42 Z" fill="#f3c46a" opacity="0.5"/>
<path d="M240,200 L250,138 C280,128 330,128 360,138 L370,200 Z" fill="#26215C"/>
<g>
<path d="M286,132 L286,58 L324,58 L324,132 Z" fill="#534AB7"/>
<rect x="286" y="74" width="38" height="10" fill="#AFA9EC"/>
<rect x="286" y="104" width="38" height="10" fill="#AFA9EC"/>
<path d="M286,58 L305,18 L324,58 Z" fill="#7F77DD"/>
<path d="M297,42 L305,26 L313,42 Z" fill="#26215C"/>
<rect x="280" y="128" width="50" height="10" rx="3" fill="#26215C"/>
</g>
<circle cx="305" cy="30" r="8" fill="#f3c46a"/>
<g fill="#26215C">
<path d="M770,114 C780,104 806,102 818,108 L830,114 L828,122 L766,122 Z"/>
<path d="M796,106 L796,90 L800,90 L800,106 Z"/>
</g>
<path d="M920,52 q10,-8 20,0 M950,40 q10,-8 20,0" fill="none" stroke="#534AB7" stroke-width="3" stroke-linecap="round"/>
<circle cx="420" cy="150" r="3" fill="#26215C"/>
<circle cx="450" cy="158" r="2.4" fill="#3C3489"/>
<path d="M0,162 C210,150 440,174 660,162 C880,150 1050,172 1200,161 V200 H0 Z" fill="#3C3489"/>
<path d="M0,186 C240,176 500,198 760,186 C980,176 1110,192 1200,185 V200 H0 Z" fill="#26215C"/>
</svg>
