<svg xmlns="http://www.w3.org/2000/svg" viewBox="0 0 1200 200" role="img" aria-label="Papierboot mit Kielwasser und kleinem Wimpel"><rect width="1200" height="200" fill="#EEEDFE"/><circle cx="1030" cy="60" r="24" fill="#f3c46a"/><path d="M0,132 C130,104 270,100 400,120 C470,131 560,128 680,128 L680,200 H0 Z" fill="#CECBF6"/><path d="M1200,132 C1070,104 930,100 800,120 C730,131 620,128 520,128 L520,200 H1200 Z" fill="#CECBF6"/><path d="M0,158 C300,144 600,166 900,156 C1050,151 1150,160 1200,156 L1200,200 H0 Z" fill="#7F77DD"/><path d="M200,150 q26,-4 52,0 q26,4 52,0 q26,-4 52,0 q26,4 52,0" fill="none" stroke="#7F77DD" stroke-width="3" stroke-linecap="round" opacity=".75"/><path d="M200,158 q26,-4 52,0 q26,4 52,0 q26,-4 52,0 q26,4 52,0" fill="none" stroke="#7F77DD" stroke-width="3" stroke-linecap="round" opacity=".75"/><path d="M770,150 q26,-4 52,0 q26,4 52,0 q26,-4 52,0 q26,4 52,0" fill="none" stroke="#7F77DD" stroke-width="3" stroke-linecap="round" opacity=".75"/><path d="M770,158 q26,-4 52,0 q26,4 52,0 q26,-4 52,0 q26,4 52,0" fill="none" stroke="#7F77DD" stroke-width="3" stroke-linecap="round" opacity=".75"/><path d="M452,150 Q600,164 748,150 L720,132 Q600,140 480,132 Z" fill="#534AB7"/><polygon points="480,132 470,112 500,130" fill="#534AB7"/><polygon points="720,132 730,112 700,130" fill="#534AB7"/><polygon points="600,132 600,92 664,132" fill="#7F77DD"/><polygon points="596,132 596,92 536,132" fill="#AFA9EC"/><line x1="600" y1="132" x2="600" y2="96" stroke="#3C3489" stroke-width="2"/><polygon points="600,92 600,80 636,86 600,92" fill="#f3c46a"/><rect x="598" y="80" width="3" height="14" fill="#3C3489"/><path d="M0,180 C300,170 600,188 900,178 C1050,173 1150,182 1200,178 L1200,200 H0 Z" fill="#26215C"/></svg>