<svg xmlns="http://www.w3.org/2000/svg" viewBox="0 0 1200 200" role="img" aria-label="Handschriftliche Signatur mit Federhalter"><rect width="1200" height="200" fill="#EEEDFE"/><circle cx="190" cy="60" r="24" fill="#f3c46a"/><path d="M0,132 C130,104 270,100 400,120 C470,131 560,128 680,128 L680,200 H0 Z" fill="#CECBF6"/><path d="M1200,132 C1070,104 930,100 800,120 C730,131 620,128 520,128 L520,200 H1200 Z" fill="#CECBF6"/><path d="M0,158 C300,144 600,166 900,156 C1050,151 1150,160 1200,156 L1200,200 H0 Z" fill="#7F77DD"/><path d="M200,138 c40,-30 74,18 100,2 c26,-16 2,-42 -14,-30 c-16,12 10,46 44,46 c70,0 140,-28 250,-16 c140,14 250,8 300,-4" fill="none" stroke="#3C3489" stroke-width="6" stroke-linecap="round"/><g transform="translate(892,92) rotate(40)"><rect x="0" y="0" width="18" height="78" rx="7" fill="#534AB7"/><rect x="0" y="0" width="18" height="16" rx="7" fill="#3C3489"/><polygon points="0,78 18,78 9,104" fill="#3C3489"/><polygon points="4,86 14,86 9,104" fill="#f3c46a"/></g><path d="M0,180 C300,170 600,188 900,178 C1050,173 1150,182 1200,178 L1200,200 H0 Z" fill="#26215C"/></svg>