<svg xmlns="http://www.w3.org/2000/svg" viewBox="0 0 1200 200" role="img" aria-label="Ein Füller setzt den goldenen Punkt hinter die geschwungene Unterschrift">
<rect width="1200" height="200" fill="#EEEDFE"/>
<path d="M230,34 a24,24 0 1 0 0,40 a28,28 0 0 1 0,-40 Z" fill="#CECBF6"/>
<path d="M370,102 C380,52 420,46 424,76 C427,98 392,108 380,88 C370,70 402,62 444,76 C504,96 560,64 622,76 C664,84 704,72 740,78" fill="none" stroke="#26215C" stroke-width="8" stroke-linecap="round"/>
<circle cx="782" cy="80" r="12" fill="#f3c46a"/>
<g transform="translate(806,88) rotate(52) scale(0.82)">
<path d="M0,0 C-9,-12 -14,-30 -12,-52 L12,-52 C14,-30 9,-12 0,0 Z" fill="#26215C"/>
<circle cx="0" cy="-36" r="4.5" fill="#EEEDFE"/>
<line x1="0" y1="-30" x2="0" y2="-7" stroke="#EEEDFE" stroke-width="2.5" stroke-linecap="round"/>
<rect x="-13" y="-64" width="26" height="11" rx="4" fill="#534AB7"/>
<rect x="-11" y="-116" width="22" height="52" rx="8" fill="#3C3489"/>
</g>
<path d="M180,54 q10,-8 20,0 M212,42 q10,-8 20,0" fill="none" stroke="#534AB7" stroke-width="3" stroke-linecap="round" transform="translate(320,-16)"/>
<path d="M0,150 C180,136 380,158 600,147 C820,136 1020,156 1200,146 V200 H0 Z" fill="#534AB7"/>
<path d="M0,170 C210,160 440,180 660,170 C880,160 1050,178 1200,169 V200 H0 Z" fill="#3C3489"/>
<path d="M0,190 C240,184 500,198 760,191 C980,186 1120,194 1200,190 V200 H0 Z" fill="#26215C"/>
</svg>
