<svg xmlns="http://www.w3.org/2000/svg" viewBox="0 0 1200 200" role="img" aria-label="Eine Schreiblinie ueber die Breite, das Ende golden, eine Feder"><rect width="1200" height="200" fill="#EEEDFE"/><circle cx="190" cy="60" r="24" fill="#f3c46a"/><path d="M0,132 C130,104 270,100 400,120 C470,131 560,128 680,128 L680,200 H0 Z" fill="#CECBF6"/><path d="M1200,132 C1070,104 930,100 800,120 C730,131 620,128 520,128 L520,200 H1200 Z" fill="#CECBF6"/><path d="M0,158 C300,144 600,166 900,156 C1050,151 1150,160 1200,156 L1200,200 H0 Z" fill="#7F77DD"/><path d="M150,52 q7,-7 14,0" stroke="#534AB7" stroke-width="2.6" fill="none"/><path d="M166,55 q7,-7 14,0" stroke="#534AB7" stroke-width="2.6" fill="none"/><path d="M200,138 C330,128 470,146 620,136 C700,131 720,133 760,134" fill="none" stroke="#26215C" stroke-width="6" stroke-linecap="round"/><path d="M760,134 C830,135 880,150 918,150" fill="none" stroke="#f3c46a" stroke-width="6" stroke-linecap="round"/><path d="M974,64 L998,80 L918,150 L906,142 Z" fill="#3C3489"/><path d="M918,150 L906,142 L912,136 Z" fill="#26215C"/><path d="M0,180 C300,170 600,188 900,178 C1050,173 1150,182 1200,178 L1200,200 H0 Z" fill="#26215C"/></svg>