<svg xmlns="http://www.w3.org/2000/svg" viewBox="0 0 1200 200" role="img" aria-label="Ein Papierschiff aus einem beschriebenen Blatt segelt über die Welle">
<rect width="1200" height="200" fill="#EEEDFE"/>
<circle cx="980" cy="44" r="24" fill="#f3c46a"/>
<circle cx="980" cy="44" r="34" fill="none" stroke="#f3c46a" stroke-width="2" opacity="0.4"/>
<path d="M0,134 C200,120 420,144 640,132 C860,120 1040,144 1200,132 V200 H0 Z" fill="#534AB7"/>
<g transform="translate(560,131) rotate(-3)">
<path d="M-96,0 L96,0 L58,34 L-58,34 Z" fill="#7F77DD"/>
<path d="M-96,0 L0,-64 L96,0 L48,0 L0,-40 L-48,0 Z" fill="#AFA9EC"/>
<path d="M0,-64 L48,0 L-48,0 Z" fill="#CECBF6"/>
<g stroke="#534AB7" stroke-width="2.5" stroke-linecap="round">
<line x1="-30" y1="12" x2="34" y2="12"/>
<line x1="-38" y1="20" x2="20" y2="20"/>
<line x1="-12" y1="-14" x2="14" y2="-14"/>
</g>
</g>
<circle cx="446" cy="146" r="3.5" fill="#26215C"/>
<circle cx="420" cy="154" r="2.6" fill="#3C3489"/>
<circle cx="688" cy="148" r="3" fill="#3C3489"/>
<path d="M300,56 q10,-8 20,0 M330,44 q10,-8 20,0" fill="none" stroke="#534AB7" stroke-width="3" stroke-linecap="round"/>
<path d="M0,160 C210,148 440,172 660,160 C880,148 1050,170 1200,159 V200 H0 Z" fill="#3C3489"/>
<path d="M0,184 C240,174 500,196 760,184 C980,174 1110,190 1200,183 V200 H0 Z" fill="#26215C"/>
</svg>
