<svg xmlns="http://www.w3.org/2000/svg" viewBox="0 0 1200 200" role="img" aria-label="Bruecke mit Federhalter als Schreibweg"><rect width="1200" height="200" fill="#EEEDFE"/><circle cx="200" cy="60" r="24" fill="#f3c46a"/><path d="M0,132 C130,104 270,100 400,120 C470,131 560,128 680,128 L680,200 H0 Z" fill="#CECBF6"/><path d="M1200,132 C1070,104 930,100 800,120 C730,131 620,128 520,128 L520,200 H1200 Z" fill="#CECBF6"/><path d="M0,158 C300,144 600,166 900,156 C1050,151 1150,160 1200,156 L1200,200 H0 Z" fill="#7F77DD"/><rect x="296.0" y="131.3" width="8.0" height="20.7" rx="0" fill="#3C3489"/><rect x="416.0" y="122.6" width="8.0" height="29.4" rx="0" fill="#3C3489"/><rect x="536.0" y="118.4" width="8.0" height="33.6" rx="0" fill="#3C3489"/><rect x="656.0" y="118.8" width="8.0" height="33.2" rx="0" fill="#3C3489"/><rect x="776.0" y="123.7" width="8.0" height="28.3" rx="0" fill="#3C3489"/><path d="M200,142 Q590,94 980,142" fill="none" stroke="#26215C" stroke-width="9" stroke-linecap="round"/><path d="M590,98 Q800,108 980,142" fill="none" stroke="#f3c46a" stroke-width="9" stroke-linecap="round"/><g transform="translate(946,74) rotate(40)"><rect x="0" y="0" width="17" height="72" rx="6" fill="#534AB7"/><rect x="0" y="0" width="17" height="14" rx="6" fill="#3C3489"/><polygon points="0,72 17,72 8.5,96" fill="#3C3489"/></g><path d="M0,180 C300,170 600,188 900,178 C1050,173 1150,182 1200,178 L1200,200 H0 Z" fill="#26215C"/></svg>