<svg xmlns="http://www.w3.org/2000/svg" viewBox="0 0 1200 200" role="img" aria-label="Eine Sprechblase ueber der Welle — ihr unterer Rand geht in die Wellenkante ueber, im Inneren ein kleiner Wohnungs-Grundriss, golden eine Lampe">
<rect width="1200" height="200" fill="#EEEDFE"/>
<path d="M0,126 C240,118 480,130 720,122 C940,116 1080,126 1200,120 V200 H0 Z" fill="#AFA9EC"/>
<path d="M420,40 Q420,22 442,22 L758,22 Q780,22 780,40 L780,104 Q780,122 758,122 L560,122 L520,150 L512,122 L442,122 Q420,122 420,104 Z" fill="#3C3489"/>
<g stroke="#AFA9EC" stroke-width="2.5" fill="none"><rect x="452" y="42" width="296" height="62"/><line x1="560" y1="42" x2="560" y2="104"/><line x1="560" y1="74" x2="748" y2="74"/><line x1="650" y1="74" x2="650" y2="104"/></g>
<circle cx="506" cy="74" r="8" fill="#f3c46a"/>
<path d="M880,58 q9,-7 18,0 M910,50 q9,-7 18,0" fill="none" stroke="#7F77DD" stroke-width="3" stroke-linecap="round"/>
<path d="M0,152 C200,136 460,168 700,152 C900,140 1050,166 1200,152 V200 H0 Z" fill="#3C3489"/>
<path d="M0,182 C240,170 500,194 760,182 C980,170 1100,192 1200,182 V200 H0 Z" fill="#26215C"/>
</svg>
