<svg xmlns="http://www.w3.org/2000/svg" viewBox="0 0 1200 200" role="img" aria-label="Ein Megafon ruft — seine Schallwelle wird zur Landschaftswelle">
<rect width="1200" height="200" fill="#EEEDFE"/>
<path d="M1020,30 a24,24 0 1 0 0,40 a28,28 0 0 1 0,-40 Z" fill="#CECBF6"/>
<g transform="translate(330,64) rotate(16)">
<path d="M-104,-16 L-104,16 L-76,13 L-76,-13 Z" fill="#3C3489"/>
<path d="M-76,-15 L4,-44 L4,44 L-76,15 Z" fill="#26215C"/>
<path d="M4,-44 A44,44 0 0 1 4,44 Z" fill="#26215C"/>
<circle cx="12" cy="0" r="9" fill="#f3c46a"/>
<path d="M-100,16 L-88,48 L-72,48 L-82,14 Z" fill="#3C3489"/>
</g>
<path d="M420,40 A130,110 0 0 1 464,110" fill="none" stroke="#AFA9EC" stroke-width="8" stroke-linecap="round"/>
<path d="M462,22 A180,150 0 0 1 528,116" fill="none" stroke="#CECBF6" stroke-width="8" stroke-linecap="round"/>
<path d="M0,146 C120,138 260,132 380,124 C470,118 520,104 570,96 C640,85 720,92 800,104 C940,124 1080,132 1200,136 V200 H0 Z" fill="#534AB7"/>
<path d="M700,52 q10,-8 20,0 M732,40 q10,-8 20,0" fill="none" stroke="#534AB7" stroke-width="3" stroke-linecap="round"/>
<path d="M0,172 C210,164 440,182 660,173 C880,165 1050,180 1200,172 V200 H0 Z" fill="#3C3489"/>
<path d="M0,192 C240,187 500,198 760,193 C980,189 1120,196 1200,192 V200 H0 Z" fill="#26215C"/>
</svg>
