<svg xmlns="http://www.w3.org/2000/svg" viewBox="0 0 1200 200" role="img" aria-label="Zwei Sprechblasen begegnen sich über der Welle — die goldene Antwort">
<rect width="1200" height="200" fill="#EEEDFE"/>
<path d="M160,150 L300,106 L450,150 Z" fill="#CECBF6"/>
<path d="M870,50 q10,-8 20,0 M902,38 q10,-8 20,0" fill="none" stroke="#534AB7" stroke-width="3" stroke-linecap="round"/>
<g fill="#3C3489">
<rect x="484" y="30" width="112" height="58" rx="21"/>
<path d="M516,88 l-10,34 l30,-34 Z"/>
</g>
<g stroke="#CECBF6" stroke-width="5" stroke-linecap="round">
<line x1="508" y1="50" x2="574" y2="50"/>
<line x1="508" y1="68" x2="552" y2="68"/>
</g>
<g fill="#f3c46a">
<rect x="612" y="62" width="90" height="48" rx="19"/>
<path d="M676,110 l12,30 l6,-30 Z"/>
</g>
<path d="M0,152 C190,142 400,160 620,151 C840,142 1030,158 1200,150 V200 H0 Z" fill="#534AB7"/>
<circle cx="250" cy="162" r="3" fill="#AFA9EC"/>
<path d="M0,172 C220,164 450,182 670,172 C890,164 1060,178 1200,171 V200 H0 Z" fill="#3C3489"/>
<path d="M0,191 C240,186 500,198 760,192 C980,188 1120,196 1200,192 V200 H0 Z" fill="#26215C"/>
</svg>
