<svg xmlns="http://www.w3.org/2000/svg" viewBox="0 0 1200 200" role="img" aria-label="Ein Ball fliegt zwischen zwei Schlägern hin und her — das Gespräch"><rect width="1200" height="200" fill="#EEEDFE"/><circle cx="600" cy="44" r="20" fill="#f3c46a"/><circle cx="600" cy="44" r="32" fill="none" stroke="#f3c46a" stroke-width="2" opacity="0.45"/><g fill="#534AB7"><ellipse cx="330" cy="96" rx="26" ry="32"/></g><ellipse cx="330" cy="96" rx="16" ry="22" fill="#EEEDFE"/><rect x="322" y="120" width="10" height="30" rx="4" fill="#3C3489" transform="rotate(18 327 130)"/><g fill="#7F77DD"><ellipse cx="870" cy="96" rx="26" ry="32"/></g><ellipse cx="870" cy="96" rx="16" ry="22" fill="#EEEDFE"/><rect x="868" y="120" width="10" height="30" rx="4" fill="#3C3489" transform="rotate(-18 873 130)"/><path d="M360,92 C500,40 700,40 840,92" fill="none" stroke="#534AB7" stroke-width="2" stroke-dasharray="6 8" opacity="0.7"/><circle cx="600" cy="58" r="12" fill="#f3c46a"/><path d="M0,150 C200,134 420,166 640,150 C860,134 1040,166 1200,150 V200 H0 Z" fill="#3C3489"/><path d="M0,180 C240,166 480,192 720,178 C940,166 1090,188 1200,178 V200 H0 Z" fill="#26215C"/></svg>