<svg xmlns="http://www.w3.org/2000/svg" viewBox="0 0 1200 200" role="img" aria-label="Panorama deutscher Speisen: Brote und Brezeln stehen wie Hügel auf der Welle, eine Brezel leuchtet golden">
<rect width="1200" height="200" fill="#EEEDFE"/>
<path d="M470,72 q10,-8 20,0 M500,60 q10,-8 20,0" fill="none" stroke="#534AB7" stroke-width="3" stroke-linecap="round"/><path d="M440,120 L560,72 L680,120 Z" fill="#CECBF6"/><path d="M470,120 Q520,86 570,120 Z" fill="#7F77DD"/><path d="M600,120 Q660,80 720,120 Z" fill="#534AB7"/><path d="M812,112 a20,20 0 1 1 22,-30 a18,18 0 1 1 22,30 l-8,6 l-14,-16 l-14,16 Z" fill="#f3c46a"/><path d="M760,120 Q800,96 840,120 Z" fill="#3C3489"/><path d="M0,128 C150,106 330,142 510,126 C710,108 910,144 1110,128 C1155,124 1185,128 1200,125 V200 H0 Z" fill="#534AB7"/>
<path d="M0,152 C190,134 400,166 620,152 C840,138 1020,168 1200,152 V200 H0 Z" fill="#3C3489"/>
<path d="M0,180 C240,166 500,192 760,178 C980,166 1110,188 1200,178 V200 H0 Z" fill="#26215C"/>

</svg>
