<svg xmlns="http://www.w3.org/2000/svg" viewBox="0 0 1200 200" role="img" aria-label="Wort-Edelsteine reihen sich über die ganze Breite — einer funkelt golden"><rect width="1200" height="200" fill="#EEEDFE"/><circle cx="190" cy="60" r="24" fill="#f3c46a"/><path d="M0,132 C130,104 270,100 400,120 C470,131 560,128 680,128 L680,200 H0 Z" fill="#CECBF6"/><path d="M1200,132 C1070,104 930,100 800,120 C730,131 620,128 520,128 L520,200 H1200 Z" fill="#CECBF6"/><path d="M0,158 C300,144 600,166 900,156 C1050,151 1150,160 1200,156 L1200,200 H0 Z" fill="#7F77DD"/><path d="M220,118 L235,108 L265,108 L280,118 L250,150 Z" fill="#534AB7"/><path d="M220,118 L280,118 L250,150 Z" fill="#CECBF6" opacity="0.18"/><path d="M235,108 L250,118 L265,108 Z" fill="#CECBF6" opacity="0.30"/><path d="M320,118 L335,108 L365,108 L380,118 L350,150 Z" fill="#3C3489"/><path d="M320,118 L380,118 L350,150 Z" fill="#CECBF6" opacity="0.18"/><path d="M335,108 L350,118 L365,108 Z" fill="#CECBF6" opacity="0.30"/><path d="M420,118 L435,108 L465,108 L480,118 L450,150 Z" fill="#26215C"/><path d="M420,118 L480,118 L450,150 Z" fill="#CECBF6" opacity="0.18"/><path d="M435,108 L450,118 L465,108 Z" fill="#CECBF6" opacity="0.30"/><path d="M520,118 L535,108 L565,108 L580,118 L550,150 Z" fill="#534AB7"/><path d="M520,118 L580,118 L550,150 Z" fill="#CECBF6" opacity="0.18"/><path d="M535,108 L550,118 L565,108 Z" fill="#CECBF6" opacity="0.30"/><path d="M620,118 L635,108 L665,108 L680,118 L650,150 Z" fill="#f3c46a"/><path d="M620,118 L680,118 L650,150 Z" fill="#26215C" opacity="0.18"/><path d="M635,108 L650,118 L665,108 Z" fill="#26215C" opacity="0.30"/><path d="M720,118 L735,108 L765,108 L780,118 L750,150 Z" fill="#26215C"/><path d="M720,118 L780,118 L750,150 Z" fill="#CECBF6" opacity="0.18"/><path d="M735,108 L750,118 L765,108 Z" fill="#CECBF6" opacity="0.30"/><path d="M820,118 L835,108 L865,108 L880,118 L850,150 Z" fill="#534AB7"/><path d="M820,118 L880,118 L850,150 Z" fill="#CECBF6" opacity="0.18"/><path d="M835,108 L850,118 L865,108 Z" fill="#CECBF6" opacity="0.30"/><path d="M920,118 L935,108 L965,108 L980,118 L950,150 Z" fill="#3C3489"/><path d="M920,118 L980,118 L950,150 Z" fill="#CECBF6" opacity="0.18"/><path d="M935,108 L950,118 L965,108 Z" fill="#CECBF6" opacity="0.30"/><path d="M300,42 q7,-7 14,0" stroke="#534AB7" stroke-width="2.6" fill="none"/><path d="M316,45 q7,-7 14,0" stroke="#534AB7" stroke-width="2.6" fill="none"/><path d="M0,180 C300,170 600,188 900,178 C1050,173 1150,182 1200,178 L1200,200 H0 Z" fill="#26215C"/></svg>