<svg xmlns="http://www.w3.org/2000/svg" viewBox="0 0 1200 200" role="img" aria-label="Karteikarten segeln als Boote über die Wellen — ein Segel leuchtet golden">
<rect width="1200" height="200" fill="#EEEDFE"/>
<path d="M190,32 a24,24 0 1 0 0,40 a28,28 0 0 1 0,-40 Z" fill="#CECBF6"/>
<path d="M0,140 C180,126 380,150 600,138 C820,126 1020,148 1200,137 V200 H0 Z" fill="#534AB7"/>
<g>
<path d="M360,128 L360,74 L404,128 Z" fill="#3C3489"/>
<path d="M340,132 L424,132 L406,152 L358,152 Z" fill="#26215C"/>
</g>
<g>
<path d="M600,112 L600,44 L656,112 Z" fill="#f3c46a"/>
<path d="M576,118 L680,118 L658,142 L598,142 Z" fill="#26215C"/>
</g>
<g>
<path d="M850,124 L850,78 L888,124 Z" fill="#3C3489"/>
<path d="M832,128 L906,128 L890,146 L848,146 Z" fill="#26215C"/>
</g>
<path d="M470,60 q10,-8 20,0 M502,48 q10,-8 20,0" fill="none" stroke="#534AB7" stroke-width="3" stroke-linecap="round"/>
<path d="M0,166 C210,156 440,176 660,166 C880,156 1050,174 1200,165 V200 H0 Z" fill="#3C3489"/>
<path d="M0,189 C240,183 500,197 760,191 C980,186 1120,195 1200,191 V200 H0 Z" fill="#26215C"/>
</svg>
