<svg xmlns="http://www.w3.org/2000/svg" viewBox="0 0 1200 200" role="img" aria-label="Eine Haeuserzeile hinter dem Umzugswagen — in einem Haus leuchtet golden das Fenster der neuen Wohnung">
<rect width="1200" height="200" fill="#EEEDFE"/>
<path d="M0,118 C220,104 460,126 700,114 C920,104 1060,122 1200,114 V200 H0 Z" fill="#AFA9EC"/>
<rect x="180" y="86" width="70" height="54" fill="#534AB7"/><path d="M176,86 L215,62 L254,86 Z" fill="#534AB7"/>
<rect x="258" y="96" width="64" height="44" fill="#3C3489"/><path d="M254,96 L290,72 L326,96 Z" fill="#3C3489"/>
<rect x="330" y="80" width="74" height="60" fill="#534AB7"/><path d="M326,80 L367,56 L408,80 Z" fill="#534AB7"/>
<rect x="410" y="92" width="66" height="48" fill="#3C3489"/><path d="M406,92 L443,68 L480,92 Z" fill="#3C3489"/>
<rect x="486" y="84" width="72" height="56" fill="#534AB7"/><path d="M482,84 L522,60 L562,84 Z" fill="#534AB7"/>
<rect x="940" y="86" width="70" height="54" fill="#3C3489"/><path d="M936,86 L975,62 L1014,86 Z" fill="#3C3489"/>
<rect x="1016" y="94" width="64" height="46" fill="#534AB7"/><path d="M1012,94 L1048,70 L1084,94 Z" fill="#534AB7"/>
<rect x="200" y="100" width="16" height="20" rx="1" fill="#f3c46a"/>
<g fill="#26215C"><rect x="560" y="112" width="150" height="40" rx="3"/><path d="M710,152 L710,120 L752,120 L772,140 L772,152 Z"/><rect x="720" y="124" width="20" height="14" rx="1" fill="#534AB7"/></g>
<circle cx="600" cy="154" r="13" fill="#26215C"/><circle cx="600" cy="154" r="5" fill="#534AB7"/><circle cx="742" cy="154" r="13" fill="#26215C"/><circle cx="742" cy="154" r="5" fill="#534AB7"/>
<path d="M300,60 q9,-7 18,0 M330,52 q9,-7 18,0" fill="none" stroke="#7F77DD" stroke-width="3" stroke-linecap="round"/>
<path d="M0,152 C200,136 460,168 700,152 C900,140 1050,166 1200,152 V200 H0 Z" fill="#3C3489"/>
<path d="M0,182 C240,170 500,194 760,182 C980,170 1100,192 1200,182 V200 H0 Z" fill="#26215C"/>
</svg>
