<svg xmlns="http://www.w3.org/2000/svg" viewBox="0 0 1200 200" role="img" aria-label="Wortkarten hängen an einer Leine zwischen zwei Pfosten — eine leuchtet golden">
<rect width="1200" height="200" fill="#EEEDFE"/>
<rect x="256" y="58" width="9" height="86" rx="3" fill="#26215C"/>
<rect x="936" y="54" width="9" height="88" rx="3" fill="#26215C"/>
<path d="M262,64 Q600,102 940,60" fill="none" stroke="#3C3489" stroke-width="4" stroke-linecap="round"/>
<g fill="#3C3489">
<rect x="368" y="80" width="38" height="28" rx="3"/>
<rect x="486" y="90" width="38" height="28" rx="3"/>
<rect x="716" y="90" width="38" height="28" rx="3"/>
<rect x="836" y="78" width="38" height="28" rx="3"/>
<rect x="384" y="72" width="6" height="12"/>
<rect x="502" y="82" width="6" height="12"/>
<rect x="618" y="84" width="6" height="12"/>
<rect x="732" y="82" width="6" height="12"/>
<rect x="852" y="70" width="6" height="12"/>
</g>
<rect x="602" y="92" width="38" height="28" rx="3" fill="#f3c46a"/>
<path d="M1020,44 q10,-8 20,0 M1052,56 q8,-7 16,0" fill="none" stroke="#534AB7" stroke-width="3" stroke-linecap="round"/>
<path d="M0,148 C190,138 400,156 610,147 C830,138 1040,158 1200,147 V200 H0 Z" fill="#7F77DD"/>
<path d="M0,168 C230,160 480,180 700,169 C920,160 1080,178 1200,168 V200 H0 Z" fill="#3C3489"/>
<path d="M0,189 C260,182 540,199 800,188 C1010,182 1140,193 1200,188 V200 H0 Z" fill="#26215C"/>
</svg>
