<svg xmlns="http://www.w3.org/2000/svg" viewBox="0 0 1200 200" role="img" aria-label="Ein Werkzeugkasten auf der Welle — der goldene Schraubenschlüssel wird gerade gewählt">
<rect width="1200" height="200" fill="#EEEDFE"/>
<path d="M316,50 q10,-8 20,0 M352,62 q8,-7 16,0" fill="none" stroke="#534AB7" stroke-width="3" stroke-linecap="round"/>
<path d="M0,146 C180,134 380,154 580,144 C800,132 1010,154 1200,142 V200 H0 Z" fill="#AFA9EC"/>
<g>
<g transform="translate(590,54) rotate(-28)">
<rect x="6" y="-5" width="46" height="10" rx="4" fill="#f3c46a"/>
<path d="M8,0 m0,-15 a15,15 0 1,0 0,30 a15,15 0 1,0 0,-30 Z M8,0 m-22,-6 l24,1 l0,10 l-24,1 Z" fill="#f3c46a" fill-rule="evenodd"/>
<rect x="-16" y="-6" width="22" height="12" fill="#EEEDFE"/>
<path d="M50,0 m0,-15 a15,15 0 1,1 0,30 a15,15 0 1,1 0,-30 Z" fill="#f3c46a"/>
<rect x="52" y="-6" width="22" height="12" fill="#EEEDFE"/>
</g>
<rect x="544" y="116" width="140" height="56" rx="6" fill="#26215C"/>
<path d="M584,116 L584,102 Q584,94 592,94 L636,94 Q644,94 644,102 L644,116" fill="none" stroke="#26215C" stroke-width="8"/>
<path d="M544,140 L684,140" stroke="#3C3489" stroke-width="3"/>
<rect x="494" y="126" width="9" height="40" rx="3" fill="#3C3489"/>
<rect x="484" y="116" width="29" height="13" rx="4" fill="#3C3489"/>
<rect x="716" y="108" width="16" height="24" rx="5" fill="#3C3489"/>
<path d="M724,132 L724,162" stroke="#3C3489" stroke-width="6" stroke-linecap="round"/>
<path d="M724,162 L724,174" stroke="#3C3489" stroke-width="3" stroke-linecap="round"/>
</g>
<path d="M0,176 C230,166 480,188 720,178 C940,168 1090,184 1200,176 V200 H0 Z" fill="#3C3489"/>
<path d="M0,192 C260,186 540,200 800,192 C1020,186 1130,196 1200,192 V200 H0 Z" fill="#26215C"/>
</svg>
