<svg xmlns="http://www.w3.org/2000/svg" viewBox="0 0 1200 200" role="img" aria-label="Ein Bücherregal voller Wörter über die ganze Breite — ein Buch leuchtet golden"><rect width="1200" height="200" fill="#EEEDFE"/><circle cx="190" cy="60" r="24" fill="#f3c46a"/><path d="M0,132 C130,104 270,100 400,120 C470,131 560,128 680,128 L680,200 H0 Z" fill="#CECBF6"/><path d="M1200,132 C1070,104 930,100 800,120 C730,131 620,128 520,128 L520,200 H1200 Z" fill="#CECBF6"/><path d="M0,158 C300,144 600,166 900,156 C1050,151 1150,160 1200,156 L1200,200 H0 Z" fill="#7F77DD"/><rect x="215" y="146" width="770" height="8" rx="3" fill="#26215C"/><rect x="232" y="106" width="40" height="40" rx="2" fill="#534AB7"/><rect x="236" y="112" width="32" height="4" rx="2" fill="#AFA9EC" opacity="0.55"/><rect x="278" y="112" width="30" height="34" rx="2" fill="#3C3489"/><rect x="282" y="118" width="22" height="4" rx="2" fill="#AFA9EC" opacity="0.55"/><rect x="314" y="102" width="30" height="44" rx="2" fill="#26215C"/><rect x="318" y="108" width="22" height="4" rx="2" fill="#AFA9EC" opacity="0.55"/><rect x="350" y="116" width="40" height="30" rx="2" fill="#534AB7"/><rect x="354" y="122" width="32" height="4" rx="2" fill="#AFA9EC" opacity="0.55"/><rect x="396" y="104" width="30" height="42" rx="2" fill="#3C3489"/><rect x="400" y="110" width="22" height="4" rx="2" fill="#AFA9EC" opacity="0.55"/><rect x="432" y="110" width="30" height="36" rx="2" fill="#26215C"/><rect x="436" y="116" width="22" height="4" rx="2" fill="#AFA9EC" opacity="0.55"/><rect x="468" y="100" width="40" height="46" rx="2" fill="#534AB7"/><rect x="472" y="106" width="32" height="4" rx="2" fill="#AFA9EC" opacity="0.55"/><rect x="514" y="114" width="30" height="32" rx="2" fill="#f3c46a"/><rect x="518" y="120" width="22" height="4" rx="2" fill="#26215C" opacity="0.55"/><rect x="550" y="106" width="30" height="40" rx="2" fill="#26215C"/><rect x="554" y="112" width="22" height="4" rx="2" fill="#AFA9EC" opacity="0.55"/><rect x="586" y="112" width="40" height="34" rx="2" fill="#534AB7"/><rect x="590" y="118" width="32" height="4" rx="2" fill="#AFA9EC" opacity="0.55"/><rect x="632" y="104" width="30" height="42" rx="2" fill="#3C3489"/><rect x="636" y="110" width="22" height="4" rx="2" fill="#AFA9EC" opacity="0.55"/><rect x="668" y="108" width="30" height="38" rx="2" fill="#26215C"/><rect x="672" y="114" width="22" height="4" rx="2" fill="#AFA9EC" opacity="0.55"/><rect x="704" y="102" width="40" height="44" rx="2" fill="#534AB7"/><rect x="708" y="108" width="32" height="4" rx="2" fill="#AFA9EC" opacity="0.55"/><rect x="750" y="116" width="30" height="30" rx="2" fill="#3C3489"/><rect x="754" y="122" width="22" height="4" rx="2" fill="#AFA9EC" opacity="0.55"/><rect x="786" y="106" width="30" height="40" rx="2" fill="#26215C"/><rect x="790" y="112" width="22" height="4" rx="2" fill="#AFA9EC" opacity="0.55"/><path d="M300,42 q7,-7 14,0" stroke="#534AB7" stroke-width="2.6" fill="none"/><path d="M316,45 q7,-7 14,0" stroke="#534AB7" stroke-width="2.6" fill="none"/><path d="M0,180 C300,170 600,188 900,178 C1050,173 1150,182 1200,178 L1200,200 H0 Z" fill="#26215C"/></svg>