<svg xmlns="http://www.w3.org/2000/svg" viewBox="0 0 1200 200" role="img" aria-label="Eine Schale fängt fallende Früchte über der Welle — eine Frucht leuchtet golden">
<rect width="1200" height="200" fill="#EEEDFE"/>
<path d="M770,120 L880,80 L990,120 Z" fill="#CECBF6"/><circle cx="600" cy="52" r="10" fill="#AFA9EC"/><circle cx="650" cy="74" r="9" fill="#7F77DD"/><circle cx="560" cy="86" r="8" fill="#f3c46a"/><circle cx="628" cy="40" r="7" fill="#7F77DD"/><path d="M540,112 Q600,168 660,112 Z" fill="#3C3489"/><path d="M540,112 Q600,120 660,112" fill="none" stroke="#534AB7" stroke-width="4"/><path d="M300,70 q10,-8 20,0 M330,58 q10,-8 20,0" fill="none" stroke="#534AB7" stroke-width="3" stroke-linecap="round"/><path d="M0,128 C150,106 330,142 510,126 C710,108 910,144 1110,128 C1155,124 1185,128 1200,125 V200 H0 Z" fill="#534AB7"/>
<path d="M0,152 C190,134 400,166 620,152 C840,138 1020,168 1200,152 V200 H0 Z" fill="#3C3489"/>
<path d="M0,180 C240,166 500,192 760,178 C980,166 1110,188 1200,178 V200 H0 Z" fill="#26215C"/>

</svg>
