<svg xmlns="http://www.w3.org/2000/svg" viewBox="0 0 1200 200" role="img" aria-label="Schatztruhe mit aufsteigenden Wortkarten"><rect width="1200" height="200" fill="#EEEDFE"/><circle cx="190" cy="60" r="24" fill="#f3c46a"/><path d="M0,132 C130,104 270,100 400,120 C470,131 560,128 680,128 L680,200 H0 Z" fill="#CECBF6"/><path d="M1200,132 C1070,104 930,100 800,120 C730,131 620,128 520,128 L520,200 H1200 Z" fill="#CECBF6"/><path d="M0,158 C300,144 600,166 900,156 C1050,151 1150,160 1200,156 L1200,200 H0 Z" fill="#7F77DD"/><rect x="210.0" y="122.0" width="120.0" height="30.0" rx="4" fill="#3C3489"/><rect x="210.0" y="130.0" width="120.0" height="8.0" rx="0" fill="#26215C"/><g transform="translate(210,122) rotate(-24)"><rect x="0" y="-14" width="120" height="16" rx="4" fill="#534AB7"/></g><rect x="262" y="132" width="16" height="10" fill="#26215C"/><g transform="translate(340,124) rotate(-24)"><rect x="-17" y="-12" width="34" height="24" rx="3" fill="#534AB7"/><rect x="-11" y="-4" width="22" height="3" rx="1.5" fill="#EEEDFE" opacity=".7"/></g><g transform="translate(434,92) rotate(-16)"><rect x="-17" y="-12" width="34" height="24" rx="3" fill="#7F77DD"/><rect x="-11" y="-4" width="22" height="3" rx="1.5" fill="#EEEDFE" opacity=".7"/></g><g transform="translate(529,65) rotate(-9)"><rect x="-17" y="-12" width="34" height="24" rx="3" fill="#534AB7"/><rect x="-11" y="-4" width="22" height="3" rx="1.5" fill="#EEEDFE" opacity=".7"/></g><g transform="translate(623,50) rotate(-1)"><rect x="-17" y="-12" width="34" height="24" rx="3" fill="#7F77DD"/><rect x="-11" y="-4" width="22" height="3" rx="1.5" fill="#EEEDFE" opacity=".7"/></g><g transform="translate(717,49) rotate(7)"><rect x="-17" y="-12" width="34" height="24" rx="3" fill="#534AB7"/><rect x="-11" y="-4" width="22" height="3" rx="1.5" fill="#EEEDFE" opacity=".7"/></g><g transform="translate(811,62) rotate(15)"><rect x="-17" y="-12" width="34" height="24" rx="3" fill="#f3c46a"/><rect x="-11" y="-4" width="22" height="3" rx="1.5" fill="#EEEDFE" opacity=".7"/></g><g transform="translate(906,86) rotate(22)"><rect x="-17" y="-12" width="34" height="24" rx="3" fill="#534AB7"/><rect x="-11" y="-4" width="22" height="3" rx="1.5" fill="#EEEDFE" opacity=".7"/></g><g transform="translate(1000,116) rotate(30)"><rect x="-17" y="-12" width="34" height="24" rx="3" fill="#7F77DD"/><rect x="-11" y="-4" width="22" height="3" rx="1.5" fill="#EEEDFE" opacity=".7"/></g><path d="M0,180 C300,170 600,188 900,178 C1050,173 1150,182 1200,178 L1200,200 H0 Z" fill="#26215C"/></svg>