<svg xmlns="http://www.w3.org/2000/svg" viewBox="0 0 1200 200" role="img" aria-label="Ein Regal voller Wort-Kolben über die ganze Breite — einer leuchtet golden"><rect width="1200" height="200" fill="#EEEDFE"/><circle cx="190" cy="60" r="24" fill="#f3c46a"/><path d="M0,132 C130,104 270,100 400,120 C470,131 560,128 680,128 L680,200 H0 Z" fill="#CECBF6"/><path d="M1200,132 C1070,104 930,100 800,120 C730,131 620,128 520,128 L520,200 H1200 Z" fill="#CECBF6"/><path d="M0,158 C300,144 600,166 900,156 C1050,151 1150,160 1200,156 L1200,200 H0 Z" fill="#7F77DD"/><rect x="220" y="148" width="760" height="7" rx="3" fill="#26215C"/><rect x="261" y="98" width="18" height="6" rx="2" fill="#3C3489"/><path d="M264,102 h12 v18 l16,27 a4,4 0 0,1 -3,7 h-42 a4,4 0 0,1 -3,-7 l16,-27 Z" fill="#3C3489"/><circle cx="264" cy="142" r="3" fill="#AFA9EC" opacity="0.6"/><circle cx="276" cy="136" r="2.5" fill="#AFA9EC" opacity="0.6"/><rect x="351" y="106" width="18" height="6" rx="2" fill="#26215C"/><path d="M354,110 h12 v15 l16,22 a4,4 0 0,1 -3,7 h-42 a4,4 0 0,1 -3,-7 l16,-22 Z" fill="#26215C"/><circle cx="354" cy="142" r="3" fill="#AFA9EC" opacity="0.6"/><circle cx="366" cy="136" r="2.5" fill="#AFA9EC" opacity="0.6"/><rect x="443" y="92" width="18" height="6" rx="2" fill="#3C3489"/><path d="M446,96 h12 v20 l16,31 a4,4 0 0,1 -3,7 h-42 a4,4 0 0,1 -3,-7 l16,-31 Z" fill="#3C3489"/><circle cx="446" cy="142" r="3" fill="#AFA9EC" opacity="0.6"/><circle cx="458" cy="136" r="2.5" fill="#AFA9EC" opacity="0.6"/><rect x="551" y="102" width="18" height="6" rx="2" fill="#26215C"/><path d="M554,106 h12 v16 l16,25 a4,4 0 0,1 -3,7 h-42 a4,4 0 0,1 -3,-7 l16,-25 Z" fill="#26215C"/><circle cx="554" cy="142" r="3" fill="#AFA9EC" opacity="0.6"/><circle cx="566" cy="136" r="2.5" fill="#AFA9EC" opacity="0.6"/><rect x="651" y="88" width="18" height="6" rx="2" fill="#f3c46a"/><path d="M654,92 h12 v22 l16,33 a4,4 0 0,1 -3,7 h-42 a4,4 0 0,1 -3,-7 l16,-33 Z" fill="#f3c46a"/><circle cx="654" cy="142" r="3" fill="#26215C" opacity="0.6"/><circle cx="666" cy="136" r="2.5" fill="#26215C" opacity="0.6"/><rect x="761" y="104" width="18" height="6" rx="2" fill="#26215C"/><path d="M764,108 h12 v16 l16,24 a4,4 0 0,1 -3,7 h-42 a4,4 0 0,1 -3,-7 l16,-24 Z" fill="#26215C"/><circle cx="764" cy="142" r="3" fill="#AFA9EC" opacity="0.6"/><circle cx="776" cy="136" r="2.5" fill="#AFA9EC" opacity="0.6"/><rect x="871" y="96" width="18" height="6" rx="2" fill="#3C3489"/><path d="M874,100 h12 v19 l16,28 a4,4 0 0,1 -3,7 h-42 a4,4 0 0,1 -3,-7 l16,-28 Z" fill="#3C3489"/><circle cx="874" cy="142" r="3" fill="#AFA9EC" opacity="0.6"/><circle cx="886" cy="136" r="2.5" fill="#AFA9EC" opacity="0.6"/><circle cx="660" cy="96" r="5" fill="#f3c46a" opacity="0.85"/><circle cx="668" cy="84" r="4" fill="#f3c46a" opacity="0.85"/><circle cx="656" cy="72" r="3" fill="#f3c46a" opacity="0.85"/><path d="M150,44 q7,-7 14,0" stroke="#534AB7" stroke-width="2.6" fill="none"/><path d="M166,47 q7,-7 14,0" stroke="#534AB7" stroke-width="2.6" fill="none"/><path d="M0,180 C300,170 600,188 900,178 C1050,173 1150,182 1200,178 L1200,200 H0 Z" fill="#26215C"/></svg>