<svg xmlns="http://www.w3.org/2000/svg" viewBox="0 0 1200 200" role="img" aria-label="Aufgefaecherte Reihe von Wortschatzkarten"><rect width="1200" height="200" fill="#EEEDFE"/><circle cx="190" cy="60" r="24" fill="#f3c46a"/><path d="M0,132 C130,104 270,100 400,120 C470,131 560,128 680,128 L680,200 H0 Z" fill="#CECBF6"/><path d="M1200,132 C1070,104 930,100 800,120 C730,131 620,128 520,128 L520,200 H1200 Z" fill="#CECBF6"/><path d="M0,158 C300,144 600,166 900,156 C1050,151 1150,160 1200,156 L1200,200 H0 Z" fill="#7F77DD"/><g transform="translate(241,114) rotate(-16)"><rect x="-41" y="-34" width="82" height="66" rx="6" fill="#534AB7"/><rect x="-28" y="-20" width="56" height="5" rx="2.5" fill="#EEEDFE" opacity=".75"/><rect x="-28" y="-8" width="40" height="5" rx="2.5" fill="#EEEDFE" opacity=".55"/><rect x="-28" y="4" width="48" height="5" rx="2.5" fill="#EEEDFE" opacity=".55"/></g><g transform="translate(333,114) rotate(-14)"><rect x="-41" y="-34" width="82" height="66" rx="6" fill="#7F77DD"/><rect x="-28" y="-20" width="56" height="5" rx="2.5" fill="#EEEDFE" opacity=".75"/><rect x="-28" y="-8" width="40" height="5" rx="2.5" fill="#EEEDFE" opacity=".55"/><rect x="-28" y="4" width="48" height="5" rx="2.5" fill="#EEEDFE" opacity=".55"/></g><g transform="translate(425,114) rotate(-12)"><rect x="-41" y="-34" width="82" height="66" rx="6" fill="#534AB7"/><rect x="-28" y="-20" width="56" height="5" rx="2.5" fill="#EEEDFE" opacity=".75"/><rect x="-28" y="-8" width="40" height="5" rx="2.5" fill="#EEEDFE" opacity=".55"/><rect x="-28" y="4" width="48" height="5" rx="2.5" fill="#EEEDFE" opacity=".55"/></g><g transform="translate(517,114) rotate(-10)"><rect x="-41" y="-34" width="82" height="66" rx="6" fill="#7F77DD"/><rect x="-28" y="-20" width="56" height="5" rx="2.5" fill="#EEEDFE" opacity=".75"/><rect x="-28" y="-8" width="40" height="5" rx="2.5" fill="#EEEDFE" opacity=".55"/><rect x="-28" y="4" width="48" height="5" rx="2.5" fill="#EEEDFE" opacity=".55"/></g><g transform="translate(609,114) rotate(-8)"><rect x="-41" y="-34" width="82" height="66" rx="6" fill="#f3c46a"/><rect x="-28" y="-20" width="56" height="5" rx="2.5" fill="#26215C" opacity=".75"/><rect x="-28" y="-8" width="40" height="5" rx="2.5" fill="#26215C" opacity=".55"/><rect x="-28" y="4" width="48" height="5" rx="2.5" fill="#26215C" opacity=".55"/></g><g transform="translate(701,114) rotate(-6)"><rect x="-41" y="-34" width="82" height="66" rx="6" fill="#7F77DD"/><rect x="-28" y="-20" width="56" height="5" rx="2.5" fill="#EEEDFE" opacity=".75"/><rect x="-28" y="-8" width="40" height="5" rx="2.5" fill="#EEEDFE" opacity=".55"/><rect x="-28" y="4" width="48" height="5" rx="2.5" fill="#EEEDFE" opacity=".55"/></g><g transform="translate(793,114) rotate(-4)"><rect x="-41" y="-34" width="82" height="66" rx="6" fill="#534AB7"/><rect x="-28" y="-20" width="56" height="5" rx="2.5" fill="#EEEDFE" opacity=".75"/><rect x="-28" y="-8" width="40" height="5" rx="2.5" fill="#EEEDFE" opacity=".55"/><rect x="-28" y="4" width="48" height="5" rx="2.5" fill="#EEEDFE" opacity=".55"/></g><g transform="translate(885,114) rotate(-2)"><rect x="-41" y="-34" width="82" height="66" rx="6" fill="#7F77DD"/><rect x="-28" y="-20" width="56" height="5" rx="2.5" fill="#EEEDFE" opacity=".75"/><rect x="-28" y="-8" width="40" height="5" rx="2.5" fill="#EEEDFE" opacity=".55"/><rect x="-28" y="4" width="48" height="5" rx="2.5" fill="#EEEDFE" opacity=".55"/></g><g transform="translate(977,114) rotate(0)"><rect x="-41" y="-34" width="82" height="66" rx="6" fill="#534AB7"/><rect x="-28" y="-20" width="56" height="5" rx="2.5" fill="#EEEDFE" opacity=".75"/><rect x="-28" y="-8" width="40" height="5" rx="2.5" fill="#EEEDFE" opacity=".55"/><rect x="-28" y="4" width="48" height="5" rx="2.5" fill="#EEEDFE" opacity=".55"/></g><path d="M0,180 C300,170 600,188 900,178 C1050,173 1150,182 1200,178 L1200,200 H0 Z" fill="#26215C"/></svg>