<svg xmlns="http://www.w3.org/2000/svg" viewBox="0 0 1200 200" role="img" aria-label="Wortkarten hängen über die ganze Breite an einer Leine — eine leuchtet golden"><rect width="1200" height="200" fill="#EEEDFE"/><circle cx="190" cy="60" r="24" fill="#f3c46a"/><path d="M0,132 C130,104 270,100 400,120 C470,131 560,128 680,128 L680,200 H0 Z" fill="#CECBF6"/><path d="M1200,132 C1070,104 930,100 800,120 C730,131 620,128 520,128 L520,200 H1200 Z" fill="#CECBF6"/><path d="M0,158 C300,144 600,166 900,156 C1050,151 1150,160 1200,156 L1200,200 H0 Z" fill="#7F77DD"/><rect x="228" y="60" width="9" height="90" rx="3" fill="#26215C"/><rect x="963" y="60" width="9" height="90" rx="3" fill="#26215C"/><path d="M233,66 Q600,118 968,66" fill="none" stroke="#534AB7" stroke-width="4" stroke-linecap="round"/><rect x="296" y="73" width="6" height="12" fill="#534AB7"/><rect x="278" y="85" width="44" height="30" rx="4" fill="#3C3489"/><rect x="286" y="93" width="28" height="4" rx="2" fill="#CECBF6" opacity="0.8"/><rect x="286" y="101" width="20" height="4" rx="2" fill="#CECBF6" opacity="0.8"/><rect x="388" y="91" width="6" height="12" fill="#534AB7"/><rect x="370" y="103" width="44" height="30" rx="4" fill="#534AB7"/><rect x="378" y="111" width="28" height="4" rx="2" fill="#CECBF6" opacity="0.8"/><rect x="378" y="119" width="20" height="4" rx="2" fill="#CECBF6" opacity="0.8"/><rect x="480" y="103" width="6" height="12" fill="#534AB7"/><rect x="462" y="115" width="44" height="30" rx="4" fill="#3C3489"/><rect x="470" y="123" width="28" height="4" rx="2" fill="#CECBF6" opacity="0.8"/><rect x="470" y="131" width="20" height="4" rx="2" fill="#CECBF6" opacity="0.8"/><rect x="572" y="108" width="6" height="12" fill="#534AB7"/><rect x="554" y="120" width="44" height="30" rx="4" fill="#f3c46a"/><rect x="562" y="128" width="28" height="4" rx="2" fill="#26215C" opacity="0.8"/><rect x="562" y="136" width="20" height="4" rx="2" fill="#26215C" opacity="0.8"/><rect x="664" y="106" width="6" height="12" fill="#534AB7"/><rect x="646" y="118" width="44" height="30" rx="4" fill="#3C3489"/><rect x="654" y="126" width="28" height="4" rx="2" fill="#CECBF6" opacity="0.8"/><rect x="654" y="134" width="20" height="4" rx="2" fill="#CECBF6" opacity="0.8"/><rect x="756" y="98" width="6" height="12" fill="#534AB7"/><rect x="738" y="110" width="44" height="30" rx="4" fill="#534AB7"/><rect x="746" y="118" width="28" height="4" rx="2" fill="#CECBF6" opacity="0.8"/><rect x="746" y="126" width="20" height="4" rx="2" fill="#CECBF6" opacity="0.8"/><rect x="848" y="84" width="6" height="12" fill="#534AB7"/><rect x="830" y="96" width="44" height="30" rx="4" fill="#3C3489"/><rect x="838" y="104" width="28" height="4" rx="2" fill="#CECBF6" opacity="0.8"/><rect x="838" y="112" width="20" height="4" rx="2" fill="#CECBF6" opacity="0.8"/><rect x="940" y="63" width="6" height="12" fill="#534AB7"/><rect x="922" y="75" width="44" height="30" rx="4" fill="#534AB7"/><rect x="930" y="83" width="28" height="4" rx="2" fill="#CECBF6" opacity="0.8"/><rect x="930" y="91" width="20" height="4" rx="2" fill="#CECBF6" opacity="0.8"/><path d="M300,40 q7,-7 14,0" stroke="#534AB7" stroke-width="2.6" fill="none"/><path d="M316,43 q7,-7 14,0" stroke="#534AB7" stroke-width="2.6" fill="none"/><path d="M0,180 C300,170 600,188 900,178 C1050,173 1150,182 1200,178 L1200,200 H0 Z" fill="#26215C"/></svg>