<svg xmlns="http://www.w3.org/2000/svg" viewBox="0 0 1200 200" role="img" aria-label="Zwei Medaillen hängen an ihren Bändern — Belohnung des Lernens"><rect width="1200" height="200" fill="#EEEDFE"/><circle cx="300" cy="56" r="3.5" fill="#EEEDFE" opacity="0.5"/><circle cx="360" cy="90" r="3" fill="#EEEDFE" opacity="0.5"/><circle cx="900" cy="64" r="3" fill="#EEEDFE" opacity="0.5"/><circle cx="950" cy="96" r="2.5" fill="#EEEDFE" opacity="0.5"/><path d="M600,44 l-22,52 M600,44 l22,52" stroke="#534AB7" stroke-width="9" fill="none"/><circle cx="578" cy="110" r="24" fill="#7F77DD"/><circle cx="578" cy="110" r="24" fill="none" stroke="#26215C" stroke-width="2"/><circle cx="578" cy="110" r="8" fill="none" stroke="#EEEDFE" stroke-width="2" opacity="0.6"/><circle cx="628" cy="120" r="24" fill="#f3c46a"/><circle cx="628" cy="120" r="13" fill="none" stroke="#26215C" stroke-width="2" opacity="0.45"/><path d="M0,150 C200,134 420,166 640,150 C860,134 1040,166 1200,150 V200 H0 Z" fill="#3C3489"/><path d="M0,180 C240,166 480,192 720,178 C940,166 1090,188 1200,178 V200 H0 Z" fill="#26215C"/></svg>