<svg xmlns="http://www.w3.org/2000/svg" viewBox="0 0 1200 200" role="img" aria-label="Aus dem offenen Koffer steigen Wortkarten in den Himmel — die oberste leuchtet golden">
<rect width="1200" height="200" fill="#EEEDFE"/>
<path d="M240,52 q10,-8 20,0 M274,41 q10,-8 20,0" fill="none" stroke="#534AB7" stroke-width="3" stroke-linecap="round"/>
<rect x="516" y="82" width="92" height="28" rx="8" fill="#534AB7" transform="rotate(-62 522 108)"/>
<rect x="512" y="104" width="186" height="40" rx="8" fill="#3C3489"/>
<rect x="588" y="96" width="34" height="10" rx="5" fill="#26215C"/>
<rect x="536" y="144" width="12" height="8" fill="#26215C"/>
<rect x="662" y="144" width="12" height="8" fill="#26215C"/>
<rect x="676" y="78" width="36" height="26" rx="3" fill="#3C3489" transform="rotate(12 694 91)"/>
<rect x="746" y="48" width="36" height="26" rx="3" fill="#534AB7" transform="rotate(-8 764 61)"/>
<rect x="816" y="22" width="36" height="26" rx="3" fill="#f3c46a" transform="rotate(9 834 35)"/>
<path d="M0,152 C190,142 400,160 610,151 C830,142 1040,162 1200,151 V200 H0 Z" fill="#7F77DD"/>
<path d="M0,171 C230,163 480,183 700,172 C920,163 1080,181 1200,171 V200 H0 Z" fill="#3C3489"/>
<path d="M0,190 C260,183 540,200 800,189 C1010,183 1140,194 1200,189 V200 H0 Z" fill="#26215C"/>
</svg>
