<svg xmlns="http://www.w3.org/2000/svg" viewBox="0 0 1200 200" role="img" aria-label="Tag und Nacht ueber der Haeuserzeile — links geht die goldene Sonne auf, rechts steht der blasse Mond, die Zeit vergeht">
<rect width="1200" height="200" fill="#EEEDFE"/>
<path d="M0,122 C240,114 480,128 720,118 C940,110 1080,122 1200,116 V200 H0 Z" fill="#AFA9EC"/>
<circle cx="240" cy="70" r="26" fill="#f3c46a"/>
<path d="M980,54 a24,24 0 1 0 0,44 a28,28 0 0 1 0,-44 Z" fill="#AFA9EC"/>
<rect x="360" y="90" width="74" height="50" fill="#534AB7"/><path d="M356,90 L397,68 L438,90 Z" fill="#534AB7"/><rect x="440" y="100" width="62" height="40" fill="#3C3489"/><path d="M436,100 L471,78 L506,100 Z" fill="#3C3489"/><rect x="512" y="82" width="80" height="58" fill="#534AB7"/><path d="M508,82 L552,60 L596,82 Z" fill="#534AB7"/><rect x="602" y="94" width="66" height="46" fill="#3C3489"/><path d="M598,94 L635,72 L672,94 Z" fill="#3C3489"/><rect x="680" y="88" width="76" height="52" fill="#534AB7"/><path d="M676,88 L718,66 L760,88 Z" fill="#534AB7"/><rect x="760" y="98" width="60" height="42" fill="#3C3489"/><path d="M756,98 L790,76 L824,98 Z" fill="#3C3489"/>
<path d="M600,52 q9,-7 18,0 M630,44 q9,-7 18,0" fill="none" stroke="#7F77DD" stroke-width="3" stroke-linecap="round"/>
<path d="M0,152 C200,136 460,168 700,152 C900,140 1050,166 1200,152 V200 H0 Z" fill="#3C3489"/>
<path d="M0,182 C240,170 500,194 760,182 C980,170 1100,192 1200,182 V200 H0 Z" fill="#26215C"/>
</svg>
