<svg xmlns="http://www.w3.org/2000/svg" viewBox="0 0 1200 200" role="img" aria-label="Die Fassade eines Mehrfamilienhauses mit vielen Fenstern — in einem leuchtet golden die neue Wohnung">
<rect width="1200" height="200" fill="#EEEDFE"/>
<path d="M0,126 C240,118 480,130 720,122 C940,116 1080,126 1200,120 V200 H0 Z" fill="#AFA9EC"/>
<rect x="360" y="46" width="480" height="106" fill="#534AB7"/>
<rect x="356" y="40" width="488" height="10" fill="#3C3489"/>
<rect x="384" y="58" width="30" height="20" rx="1" fill="#AFA9EC"/><rect x="448" y="58" width="30" height="20" rx="1" fill="#AFA9EC"/><rect x="512" y="58" width="30" height="20" rx="1" fill="#AFA9EC"/><rect x="576" y="58" width="30" height="20" rx="1" fill="#AFA9EC"/><rect x="640" y="58" width="30" height="20" rx="1" fill="#AFA9EC"/><rect x="704" y="58" width="30" height="20" rx="1" fill="#AFA9EC"/><rect x="768" y="58" width="30" height="20" rx="1" fill="#AFA9EC"/><rect x="384" y="88" width="30" height="20" rx="1" fill="#AFA9EC"/><rect x="448" y="88" width="30" height="20" rx="1" fill="#AFA9EC"/><rect x="512" y="88" width="30" height="20" rx="1" fill="#AFA9EC"/><rect x="576" y="88" width="30" height="20" rx="1" fill="#AFA9EC"/><rect x="640" y="88" width="30" height="20" rx="1" fill="#f3c46a"/><rect x="704" y="88" width="30" height="20" rx="1" fill="#AFA9EC"/><rect x="768" y="88" width="30" height="20" rx="1" fill="#AFA9EC"/><rect x="384" y="118" width="30" height="20" rx="1" fill="#AFA9EC"/><rect x="448" y="118" width="30" height="20" rx="1" fill="#AFA9EC"/><rect x="512" y="118" width="30" height="20" rx="1" fill="#AFA9EC"/><rect x="576" y="118" width="30" height="20" rx="1" fill="#AFA9EC"/><rect x="640" y="118" width="30" height="20" rx="1" fill="#AFA9EC"/><rect x="704" y="118" width="30" height="20" rx="1" fill="#AFA9EC"/><rect x="768" y="118" width="30" height="20" rx="1" fill="#AFA9EC"/>
<rect x="576" y="120" width="48" height="32" rx="2" fill="#26215C"/>
<path d="M300,58 q9,-7 18,0 M330,50 q9,-7 18,0" fill="none" stroke="#7F77DD" stroke-width="3" stroke-linecap="round"/>
<path d="M0,152 C200,136 460,168 700,152 C900,140 1050,166 1200,152 V200 H0 Z" fill="#3C3489"/>
<path d="M0,182 C240,170 500,194 760,182 C980,170 1100,192 1200,182 V200 H0 Z" fill="#26215C"/>
</svg>
