<svg xmlns="http://www.w3.org/2000/svg" viewBox="0 0 1200 200" role="img" aria-label="Ein Wohnzimmer im Querschnitt — grosses Sofa, Couchtisch und Zimmerpflanze stehen an ihrem Platz, rechts leuchtet golden der Schirm der Stehlampe">
<rect width="1200" height="200" fill="#EEEDFE"/>
<path d="M0,116 C240,106 480,124 720,112 C940,104 1080,120 1200,112 V200 H0 Z" fill="#AFA9EC"/>
<rect x="250" y="52" width="86" height="60" rx="2" fill="#CECBF6" stroke="#534AB7" stroke-width="3"/><line x1="293" y1="52" x2="293" y2="112" stroke="#534AB7" stroke-width="3"/><line x1="250" y1="82" x2="336" y2="82" stroke="#534AB7" stroke-width="3"/>
<g fill="#3C3489"><rect x="430" y="112" width="200" height="42" rx="8"/><rect x="418" y="86" width="30" height="68" rx="8"/><rect x="612" y="86" width="30" height="68" rx="8"/><rect x="452" y="96" width="150" height="22" rx="6" fill="#534AB7"/></g>
<ellipse cx="710" cy="150" rx="46" ry="12" fill="#26215C"/><rect x="688" y="150" width="6" height="10" fill="#26215C"/><rect x="726" y="150" width="6" height="10" fill="#26215C"/>
<line x1="850" y1="152" x2="850" y2="72" stroke="#26215C" stroke-width="4"/><path d="M822,72 L878,72 L866,40 L834,40 Z" fill="#f3c46a"/><rect x="832" y="152" width="36" height="7" rx="2" fill="#26215C"/>
<path d="M932,152 L942,116 L922,116 Z" fill="#26215C"/><path d="M932,124 q-30,-16 -40,-46 q34,6 40,40 q6,-34 40,-40 q-10,30 -40,46 Z" fill="#534AB7"/>
<path d="M340,50 q9,-7 18,0 M370,42 q9,-7 18,0" fill="none" stroke="#7F77DD" stroke-width="3" stroke-linecap="round"/>
<path d="M0,152 C200,136 460,168 700,152 C900,140 1050,166 1200,152 V200 H0 Z" fill="#3C3489"/>
<path d="M0,182 C240,170 500,194 760,182 C980,170 1100,192 1200,182 V200 H0 Z" fill="#26215C"/>
</svg>
