<svg xmlns="http://www.w3.org/2000/svg" viewBox="0 0 1200 200" role="img" aria-label="Ein offenes Glas fängt Lichtpunkte wie Wörter — das goldene Glühwürmchen fliegt gerade hinein">
<rect width="1200" height="200" fill="#EEEDFE"/>
<path d="M872,46 q10,-8 20,0 M908,58 q8,-7 16,0" fill="none" stroke="#534AB7" stroke-width="3" stroke-linecap="round"/>
<path d="M0,146 C190,134 400,156 610,144 C830,132 1030,154 1200,142 V200 H0 Z" fill="#AFA9EC"/>
<g>
<path d="M566,92 L566,164 Q566,176 578,176 L646,176 Q658,176 658,164 L658,92 Z" fill="#534AB7"/>
<path d="M560,92 L664,92" stroke="#26215C" stroke-width="9" stroke-linecap="round"/>
<circle cx="590" cy="122" r="5" fill="#CECBF6"/>
<circle cx="624" cy="140" r="4" fill="#EEEDFE"/>
<circle cx="602" cy="158" r="5" fill="#CECBF6"/>
<circle cx="638" cy="118" r="3.5" fill="#EEEDFE"/>
<path d="M470,44 C510,32 560,40 600,62" fill="none" stroke="#7F77DD" stroke-width="3" stroke-linecap="round" stroke-dasharray="1 11"/>
<circle cx="612" cy="72" r="8" fill="#f3c46a"/>
</g>
<path d="M0,170 C230,160 480,182 720,170 C940,160 1090,178 1200,168 V200 H0 Z" fill="#3C3489"/>
<path d="M0,190 C260,182 540,200 800,190 C1020,184 1130,194 1200,190 V200 H0 Z" fill="#26215C"/>
</svg>
