<svg xmlns="http://www.w3.org/2000/svg" viewBox="0 0 1200 200" role="img" aria-label="Offene Schatztruhe mit goldenem Leuchten auf der Welle">
<rect width="1200" height="200" fill="#EEEDFE"/>
<path d="M980,36 a24,24 0 1 0 0,40 a28,28 0 0 1 0,-40 Z" fill="#CECBF6"/>
<path d="M0,140 C190,126 400,152 620,140 C840,128 1020,150 1200,139 V200 H0 Z" fill="#534AB7"/>
<g transform="rotate(-38 508 114)">
<path d="M508,114 a94,40 0 0 1 188,0 Z" fill="#3C3489"/>
</g>
<path d="M600,64 a48,48 0 0 1 48,48 L552,112 a48,48 0 0 1 48,-48 Z" fill="#f3c46a"/>
<circle cx="640" cy="44" r="4" fill="#AFA9EC"/>
<circle cx="682" cy="60" r="5" fill="#AFA9EC"/>
<circle cx="664" cy="88" r="3.5" fill="#AFA9EC"/>
<rect x="506" y="112" width="188" height="58" rx="9" fill="#26215C"/>
<rect x="588" y="112" width="24" height="20" rx="4" fill="#3C3489"/>
<path d="M250,70 q10,-8 20,0 M282,58 q10,-8 20,0" fill="none" stroke="#534AB7" stroke-width="3" stroke-linecap="round"/>
<path d="M0,168 C220,156 460,180 700,168 C920,158 1090,174 1200,166 V200 H0 Z" fill="#3C3489"/>
<path d="M0,190 C260,182 540,198 800,190 C1000,184 1120,194 1200,189 V200 H0 Z" fill="#26215C"/>
</svg>
