<svg xmlns="http://www.w3.org/2000/svg" viewBox="0 0 1200 200" role="img" aria-label="Ein Werkzeug-Regal voller Wörter über die ganze Breite — ein Werkzeug leuchtet golden"><rect width="1200" height="200" fill="#EEEDFE"/><circle cx="190" cy="60" r="24" fill="#f3c46a"/><path d="M0,132 C130,104 270,100 400,120 C470,131 560,128 680,128 L680,200 H0 Z" fill="#CECBF6"/><path d="M1200,132 C1070,104 930,100 800,120 C730,131 620,128 520,128 L520,200 H1200 Z" fill="#CECBF6"/><path d="M0,158 C300,144 600,166 900,156 C1050,151 1150,160 1200,156 L1200,200 H0 Z" fill="#7F77DD"/><rect x="220" y="92" width="760" height="9" rx="4" fill="#26215C"/><path d="M285,101 v-6 a4,4 0 0,1 8,0" fill="none" stroke="#534AB7" stroke-width="3"/><rect x="279" y="112" width="12" height="34" rx="4" fill="#26215C"/><path d="M272,104 h9 v10 h8 v-10 h9 v13 a13,13 0 0,1 -26,0 Z" fill="#26215C"/><path d="M390,101 v-6 a4,4 0 0,1 8,0" fill="none" stroke="#534AB7" stroke-width="3"/><path d="M382,104 h16 v10 l-4,4 h-8 l-4,-4 Z" fill="#3C3489"/><rect x="387" y="118" width="6" height="30" rx="2" fill="#3C3489"/><path d="M495,101 v-6 a4,4 0 0,1 8,0" fill="none" stroke="#534AB7" stroke-width="3"/><path d="M477,106 h36 v14 h-10 l-2,-6 h-10 l-2,6 h-12 Z" fill="#f3c46a"/><rect x="491" y="120" width="8" height="26" rx="2" fill="#f3c46a"/><path d="M600,101 v-6 a4,4 0 0,1 8,0" fill="none" stroke="#534AB7" stroke-width="3"/><rect x="597" y="104" width="6" height="16" rx="2" fill="#3C3489"/><path d="M582,120 h36 l-4,10 -5,-5 -5,5 -5,-5 -5,5 -5,-5 Z" fill="#3C3489"/><path d="M705,101 v-6 a4,4 0 0,1 8,0" fill="none" stroke="#534AB7" stroke-width="3"/><rect x="697" y="106" width="16" height="18" rx="3" fill="#26215C"/><path d="M697,124 q8,22 16,0 Z" fill="#26215C"/><rect x="702" y="142" width="6" height="8" fill="#26215C"/><path d="M810,101 v-6 a4,4 0 0,1 8,0" fill="none" stroke="#534AB7" stroke-width="3"/><rect x="804" y="112" width="12" height="34" rx="4" fill="#3C3489"/><path d="M797,104 h9 v10 h8 v-10 h9 v13 a13,13 0 0,1 -26,0 Z" fill="#3C3489"/><path d="M910,101 v-6 a4,4 0 0,1 8,0" fill="none" stroke="#534AB7" stroke-width="3"/><path d="M902,104 h16 v10 l-4,4 h-8 l-4,-4 Z" fill="#26215C"/><rect x="907" y="118" width="6" height="30" rx="2" fill="#26215C"/><path d="M150,44 q7,-7 14,0" stroke="#534AB7" stroke-width="2.6" fill="none"/><path d="M166,47 q7,-7 14,0" stroke="#534AB7" stroke-width="2.6" fill="none"/><path d="M0,180 C300,170 600,188 900,178 C1050,173 1150,182 1200,178 L1200,200 H0 Z" fill="#26215C"/></svg>