<svg xmlns="http://www.w3.org/2000/svg" viewBox="0 0 1200 200" role="img" aria-label="Ein Pokal steigt aus der Welle — der gesammelte Wortschatz"><rect width="1200" height="200" fill="#EEEDFE"/><g fill="#EEEDFE" opacity="0.5"><circle cx="300" cy="60" r="3.5"/><circle cx="360" cy="92" r="3"/><circle cx="250" cy="96" r="2.5"/></g><path d="M560,60 h80 v14 a40,40 0 0 1 -80,0 Z" fill="#f3c46a"/><path d="M560,66 a16,14 0 0 1 -22,0" fill="none" stroke="#f3c46a" stroke-width="5"/><path d="M640,66 a16,14 0 0 0 22,0" fill="none" stroke="#f3c46a" stroke-width="5"/><rect x="592" y="108" width="16" height="16" fill="#534AB7"/><rect x="574" y="124" width="52" height="12" rx="3" fill="#3C3489"/><path d="M0,150 C200,134 420,166 640,150 C860,134 1040,166 1200,150 V200 H0 Z" fill="#3C3489"/><path d="M0,180 C240,166 480,192 720,178 C940,166 1090,188 1200,178 V200 H0 Z" fill="#26215C"/></svg>