<svg xmlns="http://www.w3.org/2000/svg" viewBox="0 0 1200 200" role="img" aria-label="Eine gemuetliche Reihe kleiner Haeuser in der Daemmerung — in einem leuchtet golden das Fenster, darueber ein paar Sterne">
<rect width="1200" height="200" fill="#EEEDFE"/>
<path d="M0,122 C240,112 480,128 720,116 C940,108 1080,122 1200,114 V200 H0 Z" fill="#AFA9EC"/>
<circle cx="300" cy="44" r="2.5" fill="#7F77DD"/><circle cx="520" cy="30" r="2.5" fill="#7F77DD"/><circle cx="760" cy="50" r="2.5" fill="#7F77DD"/><circle cx="900" cy="36" r="2.5" fill="#7F77DD"/>
<rect x="260" y="90" width="72" height="50" fill="#534AB7"/><path d="M256,90 L296,68 L336,90 Z" fill="#534AB7"/><rect x="340" y="100" width="60" height="40" fill="#3C3489"/><path d="M336,100 L370,78 L404,100 Z" fill="#3C3489"/><rect x="410" y="82" width="80" height="58" fill="#534AB7"/><path d="M406,82 L450,60 L494,82 Z" fill="#534AB7"/><rect x="500" y="96" width="64" height="44" fill="#3C3489"/><path d="M496,96 L532,74 L568,96 Z" fill="#3C3489"/><rect x="576" y="88" width="74" height="52" fill="#534AB7"/><path d="M572,88 L613,66 L654,88 Z" fill="#534AB7"/><rect x="654" y="100" width="58" height="40" fill="#3C3489"/><path d="M650,100 L683,78 L716,100 Z" fill="#3C3489"/><rect x="724" y="84" width="78" height="56" fill="#534AB7"/><path d="M720,84 L763,62 L806,84 Z" fill="#534AB7"/><rect x="812" y="94" width="66" height="46" fill="#3C3489"/><path d="M808,94 L845,72 L882,94 Z" fill="#3C3489"/>
<rect x="428" y="98" width="16" height="20" rx="1" fill="#f3c46a"/>
<path d="M950,54 q9,-7 18,0 M980,46 q9,-7 18,0" fill="none" stroke="#7F77DD" stroke-width="3" stroke-linecap="round"/>
<path d="M0,152 C200,136 460,168 700,152 C900,140 1050,166 1200,152 V200 H0 Z" fill="#3C3489"/>
<path d="M0,182 C240,170 500,194 760,182 C980,170 1100,192 1200,182 V200 H0 Z" fill="#26215C"/>
</svg>
