<svg xmlns="http://www.w3.org/2000/svg" viewBox="0 0 1200 200" role="img" aria-label="Vom Flipchart lösen sich Wortkarten und fliegen wie Vögel davon — eine leuchtet golden">
<rect width="1200" height="200" fill="#EEEDFE"/>
<path d="M190,34 a24,24 0 1 0 0,40 a28,28 0 0 1 0,-40 Z" fill="#CECBF6"/>
<path d="M0,142 C180,128 380,152 600,140 C820,128 1020,150 1200,139 V200 H0 Z" fill="#534AB7"/>
<g>
<rect x="380" y="40" width="150" height="104" rx="6" fill="#EEEDFE" stroke="#26215C" stroke-width="6"/>
<path d="M374,40 L536,40 L536,32 L374,32 Z" fill="#26215C"/>
<line x1="420" y1="144" x2="396" y2="196" stroke="#26215C" stroke-width="7" stroke-linecap="round"/>
<line x1="490" y1="144" x2="514" y2="196" stroke="#26215C" stroke-width="7" stroke-linecap="round"/>
<line x1="404" y1="66" x2="474" y2="66" stroke="#AFA9EC" stroke-width="8" stroke-linecap="round"/>
<line x1="404" y1="90" x2="500" y2="90" stroke="#AFA9EC" stroke-width="8" stroke-linecap="round"/>
<line x1="404" y1="114" x2="460" y2="114" stroke="#AFA9EC" stroke-width="8" stroke-linecap="round"/>
</g>
<g fill="#3C3489">
<rect x="590" y="84" width="44" height="26" rx="4" transform="rotate(-10 612 97)"/>
<rect x="676" y="58" width="44" height="26" rx="4" transform="rotate(8 698 71)"/>
<rect x="756" y="84" width="44" height="26" rx="4" transform="rotate(-6 778 97)"/>
<rect x="840" y="46" width="44" height="26" rx="4" transform="rotate(10 862 59)"/>
</g>
<rect x="762" y="24" width="46" height="27" rx="4" fill="#f3c46a" transform="rotate(-8 785 37)"/>
<path d="M920,90 q10,-8 20,0 M952,78 q10,-8 20,0" fill="none" stroke="#534AB7" stroke-width="3" stroke-linecap="round"/>
<path d="M0,168 C210,158 440,178 660,168 C880,158 1050,176 1200,167 V200 H0 Z" fill="#3C3489"/>
<path d="M0,190 C240,184 500,197 760,191 C980,186 1120,195 1200,191 V200 H0 Z" fill="#26215C"/>
</svg>
