<svg xmlns="http://www.w3.org/2000/svg" viewBox="0 0 1200 200" role="img" aria-label="Eine Segelflotte auf der Welle, ein Segel golden"><rect width="1200" height="200" fill="#EEEDFE"/><circle cx="190" cy="60" r="24" fill="#f3c46a"/><path d="M0,132 C130,104 270,100 400,120 C470,131 560,128 680,128 L680,200 H0 Z" fill="#CECBF6"/><path d="M1200,132 C1070,104 930,100 800,120 C730,131 620,128 520,128 L520,200 H1200 Z" fill="#CECBF6"/><path d="M0,158 C300,144 600,166 900,156 C1050,151 1150,160 1200,156 L1200,200 H0 Z" fill="#7F77DD"/><path d="M430,50 q7,-7 14,0" stroke="#534AB7" stroke-width="2.6" fill="none"/><path d="M446,53 q7,-7 14,0" stroke="#534AB7" stroke-width="2.6" fill="none"/><line x1="240" y1="88" x2="240" y2="146" stroke="#26215C" stroke-width="2.4"/><path d="M240,90 L240,140 L270,140 Z" fill="#534AB7"/><path d="M206,146 L274,146 L264,157 L216,157 Z" fill="#26215C"/><line x1="440" y1="70" x2="440" y2="146" stroke="#26215C" stroke-width="3.2"/><path d="M440,72 L440,138 L480,138 Z" fill="#7F77DD"/><path d="M396,146 L484,146 L472,161 L408,161 Z" fill="#3C3489"/><line x1="630" y1="63" x2="630" y2="146" stroke="#26215C" stroke-width="3.4"/><path d="M630,66 L630,137 L674,137 Z" fill="#f3c46a"/><path d="M582,146 L678,146 L664,162 L596,162 Z" fill="#26215C"/><line x1="820" y1="78" x2="820" y2="146" stroke="#26215C" stroke-width="2.8"/><path d="M820,80 L820,138 L856,138 Z" fill="#534AB7"/><path d="M780,146 L860,146 L848,159 L792,159 Z" fill="#3C3489"/><line x1="990" y1="88" x2="990" y2="146" stroke="#26215C" stroke-width="2.4"/><path d="M990,90 L990,140 L1020,140 Z" fill="#7F77DD"/><path d="M956,146 L1024,146 L1014,157 L966,157 Z" fill="#26215C"/><path d="M0,180 C300,170 600,188 900,178 C1050,173 1150,182 1200,178 L1200,200 H0 Z" fill="#26215C"/></svg>