<svg xmlns="http://www.w3.org/2000/svg" viewBox="0 0 1200 200" role="img" aria-label="Wortkarten stehen wie eine Bergkette über der Welle — ihre obere Kante ist die Wellenlinie, eine Karte leuchtet golden">
<rect width="1200" height="200" fill="#EEEDFE"/>
<path d="M180,128 L320,90 L460,128 Z" fill="#CECBF6"/>
<path d="M0,132 C170,116 340,140 520,128 C700,116 880,140 1060,128 C1120,124 1170,130 1200,126 V200 H0 Z" fill="#AFA9EC"/>
<g>
<rect x="250" y="132" width="70" height="60" rx="4" fill="#7F77DD"/>
<rect x="322" y="108" width="70" height="84" rx="4" fill="#534AB7"/>
<rect x="394" y="88" width="70" height="104" rx="4" fill="#3C3489"/>
<rect x="466" y="72" width="70" height="120" rx="4" fill="#f3c46a"/>
<rect x="538" y="92" width="70" height="100" rx="4" fill="#534AB7"/>
<rect x="610" y="112" width="70" height="80" rx="4" fill="#7F77DD"/>
<rect x="682" y="130" width="70" height="62" rx="4" fill="#AFA9EC"/>
</g>
<g stroke="#26215C" stroke-width="2.5" opacity="0.5">
<line x1="266" y1="150" x2="304" y2="150"/><line x1="266" y1="162" x2="304" y2="162"/>
<line x1="338" y1="126" x2="376" y2="126"/><line x1="338" y1="138" x2="376" y2="138"/>
<line x1="554" y1="110" x2="592" y2="110"/><line x1="554" y1="122" x2="592" y2="122"/>
</g>
<path d="M752,150 C860,138 980,150 1200,144 V200 H752 Z" fill="#534AB7"/>
<path d="M0,168 C230,156 470,188 710,174 C930,162 1090,186 1200,174 V200 H0 Z" fill="#3C3489"/>
<path d="M0,188 C250,180 520,196 780,188 C980,182 1110,193 1200,187 V200 H0 Z" fill="#26215C"/>
</svg>
