<svg xmlns="http://www.w3.org/2000/svg" viewBox="0 0 1200 200" role="img" aria-label="Zwei Kaffeetassen auf der Welle, dazwischen steigt golden ein Herz auf — die Wörter des ersten Dates">
<rect width="1200" height="200" fill="#EEEDFE"/>
<path d="M600,58 C600,44 578,40 578,58 C578,44 556,44 556,60 C556,78 600,98 600,98 C600,98 644,78 644,60 C644,44 622,44 622,58 C622,40 600,44 600,58 Z" fill="#f3c46a"/>
<g fill="#7F77DD">
<path d="M470,84 h56 v20 a28,28 0 0 1 -56,0 Z"/>
<path d="M526,88 a12,12 0 0 1 0,20" fill="none" stroke="#7F77DD" stroke-width="6"/>
</g>
<path d="M486,74 q-6,-10 0,-20 M502,74 q-6,-10 0,-20" fill="none" stroke="#AFA9EC" stroke-width="3" stroke-linecap="round"/>
<g fill="#534AB7">
<path d="M676,84 h56 v20 a28,28 0 0 1 -56,0 Z"/>
<path d="M732,88 a12,12 0 0 1 0,20" fill="none" stroke="#534AB7" stroke-width="6"/>
</g>
<path d="M692,74 q-6,-10 0,-20 M708,74 q-6,-10 0,-20" fill="none" stroke="#AFA9EC" stroke-width="3" stroke-linecap="round"/>
<path d="M0,140 C190,124 400,154 620,142 C840,130 1020,158 1200,142 V200 H0 Z" fill="#3C3489"/>
<path d="M0,172 C240,158 500,192 760,178 C980,166 1110,188 1200,178 V200 H0 Z" fill="#26215C"/>
</svg>