<svg xmlns="http://www.w3.org/2000/svg" viewBox="0 0 1200 200" role="img" aria-label="Ein Einkaufskorb voller Wortkarten — die goldene Karte kommt gerade dazu">
<rect width="1200" height="200" fill="#EEEDFE"/>
<path d="M330,50 q10,-8 20,0 M366,62 q8,-7 16,0" fill="none" stroke="#534AB7" stroke-width="3" stroke-linecap="round"/>
<path d="M0,142 C180,130 380,152 580,140 C800,128 1010,152 1200,140 V200 H0 Z" fill="#AFA9EC"/>
<g>
<rect x="588" y="56" width="42" height="30" rx="3" fill="#f3c46a" transform="rotate(-16 609 71)"/>
<rect x="540" y="112" width="40" height="28" rx="3" fill="#534AB7" transform="rotate(10 560 126)"/>
<rect x="598" y="108" width="40" height="28" rx="3" fill="#3C3489" transform="rotate(-8 618 122)"/>
<rect x="654" y="112" width="40" height="28" rx="3" fill="#534AB7" transform="rotate(14 674 126)"/>
<path d="M556,134 A62,58 0 0,1 680,134" fill="none" stroke="#26215C" stroke-width="8" stroke-linecap="round"/>
<path d="M528,136 L708,136 L686,186 L550,186 Z" fill="#26215C"/>
<path d="M562,148 L570,174 M598,148 L602,174 M638,148 L640,174 M674,148 L668,174" stroke="#534AB7" stroke-width="3" stroke-linecap="round"/>
</g>
<path d="M0,166 C220,156 460,178 700,166 C920,156 1080,174 1200,164 V200 H0 Z" fill="#3C3489"/>
<path d="M0,190 C260,182 540,200 800,190 C1020,184 1130,194 1200,190 V200 H0 Z" fill="#26215C"/>
</svg>
