<svg xmlns="http://www.w3.org/2000/svg" viewBox="0 0 1200 200" role="img" aria-label="Ein Einkaufskorb über der Welle sammelt Waren — eine Frucht leuchtet golden">
<rect width="1200" height="200" fill="#EEEDFE"/>
<path d="M760,120 L870,82 L980,120 Z" fill="#CECBF6"/><path d="M300,70 q10,-8 20,0 M330,58 q10,-8 20,0" fill="none" stroke="#534AB7" stroke-width="3" stroke-linecap="round"/><path d="M560,104 L700,104 L686,150 L574,150 Z" fill="#3C3489"/><path d="M560,104 L700,104" stroke="#534AB7" stroke-width="4"/><path d="M578,104 a52,52 0 0 1 104,0" fill="none" stroke="#534AB7" stroke-width="4"/><circle cx="600" cy="96" r="12" fill="#7F77DD"/><circle cx="636" cy="90" r="13" fill="#f3c46a"/><rect x="656" y="82" width="14" height="24" rx="4" fill="#AFA9EC"/><path d="M0,128 C150,106 330,142 510,126 C710,108 910,144 1110,128 C1155,124 1185,128 1200,125 V200 H0 Z" fill="#534AB7"/>
<path d="M0,152 C190,134 400,166 620,152 C840,138 1020,168 1200,152 V200 H0 Z" fill="#3C3489"/>
<path d="M0,180 C240,166 500,192 760,178 C980,166 1110,188 1200,178 V200 H0 Z" fill="#26215C"/>

</svg>
