<svg xmlns="http://www.w3.org/2000/svg" viewBox="0 0 1200 200" role="img" aria-label="Ein Pokal-Regal ueber die Breite, der mittlere Pokal golden"><rect width="1200" height="200" fill="#EEEDFE"/><circle cx="190" cy="60" r="24" fill="#f3c46a"/><path d="M0,132 C130,104 270,100 400,120 C470,131 560,128 680,128 L680,200 H0 Z" fill="#CECBF6"/><path d="M1200,132 C1070,104 930,100 800,120 C730,131 620,128 520,128 L520,200 H1200 Z" fill="#CECBF6"/><path d="M0,158 C300,144 600,166 900,156 C1050,151 1150,160 1200,156 L1200,200 H0 Z" fill="#7F77DD"/><path d="M150,50 q7,-7 14,0" stroke="#534AB7" stroke-width="2.6" fill="none"/><path d="M166,53 q7,-7 14,0" stroke="#534AB7" stroke-width="2.6" fill="none"/><circle cx="240" cy="130" r="15" fill="#3C3489"/><path d="M231,120 l-6,-20 M249,120 l6,-20" stroke="#3C3489" stroke-width="4"/><path d="M381,111 L419,111 Q419,136 400,136 Q381,136 381,111 Z" fill="#534AB7"/><path d="M381,114 q-12,0 -12,-12 q0,-8 12,-6" fill="none" stroke="#534AB7" stroke-width="2.5"/><path d="M419,114 q12,0 12,-12 q0,-8 -12,-6" fill="none" stroke="#534AB7" stroke-width="2.5"/><rect x="397" y="136" width="5" height="8" fill="#534AB7"/><rect x="388" y="144" width="24" height="6" rx="2" fill="#534AB7"/><path d="M574,95 L626,95 Q626,131 600,131 Q574,131 574,95 Z" fill="#f3c46a"/><path d="M574,100 q-12,0 -12,-12 q0,-8 12,-6" fill="none" stroke="#f3c46a" stroke-width="3.6"/><path d="M626,100 q12,0 12,-12 q0,-8 -12,-6" fill="none" stroke="#f3c46a" stroke-width="3.6"/><rect x="596" y="131" width="7" height="11" fill="#f3c46a"/><rect x="583" y="142" width="34" height="8" rx="2" fill="#f3c46a"/><path d="M781,111 L819,111 Q819,136 800,136 Q781,136 781,111 Z" fill="#534AB7"/><path d="M781,114 q-12,0 -12,-12 q0,-8 12,-6" fill="none" stroke="#534AB7" stroke-width="2.5"/><path d="M819,114 q12,0 12,-12 q0,-8 -12,-6" fill="none" stroke="#534AB7" stroke-width="2.5"/><rect x="797" y="136" width="5" height="8" fill="#534AB7"/><rect x="788" y="144" width="24" height="6" rx="2" fill="#534AB7"/><circle cx="960" cy="130" r="15" fill="#3C3489"/><path d="M951,120 l-6,-20 M969,120 l6,-20" stroke="#3C3489" stroke-width="4"/><rect x="180" y="150" width="840" height="7" rx="3" fill="#26215C"/><path d="M0,180 C300,170 600,188 900,178 C1050,173 1150,182 1200,178 L1200,200 H0 Z" fill="#26215C"/></svg>