<svg xmlns="http://www.w3.org/2000/svg" viewBox="0 0 1200 200" role="img" aria-label="Ein Paar Sportschuhe steht nebeneinander — Paare finden"><rect width="1200" height="200" fill="#EEEDFE"/><circle cx="300" cy="58" r="3.5" fill="#EEEDFE" opacity="0.5"/><circle cx="360" cy="92" r="3" fill="#EEEDFE" opacity="0.5"/><circle cx="900" cy="64" r="3" fill="#EEEDFE" opacity="0.5"/><circle cx="950" cy="96" r="2.5" fill="#EEEDFE" opacity="0.5"/><g transform="translate(430,0)"><path d="M0,150 Q-4,140 10,138 L118,138 Q132,138 130,150 Z" fill="#26215C"/><path d="M16,138 C16,116 42,106 68,106 C88,106 96,120 112,123 C124,125 120,138 120,138 Z" fill="#7F77DD"/><path d="M42,120 l10,-8 M58,116 l10,-8 M74,116 l9,-7" stroke="#EEEDFE" stroke-width="2" opacity="0.65"/></g><g transform="translate(640,0)"><path d="M0,150 Q-4,140 10,138 L118,138 Q132,138 130,150 Z" fill="#26215C"/><path d="M16,138 C16,116 42,106 68,106 C88,106 96,120 112,123 C124,125 120,138 120,138 Z" fill="#534AB7"/><path d="M42,120 l10,-8 M58,116 l10,-8 M74,116 l9,-7" stroke="#EEEDFE" stroke-width="2" opacity="0.65"/><path d="M30,134 Q66,116 108,128" stroke="#f3c46a" stroke-width="5" fill="none" stroke-linecap="round"/></g><path d="M0,150 C200,134 420,166 640,150 C860,134 1040,166 1200,150 V200 H0 Z" fill="#3C3489"/><path d="M0,180 C240,166 480,192 720,178 C940,166 1090,188 1200,178 V200 H0 Z" fill="#26215C"/></svg>