<svg xmlns="http://www.w3.org/2000/svg" viewBox="0 0 1200 200" role="img" aria-label="Der goldene Schlüssel schwebt vor seinem Schloss — jedes Teil findet sein Gegenstück">
<rect width="1200" height="200" fill="#EEEDFE"/>
<path d="M310,50 q10,-8 20,0 M344,38 q10,-8 20,0" fill="none" stroke="#534AB7" stroke-width="3" stroke-linecap="round"/>
<path d="M0,130 C220,118 480,140 740,131 C960,123 1110,135 1200,128 V200 H0 Z" fill="#AFA9EC"/>
<g>
<path d="M640,96 v-18 a44,44 0 0 1 88,0 v18 h-16 v-16 a28,28 0 0 0 -56,0 v16 Z" fill="#3C3489"/>
<rect x="622" y="94" width="124" height="86" rx="12" fill="#26215C"/>
<circle cx="684" cy="128" r="11" fill="#EEEDFE"/>
<rect x="679" y="132" width="10" height="22" rx="4" fill="#EEEDFE"/>
</g>
<g transform="translate(430,120) rotate(-18)">
<circle cx="-52" cy="0" r="22" fill="none" stroke="#f3c46a" stroke-width="11"/>
<rect x="-30" y="-6" width="112" height="12" rx="5" fill="#f3c46a"/>
<rect x="58" y="4" width="12" height="20" rx="3" fill="#f3c46a"/>
<rect x="34" y="4" width="12" height="14" rx="3" fill="#f3c46a"/>
</g>
<path d="M0,158 C240,148 500,168 760,159 C980,152 1120,162 1200,157 V200 H0 Z" fill="#534AB7"/>
<path d="M0,178 C250,170 520,190 780,181 C1000,174 1120,186 1200,181 V200 H0 Z" fill="#3C3489"/>
<path d="M0,192 C280,188 560,198 820,194 C1020,191 1130,196 1200,194 V200 H0 Z" fill="#26215C"/>
</svg>
