<svg xmlns="http://www.w3.org/2000/svg" viewBox="0 0 1200 200" role="img" aria-label="Ein Förderband trägt einen goldenen Brotlaib durch den Ofen — das Band ist zugleich die Wellenkante">
<rect width="1200" height="200" fill="#EEEDFE"/>
<path d="M200,120 L300,84 L400,120 Z" fill="#CECBF6"/><path d="M300,72 q10,-8 20,0 M330,60 q10,-8 20,0" fill="none" stroke="#534AB7" stroke-width="3" stroke-linecap="round"/><path d="M770,120 L770,84 a56,30 0 0 1 112,0 L882,120 Z" fill="#3C3489"/><path d="M792,120 L792,90 a34,20 0 0 1 68,0 L860,120" fill="#EEEDFE"/><path d="M0,132 C160,120 340,140 520,132 C700,124 900,140 1100,132 C1150,130 1180,132 1200,131 L1200,142 C1180,143 1150,141 1100,143 C900,151 700,135 520,143 C340,151 160,131 0,143 Z" fill="#534AB7"/><path d="M600,132 q22,-22 44,0 Z" fill="#f3c46a"/><line x1="612" y1="122" x2="616" y2="128" stroke="#26215C" stroke-width="2"/><line x1="624" y1="118" x2="628" y2="124" stroke="#26215C" stroke-width="2"/><line x1="636" y1="122" x2="640" y2="128" stroke="#26215C" stroke-width="2"/><path d="M0,158 C200,142 420,170 640,156 C860,144 1040,168 1200,156 V200 H0 Z" fill="#3C3489"/><path d="M0,182 C240,170 500,194 760,181 C980,170 1110,188 1200,180 V200 H0 Z" fill="#26215C"/>
</svg>
