<svg xmlns="http://www.w3.org/2000/svg" viewBox="0 0 1200 200" role="img" aria-label="Zwei Uhren ueber der Welle durch einen Bogen verbunden; die fruehere goldene Uhr findet ihr spaeteres Gegenstueck">
<rect width="1200" height="200" fill="#EEEDFE"/>
<path d="M470,120 C470,70 730,70 730,120" fill="none" stroke="#AFA9EC" stroke-width="4" stroke-dasharray="2 8" stroke-linecap="round"/>
<circle cx="470" cy="120" r="34" fill="#f3c46a"/>
<circle cx="470" cy="120" r="34" fill="none" stroke="#26215C" stroke-width="3"/>
<line x1="470" y1="120" x2="470" y2="100" stroke="#26215C" stroke-width="3" stroke-linecap="round"/>
<line x1="470" y1="120" x2="456" y2="128" stroke="#26215C" stroke-width="3" stroke-linecap="round"/>
<circle cx="730" cy="120" r="34" fill="#7F77DD"/>
<circle cx="730" cy="120" r="34" fill="none" stroke="#26215C" stroke-width="3"/>
<line x1="730" y1="120" x2="730" y2="100" stroke="#EEEDFE" stroke-width="3" stroke-linecap="round"/>
<line x1="730" y1="120" x2="748" y2="126" stroke="#EEEDFE" stroke-width="3" stroke-linecap="round"/>
<path d="M0,160 C210,148 440,174 680,162 C880,152 1030,172 1200,162 V200 H0 Z" fill="#3C3489"/>
<path d="M0,184 C240,174 500,196 760,186 C980,176 1100,192 1200,186 V200 H0 Z" fill="#26215C"/>
</svg>