<svg xmlns="http://www.w3.org/2000/svg" viewBox="0 0 1200 200" role="img" aria-label="Ein Magnet über der Welle zieht den goldenen Punkt an">
<rect width="1200" height="200" fill="#EEEDFE"/>
<path d="M700,150 L850,102 L1010,150 Z" fill="#CECBF6"/>
<path d="M260,70 q10,-8 20,0 M294,58 q10,-8 20,0" fill="none" stroke="#534AB7" stroke-width="3" stroke-linecap="round"/>
<path d="M554,64 A46,46 0 0 1 646,64 L646,100 L618,100 L618,64 A18,18 0 0 0 582,64 L582,100 L554,100 Z" fill="#3C3489"/>
<rect x="554" y="100" width="28" height="12" fill="#CECBF6"/>
<rect x="618" y="100" width="28" height="12" fill="#CECBF6"/>
<circle cx="600" cy="136" r="10" fill="#f3c46a"/>
<path d="M574,124 q-6,8 0,16 M626,124 q6,8 0,16" fill="none" stroke="#AFA9EC" stroke-width="3" stroke-linecap="round"/>
<path d="M0,156 C190,146 400,164 620,155 C840,146 1030,162 1200,154 V200 H0 Z" fill="#534AB7"/>
<circle cx="300" cy="166" r="3" fill="#AFA9EC"/>
<path d="M0,176 C220,168 450,186 670,176 C890,168 1060,182 1200,175 V200 H0 Z" fill="#3C3489"/>
<path d="M0,192 C240,188 500,198 760,193 C980,189 1120,196 1200,193 V200 H0 Z" fill="#26215C"/>
</svg>
