<svg xmlns="http://www.w3.org/2000/svg" viewBox="0 0 1200 200" role="img" aria-label="Eine Uhr ueber der Welle — ihr langer Zeiger geht in die Wellenkante ueber und zieht die Zeit ueber die Landschaft, golden der Mittelpunkt">
<rect width="1200" height="200" fill="#EEEDFE"/>
<path d="M0,120 C240,112 480,126 720,116 C940,108 1080,120 1200,114 V200 H0 Z" fill="#AFA9EC"/>
<circle cx="600" cy="66" r="44" fill="none" stroke="#3C3489" stroke-width="7"/>
<line x1="600" y1="28" x2="600" y2="22" stroke="#3C3489" stroke-width="2.5"/><line x1="619" y1="33" x2="622" y2="28" stroke="#3C3489" stroke-width="2.5"/><line x1="633" y1="47" x2="638" y2="44" stroke="#3C3489" stroke-width="2.5"/><line x1="638" y1="66" x2="644" y2="66" stroke="#3C3489" stroke-width="2.5"/><line x1="633" y1="85" x2="638" y2="88" stroke="#3C3489" stroke-width="2.5"/><line x1="619" y1="99" x2="622" y2="104" stroke="#3C3489" stroke-width="2.5"/><line x1="600" y1="104" x2="600" y2="110" stroke="#3C3489" stroke-width="2.5"/><line x1="581" y1="99" x2="578" y2="104" stroke="#3C3489" stroke-width="2.5"/><line x1="567" y1="85" x2="562" y2="88" stroke="#3C3489" stroke-width="2.5"/><line x1="562" y1="66" x2="556" y2="66" stroke="#3C3489" stroke-width="2.5"/><line x1="567" y1="47" x2="562" y2="44" stroke="#3C3489" stroke-width="2.5"/><line x1="581" y1="33" x2="578" y2="28" stroke="#3C3489" stroke-width="2.5"/>
<line x1="600" y1="66" x2="600" y2="40" stroke="#26215C" stroke-width="4" stroke-linecap="round"/>
<path d="M600,66 C640,80 720,120 820,132 C920,144 1040,140 1160,120" fill="none" stroke="#3C3489" stroke-width="7" stroke-linecap="round"/>
<circle cx="600" cy="66" r="7" fill="#f3c46a"/>
<path d="M320,52 q9,-7 18,0 M350,44 q9,-7 18,0" fill="none" stroke="#7F77DD" stroke-width="3" stroke-linecap="round"/>
<path d="M0,152 C200,136 460,168 700,152 C900,140 1050,166 1200,152 V200 H0 Z" fill="#3C3489"/>
<path d="M0,182 C240,170 500,194 760,182 C980,170 1100,192 1200,182 V200 H0 Z" fill="#26215C"/>
</svg>
