<svg xmlns="http://www.w3.org/2000/svg" viewBox="0 0 1200 200" role="img" aria-label="Schlüssel und Schlösser werden paarweise zugeordnet — ein goldener Schlüssel passt"><rect width="1200" height="200" fill="#EEEDFE"/><circle cx="190" cy="60" r="24" fill="#f3c46a"/><path d="M0,132 C130,104 270,100 400,120 C470,131 560,128 680,128 L680,200 H0 Z" fill="#CECBF6"/><path d="M1200,132 C1070,104 930,100 800,120 C730,131 620,128 520,128 L520,200 H1200 Z" fill="#CECBF6"/><path d="M0,158 C300,144 600,166 900,156 C1050,151 1150,160 1200,156 L1200,200 H0 Z" fill="#7F77DD"/><path d="M266,134 H312" stroke="#534AB7" stroke-width="2" stroke-dasharray="3 5" opacity="0.5"/><path d="M242,112 a8,8 0 0,1 16,0 v10 h-5 v-10 a3,3 0 0,0 -6,0 v10 h-5 Z" fill="#26215C"/><rect x="236" y="120" width="28" height="26" rx="4" fill="#26215C"/><circle cx="250" cy="131" r="3.5" fill="#CECBF6"/><rect x="248.5" y="131" width="3" height="7" fill="#CECBF6"/><circle cx="326" cy="130" r="10" fill="none" stroke="#534AB7" stroke-width="6"/><rect x="334" y="127" width="46" height="6" rx="3" fill="#534AB7"/><rect x="366" y="133" width="6" height="9" fill="#534AB7"/><rect x="376" y="133" width="6" height="9" fill="#534AB7"/><path d="M446,134 H492" stroke="#534AB7" stroke-width="2" stroke-dasharray="3 5" opacity="0.5"/><path d="M422,112 a8,8 0 0,1 16,0 v10 h-5 v-10 a3,3 0 0,0 -6,0 v10 h-5 Z" fill="#26215C"/><rect x="416" y="120" width="28" height="26" rx="4" fill="#26215C"/><circle cx="430" cy="131" r="3.5" fill="#CECBF6"/><rect x="428.5" y="131" width="3" height="7" fill="#CECBF6"/><circle cx="506" cy="130" r="10" fill="none" stroke="#534AB7" stroke-width="6"/><rect x="514" y="127" width="46" height="6" rx="3" fill="#534AB7"/><rect x="546" y="133" width="6" height="9" fill="#534AB7"/><rect x="556" y="133" width="6" height="9" fill="#534AB7"/><path d="M626,134 H672" stroke="#f3c46a" stroke-width="2" stroke-dasharray="3 5" opacity="0.5"/><path d="M602,112 a8,8 0 0,1 16,0 v10 h-5 v-10 a3,3 0 0,0 -6,0 v10 h-5 Z" fill="#26215C"/><rect x="596" y="120" width="28" height="26" rx="4" fill="#26215C"/><circle cx="610" cy="131" r="3.5" fill="#CECBF6"/><rect x="608.5" y="131" width="3" height="7" fill="#CECBF6"/><circle cx="686" cy="130" r="10" fill="none" stroke="#f3c46a" stroke-width="6"/><rect x="694" y="127" width="46" height="6" rx="3" fill="#f3c46a"/><rect x="726" y="133" width="6" height="9" fill="#f3c46a"/><rect x="736" y="133" width="6" height="9" fill="#f3c46a"/><path d="M806,134 H852" stroke="#534AB7" stroke-width="2" stroke-dasharray="3 5" opacity="0.5"/><path d="M782,112 a8,8 0 0,1 16,0 v10 h-5 v-10 a3,3 0 0,0 -6,0 v10 h-5 Z" fill="#26215C"/><rect x="776" y="120" width="28" height="26" rx="4" fill="#26215C"/><circle cx="790" cy="131" r="3.5" fill="#CECBF6"/><rect x="788.5" y="131" width="3" height="7" fill="#CECBF6"/><circle cx="866" cy="130" r="10" fill="none" stroke="#534AB7" stroke-width="6"/><rect x="874" y="127" width="46" height="6" rx="3" fill="#534AB7"/><rect x="906" y="133" width="6" height="9" fill="#534AB7"/><rect x="916" y="133" width="6" height="9" fill="#534AB7"/><path d="M150,44 q7,-7 14,0" stroke="#534AB7" stroke-width="2.6" fill="none"/><path d="M166,47 q7,-7 14,0" stroke="#534AB7" stroke-width="2.6" fill="none"/><path d="M0,180 C300,170 600,188 900,178 C1050,173 1150,182 1200,178 L1200,200 H0 Z" fill="#26215C"/></svg>