<svg xmlns="http://www.w3.org/2000/svg" viewBox="0 0 1200 200" role="img" aria-label="Zuordnung: linke und rechte Karten, eine Verbindung golden"><rect width="1200" height="200" fill="#EEEDFE"/><circle cx="190" cy="60" r="24" fill="#f3c46a"/><path d="M0,132 C130,104 270,100 400,120 C470,131 560,128 680,128 L680,200 H0 Z" fill="#CECBF6"/><path d="M1200,132 C1070,104 930,100 800,120 C730,131 620,128 520,128 L520,200 H1200 Z" fill="#CECBF6"/><path d="M0,158 C300,144 600,166 900,156 C1050,151 1150,160 1200,156 L1200,200 H0 Z" fill="#7F77DD"/><path d="M225,100 C600.0,100 600.0,140 975,140" fill="none" stroke="#534AB7" stroke-width="4"/><path d="M225,128 C600.0,128 600.0,168 975,168" fill="none" stroke="#7F77DD" stroke-width="4"/><path d="M225,156 C600.0,156 600.0,110 975,110" fill="none" stroke="#f3c46a" stroke-width="4"/><rect x="201" y="87" width="30" height="26" rx="5" fill="#3C3489"/><rect x="201" y="115" width="30" height="26" rx="5" fill="#3C3489"/><rect x="201" y="143" width="30" height="26" rx="5" fill="#3C3489"/><rect x="969" y="97" width="30" height="26" rx="5" fill="#3C3489"/><rect x="969" y="127" width="30" height="26" rx="5" fill="#3C3489"/><rect x="969" y="155" width="30" height="26" rx="5" fill="#3C3489"/><path d="M0,180 C300,170 600,188 900,178 C1050,173 1150,182 1200,178 L1200,200 H0 Z" fill="#26215C"/></svg>