<svg xmlns="http://www.w3.org/2000/svg" viewBox="0 0 1200 200" role="img" aria-label="Ein goldenes Puzzleteil schwebt über seiner Lücke in der Welle">
<rect width="1200" height="200" fill="#EEEDFE"/>
<path d="M150,150 L300,98 L460,150 Z" fill="#CECBF6"/>
<path d="M250,84 q10,-8 20,0 M284,72 q10,-8 20,0" fill="none" stroke="#534AB7" stroke-width="3" stroke-linecap="round"/>
<g fill="#f3c46a">
<rect x="552" y="34" width="96" height="46" rx="6"/>
<path d="M584,80 L584,84 A16,16 0 0 0 616,84 L616,80 Z"/>
<circle cx="600" cy="88" r="16"/>
</g>
<path d="M0,142 C180,130 380,150 520,140 L568,136 L574,140 A27,27 0 0 0 626,140 L632,136 L680,140 C880,152 1050,132 1200,142 V200 H0 Z" fill="#534AB7"/>
<circle cx="880" cy="158" r="3" fill="#AFA9EC"/>
<circle cx="940" cy="152" r="2.5" fill="#AFA9EC"/>
<path d="M0,168 C220,160 450,178 670,168 C890,160 1060,174 1200,167 V200 H0 Z" fill="#3C3489"/>
<path d="M0,190 C240,185 500,197 760,191 C980,187 1120,195 1200,191 V200 H0 Z" fill="#26215C"/>
</svg>
