<svg xmlns="http://www.w3.org/2000/svg" viewBox="0 0 1200 200" role="img" aria-label="Die vordere Welle laeuft rechts zu einem Pfeil aus und weist zum Haus — links markiert ein Standort-Punkt das Wo, golden leuchtet das Ziel-Fenster">
<rect width="1200" height="200" fill="#EEEDFE"/>
<path d="M0,118 C240,110 480,126 760,116 C980,108 1080,120 1200,114 V200 H0 Z" fill="#AFA9EC"/>
<path d="M980,120 q60,-18 120,0" fill="none"/><g fill="#3C3489"><rect x="1000" y="86" width="60" height="40"/><path d="M994,86 L1030,58 L1066,86 Z"/></g><rect x="1020" y="98" width="18" height="24" rx="1" fill="#f3c46a"/>
<g transform="translate(320,96)"><path d="M0,0 C-16,-18 -16,-40 0,-40 C16,-40 16,-18 0,0 Z" fill="#26215C"/><circle cx="0" cy="-26" r="7" fill="#EEEDFE"/></g>
<path d="M120,150 C360,138 560,150 760,132 C830,126 900,118 968,96" fill="none" stroke="#3C3489" stroke-width="9" stroke-linecap="round"/>
<path d="M968,96 L946,104 M968,96 L958,120" fill="none" stroke="#3C3489" stroke-width="9" stroke-linecap="round"/>
<path d="M420,58 q9,-7 18,0 M450,50 q9,-7 18,0" fill="none" stroke="#7F77DD" stroke-width="3" stroke-linecap="round"/>
<path d="M0,152 C200,136 460,168 700,152 C900,140 1050,166 1200,152 V200 H0 Z" fill="#3C3489"/>
<path d="M0,182 C240,170 500,194 760,182 C980,170 1100,192 1200,182 V200 H0 Z" fill="#26215C"/>
</svg>
