<svg xmlns="http://www.w3.org/2000/svg" viewBox="0 0 1200 200" role="img" aria-label="Ein Basketball fällt durch den Korb — Treffer und Zuordnung"><rect width="1200" height="200" fill="#EEEDFE"/><circle cx="300" cy="56" r="3.5" fill="#EEEDFE" opacity="0.5"/><circle cx="360" cy="90" r="3" fill="#EEEDFE" opacity="0.5"/><circle cx="250" cy="96" r="2.5" fill="#EEEDFE" opacity="0.5"/><line x1="840" y1="40" x2="840" y2="150" stroke="#26215C" stroke-width="7"/><rect x="726" y="52" width="80" height="56" rx="4" fill="none" stroke="#26215C" stroke-width="5"/><line x1="700" y1="114" x2="752" y2="114" stroke="#26215C" stroke-width="5" stroke-linecap="round"/><path d="M702,114 l8,22 M726,114 l0,26 M750,114 l-8,22" stroke="#7F77DD" stroke-width="2.2" fill="none"/><circle cx="726" cy="150" r="17" fill="#f3c46a"/><path d="M726,133 v34 M709,150 h34" stroke="#26215C" stroke-width="1.6" opacity="0.5"/><path d="M0,150 C200,134 420,166 640,150 C860,134 1040,166 1200,150 V200 H0 Z" fill="#3C3489"/><path d="M0,180 C240,166 480,192 720,178 C940,166 1090,188 1200,178 V200 H0 Z" fill="#26215C"/></svg>