<svg xmlns="http://www.w3.org/2000/svg" viewBox="0 0 1200 200" role="img" aria-label="Ein Feinkostregal über der Welle — Gläser stehen paarweise, ein Glas leuchtet golden">
<rect width="1200" height="200" fill="#EEEDFE"/>
<path d="M200,120 L300,86 L400,120 Z" fill="#CECBF6"/><path d="M300,74 q10,-8 20,0 M330,62 q10,-8 20,0" fill="none" stroke="#534AB7" stroke-width="3" stroke-linecap="round"/><rect x="470" y="104" width="360" height="8" rx="3" fill="#534AB7"/><rect x="500" y="74" width="26" height="30" rx="4" fill="#7F77DD"/><rect x="532" y="74" width="26" height="30" rx="4" fill="#7F77DD"/><rect x="600" y="70" width="26" height="34" rx="4" fill="#AFA9EC"/><rect x="632" y="70" width="26" height="34" rx="4" fill="#AFA9EC"/><rect x="708" y="76" width="26" height="28" rx="4" fill="#f3c46a"/><rect x="740" y="76" width="26" height="28" rx="4" fill="#7F77DD"/><rect x="498" y="70" width="30" height="6" rx="2" fill="#3C3489"/><rect x="530" y="70" width="30" height="6" rx="2" fill="#3C3489"/><path d="M0,128 C150,106 330,142 510,126 C710,108 910,144 1110,128 C1155,124 1185,128 1200,125 V200 H0 Z" fill="#534AB7"/>
<path d="M0,152 C190,134 400,166 620,152 C840,138 1020,168 1200,152 V200 H0 Z" fill="#3C3489"/>
<path d="M0,180 C240,166 500,192 760,178 C980,166 1110,188 1200,178 V200 H0 Z" fill="#26215C"/>

</svg>
